# Blender v2.91.0 OBJ File: ''
# www.blender.org
mtllib 40x30_Bad_Horse.mtl
o Box001.001
v -0.787400 -0.059055 -0.590551
v -0.787400 0.059055 -0.590551
v 0.787400 0.059055 -0.590551
v 0.787400 -0.059055 -0.590551
v -0.787400 -0.059055 0.590551
v 0.787400 -0.059055 0.590551
v 0.787400 0.059055 0.590551
v -0.787400 0.059055 0.590551
vt 0.899738 0.143114
vt 0.923986 0.143114
vt 0.923986 0.171447
vt 0.899738 0.171447
vt 0.899816 0.143157
vt 0.923864 0.143157
vt 0.923864 0.171475
vt 0.899816 0.171475
vt 0.924009 0.143078
vt 0.924009 0.171482
vt 0.899636 0.171482
vt 0.899636 0.143078
vt 0.899634 0.143112
vt 0.924015 0.143112
vt 0.924015 0.171456
vt 0.224818 0.604625
vt 0.326786 0.604660
vt 0.326757 0.686347
vt 0.224805 0.686345
vt 0.899673 0.143107
vt 0.923926 0.143107
vt 0.923926 0.171416
vt 0.899673 0.171416
vn 0.0000 0.0000 -1.0000
vn 0.0000 0.0000 1.0000
vn 0.0000 -1.0000 -0.0000
vn 1.0000 0.0000 0.0000
vn 0.0000 1.0000 0.0000
vn -1.0000 0.0000 0.0000
usemtl 02___Default.001
s 1
f 1/1/1 2/2/1 3/3/1
f 3/3/1 4/4/1 1/1/1
f 5/5/2 6/6/2 7/7/2
f 7/7/2 8/8/2 5/5/2
f 1/9/3 4/10/3 6/11/3
f 6/11/3 5/12/3 1/9/3
f 4/13/4 3/14/4 7/15/4
f 7/15/4 6/11/4 4/13/4
f 3/16/5 2/17/5 8/18/5
f 8/18/5 7/19/5 3/16/5
f 2/20/6 1/21/6 5/22/6
f 5/22/6 8/23/6 2/20/6
