# Blender v2.91.0 OBJ File: ''
# www.blender.org
mtllib 40x15_Elite_Foot.mtl
o Box001.002
v -0.787400 -0.059055 -0.295276
v -0.787400 0.059055 -0.295276
v 0.787400 0.059055 -0.295276
v 0.787400 -0.059055 -0.295276
v -0.787400 -0.059055 0.295276
v 0.787400 -0.059055 0.295276
v 0.787400 0.059055 0.295276
v -0.787400 0.059055 0.295276
vt 0.900244 0.152264
vt 0.916724 0.152252
vt 0.916714 0.171415
vt 0.900254 0.171422
vt 0.900244 0.152262
vt 0.916724 0.152252
vt 0.916711 0.171415
vt 0.900252 0.171430
vt 0.916724 0.152252
vt 0.916716 0.171415
vt 0.900257 0.171435
vt 0.900242 0.152259
vt 0.916724 0.152252
vt 0.002950 0.562709
vt 0.105238 0.562709
vt 0.105259 0.604021
vt 0.002971 0.604019
vt 0.900244 0.152262
vt 0.916715 0.171414
vn 0.0000 0.0000 -1.0000
vn 0.0000 0.0000 1.0000
vn 0.0000 -1.0000 -0.0000
vn 1.0000 0.0000 0.0000
vn 0.0000 1.0000 0.0000
vn -1.0000 0.0000 0.0000
usemtl 02___Default.002
s 1
f 1/1/1 2/2/1 3/3/1
f 3/3/1 4/4/1 1/1/1
f 5/5/2 6/6/2 7/7/2
f 7/7/2 8/8/2 5/5/2
f 1/9/3 4/10/3 6/11/3
f 6/11/3 5/5/3 1/9/3
f 4/12/4 3/13/4 7/7/4
f 7/7/4 6/11/4 4/12/4
f 3/14/5 2/15/5 8/16/5
f 8/16/5 7/17/5 3/14/5
f 2/18/6 1/9/6 5/19/6
f 5/19/6 8/8/6 2/18/6
