# Blender v2.91.0 OBJ File: ''
# www.blender.org
mtllib 40x20_Archers.mtl
o Box001.006
v -0.787400 -0.059055 -0.393701
v -0.787400 0.059055 -0.393701
v 0.787400 0.059055 -0.393701
v 0.787400 -0.059055 -0.393701
v -0.787400 -0.059055 0.393701
v 0.787400 -0.059055 0.393701
v 0.787400 0.059055 0.393701
v -0.787400 0.059055 0.393701
vt 0.901738 0.138129
vt 0.929368 0.138129
vt 0.929368 0.170304
vt 0.901738 0.170304
vt 0.901857 0.138178
vt 0.929259 0.138178
vt 0.929259 0.170336
vt 0.901857 0.170336
vt 0.929424 0.138088
vt 0.929424 0.170344
vt 0.901652 0.170344
vt 0.901652 0.138088
vt 0.901649 0.138127
vt 0.929430 0.138127
vt 0.929430 0.170314
vt 0.003139 0.944072
vt 0.105315 0.943977
vt 0.105305 0.998740
vt 0.003128 0.998833
vt 0.901694 0.138121
vt 0.929329 0.138121
vt 0.929329 0.170269
vt 0.901694 0.170269
vn 0.0000 0.0000 -1.0000
vn 0.0000 0.0000 1.0000
vn 0.0000 -1.0000 -0.0000
vn 1.0000 0.0000 0.0000
vn 0.0000 1.0000 0.0000
vn -1.0000 0.0000 0.0000
usemtl 02___Default.006
s 1
f 1/1/1 2/2/1 3/3/1
f 3/3/1 4/4/1 1/1/1
f 5/5/2 6/6/2 7/7/2
f 7/7/2 8/8/2 5/5/2
f 1/9/3 4/10/3 6/11/3
f 6/11/3 5/12/3 1/9/3
f 4/13/4 3/14/4 7/15/4
f 7/15/4 6/11/4 4/13/4
f 3/16/5 2/17/5 8/18/5
f 8/18/5 7/19/5 3/16/5
f 2/20/6 1/21/6 5/22/6
f 5/22/6 8/23/6 2/20/6
