# Blender v3.0.0 OBJ File: 'untitled.blend'
# www.blender.org
mtllib tile_40_40.mtl
o Box001.008
v -0.787400 -0.059055 -0.787400
v -0.787400 0.059055 -0.787400
v 0.787400 0.059055 -0.787400
v 0.787400 -0.059055 -0.787400
v -0.787400 -0.059055 0.787400
v 0.787400 -0.059055 0.787400
v 0.787400 0.059055 0.787400
v -0.787400 0.059055 0.787400
vt 0.956474 0.329526
vt 0.956474 0.359740
vt 0.930550 0.359740
vt 0.930550 0.329526
vt 0.917842 0.336270
vt 0.943639 0.336270
vt 0.943639 0.366382
vt 0.917842 0.366382
vt 0.919925 0.375273
vt 0.945504 0.375273
vt 0.945504 0.405395
vt 0.919925 0.405395
vt 0.907318 0.370793
vt 0.933251 0.370793
vt 0.933251 0.400943
vt 0.907321 0.400971
vt 0.898986 0.349875
vt 0.924778 0.349875
vt 0.924778 0.380013
vt 0.898986 0.380013
vt -0.000036 -0.002085
vt 0.998865 -0.002457
vt 0.998483 1.001237
vt -0.000708 0.995011
vn 0.0000 -1.0000 -0.0000
vn -1.0000 0.0000 0.0000
vn 0.0000 0.0000 1.0000
vn 1.0000 0.0000 0.0000
vn 0.0000 0.0000 -1.0000
vn 0.0000 1.0000 0.0000
usemtl 02___Default.008
s 1
f 1/1/1 4/2/1 6/3/1 5/4/1
f 2/5/2 1/6/2 5/7/2 8/8/2
f 5/9/3 6/10/3 7/11/3 8/12/3
f 4/13/4 3/14/4 7/15/4 6/16/4
f 1/17/5 2/18/5 3/19/5 4/20/5
f 3/21/6 2/22/6 8/23/6 7/24/6
