# Blender v3.4.1 OBJ File: 'tile_grass_80x40_D.blend'
# www.blender.org
mtllib tile_grass_80x40_D.mtl
o Box001.003
v -1.574800 -0.059055 0.787400
v -1.574800 0.059055 0.787400
v -1.574800 0.059055 -0.787400
v -1.574800 -0.059055 -0.787400
v 1.574800 -0.059055 0.787400
v 1.574800 -0.059055 -0.787400
v 1.574800 0.059055 -0.787400
v 1.574800 0.059055 0.787400
vt 0.969064 0.000220
vt 0.983958 0.000220
vt 0.983958 0.015323
vt 0.969064 0.015323
vt 0.985180 0.000367
vt 0.999400 0.000367
vt 0.999400 0.015417
vt 0.985180 0.015417
vt 0.999889 0.000101
vt 0.999889 0.015443
vt 0.984575 0.015443
vt 0.984575 0.000101
vt 0.984566 0.000215
vt 0.999907 0.000215
vt 0.999907 0.015353
vt 0.138290 0.990833
vt 0.138290 0.657500
vt 0.804957 0.657500
vt 0.804956 0.990834
vt 0.984699 0.000198
vt 0.999608 0.000198
vt 0.999608 0.015219
vt 0.984699 0.015219
vn -1.0000 0.0000 0.0000
vn 1.0000 0.0000 0.0000
vn -0.0000 -1.0000 0.0000
vn -0.0000 0.0000 -1.0000
vn 0.0000 1.0000 0.0000
vn 0.0000 0.0000 1.0000
usemtl 02___Default.003
s 1
f 1/1/1 2/2/1 3/3/1
f 3/3/1 4/4/1 1/1/1
f 5/5/2 6/6/2 7/7/2
f 7/7/2 8/8/2 5/5/2
f 1/9/3 4/10/3 6/11/3
f 6/11/3 5/12/3 1/9/3
f 4/13/4 3/14/4 7/15/4
f 7/15/4 6/11/4 4/13/4
f 3/16/5 2/17/5 8/18/5
f 8/18/5 7/19/5 3/16/5
f 2/20/6 1/21/6 5/22/6
f 5/22/6 8/23/6 2/20/6
