# Blender v3.0.0 OBJ File: 'tile_40_15.blend'
# www.blender.org
mtllib tile_40_15.mtl
o Box001.008
v -0.787400 -0.059055 -0.295275
v -0.787400 0.059055 -0.295275
v 0.787400 0.059055 -0.295275
v 0.787400 -0.059055 -0.295275
v -0.787400 -0.059055 0.295275
v 0.787400 -0.059055 0.295275
v 0.787400 0.059055 0.295275
v -0.787400 0.059055 0.295275
vt 0.938706 0.355948
vt 0.927599 0.355948
vt 0.927599 0.330862
vt 0.938706 0.330862
vt 0.917962 0.305792
vt 0.943754 0.305792
vt 0.943754 0.335930
vt 0.917962 0.335930
vt 0.919558 0.310081
vt 0.945491 0.310081
vt 0.945491 0.340231
vt 0.919561 0.340259
vt 0.911502 0.357322
vt 0.937081 0.357322
vt 0.937081 0.387444
vt 0.911502 0.387444
vt -0.002393 0.003065
vt 1.000048 0.005835
vt 0.998483 1.004426
vt -0.002090 1.007868
vt 0.936101 0.305785
vt 0.961898 0.305785
vt 0.961898 0.335897
vt 0.936101 0.335897
vn 0.0000 -1.0000 -0.0000
vn 0.0000 0.0000 -1.0000
vn 1.0000 0.0000 0.0000
vn 0.0000 0.0000 1.0000
vn 0.0000 1.0000 0.0000
vn -1.0000 0.0000 0.0000
usemtl 02___Default.008
s 1
f 1/1/1 4/2/1 6/3/1 5/4/1
f 1/5/2 2/6/2 3/7/2 4/8/2
f 4/9/3 3/10/3 7/11/3 6/12/3
f 5/13/4 6/14/4 7/15/4 8/16/4
f 3/17/5 2/18/5 8/19/5 7/20/5
f 2/21/6 1/22/6 5/23/6 8/24/6
