# Blender v3.0.0 OBJ File: 'terrain_steep_hill_175.blend'
# www.blender.org
mtllib terrain_steep_hill_175.mtl
o terrain_Steep_Hill_#175.001_Cube.001
v -0.281909 -0.214454 2.566848
v -1.307160 -0.214454 2.529401
v -2.293010 -0.214454 2.418498
v -3.089796 -0.199272 2.148746
v -3.997939 -0.214454 1.996033
v -4.590008 -0.199272 1.611050
v -4.703504 -0.199272 0.808620
v 4.573317 -0.214454 1.363769
v 4.087680 -0.214454 1.700705
v 3.434121 -0.214454 1.996032
v 2.637757 -0.214454 2.238401
v 1.729191 -0.214454 2.418498
v 0.743340 -0.214454 2.529401
v -5.017241 -0.213263 -1.921340
v 5.218979 -0.214454 -1.921340
v 2.026784 0.572948 -0.860158
v 1.818248 0.572948 -0.715475
v 2.235351 0.572948 -1.921340
v 0.805493 0.572948 -0.407249
v 1.195638 0.572948 -0.484584
v 0.382160 0.572948 -0.359626
v -0.058091 0.572948 -0.343546
v 1.537604 0.572948 -0.588659
v -0.921674 0.572948 -0.407249
v -1.930476 0.572948 -0.734176
v -1.979755 0.572948 -1.082578
v -2.059979 0.572948 -1.921340
v -1.653786 0.572948 -0.588659
v -1.279107 0.572948 -0.500716
v -0.498342 0.572948 -0.359626
vt 0.743500 0.272703
vt 0.698044 0.271345
vt 0.945748 0.049271
vt 0.556997 0.677129
vt 0.517017 0.953372
vt 0.517017 0.681067
vt 0.595440 0.665468
vt 0.610121 0.944202
vt 0.632135 0.648426
vt 0.699646 0.917045
vt 0.661923 0.621045
vt 0.782153 0.872944
vt 0.689304 0.591258
vt 0.854471 0.813594
vt 0.957922 0.658768
vt 0.708452 0.555434
vt 0.982950 0.576262
vt 0.714674 0.529831
vt 0.050748 0.575155
vt 0.327689 0.554562
vt 0.076112 0.658768
vt 0.120213 0.741276
vt 0.346626 0.589991
vt 0.179563 0.813594
vt 0.372112 0.621045
vt 0.251881 0.872944
vt 0.403166 0.646531
vt 0.334388 0.917045
vt 0.438595 0.665468
vt 0.984318 0.300352
vt 0.515513 0.299795
vt 0.703178 0.485388
vt 0.423914 0.944202
vt 0.477038 0.677130
vt 0.308807 0.047706
vt 0.059704 0.233280
vt 0.158096 0.052256
vt 0.548952 0.224724
vt 0.527051 0.205018
vt 0.502680 0.057850
vt 0.939731 0.166083
vt 0.869025 0.248405
vt 0.788869 0.269587
vt 0.832408 0.262118
vt 0.935587 0.214636
vt 0.907437 0.235426
vt 0.578242 0.241800
vt 0.613796 0.255592
vt 0.654249 0.265567
vt 0.913821 0.741276
vt 0.319496 0.527552
vt 0.528269 0.341844
vt 0.550447 0.383337
vt 0.580294 0.419706
vt 0.616663 0.449553
vt 0.658156 0.471731
vt 0.750000 0.490000
vt 0.796822 0.485388
vt 0.841844 0.471731
vt 0.883337 0.449553
vt 0.919706 0.419706
vt 0.971731 0.341844
vt 0.949553 0.383337
vt 0.418874 0.222706
vn 0.0000 1.0000 -0.0000
vn -0.0095 0.9654 0.2605
vn -0.0287 0.9664 0.2554
vn -0.0626 0.9689 0.2396
vn -0.0571 0.9683 0.2432
vn -0.1056 0.9739 0.2009
vn -0.2498 0.9677 0.0353
vn -0.2569 0.9661 0.0246
vn 0.2549 0.9657 0.0501
vn 0.1331 0.9724 0.1919
vn 0.1003 0.9699 0.2219
vn 0.0733 0.9678 0.2410
vn 0.0501 0.9662 0.2529
vn -0.0001 -1.0000 -0.0001
vn 0.0292 0.9653 0.2594
vn 0.0096 0.9651 0.2618
vn 0.0000 0.0000 -1.0000
vn 0.0000 -1.0000 0.0000
vn -0.0000 -1.0000 -0.0003
vn -0.0241 -0.9996 0.0148
vn 0.0210 -0.9995 -0.0252
vn -0.0282 -0.9996 0.0040
vn -0.0047 -1.0000 0.0057
usemtl Material.001
s off
f 22/1/1 21/2/1 27/3/1
f 30/4/2 1/5/2 22/6/2
f 24/7/3 2/8/3 30/4/3
f 29/9/4 3/10/4 24/7/4
f 28/11/5 4/12/5 29/9/5
f 25/13/6 5/14/6 28/11/6
f 7/15/7 25/13/7 26/16/7
f 14/17/8 26/16/8 27/18/8
f 15/19/9 16/20/9 8/21/9
f 9/22/10 16/20/10 17/23/10
f 10/24/11 17/23/11 23/25/11
f 11/26/12 23/25/12 20/27/12
f 12/28/13 20/27/13 19/29/13
f 14/30/14 15/31/14 13/32/14
f 13/33/15 19/29/15 21/34/15
f 13/33/16 22/6/16 1/5/16
f 18/35/17 14/36/17 27/37/17
f 17/38/1 16/39/1 18/40/1
f 18/40/1 27/3/1 21/2/1
f 27/3/1 26/41/1 29/42/1
f 30/43/1 27/3/1 24/44/1
f 26/41/1 25/45/1 28/46/1
f 29/42/1 24/44/1 27/3/1
f 26/41/1 28/46/1 29/42/1
f 17/38/1 18/40/1 23/47/1
f 27/3/1 30/43/1 22/1/1
f 20/48/1 18/40/1 19/49/1
f 20/48/1 23/47/1 18/40/1
f 21/2/1 19/49/1 18/40/1
f 30/4/2 2/8/2 1/5/2
f 24/7/3 3/10/3 2/8/3
f 29/9/4 4/12/4 3/10/4
f 28/11/5 5/14/5 4/12/5
f 25/13/6 6/50/6 5/14/6
f 7/15/7 6/50/7 25/13/7
f 14/17/8 7/15/8 26/16/8
f 15/19/9 18/51/9 16/20/9
f 9/22/10 8/21/10 16/20/10
f 10/24/11 9/22/11 17/23/11
f 11/26/12 10/24/12 23/25/12
f 12/28/13 11/26/13 20/27/13
f 15/31/18 8/52/18 9/53/18
f 9/53/18 10/54/18 15/31/18
f 10/54/18 11/55/18 15/31/18
f 11/55/18 12/56/18 15/31/18
f 12/56/18 13/32/18 15/31/18
f 13/32/19 1/57/19 14/30/19
f 1/57/19 2/58/19 14/30/19
f 2/58/19 3/59/19 14/30/19
f 3/59/20 4/60/20 14/30/20
f 4/60/21 5/61/21 7/62/21
f 5/61/22 6/63/22 7/62/22
f 7/62/23 14/30/23 4/60/23
f 13/33/15 12/28/15 19/29/15
f 13/33/16 21/34/16 22/6/16
f 18/35/17 15/64/17 14/36/17
