# Blender v3.0.0 OBJ File: 'terrain_wooded_hill_120.blend'
# www.blender.org
mtllib terrain_wooded_hill_120.mtl
o terrain_Wooded_Hill_#120.001_Cylinder.001
v -0.333538 -0.393750 1.846683
v -0.048532 0.393651 -0.261732
v -1.113899 -0.393750 1.793561
v -0.202982 0.393651 -0.285723
v -1.864272 -0.393750 1.636236
v -0.364041 0.393651 -0.317700
v -2.555819 -0.393750 1.380754
v -0.467278 0.393651 -0.313561
v -3.161965 -0.393750 1.036933
v -0.531240 0.393651 -0.312356
v -3.659416 -0.393750 0.617986
v -0.618097 0.393651 -0.362112
v -4.029056 -0.393750 0.140013
v -0.721726 0.393651 -0.461649
v -4.256679 -0.393750 -0.378618
v -0.774251 0.393651 -0.576863
v -4.333538 -0.393750 -0.917977
v -0.780251 0.393651 -0.798936
v 3.666462 -0.393750 -0.917977
v 1.501361 0.393651 -0.819563
v 3.589603 -0.393750 -0.378618
v 1.531838 0.393651 -0.778046
v 3.361980 -0.393750 0.140013
v 1.558254 0.393651 -0.732326
v 2.992341 -0.393750 0.617985
v 1.590143 0.393651 -0.618878
v 2.494890 -0.393750 1.036933
v 1.429660 0.393651 -0.447933
v 1.888743 -0.393750 1.380754
v 1.167568 0.393651 -0.318260
v 1.197196 -0.393750 1.636236
v 0.904317 0.393651 -0.277713
v 0.446823 -0.393750 1.793561
v 0.475166 0.393651 -0.240847
v -0.801493 0.393651 -1.127459
v -4.300002 -0.393750 -1.153317
v 1.488798 0.395532 -1.106167
v 3.632926 -0.393750 -1.153317
vt 0.635951 0.004942
vt 0.707804 0.509125
vt 0.590103 0.012423
vt 0.698387 0.511319
vt 0.546249 0.022902
vt 0.692297 0.511963
vt 0.506075 0.035977
vt 0.688527 0.512404
vt 0.471125 0.051145
vt 0.456173 0.490839
vt 0.372950 0.995839
vt 0.414608 0.482481
vt 0.363263 0.994193
vt 0.369745 0.477559
vt 0.352921 0.993859
vt 0.323308 0.476261
vt 0.334220 0.995435
vt 0.277081 0.478638
vt 0.306393 0.997479
vt 0.257777 0.481239
vt 0.975702 0.492253
vt 1.000000 0.000366
vt 1.000000 0.493355
vt 0.980287 0.000000
vt 0.972431 0.491807
vt 0.933813 0.001551
vt 0.968769 0.491426
vt 0.887831 0.005431
vt 0.959398 0.491005
vt 0.844109 0.011494
vt 0.943523 0.493613
vt 0.804325 0.019504
vt 0.804325 0.008828
vt 0.788603 0.499878
vt 0.767869 0.002728
vt 0.773008 0.500594
vt 0.726576 0.000000
vt 0.521661 0.517907
vt 0.546284 0.518982
vt 0.471125 0.578180
vt 0.747650 0.502664
vt 0.682033 0.000748
vt 0.716849 0.507228
vt 0.018639 0.968108
vt 0.020893 0.967886
vt 0.021877 0.967983
vt 0.471125 0.476261
vt 0.207769 0.001146
vt 0.343792 0.000000
vt 0.378245 0.997479
vt 0.804325 0.501928
vt 0.546284 0.655013
vt 0.518076 0.653374
vt 0.499001 0.652762
vt 0.477061 0.628104
vt 0.489144 0.649510
vt 0.480675 0.643242
vt 0.476469 0.638027
vt 0.476623 0.634230
vt 0.474442 0.618503
vt 0.472503 0.609303
vt 0.474634 0.552738
vt 0.478326 0.537152
vt 0.489675 0.521738
vt 0.504490 0.512404
vt 0.514211 0.514428
vt 0.518118 0.516050
vt 0.021877 0.990901
vt 0.020893 0.990998
vt 0.018639 0.990776
vt 0.016471 0.990118
vt 0.014473 0.989050
vt 0.012722 0.987613
vt 0.011285 0.985862
vt 0.010217 0.983864
vt 0.009560 0.981696
vt 0.009338 0.979442
vt 0.009560 0.977187
vt 0.010217 0.975020
vt 0.011285 0.973022
vt 0.012722 0.971271
vt 0.014473 0.969833
vt 0.016471 0.968766
vt 0.000000 0.476261
vn -0.0235 0.9383 0.3450
vn -0.0686 0.9425 0.3271
vn -0.1117 0.9467 0.3023
vn -0.1498 0.9528 0.2640
vn -0.1798 0.9603 0.2135
vn -0.2018 0.9669 0.1561
vn -0.2145 0.9722 0.0941
vn -0.2172 0.9756 0.0310
vn -0.2192 0.9752 -0.0312
vn 0.3453 0.9385 -0.0090
vn 0.3485 0.9360 0.0497
vn 0.3351 0.9306 0.1471
vn 0.3076 0.9213 0.2379
vn 0.2556 0.9179 0.3034
vn 0.1947 0.9189 0.3432
vn 0.1329 0.9236 0.3596
vn 0.0036 1.0000 0.0064
vn 0.0757 0.9296 0.3608
vn 0.0240 0.9355 0.3526
vn 0.0000 -1.0000 0.0000
vn 0.0092 0.0845 -0.9964
vn -0.0533 0.9378 0.3430
vn -0.0652 0.9423 0.3283
vn 0.0154 0.9233 0.3839
vn 0.0081 0.9030 0.4296
vn -0.1505 0.9531 0.2627
vn -0.1867 0.9630 0.1944
vn -0.2137 0.9720 0.0974
vn -0.2202 0.9754 0.0060
vn -0.2168 0.9761 0.0140
vn 0.3394 0.9394 -0.0484
vn 0.3225 0.9165 -0.2368
vn 0.3858 0.8952 -0.2229
vn 0.4474 0.8855 -0.1257
vn 0.2831 0.9215 0.2658
vn 0.1775 0.9164 0.3587
vn 0.0613 0.9153 0.3981
vn -0.0008 1.0000 0.0012
vn 0.0000 1.0000 0.0000
vn 0.0323 0.9260 0.3760
vn -0.0144 0.9326 0.3607
vn 0.0000 0.0328 -0.9995
usemtl Material.001
s off
f 1/1/1 4/2/1 3/3/1
f 3/3/2 6/4/2 5/5/2
f 5/5/3 8/6/3 7/7/3
f 7/7/4 10/8/4 9/9/4
f 9/10/5 12/11/5 11/12/5
f 11/12/6 14/13/6 13/14/6
f 13/14/7 16/15/7 15/16/7
f 15/16/8 18/17/8 17/18/8
f 17/18/9 35/19/9 36/20/9
f 20/21/10 38/22/10 37/23/10
f 19/24/11 22/25/11 21/26/11
f 21/26/12 24/27/12 23/28/12
f 23/28/13 26/29/13 25/30/13
f 25/30/14 28/31/14 27/32/14
f 27/33/15 30/34/15 29/35/15
f 29/35/16 32/36/16 31/37/16
f 20/38/17 37/39/17 34/40/17
f 31/37/18 34/41/18 33/42/18
f 33/42/19 2/43/19 1/1/19
f 15/44/20 17/45/20 36/46/20
f 38/47/21 35/48/21 37/49/21
f 1/1/22 2/43/22 4/2/22
f 3/3/23 4/2/23 6/4/23
f 5/5/24 6/4/24 8/6/24
f 7/7/25 8/6/25 10/8/25
f 9/10/26 10/50/26 12/11/26
f 11/12/27 12/11/27 14/13/27
f 13/14/28 14/13/28 16/15/28
f 15/16/29 16/15/29 18/17/29
f 17/18/30 18/17/30 35/19/30
f 20/21/31 19/24/31 38/22/31
f 19/24/32 20/21/32 22/25/32
f 21/26/33 22/25/33 24/27/33
f 23/28/34 24/27/34 26/29/34
f 25/30/35 26/29/35 28/31/35
f 27/33/36 28/51/36 30/34/36
f 29/35/37 30/34/37 32/36/37
f 37/39/38 35/52/38 34/40/38
f 35/52/39 18/53/39 34/40/39
f 18/53/39 16/54/39 6/55/39
f 16/54/39 14/56/39 6/55/39
f 14/56/39 12/57/39 6/55/39
f 12/57/39 10/58/39 8/59/39
f 6/55/39 12/57/39 8/59/39
f 6/55/39 4/60/39 18/53/39
f 4/60/39 2/61/39 18/53/39
f 2/61/39 34/40/39 18/53/39
f 34/40/39 32/62/39 20/38/39
f 32/62/39 30/63/39 20/38/39
f 30/63/39 28/64/39 20/38/39
f 28/64/39 26/65/39 24/66/39
f 24/66/39 22/67/39 28/64/39
f 22/67/39 20/38/39 28/64/39
f 31/37/40 32/36/40 34/41/40
f 33/42/41 34/41/41 2/43/41
f 38/68/20 19/69/20 21/70/20
f 21/70/20 23/71/20 38/68/20
f 23/71/20 25/72/20 38/68/20
f 25/72/20 27/73/20 38/68/20
f 27/73/20 29/74/20 38/68/20
f 29/74/20 31/75/20 38/68/20
f 31/75/20 33/76/20 38/68/20
f 33/76/20 1/77/20 38/68/20
f 1/77/20 3/78/20 36/46/20
f 38/68/20 1/77/20 36/46/20
f 3/78/20 5/79/20 36/46/20
f 5/79/20 7/80/20 36/46/20
f 7/80/20 9/81/20 36/46/20
f 9/81/20 11/82/20 36/46/20
f 11/82/20 13/83/20 36/46/20
f 13/83/20 15/44/20 36/46/20
f 38/47/42 36/84/42 35/48/42
