# Blender v3.0.0 OBJ File: 'terrain_wooded_hill_118.blend'
# www.blender.org
mtllib terrain_wooded_hill_118.mtl
o terrain_Wooded_Hill_#118.001
v 1.235001 -0.153304 -2.442667
v 0.094479 -0.153304 -2.586352
v 0.537362 -0.153304 -2.582312
v 0.537362 -0.166150 -2.582312
v 0.094479 -0.166150 -2.586352
v 1.235001 -0.166150 -2.442667
v 1.721815 -0.166150 -2.226670
v 1.721815 -0.153304 -2.226671
v 2.232709 -0.166150 -2.009600
v 1.073103 -0.166150 2.310123
v -1.571375 -0.166150 -2.296080
v 2.232709 -0.166150 -2.009600
v 2.232709 -0.153304 -2.009600
v 2.729465 -0.153303 -1.710670
v 2.232709 -0.153304 -2.009600
v 2.729465 -0.166150 -1.710670
v 2.406173 -0.153303 1.951239
v 3.066089 -0.153303 1.674183
v 3.066089 -0.166150 1.674183
v 3.778919 -0.153303 1.292254
v 3.778919 -0.166150 1.292254
v 3.359187 -0.166150 -1.419476
v 4.479024 -0.153303 -0.627895
v 4.631922 -0.153303 -0.181277
v 4.631922 -0.166150 -0.181277
v 4.479024 -0.166150 -0.627895
v 4.046933 -0.166150 -1.131357
v 4.277791 -0.166150 0.651928
v 4.277791 -0.153303 0.651928
v 4.046933 -0.153303 -1.131356
v 3.359189 -0.153303 -1.419476
v 2.406173 -0.166150 1.951239
v 1.739877 -0.166150 2.116492
v 1.073103 -0.166150 2.310123
v 1.073103 -0.153303 2.310123
v 1.739877 -0.153303 2.116492
v 1.073105 -0.153303 2.310123
v 0.409331 -0.166150 2.413647
v -1.820160 -0.153303 2.272454
v 0.409331 -0.153303 2.413647
v -0.825831 -0.166150 2.401026
v -0.825831 -0.153303 2.401026
v -1.820160 -0.166150 2.272454
v -4.211819 -0.153303 -0.952017
v -4.327303 -0.153303 -0.603368
v -4.361001 -0.153303 -0.245525
v -4.327303 -0.166150 -0.603368
v -4.361001 -0.166150 -0.245525
v -4.191829 -0.166150 0.446100
v -4.191829 -0.153303 0.446100
v -3.808383 -0.153303 1.415809
v -3.280498 -0.153303 1.931484
v -3.938683 -0.166150 -1.203919
v -3.808383 -0.166150 1.415809
v -3.280498 -0.166150 1.931484
v -3.938683 -0.153303 -1.203919
v -4.211819 -0.166150 -0.952017
v -1.571375 -0.153304 -2.296080
v 1.133061 0.621251 -0.073750
v 1.068380 0.621251 0.078433
v 0.604836 0.621251 0.345932
v 0.483051 0.621251 0.381299
v -0.045396 0.621251 0.374418
v 0.136216 0.621251 0.397902
v -0.478576 0.621251 0.040839
v -0.408541 0.621251 0.217954
v 0.512622 0.621251 -0.486787
v 0.385199 0.621251 -0.512293
v 0.601537 0.621251 -0.447336
v 0.694850 0.621251 -0.407688
v 0.785582 0.621251 -0.353090
v 0.726533 0.621251 0.315749
v 0.847065 0.621251 0.265146
v 0.361815 0.621251 0.400207
v -0.482227 0.621251 -0.214523
v -0.503320 0.621251 -0.150843
v -0.312124 0.621251 0.312141
v -0.432339 0.621251 -0.260533
v 0.977262 0.621251 0.195387
v -0.509475 0.621251 -0.085484
v 0.304308 0.621251 -0.513031
v 1.026214 0.621251 -0.247279
v 0.900599 0.621251 -0.299904
v 1.105135 0.621251 -0.155323
v 0.000044 0.621251 -0.460013
vt 0.996154 0.000000
vt 0.997436 0.055389
vt 0.996154 0.055389
vt 0.997436 0.696843
vt 0.998718 0.627663
vt 0.998718 0.696843
vt 0.998718 0.084479
vt 1.000000 0.000000
vt 1.000000 0.084479
vt 0.998718 0.147275
vt 1.000000 0.182722
vt 1.000000 0.147275
vt 0.404741 0.678394
vt 0.404758 0.678397
vt 0.404758 0.678397
vt 0.997436 0.306923
vt 0.998718 0.206888
vt 0.998718 0.306923
vt 1.000000 0.250306
vt 0.998718 0.219273
vt 1.000000 0.219273
vt 0.996154 0.774098
vt 0.997436 0.684097
vt 0.997436 0.774098
vt 0.996154 0.684097
vt 0.864937 0.160768
vt 0.757363 0.366857
vt 0.825526 0.103872
vt 0.998718 0.494115
vt 0.997436 0.553258
vt 0.997436 0.494115
vt 0.998718 0.553258
vt 0.997436 0.108519
vt 0.996154 0.108519
vt 0.998718 0.000000
vt 0.997436 0.058229
vt 0.997436 0.000000
vt 0.000000 0.490421
vt 0.000017 0.490424
vt 0.000000 0.490421
vt 0.996154 0.870175
vt 0.996154 0.806297
vt 0.997436 0.870175
vt 0.997436 0.178126
vt 0.996154 0.178126
vt 0.996154 0.806297
vt 0.997436 0.806297
vt 0.013863 0.986997
vt 0.013746 0.985341
vt 0.022455 0.989288
vt 0.997436 0.206888
vt 0.998718 0.058229
vt 0.997436 0.754077
vt 0.997436 0.934331
vt 0.996154 0.996574
vt 0.996154 0.934331
vt 0.997436 0.429503
vt 0.998718 0.494115
vt 0.997436 0.494115
vt 0.997436 0.604317
vt 0.996154 0.604317
vt 0.997436 0.219063
vt 0.996154 0.361296
vt 0.996154 0.219063
vt 0.997436 0.537290
vt 0.997436 0.627663
vt 0.998718 0.182722
vt 0.996154 0.537290
vt 0.997436 0.361296
vt 0.997436 0.537290
vt 0.782380 0.401783
vt 0.787070 0.413867
vt 0.697551 0.419544
vt 0.988171 0.361253
vt 0.788528 0.421803
vt 0.785422 0.041224
vt 0.739647 0.349233
vt 0.728529 0.007381
vt 0.505669 0.323505
vt 0.699825 0.394497
vt 0.698942 0.406972
vt 0.996154 0.573363
vt 0.776325 0.498509
vt 0.788528 0.452608
vt 0.606167 0.049057
vt 0.731150 0.347885
vt 0.717298 0.356845
vt 0.929342 0.824673
vt 0.772656 0.504199
vt 0.750038 0.355414
vt 0.499249 0.459334
vt 0.697769 0.431781
vt 0.510500 0.255205
vt 0.702734 0.381787
vt 0.701860 0.453910
vt 0.521646 0.580489
vt 0.996154 0.404703
vt 0.498055 0.392338
vt 0.876963 0.873138
vt 0.760438 0.509085
vt 0.766758 0.507361
vt 0.551317 0.675995
vt 0.717970 0.496497
vt 0.609850 0.813657
vt 0.551766 0.109036
vt 0.707362 0.367800
vt 0.932922 0.250952
vt 0.771483 0.385230
vt 0.902832 0.204464
vt 0.909258 0.855823
vt 0.707280 0.471354
vt 0.962493 0.295091
vt 0.776979 0.393721
vt 0.682007 0.000000
vt 0.728881 0.504360
vt 0.669584 0.856703
vt 0.526432 0.185618
vt 0.771477 0.877786
vt 0.842363 0.882573
vt 0.764562 0.377249
vt 0.747491 0.508210
vt 0.997436 0.000000
vt 0.404741 0.678394
vt 0.434829 0.631889
vt 0.366868 0.722110
vt 0.998718 0.250306
vt 0.007630 0.559287
vt 0.000017 0.490424
vt 0.007612 0.559283
vt 0.997436 0.806297
vt 0.013562 0.983671
vt 0.024103 0.987101
vt 0.013591 0.982047
vt 0.025442 0.984426
vt 0.014134 0.979108
vt 0.025636 0.983372
vt 0.014853 0.976792
vt 0.025636 0.979282
vt 0.016272 0.973454
vt 0.017720 0.972410
vt 0.020189 0.971899
vt 0.021908 0.971783
vt 0.024016 0.973187
vt 0.022746 0.972011
vt 0.023529 0.972431
vt 0.024820 0.986030
vt 0.023373 0.988228
vt 0.021500 0.990668
vt 0.020528 0.992187
vt 0.016182 0.991997
vt 0.019148 0.993008
vt 0.014250 0.988685
vt 0.018021 0.993187
vt 0.014864 0.990542
vt 0.998718 0.754077
vt 0.997436 0.996574
vt 0.998718 0.429503
vt 0.996154 0.537290
vn 0.3910 -0.0000 -0.9204
vn 0.3938 -0.0001 -0.9192
vn 0.4028 -0.0001 -0.9153
vn 0.4197 -0.0000 -0.9077
vn 0.4197 -0.0001 -0.9077
vn -0.9299 0.0000 0.3677
vn -0.9714 0.0000 0.2376
vn -0.9956 0.0000 -0.0938
vn 0.0000 0.9950 -0.1003
vn 0.9837 0.0000 0.1796
vn 0.0000 0.9908 0.1350
vn -0.1282 0.0000 0.9917
vn -0.6780 0.0000 -0.7351
vn 0.9203 0.0000 0.3912
vn -0.5521 0.8319 -0.0561
vn 0.1463 0.9343 -0.3251
vn 0.1428 0.9326 -0.3315
vn 0.7588 0.0000 -0.6513
vn 0.7588 0.0001 -0.6513
vn 0.4056 -0.0000 -0.9141
vn -0.6988 0.0000 0.7153
vn -0.4956 -0.0000 0.8686
vn 0.1403 0.0733 0.9874
vn 0.0726 -0.4829 -0.8727
vn 0.1382 0.0722 0.9878
vn 0.2776 0.0000 0.9607
vn 0.2964 -0.0000 0.9551
vn 0.2418 -0.0000 0.9703
vn 0.1963 0.0000 -0.9805
vn 0.9461 0.0000 -0.3239
vn -0.0000 -1.0000 0.0000
vn -0.1991 -0.0000 0.9800
vn 0.5156 0.0000 -0.8568
vn 0.3086 0.0000 0.9512
vn 0.3871 0.0000 0.9220
vn 0.3036 0.0000 0.9528
vn 0.1541 -0.0000 0.9881
vn -0.0102 0.0000 0.9999
vn 0.7889 0.0000 0.6146
vn 0.7888 0.0000 0.6146
vn -0.1423 0.0000 -0.9898
vn -0.1868 0.0000 -0.9824
vn 0.4723 0.0000 0.8815
vn 0.3864 -0.0000 -0.9223
vn 0.3864 0.0001 -0.9223
vn -0.9493 0.0000 -0.3144
vn -0.4104 -0.0000 -0.9119
vn -0.3699 0.0000 -0.9291
vn 0.0091 0.0000 -1.0000
vn 0.0000 1.0000 -0.0000
vn 0.0355 0.9368 -0.3479
vn -0.0149 0.9401 -0.3406
vn 0.0367 0.9368 -0.3478
vn 0.1832 0.9594 -0.2145
vn 0.2042 0.9700 -0.1318
vn 0.2079 0.9721 -0.1086
vn -0.0197 0.9424 0.3339
vn 0.0918 0.9359 0.3401
vn 0.2052 0.9099 0.3605
vn -0.1157 0.9335 -0.3395
vn -0.1382 0.9563 -0.2575
vn -0.0781 0.9536 -0.2906
vn 0.2130 0.9699 0.1181
vn 0.2165 0.9762 0.0126
vn 0.2100 0.9686 0.1329
vn -0.1610 0.9656 -0.2041
vn -0.1761 0.9753 -0.1336
vn 0.1597 0.9457 -0.2830
vn 0.0251 0.9332 0.3584
vn -0.1095 0.9344 0.3390
vn 0.0269 0.9332 0.3584
vn 0.1263 0.9385 0.3212
vn 0.1377 0.9434 0.3018
vn -0.0195 0.9356 0.3524
vn -0.0287 0.9369 0.3485
vn -0.0426 0.9349 -0.3524
vn 0.2627 0.9058 0.3325
vn -0.1939 0.9802 -0.0395
vn -0.1978 0.9801 0.0173
vn -0.1936 0.9802 -0.0420
vn -0.0592 0.9394 0.3377
vn -0.1166 0.9599 0.2548
vn -0.1228 0.9690 0.2145
vn 0.1876 0.9617 0.1998
vn 0.1711 0.9561 0.2381
vn 0.1344 0.9370 -0.3224
vn 0.7200 0.6787 0.1445
vn -0.5404 0.6792 -0.4967
vn -0.1822 0.9776 -0.1054
vn -0.0589 0.9454 0.3205
vn 0.1044 0.9373 -0.3326
vn 0.1064 0.9373 -0.3319
vn 0.1439 0.9370 -0.3183
vn 0.2163 0.9763 0.0054
vn -0.1771 0.9758 0.1282
vn -0.1823 0.9766 0.1142
vn 0.1447 0.9454 0.2919
vn -0.1974 0.9784 0.0611
vn -0.1976 0.9802 0.0124
vn 0.7693 0.4909 -0.4089
vn -0.1970 0.9783 0.0647
vn -0.4955 0.8583 -0.1335
vn 0.9204 0.0000 0.3910
vn 0.8568 0.0001 -0.5156
vn 0.0728 -0.9648 0.2528
vn 0.0673 -0.9800 -0.1872
vn 0.0137 0.1702 0.9853
vn -0.1869 0.0000 -0.9824
usemtl Default_OBJ.013
s 1
f 13/1/1 7/2/2 8/3/3
f 14/4/4 22/5/5 16/6/4
f 49/7/6 51/8/6 50/9/6
f 50/9/7 48/10/7 49/7/7
f 45/11/8 48/10/8 46/12/8
f 12/13/9 13/14/10 15/15/11
f 42/16/12 43/17/12 41/18/12
f 56/19/13 57/20/13 44/21/13
f 24/22/14 28/23/14 25/24/14
f 24/22/14 29/25/14 28/23/14
f 14/26/15 83/27/16 31/28/17
f 26/29/18 30/30/19 23/31/18
f 27/32/19 30/30/19 26/29/18
f 8/3/3 6/33/20 1/34/20
f 54/35/21 52/36/22 51/37/21
f 34/38/23 35/39/24 10/40/25
f 36/41/26 35/42/27 33/43/28
f 1/34/29 4/44/29 3/45/29
f 23/46/30 25/24/30 26/47/30
f 32/48/31 33/49/31 16/50/31
f 39/51/32 55/52/22 43/17/32
f 16/6/33 15/53/33 14/4/33
f 32/54/34 18/55/35 17/56/36
f 40/57/37 10/58/37 37/59/37
f 41/18/38 40/57/38 42/16/38
f 21/60/39 29/25/40 20/61/39
f 5/62/41 58/63/42 2/64/41
f 20/61/43 19/65/43 21/60/43
f 31/66/44 27/32/45 22/5/44
f 44/21/46 47/67/46 45/11/46
f 56/68/47 11/69/48 53/70/47
f 2/64/49 4/44/49 5/62/49
f 67/71/50 68/72/50 62/73/50
f 3/74/51 81/75/52 68/72/53
f 30/76/54 84/77/55 23/78/56
f 36/79/57 72/80/58 61/81/59
f 58/82/60 78/83/61 85/84/62
f 29/85/63 59/86/64 60/87/65
f 56/88/66 75/89/67 78/83/61
f 31/28/17 82/90/68 30/76/54
f 40/91/69 62/73/70 74/92/71
f 17/93/72 73/94/73 72/80/58
f 40/91/69 64/95/74 42/96/75
f 2/97/76 85/84/62 81/75/52
f 37/98/77 61/81/59 62/73/70
f 45/99/78 80/100/79 76/101/80
f 39/102/81 77/103/82 52/104/83
f 20/105/84 60/87/65 79/106/85
f 8/107/86 70/108/87 13/109/88
f 44/110/89 76/101/80 75/89/67
f 42/96/75 63/111/90 39/102/81
f 3/74/51 67/71/91 1/112/92
f 1/112/92 69/113/93 8/107/86
f 23/78/56 59/86/64 24/114/94
f 52/104/83 66/115/95 51/116/96
f 18/117/97 79/106/85 73/94/73
f 50/118/98 80/100/79 46/119/99
f 13/109/88 71/120/100 14/26/15
f 51/116/96 65/121/101 50/118/98
f 13/1/1 12/122/1 7/2/2
f 14/4/4 31/66/5 22/5/5
f 49/7/6 54/35/6 51/8/6
f 50/9/7 46/12/7 48/10/7
f 45/11/8 47/67/8 48/10/8
f 9/123/102 7/124/103 12/13/9
f 13/14/10 14/125/104 15/15/11
f 15/15/11 9/123/102 12/13/9
f 42/16/12 39/51/12 43/17/12
f 56/19/13 53/126/13 57/20/13
f 14/26/15 71/120/100 83/27/16
f 8/3/3 7/2/2 6/33/20
f 54/35/21 55/52/22 52/36/22
f 35/39/24 36/127/105 37/128/106
f 10/40/25 33/129/107 34/38/23
f 35/39/24 37/128/106 10/40/25
f 35/42/27 34/130/27 33/43/28
f 33/43/28 32/54/34 36/41/26
f 32/54/34 17/56/36 36/41/26
f 1/34/29 6/33/29 4/44/29
f 23/46/30 24/22/30 25/24/30
f 33/49/31 10/131/31 7/132/31
f 10/131/31 38/133/31 4/134/31
f 38/133/31 41/135/31 5/136/31
f 41/135/31 43/137/31 11/138/31
f 43/137/31 55/139/31 54/140/31
f 54/140/31 49/141/31 43/137/31
f 49/141/31 48/142/31 53/143/31
f 43/137/31 49/141/31 11/138/31
f 48/142/31 47/144/31 53/143/31
f 47/144/31 57/145/31 53/143/31
f 53/143/31 11/138/31 49/141/31
f 11/138/31 5/136/31 41/135/31
f 5/136/31 4/134/31 38/133/31
f 4/134/31 6/146/31 10/131/31
f 6/146/31 7/132/31 10/131/31
f 7/132/31 9/147/31 33/49/31
f 9/147/31 16/50/31 33/49/31
f 22/148/31 27/149/31 28/150/31
f 27/149/31 26/151/31 28/150/31
f 16/50/31 22/148/31 19/152/31
f 26/151/31 25/153/31 28/150/31
f 28/150/31 21/154/31 22/148/31
f 21/154/31 19/152/31 22/148/31
f 19/152/31 32/48/31 16/50/31
f 39/51/32 52/36/22 55/52/22
f 16/6/33 9/155/33 15/53/33
f 32/54/34 19/156/35 18/55/35
f 40/57/37 38/157/37 10/58/37
f 41/18/38 38/157/38 40/57/38
f 21/60/39 28/23/40 29/25/40
f 5/62/41 11/69/108 58/63/42
f 20/61/43 18/158/43 19/65/43
f 31/66/44 30/30/45 27/32/45
f 44/21/46 57/20/46 47/67/46
f 56/68/47 58/63/48 11/69/48
f 2/64/49 3/45/49 4/44/49
f 74/92/50 62/73/50 68/72/50
f 62/73/50 61/81/50 69/113/50
f 61/81/50 72/80/50 71/120/50
f 72/80/50 73/94/50 71/120/50
f 73/94/50 79/106/50 83/27/50
f 79/106/50 60/87/50 83/27/50
f 60/87/50 59/86/50 84/77/50
f 84/77/50 82/90/50 60/87/50
f 82/90/50 83/27/50 60/87/50
f 71/120/50 70/108/50 61/81/50
f 70/108/50 69/113/50 61/81/50
f 83/27/50 71/120/50 73/94/50
f 62/73/50 69/113/50 67/71/50
f 63/111/50 64/95/50 85/84/50
f 64/95/50 74/92/50 81/75/50
f 85/84/50 64/95/50 81/75/50
f 66/115/50 77/103/50 63/111/50
f 80/100/50 65/121/50 78/83/50
f 65/121/50 66/115/50 63/111/50
f 78/83/50 65/121/50 85/84/50
f 75/89/50 76/101/50 78/83/50
f 76/101/50 80/100/50 78/83/50
f 85/84/50 65/121/50 63/111/50
f 68/72/50 81/75/50 74/92/50
f 3/74/51 2/97/76 81/75/52
f 30/76/54 82/90/68 84/77/55
f 36/79/57 17/93/72 72/80/58
f 58/82/60 56/88/66 78/83/61
f 29/85/63 24/114/94 59/86/64
f 56/88/66 44/110/89 75/89/67
f 31/28/17 83/27/16 82/90/68
f 40/91/69 37/98/77 62/73/70
f 17/93/72 18/117/97 73/94/73
f 40/91/69 74/92/71 64/95/74
f 2/97/76 58/82/60 85/84/62
f 37/98/77 36/79/57 61/81/59
f 45/99/78 46/119/99 80/100/79
f 39/102/81 63/111/90 77/103/82
f 20/105/84 29/85/63 60/87/65
f 8/107/86 69/113/93 70/108/87
f 44/110/89 45/99/78 76/101/80
f 42/96/75 64/95/74 63/111/90
f 3/74/51 68/72/53 67/71/91
f 1/112/92 67/71/91 69/113/93
f 23/78/56 84/77/55 59/86/64
f 52/104/83 77/103/82 66/115/95
f 18/117/97 20/105/84 79/106/85
f 50/118/98 65/121/101 80/100/79
f 13/109/88 70/108/87 71/120/100
f 51/116/96 66/115/95 65/121/101
