# Blender v3.0.0 OBJ File: 'terrain_wooded_hill_118.blend'
# www.blender.org
mtllib terrain_wooded_hill_118.mtl
o terrain_Wooded_Hill_#118.001
v 1.235001 -0.153304 -2.442667
v 0.094479 -0.153304 -2.586352
v 0.537362 -0.153304 -2.582312
v 0.537362 -0.166150 -2.582312
v 0.094479 -0.166150 -2.586352
v 1.235001 -0.166150 -2.442667
v 1.721815 -0.166150 -2.226670
v 1.721815 -0.153304 -2.226671
v 2.232709 -0.166150 -2.009600
v 1.073103 -0.166150 2.310123
v -1.571375 -0.166150 -2.296080
v 2.232709 -0.166150 -2.009600
v 2.232709 -0.153304 -2.009600
v 2.729465 -0.153303 -1.710670
v 2.232709 -0.153304 -2.009600
v 2.729465 -0.166150 -1.710670
v 2.406173 -0.153303 1.951239
v 3.066089 -0.153303 1.674183
v 3.066089 -0.166150 1.674183
v 3.778919 -0.153303 1.292254
v 3.778919 -0.166150 1.292254
v 3.359187 -0.166150 -1.419476
v 4.479024 -0.153303 -0.627895
v 4.631922 -0.153303 -0.181277
v 4.631922 -0.166150 -0.181277
v 4.479024 -0.166150 -0.627895
v 4.046933 -0.166150 -1.131357
v 4.277791 -0.166150 0.651928
v 4.277791 -0.153303 0.651928
v 4.046933 -0.153303 -1.131356
v 3.359189 -0.153303 -1.419476
v 2.406173 -0.166150 1.951239
v 1.739877 -0.166150 2.116492
v 1.073103 -0.166150 2.310123
v 1.073103 -0.153303 2.310123
v 1.739877 -0.153303 2.116492
v 1.073105 -0.153303 2.310123
v 0.409331 -0.166150 2.413647
v -1.820160 -0.153303 2.272454
v 0.409331 -0.153303 2.413647
v -0.825831 -0.166150 2.401026
v -0.825831 -0.153303 2.401026
v -1.820160 -0.166150 2.272454
v -4.211819 -0.153303 -0.952017
v -4.327303 -0.153303 -0.603368
v -4.361001 -0.153303 -0.245525
v -4.327303 -0.166150 -0.603368
v -4.361001 -0.166150 -0.245525
v -4.191829 -0.166150 0.446100
v -4.191829 -0.153303 0.446100
v -3.808383 -0.153303 1.415809
v -3.280498 -0.153303 1.931484
v -3.938683 -0.166150 -1.203919
v -3.808383 -0.166150 1.415809
v -3.280498 -0.166150 1.931484
v -3.938683 -0.153303 -1.203919
v -4.211819 -0.166150 -0.952017
v -1.571375 -0.153304 -2.296080
v 1.133061 0.621251 -0.073750
v 1.068380 0.621251 0.078433
v 0.604836 0.621251 0.345932
v 0.483051 0.621251 0.381299
v -0.045396 0.621251 0.374418
v 0.136216 0.621251 0.397902
v -0.478576 0.621251 0.040839
v -0.408541 0.621251 0.217954
v 0.512622 0.621251 -0.486787
v 0.385199 0.621251 -0.512293
v 0.601537 0.621251 -0.447336
v 0.694850 0.621251 -0.407688
v 0.785582 0.621251 -0.353090
v 0.726533 0.621251 0.315749
v 0.847065 0.621251 0.265146
v 0.361815 0.621251 0.400207
v -0.482227 0.621251 -0.214523
v -0.503320 0.621251 -0.150843
v -0.312124 0.621251 0.312141
v -0.432339 0.621251 -0.260533
v 0.977262 0.621251 0.195387
v -0.509475 0.621251 -0.085484
v 0.304308 0.621251 -0.513031
v 1.026214 0.621251 -0.247279
v 0.900599 0.621251 -0.299904
v 1.105135 0.621251 -0.155323
v 0.000044 0.621251 -0.460013
vt 0.241641 0.533649
vt 0.298451 0.528852
vt 0.298451 0.533649
vt 0.186402 0.533649
vt 0.116378 0.528852
vt 0.186402 0.528852
vt 0.983929 0.620135
vt 0.988727 0.520245
vt 0.988727 0.620135
vt 0.983929 0.691379
vt 0.988727 0.728240
vt 0.988727 0.691379
vt 0.241641 0.528852
vt 0.241641 0.533649
vt 0.581746 0.533649
vt 0.692314 0.528852
vt 0.581746 0.528852
vt 0.927891 0.533649
vt 0.958263 0.528852
vt 0.958263 0.533649
vt 0.988727 0.684761
vt 0.983929 0.598932
vt 0.983929 0.684761
vt 0.988727 0.598932
vt 0.489354 0.939034
vt 0.547740 0.572836
vt 0.553441 0.966868
vt 0.983929 0.730767
vt 0.988727 0.782628
vt 0.988727 0.730767
vt 0.983929 0.782628
vt 0.352585 0.528852
vt 0.352585 0.533649
vt 0.913401 0.528852
vt 0.854701 0.533649
vt 0.913401 0.533649
vt 0.515197 0.959135
vt 0.515197 0.959135
vt 0.515197 0.959135
vt 0.024959 0.547321
vt 0.099103 0.547321
vt 0.296443 0.528852
vt 0.430161 0.528852
vt 0.430161 0.533649
vt 0.026438 0.985917
vt 0.025875 0.986008
vt 0.026890 0.983114
vt 0.692314 0.533649
vt 0.854701 0.528852
vt 0.222352 0.528852
vt 0.148970 0.533649
vt 0.222352 0.533649
vt 0.444398 0.533649
vt 0.370587 0.528852
vt 0.370587 0.533649
vt 0.983929 0.532972
vt 0.988727 0.532972
vt 0.479409 0.528852
vt 0.664649 0.533649
vt 0.479409 0.533649
vt 0.069705 0.533649
vt 0.148970 0.528852
vt 0.069705 0.528852
vt 0.116378 0.533649
vt 0.039902 0.528852
vt 0.988727 0.764154
vt 0.983929 0.728240
vt 0.664649 0.528852
vt 0.927891 0.528852
vt 0.200032 0.389353
vt 0.214000 0.388026
vt 0.211348 0.449701
vt 0.271361 0.833603
vt 0.489302 0.542716
vt 0.496219 0.548496
vt 0.622360 0.999065
vt 0.570350 0.578871
vt 0.677232 0.999911
vt 0.943829 0.662560
vt 0.605144 0.524573
vt 0.607905 0.510772
vt 0.102027 0.664571
vt 0.435622 0.474500
vt 0.465290 0.517622
vt 0.829766 0.958028
vt 0.576396 0.573321
vt 0.587071 0.564738
vt -0.060405 0.428476
vt 0.433025 0.468143
vt 0.560328 0.578717
vt 0.971793 0.511970
vt 0.611017 0.496913
vt 0.613012 0.483267
vt 0.928713 0.738121
vt 0.601008 0.538432
vt 0.614190 0.458217
vt 0.978241 0.374820
vt 0.233495 0.801959
vt 0.960867 0.586685
vt -0.071950 0.364395
vt 0.435335 0.458424
vt 0.433513 0.462796
vt 0.975422 0.265498
vt 0.611039 0.409178
vt 0.960992 0.106334
vt 0.876026 0.896717
vt 0.595520 0.553540
vt 0.385009 0.897503
vt 0.526347 0.564502
vt 0.436315 0.921237
vt -0.074628 0.393668
vt 0.613675 0.438249
vt 0.507987 0.556136
vt 0.335793 0.875437
vt 0.516976 0.560167
vt 0.575656 0.575978
vt 0.706285 0.984072
vt 0.605239 0.399327
vt 0.929233 0.052396
vt 0.906072 0.813998
vt 0.865910 0.018673
vt 0.585311 0.390891
vt 0.820129 0.006213
vt 0.536035 0.567752
vt 0.593673 0.393167
vt 0.983929 0.520245
vt 0.241641 0.528852
vt 0.568418 0.948462
vt 0.515197 0.959135
vt 0.568418 0.948462
vt 0.370587 0.528852
vt 0.025311 0.986121
vt 0.026078 0.982662
vt 0.024754 0.986165
vt 0.025111 0.982324
vt 0.023728 0.986089
vt 0.024743 0.982297
vt 0.022908 0.985936
vt 0.023343 0.982431
vt 0.021710 0.985595
vt 0.021297 0.985169
vt 0.021027 0.984401
vt 0.020921 0.983859
vt 0.021320 0.983144
vt 0.020967 0.983586
vt 0.021080 0.983323
vt 0.025684 0.982469
vt 0.026492 0.982857
vt 0.027399 0.983372
vt 0.027956 0.983631
vt 0.028059 0.985017
vt 0.028290 0.984042
vt 0.027000 0.985739
vt 0.028395 0.984395
vt 0.027612 0.985484
vt 0.444398 0.528852
vt 0.039902 0.533649
vt 0.983929 0.764154
vt 0.225037 0.451434
vt 0.197445 0.446824
vt 0.190484 0.391782
vt 0.183601 0.444306
vt 0.170839 0.397684
vt 0.169697 0.440376
vt 0.154539 0.435082
vt 0.158509 0.400975
vt 0.143302 0.426649
vt 0.134685 0.415862
vt 0.137045 0.410298
vt 0.144993 0.404191
vt 0.180448 0.394209
vt 0.270192 0.451060
vt 0.250164 0.452058
vt 0.257417 0.392992
vt 0.223010 0.388256
vt 0.309227 0.441463
vt 0.299350 0.447664
vt 0.317675 0.420755
vt 0.315397 0.429414
vt 0.307459 0.408338
vt 0.313445 0.411705
vt 0.316385 0.416197
vt 0.771316 1.005021
vt -0.061977 0.340458
vn 0.3910 -0.0000 -0.9204
vn 0.3938 -0.0001 -0.9192
vn 0.4028 -0.0001 -0.9153
vn 0.4197 -0.0000 -0.9077
vn 0.4197 -0.0001 -0.9077
vn -0.9299 0.0000 0.3677
vn -0.9714 0.0000 0.2376
vn -0.9956 0.0000 -0.0938
vn 0.0000 0.9950 -0.1003
vn 0.9837 0.0000 0.1796
vn 0.0000 0.9908 0.1350
vn -0.1282 0.0000 0.9917
vn -0.6780 0.0000 -0.7351
vn 0.9203 0.0000 0.3912
vn -0.5521 0.8319 -0.0561
vn 0.1463 0.9343 -0.3251
vn 0.1428 0.9326 -0.3315
vn 0.7588 0.0000 -0.6513
vn 0.7588 0.0001 -0.6513
vn 0.4056 -0.0000 -0.9141
vn -0.6988 0.0000 0.7153
vn -0.4956 -0.0000 0.8686
vn 0.1403 0.0733 0.9874
vn 0.0726 -0.4829 -0.8727
vn 0.1382 0.0722 0.9878
vn 0.2776 0.0000 0.9607
vn 0.2964 -0.0000 0.9551
vn 0.2418 -0.0000 0.9703
vn 0.1963 0.0000 -0.9805
vn 0.9461 0.0000 -0.3239
vn -0.0000 -1.0000 0.0000
vn -0.1991 -0.0000 0.9800
vn 0.5156 0.0000 -0.8568
vn 0.3086 0.0000 0.9512
vn 0.3871 0.0000 0.9220
vn 0.3036 0.0000 0.9528
vn 0.1541 -0.0000 0.9881
vn -0.0102 0.0000 0.9999
vn 0.7889 0.0000 0.6146
vn 0.7888 0.0000 0.6146
vn -0.1423 0.0000 -0.9898
vn -0.1868 0.0000 -0.9824
vn 0.4723 0.0000 0.8815
vn 0.3864 -0.0000 -0.9223
vn 0.3864 0.0001 -0.9223
vn -0.9493 0.0000 -0.3144
vn -0.4104 -0.0000 -0.9119
vn -0.3699 0.0000 -0.9291
vn 0.0091 0.0000 -1.0000
vn 0.0000 1.0000 -0.0000
vn 0.0355 0.9368 -0.3479
vn -0.0149 0.9401 -0.3406
vn 0.0367 0.9368 -0.3478
vn 0.1832 0.9594 -0.2145
vn 0.2042 0.9700 -0.1318
vn 0.2079 0.9721 -0.1086
vn -0.0197 0.9424 0.3339
vn 0.0918 0.9359 0.3401
vn 0.2052 0.9099 0.3605
vn -0.1157 0.9335 -0.3395
vn -0.1382 0.9563 -0.2575
vn -0.0781 0.9536 -0.2906
vn 0.2130 0.9699 0.1181
vn 0.2165 0.9762 0.0126
vn 0.2100 0.9686 0.1329
vn -0.1610 0.9656 -0.2041
vn -0.1761 0.9753 -0.1336
vn 0.1597 0.9457 -0.2830
vn 0.0251 0.9332 0.3584
vn -0.1095 0.9344 0.3390
vn 0.0269 0.9332 0.3584
vn 0.1263 0.9385 0.3212
vn 0.1377 0.9434 0.3018
vn -0.0195 0.9356 0.3524
vn -0.0287 0.9369 0.3485
vn -0.0426 0.9349 -0.3524
vn 0.2627 0.9058 0.3325
vn -0.1939 0.9802 -0.0395
vn -0.1978 0.9801 0.0173
vn -0.1936 0.9802 -0.0420
vn -0.0592 0.9394 0.3377
vn -0.1166 0.9599 0.2548
vn -0.1228 0.9690 0.2145
vn 0.1876 0.9617 0.1998
vn 0.1711 0.9561 0.2381
vn 0.1344 0.9370 -0.3224
vn 0.7200 0.6787 0.1445
vn -0.5404 0.6792 -0.4967
vn -0.1822 0.9776 -0.1054
vn -0.0589 0.9454 0.3205
vn 0.1044 0.9373 -0.3326
vn 0.1064 0.9373 -0.3319
vn 0.1439 0.9370 -0.3183
vn 0.2163 0.9763 0.0054
vn -0.1771 0.9758 0.1282
vn -0.1823 0.9766 0.1142
vn 0.1447 0.9454 0.2919
vn -0.1974 0.9784 0.0611
vn -0.1976 0.9802 0.0124
vn 0.7693 0.4909 -0.4089
vn -0.1970 0.9783 0.0647
vn -0.4955 0.8583 -0.1335
vn 0.9204 0.0000 0.3910
vn 0.8568 0.0001 -0.5156
vn 0.0728 -0.9648 0.2528
vn 0.0673 -0.9800 -0.1872
vn 0.0137 0.1702 0.9853
vn -0.1869 0.0000 -0.9824
usemtl Default_OBJ.013
s 1
f 13/1/1 7/2/2 8/3/3
f 14/4/4 22/5/5 16/6/4
f 49/7/6 51/8/6 50/9/6
f 50/9/7 48/10/7 49/7/7
f 45/11/8 48/10/8 46/12/8
f 12/13/9 13/1/10 15/14/11
f 42/15/12 43/16/12 41/17/12
f 56/18/13 57/19/13 44/20/13
f 24/21/14 28/22/14 25/23/14
f 24/21/14 29/24/14 28/22/14
f 14/25/15 83/26/16 31/27/17
f 26/28/18 30/29/19 23/30/18
f 27/31/19 30/29/19 26/28/18
f 8/3/3 6/32/20 1/33/20
f 54/34/21 52/35/22 51/36/21
f 34/37/23 35/38/24 10/39/25
f 36/40/26 35/41/27 33/42/28
f 1/33/29 4/43/29 3/44/29
f 23/30/30 25/23/30 26/28/30
f 32/45/31 33/46/31 16/47/31
f 39/48/32 55/49/22 43/16/32
f 16/6/33 15/14/33 14/4/33
f 32/50/34 18/51/35 17/52/36
f 40/53/37 10/54/37 37/55/37
f 41/17/38 40/53/38 42/15/38
f 21/56/39 29/24/40 20/57/39
f 5/58/41 58/59/42 2/60/41
f 20/61/43 19/62/43 21/63/43
f 31/64/44 27/65/45 22/5/44
f 44/66/46 47/67/46 45/11/46
f 56/18/47 11/68/48 53/69/47
f 2/60/49 4/43/49 5/58/49
f 67/70/50 68/71/50 62/72/50
f 3/73/51 81/74/52 68/75/53
f 30/76/54 84/77/55 23/78/56
f 36/79/57 72/80/58 61/81/59
f 58/82/60 78/83/61 85/84/62
f 29/85/63 59/86/64 60/87/65
f 56/88/66 75/89/67 78/83/61
f 31/27/17 82/90/68 30/76/54
f 40/91/69 62/92/70 74/93/71
f 17/94/72 73/95/73 72/80/58
f 40/91/69 64/96/74 42/97/75
f 2/98/76 85/84/62 81/74/52
f 37/99/77 61/81/59 62/92/70
f 45/100/78 80/101/79 76/102/80
f 39/103/81 77/104/82 52/105/83
f 20/106/84 60/87/65 79/107/85
f 8/108/86 70/109/87 13/110/88
f 44/111/89 76/102/80 75/89/67
f 42/97/75 63/112/90 39/103/81
f 3/73/51 67/113/91 1/114/92
f 1/114/92 69/115/93 8/108/86
f 23/78/56 59/116/64 24/117/94
f 52/105/83 66/118/95 51/119/96
f 18/120/97 79/107/85 73/95/73
f 50/121/98 80/122/79 46/123/99
f 13/110/88 71/124/100 14/25/15
f 51/119/96 65/125/101 50/121/98
f 13/1/1 12/13/1 7/2/2
f 14/4/4 31/64/5 22/5/5
f 49/7/6 54/126/6 51/8/6
f 50/9/7 46/12/7 48/10/7
f 45/11/8 47/67/8 48/10/8
f 9/127/102 7/2/103 12/13/9
f 13/1/10 14/4/104 15/14/11
f 15/14/11 9/127/102 12/13/9
f 42/15/12 39/48/12 43/16/12
f 56/18/13 53/69/13 57/19/13
f 14/25/15 71/124/100 83/26/16
f 8/3/3 7/2/2 6/32/20
f 54/34/21 55/49/22 52/35/22
f 35/38/24 36/128/105 37/129/106
f 10/39/25 33/130/107 34/37/23
f 35/38/24 37/129/106 10/39/25
f 35/41/27 34/131/27 33/42/28
f 33/42/28 32/50/34 36/40/26
f 32/50/34 17/52/36 36/40/26
f 1/33/29 6/32/29 4/43/29
f 23/30/30 24/21/30 25/23/30
f 33/46/31 10/132/31 7/133/31
f 10/132/31 38/134/31 4/135/31
f 38/134/31 41/136/31 5/137/31
f 41/136/31 43/138/31 11/139/31
f 43/138/31 55/140/31 54/141/31
f 54/141/31 49/142/31 43/138/31
f 49/142/31 48/143/31 53/144/31
f 43/138/31 49/142/31 11/139/31
f 48/143/31 47/145/31 53/144/31
f 47/145/31 57/146/31 53/144/31
f 53/144/31 11/139/31 49/142/31
f 11/139/31 5/137/31 41/136/31
f 5/137/31 4/135/31 38/134/31
f 4/135/31 6/147/31 10/132/31
f 6/147/31 7/133/31 10/132/31
f 7/133/31 9/148/31 33/46/31
f 9/148/31 16/47/31 33/46/31
f 22/149/31 27/150/31 28/151/31
f 27/150/31 26/152/31 28/151/31
f 16/47/31 22/149/31 19/153/31
f 26/152/31 25/154/31 28/151/31
f 28/151/31 21/155/31 22/149/31
f 21/155/31 19/153/31 22/149/31
f 19/153/31 32/45/31 16/47/31
f 39/48/32 52/35/22 55/49/22
f 16/6/33 9/127/33 15/14/33
f 32/50/34 19/62/35 18/51/35
f 40/53/37 38/156/37 10/54/37
f 41/17/38 38/156/38 40/53/38
f 21/56/39 28/22/40 29/24/40
f 5/58/41 11/68/108 58/59/42
f 20/61/43 18/51/43 19/62/43
f 31/64/44 30/157/45 27/65/45
f 44/66/46 57/158/46 47/67/46
f 56/18/47 58/59/48 11/68/48
f 2/60/49 3/44/49 4/43/49
f 74/159/50 62/72/50 68/71/50
f 62/72/50 61/160/50 69/161/50
f 61/160/50 72/162/50 71/163/50
f 72/162/50 73/164/50 71/163/50
f 73/164/50 79/165/50 83/166/50
f 79/165/50 60/167/50 83/166/50
f 60/167/50 59/168/50 84/169/50
f 84/169/50 82/170/50 60/167/50
f 82/170/50 83/166/50 60/167/50
f 71/163/50 70/171/50 61/160/50
f 70/171/50 69/161/50 61/160/50
f 83/166/50 71/163/50 73/164/50
f 62/72/50 69/161/50 67/70/50
f 63/172/50 64/173/50 85/174/50
f 64/173/50 74/159/50 81/175/50
f 85/174/50 64/173/50 81/175/50
f 66/176/50 77/177/50 63/172/50
f 80/178/50 65/179/50 78/180/50
f 65/179/50 66/176/50 63/172/50
f 78/180/50 65/179/50 85/174/50
f 75/181/50 76/182/50 78/180/50
f 76/182/50 80/178/50 78/180/50
f 85/174/50 65/179/50 63/172/50
f 68/71/50 81/175/50 74/159/50
f 3/73/51 2/98/76 81/74/52
f 30/76/54 82/90/68 84/77/55
f 36/79/57 17/94/72 72/80/58
f 58/82/60 56/88/66 78/83/61
f 29/85/63 24/183/94 59/86/64
f 56/88/66 44/111/89 75/89/67
f 31/27/17 83/26/16 82/90/68
f 40/91/69 37/99/77 62/92/70
f 17/94/72 18/120/97 73/95/73
f 40/91/69 74/93/71 64/96/74
f 2/98/76 58/82/60 85/84/62
f 37/99/77 36/79/57 61/81/59
f 45/100/78 46/184/99 80/101/79
f 39/103/81 63/112/90 77/104/82
f 20/106/84 29/85/63 60/87/65
f 8/108/86 69/115/93 70/109/87
f 44/111/89 45/100/78 76/102/80
f 42/97/75 64/96/74 63/112/90
f 3/73/51 68/75/53 67/113/91
f 1/114/92 67/113/91 69/115/93
f 23/78/56 84/77/55 59/116/64
f 52/105/83 77/104/82 66/118/95
f 18/120/97 20/106/84 79/107/85
f 50/121/98 65/125/101 80/122/79
f 13/110/88 70/109/87 71/124/100
f 51/119/96 66/118/95 65/125/101
