# Blender v3.0.0 OBJ File: 'terrain_wooded_hill_126.blend'
# www.blender.org
mtllib terrain_wooded_hill_126.mtl
o terrain_Wooded_Hill_#126.001_Cylinder.001
v -5.667262 -0.219578 1.496867
v -5.780735 -0.219578 0.826259
v -5.667262 -0.219578 0.155650
v -5.331204 -0.219578 -0.489187
v -4.785477 -0.219578 -1.083473
v -4.051050 -0.219578 -1.604368
v -3.156149 -0.219578 -2.031857
v -2.135164 -0.219578 -2.349509
v -1.027331 -0.219578 -2.545119
v 0.124778 -0.219578 -2.611168
v 1.276886 -0.219578 -2.545119
v 2.384719 -0.219578 -2.349509
v 3.405705 -0.219578 -2.031856
v 4.300605 -0.219578 -1.604369
v 5.035031 -0.219578 -1.083474
v 5.580760 -0.219578 -0.489188
v 5.916817 -0.219578 0.155650
v 6.030290 -0.219578 0.826259
v 5.916817 -0.219578 1.496868
v -2.328940 0.567824 1.719541
v -3.313630 0.338828 1.657644
v -5.551215 -0.219578 1.719541
v -3.561837 0.567824 1.568648
v -3.559035 0.567824 1.505002
v 1.308262 0.567824 -0.051740
v -3.059929 0.567824 1.379099
v 1.635863 0.567824 -0.039769
v -2.620374 0.567824 1.122357
v 1.802991 0.567824 0.245154
v -2.021266 0.567824 0.960549
v 1.765807 0.567824 0.464962
v -1.646823 0.567824 0.912669
v 1.581407 0.567824 0.755841
v -1.047408 0.567824 0.723263
v 1.679266 0.567824 0.964764
v -0.506873 0.567824 0.517393
v 1.909295 0.567824 1.276285
v -0.067791 0.567824 0.359008
v 1.942003 0.567824 1.719541
v 0.319244 0.567824 0.065968
v 5.800770 -0.219578 1.719541
v 0.896211 0.567824 0.035865
vt 0.360058 0.187298
vt 0.342897 0.009703
vt 0.364118 0.208728
vt 0.354746 0.187526
vt 0.286922 0.000000
vt 0.177122 0.037869
vt 0.344237 0.229764
vt 0.127517 0.083986
vt 0.322806 0.266940
vt 0.084038 0.146090
vt 0.309300 0.317639
vt 0.048355 0.221793
vt 0.305304 0.349333
vt 0.021841 0.308186
vt 0.289494 0.400054
vt 0.005513 0.401950
vt 0.272310 0.445787
vt 0.259090 0.482938
vt 0.234630 0.515663
vt 0.000000 0.499480
vt 0.232117 0.564507
vt 0.005513 0.597030
vt 0.224805 0.599379
vt 0.021841 0.690850
vt 0.225804 0.627116
vt 0.048355 0.777335
vt 0.084037 0.853160
vt 0.249586 0.641306
vt 0.127517 0.915413
vt 0.267934 0.638190
vt 0.177121 0.961701
vt 0.230946 0.990245
vt 0.292213 0.622620
vt 0.309652 0.630935
vt 0.286922 0.999949
vt 0.335655 0.650455
vt 0.342897 0.990438
vt 0.361484 0.980645
vt 0.017892 0.975734
vt 0.018616 0.975857
vt 0.018856 0.975982
vt 0.788702 0.770091
vt 0.739320 0.959249
vt 0.807813 0.325782
vt 0.230946 0.009511
vt 0.372653 0.653287
vt 0.018856 0.988240
vt 0.014180 0.982111
vt 0.018616 0.988365
vt 0.017892 0.988488
vt 0.014252 0.983355
vt 0.014463 0.984551
vt 0.017168 0.988365
vt 0.016471 0.988002
vt 0.015830 0.987413
vt 0.015267 0.986620
vt 0.014806 0.985654
vt 0.014252 0.980867
vt 0.014463 0.979671
vt 0.014806 0.978568
vt 0.015267 0.977602
vt 0.015830 0.976809
vt 0.016471 0.976220
vt 0.017168 0.975857
vt 0.372653 0.291699
vt 0.806460 0.686680
vt 0.741694 0.970233
vt 0.742916 0.000000
vn -0.1229 0.2409 0.9627
vn -0.3301 0.9438 -0.0145
vn -0.0772 0.9489 -0.3061
vn -0.1282 0.9672 -0.2194
vn -0.0661 0.9674 -0.2447
vn -0.0311 0.9695 -0.2433
vn -0.0708 0.9720 -0.2240
vn -0.0890 0.9682 -0.2338
vn -0.0846 0.9684 -0.2346
vn -0.1993 0.9440 -0.2632
vn -0.0153 0.9557 -0.2938
vn -0.0754 0.9319 -0.3547
vn 0.0131 0.9338 -0.3575
vn 0.1490 0.9663 -0.2101
vn 0.1637 0.9750 -0.1503
vn 0.1938 0.9733 0.1228
vn 0.1771 0.9837 -0.0300
vn 0.1910 0.9811 0.0323
vn 0.1867 0.9776 0.0973
vn 0.0000 -1.0000 0.0000
vn 0.0000 1.0000 -0.0000
vn -0.0198 0.1880 0.9820
vn -0.3514 0.9343 0.0595
vn -0.3189 0.9463 -0.0540
vn -0.2671 0.9536 -0.1392
vn -0.1908 0.9659 -0.1752
vn -0.1445 0.9683 -0.2038
vn -0.1033 0.9708 -0.2163
vn -0.0697 0.9720 -0.2242
vn -0.0414 0.9713 -0.2343
vn -0.0147 0.9663 -0.2571
vn 0.0162 0.9589 -0.2832
vn 0.0503 0.9573 -0.2846
vn 0.0888 0.9543 -0.2854
vn 0.1267 0.9558 -0.2652
vn 0.2130 0.9690 -0.1249
vn 0.2531 0.9665 0.0428
vn 0.1788 0.9795 -0.0932
vn 0.1676 0.9827 -0.0785
vn 0.1727 0.9767 -0.1275
vn 0.1999 0.9797 -0.0148
vn 0.6720 0.7399 0.0296
vn -0.2268 0.8435 0.4869
vn 0.1810 0.6724 0.7177
vn 0.0000 -0.2609 0.9654
vn -0.2371 0.9636 0.1235
vn 0.0000 0.0000 1.0000
usemtl Material
s off
f 23/1/1 1/2/1 21/3/1
f 24/4/2 2/5/2 23/1/2
f 4/6/3 24/4/3 26/7/3
f 5/8/4 26/7/4 28/9/4
f 6/10/5 28/9/5 30/11/5
f 7/12/6 30/11/6 32/13/6
f 8/14/7 32/13/7 34/15/7
f 9/16/8 34/15/8 36/17/8
f 38/18/9 9/16/9 36/17/9
f 40/19/10 10/20/10 38/18/10
f 42/21/11 11/22/11 40/19/11
f 25/23/12 12/24/12 42/21/12
f 27/25/13 13/26/13 25/23/13
f 14/27/14 29/28/14 15/29/14
f 15/29/15 31/30/15 16/31/15
f 17/32/16 31/30/16 33/33/16
f 17/32/17 35/34/17 18/35/17
f 18/35/18 37/36/18 19/37/18
f 37/36/19 41/38/19 19/37/19
f 18/39/20 19/40/20 41/41/20
f 33/33/21 42/21/21 38/18/21
f 21/42/22 22/43/22 39/44/22
f 23/1/23 2/5/23 1/2/23
f 24/4/24 3/45/24 2/5/24
f 4/6/25 3/45/25 24/4/25
f 5/8/26 4/6/26 26/7/26
f 6/10/27 5/8/27 28/9/27
f 7/12/28 6/10/28 30/11/28
f 8/14/29 7/12/29 32/13/29
f 9/16/30 8/14/30 34/15/30
f 38/18/31 10/20/31 9/16/31
f 40/19/32 11/22/32 10/20/32
f 42/21/33 12/24/33 11/22/33
f 25/23/34 13/26/34 12/24/34
f 27/25/35 14/27/35 13/26/35
f 14/27/36 27/25/36 29/28/36
f 15/29/37 29/28/37 31/30/37
f 17/32/38 16/31/38 31/30/38
f 17/32/39 33/33/39 35/34/39
f 18/35/40 35/34/40 37/36/40
f 37/36/41 39/46/41 41/38/41
f 41/41/20 22/47/20 10/48/20
f 22/47/20 1/49/20 2/50/20
f 9/51/20 22/47/20 8/52/20
f 2/50/20 3/53/20 22/47/20
f 3/53/20 4/54/20 22/47/20
f 4/54/20 5/55/20 22/47/20
f 5/55/20 6/56/20 22/47/20
f 6/56/20 7/57/20 22/47/20
f 7/57/20 8/52/20 22/47/20
f 9/51/20 10/48/20 22/47/20
f 10/48/20 11/58/20 41/41/20
f 11/58/20 12/59/20 41/41/20
f 12/59/20 13/60/20 41/41/20
f 41/41/20 13/60/20 14/61/20
f 14/61/20 15/62/20 41/41/20
f 41/41/20 15/62/20 16/63/20
f 16/63/20 17/64/20 41/41/20
f 41/41/20 17/64/20 18/39/20
f 20/65/21 39/46/21 34/15/21
f 39/46/21 37/36/21 35/34/21
f 39/46/21 35/34/21 38/18/21
f 34/15/21 39/46/21 36/17/21
f 23/1/42 21/3/42 24/4/42
f 21/3/43 20/65/43 26/7/43
f 26/7/44 24/4/44 21/3/44
f 30/11/21 28/9/21 20/65/21
f 28/9/21 26/7/21 20/65/21
f 32/13/21 30/11/21 20/65/21
f 35/34/21 33/33/21 38/18/21
f 33/33/21 31/30/21 25/23/21
f 31/30/21 29/28/21 25/23/21
f 29/28/21 27/25/21 25/23/21
f 42/21/21 40/19/21 38/18/21
f 25/23/21 42/21/21 33/33/21
f 36/17/21 39/46/21 38/18/21
f 34/15/21 32/13/21 20/65/21
f 39/44/45 20/66/45 21/42/45
f 21/42/46 1/67/46 22/43/46
f 22/43/47 41/68/47 39/44/47
