# Blender v3.0.0 OBJ File: 'terrain_rough_85.blend'
# www.blender.org
mtllib terrain_rough_85.mtl
o terrainRough_#85.001_terrain_Woods_#186_terrain_Woods_#186_terrain_Woods_#186_te
v -3.969142 -0.019995 0.377257
v -4.031311 0.019996 1.000000
v -3.969142 0.019997 0.377257
v -3.738850 -0.019996 -0.371725
v -3.398462 0.019996 -1.000000
v -3.398462 -0.019996 -1.000000
v 3.738850 0.019996 -0.371726
v 3.398462 -0.019996 -1.000000
v 3.398462 0.019996 -1.000000
v 3.969142 -0.019995 0.377257
v 3.738850 -0.019996 -0.371726
v 3.969142 0.019997 0.377257
v 4.031311 -0.019996 1.000000
v 4.031311 0.019996 1.000000
v -3.969142 0.019996 1.000000
v 3.969142 -0.019996 1.000000
v 3.337927 -0.019996 1.000000
v -0.007510 -0.019996 -1.000000
v 0.462534 -0.019996 1.000000
v -4.031311 -0.019996 1.000000
v -3.738850 0.019996 -0.371725
v -3.547377 0.019996 1.000000
vt 0.718750 0.500000
vt 0.687500 1.000000
vt 0.687500 0.500000
vt 0.659056 0.500000
vt 0.659056 1.000000
vt 0.281250 0.500000
vt 0.312500 1.000000
vt 0.281250 1.000000
vt 0.256266 1.000000
vt 0.256266 0.500000
vt 0.020999 0.994233
vt 0.012125 0.992718
vt 0.011007 0.997540
vt 0.743734 1.000000
vt 0.743734 0.500000
vt 0.340943 1.000000
vt 0.312500 0.500000
vt 0.340943 0.500000
vt 0.601945 0.919203
vt 0.454322 0.930463
vt 0.331581 0.909842
vt 0.375000 0.360713
vt 0.625000 0.484571
vt 0.375000 0.499518
vt 0.562500 0.962476
vt 0.437500 0.874807
vt 0.562500 0.787524
vt 0.718750 1.000000
vt 0.002667 0.996038
vt 0.002519 0.997540
vt 0.002667 0.997540
vt 0.004168 0.997540
vt 0.004024 0.992718
vt 0.021695 0.997540
vt 0.021547 0.996038
vt 0.003214 0.994233
vt 0.020189 0.992718
vt 0.331581 0.933502
vt 0.331581 0.930463
vt 0.725776 0.902561
vt 0.331581 0.539307
vt 0.725776 0.570249
vt 0.454322 0.542347
vt 0.601945 0.553606
vt 0.375000 0.250482
vt 0.625000 0.250482
vt 0.375000 0.252402
vt 0.375000 0.271899
vt 0.625000 0.497598
vt 0.625000 0.499518
vt 0.437500 0.962476
vt 0.437500 0.787524
vn -0.9558 0.0000 -0.2939
vn -0.8792 0.0000 -0.4764
vn 0.9558 0.0000 -0.2939
vn 0.9951 0.0000 -0.0993
vn -0.0000 -1.0000 0.0000
vn -0.9951 0.0000 -0.0993
vn 0.8792 0.0000 -0.4764
vn 0.0000 1.0000 -0.0000
vn 0.0000 0.0000 1.0000
vn 0.0000 0.0000 -1.0000
usemtl None.019
s 1
f 1/1/1 21/2/1 4/3/1
f 6/4/2 21/2/2 5/5/2
f 10/6/3 7/7/3 12/8/3
f 10/6/4 14/9/4 13/10/4
f 4/11/5 18/12/5 19/13/5
f 2/14/6 1/1/6 20/15/6
f 9/16/7 11/17/7 8/18/7
f 21/19/8 3/20/8 22/21/8
f 19/22/9 22/23/9 20/24/9
f 9/25/10 18/26/10 5/27/10
f 1/1/1 3/28/1 21/2/1
f 6/4/2 4/3/2 21/2/2
f 10/6/3 11/17/3 7/7/3
f 10/6/4 12/8/4 14/9/4
f 10/29/5 13/30/5 16/31/5
f 17/32/5 19/13/5 8/33/5
f 19/13/5 20/34/5 1/35/5
f 17/32/5 8/33/5 11/36/5
f 10/29/5 16/31/5 17/32/5
f 11/36/5 10/29/5 17/32/5
f 4/11/5 6/37/5 18/12/5
f 18/12/5 8/33/5 19/13/5
f 4/11/5 19/13/5 1/35/5
f 2/14/6 3/28/6 1/1/6
f 9/16/7 7/7/7 11/17/7
f 2/38/8 15/39/8 3/20/8
f 15/39/8 22/21/8 3/20/8
f 21/19/8 22/21/8 5/40/8
f 22/21/8 14/41/8 9/42/8
f 14/41/8 12/43/8 7/44/8
f 9/42/8 14/41/8 7/44/8
f 9/42/8 5/40/8 22/21/8
f 13/45/9 14/46/9 16/47/9
f 14/46/9 22/23/9 19/22/9
f 16/47/9 14/46/9 17/48/9
f 15/49/9 2/50/9 20/24/9
f 22/23/9 15/49/9 20/24/9
f 19/22/9 17/48/9 14/46/9
f 8/51/10 18/26/10 9/25/10
f 18/26/10 6/52/10 5/27/10
