# Blender v3.0.0 OBJ File: 'terrain_wooded_hill_104.blend'
# www.blender.org
mtllib terrain_wooded_hill_104.mtl
o terrain_Wooded_Hill_#104.001
v -0.191942 -0.067104 -1.778507
v 0.822496 -0.067103 -1.716589
v 0.068503 -0.067104 -1.817743
v 0.361291 -0.067104 -1.814899
v 0.361291 -0.084526 -1.814899
v 0.068503 -0.084526 -1.817743
v 0.822496 -0.084526 -1.716589
v -0.191942 -0.084526 -1.778507
v 1.144326 -0.084526 -1.564527
v -0.398294 -0.084526 -1.741675
v -0.398294 -0.067103 -1.741675
v 1.144326 -0.067103 -1.564528
v -1.717750 -0.084526 1.491425
v 1.482075 -0.084526 -1.411710
v 0.715466 -0.084526 1.629376
v -1.032784 -0.084526 -1.613391
v 1.482075 -0.084526 -1.411710
v 1.482075 -0.067103 -1.411710
v 1.810478 -0.067103 -1.201263
v 1.482075 -0.067103 -1.411710
v 1.810478 -0.084526 -1.201263
v 1.596752 -0.067103 1.376721
v 2.033017 -0.067103 1.181674
v 2.033017 -0.084526 1.181674
v 2.504266 -0.067103 0.912796
v 2.504266 -0.084526 0.912796
v 2.226784 -0.084526 -0.996262
v 2.967100 -0.067103 -0.438990
v 3.068182 -0.067103 -0.124570
v 3.068182 -0.084526 -0.124570
v 2.967100 -0.084526 -0.438990
v 2.681448 -0.084526 -0.793427
v 2.834068 -0.084526 0.462006
v 2.834068 -0.067103 0.462006
v 2.681448 -0.067103 -0.793426
v 2.226784 -0.067103 -0.996262
v 1.596751 -0.084526 1.376721
v 1.156267 -0.084526 1.493058
v 0.715466 -0.084526 1.629376
v 0.715466 -0.067103 1.629376
v 1.156267 -0.067103 1.493058
v 0.715467 -0.067103 1.629376
v 0.276650 -0.084526 1.702257
v -1.717750 -0.067103 1.491425
v -1.197254 -0.067103 1.602857
v 0.276650 -0.067103 1.702257
v -0.539909 -0.084526 1.693372
v -0.539909 -0.067103 1.693372
v -1.197254 -0.084526 1.602857
v -2.778368 -0.067103 -0.667171
v -2.854712 -0.067103 -0.421722
v -2.876991 -0.067103 -0.169801
v -2.854712 -0.084526 -0.421722
v -2.876991 -0.084526 -0.169801
v -2.765152 -0.084526 0.317103
v -2.341836 -0.067103 -0.967019
v -2.765152 -0.067103 0.317103
v -2.511657 -0.067103 0.999779
v -1.616074 -0.067103 -1.345920
v -1.944424 -0.067103 -1.161982
v -2.162676 -0.067103 1.362813
v -1.616074 -0.084526 -1.345920
v -1.944424 -0.084526 -1.161982
v -2.341836 -0.084526 -0.967019
v -2.597799 -0.084526 -0.844510
v -2.511657 -0.084526 0.999779
v -2.162676 -0.084526 1.362813
v -2.597799 -0.067103 -0.844510
v -2.778368 -0.084526 -0.667171
v -1.258803 -0.084526 -1.518389
v -1.258803 -0.067103 -1.518389
v -1.032784 -0.067103 -1.613391
v -0.751288 -0.084526 -1.670773
v -0.751288 -0.067103 -1.670773
v -0.122833 0.309174 -0.535422
v -0.077438 0.309174 -0.542260
v -0.158799 0.309174 -0.529002
v 0.445401 0.309174 -0.247143
v 0.404595 0.309174 -0.144904
v 0.112158 0.309174 0.034807
v 0.035327 0.309174 0.058566
v -0.298057 0.309174 0.053944
v -0.183483 0.309174 0.069721
v -0.571339 0.309174 -0.170161
v -0.527155 0.309174 -0.051171
v 0.053982 0.309174 -0.524629
v -0.026405 0.309174 -0.541765
v 0.110076 0.309174 -0.498125
v 0.168946 0.309174 -0.471489
v 0.226186 0.309174 -0.434809
v 0.188933 0.309174 0.014529
v 0.264974 0.309174 -0.019467
v -0.041158 0.309174 0.071269
v -0.573642 0.309174 -0.341718
v -0.586949 0.309174 -0.298936
v -0.466328 0.309174 0.012105
v -0.542169 0.309174 -0.372628
v 0.347112 0.309174 -0.066332
v -0.388778 0.309174 0.034522
v -0.590832 0.309174 -0.255027
v 0.377994 0.309174 -0.363724
v 0.298747 0.309174 -0.399078
v -0.371056 0.309174 -0.460022
v -0.428287 0.309174 -0.427962
v -0.308785 0.309174 -0.490083
v -0.269390 0.309174 -0.506642
v -0.220326 0.309174 -0.516644
v 0.427783 0.309174 -0.301946
v -0.497555 0.309174 -0.393981
vt 0.523217 0.533649
vt 0.479409 0.528852
vt 0.523217 0.528852
vt 0.479409 0.533649
vt 0.557926 0.533649
vt 0.557926 0.528852
vt 0.617301 0.528852
vt 0.617301 0.533649
vt 0.241641 0.528852
vt 0.241641 0.533649
vt 0.241641 0.533649
vt 0.298451 0.528852
vt 0.298451 0.533649
vt 0.186402 0.528852
vt 0.241641 0.528852
vt 0.186402 0.533649
vt 0.148970 0.528852
vt 0.069705 0.533649
vt 0.148970 0.533649
vt 0.069705 0.528852
vt 0.430161 0.528852
vt 0.988727 0.730767
vt 0.988727 0.684761
vt 0.983929 0.684761
vt 0.983929 0.730767
vt 0.764735 0.724196
vt 0.796255 0.762985
vt 0.806141 0.796220
vt 0.983929 0.598932
vt 0.988727 0.598932
vt 0.988727 0.782628
vt 0.983929 0.782628
vt 0.116378 0.533649
vt 0.039902 0.533649
vt 0.039902 0.528852
vt 0.116378 0.528852
vt 0.983929 0.532972
vt 0.988727 0.532972
vt 0.222352 0.528852
vt 0.222352 0.533649
vt 0.296443 0.528852
vt 0.515197 0.959135
vt 0.515197 0.959135
vt 0.515197 0.959135
vt 0.024959 0.547321
vt 0.099103 0.547321
vt 0.099103 0.542523
vt 0.296443 0.533649
vt 0.370587 0.528852
vt 0.370587 0.533649
vt 0.444398 0.528852
vt 0.370587 0.528852
vt 0.444398 0.533649
vt 0.581746 0.528852
vt 0.581746 0.533649
vt 0.692314 0.528852
vt 0.692314 0.533649
vt 0.018318 0.979703
vt 0.020214 0.979718
vt 0.019246 0.990150
vt 0.779863 0.528852
vt 0.779863 0.533649
vt 0.988727 0.728240
vt 0.988727 0.764154
vt 0.983929 0.728240
vt 0.983929 0.691379
vt 0.988727 0.691379
vt 0.983929 0.620135
vt 0.762761 0.533649
vt 0.762761 0.528852
vt 0.817991 0.528852
vt 0.817991 0.533649
vt 0.352585 0.533649
vt 0.430161 0.533649
vt 0.884837 0.533649
vt 0.884837 0.528852
vt 0.927891 0.528852
vt 0.854701 0.533649
vt 0.913401 0.528852
vt 0.854701 0.528852
vt 0.913401 0.533649
vt 0.988727 0.620135
vt 0.983929 0.520245
vt 0.988727 0.520245
vt 0.927891 0.533649
vt 0.958263 0.528852
vt 0.958263 0.533649
vt 0.983929 0.764154
vt 0.664649 0.528852
vt 0.664649 0.533649
vt 0.352585 0.528852
vt 0.702667 0.528852
vt 0.702667 0.533649
vt 0.613165 0.371500
vt 0.538179 0.534897
vt 0.572319 0.353236
vt 0.456188 0.538037
vt 0.470638 0.536882
vt 0.442491 0.567796
vt 0.827195 0.502311
vt 0.590577 0.568220
vt 0.582604 0.560881
vt 0.524393 0.339369
vt 0.515968 0.530994
vt 0.444888 0.330841
vt 0.632761 0.900397
vt 0.564357 0.631932
vt 0.722507 0.909953
vt 0.319333 0.810929
vt 0.482555 0.607555
vt 0.494084 0.614672
vt 0.529826 0.532480
vt 0.966050 0.621325
vt 0.610623 0.587546
vt 0.606806 0.581625
vt 0.385842 0.336735
vt 0.494926 0.532932
vt 0.324165 0.341960
vt 0.699886 0.414054
vt 0.567997 0.549309
vt 0.560414 0.545498
vt 0.505677 0.532021
vt 0.521566 0.881203
vt 0.548714 0.630266
vt 0.645282 0.386785
vt 0.545299 0.538081
vt 0.484013 0.535348
vt 0.261549 0.355820
vt 0.776235 0.460419
vt 0.573721 0.553579
vt 0.387864 0.842662
vt 0.506029 0.620203
vt 0.743393 0.435919
vt 0.872943 0.544421
vt 0.600434 0.576420
vt 0.873147 0.878874
vt 0.602913 0.611781
vt 0.943718 0.794343
vt 0.040120 0.407627
vt 0.440199 0.551297
vt 0.010175 0.447324
vt 0.550897 0.540745
vt 0.186244 0.732115
vt 0.459925 0.592404
vt 0.470887 0.600935
vt 0.529333 0.626921
vt 0.123351 0.683168
vt 0.448517 0.581749
vt 0.057903 0.622038
vt 0.987951 0.655295
vt 0.610967 0.594266
vt 0.253189 0.770096
vt 0.184815 0.364623
vt 0.577977 0.632531
vt 0.800649 0.913387
vt 0.989924 0.693851
vt 0.609724 0.600687
vt 0.101910 0.371248
vt 0.445418 0.544378
vt 0.929495 0.591462
vt 0.590613 0.626515
vt 0.023325 0.541984
vt 0.982792 0.730691
vt 0.568418 0.948462
vt 0.515197 0.959135
vt 0.568418 0.948462
vt 0.022291 0.989723
vt 0.020759 0.990030
vt 0.022841 0.980636
vt 0.021771 0.980112
vt 0.016459 0.989942
vt 0.017606 0.979767
vt 0.014231 0.989527
vt 0.014623 0.980239
vt 0.012475 0.989081
vt 0.012213 0.981146
vt 0.010980 0.988600
vt 0.009858 0.987444
vt 0.009124 0.985359
vt 0.008836 0.983887
vt 0.010818 0.981637
vt 0.008960 0.983144
vt 0.009269 0.982431
vt 0.009920 0.981945
vt 0.016386 0.979899
vt 0.013370 0.980673
vt 0.023818 0.989475
vt 0.025046 0.981863
vt 0.027007 0.988298
vt 0.025346 0.988993
vt 0.026428 0.982564
vt 0.029134 0.985341
vt 0.028221 0.987032
vt 0.027942 0.983268
vt 0.023965 0.981165
vt 0.019215 0.979644
vt 0.015414 0.980007
vn -0.1490 0.0000 -0.9888
vn -0.1757 0.0000 -0.9844
vn -0.1969 0.0000 -0.9804
vn -0.1999 0.0000 -0.9798
vn -0.1968 -0.0000 -0.9804
vn 0.0000 0.9944 -0.1060
vn 0.9820 0.0000 0.1888
vn 0.0000 0.9899 0.1420
vn 0.4152 -0.0001 -0.9097
vn 0.4241 -0.0001 -0.9056
vn 0.4122 -0.0000 -0.9111
vn 0.5395 0.0000 -0.8420
vn 0.4956 0.0000 0.8686
vn 0.0097 0.0000 -1.0000
vn 0.9520 0.0000 -0.3061
vn -0.0000 -1.0000 0.0000
vn 0.9288 0.0000 0.3707
vn 0.7786 0.0000 -0.6275
vn 0.7786 0.0001 -0.6275
vn 0.4074 0.0000 -0.9132
vn 0.4074 0.0001 -0.9132
vn 0.8071 0.0000 0.5905
vn 0.4418 0.0000 -0.8971
vn 0.4081 -0.0000 0.9129
vn 0.3355 -0.0000 0.9420
vn 0.3304 -0.0000 0.9438
vn 0.2554 -0.0000 0.9668
vn 0.1875 0.1046 0.9767
vn 0.0658 -0.5790 -0.8127
vn 0.1847 0.1031 0.9774
vn 0.2954 0.0000 0.9554
vn 0.1638 -0.0000 0.9865
vn -0.0109 0.0000 0.9999
vn -0.1364 0.0000 0.9907
vn -0.2093 0.0000 0.9778
vn -0.9549 0.0000 -0.2970
vn -0.9961 0.0000 -0.0881
vn -0.9746 0.0000 0.2239
vn -0.4887 0.0000 -0.8724
vn 0.2085 0.0000 -0.9780
vn -0.4322 -0.0000 -0.9018
vn -0.4400 0.0000 -0.8980
vn -0.4317 0.0000 -0.9020
vn -0.5169 0.0000 0.8560
vn -0.7209 0.0000 0.6930
vn -0.9375 0.0000 0.3481
vn -0.7007 0.0000 -0.7135
vn -0.1997 0.0000 -0.9798
vn 0.4272 -0.0000 -0.9042
vn -0.4347 0.0000 -0.9006
vn -0.4165 0.0000 -0.9092
vn -0.4061 -0.0000 -0.9138
vn -0.0470 0.9568 -0.2870
vn -0.0227 0.9582 -0.2853
vn -0.0176 0.9584 -0.2848
vn -0.2777 0.0000 0.9607
vn -0.4404 0.0000 -0.8978
vn -0.3875 0.0000 -0.9219
vn 0.0000 1.0000 -0.0000
vn -0.1246 0.9641 -0.2343
vn -0.1260 0.9640 -0.2340
vn -0.1215 0.9635 -0.2385
vn 0.0331 0.9612 -0.2740
vn 0.0799 0.9642 -0.2528
vn 0.0881 0.9648 -0.2478
vn -0.0394 0.9760 0.2142
vn -0.0496 0.9771 0.2071
vn -0.0535 0.9776 0.2037
vn 0.2898 0.9418 0.1705
vn 0.0450 0.9398 0.3386
vn -0.1949 0.9575 0.2128
vn 0.0269 0.9608 -0.2758
vn -0.1389 0.9751 -0.1726
vn -0.1515 0.9824 -0.1097
vn -0.1267 0.9674 -0.2193
vn 0.1040 0.9658 -0.2377
vn 0.6820 0.6970 0.2213
vn -0.5589 0.6974 -0.4485
vn -0.0593 0.9567 -0.2850
vn -0.0781 0.9591 -0.2722
vn -0.0562 0.9567 -0.2857
vn 0.1136 0.9658 -0.2329
vn -0.0176 0.9749 0.2221
vn -0.0361 0.9757 0.2161
vn -0.0543 0.9567 -0.2861
vn -0.0475 0.9568 -0.2870
vn 0.7548 0.5580 -0.3448
vn -0.5904 0.8071 -0.0027
vn -0.1182 0.9623 -0.2451
vn -0.1058 0.9620 -0.2516
vn 0.0183 0.9750 0.2214
vn 0.0156 0.9749 0.2219
vn -0.0872 0.9600 -0.2663
vn -0.1227 0.9629 -0.2402
vn -0.1160 0.9619 -0.2477
vn -0.1410 0.9862 0.0869
vn -0.1585 0.9862 0.0480
vn -0.1587 0.9862 0.0470
vn 0.1426 0.9874 -0.0691
vn 0.1418 0.9899 0.0043
vn 0.1418 0.9899 0.0052
vn -0.0542 0.9567 -0.2861
vn 0.0757 0.9782 0.1933
vn 0.0871 0.9800 0.1788
vn 0.0632 0.9772 0.2027
vn -0.0152 0.9748 0.2226
vn 0.0911 0.9807 0.1731
vn 0.1085 0.9843 0.1393
vn 0.1175 0.9858 0.1200
vn 0.1335 0.9880 0.0781
vn -0.1555 0.9842 -0.0845
vn -0.1618 0.9862 -0.0337
vn 0.0750 0.9943 0.0756
vn 0.1145 0.9645 -0.2381
vn 0.1120 0.9630 -0.2451
vn -0.0846 0.9823 0.1674
vn -0.0997 0.9838 0.1489
vn -0.1620 0.9863 -0.0305
vn -0.1620 0.9867 0.0117
vn 0.1332 0.9805 -0.1444
vn 0.1414 0.9861 -0.0877
vn -0.1232 0.9615 -0.2457
vn -0.1394 0.9862 0.0898
vn 0.1198 0.9708 -0.2080
vn 0.1352 0.9882 0.0716
vn -0.1620 0.9867 0.0107
vn -0.4950 0.8574 -0.1412
vn 0.9111 0.0000 0.4122
vn 0.8420 0.0001 -0.5395
vn 0.0765 -0.9630 0.2584
vn 0.0621 -0.9872 -0.1472
vn -0.0026 0.2190 0.9757
usemtl Default_OBJ.013
s 1
f 1/1/1 6/2/1 8/3/1
f 3/4/1 6/2/1 1/1/1
f 11/5/2 8/3/2 10/6/2
f 1/1/2 8/3/2 11/5/2
f 11/5/3 73/7/4 74/8/5
f 17/9/6 18/10/7 20/11/8
f 9/12/9 12/13/10 17/9/11
f 20/11/12 21/14/12 14/15/12
f 19/16/12 21/14/12 20/11/12
f 24/17/13 25/18/13 23/19/13
f 26/20/13 25/18/13 24/17/13
f 3/4/14 5/21/14 6/2/14
f 28/22/15 29/23/15 30/24/15
f 31/25/15 28/22/15 30/24/15
f 32/26/16 31/27/16 30/28/16
f 29/23/17 33/29/17 30/24/17
f 29/23/17 34/30/17 33/29/17
f 31/25/18 35/31/19 28/22/18
f 32/32/19 35/31/19 31/25/18
f 36/33/20 35/34/21 32/35/21
f 27/36/20 36/33/20 32/35/21
f 34/30/22 26/37/22 33/29/22
f 25/38/22 26/37/22 34/30/22
f 27/36/23 19/16/23 36/33/23
f 21/14/23 19/16/23 27/36/23
f 23/19/24 37/39/25 24/17/24
f 22/40/26 37/39/25 23/19/24
f 37/39/25 22/40/26 38/41/27
f 39/42/28 40/43/29 15/44/30
f 41/45/31 40/46/31 39/47/31
f 41/48/31 39/49/31 38/41/31
f 42/50/32 43/51/32 15/52/32
f 43/51/32 42/50/32 46/53/32
f 46/53/33 47/54/33 43/51/33
f 48/55/33 47/54/33 46/53/33
f 49/56/34 48/55/34 45/57/34
f 47/54/34 48/55/34 49/56/34
f 8/58/16 5/59/16 43/60/16
f 45/57/35 13/61/35 49/56/35
f 44/62/35 13/61/35 45/57/35
f 51/63/36 50/64/36 53/65/36
f 54/66/37 51/63/37 53/65/37
f 52/67/37 51/63/37 54/66/37
f 55/68/38 52/67/38 54/66/38
f 59/69/39 62/70/39 63/71/39
f 60/72/39 59/69/39 63/71/39
f 2/73/40 5/21/40 4/74/40
f 56/75/41 64/76/42 65/77/43
f 61/78/44 66/79/45 67/80/44
f 58/81/45 66/79/45 61/78/44
f 57/82/46 66/83/46 58/84/46
f 57/82/46 55/68/46 66/83/46
f 52/67/38 55/68/38 57/82/38
f 65/77/43 68/85/43 56/75/41
f 68/85/47 65/77/47 69/86/47
f 50/87/47 68/85/47 69/86/47
f 53/65/36 50/64/36 69/88/36
f 74/8/5 16/89/48 72/90/48
f 12/13/10 7/91/49 2/73/49
f 59/69/50 70/92/51 62/70/50
f 71/93/52 70/92/51 59/69/50
f 1/94/53 76/95/54 3/96/55
f 67/80/44 44/62/56 61/78/44
f 13/61/56 44/62/56 67/80/44
f 56/75/41 63/71/57 64/76/42
f 71/93/52 16/89/58 70/92/51
f 72/90/58 16/89/58 71/93/52
f 18/10/11 17/9/11 12/13/10
f 22/40/26 41/48/27 38/41/27
f 101/97/59 102/98/59 79/99/59
f 59/100/60 104/101/61 103/102/62
f 4/103/63 86/104/64 2/105/65
f 45/106/66 99/107/67 44/108/68
f 42/109/69 80/110/70 81/111/71
f 3/96/55 87/112/72 4/103/63
f 68/113/73 94/114/74 97/115/75
f 12/116/76 89/117/77 18/118/78
f 74/119/79 106/120/80 107/121/81
f 2/105/65 88/122/82 12/116/76
f 48/123/83 82/124/84 45/106/66
f 11/125/85 75/126/86 1/94/53
f 18/118/78 90/127/87 19/128/88
f 71/129/89 103/102/62 105/130/90
f 46/131/91 81/111/71 93/132/92
f 72/133/93 105/130/90 106/120/80
f 60/134/94 109/135/95 104/101/61
f 58/136/96 84/137/97 57/138/98
f 28/139/99 78/140/100 29/141/101
f 11/125/85 107/121/81 77/142/102
f 22/143/103 92/144/104 91/145/105
f 46/131/91 83/146/106 48/123/83
f 23/147/107 98/148/108 92/144/104
f 25/149/109 79/99/110 98/148/108
f 50/150/111 95/151/112 94/114/74
f 41/152/113 91/145/105 80/110/70
f 19/128/88 102/98/114 36/153/115
f 44/108/68 96/154/116 61/155/117
f 51/156/118 100/157/119 95/151/112
f 35/158/120 108/159/121 28/139/99
f 56/160/122 97/115/75 109/135/95
f 61/155/117 85/161/123 58/136/96
f 36/153/115 101/97/124 35/158/120
f 34/162/125 78/140/100 79/99/110
f 57/138/98 100/157/119 52/163/126
f 11/5/3 10/6/3 73/7/4
f 14/15/127 9/12/128 17/9/6
f 18/10/7 19/16/129 20/11/8
f 20/11/8 14/15/127 17/9/6
f 3/4/14 4/74/14 5/21/14
f 40/43/29 41/164/130 42/165/131
f 15/44/30 38/166/132 39/42/28
f 40/43/29 42/165/131 15/44/30
f 38/167/16 15/168/16 9/169/16
f 15/168/16 43/60/16 5/59/16
f 9/169/16 15/168/16 7/170/16
f 43/60/16 47/171/16 10/172/16
f 47/171/16 49/173/16 70/174/16
f 49/173/16 13/175/16 63/176/16
f 13/175/16 67/177/16 66/178/16
f 63/176/16 13/175/16 55/179/16
f 66/178/16 55/179/16 13/175/16
f 55/179/16 54/180/16 64/181/16
f 54/180/16 53/182/16 64/181/16
f 53/182/16 69/183/16 65/184/16
f 53/182/16 65/184/16 64/181/16
f 47/171/16 70/174/16 73/185/16
f 70/174/16 49/173/16 62/186/16
f 37/187/16 38/167/16 21/188/16
f 26/189/16 24/190/16 27/191/16
f 24/190/16 37/187/16 21/188/16
f 30/192/16 33/193/16 32/194/16
f 33/193/16 26/189/16 27/191/16
f 27/191/16 32/194/16 33/193/16
f 9/169/16 14/195/16 38/167/16
f 14/195/16 21/188/16 38/167/16
f 21/188/16 27/191/16 24/190/16
f 15/168/16 5/59/16 7/170/16
f 55/179/16 64/181/16 63/176/16
f 63/176/16 62/186/16 49/173/16
f 8/58/16 6/196/16 5/59/16
f 73/185/16 10/172/16 47/171/16
f 10/172/16 8/58/16 43/60/16
f 70/174/16 16/197/16 73/185/16
f 2/73/40 7/91/40 5/21/40
f 74/8/5 73/7/4 16/89/48
f 12/13/10 9/12/9 7/91/49
f 1/94/53 75/126/86 76/95/54
f 56/75/41 60/72/57 63/71/57
f 88/122/59 86/104/59 81/111/59
f 86/104/59 87/112/59 81/111/59
f 87/112/59 76/95/59 75/126/59
f 75/126/59 77/142/59 93/132/59
f 77/142/59 107/121/59 83/146/59
f 107/121/59 106/120/59 105/130/59
f 105/130/59 103/102/59 82/124/59
f 103/102/59 104/101/59 82/124/59
f 105/130/59 82/124/59 83/146/59
f 109/135/59 97/115/59 95/151/59
f 97/115/59 94/114/59 95/151/59
f 107/121/59 105/130/59 83/146/59
f 104/101/59 109/135/59 84/137/59
f 100/157/59 109/135/59 95/151/59
f 100/157/59 84/137/59 109/135/59
f 84/137/59 85/161/59 99/107/59
f 104/101/59 84/137/59 99/107/59
f 85/161/59 96/154/59 99/107/59
f 99/107/59 82/124/59 104/101/59
f 83/146/59 93/132/59 77/142/59
f 93/132/59 81/111/59 87/112/59
f 80/110/59 91/145/59 90/127/59
f 91/145/59 92/144/59 90/127/59
f 90/127/59 92/144/59 102/98/59
f 93/132/59 87/112/59 75/126/59
f 81/111/59 80/110/59 88/122/59
f 89/117/59 88/122/59 80/110/59
f 90/127/59 89/117/59 80/110/59
f 92/144/59 98/148/59 102/98/59
f 98/148/59 79/99/59 102/98/59
f 79/99/59 78/140/59 108/159/59
f 108/159/59 101/97/59 79/99/59
f 59/100/60 60/134/94 104/101/61
f 4/103/63 87/112/72 86/104/64
f 45/106/66 82/124/84 99/107/67
f 42/109/69 41/152/113 80/110/70
f 3/96/55 76/95/54 87/112/72
f 68/113/73 50/150/111 94/114/74
f 12/116/76 88/122/82 89/117/77
f 74/119/79 72/133/93 106/120/80
f 2/105/65 86/104/64 88/122/82
f 48/123/83 83/146/106 82/124/84
f 11/125/85 77/142/102 75/126/86
f 18/118/78 89/117/77 90/127/87
f 71/129/89 59/100/60 103/102/62
f 46/131/91 42/109/69 81/111/71
f 72/133/93 71/129/89 105/130/90
f 60/134/94 56/160/122 109/135/95
f 58/136/96 85/161/123 84/137/97
f 28/139/99 108/159/121 78/140/100
f 11/125/85 74/119/79 107/121/81
f 22/143/103 23/147/107 92/144/104
f 46/131/91 93/132/92 83/146/106
f 23/147/107 25/149/109 98/148/108
f 25/149/109 34/162/125 79/99/110
f 50/150/111 51/156/118 95/151/112
f 41/152/113 22/143/103 91/145/105
f 19/128/88 90/127/87 102/98/114
f 44/108/68 99/107/67 96/154/116
f 51/156/118 52/163/126 100/157/119
f 35/158/120 101/97/124 108/159/121
f 56/160/122 68/113/73 97/115/75
f 61/155/117 96/154/116 85/161/123
f 36/153/115 102/98/114 101/97/124
f 34/162/125 29/141/101 78/140/100
f 57/138/98 84/137/97 100/157/119
