# Blender v3.0.0 OBJ File: 'terrain_woods_180.blend'
# www.blender.org
mtllib terrain_woods_180.mtl
o terrain_Woods_#180.001_terrain_Woods_#180_terrain_Woods_#180_terrain_Woods_#180.001
v 2.755000 -0.020000 0.000000
v 2.682200 -0.019998 -0.540800
v 2.682200 0.020002 -0.540800
v 2.755000 0.020000 -0.000000
v 2.474700 -0.019996 -1.037400
v 2.474700 0.020004 -1.037400
v 2.149300 -0.019995 -1.475600
v 2.149300 0.020005 -1.475600
v 1.722500 -0.019993 -1.841200
v 1.722500 0.020007 -1.841200
v 1.211000 -0.019992 -2.119900
v 1.211000 0.020008 -2.119900
v 0.631300 -0.019992 -2.297600
v 0.631300 0.020008 -2.297600
v 0.000000 -0.019991 -2.360000
v 0.000000 0.020009 -2.360000
v -0.631300 -0.019992 -2.297600
v -0.631300 0.020008 -2.297600
v -1.211000 -0.019992 -2.119900
v -1.211000 0.020008 -2.119900
v -1.722500 -0.019993 -1.841200
v -1.722500 0.020007 -1.841200
v -2.149300 -0.019995 -1.475600
v -2.149300 0.020005 -1.475600
v -2.474700 -0.019996 -1.037400
v -2.474700 0.020004 -1.037400
v -2.682200 -0.019998 -0.540800
v -2.682200 0.020002 -0.540800
v -2.755000 -0.020000 0.000000
v -2.755000 0.020000 -0.000000
v -2.682200 -0.020002 0.540800
v -2.682200 0.019998 0.540800
v -2.474700 -0.020004 1.037400
v -2.474700 0.019996 1.037400
v -2.149300 -0.020005 1.475600
v -2.149300 0.019995 1.475600
v -1.722500 -0.020007 1.841200
v -1.722500 0.019993 1.841200
v -1.211000 -0.020008 2.119900
v -1.211000 0.019992 2.119900
v -0.631300 -0.020008 2.297600
v -0.631300 0.019992 2.297600
v 0.000000 -0.020009 2.360000
v 0.000000 0.019991 2.360000
v 0.631300 -0.020008 2.297600
v 0.631300 0.019992 2.297600
v 1.211000 -0.020008 2.119900
v 1.211000 0.019992 2.119900
v 1.722500 -0.020007 1.841200
v 1.722500 0.019993 1.841200
v 2.149300 -0.020005 1.475600
v 2.149300 0.019995 1.475600
v 2.474700 -0.020004 1.037400
v 2.474700 0.019996 1.037400
v 2.682200 -0.020002 0.540800
v 2.682200 0.019998 0.540800
vt 0.934927 0.929090
vt 0.912554 0.943849
vt 0.911823 0.941947
vt 0.954652 0.910571
vt 0.936128 0.930751
vt 0.970412 0.887383
vt 0.956210 0.911913
vt 0.981426 0.860351
vt 0.972226 0.888364
vt 0.987256 0.830446
vt 0.983402 0.860947
vt 0.987255 0.798542
vt 0.989311 0.830651
vt 0.983155 0.766663
vt 0.989311 0.798351
vt 0.969723 0.739084
vt 0.981177 0.767245
vt 0.955168 0.713548
vt 0.971545 0.738127
vt 0.953580 0.714848
vt 0.934964 0.693604
vt 0.933694 0.695205
vt 0.911632 0.679180
vt 0.910769 0.681023
vt 0.886052 0.670938
vt 0.885685 0.672934
vt 0.858915 0.669858
vt 0.859104 0.671881
vt 0.832467 0.676244
vt 0.833198 0.678149
vt 0.808852 0.689315
vt 0.810052 0.690977
vt 0.788758 0.708156
vt 0.790316 0.709498
vt 0.772739 0.731707
vt 0.774552 0.732687
vt 0.761561 0.759124
vt 0.757707 0.789625
vt 0.763537 0.759720
vt 0.755652 0.821720
vt 0.755652 0.789420
vt 0.775241 0.880988
vt 0.761808 0.853408
vt 0.763786 0.852827
vt 0.791385 0.905224
vt 0.773419 0.881945
vt 0.811278 0.924868
vt 0.789798 0.906524
vt 0.834218 0.939048
vt 0.810007 0.926471
vt 0.859356 0.947091
vt 0.833357 0.940894
vt 0.885940 0.948198
vt 0.858990 0.949089
vt 0.886127 0.950220
vt 0.757708 0.821529
vt 0.252106 0.230445
vt 0.304625 0.167040
vt 0.791514 0.221516
vt 0.368025 0.118312
vt 0.440265 0.086713
vt 0.671947 0.113281
vt 0.519306 0.074737
vt 0.598701 0.084090
vt 0.736925 0.159883
vt 0.833579 0.295766
vt 0.861015 0.380251
vt 0.212522 0.306047
vt 0.871686 0.472574
vt 0.180288 0.484020
vt 0.864077 0.565200
vt 0.190960 0.576343
vt 0.839453 0.650547
vt 0.218395 0.660828
vt 0.799868 0.726149
vt 0.260460 0.735078
vt 0.747349 0.789554
vt 0.683949 0.838283
vt 0.315049 0.796711
vt 0.611709 0.869882
vt 0.380027 0.843314
vt 0.532668 0.881857
vt 0.453274 0.872505
vt 0.187898 0.391394
vn 0.9227 0.0000 -0.3855
vn 0.8028 0.0000 -0.5962
vn 0.6506 0.0000 -0.7595
vn 0.4785 0.0000 -0.8781
vn 0.2931 0.0000 -0.9561
vn 0.0984 0.0000 -0.9952
vn -0.0984 0.0000 -0.9952
vn -0.2931 0.0000 -0.9561
vn -0.4785 0.0000 -0.8781
vn -0.6506 0.0000 -0.7595
vn -0.8028 0.0000 -0.5962
vn -0.9227 0.0000 -0.3855
vn -0.9911 -0.0000 -0.1334
vn -0.9911 0.0000 0.1334
vn -0.9227 0.0000 0.3855
vn -0.8028 0.0000 0.5962
vn -0.6506 0.0000 0.7595
vn -0.4785 0.0000 0.8781
vn -0.2931 0.0000 0.9561
vn -0.0984 0.0000 0.9952
vn 0.2931 0.0000 0.9561
vn 0.4785 0.0000 0.8781
vn 0.6506 0.0000 0.7595
vn 0.8028 0.0000 0.5962
vn 0.9227 0.0000 0.3855
vn 0.9911 0.0000 0.1334
vn 0.9911 -0.0000 -0.1334
vn -0.0000 -1.0000 -0.0000
vn 0.0984 0.0000 0.9952
vn -0.0000 1.0000 0.0000
usemtl Default_OBJ.017
s 1
f 5/1/1 3/2/1 2/3/1
f 7/4/2 6/5/2 5/1/2
f 9/6/3 8/7/3 7/4/3
f 11/8/4 10/9/4 9/6/4
f 13/10/5 12/11/5 11/8/5
f 15/12/6 14/13/6 13/10/6
f 15/12/7 18/14/7 16/15/7
f 19/16/8 18/14/8 17/17/8
f 19/16/9 22/18/9 20/19/9
f 21/20/10 24/21/10 22/18/10
f 23/22/11 26/23/11 24/21/11
f 25/24/12 28/25/12 26/23/12
f 27/26/13 30/27/13 28/25/13
f 29/28/14 32/29/14 30/27/14
f 31/30/15 34/31/15 32/29/15
f 33/32/16 36/33/16 34/31/16
f 35/34/17 38/35/17 36/33/17
f 37/36/18 40/37/18 38/35/18
f 41/38/19 40/37/19 39/39/19
f 41/38/20 44/40/20 42/41/20
f 47/42/21 46/43/21 45/44/21
f 49/45/22 48/46/22 47/42/22
f 51/47/23 50/48/23 49/45/23
f 53/49/24 52/50/24 51/47/24
f 55/51/25 54/52/25 53/49/25
f 1/53/26 56/54/26 55/51/26
f 2/3/27 4/55/27 1/53/27
f 37/36/28 35/34/28 21/20/28
f 45/44/29 44/40/29 43/56/29
f 50/57/30 52/58/30 10/59/30
f 5/1/1 6/5/1 3/2/1
f 7/4/2 8/7/2 6/5/2
f 9/6/3 10/9/3 8/7/3
f 11/8/4 12/11/4 10/9/4
f 13/10/5 14/13/5 12/11/5
f 15/12/6 16/15/6 14/13/6
f 15/12/7 17/17/7 18/14/7
f 19/16/8 20/19/8 18/14/8
f 19/16/9 21/20/9 22/18/9
f 21/20/10 23/22/10 24/21/10
f 23/22/11 25/24/11 26/23/11
f 25/24/12 27/26/12 28/25/12
f 27/26/13 29/28/13 30/27/13
f 29/28/14 31/30/14 32/29/14
f 31/30/15 33/32/15 34/31/15
f 33/32/16 35/34/16 36/33/16
f 35/34/17 37/36/17 38/35/17
f 37/36/18 39/39/18 40/37/18
f 41/38/19 42/41/19 40/37/19
f 41/38/20 43/56/20 44/40/20
f 47/42/21 48/46/21 46/43/21
f 49/45/22 50/48/22 48/46/22
f 51/47/23 52/50/23 50/48/23
f 53/49/24 54/52/24 52/50/24
f 55/51/25 56/54/25 54/52/25
f 1/53/26 4/55/26 56/54/26
f 2/3/27 3/2/27 4/55/27
f 33/32/28 31/30/28 25/24/28
f 31/30/28 29/28/28 27/26/28
f 25/24/28 31/30/28 27/26/28
f 25/24/28 23/22/28 33/32/28
f 23/22/28 21/20/28 35/34/28
f 33/32/28 23/22/28 35/34/28
f 21/20/28 19/16/28 37/36/28
f 19/16/28 17/17/28 39/39/28
f 37/36/28 19/16/28 39/39/28
f 17/17/28 15/12/28 43/56/28
f 15/12/28 13/10/28 45/44/28
f 13/10/28 11/8/28 47/42/28
f 11/8/28 9/6/28 49/45/28
f 9/6/28 7/4/28 49/45/28
f 7/4/28 5/1/28 51/47/28
f 49/45/28 7/4/28 51/47/28
f 5/1/28 2/3/28 53/49/28
f 2/3/28 1/53/28 55/51/28
f 53/49/28 2/3/28 55/51/28
f 53/49/28 51/47/28 5/1/28
f 49/45/28 47/42/28 11/8/28
f 47/42/28 45/44/28 13/10/28
f 45/44/28 43/56/28 15/12/28
f 43/56/28 41/38/28 17/17/28
f 41/38/28 39/39/28 17/17/28
f 45/44/29 46/43/29 44/40/29
f 54/60/30 56/61/30 6/62/30
f 56/61/30 4/63/30 3/64/30
f 6/62/30 56/61/30 3/64/30
f 6/62/30 8/65/30 54/60/30
f 8/65/30 10/59/30 52/58/30
f 54/60/30 8/65/30 52/58/30
f 10/59/30 12/66/30 50/57/30
f 12/66/30 14/67/30 48/68/30
f 50/57/30 12/66/30 48/68/30
f 14/67/30 16/69/30 44/70/30
f 16/69/30 18/71/30 42/72/30
f 18/71/30 20/73/30 40/74/30
f 20/73/30 22/75/30 38/76/30
f 22/75/30 24/77/30 38/76/30
f 24/77/30 26/78/30 36/79/30
f 38/76/30 24/77/30 36/79/30
f 26/78/30 28/80/30 34/81/30
f 28/80/30 30/82/30 32/83/30
f 34/81/30 28/80/30 32/83/30
f 34/81/30 36/79/30 26/78/30
f 38/76/30 40/74/30 20/73/30
f 40/74/30 42/72/30 18/71/30
f 42/72/30 44/70/30 16/69/30
f 44/70/30 46/84/30 14/67/30
f 46/84/30 48/68/30 14/67/30
