# Blender v3.0.0 OBJ File: 'terrain_rough_97.blend'
# www.blender.org
mtllib terrain_rough_97.mtl
o terrain_Rough_#97.001_terrain_Woods_#198_terrain_Woods_#198_terrain_Woods_#198_te
v 6.130599 -0.019996 -0.399352
v 6.227861 0.019996 -1.130318
v 6.130599 0.019996 -0.399352
v 5.773438 -0.019995 0.479382
v 5.246486 0.019996 1.216109
v 5.246486 -0.019996 1.216109
v -5.775041 0.019997 0.459664
v -5.250609 -0.019996 1.198186
v -5.250609 0.019996 1.198186
v -6.129200 -0.019996 -0.420285
v -5.775041 -0.019995 0.459664
v -6.129200 0.019996 -0.420285
v -6.223965 -0.019996 -1.151580
v -6.223965 0.019996 -1.151580
v 6.131848 0.019996 -1.130482
v -6.127951 -0.019996 -1.151416
v -5.153110 -0.019996 -1.149751
v 0.009538 -0.019996 1.207167
v -0.712384 -0.019996 -1.142169
v 6.227861 -0.019996 -1.130318
v 5.773438 0.019997 0.479382
v 5.480480 0.019996 -1.131595
vt 0.718750 1.000000
vt 0.743734 0.500000
vt 0.743734 1.000000
vt 0.687500 0.500000
vt 0.687500 1.000000
vt 0.340943 1.000000
vt 0.312500 0.500000
vt 0.340943 0.500000
vt 0.281250 1.000000
vt 0.281250 0.500000
vt 0.437500 0.874807
vt 0.437500 0.787524
vt 0.562500 0.787524
vt 0.256266 1.000000
vt 0.256266 0.500000
vt 0.042547 0.990964
vt 0.042313 0.988584
vt 0.041444 0.985721
vt 0.375000 0.360713
vt 0.625000 0.484571
vt 0.375000 0.499518
vt 0.659056 1.000000
vt 0.557971 0.933719
vt 0.493408 0.959832
vt 0.439727 0.912008
vt 0.718750 0.500000
vt 0.312500 1.000000
vt 0.562500 0.962476
vt 0.437500 0.962476
vt 0.012375 0.988584
vt 0.012140 0.990964
vt 0.012375 0.990964
vt 0.014755 0.990964
vt 0.025599 0.990964
vt 0.014527 0.983319
vt 0.027372 0.983319
vt 0.040161 0.983319
vt 0.013243 0.985721
vt 0.375000 0.250482
vt 0.625000 0.250482
vt 0.375000 0.252402
vt 0.375000 0.271899
vt 0.625000 0.497598
vt 0.625000 0.499518
vt 0.659056 0.500000
vt 0.439727 0.966882
vt 0.439727 0.959832
vt 0.439727 0.052650
vt 0.612128 0.124409
vt 0.493408 0.059699
vt 0.557971 0.085812
vt 0.612128 0.895122
vn 0.9913 0.0000 0.1319
vn 0.9264 0.0000 0.3765
vn -0.8153 0.0000 0.5790
vn -0.9277 0.0000 0.3734
vn -0.0017 -0.0000 1.0000
vn -0.9917 0.0000 0.1285
vn -0.0000 -1.0000 0.0000
vn 0.0017 0.0000 -1.0000
vn 0.8134 0.0000 0.5818
vn -0.0000 1.0000 -0.0000
usemtl None.013
s 1
f 3/1/1 20/2/1 2/3/1
f 4/4/2 3/1/2 21/5/2
f 9/6/3 11/7/3 8/8/3
f 11/7/4 12/9/4 10/10/4
f 18/11/5 6/12/5 5/13/5
f 10/10/6 14/14/6 13/15/6
f 20/16/7 1/17/7 4/18/7
f 19/19/8 22/20/8 20/21/8
f 5/22/9 4/4/9 21/5/9
f 21/23/10 3/24/10 22/25/10
f 3/1/1 1/26/1 20/2/1
f 4/4/2 1/26/2 3/1/2
f 9/6/3 7/27/3 11/7/3
f 11/7/4 7/27/4 12/9/4
f 5/13/5 9/28/5 18/11/5
f 9/28/5 8/29/5 18/11/5
f 10/10/6 12/9/6 14/14/6
f 10/30/7 13/31/7 16/32/7
f 17/33/7 19/34/7 8/35/7
f 19/34/7 20/16/7 4/18/7
f 18/36/7 19/34/7 6/37/7
f 10/30/7 16/32/7 17/33/7
f 8/35/7 11/38/7 17/33/7
f 11/38/7 10/30/7 17/33/7
f 4/18/7 6/37/7 19/34/7
f 18/36/7 8/35/7 19/34/7
f 13/39/8 14/40/8 16/41/8
f 14/40/8 22/20/8 19/19/8
f 16/41/8 14/40/8 17/42/8
f 15/43/8 2/44/8 20/21/8
f 22/20/8 15/43/8 20/21/8
f 19/19/8 17/42/8 14/40/8
f 5/22/9 6/45/9 4/4/9
f 2/46/10 15/47/10 3/24/10
f 15/47/10 22/25/10 3/24/10
f 22/25/10 14/48/10 9/49/10
f 14/48/10 12/50/10 7/51/10
f 9/49/10 14/48/10 7/51/10
f 9/49/10 5/52/10 22/25/10
f 5/52/10 21/23/10 22/25/10
