# Blender v3.0.0 OBJ File: 'terrain_steep_hill_155.blend'
# www.blender.org
mtllib terrain_steep_hill_155.mtl
o terrain_Steep_Hill_#155.001_terrain_Wooded_Hill_#105.001
v -2.306654 -0.111133 -0.103385
v -2.244254 -0.111132 0.435124
v -2.244254 -0.085718 0.435124
v -2.306654 -0.085718 -0.103385
v -2.066554 -0.111132 0.929620
v -2.066554 -0.085718 0.929620
v -1.787854 -0.111132 1.365963
v -1.787854 -0.085718 1.365963
v -1.422254 -0.111132 1.730014
v -1.422254 -0.085718 1.730014
v -0.984054 -0.111132 2.007533
v -0.984054 -0.085718 2.007533
v -0.487454 -0.111132 2.184480
v -0.487454 -0.085718 2.184480
v 0.053346 -0.111132 2.246615
v 0.053346 -0.085718 2.246615
v 0.594146 -0.111132 2.184480
v 0.594146 -0.085718 2.184480
v 1.090746 -0.111132 2.007533
v 1.090746 -0.085718 2.007533
v 1.528946 -0.111132 1.730014
v 1.528946 -0.085718 1.730014
v 1.894546 -0.111132 1.365963
v 1.894546 -0.085718 1.365963
v 2.173246 -0.111132 0.929620
v 2.173246 -0.085718 0.929620
v 2.350946 -0.111132 0.435124
v 2.350946 -0.085718 0.435124
v 2.413346 -0.111133 -0.103385
v 2.413346 -0.085718 -0.103385
v 2.350946 -0.111133 -0.641893
v 2.350946 -0.085718 -0.641893
v 2.173246 -0.111133 -1.136389
v 2.173246 -0.085718 -1.136389
v 1.894546 -0.111133 -1.572732
v 1.894546 -0.085718 -1.572732
v 1.528946 -0.111133 -1.936783
v 1.528946 -0.085718 -1.936783
v 1.090746 -0.111133 -2.214302
v 1.090746 -0.085718 -2.214302
v 0.594146 -0.111133 -2.391249
v 0.594146 -0.085718 -2.391249
v 0.053346 -0.111133 -2.453384
v 0.053346 -0.085718 -2.453384
v -0.487454 -0.111133 -2.391249
v -0.487454 -0.085718 -2.391249
v -0.984054 -0.111133 -2.214302
v -0.984054 -0.085718 -2.214302
v -1.422254 -0.111133 -1.936783
v -1.422254 -0.085718 -1.936783
v -1.787854 -0.111133 -1.572732
v -1.787854 -0.085718 -1.572732
v -2.066554 -0.111133 -1.136389
v -2.066554 -0.085718 -1.136389
v -2.244254 -0.111133 -0.641893
v -2.244254 -0.085718 -0.641893
v -2.244254 -0.085718 0.435124
v -2.306654 -0.085718 -0.103385
v -2.066554 -0.085718 0.929620
v -2.244254 -0.085718 -0.641893
v -1.787854 -0.085718 1.365963
v -1.422254 -0.085718 1.730014
v -0.984054 -0.085718 2.007533
v -0.487454 -0.085718 2.184480
v 0.053346 -0.085718 2.246615
v 0.594146 -0.085718 2.184480
v 1.090746 -0.085718 2.007533
v 1.528946 -0.085718 1.730014
v 1.894546 -0.085718 1.365963
v 2.173246 -0.085718 0.929620
v 2.350946 -0.085718 0.435124
v 2.413346 -0.085718 -0.103385
v 2.350946 -0.085718 -0.641893
v 2.173246 -0.085718 -1.136389
v 1.894546 -0.085718 -1.572732
v 1.528946 -0.085718 -1.936783
v 1.090746 -0.085718 -2.214302
v 0.594146 -0.085718 -2.391249
v 0.053346 -0.085718 -2.453384
v -0.487454 -0.085718 -2.391249
v -0.984054 -0.085718 -2.214302
v -1.422254 -0.085718 -1.936783
v -1.787854 -0.085718 -1.572732
v -2.066554 -0.085718 -1.136389
v -0.931262 0.282568 0.490913
v -0.952208 0.282568 0.310154
v -0.871615 0.282568 0.656898
v -0.931262 0.282568 0.129395
v -0.778065 0.282568 0.803363
v -0.655345 0.282568 0.925562
v -0.508257 0.282568 1.018716
v -0.341565 0.282568 1.078111
v -0.160037 0.282568 1.098968
v 0.021490 0.282568 1.078111
v 0.188182 0.282568 1.018716
v 0.335270 0.282568 0.925562
v 0.457990 0.282568 0.803363
v 0.551540 0.282568 0.656898
v 0.611187 0.282568 0.490913
v 0.632133 0.282568 0.310154
v 0.611187 0.282568 0.129395
v 0.551540 0.282568 -0.036590
v 0.457990 0.282568 -0.183055
v 0.335270 0.282568 -0.305255
v 0.188182 0.282568 -0.398408
v 0.021490 0.282568 -0.457803
v -0.160037 0.282568 -0.478660
v -0.341565 0.282568 -0.457803
v -0.508257 0.282568 -0.398408
v -0.655345 0.282568 -0.305255
v -0.778065 0.282568 -0.183055
v -0.871615 0.282568 -0.036590
vt 0.942455 0.707567
vt 0.916577 0.687236
vt 0.917898 0.685112
vt 0.944218 0.705801
vt 0.887657 0.673650
vt 0.888474 0.671282
vt 0.856896 0.666871
vt 0.857174 0.664382
vt 0.825535 0.666950
vt 0.825265 0.664461
vt 0.794840 0.673875
vt 0.794032 0.671510
vt 0.766045 0.687586
vt 0.764733 0.685464
vt 0.766784 0.927816
vt 0.740430 0.908244
vt 0.740430 0.908244
vt 0.979063 0.760963
vt 0.986044 0.791896
vt 0.986044 0.791896
vt 0.857174 0.664382
vt 0.719386 0.883045
vt 0.719386 0.883045
vt 0.720036 0.733690
vt 0.706578 0.762319
vt 0.704236 0.761515
vt 0.717930 0.732374
vt 0.944782 0.908067
vt 0.918737 0.927842
vt 0.918737 0.927842
vt 0.705181 0.854496
vt 0.705181 0.854496
vt 0.700006 0.792701
vt 0.700325 0.823578
vt 0.697878 0.823868
vt 0.697550 0.792440
vt 0.707494 0.853668
vt 0.721445 0.881713
vt 0.742120 0.906470
vt 0.768013 0.925693
vt 0.796816 0.937961
vt 0.796108 0.940317
vt 0.827399 0.943285
vt 0.827148 0.945740
vt 0.858483 0.944107
vt 0.858672 0.946568
vt 0.888900 0.938311
vt 0.889618 0.940658
vt 0.917507 0.925729
vt 0.963376 0.881395
vt 0.965435 0.882713
vt 0.794032 0.671510
vt 0.740348 0.708015
vt 0.738594 0.706249
vt 0.766784 0.927816
vt 0.976873 0.853249
vt 0.979188 0.854061
vt 0.331392 0.025508
vt 0.497088 0.324055
vt 0.231871 0.073843
vt 0.965435 0.882713
vt 0.983596 0.823090
vt 0.983584 0.792160
vt 0.986044 0.823369
vt 0.976716 0.761769
vt 0.962993 0.733172
vt 0.965105 0.731856
vt 0.706791 0.348271
vt 0.606163 0.299268
vt 0.704236 0.761515
vt 0.697878 0.823868
vt 0.944218 0.705801
vt 0.697550 0.792440
vt 0.825265 0.664461
vt 0.827148 0.945740
vt 0.917898 0.685112
vt 0.000094 0.558409
vt 0.427873 0.523481
vt 0.025667 0.667965
vt 0.965105 0.731856
vt 0.717930 0.732374
vt 0.796108 0.940317
vt 0.889618 0.940658
vt 0.973505 0.332035
vt 0.729793 0.377271
vt 0.925135 0.232383
vt 0.858672 0.946568
vt 0.986044 0.823369
vt 0.979188 0.854061
vt 0.943094 0.906304
vt 0.979063 0.760963
vt 0.738594 0.706249
vt 0.023553 0.982295
vt 0.014728 0.973567
vt 0.020688 0.976402
vt 0.944782 0.908067
vt 0.442351 1.000000
vt 0.529820 0.626058
vt 0.567739 0.634933
vt 0.329383 0.973559
vt 0.495980 0.609346
vt 0.764733 0.685464
vt 0.856608 0.145988
vt 0.556821 0.000000
vt 0.567227 0.299268
vt 0.440827 0.000000
vt 0.075986 0.228389
vt 0.428094 0.409788
vt 0.026325 0.329257
vt 0.853562 0.857637
vt 0.676814 0.610147
vt 0.705768 0.587147
vt 0.074038 0.767617
vt 0.444109 0.556931
vt 0.677923 0.324856
vt 0.770605 0.076229
vt 0.754613 0.447495
vt 0.746029 0.410721
vt 0.228568 0.923771
vt 0.467111 0.585931
vt 0.923187 0.771611
vt 0.729139 0.558271
vt 0.644082 0.308143
vt 0.669790 0.026441
vt 0.000000 0.442308
vt 0.419289 0.486707
vt 0.767302 0.926157
vt 0.643408 0.626371
vt 0.530494 0.307831
vt 0.999173 0.557692
vt 0.745809 0.524413
vt 0.754645 0.486466
vt 0.888474 0.671282
vt 0.419257 0.447736
vt 0.558346 1.000000
vt 0.606675 0.634933
vt 0.145611 0.142363
vt 0.444763 0.375931
vt 0.468134 0.347054
vt 0.999079 0.441591
vt 0.972848 0.670743
vt 0.667780 0.974491
vt 0.142565 0.854012
vt 0.023554 0.984450
vt 0.012543 0.973572
vt 0.023086 0.986550
vt 0.010405 0.974055
vt 0.022145 0.988511
vt 0.020732 0.990246
vt 0.008399 0.975010
vt 0.018950 0.991600
vt 0.005194 0.978222
vt 0.016957 0.992476
vt 0.004256 0.980216
vt 0.014838 0.992880
vt 0.012673 0.992823
vt 0.003798 0.982333
vt 0.010542 0.992452
vt 0.006732 0.990258
vt 0.008536 0.991597
vt 0.005292 0.988533
vt 0.004320 0.986580
vt 0.003820 0.984484
vt 0.006609 0.976433
vt 0.016870 0.974039
vt 0.018885 0.974986
vt 0.022119 0.978186
vt 0.023075 0.980178
vn -0.9934 0.0000 0.1151
vn -0.9411 0.0000 0.3382
vn -0.8428 0.0000 0.5383
vn -0.7056 0.0000 0.7086
vn -0.5350 0.0000 0.8448
vn -0.3356 0.0000 0.9420
vn 0.0000 0.0000 1.0000
vn 0.3356 0.0000 0.9420
vn 0.7056 0.0000 0.7086
vn 0.8428 0.0000 0.5383
vn 0.9411 0.0000 0.3382
vn 0.9934 0.0000 0.1151
vn 0.9934 0.0000 -0.1151
vn 0.9411 0.0000 -0.3382
vn 0.8428 0.0000 -0.5383
vn 0.7056 0.0000 -0.7086
vn 0.5350 0.0000 -0.8448
vn 0.3356 0.0000 -0.9420
vn -0.1141 0.0000 -0.9935
vn -0.1141 0.0000 0.9935
vn -0.3356 0.0000 -0.9420
vn -0.2037 0.9734 -0.1047
vn -0.1725 0.9760 -0.1333
vn -0.1659 0.9764 -0.1382
vn -0.7056 0.0000 -0.7086
vn -0.8428 0.0000 -0.5383
vn -0.9411 0.0000 -0.3382
vn -0.9934 -0.0000 -0.1151
vn 0.5350 0.0000 0.8448
vn 0.0000 1.0000 -0.0000
vn 0.0414 0.9837 -0.1751
vn 0.0782 0.9839 -0.1607
vn 0.0784 0.9839 -0.1606
vn -0.1393 0.9480 0.2861
vn -0.1955 0.9488 0.2480
vn -0.1982 0.9489 0.2455
vn 0.1141 0.0000 0.9935
vn 0.1141 0.0000 -0.9935
vn -0.0000 -1.0000 0.0000
vn 0.2018 0.9794 -0.0030
vn 0.1893 0.9810 -0.0414
vn 0.2033 0.9791 0.0037
vn -0.5350 0.0000 -0.8448
vn 0.1872 0.9812 -0.0463
vn 0.1685 0.9824 -0.0805
vn -0.2376 0.9513 0.1963
vn -0.2411 0.9517 0.1902
vn -0.2610 0.9653 -0.0050
vn -0.2420 0.9689 -0.0507
vn -0.2366 0.9697 -0.0603
vn -0.0835 0.9807 -0.1770
vn -0.0450 0.9820 -0.1836
vn -0.0408 0.9821 -0.1840
vn 0.1645 0.9662 0.1983
vn 0.1869 0.9697 0.1576
vn 0.1581 0.9654 0.2074
vn 0.1116 0.9838 -0.1404
vn 0.1124 0.9838 -0.1398
vn -0.2635 0.9551 0.1353
vn -0.2658 0.9558 0.1259
vn -0.0736 0.9491 0.3062
vn -0.1395 0.9480 0.2860
vn 0.1664 0.9825 -0.0836
vn 0.1426 0.9833 -0.1132
vn 0.1245 0.9616 0.2445
vn 0.1161 0.9608 0.2519
vn -0.2722 0.9597 0.0699
vn -0.2719 0.9605 0.0588
vn -0.2641 0.9645 0.0062
vn 0.0013 0.9831 -0.1832
vn 0.0399 0.9837 -0.1755
vn 0.1909 0.9704 0.1479
vn 0.2033 0.9734 0.1056
vn -0.2101 0.9728 -0.0975
vn 0.0035 0.9524 0.3050
vn 0.0609 0.9561 0.2868
vn -0.0043 0.9519 0.3063
vn -0.0016 0.9830 -0.1835
vn 0.2083 0.9770 0.0451
vn 0.2084 0.9766 0.0535
vn -0.1255 0.9788 -0.1619
vn -0.0889 0.9804 -0.1756
vn -0.1317 0.9785 -0.1590
vn -0.0693 0.9492 0.3068
vn 0.0703 0.9568 0.2821
vn 0.2050 0.9740 0.0961
vn 0.1410 0.9833 -0.1149
usemtl Default_OBJ.008
s 1
f 1/1/1 2/2/1 3/3/1
f 1/1/1 3/3/1 4/4/1
f 2/2/2 5/5/2 6/6/2
f 2/2/2 6/6/2 3/3/2
f 5/5/3 7/7/3 8/8/3
f 5/5/3 8/8/3 6/6/3
f 7/7/4 9/9/4 10/10/4
f 7/7/4 10/10/4 8/8/4
f 9/9/5 11/11/5 12/12/5
f 9/9/5 12/12/5 10/10/5
f 11/11/6 13/13/6 14/14/6
f 11/11/6 14/14/6 12/12/6
f 32/15/7 72/16/7 30/17/7
f 54/18/7 83/19/7 52/20/7
f 10/10/7 61/21/7 8/8/7
f 30/17/7 71/22/7 28/23/7
f 17/24/8 19/25/8 20/26/8
f 17/24/8 20/26/8 18/27/8
f 44/28/7 78/29/7 42/30/7
f 28/23/7 70/31/7 26/32/7
f 21/33/9 23/34/9 24/35/9
f 21/33/9 24/35/9 22/36/9
f 23/34/10 25/37/10 26/32/10
f 23/34/10 26/32/10 24/35/10
f 25/37/11 27/38/11 28/23/11
f 25/37/11 28/23/11 26/32/11
f 27/38/12 29/39/12 30/17/12
f 27/38/12 30/17/12 28/23/12
f 29/39/13 31/40/13 32/15/13
f 29/39/13 32/15/13 30/17/13
f 31/40/14 33/41/14 34/42/14
f 31/40/14 34/42/14 32/15/14
f 33/41/15 35/43/15 36/44/15
f 33/41/15 36/44/15 34/42/15
f 35/43/16 37/45/16 38/46/16
f 35/43/16 38/46/16 36/44/16
f 37/45/17 39/47/17 40/48/17
f 37/45/17 40/48/17 38/46/17
f 39/47/18 41/49/18 42/30/18
f 39/47/18 42/30/18 40/48/18
f 44/28/19 45/50/19 46/51/19
f 14/14/7 63/52/7 12/12/7
f 14/14/20 15/53/20 16/54/20
f 34/42/7 73/55/7 32/15/7
f 45/50/21 47/56/21 48/57/21
f 45/50/21 48/57/21 46/51/21
f 84/58/22 111/59/23 83/60/24
f 48/57/7 80/61/7 46/51/7
f 49/62/25 51/63/25 52/20/25
f 49/62/25 52/20/25 50/64/25
f 51/63/26 53/65/26 54/18/26
f 51/63/26 54/18/26 52/20/26
f 53/65/27 55/66/27 56/67/27
f 53/65/27 56/67/27 54/18/27
f 55/66/28 1/1/28 4/4/28
f 55/66/28 4/4/28 56/67/28
f 20/26/29 21/33/29 22/36/29
f 89/68/30 111/59/30 86/69/30
f 22/36/7 67/70/7 20/26/7
f 26/32/7 69/71/7 24/35/7
f 3/3/7 58/72/7 4/4/7
f 24/35/7 68/73/7 22/36/7
f 12/12/7 62/74/7 10/10/7
f 38/46/7 75/75/7 36/44/7
f 6/6/7 57/76/7 3/3/7
f 78/77/31 105/78/32 77/79/33
f 4/4/7 60/80/7 56/67/7
f 20/26/7 66/81/7 18/27/7
f 36/44/7 74/82/7 34/42/7
f 42/30/7 77/83/7 40/48/7
f 63/84/34 90/85/35 62/86/36
f 40/48/7 76/87/7 38/46/7
f 52/20/7 82/88/7 50/64/7
f 50/64/7 81/89/7 48/57/7
f 16/54/37 17/24/37 18/27/37
f 42/30/38 43/90/38 44/28/38
f 56/67/7 84/91/7 54/18/7
f 18/27/7 65/92/7 16/54/7
f 51/93/39 7/94/39 1/95/39
f 46/51/7 79/96/7 44/28/7
f 72/97/40 101/98/41 100/99/42
f 48/57/43 49/62/43 50/64/43
f 73/100/44 102/101/45 101/98/41
f 16/54/7 64/102/7 14/14/7
f 62/86/36 89/68/46 61/103/47
f 58/104/48 88/105/49 60/106/50
f 81/107/51 108/108/52 80/109/53
f 68/110/54 97/111/55 96/112/56
f 76/113/57 105/78/32 104/114/58
f 61/103/47 87/115/59 59/116/60
f 63/84/34 92/117/61 91/118/62
f 74/119/63 103/120/64 102/101/45
f 67/121/65 96/112/56 95/122/66
f 59/116/60 85/123/67 57/124/68
f 57/124/68 86/69/69 58/104/48
f 79/125/70 106/126/71 78/77/31
f 69/127/72 98/128/73 97/111/55
f 60/106/50 112/129/74 84/58/22
f 65/130/75 94/131/76 93/132/77
f 8/8/7 59/133/7 6/6/7
f 80/109/53 107/134/78 79/125/70
f 71/135/79 100/99/42 99/136/80
f 82/137/81 109/138/82 81/107/51
f 83/60/24 110/139/83 82/137/81
f 64/140/84 93/132/77 92/117/61
f 66/141/85 95/122/66 94/131/76
f 70/142/86 99/136/80 98/128/73
f 75/143/87 104/114/58 103/120/64
f 32/15/7 73/55/7 72/16/7
f 54/18/7 84/91/7 83/19/7
f 10/10/7 62/74/7 61/21/7
f 30/17/7 72/16/7 71/22/7
f 44/28/7 79/96/7 78/29/7
f 28/23/7 71/22/7 70/31/7
f 44/28/19 43/90/19 45/50/19
f 14/14/7 64/102/7 63/52/7
f 14/14/20 13/13/20 15/53/20
f 34/42/7 74/82/7 73/55/7
f 84/58/22 112/129/74 111/59/23
f 48/57/7 81/89/7 80/61/7
f 20/26/29 19/25/29 21/33/29
f 89/68/30 90/85/30 110/139/30
f 90/85/30 91/118/30 109/138/30
f 91/118/30 92/117/30 109/138/30
f 92/117/30 93/132/30 108/108/30
f 109/138/30 92/117/30 108/108/30
f 93/132/30 94/131/30 106/126/30
f 94/131/30 95/122/30 105/78/30
f 95/122/30 96/112/30 105/78/30
f 96/112/30 97/111/30 104/114/30
f 105/78/30 96/112/30 104/114/30
f 97/111/30 98/128/30 100/99/30
f 98/128/30 99/136/30 100/99/30
f 100/99/30 101/98/30 102/101/30
f 97/111/30 100/99/30 103/120/30
f 102/101/30 103/120/30 100/99/30
f 103/120/30 104/114/30 97/111/30
f 105/78/30 106/126/30 94/131/30
f 106/126/30 107/134/30 93/132/30
f 107/134/30 108/108/30 93/132/30
f 109/138/30 110/139/30 90/85/30
f 110/139/30 111/59/30 89/68/30
f 111/59/30 112/129/30 86/69/30
f 112/129/30 88/105/30 86/69/30
f 86/69/30 85/123/30 87/115/30
f 89/68/30 86/69/30 87/115/30
f 22/36/7 68/73/7 67/70/7
f 26/32/7 70/31/7 69/71/7
f 3/3/7 57/76/7 58/72/7
f 24/35/7 69/71/7 68/73/7
f 12/12/7 63/52/7 62/74/7
f 38/46/7 76/87/7 75/75/7
f 6/6/7 59/133/7 57/76/7
f 78/77/31 106/126/71 105/78/32
f 4/4/7 58/72/7 60/80/7
f 20/26/7 67/70/7 66/81/7
f 36/44/7 75/75/7 74/82/7
f 42/30/7 78/29/7 77/83/7
f 63/84/34 91/118/62 90/85/35
f 40/48/7 77/83/7 76/87/7
f 52/20/7 83/19/7 82/88/7
f 50/64/7 82/88/7 81/89/7
f 16/54/37 15/53/37 17/24/37
f 42/30/38 41/49/38 43/90/38
f 56/67/7 60/80/7 84/91/7
f 18/27/7 66/81/7 65/92/7
f 51/93/39 49/144/39 9/145/39
f 49/144/39 47/146/39 11/147/39
f 47/146/39 45/148/39 11/147/39
f 45/148/39 43/149/39 13/150/39
f 11/147/39 45/148/39 13/150/39
f 43/149/39 41/151/39 17/152/39
f 41/151/39 39/153/39 19/154/39
f 39/153/39 37/155/39 19/154/39
f 37/155/39 35/156/39 21/157/39
f 19/154/39 37/155/39 21/157/39
f 35/156/39 33/158/39 29/159/39
f 33/158/39 31/160/39 29/159/39
f 29/159/39 27/161/39 25/162/39
f 35/156/39 29/159/39 23/163/39
f 25/162/39 23/163/39 29/159/39
f 23/163/39 21/157/39 35/156/39
f 19/154/39 17/152/39 41/151/39
f 17/152/39 15/164/39 43/149/39
f 15/164/39 13/150/39 43/149/39
f 11/147/39 9/145/39 49/144/39
f 9/145/39 7/94/39 51/93/39
f 7/94/39 5/165/39 1/95/39
f 5/165/39 2/166/39 1/95/39
f 1/95/39 55/167/39 53/168/39
f 51/93/39 1/95/39 53/168/39
f 46/51/7 80/61/7 79/96/7
f 72/97/40 73/100/44 101/98/41
f 48/57/43 47/56/43 49/62/43
f 73/100/44 74/119/63 102/101/45
f 16/54/7 65/92/7 64/102/7
f 62/86/36 90/85/35 89/68/46
f 58/104/48 86/69/69 88/105/49
f 81/107/51 109/138/82 108/108/52
f 68/110/54 69/127/72 97/111/55
f 76/113/57 77/79/33 105/78/32
f 61/103/47 89/68/46 87/115/59
f 63/84/34 64/140/84 92/117/61
f 74/119/63 75/143/87 103/120/64
f 67/121/65 68/110/54 96/112/56
f 59/116/60 87/115/59 85/123/67
f 57/124/68 85/123/67 86/69/69
f 79/125/70 107/134/78 106/126/71
f 69/127/72 70/142/86 98/128/73
f 60/106/50 88/105/49 112/129/74
f 65/130/75 66/141/85 94/131/76
f 8/8/7 61/21/7 59/133/7
f 80/109/53 108/108/52 107/134/78
f 71/135/79 72/97/40 100/99/42
f 82/137/81 110/139/83 109/138/82
f 83/60/24 111/59/23 110/139/83
f 64/140/84 65/130/75 93/132/77
f 66/141/85 67/121/65 95/122/66
f 70/142/86 71/135/79 99/136/80
f 75/143/87 76/113/57 104/114/58
