# Blender v3.0.0 OBJ File: 'terrain_steep_hill_166.blend'
# www.blender.org
mtllib terrain_steep_hill_166.mtl
o terrain_Steep_Hill_#166.001_terrain_Wooded_Hill_#116.001
v -0.519150 -0.239493 -2.399540
v 0.817457 -0.239493 -2.096137
v -0.140805 -0.239493 -2.449122
v 0.333471 -0.239493 -2.386791
v 0.333471 -0.247991 -2.386791
v -0.140805 -0.247991 -2.449122
v 0.817457 -0.247991 -2.096137
v -0.519150 -0.247991 -2.399540
v 1.284976 -0.247991 -1.717979
v -0.907020 -0.247991 -2.294257
v -0.907020 -0.239493 -2.294257
v 1.284976 -0.239493 -1.717980
v -1.365152 -0.247991 1.967602
v 1.756041 -0.247991 -1.329075
v 0.789240 -0.247991 1.955929
v -0.171308 0.539410 -0.420436
v 1.756041 -0.247991 -1.329075
v 1.756041 -0.239493 -1.329075
v 2.233106 -0.239493 -1.063136
v 1.756041 -0.239493 -1.329075
v 2.233106 -0.247991 -1.063136
v 2.020524 -0.239493 1.489812
v 2.732598 -0.239493 1.223752
v 2.732598 -0.247991 1.223752
v -0.842321 0.539411 0.135767
v -0.025104 0.539410 -0.449987
v 2.877026 -0.247991 -0.823656
v 4.246158 -0.239493 -0.315222
v 4.392995 -0.239493 0.082108
v 4.392995 -0.247991 0.082108
v 4.246158 -0.247991 -0.315222
v 3.576669 -0.247991 -0.596702
v 4.141007 -0.247991 0.519890
v 4.141007 -0.239493 0.519890
v 3.576669 -0.239493 -0.596701
v 2.877027 -0.239493 -0.823656
v 2.020523 -0.247991 1.489812
v 1.380637 -0.247991 1.724931
v 0.789240 -0.247991 1.955929
v 0.789240 -0.239493 1.955929
v 1.380637 -0.239493 1.724931
v 0.789241 -0.239493 1.955929
v 0.249672 -0.247991 2.165504
v -1.365152 -0.239493 1.967602
v -0.736298 -0.239493 2.167154
v 0.249672 -0.239493 2.165504
v -0.212115 -0.247991 2.222800
v -0.212115 -0.239493 2.222800
v -0.736298 -0.247991 2.167154
v -4.736517 -0.239493 -0.427363
v -4.876792 -0.239493 -0.048665
v -4.781891 -0.239493 0.289265
v -4.876792 -0.247991 -0.048665
v -4.781891 -0.247991 0.289265
v -4.423636 -0.247991 0.620670
v 0.791918 0.539411 0.116537
v -4.423636 -0.239493 0.620670
v -3.497392 -0.239493 1.209259
v 0.265205 0.539411 0.346474
v 0.152360 0.539411 0.390551
v -2.207277 -0.239493 1.668024
v -4.366524 -0.239493 -0.759150
v -0.097297 0.539410 -0.440526
v -0.907020 -0.239493 -2.294257
v -4.366524 -0.247991 -0.759150
v -3.497392 -0.247991 1.209259
v -2.207277 -0.247991 1.668024
v -4.366524 -0.239493 -0.759150
v -4.736517 -0.247991 -0.427363
v 0.157744 0.539410 -0.382633
v -0.665582 0.539411 0.248077
v -0.038711 0.539411 0.441473
v 0.840000 0.539411 0.033003
v -0.138732 0.539411 0.430855
v 0.065393 0.539410 -0.438093
v 0.246952 0.539410 -0.310476
v 0.336837 0.539411 -0.236268
v 0.427867 0.539411 -0.185524
v 0.387303 0.539411 0.301610
v 0.523176 0.539411 0.250843
v 0.049403 0.539411 0.430540
v -0.902022 0.539411 -0.064210
v -0.928788 0.539411 0.008050
v -0.419412 0.539411 0.335615
v -0.831423 0.539411 -0.127519
v -0.258725 0.539411 0.392778
v -0.910680 0.539411 0.072531
v 0.684235 0.539411 -0.096522
v 0.550735 0.539411 -0.139828
v 0.811982 0.539411 -0.042812
vt 0.999071 0.815887
vt 0.998145 0.815887
vt 0.999071 0.737343
vt 0.423946 0.052055
vt 0.502518 0.429384
vt 0.376340 0.028299
vt 0.609064 0.917363
vt 0.557332 0.610004
vt 0.663610 0.974881
vt 0.999072 0.551497
vt 0.998146 0.495815
vt 0.999072 0.495815
vt 0.591552 0.520254
vt 0.677199 0.514806
vt 0.591552 0.514806
vt 0.915764 0.514347
vt 0.973328 0.519795
vt 0.973328 0.514347
vt 0.999074 0.208601
vt 1.000000 0.261405
vt 0.999074 0.261405
vt 0.262868 0.524865
vt 0.485200 0.445260
vt 0.480866 0.524135
vt 0.566139 0.609923
vt 0.709763 0.974459
vt 0.761409 0.533186
vt 0.576089 0.513642
vt 0.761910 0.469874
vt 0.277395 0.656084
vt 0.277395 0.656084
vt 0.277395 0.656084
vt 0.999071 0.443495
vt 0.998145 0.443495
vt 0.999074 0.661535
vt 0.998147 0.606269
vt 0.999073 0.606269
vt 0.527596 0.520254
vt 0.573798 0.504208
vt 0.749904 0.420432
vt 0.723600 0.862502
vt 0.742784 0.876840
vt 0.722151 0.865033
vt 0.575994 0.525723
vt 0.508230 0.562629
vt 0.568852 0.494393
vt 0.464101 0.759660
vt 0.527951 0.576273
vt 0.509629 0.798107
vt 0.267130 0.568614
vt 0.481679 0.532483
vt 0.998145 0.361549
vt 0.999074 0.000000
vt 0.999071 0.361549
vt 0.998145 0.737343
vt 0.761500 0.677190
vt 0.576089 0.569066
vt 0.576011 0.553201
vt 0.301375 0.655298
vt 0.483505 0.540232
vt 0.488214 0.549023
vt 0.276698 0.609225
vt 0.808407 0.514806
vt 0.677199 0.520254
vt 0.808407 0.520254
vt 0.760728 0.602629
vt 0.575864 0.538973
vt 0.999071 0.888484
vt 0.998145 0.888484
vt 0.537354 0.587061
vt 0.558908 0.854643
vt 0.406278 0.726604
vt 0.497432 0.556311
vt 1.000000 0.027777
vt 0.999074 0.000000
vt 1.000000 0.000000
vt 0.546924 0.599028
vt 0.015831 0.985172
vt 0.014871 0.986275
vt 0.010915 0.984439
vt 0.960412 0.540133
vt 0.960412 0.540133
vt 0.960412 0.540133
vt 0.723980 0.368997
vt 0.174800 0.520254
vt 0.031561 0.514806
vt 0.031561 0.520254
vt 0.999071 0.402760
vt 1.000000 0.060622
vt 0.999074 0.106875
vt 0.999074 0.060622
vt 0.347832 0.526883
vt 0.403248 0.521104
vt 0.347832 0.521104
vt 0.999071 0.661535
vt 0.761910 0.760334
vt 0.572791 0.601762
vt 0.752284 0.862400
vt 0.481983 0.990224
vt 0.481983 0.990224
vt 0.744625 0.931686
vt 0.495249 0.430038
vt 0.338246 0.031724
vt 0.519264 0.568937
vt 0.349688 0.693492
vt 0.998146 0.551497
vt 0.560336 0.483604
vt 0.679350 0.312450
vt 1.000000 0.144314
vt 0.999074 0.106875
vt 1.000000 0.106875
vt 0.902608 0.520254
vt 0.902608 0.514806
vt 1.000000 0.178253
vt 1.000000 0.208601
vt 0.999074 0.178253
vt 0.519701 0.123895
vt 0.511602 0.433917
vt 0.548303 0.469395
vt 0.616290 0.237983
vt 0.998145 0.402760
vt 0.285581 0.111500
vt 0.488922 0.435582
vt 0.999074 0.304314
vt 0.998145 0.943163
vt 0.529873 0.447625
vt 0.305086 0.060779
vt 0.500029 0.946582
vt 0.499103 1.000000
vt 0.499103 0.946582
vt 0.915764 0.519795
vt 1.000000 0.208601
vt 0.277395 0.656084
vt 0.328213 0.710325
vt 0.225931 0.618993
vt 0.998148 0.661535
vt 0.527596 0.514806
vt 0.744232 0.874309
vt 0.998148 0.000000
vt 0.999074 0.027777
vt 0.020197 0.971782
vt 0.020640 0.979842
vt 0.015635 0.972027
vt 0.020557 0.980695
vt 0.018948 0.983131
vt 0.013753 0.974252
vt 0.012524 0.975705
vt 0.020370 0.981487
vt 0.019889 0.982385
vt 0.017845 0.983777
vt 0.016718 0.984422
vt 0.010925 0.980010
vt 0.011654 0.976808
vt 0.019171 0.970227
vt 0.019817 0.970793
vt 0.018428 0.970161
vt 0.017501 0.970625
vt 0.010915 0.978775
vt 0.011149 0.977811
vt 0.010938 0.981364
vt 0.010923 0.982818
vt 0.011931 0.988613
vt 0.011252 0.987780
vt 0.012830 0.988621
vt 0.013893 0.987499
vt 0.896614 0.572351
vt 0.960412 0.540133
vt 0.896614 0.572351
vt 0.174800 0.514806
vt 1.000000 0.106875
vt 0.403248 0.526883
vt 0.998145 0.661535
vt 0.752284 0.862400
vt 0.999074 0.144314
vt 0.999074 0.208601
vt 1.000000 0.304314
vt 0.999071 0.943163
vt 0.500029 1.000000
vn 0.3489 -0.0001 -0.9372
vn 0.3095 -0.0000 -0.9509
vn 0.3081 0.0001 -0.9514
vn -0.1797 0.9600 0.2148
vn -0.1874 0.9715 0.1451
vn -0.1909 0.9765 0.0998
vn 0.1680 0.8925 -0.4186
vn 0.1880 0.9345 -0.3021
vn 0.2070 0.9662 -0.1534
vn 0.5148 0.0000 -0.8573
vn -0.3352 0.0000 0.9422
vn -0.3351 0.0000 0.9422
vn 0.8667 0.0000 0.4989
vn -0.6676 0.0000 -0.7445
vn -0.1397 0.9293 -0.3419
vn -0.1364 0.9488 -0.2848
vn -0.1023 0.9360 -0.3367
vn 0.2137 0.9766 0.0246
vn 0.2139 0.9767 0.0152
vn 0.3189 0.8820 0.3468
vn 0.1046 0.9117 0.3972
vn 0.0968 0.9121 0.3983
vn 0.0000 0.9852 -0.1717
vn 0.9857 0.0000 0.1687
vn 0.0000 0.9919 0.1268
vn 0.1303 0.0000 -0.9915
vn 0.6367 -0.0000 -0.7712
vn 0.6289 -0.0001 -0.7775
vn 0.6366 -0.0001 -0.7712
vn -0.3025 0.0000 0.9532
vn 0.0067 0.9160 0.4012
vn 0.0010 0.9162 0.4007
vn -0.9628 -0.0000 0.2704
vn -0.9628 -0.0001 0.2704
vn -0.0000 1.0000 -0.0000
vn -0.3839 0.6197 -0.6846
vn 0.7656 0.4096 -0.4960
vn -0.5177 0.8462 -0.1261
vn -0.0714 0.9321 -0.3552
vn -0.0709 0.9321 -0.3553
vn -0.3714 0.0000 -0.9285
vn -0.4448 -0.0000 -0.8956
vn 0.3086 0.0001 -0.9512
vn 0.1534 0.9075 0.3911
vn 0.1569 0.9091 0.3859
vn 0.1386 0.9073 0.3970
vn 0.1158 0.9277 -0.3549
vn 0.0019 0.9317 -0.3631
vn 0.1344 0.9264 -0.3518
vn -0.0014 0.9318 -0.3630
vn -0.3350 0.0000 0.9422
vn 0.2402 0.8909 0.3855
vn 0.0560 0.9160 0.3973
vn 0.3486 0.0000 -0.9373
vn 0.3494 -0.0000 -0.9370
vn 0.1431 0.8784 -0.4560
vn 0.1746 0.8716 -0.4581
vn 0.2538 0.9133 -0.3185
vn 0.2335 0.9159 -0.3264
vn 0.2616 0.9133 -0.3122
vn 0.3621 -0.0000 0.9322
vn 0.1563 0.8748 -0.4585
vn 0.0000 -1.0000 0.0000
vn 0.1236 0.0771 0.9893
vn 0.0536 -0.5061 -0.8608
vn 0.1214 0.0757 0.9897
vn -0.0776 0.9193 0.3857
vn -0.0832 0.9196 0.3839
vn 0.4600 -0.0000 0.8879
vn 0.4349 0.0000 0.9005
vn -0.1299 0.0000 -0.9915
vn -0.1056 0.0000 0.9944
vn 0.9380 0.0000 -0.3466
vn 0.3876 0.0002 -0.9218
vn 0.3876 0.0000 -0.9218
vn 0.1632 0.9215 0.3525
vn 0.1799 0.9433 0.2791
vn 0.0000 0.0000 1.0000
vn 0.2063 0.9636 0.1703
vn -0.1934 0.9811 -0.0092
vn -0.1935 0.9811 -0.0071
vn 0.7750 0.6224 0.1095
vn 0.1231 0.0000 0.9924
vn 0.2261 0.9166 -0.3296
vn 0.6289 -0.0000 -0.7775
vn -0.1230 0.9212 0.3692
vn -0.1250 0.9214 0.3679
vn 0.3403 -0.0000 0.9403
vn 0.3500 -0.0000 0.9367
vn -0.5363 0.0000 0.8440
vn -0.0198 0.9068 0.4212
vn 0.3642 -0.0000 0.9313
vn 0.3735 0.0000 0.9276
vn 0.3452 -0.0000 0.9385
vn -0.1605 0.9430 0.2914
vn -0.1736 0.9529 0.2487
vn -0.1298 0.9220 0.3648
vn -0.1298 0.9220 0.3649
vn -0.2620 0.0000 -0.9651
vn -0.1902 0.9531 -0.2354
vn -0.1829 0.9713 -0.1518
vn -0.9377 0.0000 -0.3474
vn 0.4869 0.0000 -0.8735
vn -0.1410 0.9303 0.3386
vn -0.1877 0.9759 -0.1113
vn -0.6791 0.0000 0.7341
vn -0.4868 0.8432 -0.2280
vn 0.7712 0.0000 0.6367
vn 0.8735 0.0001 -0.4869
vn 0.0158 -0.9843 0.1759
vn 0.0522 -0.9642 -0.2600
vn -0.0377 0.1297 0.9908
vn 0.3455 -0.0000 0.9384
usemtl Default_OBJ.009
s 1
f 27/1/1 36/2/2 32/3/3
f 57/4/4 87/5/5 52/6/6
f 35/7/7 90/8/8 28/9/9
f 2/10/10 5/11/10 4/12/10
f 44/13/11 67/14/12 13/15/11
f 34/16/13 30/17/13 29/18/13
f 68/19/14 69/20/14 50/21/14
f 11/22/15 85/23/16 16/24/17
f 28/9/9 73/25/18 29/26/19
f 42/27/20 81/28/21 46/29/22
f 17/30/23 18/31/24 20/32/25
f 3/33/26 5/11/26 6/34/26
f 18/35/27 9/36/28 12/37/29
f 13/15/30 45/38/30 44/13/30
f 46/29/22 72/39/31 48/40/32
f 52/41/33 53/42/34 54/43/33
f 60/44/35 76/45/35 74/46/35
f 18/47/36 78/48/37 19/49/38
f 1/50/39 16/24/17 63/51/40
f 10/52/41 68/53/42 11/54/41
f 36/2/2 35/55/43 32/3/3
f 22/56/44 80/57/45 79/58/46
f 4/59/47 26/60/48 75/61/49
f 3/62/50 63/51/40 26/60/48
f 66/63/51 61/64/12 58/65/51
f 41/66/52 79/58/46 59/67/53
f 21/68/54 19/69/55 27/1/1
f 19/49/38 89/70/56 36/71/57
f 12/72/58 70/73/59 76/45/60
f 46/74/61 15/75/61 42/76/61
f 36/71/57 88/77/62 35/7/7
f 21/78/63 27/79/63 24/80/63
f 39/81/64 40/82/65 15/83/66
f 48/40/32 74/46/67 45/84/68
f 23/85/69 33/86/70 34/87/70
f 6/34/71 1/88/71 3/33/71
f 48/89/72 49/90/72 47/91/72
f 28/92/73 30/93/73 31/94/73
f 35/55/74 31/95/75 32/3/74
f 23/96/76 56/97/77 80/57/45
f 68/98/78 64/99/78 11/100/78
f 34/101/79 73/25/18 56/97/77
f 52/6/6 83/102/80 51/103/81
f 12/72/58 77/104/82 18/47/36
f 47/91/83 46/74/83 48/89/83
f 2/105/84 75/61/49 70/73/59
f 12/37/29 7/106/85 2/10/85
f 45/84/68 86/107/86 44/108/87
f 22/109/88 24/110/89 23/111/89
f 57/112/90 66/63/90 58/65/90
f 57/112/90 55/113/90 66/63/90
f 42/27/20 59/67/53 60/44/91
f 41/114/92 40/115/93 38/116/94
f 58/117/95 25/118/96 57/4/4
f 44/108/87 84/119/97 61/120/98
f 8/121/99 11/54/99 1/88/99
f 68/122/100 82/123/101 85/23/16
f 69/20/102 51/124/102 50/21/102
f 21/68/103 20/125/103 19/69/103
f 61/120/98 71/126/104 58/117/95
f 50/127/105 83/102/80 82/123/101
f 57/128/106 54/129/106 55/130/106
f 27/1/1 19/69/55 36/2/2
f 57/4/4 25/118/96 87/5/5
f 35/7/7 88/77/62 90/8/8
f 2/10/10 7/106/10 5/11/10
f 44/13/11 61/64/12 67/14/12
f 34/16/13 33/131/13 30/17/13
f 68/19/14 65/132/14 69/20/14
f 11/22/15 68/122/100 85/23/16
f 28/9/9 90/8/8 73/25/18
f 42/27/20 60/44/91 81/28/21
f 14/133/107 9/134/108 17/30/23
f 18/31/24 19/135/109 20/32/25
f 20/32/25 14/133/107 17/30/23
f 3/33/26 4/12/26 5/11/26
f 18/35/27 17/136/27 9/36/28
f 13/15/30 49/137/30 45/38/30
f 46/29/22 81/28/21 72/39/31
f 52/41/33 51/138/34 53/42/34
f 79/58/35 80/57/35 78/48/35
f 80/57/35 56/97/35 88/77/35
f 89/70/35 80/57/35 88/77/35
f 56/97/35 73/25/35 90/8/35
f 90/8/35 88/77/35 56/97/35
f 59/67/35 79/58/35 77/104/35
f 80/57/35 89/70/35 78/48/35
f 81/28/35 60/44/35 72/39/35
f 60/44/35 59/67/35 77/104/35
f 74/46/35 72/39/35 60/44/35
f 84/119/35 86/107/35 16/24/35
f 86/107/35 74/46/35 16/24/35
f 16/24/35 76/45/35 70/73/35
f 25/118/35 71/126/35 85/23/35
f 71/126/35 84/119/35 16/24/35
f 85/23/35 71/126/35 16/24/35
f 83/102/35 87/5/35 82/123/35
f 87/5/35 25/118/35 82/123/35
f 85/23/35 82/123/35 25/118/35
f 63/51/35 16/24/35 70/73/35
f 75/61/35 26/60/35 70/73/35
f 26/60/35 63/51/35 70/73/35
f 77/104/35 76/45/35 60/44/35
f 74/46/35 76/45/35 16/24/35
f 79/58/35 78/48/35 77/104/35
f 18/47/36 77/104/82 78/48/37
f 1/50/39 11/22/15 16/24/17
f 10/52/41 65/139/42 68/53/42
f 22/56/44 23/96/76 80/57/45
f 4/59/47 3/62/50 26/60/48
f 3/62/50 1/50/39 63/51/40
f 66/63/51 67/14/12 61/64/12
f 41/66/52 22/56/44 79/58/46
f 19/49/38 78/48/37 89/70/56
f 12/72/58 2/105/84 70/73/59
f 46/74/61 43/140/61 15/75/61
f 36/71/57 89/70/56 88/77/62
f 65/141/63 10/142/63 66/143/63
f 10/142/63 8/144/63 7/145/63
f 67/146/63 10/142/63 13/147/63
f 8/144/63 6/148/63 7/145/63
f 6/148/63 5/149/63 7/145/63
f 7/145/63 9/150/63 10/142/63
f 9/150/63 14/151/63 15/152/63
f 49/153/63 9/150/63 15/152/63
f 10/142/63 67/146/63 66/143/63
f 53/154/63 69/155/63 54/156/63
f 69/155/63 65/141/63 55/157/63
f 55/157/63 54/156/63 69/155/63
f 66/143/63 55/157/63 65/141/63
f 49/153/63 13/147/63 10/142/63
f 10/142/63 9/150/63 49/153/63
f 43/158/63 47/159/63 15/152/63
f 47/159/63 49/153/63 15/152/63
f 38/160/63 15/152/63 14/151/63
f 24/80/63 37/161/63 21/78/63
f 37/161/63 38/160/63 14/151/63
f 21/78/63 37/161/63 14/151/63
f 30/162/63 33/163/63 31/164/63
f 33/163/63 24/80/63 32/165/63
f 32/165/63 31/164/63 33/163/63
f 27/79/63 32/165/63 24/80/63
f 40/82/65 41/166/110 42/167/111
f 15/83/66 38/168/112 39/81/64
f 40/82/65 42/167/111 15/83/66
f 48/40/32 72/39/31 74/46/67
f 23/85/69 24/169/69 33/86/70
f 6/34/71 8/121/71 1/88/71
f 48/89/72 45/170/72 49/90/72
f 28/92/73 29/171/73 30/93/73
f 35/55/74 28/172/75 31/95/75
f 23/96/76 34/101/79 56/97/77
f 68/98/78 62/173/78 64/99/78
f 34/101/79 29/26/19 73/25/18
f 52/6/6 87/5/5 83/102/80
f 12/72/58 76/45/60 77/104/82
f 47/91/83 43/140/83 46/74/83
f 2/105/84 4/59/47 75/61/49
f 12/37/29 9/36/28 7/106/85
f 45/84/68 74/46/67 86/107/86
f 22/109/88 37/174/113 24/110/89
f 42/27/20 41/66/52 59/67/53
f 40/115/93 39/175/93 38/116/94
f 38/116/94 37/174/113 22/109/88
f 22/109/88 41/114/92 38/116/94
f 58/117/95 71/126/104 25/118/96
f 44/108/87 86/107/86 84/119/97
f 8/121/99 10/52/99 11/54/99
f 68/122/100 50/127/105 82/123/101
f 69/20/102 53/176/102 51/124/102
f 21/68/103 14/177/103 20/125/103
f 61/120/98 84/119/97 71/126/104
f 50/127/105 51/103/81 83/102/80
f 57/128/106 52/178/106 54/129/106
