# Blender v3.0.0 OBJ File: 'terrain_gentle_hill_135.blend'
# www.blender.org
mtllib terrain_gentle_hill_135.mtl
o terrain_Gentle_Hill_#135.001_Cube.001
v -0.253841 -0.112895 1.035285
v -1.155273 -0.112895 1.022146
v -1.330490 -0.112895 0.566640
v -2.031048 -0.105304 0.471990
v -2.829516 -0.112895 0.418407
v -3.350081 -0.105304 0.283325
v -3.449870 -0.105304 0.001771
v 3.935663 -0.112895 -0.148617
v 3.508675 -0.112895 -0.030394
v 2.934046 -0.112895 0.073230
v 2.324556 -0.112895 0.313006
v 1.514380 -0.112895 0.983232
v 0.647590 -0.112895 1.022146
v -4.417290 -0.112300 -0.539518
v 4.582709 -0.112895 -0.539518
v 1.571963 0.280806 -0.366543
v 1.433960 0.280806 -0.244361
v 1.959412 0.280806 -0.539518
v 0.543514 0.280806 -0.136211
v 0.886543 0.280806 -0.163346
v 0.330029 0.280806 0.008452
v -0.164757 0.280806 -0.128738
v 1.187209 0.280806 -0.199864
v -0.924046 0.280806 -0.151089
v -1.811016 0.280806 -0.265801
v -1.854343 0.280806 -0.388047
v -1.817175 0.280806 -0.539518
v -1.567741 0.280806 -0.214742
v -1.238312 0.280806 -0.183885
v -0.551840 0.280806 -0.134380
vt 0.140164 0.409772
vt 0.144038 0.376388
vt 0.161722 0.333731
vt 0.137091 0.569557
vt 0.000000 0.536500
vt 0.136492 0.526550
vt 0.049721 0.656359
vt 0.138864 0.610917
vt 0.142343 0.645848
vt 0.145617 0.682463
vt 0.060014 0.734226
vt 0.151034 0.709517
vt 0.065448 0.822974
vt 0.164004 0.714395
vt 0.080030 0.880866
vt 0.180074 0.710345
vt 0.109902 0.892099
vt 0.125607 0.071680
vt 0.180074 0.290777
vt 0.113064 0.119055
vt 0.148759 0.348998
vt 0.102070 0.182840
vt 0.076631 0.250427
vt 0.005523 0.340084
vt 0.137285 0.447867
vt 0.011489 0.983665
vt 0.011471 0.982422
vt 0.012117 0.980938
vt 0.001394 0.436361
vt 0.121937 0.471509
vt 0.355052 0.291481
vt 0.398778 1.000000
vt 0.355080 0.711101
vt 0.001394 0.636654
vt 0.167100 0.999873
vt 0.167080 0.000000
vt 0.013641 0.989089
vt 0.013103 0.988197
vt 0.012940 0.987609
vt 0.012797 0.986817
vt 0.012895 0.978016
vt 0.013641 0.976683
vt 0.012321 0.978872
vt 0.012507 0.978154
vt 0.012247 0.979972
vt 0.012466 0.985976
vt 0.011542 0.984860
vt 0.011489 0.981179
vt 0.398778 0.000000
vn 0.0000 1.0000 0.0000
vn -0.0047 0.9474 0.3201
vn -0.0212 0.8816 0.4716
vn -0.0479 0.8869 0.4594
vn -0.0437 0.8832 0.4670
vn -0.0840 0.9126 0.4001
vn -0.2167 0.9732 0.0768
vn -0.2488 0.9666 -0.0611
vn 0.1308 0.9472 0.2929
vn 0.1646 0.9687 0.1860
vn 0.0998 0.8268 0.5535
vn 0.0627 0.8540 0.5165
vn 0.0247 0.9496 0.3125
vn 0.0000 -1.0000 0.0000
vn 0.2025 0.9326 0.2988
vn -0.0868 0.9457 0.3132
vn 0.0000 0.0000 -1.0000
vn -0.3484 0.9277 0.1340
vn -0.0524 0.8870 0.4588
vn -0.0399 0.8822 0.4691
vn -0.0889 0.9148 0.3940
vn -0.1449 0.9582 0.2465
vn 0.1441 0.9604 0.2386
vn 0.1132 0.9056 0.4087
vn 0.1476 0.9151 0.3752
vn 0.1869 0.9560 0.2259
vn -0.0134 -0.9992 0.0369
vn -0.0001 -1.0000 -0.0002
vn -0.0161 -0.9999 0.0057
vn 0.0119 -0.9993 -0.0359
vn -0.0000 -1.0000 -0.0004
vn -0.0183 -0.9983 0.0551
vn 0.0144 0.9471 0.3206
vn 0.0053 0.9327 0.3606
usemtl Material.001
s off
f 20/1/1 23/2/1 16/3/1
f 30/4/2 1/5/2 22/6/2
f 3/7/3 30/4/3 24/8/3
f 29/9/4 3/7/4 24/8/4
f 28/10/5 4/11/5 29/9/5
f 25/12/6 5/13/6 28/10/6
f 26/14/7 6/15/7 25/12/7
f 27/16/8 7/17/8 26/14/8
f 8/18/9 18/19/9 16/3/9
f 9/20/10 16/3/10 17/21/10
f 10/22/11 17/21/11 23/2/11
f 11/23/12 23/2/12 20/1/12
f 12/24/13 20/1/13 19/25/13
f 13/26/14 1/27/14 3/28/14
f 13/29/15 19/25/15 21/30/15
f 1/5/16 21/30/16 22/6/16
f 18/31/17 14/32/17 27/33/17
f 16/3/1 18/19/1 19/25/1
f 18/19/1 27/16/1 22/6/1
f 27/16/1 26/14/1 28/10/1
f 26/14/1 25/12/1 28/10/1
f 28/10/1 29/9/1 27/16/1
f 29/9/1 24/8/1 27/16/1
f 24/8/1 30/4/1 27/16/1
f 22/6/1 21/30/1 19/25/1
f 30/4/1 22/6/1 27/16/1
f 17/21/1 16/3/1 23/2/1
f 18/19/1 22/6/1 19/25/1
f 20/1/1 16/3/1 19/25/1
f 30/4/2 2/34/2 1/5/2
f 3/7/18 2/34/18 30/4/18
f 29/9/19 4/11/19 3/7/19
f 28/10/20 5/13/20 4/11/20
f 25/12/21 6/15/21 5/13/21
f 26/14/7 7/17/7 6/15/7
f 27/16/22 14/35/22 7/17/22
f 8/18/23 15/36/23 18/19/23
f 9/20/24 8/18/24 16/3/24
f 10/22/11 9/20/11 17/21/11
f 11/23/25 10/22/25 23/2/25
f 12/24/26 11/23/26 20/1/26
f 15/37/14 8/38/14 9/39/14
f 15/37/14 9/39/14 10/40/14
f 7/41/27 14/42/27 3/28/27
f 14/42/28 15/37/28 10/40/28
f 5/43/29 6/44/29 7/41/29
f 4/45/30 5/43/30 7/41/30
f 14/42/31 10/40/31 3/28/31
f 11/46/14 12/47/14 13/26/14
f 10/40/14 11/46/14 3/28/14
f 3/28/32 4/45/32 7/41/32
f 1/27/14 2/48/14 3/28/14
f 11/46/14 13/26/14 3/28/14
f 13/29/33 12/24/33 19/25/33
f 1/5/34 13/29/34 21/30/34
f 18/31/17 15/49/17 14/32/17
