# Blender v3.0.0 OBJ File: 'terrain_woods_195.blend'
# www.blender.org
mtllib terrain_woods_195.mtl
o terrain_Woods_#195.001_terrain_Woods_#195_terrain_Woods_#195_terrain_Woods_#195_te
v 6.255416 0.019989 -1.357332
v 4.175986 0.019988 -2.140600
v -6.220986 0.019955 -2.140385
v -6.220954 0.019947 -1.357074
v -4.141589 0.019961 -2.140427
v -2.062196 0.019968 -2.140471
v 2.096592 0.019983 -2.140556
v 0.017198 0.019974 -2.140513
v -5.006144 0.019920 1.589687
v -5.419891 0.019920 1.371192
v -6.284517 0.019924 0.776168
v -6.220886 0.019931 0.209546
v -6.220921 0.019939 -0.573765
v -4.247505 0.019920 1.980421
v -2.061998 0.019919 2.559386
v 0.017396 0.019926 2.559344
v 4.011728 0.019945 2.051292
v 2.335476 0.019936 2.410102
v 4.802168 0.019950 1.713815
v 5.741008 0.019961 1.282155
v 6.181236 0.019966 0.587644
v 6.255480 0.019973 0.209286
v 6.255446 0.019980 -0.574024
v 4.175984 -0.019918 -2.140600
v 6.255412 -0.019919 -1.357332
v -6.220989 -0.019952 -2.140385
v -6.220959 -0.019961 -1.357075
v -4.141593 -0.019945 -2.140427
v -2.062200 -0.019937 -2.140471
v 2.096589 -0.019923 -2.140556
v -5.006146 -0.019986 1.589687
v -4.247507 -0.019987 1.980421
v -5.419894 -0.019987 1.371192
v -6.284518 -0.019983 0.776168
v -6.220922 -0.019968 -0.573765
v -6.220887 -0.019976 0.209546
v -2.062002 -0.019987 2.559386
v 0.017392 -0.019980 2.559344
v 2.335473 -0.019970 2.410102
v 4.011726 -0.019962 2.051292
v 4.802164 -0.019957 1.713815
v 5.741006 -0.019946 1.282155
v 6.181234 -0.019941 0.587644
v 6.255479 -0.019934 0.209286
v 6.255442 -0.019926 -0.574024
v 6.255378 -0.019910 -2.140642
v 6.255382 0.019996 -2.140642
v 0.017195 -0.019932 -2.140513
vt 0.644010 0.079462
vt 0.711319 0.080291
vt 0.710485 0.147943
vt 0.022682 0.992535
vt 0.027190 0.992535
vt 0.027190 0.965486
vt 0.000000 0.166667
vt 0.000000 0.333333
vt 0.000000 0.333333
vt 0.833333 0.000000
vt 0.666667 0.000000
vt 0.666667 0.000000
vt 1.000000 0.833333
vt 1.000000 0.666667
vt 1.000000 0.666667
vt 0.000000 0.833333
vt 0.000000 1.000000
vt 0.000000 1.000000
vt 0.000000 0.666667
vt 0.000000 0.833333
vt 0.000000 0.500000
vt 0.000000 0.500000
vt 0.000000 0.000000
vt 0.000000 0.166667
vt 0.166667 0.000000
vt 0.000000 0.000000
vt 0.333333 0.000000
vt 0.166667 0.000000
vt 0.500000 0.000000
vt 0.333333 0.000000
vt 0.500000 0.000000
vt 1.000000 0.000000
vt 0.833333 0.000000
vt 1.000000 0.166667
vt 1.000000 0.000000
vt 1.000000 0.333333
vt 1.000000 0.166667
vt 1.000000 0.500000
vt 1.000000 0.333333
vt 1.000000 0.500000
vt 1.000000 1.000000
vt 1.000000 0.833333
vt 0.166667 1.000000
vt 0.307467 0.075316
vt 0.374776 0.076145
vt 0.306634 0.142968
vt 0.442085 0.076974
vt 0.375636 0.438250
vt 0.305800 0.210620
vt 0.350409 0.408790
vt 0.304966 0.278272
vt 0.509393 0.077803
vt 0.576702 0.078632
vt 0.571699 0.484544
vt 0.643058 0.435408
vt 0.668030 0.401963
vt 0.429514 0.469905
vt 0.306967 0.310979
vt 0.320478 0.371136
vt 0.504390 0.483715
vt 0.710275 0.332209
vt 0.681655 0.383256
vt 0.708817 0.283246
vt 0.709651 0.215594
vt 0.022682 0.965486
vt 0.018174 0.965486
vt 0.013666 0.965486
vt 0.018174 0.992535
vt 0.013666 0.969994
vt 0.013666 0.974503
vt 0.013666 0.979011
vt 0.013666 0.983519
vt 0.036206 0.965486
vt 0.031698 0.965486
vt 0.031698 0.992535
vt 0.040714 0.969994
vt 0.040714 0.965486
vt 0.040714 0.974503
vt 0.036206 0.992535
vt 0.040714 0.979011
vt 0.040714 0.992535
vt 0.040714 0.988027
vt 0.040714 0.983519
vt 0.013666 0.988027
vt 0.013666 0.992535
vt 0.000000 0.666667
vt 1.000000 1.000000
vt 0.333333 1.000000
vt 0.333333 1.000000
vt 0.500000 1.000000
vt 0.666667 1.000000
vt 0.666667 1.000000
vt 0.833333 1.000000
vt 0.833333 1.000000
vt 0.500000 1.000000
vt 0.166667 1.000000
vn -0.0000 1.0000 0.0000
vn 0.0000 -1.0000 -0.0000
vn -0.5669 0.0000 0.8238
vn 0.2093 -0.0000 0.9778
vn 1.0000 -0.0001 -0.0000
vn -1.0000 0.0001 0.0000
vn -1.0000 0.0000 0.0000
vn -0.9938 0.0000 -0.1116
vn -0.4624 0.0000 0.8867
vn -0.4670 0.0000 0.8843
vn -0.4579 0.0000 0.8890
vn -0.2561 0.0000 0.9667
vn 0.0000 -0.0000 1.0000
vn 0.0642 -0.0000 0.9979
vn 0.3927 -0.0000 0.9197
vn 0.4177 -0.0000 0.9086
vn 0.8446 -0.0000 0.5354
vn 0.9813 -0.0000 0.1926
vn 0.9813 -0.0001 0.1926
vn 1.0000 -0.0000 -0.0000
vn -0.0000 0.0000 -1.0000
usemtl None.010
s 1
f 5/1/1 3/2/1 4/3/1
f 29/4/2 48/5/2 38/6/2
f 33/7/3 11/8/3 34/9/3
f 40/10/4 18/11/4 39/12/4
f 25/13/5 23/14/5 45/15/5
f 27/16/6 3/17/6 26/18/6
f 35/19/7 4/20/6 27/16/6
f 12/21/6 35/19/7 36/22/6
f 11/8/8 36/22/8 34/9/8
f 31/23/9 10/24/10 33/7/10
f 32/25/11 9/26/9 31/23/9
f 37/27/12 14/28/12 32/25/12
f 38/29/13 15/30/13 37/27/13
f 39/12/14 16/31/14 38/29/14
f 41/32/15 17/33/15 40/10/15
f 42/34/16 19/35/16 41/32/16
f 43/36/17 20/37/17 42/34/17
f 44/38/18 21/39/19 43/36/19
f 45/15/5 22/40/20 44/38/20
f 46/41/5 1/42/5 25/13/5
f 26/18/21 3/17/21 5/43/21
f 47/44/1 2/45/1 1/46/1
f 2/45/1 7/47/1 17/48/1
f 23/49/1 19/50/1 22/51/1
f 8/52/1 6/53/1 15/54/1
f 6/53/1 5/1/1 14/55/1
f 14/55/1 5/1/1 9/56/1
f 19/50/1 23/49/1 2/45/1
f 7/47/1 8/52/1 18/57/1
f 23/49/1 1/46/1 2/45/1
f 21/58/1 22/51/1 19/50/1
f 19/50/1 20/59/1 21/58/1
f 18/57/1 17/48/1 7/47/1
f 17/48/1 19/50/1 2/45/1
f 15/54/1 16/60/1 8/52/1
f 16/60/1 18/57/1 8/52/1
f 14/55/1 15/54/1 6/53/1
f 11/61/1 10/62/1 12/63/1
f 10/62/1 9/56/1 5/1/1
f 12/63/1 10/62/1 13/64/1
f 4/3/1 13/64/1 5/1/1
f 5/1/1 13/64/1 10/62/1
f 37/65/2 32/66/2 29/4/2
f 32/66/2 31/67/2 28/68/2
f 31/67/2 33/69/2 28/68/2
f 33/69/2 34/70/2 36/71/2
f 33/69/2 36/71/2 35/72/2
f 38/6/2 37/65/2 29/4/2
f 32/66/2 28/68/2 29/4/2
f 40/73/2 39/74/2 30/75/2
f 39/74/2 38/6/2 48/5/2
f 30/75/2 39/74/2 48/5/2
f 42/76/2 41/77/2 43/78/2
f 41/77/2 40/73/2 24/79/2
f 44/80/2 43/78/2 41/77/2
f 46/81/2 25/82/2 24/79/2
f 25/82/2 45/83/2 24/79/2
f 45/83/2 44/80/2 41/77/2
f 41/77/2 24/79/2 45/83/2
f 33/69/2 35/72/2 28/68/2
f 35/72/2 27/84/2 28/68/2
f 27/84/2 26/85/2 28/68/2
f 40/73/2 30/75/2 24/79/2
f 33/7/3 10/24/3 11/8/3
f 40/10/4 17/33/4 18/11/4
f 25/13/5 1/42/5 23/14/5
f 27/16/6 4/20/6 3/17/6
f 35/19/7 13/86/7 4/20/6
f 12/21/6 13/86/7 35/19/7
f 11/8/8 12/21/8 36/22/8
f 31/23/9 9/26/9 10/24/10
f 32/25/11 14/28/11 9/26/9
f 37/27/12 15/30/12 14/28/12
f 38/29/13 16/31/13 15/30/13
f 39/12/14 18/11/14 16/31/14
f 41/32/15 19/35/15 17/33/15
f 42/34/16 20/37/16 19/35/16
f 43/36/17 21/39/17 20/37/17
f 44/38/18 22/40/18 21/39/19
f 45/15/5 23/14/5 22/40/20
f 46/41/5 47/87/5 1/42/5
f 5/43/21 6/88/21 29/89/21
f 6/88/21 8/90/21 29/89/21
f 8/90/21 7/91/21 30/92/21
f 7/91/21 2/93/21 30/92/21
f 2/93/21 47/87/21 46/41/21
f 46/41/21 24/94/21 2/93/21
f 24/94/21 30/92/21 2/93/21
f 30/92/21 48/95/21 8/90/21
f 48/95/21 29/89/21 8/90/21
f 29/89/21 28/96/21 5/43/21
f 28/96/21 26/18/21 5/43/21
