# Blender v3.4.1 OBJ File: 'tile_40_20.blend'
# www.blender.org
mtllib tile_40_20.mtl
o Box001.008
v -0.787400 -0.059055 -0.392500
v -0.787400 0.059055 -0.392500
v 0.787400 0.059055 -0.392500
v 0.787400 -0.059055 -0.392500
v -0.787400 -0.059055 0.392500
v 0.787400 -0.059055 0.392500
v 0.787400 0.059055 0.392500
v -0.787400 0.059055 0.392500
vt 0.001947 0.999582
vt 0.000102 0.999582
vt 0.000236 0.996568
vt 0.001902 0.996568
vt 0.000088 0.998327
vt 0.000482 0.998401
vt 0.000524 0.999819
vt 0.000077 0.999855
vt 0.000049 0.998805
vt 0.000410 0.998824
vt 0.000413 0.999973
vt 0.000069 1.000363
vt -0.000017 0.999978
vt -0.000007 0.998736
vt 0.000463 0.998581
vt 0.000447 0.999814
vt -0.002393 0.003065
vt 1.000048 0.005835
vt 0.998483 1.004426
vt -0.002090 1.007868
vt -0.000029 0.998428
vt 0.000372 0.998444
vt 0.000448 0.999790
vt -0.000043 0.999872
vn 0.0000 -1.0000 -0.0000
vn 0.0000 0.0000 -1.0000
vn 1.0000 0.0000 0.0000
vn 0.0000 0.0000 1.0000
vn 0.0000 1.0000 0.0000
vn -1.0000 0.0000 0.0000
usemtl 02___Default.008
s 1
f 1/1/1 4/2/1 6/3/1 5/4/1
f 1/5/2 2/6/2 3/7/2 4/8/2
f 4/9/3 3/10/3 7/11/3 6/12/3
f 5/13/4 6/14/4 7/15/4 8/16/4
f 3/17/5 2/18/5 8/19/5 7/20/5
f 2/21/6 1/22/6 5/23/6 8/24/6
