<?xml version="1.0" encoding="UTF-8"?>
<svg width="470.62" height="648.75" version="1.1" viewBox="0 0 470.625 648.75" xmlns="http://www.w3.org/2000/svg">
 <path d="m90 647.65c-5.2426-1.48-5.84-2.9373-0.9375-2.2869 2.3203 0.30783 6.4414 0.82581 9.1579 1.151 2.7165 0.32525 5.1672 0.96035 5.446 1.4113 0.67793 1.0969-9.5343 0.89109-13.666-0.27546zm75.938 0.25824c0-1.1415 2.4068-1.9753 5.7017-1.9753 3.6308 0 3.5013 1.4875-0.19387 2.2266-4.0164 0.80329-5.5078 0.73525-5.5078-0.25126zm12.739-4.6537c-0.81469-1.3182 0.43849-4.0228 1.6733-3.6112 1.3877 0.46257 1.3647 3.6868-0.0296 4.1516-0.59728 0.1991-1.3369-0.0441-1.6437-0.54039zm-118.21-5.3174c-2.0625-0.74303-3.8555-1.3573-3.9844-1.3651-0.12891-8e-3 -0.23438-0.48873-0.23438-1.0688 0-1.4768 4.7225-0.40522 8.5807 1.947 3.8155 2.3262 1.4702 2.588-4.3619 0.48689zm65.625-4.8211c-8.7525-1.3027-16.372-5.1216-14.564-7.2996 1.3366-1.6104 5.1922-2.0302 4.2215-0.45959-0.38488 0.62274 0.37239 0.88196 2.054 0.70313 2.032-0.2161 2.6042 0.0803 2.4129 1.2499-0.32442 1.9832 4.0712 2.9175 15.251 3.2416 10.074 0.29204 9.7257 0.23769 7.9688 1.2436-1.735 0.99334-13.516 1.8906-17.344 1.321zm37.969-0.0464c-1.2891-0.23125-2.7656-0.86155-3.2812-1.4007-1.2614-1.3189 6.0432-0.22407 7.3722 1.1049 1.031 1.031 0.30171 1.0838-4.091 0.29573zm-17.344-2.1367c-0.36168-0.58522 1.5343-0.9375 5.0456-0.9375 3.0938 0 5.8857 0.42187 6.2044 0.9375 0.36168 0.58522-1.5343 0.9375-5.0456 0.9375-3.0938 0-5.8857-0.42188-6.2044-0.9375zm-104.18-1.5737c-8.0858-2.7536-12.504-9.4075-10.698-16.113 1.536-5.7042 2.5367-4.7268 2.4521 2.3951l-0.07447 6.271 5.625 3.1682c8.5571 4.8197 9.7242 6.6724 2.6953 4.2787zm42.773-8.4046c-5.4379-0.90577-6.5625-1.3849-6.5625-2.7961 0-1.0809 0.44946-1.2816 1.6406-0.73255 0.90234 0.41589 4.5116 0.91843 8.0206 1.1168 4.3098 0.2436 6.2636 0.71523 6.0213 1.4535-0.37347 1.1381-5.075 1.6321-9.12 0.95838zm-2.8125-5.7673c0-2.0899 38.313-8.8671 42.293-7.4812 0.71547 0.24913-1.4413 0.759-4.7929 1.133s-7.6866 1.0876-9.6334 1.5858-8.2749 1.6899-14.062 2.6484c-5.7876 0.95848-11.261 2.0391-12.164 2.4015-0.91392 0.36697-1.6406 0.23968-1.6406-0.28738zm46.875-8.1839c0-0.99609 5.4056-2.5479 14.943-4.2898 11.397-2.0815 13.442-3.4862 15.092-10.366 1.5147-6.3141 2.2732-5.0508 0.91001 1.5156-1.5216 7.3295-30.946 19.824-30.946 13.141zm-91.322-3.121c-0.57952-0.93769 3.6835-3.0876 4.5011-2.27 0.78129 0.78129-1.2841 3.0704-2.7703 3.0704-0.67987 0-1.4587-0.36019-1.7308-0.80041zm17.259-2.9728c0-1.4302 4.6455-2.9276 7.916-2.5516l2.8652 0.32939-3.4855 1.5915c-3.9124 1.7864-7.2957 2.0789-7.2957 0.63077zm13.322-2.9126c0.86753-2.6026 26.053-3.9056 26.053-1.3479 0 0.75455-1.9662 1.178-5.8594 1.262-3.2227 0.0695-9.1802 0.40441-13.239 0.74425-6.0042 0.50271-7.3004 0.38002-6.9543-0.65829zm30.975 0.3992c-3.049-0.58727-2.5936-2.1509 0.62644-2.1509 3.4911 0 5.8383 0.89548 5.1722 1.9732-0.52881 0.85563-2.0386 0.90188-5.7987 0.17765zm18.736-1.4047c0.20695-0.62084 1.8241-1.5005 3.5938-1.9549 4.2875-1.1008 6.4164-3.1223 5.7942-5.5017-0.39169-1.4978-0.11359-1.8427 1.2736-1.5793 4.2572 0.8083 2.7465 5.3295-2.6148 7.8254-5.4013 2.5145-8.644 3.0023-8.0467 1.2104zm-65.845-1.589c0-1.2898 2.1389-2.7058 5.1615-3.417 2.4607-0.57897 2.6337-0.49391 1.401 0.68912-1.8669 1.7917-6.5625 3.7435-6.5625 2.7279zm102.19-23.499c0-0.49748 0.84375-1.3561 1.875-1.908 1.0964-0.5868 1.875-1.963 1.875-3.3142 0-1.2709 0.42187-2.3108 0.9375-2.3108 1.4651 0 1.1116 1.8407-1.014 5.28-1.8777 3.0382-3.6735 4.1396-3.6735 2.253zm-63.275-1.8972c-0.32844-0.53143 0.04787-0.68859 0.88217-0.36844 1.6241 0.62324 1.9213 1.2952 0.57277 1.2952-0.48519 0-1.1399-0.41705-1.4549-0.92677zm-44.504-1.3082c1.7958-1.6972 21.804-2.8095 21.263-1.182-0.51576 1.5507-4.6718 2.2424-14.231 2.3685-7.1906 0.0949-8.2058-0.0764-7.0312-1.1865zm-15.971-0.93639c-12.947-2.3722-20.48-12.859-13.768-19.165 2.2272-2.0923 4.7288-2.937 2.7052-0.91342-5.2717 5.2717 0.54306 13.822 11.982 17.619 5.8053 1.9269 9.4849 4.2848 5.7213 3.6661-0.30078-0.0494-3.2891-0.59233-6.6406-1.2064zm43.594-1.5162c-0.31867-0.51563 0.28924-0.9375 1.3509-0.9375 1.0617 0 1.9303 0.42187 1.9303 0.9375 0 0.51562-0.60791 0.9375-1.3509 0.9375-0.74301 0-1.6117-0.42188-1.9303-0.9375zm-5.625-0.9375c-1.6493-0.70871-1.5579-0.81365 0.75845-0.8716 1.5302-0.0383 2.3907 0.32686 2.054 0.8716-0.31867 0.51562-0.65998 0.90785-0.75845 0.8716-0.09848-0.0362-1.0228-0.42845-2.054-0.8716zm52.031 0.10163c0-0.92863 4.6472-2.3294 5.3608-1.6159 0.2486 0.24861 0.17392 0.90195-0.16595 1.4519-0.74558 1.2064-5.1948 1.3468-5.1948 0.164zm-86.062-2.5375c-2.1355-1.5568-0.42449-3.4708 2.4996-2.7962 1.3575 0.3132 6.4199 0.95073 11.25 1.4167 4.8299 0.46599 9.2338 1.2995 9.7866 1.8523 1.3856 1.3856-21.621 0.9234-23.536-0.47284zm121.97-0.76407c-0.41234-0.72874-2.6361-2.3108-4.9417-3.5156-4.5938-2.4006-5.3576-3.9073-2.2081-4.3558 3.9044-0.55603 9.6814 3.2646 9.6814 6.403 0 2.9512-1.2743 3.6904-2.5315 1.4685zm-75.358-0.95145c-4.2297-3.6938 0.39783-5.8488 8.1971-3.8173 2.9694 0.77344 8.158 1.4127 11.53 1.4206 6.5073 0.0153 10.205 1.1898 6.9582 2.2103-1.3105 0.41191-26.228 0.58598-26.685 0.18642zm-7.6573-7.1737c-2.2258-1.2964-2.07-2.7374 0.29601-2.7374 2.3865 0 5.5634 1.6249 5.5634 2.8455 0 1.182-3.7637 1.1126-5.8594-0.10807zm61.172 0.02728c-2.3203-0.41287-6.2227-0.78194-8.6719-0.82017-2.4492-0.0382-4.4531-0.4914-4.4531-1.007 0-1.2581 12.716-1.2065 18.695 0.0758 9.6622 2.0722 4.8086 3.5981-5.5704 1.7513zm-31.188-1.5627c-5.1364-0.77641-1.3579-2.1395 5.9306-2.1395 5.9925 0 7.4447 0.27431 7.4447 1.4062 0 1.4079-6.5398 1.7664-13.375 0.73323zm-14.678-3.6291c-4.1507-3.4926-2.9621-7.9296 2.1044-7.8556 1.946 0.0284 1.9611 0.0914 0.31941 1.3355-2.4178 1.8321-1.6302 4.2202 2.0402 6.1863 4.4155 2.3653 4.6043 2.7609 1.3172 2.7609-1.7487 0-4.04-0.96195-5.7812-2.4271zm-21.869-0.82563c-1.8997-2.6126-2.1359-6.1896-0.51562-7.8098 1.7738-1.7738 2.2926-1.3504 2.3548 1.9219 0.03185 1.6758 0.36579 4.207 0.74208 5.625 0.83992 3.165-0.38066 3.2894-2.5813 0.26295zm-59.752-12.181c-1.5329-4.0318 3.52-13.817 8.5156-16.49 2.319-1.2411 2.2563-0.94903-0.62527 2.9136-3.2769 4.3926-5.0911 8.9248-5.0911 12.718 0 3.7017-1.5387 4.1734-2.7992 0.85809zm8.4242 0.8922c0-2.4501 3.8971-9.8302 5.9503-11.268 4.8963-3.4295 4.6297 0.25726-0.32527 4.4986-2.6268 2.2484-3.75 3.9551-3.75 5.6981 0 1.3685-0.42188 2.4882-0.9375 2.4882s-0.9375-0.63741-0.9375-1.4165zm31.382-2.3804c-1.5832-3.0616-1.1838-5.8899 1.2179-8.625 2.2023-2.508 2.9871-1.9646 2.0221 1.4001-1.2384 4.318-1.1109 5.2107 1.0029 7.0206 2.4982 2.139 2.364 3.0637-0.44468 3.0637-1.6377 0-2.7544-0.84068-3.7983-2.8594zm22.993 1.0655c0-1.3163 7.4038-6.4602 11.171-7.7614l3.3599-1.1605-3.2812-0.54084c-4.0738-0.67147-11.398 0.91349-16.59 3.5899-2.1633 1.1153-4.1394 1.6944-4.3913 1.2869-1.6471-2.6651 7.2108-6.77 16.052-7.4387l7.0134-0.53042-4.5578-1.6951c-2.5068-0.93232-5.3477-2.1693-6.3132-2.7488-4.4923-2.6967-11.41-2.2564-15.967 1.0163-4.8415 3.4769-7.1585 3.0226-2.8662-0.56197 7.1449-5.9669 10.546-6.1915 23.87-1.5761 7.5722 2.623 23.533 3.4654 34.546 1.8233 3.8944-0.58069 4.9261-0.48135 4.6174 0.44465-0.53694 1.6108-4.9612 2.4788-16.517 3.2407-6.5484 0.43173-9.2058 0.91446-8.1834 1.4866 1.9491 1.0908 1.0185 2.5984-1.6277 2.6368-1.9072 0.0277-1.9368 0.11886-0.41342 1.2752 2.4961 1.8948 1.9713 2.7094-1.4062 2.1824-3.3175-0.51763-13.342 2.381-15.777 4.5619-1.7022 1.5247-2.7387 1.7023-2.7387 0.46933zm-18.75-5.1109c0-1.4016 3.3381-6.0434 5.603-7.7911 2.2231-1.7155 2.9249 1.5523 0.81888 3.8128-0.9421 1.0112-1.9571 2.608-2.2556 3.5483-0.62705 1.9756-4.1663 2.3408-4.1663 0.42991zm-24.471-4.1108c1.2346-2.2329 16.034-13.287 16.034-11.977 0 0.21386-3.3777 3.3652-7.506 7.003-7.4477 6.5628-10.339 8.249-8.5279 4.9735zm93.378-7.7344c0.31868-0.51563 1.6341-0.9375 2.9232-0.9375 1.3238 0 2.0916 0.40799 1.7644 0.9375-0.31868 0.51562-1.6341 0.9375-2.9232 0.9375-1.3238 0-2.0916-0.40799-1.7644-0.9375zm-30.234-0.62089c-2.9355-1.1845-0.63653-2.1916 5.0028-2.1916 6.2373 0 19.307-3.0853 21.95-5.1816 0.77344-0.61343 2.8554-1.6022 4.6266-2.1973 1.7712-0.59509 3.9886-1.7772 4.9276-2.627 0.93898-0.84976 1.9876-1.2647 2.3302-0.92208 1.1572 1.1572-3.7004 5.2457-8.0413 6.768-2.3715 0.83167-5.7884 2.1552-7.5931 2.9411-7.5964 3.3082-19.222 5.017-23.203 3.4106zm-70.547-2.0913c0-1.0398 2.8841-2.2162 3.6227-1.4776 0.29799 0.298-0.07881 0.93428-0.83731 1.414-1.753 1.1086-2.7854 1.1322-2.7854 0.0637zm10.476-1.6651c0.31254-1.6229 7.0046-6.6882 12.024-9.1009 4.3724-2.1018 9.4573-5.502 8.9647-5.9946-0.26967-0.26967-3.1871 0.83731-6.4832 2.46-3.2961 1.6226-6.4685 2.9503-7.0497 2.9503-0.58126 0-1.0568 0.40409-1.0568 0.89798 0 1.1182-7.6563 5.6767-9.4574 5.6308-1.8276-0.0465 3.4276-4.3726 8.0511-6.6278 2.0625-1.006 5.4375-2.8629 7.5-4.1264 2.0625-1.2636 9.0234-4.4296 15.469-7.0356 14.796-5.9826 14.441-5.7697 15.007-8.9841 0.52042-2.953 3.7428-4.4702 3.7428-1.7622 0 5.6124-6.4612 11.695-12.423 11.695-2.4649 0-3.4146 0.45511-3.7678 1.8055-0.45786 1.7509-7.2909 5.8758-13.644 8.2364-3.9098 1.4528-8.6203 5.2685-10.547 8.5436-1.8024 3.0636-6.8647 4.1932-6.3292 1.4122zm13.899-0.67865c0-0.20265 0.65472-0.61968 1.4549-0.92676 0.8343-0.32015 1.2106-0.16299 0.88217 0.36844-0.55055 0.89083-2.3371 1.3176-2.3371 0.55832zm85.312-1.0137c0-1.539 5.4469-4.7344 6.4152-3.7634 0.67961 0.68141-4.1181 5.1456-5.53 5.1456-0.48688 0-0.88523-0.62198-0.88523-1.3822zm-75.537-5.6692c1.9266-1.4576 3.0032-1.2259 1.982 0.42651-0.33988 0.54993-1.3313 0.98645-2.2033 0.97006-1.3919-0.0262-1.3649-0.1966 0.22126-1.3966zm103.66-1.8915c0-0.27795 2.9726-1.9299 6.6057-3.671 8.1959-3.9278 9.3318-4.8598 9.3318-7.6571 0-2.7592-0.471-2.7465-5.1562 0.13925-2.0625 1.2703-4.3556 2.3118-5.0958 2.3145-0.7402 3e-3 -2.2506 0.85475-3.3563 1.8936-2.3008 2.1615-11.705 5.7214-13 4.9211-1.1098-0.68592 2.009-2.9751 5.0457-3.7035 4.4311-1.0628 17.164-8.2312 22.539-12.689 4.6538-3.8596 6.7874-15.126 4.165-21.992-3.2975-8.6344-1.2518-21.751 3.5301-22.635 2.0094-0.37126 2.1335 1.4858 0.23918 3.579-2.5083 2.7717-2.7243 9.3517-0.57858 17.63 2.7466 10.596 2.3315 24.673-0.8164 27.686-0.89667 0.8582-1.0684 0.23066-0.79045-2.8879 0.41165-4.6179-0.21109-4.9422-2.9076-1.5142-2.0703 2.632-2.5497 5.0298-1.0055 5.0298 4.3718 0-4.9982 10.463-11.473 12.811-3.2445 1.1766-7.2772 1.5903-7.2772 0.74646zm-16.663-6.0503c0.76764-3.0243 0.65848-4.1882-0.56844-6.0608-1.9454-2.969-1.9111-3.3211 0.32347-3.3211 3.5992 0 4.8535 5.5229 2.3527 10.359-2.0467 3.9578-3.222 3.4129-2.1077-0.97723zm-70.993-0.94433c0.31867-0.51562 1.0013-0.9375 1.5169-0.9375s0.67677 0.42188 0.35809 0.9375-1.0013 0.9375-1.5169 0.9375-0.67677-0.42188-0.35809-0.9375zm59.618-0.77522c-1.3304-2.4859-1.295-4.4904 0.12397-7.0208 1.0548-1.881 1.1973-1.666 1.7495 2.6398 0.6624 5.1647-0.27763 7.3629-1.8735 4.381zm-52.587-2.482c0-0.55801 5.2683-3.3126 6.2816-3.2845 1.2097 0.0337-3.8221 3.6854-5.1097 3.7083-0.64453 0.0114-1.1719-0.17925-1.1719-0.42383zm1.3511-7.5539c2.5267-1.9111 4.9295-1.8897 3.3364 0.0298-0.6419 0.77344-2.0646 1.3928-3.1617 1.3764-1.9555-0.0292-1.9589-0.0568-0.17477-1.4062zm53.961-1.0917c0-2.5999 13.391-16.222 15.947-16.222 1.5782 0 4.6073-7.7548 3.695-9.4596-1.2043-2.2502-1.1273-2.7279 0.43953-2.7279 6.537 0 0.59029 11.866-9.6247 19.204-2.5799 1.8535-5.552 4.8298-6.6048 6.614-1.7078 2.8945-3.8523 4.3371-3.8523 2.5914zm-46.875-5.0056c0-0.97626 8.3963-5.0078 9.0559-4.3483 0.52386 0.52386-6.6291 5.3191-7.9344 5.3191-0.61682 0-1.1215-0.43687-1.1215-0.97082zm-3.75-6.9979c0-0.77344 0.63281-1.4062 1.4062-1.4062 0.77344 0 1.4062 0.63281 1.4062 1.4062s-0.63281 1.4062-1.4062 1.4062c-0.77344 0-1.4062-0.63281-1.4062-1.4062zm14.092 0.20496c0.01641-0.62835 0.64922-1.9614 1.4062-2.9623 0.75704-1.0009 1.3764-3.4618 1.3764-5.4688 0-2.5022 0.36827-3.5263 1.1719-3.2588 1.8475 0.61515 1.9154 3.2027 0.20171 7.6899-1.485 3.8885-4.2221 6.5226-4.1563 3.9999zm66.533-10.837c0-0.55967 0.84552-3.1627 1.8789-5.7845 2.2816-5.7885 1.7103-11.243-1.5457-14.756-3.9946-4.3102-1.206-5.8794 2.9906-1.6828 2.7962 2.7962 3.1471 9.8822 0.82656 16.693-1.4101 4.1385-4.1504 7.7902-4.1504 5.5308zm-79.688-2.5486c0-0.80387 0.42188-1.2008 0.9375-0.88217s0.9375 0.97639 0.9375 1.4616-0.42188 0.88217-0.9375 0.88217-0.9375-0.65771-0.9375-1.4616zm-8.4888-4.5858c-9.3054-3.4282-12.136-5.753-12.136-9.9668 0-2.6283 1.3139-2.1958 2.4467 0.80544 0.75987 2.0131 2.4546 3.2148 7.4712 5.2976 9.9991 4.1515 11.877 7.422 2.2183 3.8638zm15.269-4.4996c0.33387-1.0457 9.5452-6.2041 11.237-6.2928 2.3087-0.12103-1.2099 3.0998-5.5642 5.0933-5.9624 2.7297-6.1758 2.7748-5.6729 1.1995zm14.313-2.9957c1.5469-1.3371 4.3971-3.2766 6.3338-4.31 6.3059-3.3646 16.468-13.81 19.247-19.783 2.3428-5.0362 4.8883-7.2405 4.8883-4.233 0 3.1348-5.9597 12.54-9.8965 15.618-2.308 1.8047-5.3059 4.2305-6.6619 5.3906-1.356 1.1602-3.0366 2.1094-3.7348 2.1094-0.69815 0-1.2694 0.4158-1.2694 0.924 0 0.50821-2.6367 2.2269-5.8594 3.8193-5.7053 2.8192-5.7854 2.8314-3.0469 0.46415zm-14.531-3.2452c0-1.3449 1.2745-2.1886 5.145-3.4061 8.8591-2.7865 6.5471-7.2861-2.9518-5.7446-2.3166 0.37594-3.3757 0.14109-3.7488-0.8313-0.28603-0.7454-1.4945-1.3553-2.6854-1.3553s-2.3254-0.48017-2.521-1.067c-0.2659-0.79771-1.9022-0.79771-6.483 0-7.8942 1.3747-9.255 1.3439-9.255-0.20976 0-0.88803 1.9268-1.4718 6.3281-1.9172 3.4805-0.35221 8.991-1.2542 12.246-2.0045 9.328-2.1502 16.403-1.1326 17.352 2.496 0.62133 2.376-0.37421 2.9493-1.8185 1.0473-1.152-1.5171-1.2358-1.5004-1.2502 0.24894-0.02287 2.7718 1.3026 4.3626 3.0698 3.6845 1.0041-0.38532 1.7813-0.0152 2.1867 1.0413 0.76192 1.9855-1.1292 3.5189-7.0944 5.7522-2.365 0.88547-4.6374 2.1597-5.0497 2.8316-1.1324 1.8453-3.469 1.464-3.469-0.56612zm3.4961-11.904c-0.31152-0.31152-1.1201-0.34482-1.7969-0.074-0.74788 0.29927-0.52573 0.52142 0.56641 0.5664 0.98828 0.0407 1.542-0.18087 1.2305-0.49239zm2.3016-3.2576c2.2253-0.0407 3.4869-0.29738 2.8035-0.5704-0.68335-0.27302-4.0584-0.18627-7.5 0.19277-4.3676 0.48101-5.6912 0.90087-4.3825 1.3901 1.0312 0.38553 2.5855 0.3321 3.454-0.11875 0.86844-0.45084 3.3997-0.85303 5.625-0.89374zm7.3273 14.287c0-0.43287 1.0547-1.2676 2.3438-1.8549 2.4813-1.1305 3.0983-0.36259 1.2188 1.5169-1.2908 1.2908-3.5625 1.5063-3.5625 0.33799zm-47.162-5.8c-3.9391-3.0985-2.8995-12.114 1.4018-12.157 0.35536-4e-3 2.602-1.6992 4.9924-3.7681 2.3905-2.069 4.718-3.532 5.1723-3.2512 1.1895 0.73514 0.06733 3.1022-1.7568 3.7058-7.1095 2.3528-11.378 10.034-7.6478 13.764 4.1325 4.1325 2.5302 5.3971-2.1619 1.7063zm131.2-1.5635c-0.32973-0.32974-0.59951-1.7288-0.59951-3.109s-0.79293-4.8142-1.7621-7.631c-0.96913-2.8168-2.0635-7.3134-2.432-9.9923l-0.66989-4.8707 2.9594 0.32398c2.1294 0.23312 3.3659 1.0881 4.4089 3.0486 2.2002 4.1357 6.8638 15.695 6.8674 17.022 7e-3 2.2502-2.7788 1.1511-3.4049-1.3438-0.34727-1.3836-1.1965-3.5984-1.8871-4.9219-0.69064-1.3234-1.2583-3.1196-1.2615-3.9915-3e-3 -0.87192-0.4572-1.8643-1.009-2.2053-0.55176-0.34101-1.3688-1.5261-1.8156-2.6335-1.6815-4.1675-0.97269 1.5271 0.95586 7.6795 2.5189 8.0356 2.3177 15.293-0.35008 12.625zm11.588-4.037c0-0.51563 0.65771-0.9375 1.4616-0.9375s1.2008 0.42187 0.88217 0.9375c-0.31868 0.51562-0.97639 0.9375-1.4616 0.9375-0.4852 0-0.88217-0.42188-0.88217-0.9375zm-16.25-1.5625c-0.92934-0.92934-0.75658-5 0.2122-5 0.93486 0 1.9753 2.2625 1.9753 4.2954 0 1.3985-1.1297 1.7624-2.1875 0.70457zm14.352-4.5923c-1.1676-3.071-1.1555-4.1577 0.0464-4.1577 0.9139 0 2.7893 3.823 2.7893 5.686 0 1.8305-1.9604 0.7739-2.8357-1.5283zm-31.83 0.0869c-2.1507-2.5915-1.7288-7.5571 0.62149-7.3132 1.5852 0.1645 2.1159-0.34982 2.3438-2.2714 0.79473-6.7025 5.0275 0.23765 4.3564 7.1428-0.32436 3.3374-2.6306 5.2755-2.6888 2.2597-0.0546-2.8223-2.7029-7.0196-2.746-4.3522-0.0183 1.1297 0.38865 2.3148 0.90427 2.6335 1.3948 0.86205 1.1339 3.2812-0.35396 3.2812-0.7103 0-1.807-0.62118-2.4371-1.3804zm12.422-7.2915c-1.0731-2.1914-2.2516-5.8828-2.6189-8.2031-0.91044-5.7516-2.8702-9.5395-3.7591-7.2656-0.86142 2.2036-2.3157 2.0857-2.3157-0.18779 0-1.0056-0.66518-2.2007-1.4782-2.6556-1.825-1.0213-0.91089-7.565 1.1682-8.3629 1.976-0.75826 2.249-0.0202 1.2635 3.4159-0.84923 2.9611-0.81232 3.0313 0.81796 1.5559 3.6302-3.2853 6.1246 0.68288 7.3078 11.625 0.30665 2.8359 1.3583 6.7528 2.3371 8.704 1.6574 3.3043 1.6361 5.3585-0.0556 5.3585-0.39379 0-1.594-1.793-2.6671-3.9844zm-112.33-4.5808c-0.38254-1.2053-1.7322-3.758-2.9993-5.6727-2.8851-4.3597-2.4794-6.2737 0.78542-3.7056 2.7269 2.145 5.2655 9.2136 3.826 10.653-0.59707 0.59708-1.159 0.15268-1.6121-1.2749zm53.048 1.0652c-0.0252-1.6866 4.696-10.023 7.1674-12.656 0.96798-1.0312 2.7052-3.4167 3.8606-5.301 2.6987-4.4015 13.489-14.925 17.083-16.662 3.8216-1.8459 4.8197-0.29488 1.3816 2.1471-4.2131 2.9925-20.137 18.724-20.147 19.904-5e-3 0.56462-0.88752 1.8217-1.9613 2.7935-1.0738 0.97179-2.5054 3.0411-3.1812 4.5984-1.7339 3.9954-4.1755 7.002-4.2028 5.1753zm74.991-2.5781c-1.5764-5.5625-2.2628-13.965-1.1947-14.625 0.93947-0.58062 10.54 9.2376 10.54 10.779 0 1.6879-3.0092 0.68581-5.3423-1.7791l-2.4403-2.5781 0.61058 2.3438c1.7126 6.5741 1.8037 9.375 0.30471 9.375-0.9104 0-1.8663-1.3559-2.4784-3.5156zm11.577 0.27928c-0.28732-0.74876-0.23776-1.8219 0.11014-2.3848 0.34788-0.5629 0.15385-1.6002-0.43121-2.3052-1.2718-1.5324 0.0616-2.6499 2.1883-1.8338 2.015 0.7732 2.7691 3.6885 1.5455 5.9748-1.1972 2.237-2.6738 2.4746-3.4127 0.54906zm-43.474-2.8393c-0.98812-2.599 0.36585-10.34 1.9834-11.339 0.45221-0.27948 0.8925 1.8371 0.97844 4.7034 0.086 2.8664 0.1914 5.9147 0.23438 6.7741 0.13035 2.6071-2.1907 2.5068-3.1962-0.13812zm-28.526 0.57214c-0.28776-0.46561 0.10497-1.3679 0.87272-2.0051 1.135-0.94196 1.3959-0.88454 1.3959 0.3072 0 1.7502-1.529 2.8946-2.2686 1.6979zm36.198-1.1293c0.18476-0.5543 0.73672-1.0078 1.2266-1.0078s1.0418 0.45352 1.2266 1.0078c0.18477 0.55429-0.36718 1.0078-1.2266 1.0078s-1.4113-0.45352-1.2266-1.0078zm12.041-2.6806c-2.4439-4.5664-0.13049-15.062 3.32-15.062 1.6247 0 3.8462 7.7565 2.3631 8.2509-1.5116 0.50389-1.2525 2.972 0.37768 3.5976 0.77344 0.29681 1.4062 1.5492 1.4062 2.7831 0 2.9803-5.9197 3.3212-7.467 0.43008zm-135.21-0.19344c-2.3029-0.84286-3.9081-13.045-1.7073-12.979 1.893 0.0573 2.9485 2.0149 2.692 4.9925-0.36064 4.186 0.56346 5.1579 5.7447 6.0425 5.857 0.99987 6.0777 3.0332 0.31894 2.9391-2.4922-0.0407-5.664-0.48858-7.0484-0.99529zm51.757-4.3213c0.01144-0.90234 0.84583-2.6953 1.8542-3.9844 2.312-2.9557 2.312-3.417 0-4.0216-4.3237-1.1307-1.2673-5.9082 6.6787-10.44 4.6818-2.6699 1.076-3.0866-4.5651-0.52759-13.751 6.2381-20.037 9.7911-23.943 13.534-4.3858 4.2024-6.7872 4.2442-4.0525 0.0705 4.3569-6.6495 33.128-20.811 35.263-17.357 0.84331 1.3645 6.4085-2.3672 6.505-4.3619 0.0941-1.9431-2.8988-2.3525-3.3926-0.4641-0.35615 1.3619-1.6508 1.8779-5.7996 2.3116-7.8165 0.81699-30.047 9.7968-32.969 13.317-1.4098 1.6988-5.9212 1.872-5.3659 0.20604 0.50627-1.5188 25.01-13.819 27.563-13.836 2.5044-0.0164 8.0753-2.2133 9.5055-3.7485 1.5788-1.6947 4.353-2.499 28.971-8.3993 10.061-2.4114 17.747-2.9564 17.408-1.2344-0.12377 0.62914 0.62633 1.5995 1.6669 2.1564 2.4314 1.3012 1.5116 2.7906-1.7316 2.8036-1.3875 6e-3 -4.6299 0.64927-7.2052 1.4304-4.2746 1.2966-4.7805 1.2861-5.8091-0.12061-1.034-1.4141-1.5742-1.3612-6.5676 0.64349-6.7111 2.6943-6.6249 2.6293-4.945 3.7278 1.4785 0.96674 1.6075 0.82898-8.756 9.3503-4.9048 4.033-7.9542 4.9783-6.3422 1.9662 0.51283-0.95823 2.0042-2.4445 3.3142-3.3029 1.31-0.85831 2.3818-1.9789 2.3818-2.4901 0-0.97927-3.1135 0.96093-11.105 6.9201-4.852 3.6181-5.6574 5.0403-3.8676 6.8301 0.66159 0.66159 0.52425 1.8144-0.43687 3.6669-0.771 1.4861-1.1595 3.6675-0.86331 4.8476 0.4336 1.7276 0.15346 2.1456-1.4381 2.1456-1.2654 0-1.9691-0.59029-1.9558-1.6406zm-46.664-3.2812c-4.4009-5.5151-4.7526-9.1304-1.4038-14.431 2.8448-4.5032 4.6539-5.5809 2.5283-1.5062-2.0575 3.9443-1.5379 13.359 0.73726 13.359 0.51562 0 0.69947-0.91022 0.40855-2.0227-0.64212-2.4554 1.2615-7.3054 3.6218-9.2273 1.5901-1.2948 1.6628-1.2576 0.91644 0.46875-1.3276 3.071-1.7012 10.871-0.5746 11.997 0.56876 0.56876 1.0341 1.3716 1.0341 1.7841 0 1.2181-6.2489 0.85535-7.268-0.42188zm149.14 0c-2.0559-2.8122-3.1739-6.061-2.9843-8.6719 0.11234-1.5469-0.29475-3.734-0.90465-4.8602-0.6099-1.1263-1.1135-3.8684-1.119-6.0938-6e-3 -2.2253-0.6384-6.117-1.4062-8.6481-2.1188-6.9842-1.9179-7.9367 1.6508-7.8283 2.7687 0.0841 5.9226-0.57134 19.759-4.106 3.691-0.94293 4.6655-0.92771 5.2898 0.0826 0.58241 0.94237 1.0318 0.74071 1.8796-0.84352 1.6577-3.0974 0.89332-3.2106-7.6403-1.1318-12.313 2.9996-23.568 4.9274-24.201 4.1457-2.629-3.2436-5.6335-7.7841-5.6335-8.5134 0-0.48989-0.78183-1.0952-1.7374-1.345-1.2549-0.32814-2.1828-2.2463-3.3411-6.9062-0.88202-3.5485-2.2713-7.7175-3.0873-9.2644-1.639-3.107-4.879-21.937-4.928-28.641-0.0172-2.3461-0.50362-4.7381-1.0811-5.3155-0.57744-0.57744-1.1483-3.5683-1.2686-6.6463-0.15934-4.0784-0.80023-6.4131-2.3628-8.6075-1.1793-1.6561-2.6593-5.8161-3.2891-9.2444-1.8945-10.314-4.288-18.353-5.8197-19.548-0.79485-0.61975-1.2064-1.7492-0.91448-2.5098 0.54845-1.4292-0.26734-4.4423-3.2505-12.006-2.6452-6.7066-0.98618-10.51 2.5029-5.7386 1.0848 1.4835 1.2636 1.4849 2.7278 0.0207 0.86179-0.86179 2.0734-1.8926 2.6925-2.2907 0.61908-0.39809 3.1069-3.255 5.5285-6.3488s5.0399-6.3449 5.8185-7.2247c1.1868-1.3412 1.2442-2.4167 0.35509-6.6554-1.2373-5.8989 0.92193-10.769 5.9203-13.354 2.6525-1.3717 2.722-1.348 2.722 0.92724 0 1.4672-0.78387 2.7476-2.1094 3.4457-4.1406 2.1805-4.5698 5.5862-1.6406 13.018 2.3443 5.9476 2.4438 12.248 0.23437 14.847-2.3856 2.8059-10.359 6.7133-13.733 6.73-4.8282 0.0238-5.6076 1.0546-4.9563 6.5541 0.60255 5.0876 7.8923 29.178 9.0764 29.994 1.6873 1.1634 3.592 6.5905 4.2105 11.997l0.67534 5.9035 2.481-1.5992c1.3645-0.87954 3.8849-3.2197 5.6009-5.2004 3.0942-3.5716 5.7863-4.6954 5.7863-2.4155 0 0.65214-1.9217 3.0481-4.2705 5.3244-3.685 3.5712-4.0552 4.2592-2.7 5.0176 1.2647 0.70776 1.3252 1.0305 0.31089 1.6574-0.72677 0.44917-1.5171 0.36189-1.8682-0.20632-0.87583-1.4171-4.871 0.89272-4.2669 2.4669 0.26157 0.68164 0.94552 6.4501 1.5199 12.819 1.2956 14.366 2.6398 21.576 4.8191 25.851 0.92777 1.8198 2.1867 5.5421 2.7976 8.2719 0.77333 3.4556 1.6376 5.1011 2.8453 5.4169 0.95402 0.24948 2.4764 1.757 3.3832 3.35 1.7677 3.1057 4.8515 3.8557 6.6993 1.6292 0.58387-0.70352 4.3269-1.7901 8.3179-2.4147 8.7532-1.3698 28.64-6.9162 31.487-8.7818 1.1257-0.73756 3.517-1.6346 5.3142-1.9935 4.8342-0.96535 16.505-5.0533 23.231-8.1376 3.2458-1.4882 6.2951-2.7058 6.7761-2.7058 0.8436 0 10.224-4.1056 13.104-5.7352 11.544-6.5325 11.982-6.8644 10.503-7.9461-1.2595-0.92097-0.87014-1.4558 2.6838-3.6861 2.2864-1.4349 10.118-6.5227 17.404-11.306s15.387-9.8534 18.004-11.267c2.6165-1.4131 7.5381-5.0791 10.937-8.1467 3.3988-3.0676 6.4098-5.3472 6.6911-5.066 1.3628 1.3628-1.3254 4.8909-6.9954 9.1808-3.442 2.6042-6.7494 5.6497-7.35 6.7677-1.2319 2.2935-7.4894 7.0285-21.877 16.554-5.4141 3.5845-11.079 7.4823-12.589 8.6618-3.3611 2.6254-13.648 8.2383-15.099 8.2383-0.58108 0-3.1319 1.0529-5.6685 2.3398s-5.0604 2.3416-5.6084 2.3438c-0.54803 2e-3 -3.0793 1.0051-5.625 2.2287s-6.099 2.5446-7.8961 2.9354c-1.7971 0.39089-4.1614 1.2964-5.2539 2.0122-1.0925 0.71583-6.9949 3.0018-13.116 5.0799-11.12 3.7751-14.456 5.6412-14.456 8.0872 0 3.6894-9.1063 11.435-16.875 14.353-1.8047 0.67787-4.6242 2.2197-6.2656 3.4264-3.4561 2.5408-4.0469 2.6723-4.0469 0.90141 0-0.71088 1.2656-1.8168 2.8125-2.4575 3.5635-1.4761 3.7427-3.2614 0.23437-2.3349-3.852 1.0173-4.4207 1.0163-4.7996-8e-3 -0.42539-1.151 11.405-5.0439 15.526-5.109 1.6454-0.026 3.2875-0.52603 3.6491-1.1112 0.84507-1.3674-5.848-0.43021-15.547 2.1769-8.5758 2.3052-9.0315 2.6897-7.5181 6.3433 0.65452 1.5802 1.2938 5.0841 1.4206 7.7865 0.32599 6.9476 2.2316 17.829 3.3115 18.909 1.1354 1.1354 1.1937 3.3485 0.0883 3.3485-0.45249 0-1.2082-0.52734-1.6794-1.1719zm105.71-84.012c2.791-1.9918 5.9856-3.9066 7.0992-4.255 1.1136-0.34851 2.5448-1.2603 3.1805-2.0262 2.3716-2.8576 0.09-2.1642-5.2837 1.6059-3.0506 2.1402-6.9176 4.4664-8.5934 5.1692s-3.0469 1.694-3.0469 2.2027c0 1.6064 1.4254 1.0279 6.6443-2.6965zm14.443-9.4928c0.32845-0.53143-0.0479-0.68859-0.88217-0.36844-1.6241 0.62324-1.9213 1.2952-0.57277 1.2952 0.48519 0 1.1399-0.41705 1.4549-0.92677zm-147.98-71.764c4.0371-2.3659 5.7856-5.5079 4.6753-8.4013-0.78945-2.0573-1.9811-1.7328-3.9836 1.0849-0.97457 1.3713-3.1921 4.1134-4.9279 6.0938-3.852 4.3946-2.0593 4.9121 4.2362 1.2227zm-10.867 160.92c-1.2743-2.381-1.4164-5.1457-0.52346-10.185 0.47617-2.6872 0.37254-3.9844-0.31832-3.9844-2.0977 0-3.1916-3.7528-1.9604-6.7253 0.63907-1.5428 1.0871-4.9204 0.99558-7.5056-0.12107-3.4204 0.39544-5.6095 1.8967-8.0386 2.5302-4.0939 1.413-8.2786-5.374-20.131-2.2815-3.9842-4.1482-7.5235-4.1482-7.8651 0-0.34153-1.2434-2.6418-2.7632-5.1117-4.6307-7.5259-9.1642-19.669-10.304-27.599-0.59236-4.1211-1.4616-8.3366-1.9316-9.3678-1.2367-2.7134-3.7511-9.0744-3.7511-9.4895 0-0.19485 0.63281-0.35426 1.4062-0.35426s1.4062 0.81885 1.4062 1.8197 0.43182 2.0866 0.95962 2.4128c1.6084 0.99406-0.1208-7.2762-2.0385-9.7495-0.95348-1.2297-1.7336-2.7694-1.7336-3.4215 0-2.5386-7.2481-13.096-9.1902-13.386-3.9722-0.59336-5.708 1.2863-4.7999 5.1974 1.8218 7.8461 0.0348 9.4146-2.9747 2.6111-2.4302-5.4939-6.2044-4.4219-4.8972 1.391 1.1771 5.2345 0.72944 11.597-1.0018 14.24l-1.5985 2.4396 4.0281 0.45265c2.2154 0.24897 4.887 0.74049 5.9369 1.0923 1.3578 0.45499 2.9511-0.18865 5.5195-2.2298 3.7061-2.9452 6.6203-3.7786 5.9366-1.6975-0.69244 2.1074-11.288 8.8829-15.658 10.012-8.8162 2.2788-8.7551 2.272-8.3063 0.92573 0.23475-0.70425 1.6977-1.5404 3.2511-1.8581 5.7743-1.181 6.9458-3.6893 1.7231-3.6893-1.8047 0-3.2812-0.47039-3.2812-1.0453 0-0.65922-0.80446-0.51822-2.178 0.38173-3.152 2.0652-6.621 2.3755-6.9709 0.62346-0.18252-0.91403 1.0222-2.0248 3.2733-3.018 6.4495-2.8455 8.102-8.1986 5.3705-17.397-1.2723-4.2844-4.1824-6.9577-4.1824-3.842 0 3.5554-2.2859-0.57711-2.4121-4.3607-0.08484-2.543-0.46038-5.7348-0.83454-7.093-0.64023-2.3239-0.27488-2.6742 6.2051-5.9504 7.2868-3.6841 9.4508-5.174 7.5149-5.174-1.861 0-11.645 5.299-14.603 7.9092-4.7683 4.207-8.9948 2.0198-8.9948-4.6547v-4.1392l-4.2362 2.2524c-2.3299 1.2388-5.8711 3.5473-7.8693 5.1299-4.1724 3.3046-4.9254 3.4329-8.0677 1.3739-1.8574-1.217-2.8605-1.3063-5.2632-0.46875-4.8628 1.6952-5.1237 1.2033-1.0306-1.9426 4.3008-3.3055 4.4354-5.2978 0.21033-3.113-3.964 2.0499-4.6662 1.7954-3.5086-1.2714 1.2863-3.4078 0.45399-5.5478-2.6109-6.7131-3.0196-1.148-2.1707-2.8002 1.4386-2.8002 2.9927 0 3.7762 0.84511 4.6233 4.9869 0.73646 3.6009 3.8142 1.1871 3.8142-2.9914 0-3.7212-1.6317-4.808-7.2188-4.808-2.7328 0-4.9688-0.40276-4.9688-0.89502 0-1.1629 5.8045-2.2415 9.3009-1.7284 5.0152 0.73608 4.9163-10.747-0.11536-13.397-4.2956-2.2629-4.5907-5.3292-1.2551-13.042 1.9395-4.4845 2.0568-5.3491 0.89985-6.6363-1.6864-1.8764-1.6831-4.0223 0.01197-7.7532 0.7382-1.6248 2.6602-6.1182 4.2712-9.9854 3.2992-7.9198 5.2516-11.25 6.5958-11.25 1.6099 0 0.9986 2.2715-2.3939 8.896-1.8204 3.5547-3.1945 7.1436-3.0535 7.9755 0.14093 0.83187-0.50517 2.6746-1.4358 4.0948-2.2942 3.5014-1.715 5.3103 2.1037 6.569 5.4004 1.7801 4.4853 3.9779-4.4411 10.667-2.9363 2.2003-3.1909 5.482-0.50508 6.5126 2.0272 0.77789 7.5098-3.9775 8.1235-7.046 0.82974-4.1487 5.942-8.7936 9.6782-8.7936 1.6931 0 3.5686-0.59063 4.1677-1.3125 0.5991-0.72188 1.933-1.3125 2.9643-1.3125 1.5604 0 1.6792 0.23597 0.70792 1.4062-0.6419 0.77344-1.7482 1.4062-2.4585 1.4062-0.71031 0-1.2915 0.59887-1.2915 1.3308 0 1.1263 0.57479 1.105 3.7403-0.1384 2.7638-1.0856 4.5383-1.2404 6.7969-0.59262 4.0493 1.1613 4.1501 3.7282 0.13054 3.3266-4.324-0.43203-25.5 10.548-26.272 13.622-0.88041 3.5078-0.0011 3.4521 6.8578-0.43457 9.0401-5.1227 17.259-8.9132 17.912-8.2607 0.93854 0.93855-0.81003 2.0973-12.386 8.2086-6.1543 3.2489-11.357 6.4344-11.562 7.079-0.66374 2.0858 1.9952 1.252 8.2208-2.5781 7.1361-4.3902 9.375-4.7424 9.375-1.4749 0 1.5751-0.86532 2.7289-2.8125 3.75-1.5469 0.8112-4.0337 2.1165-5.5264 2.9006-1.4926 0.78414-3.2318 2.0498-3.8648 2.8125s-1.6266 1.4008-2.208 1.418c-1.2783 0.0377-5.7017 3.6054-5.1519 4.1552 0.21425 0.21424 3.1217-1.2414 6.4609-3.2349 13.12-7.8325 15.925-9.389 16.917-9.389 1.5473 0 0.50857 2.2117-1.5442 3.2881-10.366 5.4357-21.957 13.247-21.957 14.797 0 1.698 0.17682 1.6808 3.5156-0.34266 1.9336-1.1718 5.8359-3.3873 8.6719-4.9232 2.8359-1.5359 5.7891-3.2794 6.5625-3.8744 0.77344-0.59503 2.5664-1.5763 3.9844-2.1806 3.8766-1.652 3.3721 0.73997-0.64955 3.0799-1.7724 1.0312-7.4666 4.3245-12.654 7.3184-5.1871 2.9939-9.4311 5.8415-9.4311 6.3281 0 1.4176 1.3846 1.04 4.8778-1.3306 5.1425-3.4898 15.342-9.0347 16.619-9.0347 2.3062 0 0.33909 2.2263-4.2022 4.7559-2.5509 1.4209-5.7981 3.2524-7.216 4.07s-3.7994 2.1282-5.292 2.9123c-3.8939 2.0457-5.3948 4.0246-3.5804 4.7208 2.0221 0.77597 11.103-4.0625 11.666-6.216 0.31496-1.2044 1.2941-1.8067 2.9409-1.809 3.8548-6e-3 7.9137-3.0436 11.713-8.7675 1.9178-2.8892 5.052-6.3971 6.9651-7.7952 1.913-1.3982 4.7439-3.6883 6.2908-5.0891 4.7446-4.2966 16.782-10.636 18.756-9.8783 2.2185 0.85131 1.6327 2.3781-1.1781 3.0703-3.0346 0.74733-6.9552 3.08-8.0153 4.7689-0.41234 0.65691-1.233 1.1944-1.8237 1.1944-1.5046 0-6.3328 4.7797-6.3328 6.2692 0 1.7042 0.9748 1.5382 2.3981-0.4083 1.7404-2.3801 2.4629-1.0134 1.2713 2.4047-1.4729 4.2251-0.52014 5.9031 1.329 2.3408 3.5502-6.8395 4.3616-4.6562 1.1102 2.9874-1.0234 2.406-1.1608 3.33-0.38316 2.5781 2.2868-2.2112 3.5636-1.3693 3.0184 1.9902-0.30043 1.8513-0.0817 3.4287 0.52769 3.8053 0.57244 0.35379 1.0408 1.6263 1.0408 2.8278s0.87907 3.1805 1.9535 4.3978c1.707 1.934 1.8728 1.9767 1.3139 0.33823-0.35178-1.0312-0.86452-3.457-1.1394-5.3906-0.58951-4.1465 1.2415-4.92 2.2194-0.9375 1.4231 5.796 6.9167 16.095 11.875 22.263 4.1922 5.215 5.2113 7.1282 4.9702 9.331-0.33517 3.0617-2.1957 4.2703-3.4946 2.2701-0.79387-1.2225-0.33367 7.1689 0.66259 12.082 0.4092 2.0179 0.5372 2.0473 2.712 0.62231 1.2554-0.82256 2.723-1.2234 3.2612-0.89068 1.7548 1.0845 1.0316 3.333-1.365 4.2442-1.2891 0.4901-2.3438 1.0477-2.3438 1.239 0 0.92353 3.0422 6.2923 3.8475 6.79 0.50395 0.31146 0.69407 1.2691 0.42248 2.128-0.27157 0.85894 0.30515 4.1976 1.2816 7.4192 0.99708 3.2896 1.4023 6.0881 0.92441 6.3835-1.3805 0.8532-0.97205 3.2278 0.55525 3.2278 0.875 0 1.4062 0.88541 1.4062 2.3438 0 2.5088 0.8749 2.9688 2.5192 1.3246 1.5202-1.5202 2.4705 0.5778 1.2742 2.8132-1.534 2.8664-1.1774 4.7685 0.89415 4.7685 1.2119 0 1.875 0.625 1.875 1.7672 0 0.97194 1.0547 2.4582 2.3438 3.3029 1.6911 1.108 2.3478 2.3781 2.3581 4.5609 8e-3 1.6639 0.89791 6.4003 1.9778 10.525s2.1631 8.3752 2.4072 9.4449c0.27883 1.2218-0.48486 3.0486-2.0541 4.9135-1.9919 2.3673-2.3713 3.5452-1.8728 5.815 0.34384 1.5655 0.0782 4.9807-0.59043 7.5893-1.1782 4.5969-1.1445 4.8001 1.0918 6.5974 4.0373 3.2448 8.5454 4.8833 9.4747 3.4436 1.0322-1.5989 2.6408 0.59168 2.662 3.6252 0.0197 2.817-1.3974 3.449-3.9636 1.7676-1.1857-0.77692-3.6234-1.5327-5.4171-1.6796-3.522-0.28837-3.6806 0.13035-2.7027 7.1346 0.45348 3.2479-1.4058 4.3008-2.8452 1.6112zm-29.771-141.55c-3.5582-5.3729-4.5942-6.3981-5.1202-5.0669-1.0535 2.6662-0.90544 3.0751 1.1132 3.0751 1.0474 0 2.1768 0.73828 2.5096 1.6406 1.1789 3.1958 5.2808 9.1185 5.6169 8.1101 0.1876-0.56281-1.6662-4.0544-4.1197-7.759zm-19.451 4.1786c1.0001-0.73128 1.5611-1.5868 1.2467-1.9012-0.91378-0.91377-5.6927 1.2541-5.0515 2.2916 0.78592 1.2716 1.6537 1.1826 3.8048-0.39035zm9.8762-4.868c0.86246-1.0392 0.69427-1.3024-0.8322-1.3024-2.8177 0-4.879 0.97765-4.879 2.314 0 1.5156 4.2366 0.76515 5.7112-1.0116zm-11.772-4e-3c2.5022-1.6395 3.1108-4.1109 1.0123-4.1109-0.71413 0-1.9798 1.0398-2.8125 2.3108-2.4475 3.7354-1.9352 4.2477 1.8002 1.8002zm9.2724-4.7364c0.32989-0.85965 0.23463-1.9282-0.21168-2.3745-1.27-1.27-3.9375 0.19524-3.9375 2.1628 0 2.2364 3.3075 2.4051 4.1492 0.21167zm-9.7742-2.592c0-0.85673-3.7997 0.74162-4.8912 2.0575-1.0167 1.2257-0.7316 1.2063 1.8443-0.12538 1.6758-0.86637 3.0469-1.7358 3.0469-1.9321zm-8.4375-3.9957c4.0258-2.1147 8.1699-4.9742 7.2087-4.9742-0.38968 0-2.8458 1.083-5.4581 2.4068-5.0662 2.5672-6.6029 2.386-4.762-0.5617 0.62501-1.0008 1.1364-2.325 1.1364-2.9426s0.89204-2.9657 1.9823-5.2179c2.4602-5.0822 1.6518-6.4698-0.87966-1.5098-1.0124 1.9836-2.7134 4.3958-3.7801 5.3605-2.2472 2.0323-4.294 7.5467-3.5352 9.5242 0.56648 1.4762 2.0218 1.101 8.0877-2.0852zm6.8481-7.861c3.0774-1.1016 3.6865-1.0877 4.4388 0.10187 1.1842 1.8726 1.1377 0.29211-0.0572-1.9405-1.0865-2.0302-9.2829 0.29144-10.143 2.8732-0.24221 0.7266 0.11706 1.0187 0.89525 0.72797 0.71489-0.26711 2.9049-1.0602 4.8666-1.7625zm0.71355-6.5211c2.2009-1.1779 2.3018-2.7592 0.33058-5.1785-1.325-1.6262-1.4259-1.6401-0.94806-0.13006 0.29408 0.92935-0.14187 2.7223-0.9688 3.9844-1.6328 2.4919-1.2276 2.8301 1.5863 1.3242zm-25.754-31.029c1.7778-1.9906 1.7753-1.9965-0.55782-1.3056-3.523 1.0431-5.6848 3.3052-3.1587 3.3052 1.0618 0 2.7343-0.89982 3.7165-1.9996zm-47.177 192.59c-2.3691-3.61-2.4945-25.867-0.14832-26.323 1.3351-0.26002 1.5012 1.1375 1.4062 11.832-0.09171 10.329 0.13549 12.396 1.533 13.946 2.0041 2.2232 2.0753 3.0785 0.25599 3.0785-0.76155 0-2.1326-1.1398-3.0469-2.5329zm70.994 1.5954c0-0.51563 0.44678-0.9375 0.99283-0.9375 0.54606 0 0.7321 0.42187 0.41342 0.9375-0.31868 0.51562-0.76545 0.9375-0.99283 0.9375s-0.41342-0.42188-0.41342-0.9375zm-45.938-1.808c0-4.3308 26.28-15.412 29.326-12.366 1.1779 1.1778-1.2934 2.4108-8.6559 4.3186-6.744 1.7475-15.128 5.6813-16.263 7.6305-0.8375 1.4381-4.4065 1.7757-4.4065 0.41684zm127.17 0.16026c-0.24144-0.39064-0.73515-2.2891-1.0972-4.2188-0.67529-3.5996-2.8398-4.7621-3.8697-2.0783-0.42321 1.1029-0.84559 1.1839-1.8456 0.35396-1.4891-1.2358-1.7626-7.948-0.35927-8.8154 0.51562-0.31867 0.9375-1.3734 0.9375-2.3438 0-3.0142 1.8736-3.0962 2.9086-0.12731 0.58818 1.6873 1.4713 2.6392 2.1919 2.3627 0.84848-0.32559 1.3936 1.0136 1.8358 4.5101 0.34597 2.7353 0.87221 6.3443 1.1694 8.0201 0.49262 2.7775-0.68807 4.2516-1.8716 2.3366zm-16.18-9.4621c-1.0399-0.96883-2.7626-2.2281-3.8283-2.7984-3.2642-1.747-1.619-7.0948 2.3005-7.4775 3.0248-0.29537 6.7864-3.8411 6.7864-6.3968 0-0.7039 0.63281-1.2798 1.4062-1.2798 2.561 0 1.0659 7.7078-3.194 16.466-1.5583 3.2036-1.6063 3.2242-3.4709 1.4871zm2.0159-5.8275c0.8594-1.3905 0.0512-1.9681-1.774-1.2677-0.84428 0.32397-1.3016 0.96672-1.0164 1.4283 0.70168 1.1354 2.0369 1.0585 2.7903-0.1606zm-127.02 3.578c0.09592-2.167 5.0478-5.1208 13.419-8.0047 5.9088-2.0356 8.6213-3.4708 9.375-4.9603 0.71226-1.4077 2.9076-2.6684 6.6855-3.8392 16.183-5.0152 21.65-6.8179 22.5-7.4187 0.74197-0.52441 26.151-9.4739 33.516-11.805 1.0668-0.33762 1.6406-0.0248 1.6406 0.89456 0 1.4662-3.06 2.8739-12.656 5.8222-3.0938 0.9505-8.2282 2.7136-11.41 3.9179-3.1817 1.2044-6.4382 2.1897-7.2367 2.1897-3.2534 0-28.697 9.1078-28.697 10.272 0 0.33061 1.5341 0.42203 3.4092 0.20312 5.1569-0.60204 3.1136 1.4109-3.2225 3.1746-11.638 3.2394-19.963 6.2756-23.163 8.4468-3.8496 2.6124-4.2305 2.7137-4.1594 1.1062zm27.343-3.6681c0.30802-0.92406 10.611-4.4011 13.34-4.5021 2.1679-0.0802-1.3738 1.948-6.4535 3.6957-6.3602 2.1882-7.387 2.3085-6.8863 0.80637zm-15.979-7.0126c0.36238-1.8413 3.2201-3.8242 4.1587-2.8856 0.742 0.74199-2.2551 4.4257-3.6008 4.4257-0.47352 0-0.72454-0.69307-0.55782-1.5401zm37.567-0.56924c0.21401-0.64453 1.6203-1.56 3.125-2.0345 1.5047-0.47445 5.2291-2.0565 8.2763-3.5156 5.9456-2.847 8.4357-3.3312 7.833-1.523-0.545 1.635-8.2583 5.3751-11.149 5.4061-1.3548 0.0145-2.9885 0.65922-3.6304 1.4327-1.4163 1.7065-5.0062 1.8954-4.4546 0.23437zm-57.42-9.8906c0-0.92813 0.48988-2.1774 1.0886-2.7761 1.8233-1.8234 1.5424-12.413-0.43399-16.358-2.3179-4.6272-1.5257-6.5421 4.3106-10.419 2.6832-1.7825 5.7222-4.1814 6.7535-5.3309 1.9402-2.1627 8.6406-6.6221 14.766-9.8271 1.9336-1.0118 3.5156-2.1332 3.5156-2.492 0-1.091 4.7909-6.4212 5.7715-6.4212 0.50454 0 0.6465 0.85333 0.31548 1.8963-0.67749 2.1346 9.3234-2.2831 11.728-5.1807 1.7051-2.0545 2.9842-1.7124 2.6407 0.70629-0.224 1.5772-2.0481 2.9679-7.2307 5.5127-3.8121 1.8718-7.3136 4.0867-7.781 4.9219-0.46741 0.83521-1.4722 1.5186-2.2329 1.5186-2.9996 0-15.165 7.0524-19.22 11.142-2.3594 2.3796-5.6758 5.072-7.3697 5.9832-2.7908 1.5013-3.0187 1.9411-2.4289 4.6875 0.35797 1.6669 0.86413 5.4566 1.1248 8.4214 0.55559 6.319 1.3235 6.638 4.5136 1.875 10.034-14.981 11.192-16.293 11.561-13.097 0.2218 1.9198-0.67975 3.7156-3.5233 7.0183-7.9037 9.1798-15.056 18.232-15.056 19.055 0 0.46888-0.63281 0.85251-1.4062 0.85251-0.77344 0-1.4062-0.75937-1.4062-1.6875zm36.562-0.12097c0-0.47904 2.4258-1.5482 5.3906-2.376 5.642-1.5752 11.617-3.7722 14.72-5.4128 1.0063-0.53199 5.2251-2.1122 9.375-3.5117 28.83-9.722 34.654-12.069 35.468-14.293 0.34137-0.9324 0.69782-0.94534 1.6387-0.0594 3.192 3.0053-2.4861 5.6741-37.531 17.64-4.8984 1.6726-12.415 4.3557-16.705 5.9626-7.8134 2.9272-12.358 3.6813-12.358 2.0506zm-20.621-2.1759c0.0074-4.4689 19.144-25.482 35.646-39.141 2.8033-2.3203 5.9485-5.1725 6.9893-6.3383 1.0408-1.1657 6.0032-3.9602 11.027-6.21 15.661-7.0127 17.642-10.05 2.551-3.9107-9.8223 3.9959-16.08 5.702-18.088 4.9315-2.9099-1.1166-0.61421-3.2354 3.9843-3.6773 2.4751-0.23783 9.4531-2.2491 15.507-4.4695 8.3438-3.0604 11.182-3.7529 11.732-2.8626 0.51483 0.83303 0.91229 0.87282 1.3671 0.13688 0.3527-0.57068 1.3546-1.02 2.2266-0.99856 3.0385 0.0748-5.0059 5.9536-15.259 11.151-6.3136 3.2006-11.697 6.718-14.535 9.4966-2.4789 2.4272-6.7685 6.1012-9.5326 8.1643-6.1395 4.5826-28.45 27.256-27.628 28.077 0.32512 0.32512 1.8524-0.6172 3.3938-2.094 3.9278-3.7631 3.4607-1.6423-0.5083 2.308-1.7883 1.7799-3.2515 3.5427-3.2515 3.9174 0 1.182-2.8893 3.6277-4.2857 3.6277-0.76493 0-1.3378-0.90461-1.3358-2.1094zm63.746 0.81857c0-3.333 12.725-6.6427 22.145-5.7599 12.56 1.1769 9.0424 4.2016-4.0376 3.472-6.6276-0.36965-8.1367-0.15488-11.069 1.5754-3.8762 2.287-7.0383 2.6072-7.0383 0.71255zm50.688-3.2781c-1.519-2.8382-1.2716-7.6186 0.3942-7.6186 1.21 0 2.5559 4.2646 2.5075 7.9453-0.023 1.7453-1.9062 1.5333-2.9017-0.32671zm4.624 0.35015c0-0.77344 0.63281-1.4062 1.4062-1.4062s1.4062 0.63281 1.4062 1.4062-0.63281 1.4062-1.4062 1.4062-1.4062-0.63281-1.4062-1.4062zm20.625-3.1466c0-0.58966 0.31641-1.0739 0.70312-1.0761 1.8052-0.0102 26.915-4.7732 34.255-6.4977 14.755-3.4667 17.418-1.9983 3.0106 1.6602-22.415 5.6919-37.969 8.1143-37.969 5.9136zm6.3867-4.525c0.67675-0.27081 1.4854-0.23751 1.7969 0.074 0.31152 0.31152-0.2422 0.5331-1.2305 0.4924-1.0921-0.045-1.3143-0.26713-0.56641-0.5664zm5.6528-3.674c1.1793-0.82604 2.4211-1.225 2.7596-0.88653 0.75221 0.75221-1.6255 2.3543-3.5233 2.374-0.88965 9e-3 -0.6181-0.51963 0.76375-1.4875zm-135.61-1.3692c0.22559-0.67677 0.96387-1.415 1.6406-1.6406 0.70312-0.23437 1.0547 0.11719 0.82031 0.82031-0.22559 0.67676-0.96387 1.415-1.6406 1.6406-0.70312 0.23437-1.0547-0.11719-0.82031-0.82031zm173.26-0.85273c0-0.50121 2.4258-1.5868 5.3906-2.4124 10.804-3.0084 20.495-6.297 25.028-8.4926 4.8339-2.3415 8.5757-2.9679 7.5194-1.2588-2.2542 3.6473-37.938 15.088-37.938 12.164zm-135.94-3.7208c0-1.3 1.1504-1.8244 8.1738-3.726 3.4966-0.94672 7.1533-2.0519 8.126-2.456 1.2229-0.508 1.6502-0.3795 1.3848 0.4165-0.90642 2.7193-17.685 8.1892-17.685 5.7654zm117.19 0.42518c0-1.52 27.956-17.384 28.404-16.119 0.27667 0.7806 1.4242 0.5664 3.8903-0.72618 2.8148-1.4753 3.1763-1.9462 1.8513-2.411-1.843-0.64647 1.4496-3.5728 8.3045-7.3807 4.1578-2.3097 4.7968-2.4159 4.1334-0.68719-0.39569 1.0312-0.0628 1.0792 1.7034 0.24564 1.3649-0.64412 1.8017-1.2791 1.1549-1.6789-0.74216-0.45868-0.68883-1.0664 0.18611-2.1206 1.5574-1.8765 3.2437-1.9241 2.5328-0.0714-0.66537 1.7339 0.11834 1.7339 3.1515 0 4.1447-2.3693 5.3164-1.4906 1.875 1.4062-3.9979 3.3653-2.5438 3.7288 1.875 0.46875 1.7472-1.2891 3.676-2.3438 4.2861-2.3438 0.61013 0 1.685-0.69367 2.3886-1.5415 1.1391-1.3725 1.044-1.4668-0.8677-0.86004-1.2523 0.39747-2.6893 0.23139-3.4484-0.39858-0.94029-0.78037-1.821-0.80186-3.1746-0.0774-4.8853 2.6145-2.5455-0.84809 2.8929-4.2812 4.1075-2.593 5.5923-2.8108 4.783-0.7018-0.68501 1.7851 3.23 1.0083 4.8587-0.96408 0.51562-0.62441 1.7812-1.4909 2.8125-1.9254 1.6829-0.70915 1.7069-0.83032 0.23437-1.1825-2.619-0.62641-1.923-1.9477 2.1094-4.0049 3.1417-1.6028 3.75-1.6819 3.75-0.4878 0 1.8289 0.27434 1.8017 4.7248-0.46875 6.4678-3.2996 4.4196 0.28925-2.6155 4.5829-3.4805 2.1242-5.9997 3.8648-5.5983 3.8679 0.9289 8e-3 9.4494-4.5566 18.409-9.8608 3.8234-2.2634 7.3792-3.8511 7.9017-3.5281 1.2724 0.78638-3.9251 5.0303-9.9719 8.1424-2.6848 1.3818-6.8736 3.7424-9.3087 5.246-2.435 1.5035-6.8647 4.0804-9.8438 5.7264-8.3316 4.6034-18.238 10.264-21.354 12.202-1.5469 0.96206-3.4453 2.0436-4.2188 2.4034s-3.5156 1.9933-6.0938 3.6299c-11.317 7.1841-18.027 10.115-16.994 7.422 0.38663-1.0075-0.72764-0.68585-3.7407 1.0799-3.1377 1.8388-4.4794 2.2107-4.9908 1.3832-0.70186-1.1356-6.0202 1.164-11.39 4.9249-2.1048 1.4742-4.6039 2.0659-4.6039 1.0899zm73.779-38.747c-0.9296-0.18019-2.828 0.8104-4.2188 2.2013l-2.5286 2.5289 4.2188-2.2013c3.0117-1.5714 3.7352-2.295 2.5286-2.5289zm-116.9 36.6c0-1.2467 5.8924-6.1108 10.312-8.5129 13.045-7.0892 14.338-9.1252 2.7953-4.4001-4.3173 1.7673-8.2258 2.9808-8.6854 2.6967-1.4659-0.906 0.48604-1.9836 11.515-6.3568 5.9297-2.3512 12.469-5.0702 14.531-6.0421 3.1001-1.4608 13.954-5.1563 19.092-6.5003 3.4637-0.906-0.11211 2.2405-4.1441 3.6466-10.389 3.6229-16.17 6.1548-18.769 8.2204-2.9872 2.374-2.9105 2.3839 4.055 0.52457 3.4963-0.93327 2.4267 1.4073-1.4062 3.0773-11.159 4.862-19.498 9.0135-23.146 11.524-4.1052 2.8244-6.1504 3.5303-6.1504 2.1227zm-94.641-8.3354c4.4034-5.3348 27.886-20.741 35.405-23.229 9.1094-3.0136 8.1486-1.3719-2.1701 3.7082-4.125 2.0308-10.163 5.4962-13.419 7.7009-3.2552 2.2047-6.1572 4.0086-6.4489 4.0086-0.29163 0-2.0937 1.3711-4.0046 3.0469-3.0059 2.636-7.8216 5.8331-10.769 7.1492-0.49005 0.21884 0.14277-0.85451 1.4062-2.3852zm26.203 1.9431c0-3.2163 15.34-17.289 17.017-15.612 0.61822 0.61822-0.14242 1.5967-2.2573 2.9037-1.7543 1.0842-5.4001 4.5127-8.1018 7.6189-4.3688 5.023-6.6583 6.7728-6.6583 5.089zm116.25-0.2467c0-0.44286 7.9102-6.1532 17.578-12.69 9.668-6.5365 20.32-13.967 23.672-16.513s7.9922-5.9834 10.312-7.639c2.3203-1.6557 4.4297-3.2736 4.6875-3.5953s1.3574-1.1933 2.4434-1.9369c3.1455-2.1535 11.748-9.5431 14.514-12.467 3.2135-3.3976 4.6583-5.0528 11.966-13.708 14.11-16.713 15.14-17.726 15.14-14.901 0 1.9105-9.1221 13.339-16.348 20.482-3.8993 3.8543-7.0896 7.5246-7.0896 8.1562 0 1.1099-12.338 11.868-18.476 16.11-3.1485 2.176-5.4493 4.0289-11.872 9.5602-6.4021 5.514-30.45 22.116-39.103 26.996-5.3041 2.9913-7.4242 3.604-7.4242 2.1454zm-228.2-0.93166c-0.90232-1.46 5.9695-7.2691 11.633-9.8344 0.77344-0.3503 2.6719-1.4769 4.2188-2.5035s4.0781-2.464 5.625-3.1942c3.7666-1.7779 20.855-11.017 34.569-18.69 6.1225-3.4256 11.712-6.2284 12.422-6.2284 2.5324 0 1.225 1.8698-2.6944 3.8534-2.1914 1.1091-5.0391 2.7583-6.3281 3.665-1.2891 0.90671-6.3516 3.7407-11.25 6.2978-12.555 6.5542-28.145 15.539-27.712 15.972 0.20044 0.20044 6.8341-2.9003 14.742-6.8904 7.9074-3.9902 16.065-8.0666 18.127-9.0586 2.0625-0.99206 4.8047-2.3917 6.0938-3.1102 1.2891-0.71859 5.1807-2.6882 8.6482-4.3768 7.1957-3.5044 7.3402-3.7978 3.6208-7.3523-2.5974-2.4822-4.499-3.0322-13.675-3.955l-2.8125-0.28283 2.6389-1.3089c3.1756-1.5751 9.7649-0.18294 13.695 2.8933 1.329 1.0403 4.2093 3.213 6.4007 4.8283 4.6649 3.4385 4.9693 4.4509 1.338 4.4509-1.4555 0-5.2591 1.2656-8.4524 2.8125s-6.1386 2.8125-6.5451 2.8125c-0.40646 0-2.8255 1.3282-5.3757 2.9515-5.7602 3.6667-18.241 9.9545-23.855 12.019-3.7945 1.395-15.56 6.9268-27.314 12.843-4.5652 2.2976-6.9324 2.7211-7.7565 1.3877zm455.54-0.14014c-0.33004-0.53402-2.1302-0.69176-4.1708-0.36545-2.823 0.45141-3.982 0.18221-5.4241-1.2599-2.7064-2.7064-10.734-8.1393-12.893-8.7263-1.0317-0.28041-2.0269-1.3351-2.2115-2.3438-0.1846-1.0086-1.626-3.0995-3.203-4.6464l-2.8674-2.8125 0.55981 2.8633c0.3079 1.5748 2.0446 5.0696 3.8592 7.7662 5.0747 7.5409 3.1126 11.497-3.2008 6.4544-3.1211-2.493-3.184-2.661-1.4798-3.9551 2.5055-1.9026 0.40146-4.7224-2.276-3.0503-2.241 1.3995-5.5975-1.3581-5.5975-4.5988 0-2.5183 1.1185-2.8334 2.8125-0.7922 2.1148 2.5481 2.5677 1.4843 2.1074-4.9492-0.56108-7.8419 1.3974-10.838 3.9092-5.9812 0.79524 1.5378 2.6145 3.7151 4.0428 4.8383s3.4406 3.7972 4.4719 5.9422c1.0312 2.145 2.6133 4.0363 3.5156 4.203 2.058 0.38023 2.1192-1.5017 0.12068-3.71-1.7486-1.9322-1.0873-4.784 0.92988-4.01 0.74574 0.28617 1.8343 1.6752 2.419 3.0868 0.58468 1.4116 2.4163 3.331 4.0702 4.2654 1.6539 0.93441 4.1974 3.0187 5.6521 4.6318 1.7347 1.9235 2.8102 2.5296 3.125 1.761 0.52537-1.2826 2.7796-1.5898 3.4395-0.46875 2.2951 3.8996 0.62134 9.6306-1.7107 5.8574zm-9.3737-7.498c-0.31867-0.51563-1.2928-0.93104-2.1647-0.92315-1.3662 0.0124-1.3909 0.13996-0.17904 0.92315 1.836 1.1865 3.077 1.1865 2.3438 0zm-258.05-2.0889c0.45458-1.3637 42.053-17.577 57.182-22.287 3.0109-0.93734 4.3968 0.4074 1.8336 1.7792-1.9102 1.0223-17.98 7.0195-21.743 8.1145-1.2891 0.37508-3.8141 1.4667-5.6111 2.4258-1.797 0.95907-4.1174 1.7538-5.1562 1.766-1.0389 0.0123-4.4201 1.065-7.5139 2.3394s-6.0469 2.3323-6.5625 2.3508c-0.51562 0.0185-3.0469 1.0713-5.625 2.3395-5.1724 2.5444-7.3885 2.926-6.8037 1.1716zm260.21-2.7778c-3.2558-1.8875-8.7585-10.138-10.151-15.22-0.85453-3.1193-2.8432-2.9306-2.2151 0.2102 0.74858 3.7429-1.1845 4.7811-2.6324 1.4138-1.5042-3.4981-1.3903-3.3911-3.799-3.5681-2.4604-0.18081-3.5475-3.2816-1.1505-3.2816 0.86055 0 2.8674-0.92767 4.4597-2.0615 1.9694-1.4023 3.0149-1.7021 3.2697-0.9375 0.20606 0.61818 0.86685 1.1398 1.4684 1.1592 4.5373 0.14603 9.5271 8.4023 5.078 8.4023-1.9562 0-1.96 0.0284-0.17904 1.3331 1.5732 1.1524 1.9214 1.1524 2.5695 0 0.9095-1.6172 2.7077-1.7195 4.1889-0.2382 2.7022 2.7022 13.614 4.8149 13.108 2.5379-0.41385-1.8623 1.5555-1.8023 4.7496 0.14487 4.0072 2.4428 3.9114 5.9066-0.17627 6.3737-1.4808 0.16922-3.1472-0.14719-3.7031-0.70313-0.55593-0.55593-2.0088-1.0108-3.2287-1.0108s-3.1294-0.48786-4.2436-1.0841c-1.1141-0.59625-3.3012-1.3914-4.8602-1.767-1.559-0.37555-3.5728-0.98752-4.4752-1.3599-2.9803-1.23-1.7755 1.5104 2.5781 5.864 5.9701 5.9701 5.7082 7.4827-0.65653 3.7929zm-264.59-1.587c-0.28169-0.45579 0.64262-1.2753 2.054-1.8212 11.981-4.6337 16.566-6.3512 29.285-10.97 7.9922-2.9025 19.207-6.8792 24.923-8.8372s11.227-4.0072 12.248-4.5538c2.2503-1.2043 16.904-15.738 18.845-18.692 1.3499-2.0533 3.9836-2.9172 3.9836-1.3067 0 1.6356-6.4754 9.2077-11.667 13.643-2.9469 2.5176-5.7048 5.4895-6.1286 6.6042-0.50199 1.3203-2.1912 2.4317-4.8467 3.1889-7.9052 2.2539-16.306 5.0464-20.014 6.6526-2.0625 0.8935-5.8594 2.2989-8.4375 3.1231-11.714 3.7447-31.875 11.104-34.996 12.775-2.3109 1.2368-4.5532 1.3198-5.2488 0.19434zm232.48-6.9057c-0.20146-0.64453-0.64562-2.8594-0.98703-4.9219s-1.656-5.114-2.9212-6.7811-3.9248-6.5637-5.9101-10.881c-3.7737-8.207-8.103-11.869-14.032-11.869-1.1666 0-5.1466-1.4413-8.8446-3.2028-3.698-1.7616-8.9241-3.8439-11.614-4.6275l-4.8899-1.4246-3.5476 4.5476c-1.9512 2.5012-4.7076 6.6929-6.1254 9.315-2.5586 4.7317-4.4534 6.1297-4.4534 3.2857 0-0.81493 3.1084-6.6157 6.9076-12.891 15.227-25.15 16.46-31.326 6.9205-34.68-2.5277-0.8886-2.03-3.4481 0.6705-3.4481 3.3544 0 8.6061 5.0054 9.5822 9.1329 0.77473 3.2759 1.3007 3.6796 9.4416 7.2463 4.7416 2.0774 8.631 4.3044 8.6431 4.949 0.0362 1.9298-2.3346 1.3668-10.891-2.5861-4.4737-2.0669-8.2365-3.6489-8.3616-3.5156-0.35196 0.37479-6.9758 14.105-6.9758 14.46 0 0.17258 1.2543 0.31379 2.7874 0.31379s4.7629 0.94922 7.1773 2.1094c3.2294 1.5518 4.4958 1.7996 4.7907 0.9375 0.55108-1.6111 3.0571-1.483 3.0571 0.15626 0 0.73046-0.52734 1.5239-1.1719 1.7632-0.64454 0.23931 0.0849 0.93361 1.6211 1.5429 1.9301 0.76549 2.8956 0.80002 3.125 0.11175 0.52356-1.5707 2.5431-1.1668 4.3945 0.87901 0.93327 1.0312 2.1989 1.875 2.8125 1.875s1.8792 0.84375 2.8125 1.875 2.6345 1.875 3.7805 1.875c2.7576 0 3.8165 1.4313 5.2113 7.0437 0.63902 2.5713 1.9572 5.5188 2.9293 6.55 3.8485 4.0827 8.6913 22.031 5.9443 22.031-0.83494 0-1.6829-0.52734-1.8844-1.1719zm-227.37-0.46875c0.0203-0.90069 18.606-7.7368 21.031-7.7354 3.0748 2e-3 0.51372 1.3943-9.2012 5.0031-9.273 3.4447-11.859 4.042-11.83 2.7323zm-0.0159-2.9321c0-1.4818 2.2184-2.6963 11.25-6.159 11.768-4.5118 12.694-4.8327 18.937-6.5625 4.8158-1.3344 8.0824-3.3308 5.4501-3.3308-0.57003 0-9.2396 2.7422-19.266 6.0938-19.893 6.6497-19.489 6.5418-19.002 5.0815 0.18559-0.55678 2.8439-1.8585 5.9073-2.8927 4.0553-1.3691 6.8031-3.1332 10.105-6.4877 5.1319-5.2135 4.6638-6.3747-0.53457-1.3261-3.5523 3.4499-6.284 4.2566-6.284 1.8557 0-6.1844 24.351-14.198 29.986-9.8677 3.162 2.4295 2.3126 2.8369-3.4311 1.6456-4.7655-0.98841-4.9232-0.94864-8.9062 2.2452-2.2302 1.7883-5.2516 4.0082-6.7143 4.9331-1.4627 0.92491-2.4255 1.9157-2.1394 2.2017 0.67608 0.6761 6.2052-1.6103 6.2052-2.566 0-0.40214 1.3711-1.6069 3.0469-2.6772s3.7649-2.4682 4.6425-3.1063c2.5567-1.8591 3.1465-0.0296 0.79676 2.4716l-2.1462 2.2846 4.5644-1.2213c10.418-2.7876 11.641-3.702 11.019-8.2404-0.62656-4.5713 2.1019-10.517 5.2904-11.529 5.6889-1.8056 13.983-15.017 14.016-22.326 0.0173-3.8041 0.281-4.4684 1.6612-4.1849 3.9662 0.81454-0.0589 16.258-5.402 20.727-4.564 3.8171 3.0466 1.3548 14.218-4.6001 3.1404-1.6739 3.6054-1.6617 3.6054 0.095 0 0.78178-1.4355 2.106-3.1901 2.9426s-3.6029 2.4119-4.1075 3.5005c-0.58277 1.2573-3.0952 2.7596-6.888 4.1187-13.661 4.8951-16.276 6.7286-16.34 11.454-0.0312 2.3203-0.37891 4.9211-0.77276 5.7795-0.65589 1.4295-0.25703 1.4181 4.7442-0.13585 5.3903-1.6748 8.6338-1.551 5.4879 0.2096-0.89066 0.49843-4.6362 1.7528-8.3235 2.7875s-7.126 2.1905-7.6416 2.5686c-0.51563 0.37803-3.0469 1.2483-5.625 1.9339s-5.5312 1.7618-6.5625 2.3916c-1.0312 0.62978-2.9297 1.45-4.2188 1.8227-3.5848 1.0364-19.008 6.9356-20.847 7.9736-2.0089 1.1341-2.5908 1.1557-2.5908 0.0963zm55.312-35.74c0-0.51563-0.44678-0.9375-0.99283-0.9375-0.54606 0-0.73209 0.42187-0.41342 0.9375 0.31868 0.51562 0.76545 0.9375 0.99283 0.9375s0.41342-0.42188 0.41342-0.9375zm-167.68 33.662c0.82238-1.2405 2.2752-2.4096 3.2284-2.598 2.1861-0.43202 0.27834 2.1765-2.7945 3.821-1.8605 0.99572-1.8759 0.95224-0.43384-1.2231zm378.85 0.99657c-2.4135-0.97013-2.8314-2.7833-0.64149-2.7833 1.9921 0 5.0946 1.7329 5.0946 2.8455 0 1.0976-1.6241 1.0749-4.4531-0.0622zm-241.89-4.8341c0.20411-0.61234 3.0869-2.029 6.4062-3.1481s11.52-4.0275 18.223-6.463c15.331-5.5702 15.469-5.6109 15.469-4.558 0 0.81025-5.3642 2.9641-20.625 8.2813-3.3516 1.1678-8.951 3.2208-12.443 4.5622-7.2549 2.7868-7.5339 2.8394-7.0294 1.3256zm232.93-1.5161c-2.7732-2.8946-3.2506-4.8706-1.1767-4.8706 1.4141 0 5.2201 4.7194 5.2201 6.4728 0 1.7156-1.3937 1.1633-4.0434-1.6023zm-262.21-0.13536c0-0.48939 1.4766-2.016 3.2812-3.3925 2.393-1.8252 3.2812-3.2239 3.2812-5.1667 0-1.6244 1.7785-5.3307 4.5578-9.4981 2.5068-3.7588 6.1073-9.1545 8.0012-11.99s4.7306-7.1602 6.3039-9.6094 3.2462-4.4531 3.7176-4.4531c1.3424 0 1.1466 0.43744-3.8747 8.6589-2.6025 4.261-5.2392 8.5836-5.8594 9.6056-0.62018 1.022-3.0066 4.5712-5.3032 7.887s-4.2547 7.1709-4.3513 8.5669c-0.31591 4.5631-1.2839 6.1678-4.9703 8.2397-4.043 2.2723-4.784 2.4508-4.784 1.1521zm107.81 0.12241c0-1.133 1.7786-2.454 2.4288-1.8038 0.23597 0.23597-0.21397 0.96269-0.99987 1.6149-0.89099 0.73946-1.4289 0.81059-1.4289 0.18893zm-206.95-1.8044c-1.9208-0.65067-1.3303-2.7921 0.9375-3.3998 3.7939-1.0167 5.5467-0.68722 5.225 0.9823-0.31361 1.6277-4.1043 3.1148-6.1625 2.4175zm342.13-3.7564c0.18765-0.98951 1.3311-1.7584 2.8812-1.9373 2.9685-0.34263 3.4122 1.1862 0.75674 2.6074-2.6696 1.4287-3.9899 1.1855-3.638-0.67014zm-269.29-2.213c-0.61596-1.1509-2.4368-3.1804-4.0463-4.5101-6.761-5.5854-9.5712-10.454-5.9764-10.354 2.3235 0.0648 13.009 11.189 13.188 13.729 0.22112 3.1437-1.7179 3.8391-3.1651 1.1351zm267.47-1.0682c0.21227-0.64453 1.3874-1.3179 2.6114-1.4963 1.943-0.28324 2.0678-0.13451 0.98366 1.1719-1.4682 1.7691-4.1505 2.0112-3.595 0.32441zm-96.242-1.9824c0.26999-0.70359 1.5873-1.7788 2.9273-2.3894 1.34-0.61054 4.7094-2.6188 7.4875-4.4628 5.7749-3.8332 7.5245-3.4996 3.5274 0.67251-5.1473 5.3726-15.371 9.9044-13.942 6.1797zm107.68-3.9037c-2.3888-5.4014-2.9848-9.817-1.3252-9.817 0.53181 0 1.2101 0.73828 1.5073 1.6406 0.2972 0.90235 1.5779 3.8499 2.846 6.5502 2.1944 4.6727 2.2565 6.8092 0.19787 6.8092-0.51356 0-1.9652-2.3323-3.2259-5.183zm-166.33 3.4366c-0.0195-1.2328 1.3936-3.188 8.4173-11.646 1.8047-2.1732 4.0294-5.4279 4.9437-7.2326 4.402-8.6884 29.518-39.375 32.227-39.375 1.9357 0 1.5249 1.3974-1.3118 4.4619-8.7089 9.4084-9.8859 12.783-1.4704 4.2164 2.1561-2.195 4.1749-3.9908 4.4861-3.9908 1.3878 0-2.0067 4.2554-10.576 13.258-5.0838 5.341-10.494 11.452-12.024 13.58-2.631 3.6615-10.368 12.535-20.24 23.211-2.4381 2.6369-4.442 4.2195-4.4531 3.5168zm-128.46-3.4099c1.211-1.2891 3.0775-2.3304 4.1478-2.3141 1.7907 0.0273 1.736 0.21431-0.68444 2.3438-3.6519 3.2128-6.4867 3.1886-3.4634-0.0296zm278.24-4.9219c-0.38857-5.6581-0.0865-7.7344 1.1251-7.7344 1.075 0 1.8567 3.6227 1.8712 8.6719 0.0198 6.869-2.5147 6.076-2.9964-0.9375zm-357.07-0.26542-2.4252-2.6833-5.3678 1.4017c-5.0967 1.3309-9.0005 1.1199-9.0005-0.48659 0-2.8742 19.172-1.5717 20.305 1.3794 1.0858 2.8294-1.0878 3.0701-3.5112 0.38875zm175.5-0.55989c2.5509-3.0736 19.586-9.8936 19.586-7.8412 0 0.53821-1.1602 1.4065-2.5781 1.9295-1.418 0.523-5.4367 2.411-8.9304 4.1956-7.0855 3.6191-10.207 4.2824-8.0775 1.7162zm78.649 1.0874c0-0.24258 4.3886-3.8289 9.7523-7.9696 5.6939-4.3956 10.179-8.601 10.778-10.106 0.56396-1.4175 3.2418-5.4108 5.9508-8.8739s6.1665-7.9983 7.6834-10.078c3.0416-4.1705 6.1164-5.3998 4.1823-1.6721-0.60193 1.1602-2.4332 3.7969-4.0696 5.8594-1.6363 2.0625-4.9222 6.7097-7.302 10.327-7.4652 11.348-26.975 27.63-26.975 22.513zm-244.68-3.5433c0.0029-0.64453 3.6429-3.4841 8.0889-6.3101 9.1232-5.7991 12.022-9.0225 9.4229-10.477-2.4598-1.3766-1.8636-2.6658 1.2329-2.6658 3.3709 0 4.0048 4.4154 1.2149 8.4633-3.3493 4.8595-19.973 14.013-19.96 10.99zm-19.346-2.991c-3.6932-1.6072-5.3598-3.8586-2.1049-2.8436 5.1064 1.5923 6.5272 2.3659 5.9779 3.2548-0.31927 0.51659-0.66106 0.92274-0.75954 0.90256-0.09848-0.0202-1.4995-0.61134-3.1134-1.3137zm350.5-0.51723c-1.1671-0.95398-2.6436-1.926-3.2812-2.16-0.83898-0.30792-0.8777-0.72656-0.14012-1.515 1.3006-1.3903 5.8126 0.18219 6.6293 2.3104 0.93754 2.4432-0.92121 3.2339-3.2079 1.3647zm40.091-0.49024c-2.3203-0.76254-5.3245-1.1552-6.676-0.87261-2.3487 0.49114-6.449-4.0457-6.449-7.1356 0-1.3936 2.4609-1.0309 3.7787 0.55695 0.65771 0.79248 1.8695 1.3495 2.6929 1.2379 0.8234-0.11164 2.9878 0.44593 4.8099 1.239 1.822 0.79311 4.6736 1.2423 6.3367 0.99819 1.7123-0.25131 3.6474 0.0736 4.4613 0.74911 1.0887 0.90358 1.7006 0.92969 2.5227 0.10767 1.6726-1.6726 3.5228-1.287 3.5228 0.7344 0 3.3281-8.175 4.6279-15 2.385zm-97.5-1.4596c0-2.7094 7.225-13.338 8.5218-12.537 1.1073 0.68434 0.12257 3.0104-3.6491 8.6197-3.1658 4.7083-4.8728 6.0804-4.8728 3.917zm-307.7-3.2465c-0.78457-0.79734-0.02954-8.0241 1.2939-12.385 0.73145-2.4101 0.61626-3.3497-0.55413-4.5201-1.8248-1.8248-1.9252-4.1561-0.1791-4.1561 3.6017 0 4.6835 4.6303 2.609 11.168-1.0779 3.3969-2.0817 7.1654-2.2305 8.3746-0.14887 1.2091-0.5715 1.8926-0.93918 1.519zm316.84-0.14486c-2.0367-0.53224-2.066-1.583-0.12655-4.543 2.8943-4.4172 7.0325-2.4133 5.025 2.4333-1.1263 2.7192-1.67 2.9534-4.8984 2.1097zm-11.016-1.7786c0-0.81806 1.3425-3.3568 2.9834-5.6416 4.206-5.8567 5.5988-3.7864 1.5812 2.3504-3.2194 4.9177-4.5646 5.8876-4.5646 3.2912zm107.34-1.6906c-2.6191-1.5516-5.949-2.4218-11.042-2.8855-5.5933-0.50925-7.8864-1.1643-9.8448-2.8122-1.5369-1.2932-4.4187-2.3874-7.2396-2.7487-2.5775-0.33018-6.4765-0.84514-8.6645-1.1444s-5.3254-0.0743-6.9721 0.49969c-4.0425 1.4092-5.5118-0.16191-2.188-2.3397 3.975-2.6045 20.829-0.62145 28.215 3.3199 4.0992 2.1875 6.5489 2.8514 10.52 2.8514 7.3491 0 16.645 5.6489 11.845 7.1976-0.48341 0.15596-2.5664-0.71618-4.6289-1.9381zm-289.8-0.0584c-0.28732-0.74876-0.24918-1.8034 0.0848-2.3438 0.79212-1.2817 3.309-1.2721 3.309 0.0126 0 0.92488 4.9464 0.65759 11.016-0.59524 3.302-0.68162 2.5925 2.061-0.84301 3.2586-4.4216 1.5414-12.927 1.3331-13.566-0.33213zm-101.84-0.58873c-2.7125-1.5799-1.9175-2.9914 1.4062-2.4969 5.3676 0.79852 10.817-1.5616 15.847-6.8629 4.8497-5.1116 7.0848-5.7832 3.6114-1.0852-6.0423 8.1726-16.112 13.213-20.865 10.445zm239.95-1.4544c-0.94983-0.94984 1.1824-4.2038 6.2122-9.4807 2.5775-2.704 5.5666-6.1772 6.6424-7.7182 2.0174-2.8895 4.2999-3.7532 4.2999-1.627 0 0.66396-3.3717 4.9882-7.4926 9.6094s-7.4959 8.7186-7.5 9.1053c-9e-3 0.85605-1.3482 0.92488-2.1619 0.11112zm-128.44-4.6875c-1.2575-1.2575 1.1895-3.9272 3.1336-3.4188 4.8188 1.2601 13.561-11.711 12.809-19.004-0.61322-5.9416 0.97297-8.6398 11.84-20.141 4.0408-4.2765 7.7218-8.7614 8.1799-9.9663 0.84236-2.2156 3.6919-3.0875 3.6919-1.1296 0 0.58367-0.89035 2.5018-1.9786 4.2626l-1.9786 3.2014 2.5479-0.63949c1.724-0.4327 2.8139-0.21951 3.3705 0.65926 0.66928 1.0568 0.8252 1.0174 0.83688-0.21127 0.0105-1.105 1.241-1.6553 4.5874-2.0516 3.0763-0.36435 7.6164-2.2266 13.872-5.6899 5.1143-2.8315 10.43-5.4321 11.812-5.7791 1.3824-0.34696 4.6562-2.707 7.2751-5.2445 4.4494-4.3111 7.6361-5.4402 5.7272-2.0292-0.45458 0.81229-0.62287 2.2556-0.37398 3.2074 0.29453 1.1263-0.15741 1.921-1.2945 2.2762-3.8019 1.1878-21.955 9.9701-27.059 13.091-2.0625 1.261-4.6423 2.2998-5.7329 2.3082-1.0906 8e-3 -3.0556 0.85917-4.3666 1.8904-2.7473 2.1611-4.0979 2.363-4.7018 0.70312-0.93948-2.5823-3.9391 0.83983-4.5673 5.2107-0.34026 2.3674-0.9518 4.853-1.359 5.5234-0.40717 0.67046 0.83272 0.028 2.7553-1.4276 7.162-5.4226 13.046 0.32608 6.1428 6.0011-2.6304 2.1622-2.8197 2.6421-1.7966 4.5538 1.7928 3.3498-0.46107 4.9856-2.8466 2.0661-1.7661-2.1614-1.8085-2.1669-1.8085-0.23438 0 1.0884-0.3375 1.9789-0.75 1.9789-1.4519 0-3-2.2738-3-4.4062 0-2.6487-0.90763-2.6879-5.6945-0.24579-3.831 1.9544-5.5555 1.7964-5.5555-0.50918 0-0.73947 2.4745-2.2028 5.7357-3.3919 6.7911-2.4762 5.7816-5.2332-1.517-4.1426-6.6884 0.99944-8.4375 3.07-8.4375 9.9884 0 11.214-14.322 27.917-19.498 22.74zm32.948-39.242c0.69408-0.65716 1.116-1.9045 0.9375-2.7719-0.25613-1.2449-1.0156-0.85063-3.6057 1.872-3.3227 3.4927-0.92454 4.3015 2.6682 0.89989zm108 37.256c-0.0239-1.3125 1.9963-4.2654 5.3522-7.823 2.9648-3.1431 6.0046-6.3641 6.755-7.1578 2.9738-3.1455 1.9786 0.88263-1.1606 4.6975-8.2479 10.023-10.906 12.52-10.947 10.283zm85.508 0.46769c0.59066-1.7739 3.5161-2.0261 3.5161-0.30311 0 0.86966-0.80156 1.475-1.9531 1.475-1.1456 0-1.7918-0.48452-1.563-1.1719zm-137-9.6314c-3.9088-8.6938-3.494-8.4697-9.5949-5.184-2.776 1.4951-9.0552 4.0212-13.954 5.6135-4.8984 1.5924-10.07 3.2771-11.493 3.7439-3.6822 1.208-8.6727-0.42209-12.736-4.16-5.0536-4.6491-2.8193-6.6311 2.5821-2.2904 3.3983 2.731 4.091 2.9519 6.2173 1.983 1.3161-0.59966 4.2147-1.0903 6.4412-1.0903 2.6286 0 4.8841-0.6575 6.4319-1.875 2.5947-2.041 4.9253-2.4142 5.8395-0.93497 0.59759 0.96692 2.2072 0.3575 5.3965-2.0432 1.4234-1.0714 0.76605-1.2579-4.8202-1.3678-5.9665-0.11732-6.5474 0.0463-7.4874 2.1094-1.8248 4.005-18.872 2.9328-18.872-1.187 0-1.1542 0.57105-1.3347 2.5781-0.81497 7.2469 1.8765 11.25 1.653 14.907-0.8324 2.7032-1.8368 4.7523-2.4291 8.4043-2.4291 4.9324 0 8.4651-2.6017 12.194-8.9805 1.0051-1.7192 1.1357-1.7265 2.8863-0.16013 2.7751 2.4831 3.0934 2.0953 3.0779-3.75-0.0159-5.9838-1.2314-9.3046-2.1374-5.8398-1.0252 3.9202-2.7416 1.3511-3.1678-4.7417-0.45568-6.513-1.2093-8.0386-3.5308-7.1477-0.99506 0.38184-1.3977 1.5354-1.2349 3.5381 0.3154 3.8799-1.7456 4.5895-2.56 0.88147-0.43476-1.9795-1.1839-2.8622-2.4291-2.8622-2.943 0-2.1-2.7995 1.0315-3.4258 1.5576-0.31153 3.0591-0.93379 3.3366-1.3828 0.27751-0.44902 1.3957-0.81641 2.4848-0.81641s2.7251-0.67414 3.6356-1.4981c2.0531-1.858 3.9845-0.82539 3.3064 1.7678-0.285 1.0898 0.066 2.3728 0.80461 2.9411 3.6277 2.7912 5.2 24.253 2.117 28.897-1.1411 1.7186-0.97771 2.5592 1.4247 7.3302 2.7398 5.441 4.4416 13.063 2.9162 13.061-0.45462-5.6e-4 -2.2532-3.1741-3.9969-7.0522zm-9.5772-11.163c-0.24664-0.24664-1.007 0.48159-1.6896 1.6183-1.1859 1.9747-1.1659 1.9946 0.44843 0.44844 0.92928-0.89008 1.4878-1.8201 1.2412-2.0667zm-62.721 15.055c0-1.4539 13.939-4.7546 17.739-4.2005 5.2325 0.76285 3.0796 2.6747-3.0118 2.6747-3.3297 0-7.8476 0.63281-10.04 1.4062-4.8404 1.7078-4.6875 1.7039-4.6875 0.11952zm154.71-5.088c-0.0321-1.5404 2.5624-6.7048 4.4498-8.8575 0.79008-0.90113 2.1866-3.8543 3.1035-6.5625 2.0956-6.1904 4.2509-6.6334 3.8726-0.796-0.18175 2.8041-1.0838 5.1437-2.8125 7.2949-5.6583 7.041-8.5893 10.077-8.6133 8.9211zm-303.78-0.93955c0-3.5651 6.7019-8.8589 8.6936-6.8672 0.7835 0.7835 0.76647 1.0564-0.06593 1.0564-0.61726 0-2.811 1.5256-4.875 3.3903s-3.7527 2.9539-3.7527 2.4204zm320.33-4.3824c0.46744-2.8805 0.24272-3.368-1.9339-4.1956-2.7765-1.0556-2.9918-1.776-1.2447-4.1653 4.2657-5.8337 8.9054 3.046 5.2143 9.9794-1.4596 2.7418-2.5966 1.8378-2.0357-1.6186zm-161.9 1.4845c0-1.2238 2.4877-1.9794 6.4048-1.9455 3.2271 0.0279 3.3268 0.11462 1.6191 1.4062-1.975 1.4938-8.0239 1.9004-8.0239 0.53924zm-50.155-4.4616c-2.0619-4.9349-2.8509-10.639-1.4716-10.639 1.7472 0 0.14358-1.8715-1.6315-1.904-0.87191-0.0159-2.9927-1.8975-4.7128-4.1812s-3.877-4.3901-4.793-4.6808c-0.91601-0.29073-3.7247-3.3334-6.2415-6.7616-2.5168-3.4281-5.1207-6.7775-5.7863-7.4432-1.9016-1.9016-12.993-4.9244-22.239-6.0612-4.6406-0.57054-9.3637-1.4745-10.496-2.0087-1.9019-0.89767-4.0403-0.73979-10.833 0.79979-3.2034 0.72611-3.3918-0.83751-0.27212-2.2589 3.8833-1.7694 11.001-2.2557 16.913-1.1554 13.08 2.4344 20.512 4.3162 22.5 5.6971 0.51563 0.35816 2.4985 1.1538 4.4063 1.7681 2.4226 0.78005 4.4721 2.5135 6.7953 5.7472 1.8296 2.5466 3.6436 4.6342 4.0312 4.6389 0.38757 5e-3 2.8141 2.7373 5.3922 6.0723 4.8588 6.2852 6.0938 7.2052 6.0938 4.5396 0-0.86277 1.2868 0.37568 2.8633 2.7558 2.2768 3.4373 2.8382 5.2465 2.741 8.8326-0.0672 2.4804 0.17005 5.67 0.52728 7.088 1.0114 4.0148-2.041 3.3332-3.787-0.84564zm149.53-0.88471c0-1.6262 2.8788-6.9415 3.7595-6.9415 0.2985 0 2.1514-2.1094 4.1175-4.6875 3.518-4.6131 6.1856-6.0324 6.1856-3.2912 0 0.76798-2.1094 3.7256-4.6875 6.5724-2.9835 3.2945-4.6875 6.0245-4.6875 7.5099 0 1.8644-0.47141 2.3338-2.3438 2.3338-1.5208 0-2.3438-0.52527-2.3438-1.496zm21.738-3.2501c0.22559-0.67677 0.96386-1.415 1.6406-1.6406 0.70312-0.23437 1.0547 0.11719 0.82031 0.82031-0.22559 0.67676-0.96387 1.415-1.6406 1.6406-0.70312 0.23437-1.0547-0.11719-0.82031-0.82031zm-163.3-4.4727c0-4.104 0.71923-5.2545 2.4084-3.8526 2.2204 1.8428 2.7468-1.3041 2.85-17.039 0.0562-8.5683 0.39748-16.057 0.75846-16.641 1.6887-2.7324 2.4206-0.36055 2.4206 7.8443 0 4.9764 0.39151 8.9062 0.88727 8.9062 1.257 0 12.027-6.4011 12.757-7.582 1.0897-1.7632-0.28991-1.9599-3.1982-0.45593-3.5215 1.821-3.8837 1.8287-3.8837 0.0826 0-0.76602 2.5005-2.655 5.5567-4.1978 6.2023-3.1309 8.4922-5.3924 4.4269-4.3721-3.4722 0.87147-3.1721-1.003 0.47574-2.9716 8.4617-4.5664 8.3489-7.7504-0.12342-3.4838-7.1761 3.6138-8.4609 3.9211-8.4609 2.0237 0-0.69811 3.9579-3.0575 8.7953-5.2431 6.1288-2.769 9.1071-4.658 9.8236-6.2307 1.3999-3.0725 1.1165-2.9936-10.835 3.0159-11.552 5.8084-12.866 5.882-13.825 0.77352-0.35889-1.9131-1.6778-5.1024-2.9309-7.0875-2.9501-4.6732-2.9369-4.7401 1.4646-7.4423 3.2531-1.9971 11.257-11.114 11.257-12.823 0-0.33229 1.5944-2.5298 3.543-4.8832 6.1045-7.3728 7.9338-10.761 5.255-9.7328-1.2041 0.46206-1.3833 0.16788-0.87432-1.4357 1.0922-3.4414-0.60692-2.3041-9.593 6.4207-4.7796 4.6406-9.1015 8.4375-9.6042 8.4375-1.8815 0-0.76817-1.9257 4.2422-7.3375 6.2026-6.6996 6.1583-6.3618 0.9375-7.1448-4.8072-0.72088-5.764-2.964-1.6406-3.846 4.0378-0.86373 6.7969-2.1684 6.7969-3.2141 0-0.52668 1.2905-0.9576 2.8678-0.9576s2.6202-0.40071 2.3175-0.89047c-0.69538-1.1252 2.4434-2.8453 5.2999-2.9046 3.0869-0.064 8.675-2.983 8.8932-4.6455 0.88151-6.7151 1.456-8.4345 2.818-8.4345 1.1752 0 1.3749 0.68703 0.95395 3.2812-0.75031 4.6236 0.79073 4.0925 2.04-0.70313 0.57087-2.1914 1.4418-4.605 1.9353-5.3635 1.5671-2.4083 2.2188-0.2393 1.1698 3.8933-0.55672 2.1933-0.83638 4.1636-0.62147 4.3785s0.92763-1.6166 1.5838-4.0701c1.0885-4.07 2.8633-6.1703 4.1374-4.8963 0.27599 0.27599-0.58596 3.5173-1.9154 7.2029-1.3295 3.6856-2.4172 7.6883-2.4172 8.8948s-1.5329 4.4509-3.4065 7.2098c-6.3479 9.3474-8.425 16.596-6.0754 21.201 3.0135 5.9059 4.9224 11.444 4.2949 12.459-0.89377 1.4461 3.3362 0.74871 8.4707-1.3966l3.3834-1.4137-0.21649-14.792c-0.24694-16.871 0.74318-29.324 2.3314-29.321 0.75877 9.3e-4 1.0959 6.622 1.1814 23.203l0.11968 23.202-6.9412 2.2282c-7.3519 2.36-11.579 4.9987-11.579 7.2274 0 1.604 5.7156-0.42986 8.6364-3.0731 0.98599-0.89231 3.3115-1.5168 5.6593-1.5197l3.9856-5e-3 0.46875 4.6023 0.46875 4.6023 1.8046-6.0938c2.2703-7.6666 8.025-20.102 12.806-27.672 3.4159-5.4086 3.6708-6.2946 3.6708-12.756 0-5.1527 0.48365-7.8462 1.875-10.442 2.7907-5.2071 1.0312-18.505-2.4484-18.505-0.58891 0-1.9501-2.0442-3.0249-4.5426-3.0296-7.0426-8.7087-7.9811-15.152-2.5039-1.8359 1.5607-7.1339 4.234-8.3909 4.234-2.7768 0-0.39599-2.6536 3.7034-4.1277 2.5781-0.92708 4.6875-2.1108 4.6875-2.6306 0-1.3571-4.6687-0.06726-7.7208 2.1331-1.4105 1.0169-3.6467 2.2603-4.9694 2.7631-2.1714 0.82557-2.3774 1.3374-2.1229 5.2741 0.18496 2.8609-0.12102 4.5011-0.89001 4.7708-0.64453 0.22605-1.1719-0.0865-1.1719-0.69462 0-0.60809-1.4766-4.2172-3.2812-8.0202-3.5188-7.4152-4.0321-10.229-2.0077-11.006 0.70048-0.2688 1.5405-2.1069 1.8668-4.0847 1.1879-7.2009 2.5315-10.627 4.1693-10.632 1.8815-0.0055 7.7987-4.5996 5.988-4.6491-0.67843-0.01854-2.0872 0.42317-3.1306 0.98158-1.6111 0.86224-1.844 0.75624-1.5449-0.70312 0.19373-0.94513-0.22608-2.1607-0.9329-2.7012-3.1422-2.403-4.9034-16.361-2.0644-16.361 1.0312 0 1.875-0.42188 1.875-0.9375s-1.1602-0.93851-2.5781-0.93975c-2.2221-2e-3 -3.096-0.92863-6.3281-6.7102-4.8072-8.599-5.4804-9.2251-9.9188-9.2251-3.6937 0-10.649 3.9839-12.393 7.0988-1.1806 2.108 0.0572 1.5955 4.6908-1.9425 4.3879-3.3504 5.8803-3.7369 9.184-2.3785 1.875 0.77098 1.875 0.77098 0 1.4096-9.2426 3.1479-20.18 10.224-20.142 13.031 0.0101 0.75241 0.22033 0.73889 0.71966-0.0463 2.0827-3.2751 17.072-10.366 19.171-9.0689 1.3461 0.83191-4.979 4.671-8.8859 5.3934-1.9316 0.35716-4.6738 1.6758-6.0938 2.9302l-2.5818 2.2808 3.75 3.2672c3.2962 2.8718 3.5006 3.2714 1.6889 3.3024-1.1336 0.01936-3.1991-1.0195-4.59-2.3086-3.2459-3.0082-3.249-3.0077-8.2378 1.3101-2.3219 2.0096-4.5624 3.8026-4.9789 3.9844-1.1182 0.4881-6.141 7.0994-7.9778 10.501-3.3309 6.1682-0.85455 16.548 3.9479 16.548 2.0001 0 3.1914 1.4273 2.3404 2.8041-0.36265 0.58679-1.8178 0.40955-3.9493-0.48106-4.4265-1.8495-4.4088-1.9163-1.7722 6.6725 4.1867 13.638 5.403 16.458 6.8584 15.899 0.74522-0.28597 1.7423-0.51994 2.2158-0.51994 0.47344 0 0.86082-0.63281 0.86082-1.4062 0-1.938 1.7993-1.7718 2.5377 0.23438 0.33212 0.90234 1.6138 2.5968 2.8481 3.7655 1.2823 1.2141 2.1567 3.0224 2.0398 4.2188-0.11246 1.1516 0.13068 2.8747 0.5403 3.8291 0.48885 1.139 0.29516 2.0199-0.56373 2.5638-1.5717 0.99517-1.1778 1.072 8.3009 1.6189 2.1266 0.12271 3.0469 0.63989 3.0469 1.7123 0 2.4496-11.243 1.1798-13.001-1.4685-1.8122-2.7294-3.2648-2.4416-2.5264 0.50042 0.43919 1.7499 0.15126 2.7812-1.0144 3.6336-1.4839 1.085-1.3634 1.3268 1.3634 2.7369 3.4577 1.788 4.3026 8.5839 1.5549 12.507-1.3376 1.9098-1.2385 2.3233 1.4458 6.0289 2.7863 3.8464 3.3758 7.3175 1.3555 7.9812-0.53822 0.17683-1.4908-1.095-2.1169-2.8264-0.62743-1.7351-2.1868-3.6256-3.4745-4.2123-2.8334-1.291-2.9059-2.8846-0.42795-9.4042l1.9074-5.0183-2.1779-2.0184c-1.1979-1.1102-4.024-4.5472-6.2802-7.6379s-7.5136-9.2088-11.683-13.596c-8.915-9.3802-13.172-15.319-12.408-17.311 0.94677-2.4672 2.0041-1.6386 7.4441 5.8341 9.109 12.513 18.074 21.396 19.824 19.645 1.7592-1.7592 1.1219-3.8057-1.7764-5.7047-1.3316-0.8725-3.8659-5.4304-6.6774-12.009l-4.5313-10.603-0.0407-10.965c-0.0224-6.0307-0.27645-10.671-0.56456-10.312-2.2308 2.778-10.257 17.134-10.257 18.346 0 0.89971-0.76859 1.5247-1.875 1.5247-3.872 0-1.4794-7.4783 5.3192-16.626 1.2394-1.6676 2.8506-4.7245 3.5805-6.7932 2.4462-6.9333 18.174-24.401 37.873-42.064 10.738-9.628 11.136-9.7211 21.014-4.9179 4.3415 2.1111 8.3079 3.8383 8.8142 3.8383 0.50629 0 1.6442 0.7996 2.5286 1.7769 1.6308 1.8021 7.12 3.2147 7.12 1.8324 0-0.41444-1.1602-1.4931-2.5781-2.3969-1.418-0.90388-4.6867-3.2867-7.2638-5.2951s-7.4287-4.8967-10.781-6.4184c-3.3526-1.5217-8.2087-3.789-10.791-5.0384-3.7008-1.7904-5.2899-2.0965-7.5-1.4447-2.845 0.83903-17.615 7.4984-22.168 9.9948-1.3686 0.75047-3.0988 1.3645-3.8447 1.3645-0.746 0-3.3805 1.0762-5.8544 2.3916-3.1444 1.6719-4.7946 2.0951-5.4834 1.4062-1.4353-1.4353-0.13697-2.3498 7.8271-5.5132 9.3149-3.6999 20.462-9.0962 22.385-10.837 2.9746-2.6919 10.233-4.0013 13.073-2.3582 4.555 2.6353 6.1905 3.4728 13.292 6.8059 8.8305 4.1449 21.564 13.417 23.429 17.059 1.7355 3.3902 2.5674 4.064 5.9146 4.7906 3.2607 0.70789 2.8611 4.163-1.1999 10.375l-2.5917 3.9644 6.4552 12.911c7.3443 14.689 9.5234 20.991 11.702 33.845 0.8453 4.9862 2.1143 9.898 2.8199 10.915 1.8982 2.736 1.5592 8.4747-0.76545 12.954-1.6191 3.1196-2.0612 5.6317-2.1094 11.984-0.0541 7.1422-0.34789 8.4705-2.639 11.933-3.0747 4.6467-3.1699 5.4973-0.70312 6.2802 1.0312 0.32731 1.875 0.93671 1.875 1.3542 0 0.41752 2.6008 2.393 5.7796 4.39 9.6168 6.0414 15.699 13.631 15.762 19.668 0.0207 1.9867-13.433 4.2481-15.965 2.6835-1.8841-1.1644-0.75411-2.3143 2.2742-2.3143 5.267 0 9.0234-1.0692 9.0234-2.5684 0-3.9703-4.8581-10.149-10.368-13.185-3.091-1.7036-7.0344-4.3394-8.7631-5.8573-3.6738-3.2256-3.6008-3.2832-7.8798 6.217-3.3924 7.5319-3.5453 8.4176-1.5832 9.1705 1.0853 0.41645 1.4062 2.2248 1.4062 7.9223 0 4.9411 0.6201 9.185 1.875 12.832 2.2976 6.678 2.3507 8.1978 0.27261 7.7976-2.0572-0.39618-5.8849-12.618-5.8923-18.813-3e-3 -2.4492-0.40133-4.4531-0.88536-4.4531s-1.1627 2.0039-1.5081 4.4531c-0.34542 2.4492-1.6369 6.2992-2.8699 8.5556-2.6781 4.9007-2.7353 5.4749-0.60128 6.0326 1.4181 0.3706 1.3933 0.4435-0.18307 0.5375-1.003 0.0598-3.0097 1.245-4.4593 2.6338-3.8762 3.7136-5.3828 1.6742-2.2135-2.9961 2.8494-4.1988 3.2077-7.2286 0.76209-6.4433-0.90234 0.28978-0.26953-0.39771 1.4062-1.5277 1.6758-1.13 3.0469-2.4005 3.0469-2.8233 0-0.42283 0.25607-1.4361 0.56905-2.2517 0.40795-1.0631 0.01-1.4829-1.4062-1.4829-1.0949 0-1.9753-0.60214-1.9753-1.3509 0-2.5189-1.6291-2.3734-5.5951 0.49952-4.4594 3.2304-4.5378 4.1574-0.22439 2.6537 5.336-1.8601 6.6819-0.47922 1.7159 1.7605-2.5148 1.1342-4.9171 2.0622-5.3384 2.0622-1.206 0-7.8944 6.4136-7.3041 7.0039 0.29117 0.29117 2.3852-0.31258 4.6534-1.3417 4.5319-2.0561 6.4677-2.3696 6.4677-1.0474 0 0.47563-1.3711 1.3329-3.0469 1.9051-1.6758 0.57217-6.2109 2.9064-10.078 5.1871-10.942 6.453-15.229 8.5995-18.374 9.1986-5.6007 1.0668-9.749 4.2725-9.7652 7.5463-0.0236 4.7623-2.4288 13.649-4.234 15.644-2.6685 2.9486-4.1888 2.3128-4.1888-1.7518zm32.789-33.409c0.6756-0.81405 0.95564-1.7528 0.62232-2.0861-0.67667-0.67667-5.2862 3.3325-5.2862 4.5978 0 1.0509 3.0868-0.61139 4.6638-2.5116zm5.0535-8.0653c1.3586-1.0687 2.4702-2.3275 2.4702-2.7973 0-1.2172-6.3823 1.9811-6.9606 3.4881-0.72121 1.8794 1.6956 1.5077 4.4904-0.69077zm8.0952-10.323c0-2.1548-8.3175 2.0627-9.1819 4.6558-0.22986 0.68962 1.5994 0.17143 4.394-1.2447 2.6333-1.3344 4.7878-2.8694 4.7878-3.4111zm-15.703-4.157c11.452-5.5836 12.687-8.2282 1.6406-3.5142-13.143 5.6086-15.938 6.4865-15.938 5.0064 0-0.99029 7.7943-4.7386 17.109-8.228 5.9563-2.2312 8.133-4.0282 4.8792-4.0282-1.8396 0-22.039 7.4622-23.701 8.7555-0.85326 0.66421-1.0472 2.0144-0.61802 4.3022 1.0629 5.6656 2e-3 5.812 16.627-2.2937zm23.622 2.0448c0.94293-0.68949 1.5326-1.799 1.3105-2.4655-0.28283-0.8485-1.2351-0.48151-3.1759 1.224-2.9525 2.5946-1.399 3.6285 1.8654 1.2415zm-37.424-7.5275c1.0171-0.70463 4.5914-2.2524 7.943-3.4396s6.5156-2.4509 7.0312-2.8083c0.51562-0.35745 2.0977-0.92705 3.5156-1.2658 2.878-0.68752 3.5153-2.4552 0.88516-2.4552-2.854 0-13.105 3.7905-16.522 6.1092-1.7769 1.2058-4.3847 2.3285-5.795 2.4947-3.2343 0.38127-4.1934 2.646-1.1206 2.646 1.2173 0 3.0454-0.57652 4.0625-1.2812zm13.802-11.047c5.864-2.1348 6.2494-2.9221 3.8776-7.9203-2.2972-4.8409-4.6039-4.0148-9.2234 3.303-1.1734 1.8588-2.8237 3.9525-3.6672 4.6526-4.2552 3.5315-0.74648 3.5177 9.0131-0.0353zm-3.2226-3.3118c0.67675-0.27081 1.4854-0.23751 1.7969 0.074 0.31152 0.31153-0.2422 0.5331-1.2305 0.4924-1.0921-0.045-1.3143-0.26713-0.56641-0.5664zm7.2804-22.567c-0.76725-0.76726-1.1307-0.15771-1.8195 3.0516l-0.60362 2.8125 1.4826-2.661c0.81544-1.4636 1.2386-2.905 0.94049-3.2031zm43.131-36.089c-1.831-11.604-13.928-38.885-16.824-37.943-8.2415 2.6812-5.7314 13.052 6.9693 28.794 5.1184 6.3441 9.3062 11.894 9.3062 12.334 0 0.43953 0.26485 0.79914 0.58857 0.79914 0.32371 0 0.30565-1.793-0.0401-3.9844zm-27.97-0.48898c3.2227-1.6795 5.8594-3.6838 5.8594-4.454s1.6875-2.0755 3.75-2.9008c4.0843-1.6342 4.4833-2.3337 2.3438-4.1094-1.1219-0.93111-1.6906-0.93111-2.8125 0-1.667 1.3834-1.9077-0.06105-0.28125-1.6875 1.9797-1.9797-0.31172-1.2094-5.0198 1.6875-2.514 1.5469-4.8478 2.8125-5.1861 2.8125s-1.4125 0.72151-2.3869 1.6033c-1.3252 1.1993-1.9487 1.3169-2.4742 0.46673-0.48513-0.78495-1.3526-0.25727-2.8037 1.7055l-2.1013 2.8421 2.1578 2.7291c1.1868 1.501 2.3688 2.6457 2.6266 2.5438 0.25781-0.1019 3.1055-1.5594 6.3281-3.2389zm-0.70312-5.4545c0-0.78213 4.0483-4.0659 5.0588-4.1035 0.46202-0.01715-0.298 1.0235-1.6889 2.3126-2.554 2.367-3.3698 2.8006-3.3698 1.7909zm15.049 0.89158c1.2775-3.36 0.53549-3.7615-3.2172-1.7405-2.4765 1.3337-2.9438 1.9806-2.115 2.9275 1.7757 2.0286 4.3254 1.4611 5.3322-1.1869zm-14.542-6.9636c1.009-1.6326-0.14017-1.9784-1.426-0.42903-0.73946 0.89098-0.81059 1.4289-0.18893 1.4289 0.54833 0 1.275-0.44994 1.6149-0.99987zm6.028-3.651c0.7585-0.47969 1.0649-1.1864 0.6808-1.5705-0.38406-0.38406-1.4115 0.01488-2.2831 0.88653-1.6944 1.6944-0.68009 2.1274 1.6023 0.68394zm0.46782-20.25c0.89811-2.3516 1.4054-4.5033 1.1272-4.7814-0.80756-0.80756-2.5054 0.60279-2.5054 2.0812 0 0.74301-0.67794 1.3509-1.5066 1.3509-0.98862 0-1.3109 0.50982-0.9375 1.4829 0.31298 0.81561 0.56905 2.0812 0.56905 2.8125 0 2.7114 1.6702 1.1988 3.2532-2.9461zm-8.8998-2.1378c-1.567-0.52235-3.9006 0.68886-3.2755 1.7002 0.36292 0.58721 1.2438 0.50518 2.4124-0.22467 1.0124-0.63228 1.4008-1.2962 0.8631-1.4755zm-1.8533-2.4374c0-0.22738-0.42188-0.67415-0.9375-0.99283-0.51563-0.31867-0.9375-0.13263-0.9375 0.41342 0 0.54606 0.42187 0.99283 0.9375 0.99283 0.51562 0 0.9375-0.18604 0.9375-0.41342zm11.919-2.3888c2.487-0.01236 6.8307-5.9032 6.8307-9.2635 0-2.2424-0.0414-2.2517-7.1744-1.6053-10.145 0.91934-12.513 1.5105-12.513 3.1241 0 1.1015 0.66032 1.2584 3.0469 0.72399 8.2444-1.8461 10.766-2.2862 13.312-2.3238 4.8164-0.0711 1.3406 1.7708-5.9703 3.1638-3.7583 0.71611-7.2958 1.7646-7.8612 2.3299-1.3764 1.3764 0.27118 1.3004 7.0788-0.32654 2.9634-0.70822 5.607-0.93328 5.8747-0.50013 0.65223 1.0553-0.0951 1.4067-5.8749 2.7627-5.9551 1.397-7.9566 3.4333-2.4866 2.5298 2.0138-0.33261 4.5954-0.60939 5.737-0.61507zm-4.9219-13.224c4.4224-0.72336 4.3355-0.74555-1.3724-0.35053-4.1632 0.28812-5.6482 0.13199-4.6875-0.49282 0.77344-0.503 2.4961-0.921 3.8281-0.9289 3.8915-0.02306 3.989-1.1927 0.25102-3.0109-3.9151-1.9043-10.188-2.2464-11.199-0.61078-0.4808 0.77795 0.42179 0.93407 3.2258 0.55798 4.6029-0.61738 6.154 0.77793 2.0477 1.842-2.6542 0.68777-3.8504 2.9402-1.2436 2.3416 0.7541-0.17317 0.96816 0.29202 0.58901 1.2801-0.4899 1.2767-0.20211 1.4272 1.6218 0.84833 1.2195-0.38707 4.342-1.0513 6.9387-1.476zm-11.216-8.3491c0.31868-0.51562-0.28924-0.9375-1.3509-0.9375s-1.9303 0.42188-1.9303 0.9375 0.60791 0.9375 1.3509 0.9375 1.6116-0.42188 1.9303-0.9375zm-10.368-1.4361c1.0009-0.75704 2.6884-1.3899 3.75-1.4062 1.9213-0.02968 1.9216-0.03634 0.062-1.4416-2.4615-1.8602-5.7192-1.3929-5.3563 0.76832 0.15943 0.94956-0.31088 1.6406-1.1166 1.6406-0.76561 0-1.6527 0.42188-1.9714 0.9375-0.88438 1.431 2.5733 1.0588 4.6323-0.49856zm92.399 202.74c0-0.65657 2.099-3.5042 4.6643-6.3281s4.6748-5.4508 4.6875-5.8375c0.0127-0.38671 0.44504-0.70312 0.96067-0.70312 1.7599 0 0.94102 2.3908-1.875 5.4739-1.5469 1.6936-2.8125 3.4016-2.8125 3.7955 0 0.86805-4.08 4.7931-4.9823 4.7931-0.35348 0-0.6427-0.5372-0.6427-1.1938zm61.833-5.5543c-0.61783-1.356-4.0366-3.7411-9.0203-6.293l-8.0254-4.1094-5.0553 1.5935c-5.6154 1.7701-6.8865 1.361-10.654-3.4288-1.0605-1.3482-2.869-2.585-4.0188-2.7484-2.7749-0.39438-2.6873-3.0252 0.11404-3.4217 4.1982-0.59424 6.5075 0.63363 7.6389 4.0617 0.59568 1.8049 1.6633 3.2817 2.3725 3.2817 2.2858 0 6.0652-2.1384 6.0652-3.4317 0-0.69066 0.42187-1.2558 0.9375-1.2558 0.51562 0 0.9375 0.37614 0.9375 0.83587s1.1183 1.1165 2.4851 1.4596c3.0891 0.77531 16.265 7.9453 16.265 8.851 0 0.36543 1.5006 1.207 3.3346 1.8702 4.0038 1.4478 4.1103 4.1692 0.18094 4.623-1.9357 0.22353-2.8054-0.23803-3.5571-1.8877zm-26.208-3.0831c0-1.4597 5.5655-4.2313 8.4967-4.2313 3.5 0 2.7296 1.9518-1.4831 3.7576-5.1979 2.2281-7.0135 2.3507-7.0135 0.47374zm-158.43-4.2244c-1.1621-2.1715-0.54691-3.7569 1.4579-3.7569 0.80727 0 1.3509 0.92092 1.3509 2.2884 0 3.0532-1.532 3.8541-2.8088 1.4685zm62.496 1.2431c-1.5558-1.5558-0.45732-3.125 2.1875-3.125 1.691 0 2.8125-0.48879 2.8125-1.2258 0-0.67421 1.793-1.9672 3.9844-2.8734 2.1914-0.90616 5.1042-2.253 6.4728-2.9929 2.8974-1.5665 6.4178-1.774 6.4178-0.37843 0 0.53181-0.73828 1.2364-1.6406 1.5658-0.90234 0.32938-2.8132 1.565-4.2464 2.7458-1.4331 1.1808-4.0813 2.4237-5.8848 2.762-1.8035 0.33834-3.7043 1.4098-4.2241 2.3811-0.91283 1.7056-4.599 2.421-5.8791 1.1409zm72.5-2.9164c0-1.2161 2.8585-4.8961 3.8032-4.8961 1.4823 0 0.98744 2.4286-0.8301 4.0734-1.85 1.6742-2.9731 1.985-2.9731 0.82265zm-13.125-2.1488c0-6.6465 14.559-15.177 18.587-10.89 3.5827 3.8136 1.0896 6.1579-3.5004 3.2914-1.5166-0.94717-2.5758-0.42243-7.5693 3.75-5.8093 4.8542-7.5169 5.7284-7.5169 3.8486zm-134.85-8.3723c-0.65646-2.3203-1.5716-5.4844-2.0338-7.0312-2.4662-8.2554-2.8796-19.219-0.72468-19.219 1.0505 0 0.12709-6.4253-1.1453-7.9688-6.073-7.3668-19.789-46.579-15.842-45.291 0.72776 0.23745 3.6693 7.3007 6.5918 15.829 2.9027 8.4699 7.071 18.986 9.2628 23.369 3.6927 7.3841 4.8969 11.199 10.316 32.677 1.8843 7.4687 1.8996 9.9591 0.0495 8.0413-0.7188-0.74508-6.5973-21.674-6.639-23.636-8e-3 -0.3722-0.4021-0.0637-0.87602 0.68536-0.91135 1.4407-0.73433 3.0599 1.5038 13.755 0.76882 3.674 1.2478 8.1037 1.0643 9.8438l-0.3335 3.1637-1.1936-4.2188zm137.18-5.515c-2.5056-3.4875-4.0626-4.7975-5.7025-4.7975-1.3802 0-2.2558-0.54587-2.2558-1.4062 0-0.77344-0.66216-1.4062-1.4714-1.4062-0.9772 0-1.3708-0.68387-1.1719-2.0359 0.3931-2.6715 2.6333-3.3612 3.2506-1.0008 0.29987 1.1467 1.8587 2.2604 4.1065 2.9338 5.3801 1.6119 10.257 8.9444 7.6701 11.532-0.68017 0.68017-2.0306-0.4851-4.4256-3.8186zm-66.396 0.20248c-1.404-1.404-0.68851-3.4073 0.78125-2.1875 0.77344 0.6419 1.4062 1.5373 1.4062 1.9898 0 0.9708-1.2972 1.088-2.1875 0.19771zm19.366-6.6406c-3.9442-9.3985-6.948-35.391-4.0899-35.391 1.9401 0 3.3531 3.3722 5.6963 13.594 1.1229 4.8984 3.103 11.561 4.4002 14.806 1.2973 3.2449 2.0578 6.198 1.69 6.5625-0.70853 0.70226-5.146-4.3076-5.2257-5.8998-0.0258-0.51563-0.63131-2.2031-1.3456-3.75l-1.2986-2.8125 0.53729 3.2812c0.2955 1.8047 1.1098 4.4204 1.8096 5.8128 1.5104 3.0053 1.6795 7.3122 0.28702 7.3122-0.54193 0-1.6493-1.582-2.4607-3.5156zm26.315-1.377c0.70395-3.5197 1.8653-4.9504 3.2992-4.0642 2.4713 1.5274 0.45816 7.0817-2.5668 7.0817-1.0046 0-1.1862-0.74853-0.73242-3.0176zm-137.86-7.2835c-1.691-2.8626-6.8834-5.8325-12.215-6.9864-3.0803-0.66673-5.647-2.8199-4.3291-3.6316 3.648-2.247 19.967 6.7684 19.967 11.031 0 3.187-1.3968 3.0186-3.4236-0.41259zm144.57-0.85158c-0.77224-1.4934-2.576-3.5727-4.0084-4.6207-2.39-1.7486-2.4588-1.9619-0.83632-2.5903 2.8584-1.107 7.0669 2.7495 8.5304 7.8168 0.92002 3.1857-1.9706 2.7106-3.6856-0.60581zm-132.17 0.66523c-0.21399-0.67721-0.64968-2.8009-0.96818-4.7193-1.1664-7.0256-10.417-14.198-17.637-13.674-5.5695 0.40372-5.1297 2.5083 1.1931 5.7098 10.709 5.4224 9.4856 7.4046-1.5095 2.4466-3.5518-1.6016-8.2892-3.739-10.528-4.7498-3.5085-1.5844-4.2196-1.6518-5.1562-0.48889-0.59754 0.74194-3.1213 1.8386-5.6084 2.4369-2.4871 0.59837-6.7399 2.3397-9.4508 3.8696-4.8971 2.7638-8.0585 3.5328-8.0585 1.9603 0-0.45175 2.9841-2.3895 6.6314-4.3061 7.2293-3.7989 8.0505-5.0977 1.8788-2.9714-2.7181 0.93645-3.8096 1.0194-3.5668 0.27098 0.1924-0.59312 2.2174-1.6566 4.5001-2.3632s5.5835-1.9667 7.3352-2.8001c3.5641-1.6958 6.7727-1.5446 10.739 0.50607 2.4711 1.2775 2.812 1.2345 4.4896-0.56625 3.7432-4.0178 14.163-2.3859 22.051 3.4534 3.3527 2.4821 5.9418 8.0782 5.9418 12.843 0 3.2479-1.5626 5.4044-2.2773 3.1426zm-56.785-22.175c0-0.43287 1.0547-1.2676 2.3438-1.8549 1.4174-0.64581 2.3438-1.8463 2.3438-3.0375 0-1.7007 0.38396-1.8853 2.8125-1.3519 2.2097 0.48533 2.8125 0.29651 2.8125-0.88088 0-1.1304-0.57589-1.354-2.3438-0.91035-3.3869 0.85006-3.4327-5.2579-0.0628-8.381 6.0841-5.6386 20.219-9.669 20.219-5.7653 0 0.98458-0.99293 1.4062-3.3114 1.4062-8.8088 0-19.745 9.2168-12.626 10.641 3.2376 0.64753 3.7924 3.2348 1.1719 5.4652-4.3285 3.6843-13.359 6.8409-13.359 4.6696zm66.985-1.7911c-0.52381-2.4527-3.3313-10.328-9.6085-26.953-3.383-8.9599-3.8049-10.938-2.4359-11.419 0.57464-0.20218 1.9748 2.4632 3.1501 5.9965 1.1636 3.4982 2.6841 7.6261 3.3788 9.1729 1.2421 2.7656 5.1105 13.972 7.5241 21.797 1.0506 3.4058 1.0339 3.9844-0.11451 3.9844-0.73895 0-1.5913-1.1602-1.8942-2.5781zm-37.454-2.7684c-3.0544-1.5545-9.8438-7.6973-9.8438-8.9063 0-1.8678 2.7861-0.34302 7.9498 4.3509 5.9144 5.3764 6.5605 6.9303 1.894 4.5554zm3.6321-10.825c0.3814-1.1856 0.0159-1.6406-1.3178-1.6406-1.0151 0-1.8456-0.42188-1.8456-0.9375 0-2.0298 15.006 0.48577 15.722 2.6357 0.47911 1.4373-4.1228 1.4654-8.1831 0.05-2.4467-0.85292-3.2368-0.80638-3.9783 0.23438-0.72011 1.0107-0.80824 0.9349-0.3975-0.34195zm1.2897-6.0369c-2.2409-0.58559-2.059-1.693 0.46278-2.8183 2.0688-0.92312 2.0534-0.96446-0.9375-2.5111-3.61-1.8668-3.8912-4.1894-1.2985-10.726 4.3734-11.025 4.3916-11.278 1.0589-14.717-1.747-1.8025-2.7265-3.5696-2.3322-4.2076 1.3159-2.1291 12.656 10.598 12.656 14.204 0 2.6468-1.5092 2.0683-2.8125-1.0782-1.669-4.0294-2.0926-3.6218-4.5108 4.3401l-2.167 7.135 2.081 2.2151c1.1445 1.2183 2.858 2.4617 3.8077 2.7631 5.719 1.8152-0.0123 6.9672-6.0076 5.4004zm12.272-24.994c-7.9031-10.89-13.913-25.594-13.913-34.041 0-4.2399 1.6455-3.9755 2.392 0.38434 1.205 7.0377 4.3447 16.385 7.0384 20.953 1.5164 2.5718 2.7571 4.8908 2.7571 5.1533s1.0547 2.0293 2.3438 3.9264c3.4444 5.0688 2.8706 8.4312-0.61829 3.6237zm53.587-3.6333c0-1.4233 6.1368-3.7689 10.312-3.9416 1.6165-0.0668 2.3033-0.60125 2.2135-1.7222-0.16479-2.0569 0.23218-2.04 2.538 0.10824 3.107 2.8946 1.4596 4.5596-5.0458 5.0996-3.1897 0.26475-6.7487 0.78326-7.9089 1.1522-1.5299 0.48658-2.1094 0.29529-2.1094-0.69632zm-9.375-2.3564c0-4.1582 2.7893-11.495 4.37-11.495 1.0133 0 1.1962 0.56193 0.68651 2.1094-0.38215 1.1602-1.1748 4.1922-1.7614 6.738-1.2059 5.233-3.2952 6.9118-3.2952 2.6478zm5.1562 0.69237c0.31868-0.51562 1.1873-0.9375 1.9303-0.9375s1.3509 0.42188 1.3509 0.9375c0 0.51563-0.86865 0.9375-1.9303 0.9375s-1.6696-0.42187-1.3509-0.9375zm-15.023-0.97549c-1.4757-2.3877 4.0218-14.025 6.6255-14.025 1.789 0 1.8131-0.10148-1.4458 6.0938-1.5469 2.9407-2.8125 5.9117-2.8125 6.6024 0 1.6888-1.5923 2.5823-2.3672 1.3284zm20.786-1.5429c-0.3176-0.31758 0.15428-1.1331 1.0486-1.8122 1.9493-1.4802 3.0323-1.6195 3.0323-0.38987 0 1.1661-3.3235 2.9595-4.0809 2.2021zm-6.2316-1.1978c0-1.1214 6.564-5.6588 8.1864-5.6588 2.0865 0 1.2504 1.3343-2.4968 3.9844-3.7758 2.6703-5.6896 3.2336-5.6896 1.6744zm13.125-0.9713c0-0.51562 0.42187-0.9375 0.9375-0.9375 0.51562 0 0.9375 0.42188 0.9375 0.9375 0 0.51563-0.42188 0.9375-0.9375 0.9375-0.51563 0-0.9375-0.42187-0.9375-0.9375zm-80.458-3.7865c-0.97945-1.0513-3.3364-4.1702-5.2377-6.9307l-3.4569-5.0193 1.1016-6.4286c0.60588-3.5357 1.6808-7.5678 2.3887-8.9602s1.2871-5.0861 1.2871-8.2082c0-6.8481 9.0921-27.266 13.775-30.935 4.739-3.7126 15.537-10.356 16.832-10.356 1.8491 0 1.5512 2.7677-0.37338 3.4699-9.0253 3.2927-17.087 11.428-22.377 22.583l-4.317 9.1029 0.63241 7.8573c0.55273 6.8673 0.44962 7.7871-0.81842 7.3005-5.218-2.0023-5.8494 12.214-0.87851 19.782 4.909 7.474 5.7386 11.355 1.4413 6.7421zm85.529 0.62157c-0.79426-2.0698 0.26242-3.1265 1.6945-1.6945 0.84553 0.84553 0.84913 1.3696 0.0151 2.2036-0.83402 0.83402-1.2406 0.71292-1.7096-0.50918zm-5.5904-0.66677c-0.34645-0.56056-0.17829-1.4708 0.37368-2.0228 1.1699-1.1699 4.2133 0.83181 3.3612 2.2107-0.71356 1.1546-2.9755 1.0408-3.7348-0.18791zm-34.403-0.93262c-0.90234-0.52462-1.6406-1.3732-1.6406-1.8857s-1.0547-2.0693-2.3438-3.4595c-2.7417-2.9568-3.0948-5.236-0.70313-4.5384 0.90235 0.26319 3.5515 0.74744 5.887 1.0761 4.6224 0.65052 5.6312 3.1108 2.7159 6.6236-0.73551 0.88622-1.2002 1.8523-1.0326 2.1469 0.55803 0.98093-1.22 1.0037-2.8828 0.03694zm63.984-3.2096c0-1.3211 6.9934-4.2136 10.188-4.2136 4.0027 0 1.4896 2.1635-4.3791 3.77-4.3361 1.1869-5.8085 1.2994-5.8085 0.44362zm-38.73-3.8816c-2.1051-2.1051 0.18237-6.8945 3.293-6.8945 2.0478 0 2.2533 2.6542 0.26465 3.4173-0.78257 0.3003-1.3099 1.1925-1.1719 1.9827 0.27035 1.5476-1.3301 2.5501-2.3857 1.4945zm8.1396-3.3789c0.31092-1.1602 0.57106-2.4258 0.5781-2.8125 7e-3 -0.38672 0.81142-0.70312 1.7875-0.70312 2.4976 0 3.4129 2.9407 1.3784 4.4284-2.6462 1.9349-4.393 1.5091-3.744-0.91277zm-23.622-5.5142c-2.0676-0.76487-3.6631-3.2503-2.7029-4.2105 0.27677-0.27677 1.6078 0.22052 2.9578 1.1051 5.6799 3.7216 11.277-1.937 7.9899-8.0783-1.2954-2.4205 0.24196-4.7939 1.9797-3.0562 5.9026 5.9027-2.2119 17.204-10.225 14.24zm23.617-0.97294c-2.0397-0.98762-4.0913-4.456-4.0913-6.9164 0-1.965 0.74174-1.6943 3.2052 1.1696 1.9262 2.2394 2.3504 2.3747 3.6725 1.1719 3.825-3.4799 4.2588-3.7084 4.9418-2.6033 0.38047 0.61562-0.4061 2.0061-1.8254 3.2269-1.3717 1.1799-2.494 2.7983-2.494 3.5964 0 1.657-0.59195 1.7186-3.4087 0.35473zm-21.669-4.2119c-1.8441-0.7441-1.3687-4.4302 0.74127-5.7479 2.4956-1.5586 3.7119-0.71525 3.7119 2.5738 0 2.0877-1.8664 4.311-3.1236 3.721-0.0867-0.04071-0.68504-0.2868-1.3296-0.54688zm22.251-5.4904c-0.96704-1.1652-0.87635-1.7612 0.49927-3.2812 3.0331-3.3515 6.2964-1.0817 4.1665 2.898-1.1618 2.1709-3.0532 2.3263-4.6658 0.38325zm-40.9-2.4148c0.61949-3.1508 3.5701-6.4774 4.1642-4.6949 0.38574 1.1572-2.267 6.327-3.7014 7.2136-0.78962 0.48801-0.9173-0.20693-0.46279-2.5187zm12.53 0.45349c-1.8649-1.8649 3.3166-7.1281 6.6174-6.7218 3.2785 0.40351 2.9308 2.1014-0.4979 2.432-1.6758 0.16158-3.0469 0.60829-3.0469 0.99269 0 1.3765-2.4086 3.9611-3.0726 3.2972zm20.496-2.1106c-1.3045-2.1108 0.4831-6.4033 4.1632-9.9969 3.6878-3.601 6.0716-3.8531 3.9245-0.41499-1.5843 2.5369-1.441 2.9414 0.97298 2.7459 4.0154-0.32526 5.3906 0.04285 5.3906 1.4429 0 1.0127-1.0365 1.4062-3.7034 1.4062-2.5455 0-3.9891 0.5105-4.6172 1.6328-0.50258 0.89805-1.2087 1.3379-1.5692 0.97737-0.3605-0.3605-1.3796 0.23884-2.2647 1.3319-1.1352 1.4019-1.8118 1.6596-2.2968 0.87476zm-23.049-7.5693c0-2.1231 6.5121-4.0583 9.4966-2.8221 2.754 1.1407 3.8995 3.4265 1.1976 2.3897-4.026-1.5449-5.9834-1.561-8.2621-0.06795-1.5662 1.0262-2.432 1.2043-2.432 0.50038zm21.241-9.2006c-0.2376-0.38672 0.99686-2.3906 2.7432-4.4531 3.0705-3.6263 3.1757-3.6704 3.1892-1.3353 0.0186 3.2214-4.688 7.8138-5.9324 5.7884z"/>
</svg>
