# Blender v3.0.0 OBJ File: 'terrain_rough_93.blend'
# www.blender.org
mtllib terrain_rough_93.mtl
o terrain_Rough_#93.001_terrain_Woods_#194.001
v 3.935000 -0.020000 0.000000
v 3.831000 -0.019998 -0.540800
v 3.831000 0.020002 -0.540800
v 3.935000 0.020000 -0.000000
v 3.534700 -0.019996 -1.037400
v 3.534700 0.020004 -1.037400
v 3.069900 -0.019995 -1.475600
v 3.069900 0.020005 -1.475600
v 2.460300 -0.019993 -1.841200
v 2.460300 0.020007 -1.841200
v 1.729700 -0.019992 -2.119900
v 1.729700 0.020008 -2.119900
v 0.901600 -0.019992 -2.297600
v 0.901600 0.020008 -2.297600
v 0.000000 -0.019991 -2.360000
v 0.000000 0.020009 -2.360000
v -0.901600 -0.019992 -2.297600
v -0.901600 0.020008 -2.297600
v -1.729700 -0.019992 -2.119900
v -1.729700 0.020008 -2.119900
v -2.460300 -0.019993 -1.841200
v -2.460300 0.020007 -1.841200
v -3.069900 -0.019995 -1.475600
v -3.069900 0.020005 -1.475600
v -3.534700 -0.019996 -1.037400
v -3.534700 0.020004 -1.037400
v -3.831000 -0.019998 -0.540800
v -3.831000 0.020002 -0.540800
v -3.935000 -0.020000 0.000000
v -3.935000 0.020000 -0.000000
v -3.831000 -0.020002 0.540800
v -3.831000 0.019998 0.540800
v -3.534700 -0.020004 1.037400
v -3.534700 0.019996 1.037400
v -3.069900 -0.020005 1.475600
v -3.069900 0.019995 1.475600
v -2.460300 -0.020007 1.841200
v -2.460300 0.019993 1.841200
v -1.729700 -0.020008 2.119900
v -1.729700 0.019992 2.119900
v -0.901600 -0.020008 2.297600
v -0.901600 0.019992 2.297600
v 0.000000 -0.020009 2.360000
v 0.000000 0.019991 2.360000
v 0.901600 -0.020008 2.297600
v 0.901600 0.019992 2.297600
v 1.729700 -0.020008 2.119900
v 1.729700 0.019992 2.119900
v 2.460300 -0.020007 1.841200
v 2.460300 0.019993 1.841200
v 3.069900 -0.020005 1.475600
v 3.069900 0.019995 1.475600
v 3.534700 -0.020004 1.037400
v 3.534700 0.019996 1.037400
v 3.831000 -0.020002 0.540800
v 3.831000 0.019998 0.540800
vt 0.825474 0.460420
vt 0.860669 0.464489
vt 0.859699 0.466984
vt 0.791296 0.467698
vt 0.825474 0.457726
vt 0.759715 0.487854
vt 0.790286 0.465172
vt 0.731662 0.519232
vt 0.757954 0.485757
vt 0.708132 0.559906
vt 0.729457 0.517620
vt 0.690637 0.608647
vt 0.705672 0.558756
vt 0.679780 0.663576
vt 0.688035 0.607921
vt 0.676593 0.723168
vt 0.677111 0.663238
vt 0.679017 0.783003
vt 0.673908 0.723207
vt 0.694280 0.836979
vt 0.681667 0.782588
vt 0.711168 0.885892
vt 0.691720 0.837783
vt 0.713566 0.884685
vt 0.735935 0.926067
vt 0.738060 0.924427
vt 0.765275 0.956405
vt 0.766946 0.954313
vt 0.797907 0.975767
vt 0.798878 0.973272
vt 0.833102 0.982529
vt 0.833102 0.979835
vt 0.868290 0.975084
vt 0.867280 0.972558
vt 0.900622 0.954498
vt 0.898861 0.952401
vt 0.929120 0.922635
vt 0.926915 0.921024
vt 0.952905 0.881500
vt 0.978796 0.776680
vt 0.984668 0.717049
vt 0.981466 0.777018
vt 0.976909 0.657667
vt 0.981983 0.717088
vt 0.950444 0.880350
vt 0.970542 0.832335
vt 0.964297 0.603276
vt 0.966856 0.602473
vt 0.979560 0.657253
vt 0.945010 0.555571
vt 0.920516 0.515828
vt 0.947408 0.554364
vt 0.891630 0.485942
vt 0.922641 0.514189
vt 0.893302 0.483850
vt 0.022459 0.985749
vt 0.021697 0.987066
vt 0.014788 0.985890
vt 0.967939 0.831609
vt 0.410040 0.910519
vt 0.357310 0.857803
vt 0.652107 0.903357
vt 0.020788 0.988083
vt 0.019766 0.988735
vt 0.016516 0.988144
vt 0.018659 0.988971
vt 0.017551 0.988758
vt 0.015581 0.987177
vt 0.014163 0.984345
vt 0.013755 0.982583
vt 0.023026 0.984171
vt 0.013590 0.980659
vt 0.023480 0.980462
vt 0.013694 0.978729
vt 0.023316 0.978538
vt 0.014045 0.976950
vt 0.022908 0.976776
vt 0.014612 0.975372
vt 0.022283 0.975231
vt 0.015374 0.974055
vt 0.016282 0.973038
vt 0.021490 0.973944
vt 0.017305 0.972386
vt 0.019520 0.972363
vt 0.018412 0.972150
vt 0.020554 0.972976
vt 0.023377 0.982392
vt 0.312551 0.787943
vt 0.277514 0.703666
vt 0.772172 0.689030
vt 0.253923 0.607665
vt 0.790046 0.591802
vt 0.243530 0.502690
vt 0.794214 0.486397
vt 0.247698 0.397285
vt 0.783821 0.381422
vt 0.265572 0.300057
vt 0.295566 0.213855
vt 0.760231 0.285421
vt 0.336116 0.141471
vt 0.725193 0.201144
vt 0.385637 0.085730
vt 0.680434 0.131284
vt 0.442553 0.049446
vt 0.568743 0.045713
vt 0.505289 0.035446
vt 0.627704 0.078568
vt 0.742178 0.775232
vt 0.701628 0.847616
vt 0.595192 0.939641
vt 0.532455 0.953641
vt 0.469001 0.943374
vn 0.9820 0.0000 0.1888
vn 0.9820 -0.0000 -0.1888
vn 0.8588 0.0000 -0.5124
vn 0.6860 0.0000 -0.7276
vn 0.5143 0.0000 -0.8576
vn 0.3564 0.0000 -0.9343
vn 0.2098 0.0000 -0.9777
vn 0.0690 0.0000 -0.9976
vn -0.0690 0.0000 -0.9976
vn -0.2098 0.0000 -0.9777
vn -0.3564 0.0000 -0.9343
vn -0.5143 0.0000 -0.8576
vn -0.6860 0.0000 -0.7276
vn -0.8588 0.0000 -0.5124
vn -0.9820 -0.0000 -0.1888
vn -0.9820 0.0000 0.1888
vn -0.8588 0.0000 0.5124
vn -0.6860 0.0000 0.7276
vn -0.5143 0.0000 0.8576
vn -0.0690 0.0000 0.9976
vn 0.0690 0.0000 0.9976
vn -0.3564 0.0000 0.9343
vn 0.2098 0.0000 0.9777
vn 0.3564 0.0000 0.9343
vn 0.5143 0.0000 0.8576
vn 0.6860 0.0000 0.7276
vn 0.8588 0.0000 0.5124
vn -0.0000 -1.0000 -0.0000
vn -0.2098 0.0000 0.9777
vn -0.0000 1.0000 0.0000
usemtl Default_OBJ.016
s 1
f 1/1/1 56/2/1 55/3/1
f 2/4/2 4/5/2 1/1/2
f 5/6/3 3/7/3 2/4/3
f 7/8/4 6/9/4 5/6/4
f 9/10/5 8/11/5 7/8/5
f 11/12/6 10/13/6 9/10/6
f 13/14/7 12/15/7 11/12/7
f 15/16/8 14/17/8 13/14/8
f 15/16/9 18/18/9 16/19/9
f 19/20/10 18/18/10 17/21/10
f 19/20/11 22/22/11 20/23/11
f 21/24/12 24/25/12 22/22/12
f 23/26/13 26/27/13 24/25/13
f 25/28/14 28/29/14 26/27/14
f 27/30/15 30/31/15 28/29/15
f 29/32/16 32/33/16 30/31/16
f 31/34/17 34/35/17 32/33/17
f 33/36/18 36/37/18 34/35/18
f 35/38/19 38/39/19 36/37/19
f 41/40/20 44/41/20 42/42/20
f 45/43/21 44/41/21 43/44/21
f 37/45/22 40/46/22 38/39/22
f 45/43/23 47/47/23 48/48/23
f 45/43/23 48/48/23 46/49/23
f 49/50/24 48/48/24 47/47/24
f 51/51/25 50/52/25 49/50/25
f 53/53/26 52/54/26 51/51/26
f 55/3/27 54/55/27 53/53/27
f 37/56/28 35/57/28 21/58/28
f 41/40/29 40/46/29 39/59/29
f 6/60/30 8/61/30 54/62/30
f 1/1/1 4/5/1 56/2/1
f 2/4/2 3/7/2 4/5/2
f 5/6/3 6/9/3 3/7/3
f 7/8/4 8/11/4 6/9/4
f 9/10/5 10/13/5 8/11/5
f 11/12/6 12/15/6 10/13/6
f 13/14/7 14/17/7 12/15/7
f 15/16/8 16/19/8 14/17/8
f 15/16/9 17/21/9 18/18/9
f 19/20/10 20/23/10 18/18/10
f 19/20/11 21/24/11 22/22/11
f 21/24/12 23/26/12 24/25/12
f 23/26/13 25/28/13 26/27/13
f 25/28/14 27/30/14 28/29/14
f 27/30/15 29/32/15 30/31/15
f 29/32/16 31/34/16 32/33/16
f 31/34/17 33/36/17 34/35/17
f 33/36/18 35/38/18 36/37/18
f 35/38/19 37/45/19 38/39/19
f 41/40/20 43/44/20 44/41/20
f 45/43/21 46/49/21 44/41/21
f 37/45/22 39/59/22 40/46/22
f 49/50/24 50/52/24 48/48/24
f 51/51/25 52/54/25 50/52/25
f 53/53/26 54/55/26 52/54/26
f 55/3/27 56/2/27 54/55/27
f 33/63/28 31/64/28 25/65/28
f 31/64/28 29/66/28 27/67/28
f 25/65/28 31/64/28 27/67/28
f 25/65/28 23/68/28 33/63/28
f 23/68/28 21/58/28 35/57/28
f 33/63/28 23/68/28 35/57/28
f 21/58/28 19/69/28 37/56/28
f 19/69/28 17/70/28 39/71/28
f 37/56/28 19/69/28 39/71/28
f 17/70/28 15/72/28 43/73/28
f 15/72/28 13/74/28 45/75/28
f 13/74/28 11/76/28 47/77/28
f 11/76/28 9/78/28 49/79/28
f 9/78/28 7/80/28 49/79/28
f 7/80/28 5/81/28 51/82/28
f 49/79/28 7/80/28 51/82/28
f 5/81/28 2/83/28 55/84/28
f 2/83/28 1/85/28 55/84/28
f 55/84/28 53/86/28 5/81/28
f 53/86/28 51/82/28 5/81/28
f 49/79/28 47/77/28 11/76/28
f 47/77/28 45/75/28 13/74/28
f 45/75/28 43/73/28 15/72/28
f 43/73/28 41/87/28 17/70/28
f 41/87/28 39/71/28 17/70/28
f 41/40/29 42/42/29 40/46/29
f 10/88/30 12/89/30 48/90/30
f 12/89/30 14/91/30 46/92/30
f 14/91/30 16/93/30 44/94/30
f 16/93/30 18/95/30 42/96/30
f 18/95/30 20/97/30 42/96/30
f 20/97/30 22/98/30 40/99/30
f 42/96/30 20/97/30 40/99/30
f 22/98/30 24/100/30 38/101/30
f 24/100/30 26/102/30 36/103/30
f 38/101/30 24/100/30 36/103/30
f 26/102/30 28/104/30 32/105/30
f 28/104/30 30/106/30 32/105/30
f 32/105/30 34/107/30 26/102/30
f 34/107/30 36/103/30 26/102/30
f 38/101/30 40/99/30 22/98/30
f 42/96/30 44/94/30 16/93/30
f 44/94/30 46/92/30 14/91/30
f 46/92/30 48/90/30 12/89/30
f 48/90/30 50/108/30 10/88/30
f 50/108/30 52/109/30 10/88/30
f 52/109/30 54/62/30 8/61/30
f 10/88/30 52/109/30 8/61/30
f 54/62/30 56/110/30 6/60/30
f 56/110/30 4/111/30 3/112/30
f 6/60/30 56/110/30 3/112/30
