# Blender v3.0.0 OBJ File: 'terrain_steep_hill_164.blend'
# www.blender.org
mtllib terrain_steep_hill_164.mtl
o terrain_Steep_Hill_#164.001_terrain_Wooded_Hill_#114.001
v -3.935000 0.000000 0.000000
v -3.831000 0.000000 0.710343
v -3.831000 0.038512 0.710343
v -3.935000 0.038512 -0.000000
v -3.534700 0.000000 1.362622
v -3.534700 0.038512 1.362622
v -3.069900 0.000000 1.938238
v -3.069900 0.038512 1.938238
v -2.460300 0.000000 2.418492
v -2.460300 0.038512 2.418492
v -1.729700 0.000000 2.784686
v -1.729700 0.038513 2.784686
v -0.901600 0.000000 3.018022
v -0.901600 0.038513 3.018022
v 0.000000 0.000001 3.100000
v 0.000000 0.038514 3.100000
v 0.901600 0.000000 3.018022
v 0.901600 0.038513 3.018022
v 1.729700 0.000000 2.784686
v 1.729700 0.038513 2.784686
v 2.460300 0.000000 2.418492
v 2.460300 0.038512 2.418492
v 3.069900 0.000000 1.938238
v 3.069900 0.038512 1.938238
v 3.534700 0.000000 1.362622
v 3.534700 0.038512 1.362622
v 3.831000 0.000000 0.710343
v 3.831000 0.038512 0.710343
v 3.935000 0.000000 0.000000
v 3.935000 0.038512 -0.000000
v 3.831000 -0.000000 -0.710343
v 3.831000 0.038512 -0.710343
v 3.534700 -0.000000 -1.362622
v 3.534700 0.038512 -1.362622
v 3.069900 -0.000000 -1.938238
v 3.069900 0.038512 -1.938238
v 2.460300 -0.000000 -2.418492
v 2.460300 0.038512 -2.418492
v 1.729700 -0.000000 -2.784686
v 1.729700 0.038512 -2.784686
v 0.901600 -0.000000 -3.018022
v 0.901600 0.038511 -3.018022
v 0.000000 -0.000001 -3.100000
v 0.000000 0.038511 -3.100000
v -0.901600 -0.000000 -3.018022
v -0.901600 0.038511 -3.018022
v -1.729700 -0.000000 -2.784686
v -1.729700 0.038512 -2.784686
v -2.460300 -0.000000 -2.418492
v -2.460300 0.038512 -2.418492
v -3.069900 -0.000000 -1.938238
v -3.069900 0.038512 -1.938238
v -3.534700 -0.000000 -1.362622
v -3.534700 0.038512 -1.362622
v -3.831000 -0.000000 -0.710343
v -3.831000 0.038512 -0.710343
v -3.831000 0.038512 0.710343
v -3.935000 0.038512 -0.000000
v -3.534700 0.038512 1.362622
v -3.831000 0.038512 -0.710343
v -3.069900 0.038512 1.938238
v -2.460300 0.038512 2.418492
v -1.729700 0.038513 2.784686
v -0.901600 0.038513 3.018022
v 0.000000 0.038514 3.100000
v 0.901600 0.038513 3.018022
v 1.729700 0.038513 2.784686
v 2.460300 0.038512 2.418492
v 3.069900 0.038512 1.938238
v 3.534700 0.038512 1.362622
v 3.831000 0.038512 0.710343
v 3.935000 0.038512 -0.000000
v 3.831000 0.038512 -0.710343
v 3.534700 0.038512 -1.362622
v 3.069900 0.038512 -1.938238
v 2.460300 0.038512 -2.418492
v 1.729700 0.038512 -2.784686
v 0.901600 0.038511 -3.018022
v 0.000000 0.038511 -3.100000
v -0.901600 0.038511 -3.018022
v -1.729700 0.038512 -2.784686
v -2.460300 0.038512 -2.418492
v -3.069900 0.038512 -1.938238
v -3.534700 0.038512 -1.362622
v -1.048014 0.786998 -0.533943
v -1.065080 0.786998 -0.650504
v -0.999394 0.786998 -0.426911
v -1.048014 0.786998 -0.767064
v -0.923125 0.786998 -0.332458
v -0.823096 0.786998 -0.253653
v -0.703211 0.786998 -0.193564
v -0.567328 0.786998 -0.155276
v -0.419384 0.786999 -0.141824
v -0.271441 0.786998 -0.155276
v -0.135558 0.786998 -0.193564
v -0.015673 0.786998 -0.253653
v 0.084356 0.786998 -0.332458
v 0.160625 0.786998 -0.426911
v 0.209245 0.786998 -0.533943
v 0.226311 0.786998 -0.650504
v 0.209245 0.786998 -0.767064
v 0.160625 0.786998 -0.874097
v 0.084356 0.786998 -0.968550
v -0.015673 0.786998 -1.047355
v -0.135558 0.786998 -1.107443
v -0.271441 0.786998 -1.145732
v -0.419384 0.786998 -1.159184
v -0.567328 0.786998 -1.145732
v -0.703211 0.786998 -1.107443
v -0.823096 0.786998 -1.047355
v -0.923125 0.786998 -0.968550
v -0.999394 0.786998 -0.874097
vt 0.503354 0.794561
vt 0.503354 0.736910
vt 0.506543 0.736910
vt 0.506543 0.794561
vt 0.503354 0.679650
vt 0.506543 0.679650
vt 0.503354 0.624745
vt 0.506543 0.624745
vt 0.665262 0.863135
vt 0.718241 0.780846
vt 0.722841 0.783199
vt 0.669258 0.866401
vt 0.755277 0.684558
vt 0.760244 0.685972
vt 0.774903 0.577796
vt 0.780042 0.578278
vt 0.774905 0.463658
vt 0.780042 0.463207
vt 0.754437 0.351449
vt 0.759402 0.350077
vt 0.715883 0.250234
vt 0.720499 0.247961
vt 0.661576 0.162918
vt 0.665656 0.159801
vt 0.594814 0.091834
vt 0.598143 0.087943
vt 0.517922 0.040191
vt 0.520236 0.035646
vt 0.433811 0.010335
vt 0.434848 0.005354
vt 0.344923 0.005162
vt 0.344489 0.000088
vt 0.258353 0.026380
vt 0.256464 0.021627
vt 0.180999 0.071395
vt 0.177890 0.067298
vt 0.114857 0.136856
vt 0.110861 0.133591
vt 0.061887 0.219143
vt 0.057287 0.216790
vt 0.024853 0.315429
vt 0.019886 0.314016
vt 0.005227 0.422191
vt 0.000088 0.421709
vt 0.503354 0.624745
vt 0.503354 0.694132
vt 0.500165 0.694132
vt 0.500165 0.624745
vt 0.503354 0.765995
vt 0.500165 0.765995
vt 0.503354 0.834385
vt 0.500165 0.834385
vt 0.503354 0.897143
vt 0.500165 0.897143
vt 0.503354 0.952145
vt 0.500165 0.952145
vt 0.503354 0.997245
vt 0.500165 0.997245
vt 0.503354 0.892242
vt 0.503354 0.847735
vt 0.506543 0.847735
vt 0.506543 0.892242
vt 0.009175 0.990890
vt 0.008057 0.989195
vt 0.019375 0.991833
vt 0.000088 0.536780
vt 0.000088 0.421709
vt 0.650246 0.448521
vt 0.619872 0.621630
vt 0.608064 0.617364
vt 0.759402 0.350077
vt 0.435504 0.999912
vt 0.345145 0.994795
vt 0.345145 0.994795
vt 0.020729 0.649910
vt 0.000088 0.536780
vt 0.720499 0.247961
vt 0.059631 0.752025
vt 0.020729 0.649910
vt 0.523504 0.978229
vt 0.435504 0.999912
vt 0.665656 0.159801
vt 0.114471 0.840184
vt 0.059631 0.752025
vt 0.598143 0.087943
vt 0.181975 0.912041
vt 0.114471 0.840184
vt 0.520236 0.035646
vt 0.259851 0.964351
vt 0.181975 0.912041
vt 0.434848 0.005354
vt 0.602204 0.932700
vt 0.602204 0.932700
vt 0.344489 0.000088
vt 0.669258 0.866401
vt 0.259851 0.964351
vt 0.256464 0.021627
vt 0.177890 0.067298
vt 0.722841 0.783199
vt 0.760244 0.685972
vt 0.110861 0.133591
vt 0.780042 0.578278
vt 0.057287 0.216790
vt 0.523504 0.978229
vt 0.019886 0.314016
vt 0.780042 0.463207
vt 0.595035 0.615260
vt 0.588846 0.706826
vt 0.381769 0.954901
vt 0.553751 0.694324
vt 0.564009 0.700456
vt 0.722210 0.474520
vt 0.630130 0.627762
vt 0.319254 0.917533
vt 0.545366 0.686628
vt 0.784725 0.511888
vt 0.638515 0.635458
vt 0.268155 0.870629
vt 0.539182 0.677666
vt 0.835824 0.558792
vt 0.644699 0.644419
vt 0.230468 0.816017
vt 0.535525 0.667740
vt 0.900694 0.738460
vt 0.646938 0.675328
vt 0.649160 0.664940
vt 0.873511 0.613404
vt 0.648357 0.654346
vt 0.203284 0.690961
vt 0.208179 0.755522
vt 0.887157 0.801766
vt 0.641979 0.684668
vt 0.216822 0.627656
vt 0.534722 0.657146
vt 0.895800 0.673900
vt 0.247047 0.570737
vt 0.536943 0.646758
vt 0.856932 0.858684
vt 0.634645 0.692708
vt 0.291737 0.521735
vt 0.541903 0.637418
vt 0.812241 0.907686
vt 0.625302 0.699197
vt 0.348680 0.482190
vt 0.549236 0.629377
vt 0.755299 0.947231
vt 0.614313 0.703882
vt 0.415651 0.453641
vt 0.558579 0.622889
vt 0.688328 0.975780
vt 0.602038 0.706508
vt 0.490453 0.437638
vt 0.569569 0.618204
vt 0.613525 0.991783
vt 0.570848 0.435701
vt 0.581843 0.615578
vt 0.533130 0.993720
vt 0.575818 0.704722
vt 0.453732 0.980900
vt 0.007268 0.987214
vt 0.006852 0.985013
vt 0.022735 0.986480
vt 0.006852 0.982658
vt 0.023166 0.984166
vt 0.007284 0.980344
vt 0.008096 0.978256
vt 0.023166 0.981811
vt 0.009234 0.976453
vt 0.021961 0.977629
vt 0.010643 0.974991
vt 0.020844 0.975934
vt 0.012269 0.973928
vt 0.014057 0.973319
vt 0.019440 0.974590
vt 0.015950 0.973222
vt 0.017795 0.973664
vt 0.022750 0.979610
vt 0.021923 0.988568
vt 0.020784 0.990371
vt 0.017749 0.992896
vt 0.010578 0.992234
vt 0.015962 0.993505
vt 0.012223 0.993160
vt 0.014068 0.993602
vn -0.9895 0.0000 0.1449
vn -0.9105 0.0000 0.4136
vn -0.7780 0.0000 0.6282
vn -0.6188 0.0000 0.7855
vn -0.4481 0.0000 0.8940
vn -0.2712 0.0000 0.9625
vn -0.0906 0.0000 0.9959
vn 0.0906 0.0000 0.9959
vn 0.2712 0.0000 0.9625
vn 0.4481 0.0000 0.8940
vn 0.6188 0.0000 0.7855
vn 0.7780 0.0000 0.6282
vn 0.9105 0.0000 0.4136
vn 0.9895 0.0000 0.1449
vn 0.9895 0.0000 -0.1449
vn 0.9105 0.0000 -0.4136
vn 0.7780 0.0000 -0.6282
vn 0.6188 0.0000 -0.7855
vn 0.4481 0.0000 -0.8940
vn 0.2712 0.0000 -0.9625
vn 0.0906 0.0000 -0.9959
vn -0.0906 0.0000 -0.9959
vn -0.2712 0.0000 -0.9625
vn -0.4481 0.0000 -0.8940
vn -0.6188 0.0000 -0.7855
vn -0.7780 0.0000 -0.6282
vn -0.9105 0.0000 -0.4136
vn -0.9895 -0.0000 -0.1449
vn 0.0000 -1.0000 0.0000
vn 0.0000 0.0000 1.0000
vn -0.0664 0.9305 -0.3601
vn -0.1269 0.9324 -0.3385
vn -0.0666 0.9305 -0.3601
vn 0.0000 1.0000 -0.0000
vn 0.0785 0.9774 0.1965
vn 0.1077 0.9788 0.1744
vn 0.0743 0.9772 0.1990
vn -0.1333 0.9328 -0.3347
vn -0.1801 0.9378 -0.2968
vn 0.1112 0.9789 0.1711
vn 0.1375 0.9802 0.1423
vn -0.1892 0.9391 -0.2868
vn -0.2223 0.9456 -0.2377
vn 0.1400 0.9803 0.1391
vn 0.1635 0.9812 0.1022
vn -0.2299 0.9475 -0.2224
vn -0.2498 0.9541 -0.1652
vn 0.1644 0.9813 0.1004
vn 0.1845 0.9814 0.0533
vn -0.2514 0.9679 0.0044
vn -0.2320 0.9705 0.0648
vn -0.2536 0.9673 -0.0058
vn -0.2537 0.9559 -0.1479
vn -0.2604 0.9617 -0.0851
vn 0.1974 0.9803 0.0027
vn 0.1840 0.9814 0.0548
vn -0.2297 0.9707 0.0701
vn -0.2006 0.9720 0.1223
vn 0.2029 0.9777 -0.0545
vn 0.1984 0.9801 -0.0036
vn -0.2604 0.9630 -0.0700
vn 0.1992 0.9732 -0.1151
vn 0.2029 0.9769 -0.0664
vn -0.1993 0.9720 0.1242
vn -0.1640 0.9725 0.1655
vn 0.1851 0.9668 -0.1764
vn 0.1965 0.9717 -0.1313
vn -0.1635 0.9725 0.1660
vn -0.1248 0.9726 0.1960
vn 0.1593 0.9587 -0.2357
vn 0.1786 0.9645 -0.1945
vn -0.1244 0.9726 0.1962
vn -0.0841 0.9729 0.2155
vn 0.1206 0.9495 -0.2896
vn 0.1489 0.9559 -0.2530
vn -0.0831 0.9729 0.2159
vn -0.0427 0.9734 0.2251
vn 0.0682 0.9404 -0.3332
vn 0.1073 0.9469 -0.3032
vn -0.0407 0.9734 0.2253
vn -0.0018 0.9743 0.2252
vn 0.0038 0.9333 -0.3591
vn 0.0550 0.9385 -0.3407
vn 0.0015 0.9744 0.2248
vn 0.0376 0.9756 0.2162
vn -0.0045 0.9327 -0.3607
vn 0.0417 0.9758 0.2147
usemtl Default_OBJ.001
s 1
f 1/1/1 2/2/1 3/3/1
f 1/1/1 3/3/1 4/4/1
f 2/2/2 5/5/2 6/6/2
f 2/2/2 6/6/2 3/3/2
f 5/5/3 7/7/3 8/8/3
f 5/5/3 8/8/3 6/6/3
f 7/9/4 9/10/4 10/11/4
f 7/9/4 10/11/4 8/12/4
f 9/10/5 11/13/5 12/14/5
f 9/10/5 12/14/5 10/11/5
f 11/13/6 13/15/6 14/16/6
f 11/13/6 14/16/6 12/14/6
f 13/15/7 15/17/7 16/18/7
f 13/15/7 16/18/7 14/16/7
f 15/17/8 17/19/8 18/20/8
f 15/17/8 18/20/8 16/18/8
f 17/19/9 19/21/9 20/22/9
f 17/19/9 20/22/9 18/20/9
f 19/21/10 21/23/10 22/24/10
f 19/21/10 22/24/10 20/22/10
f 21/23/11 23/25/11 24/26/11
f 21/23/11 24/26/11 22/24/11
f 23/25/12 25/27/12 26/28/12
f 23/25/12 26/28/12 24/26/12
f 25/27/13 27/29/13 28/30/13
f 25/27/13 28/30/13 26/28/13
f 27/29/14 29/31/14 30/32/14
f 27/29/14 30/32/14 28/30/14
f 29/31/15 31/33/15 32/34/15
f 29/31/15 32/34/15 30/32/15
f 31/33/16 33/35/16 34/36/16
f 31/33/16 34/36/16 32/34/16
f 33/35/17 35/37/17 36/38/17
f 33/35/17 36/38/17 34/36/17
f 35/37/18 37/39/18 38/40/18
f 35/37/18 38/40/18 36/38/18
f 37/39/19 39/41/19 40/42/19
f 37/39/19 40/42/19 38/40/19
f 39/41/20 41/43/20 42/44/20
f 39/41/20 42/44/20 40/42/20
f 41/45/21 43/46/21 44/47/21
f 41/45/21 44/47/21 42/48/21
f 43/46/22 45/49/22 46/50/22
f 43/46/22 46/50/22 44/47/22
f 45/49/23 47/51/23 48/52/23
f 45/49/23 48/52/23 46/50/23
f 47/51/24 49/53/24 50/54/24
f 47/51/24 50/54/24 48/52/24
f 49/53/25 51/55/25 52/56/25
f 49/53/25 52/56/25 50/54/25
f 51/55/26 53/57/26 54/58/26
f 51/55/26 54/58/26 52/56/26
f 53/59/27 55/60/27 56/61/27
f 53/59/27 56/61/27 54/62/27
f 55/60/28 1/1/28 4/4/28
f 55/60/28 4/4/28 56/61/28
f 23/63/29 21/64/29 35/65/29
f 44/66/30 78/67/30 42/44/30
f 80/68/31 109/69/32 108/70/33
f 20/22/30 66/71/30 18/20/30
f 4/72/30 60/73/30 56/74/30
f 46/75/30 79/76/30 44/66/30
f 22/24/30 67/77/30 20/22/30
f 48/78/30 80/79/30 46/75/30
f 3/80/30 58/81/30 4/72/30
f 24/26/30 68/82/30 22/24/30
f 50/83/30 81/84/30 48/78/30
f 26/28/30 69/85/30 24/26/30
f 52/86/30 82/87/30 50/83/30
f 28/30/30 70/88/30 26/28/30
f 54/89/30 83/90/30 52/86/30
f 30/32/30 71/91/30 28/30/30
f 8/12/30 59/92/30 6/93/30
f 32/34/30 72/94/30 30/32/30
f 10/11/30 61/95/30 8/12/30
f 56/74/30 84/96/30 54/89/30
f 34/36/30 73/97/30 32/34/30
f 36/38/30 74/98/30 34/36/30
f 12/14/30 62/99/30 10/11/30
f 14/16/30 63/100/30 12/14/30
f 38/40/30 75/101/30 36/38/30
f 16/18/30 64/102/30 14/16/30
f 40/42/30 76/103/30 38/40/30
f 6/93/30 57/104/30 3/80/30
f 42/44/30 77/105/30 40/42/30
f 18/20/30 65/106/30 16/18/30
f 107/107/34 108/70/34 93/108/34
f 67/109/35 96/110/36 95/111/37
f 81/112/38 110/113/39 109/69/32
f 68/114/40 97/115/41 96/110/36
f 82/116/42 111/117/43 110/113/39
f 69/118/44 98/119/45 97/115/41
f 83/120/46 112/121/47 111/117/43
f 70/122/48 99/123/49 98/119/45
f 58/124/50 85/125/51 86/126/52
f 84/127/53 88/128/54 112/121/47
f 72/129/55 99/123/49 71/130/56
f 57/131/57 87/132/58 85/125/51
f 73/133/59 100/134/60 72/129/55
f 60/135/61 86/126/52 88/128/54
f 74/136/62 101/137/63 73/133/59
f 59/138/64 89/139/65 87/132/58
f 75/140/66 102/141/67 74/136/62
f 61/142/68 90/143/69 89/139/65
f 76/144/70 103/145/71 75/140/66
f 62/146/72 91/147/73 90/143/69
f 77/148/74 104/149/75 76/144/70
f 63/150/76 92/151/77 91/147/73
f 78/152/78 105/153/79 77/148/74
f 64/154/80 93/108/81 92/151/77
f 79/155/82 106/156/83 78/152/78
f 65/157/84 94/158/85 93/108/81
f 80/68/31 107/107/86 79/155/82
f 66/159/87 95/111/37 94/158/85
f 19/160/29 17/161/29 41/162/29
f 17/161/29 15/163/29 43/164/29
f 15/163/29 13/165/29 43/164/29
f 13/165/29 11/166/29 45/167/29
f 43/164/29 13/165/29 45/167/29
f 11/166/29 9/168/29 49/169/29
f 9/168/29 7/170/29 51/171/29
f 7/170/29 5/172/29 51/171/29
f 5/172/29 2/173/29 53/174/29
f 51/171/29 5/172/29 53/174/29
f 2/173/29 1/175/29 55/176/29
f 55/176/29 53/174/29 2/173/29
f 51/171/29 49/169/29 9/168/29
f 49/169/29 47/177/29 11/166/29
f 47/177/29 45/167/29 11/166/29
f 43/164/29 41/162/29 17/161/29
f 41/162/29 39/178/29 19/160/29
f 39/178/29 37/179/29 19/160/29
f 37/179/29 35/65/29 21/64/29
f 19/160/29 37/179/29 21/64/29
f 35/65/29 33/180/29 25/181/29
f 33/180/29 31/182/29 27/183/29
f 31/182/29 29/184/29 27/183/29
f 27/183/29 25/181/29 33/180/29
f 25/181/29 23/63/29 35/65/29
f 44/66/30 79/76/30 78/67/30
f 80/68/31 81/112/38 109/69/32
f 20/22/30 67/77/30 66/71/30
f 4/72/30 58/81/30 60/73/30
f 46/75/30 80/79/30 79/76/30
f 22/24/30 68/82/30 67/77/30
f 48/78/30 81/84/30 80/79/30
f 3/80/30 57/104/30 58/81/30
f 24/26/30 69/85/30 68/82/30
f 50/83/30 82/87/30 81/84/30
f 26/28/30 70/88/30 69/85/30
f 52/86/30 83/90/30 82/87/30
f 28/30/30 71/91/30 70/88/30
f 54/89/30 84/96/30 83/90/30
f 30/32/30 72/94/30 71/91/30
f 8/12/30 61/95/30 59/92/30
f 32/34/30 73/97/30 72/94/30
f 10/11/30 62/99/30 61/95/30
f 56/74/30 60/73/30 84/96/30
f 34/36/30 74/98/30 73/97/30
f 36/38/30 75/101/30 74/98/30
f 12/14/30 63/100/30 62/99/30
f 14/16/30 64/102/30 63/100/30
f 38/40/30 76/103/30 75/101/30
f 16/18/30 65/106/30 64/102/30
f 40/42/30 77/105/30 76/103/30
f 6/93/30 59/92/30 57/104/30
f 42/44/30 78/67/30 77/105/30
f 18/20/30 66/71/30 65/106/30
f 109/69/34 110/113/34 90/143/34
f 110/113/34 111/117/34 89/139/34
f 111/117/34 112/121/34 89/139/34
f 112/121/34 88/128/34 87/132/34
f 89/139/34 112/121/34 87/132/34
f 88/128/34 86/126/34 85/125/34
f 85/125/34 87/132/34 88/128/34
f 89/139/34 90/143/34 110/113/34
f 90/143/34 91/147/34 109/69/34
f 91/147/34 92/151/34 109/69/34
f 92/151/34 93/108/34 108/70/34
f 109/69/34 92/151/34 108/70/34
f 93/108/34 94/158/34 106/156/34
f 94/158/34 95/111/34 105/153/34
f 95/111/34 96/110/34 105/153/34
f 96/110/34 97/115/34 104/149/34
f 105/153/34 96/110/34 104/149/34
f 97/115/34 98/119/34 102/141/34
f 98/119/34 99/123/34 101/137/34
f 99/123/34 100/134/34 101/137/34
f 101/137/34 102/141/34 98/119/34
f 102/141/34 103/145/34 97/115/34
f 103/145/34 104/149/34 97/115/34
f 105/153/34 106/156/34 94/158/34
f 106/156/34 107/107/34 93/108/34
f 67/109/35 68/114/40 96/110/36
f 81/112/38 82/116/42 110/113/39
f 68/114/40 69/118/44 97/115/41
f 82/116/42 83/120/46 111/117/43
f 69/118/44 70/122/48 98/119/45
f 83/120/46 84/127/53 112/121/47
f 70/122/48 71/130/56 99/123/49
f 58/124/50 57/131/57 85/125/51
f 84/127/53 60/135/61 88/128/54
f 72/129/55 100/134/60 99/123/49
f 57/131/57 59/138/64 87/132/58
f 73/133/59 101/137/63 100/134/60
f 60/135/61 58/124/50 86/126/52
f 74/136/62 102/141/67 101/137/63
f 59/138/64 61/142/68 89/139/65
f 75/140/66 103/145/71 102/141/67
f 61/142/68 62/146/72 90/143/69
f 76/144/70 104/149/75 103/145/71
f 62/146/72 63/150/76 91/147/73
f 77/148/74 105/153/79 104/149/75
f 63/150/76 64/154/80 92/151/77
f 78/152/78 106/156/83 105/153/79
f 64/154/80 65/157/84 93/108/81
f 79/155/82 107/107/86 106/156/83
f 65/157/84 66/159/87 94/158/85
f 80/68/31 108/70/33 107/107/86
f 66/159/87 67/109/35 95/111/37
