# Blender v3.0.0 OBJ File: 'terrain_steep_hill_156.blend'
# www.blender.org
mtllib terrain_steep_hill_156.mtl
o terrain_Steep_Hill_#156.001_terrain_Wooded_Hill_#106.001
v -1.871207 -0.094364 0.002055
v -1.821683 -0.094364 0.657432
v -1.821683 -0.043163 0.657432
v -1.871207 -0.043163 0.002055
v -1.680492 -0.094364 1.259244
v -1.680492 -0.043162 1.259244
v -1.458945 -0.094364 1.790283
v -1.458945 -0.043162 1.790283
v -1.168588 -0.094364 2.233340
v -1.168588 -0.043162 2.233340
v -0.820373 -0.094364 2.571087
v -0.820373 -0.043162 2.571087
v -0.425849 -0.094364 2.786435
v -0.425849 -0.043162 2.786435
v 0.003793 -0.094364 2.862056
v 0.003793 -0.043162 2.862056
v 0.433436 -0.094364 2.786435
v 0.433436 -0.043162 2.786435
v 0.827960 -0.094364 2.571087
v 0.827960 -0.043162 2.571087
v 1.176174 -0.094364 2.233340
v 1.176174 -0.043162 2.233340
v 1.466532 -0.094364 1.790283
v 1.466532 -0.043162 1.790283
v 1.688079 -0.094364 1.259244
v 1.688079 -0.043162 1.259244
v 1.829270 -0.094364 0.657432
v 1.829270 -0.043163 0.657432
v 1.878793 -0.094364 0.002055
v 1.878793 -0.043163 0.002055
v 1.829270 -0.094364 -0.653321
v 1.829270 -0.043163 -0.653321
v 1.688079 -0.094365 -1.255133
v 1.688079 -0.043163 -1.255133
v 1.466532 -0.094365 -1.786172
v 1.466532 -0.043163 -1.786172
v 1.176174 -0.094365 -2.229229
v 1.176174 -0.043163 -2.229229
v 0.827960 -0.094365 -2.566976
v 0.827960 -0.043163 -2.566976
v 0.433436 -0.094365 -2.782325
v 0.433436 -0.043163 -2.782325
v 0.003793 -0.094365 -2.857945
v 0.003793 -0.043163 -2.857945
v -0.425849 -0.094365 -2.782325
v -0.425849 -0.043163 -2.782325
v -0.820373 -0.094365 -2.566976
v -0.820373 -0.043163 -2.566976
v -1.168588 -0.094365 -2.229229
v -1.168588 -0.043163 -2.229229
v -1.458945 -0.094365 -1.786172
v -1.458945 -0.043163 -1.786172
v -1.680492 -0.094365 -1.255133
v -1.680492 -0.043163 -1.255133
v -1.821683 -0.094364 -0.653321
v -1.821683 -0.043163 -0.653321
v -0.807964 0.299336 -0.191078
v -0.817078 0.299336 -0.311691
v -0.781979 0.299336 -0.080322
v -0.807964 0.299336 -0.432305
v -0.741206 0.299336 0.017409
v -0.687770 0.299336 0.098947
v -0.623686 0.299336 0.161105
v -0.551079 0.299336 0.200738
v -0.472008 0.299336 0.214654
v -0.392938 0.299336 0.200738
v -0.320331 0.299336 0.161105
v -0.256247 0.299336 0.098947
v -0.202810 0.299336 0.017409
v -0.162038 0.299336 -0.080322
v -0.136053 0.299336 -0.191078
v -0.126939 0.299336 -0.311691
v -0.136053 0.299336 -0.432305
v -0.162038 0.299336 -0.543061
v -0.202810 0.299336 -0.640791
v -0.256247 0.299336 -0.722330
v -0.320331 0.299336 -0.784488
v -0.392938 0.299336 -0.824120
v -0.472008 0.299336 -0.838037
v -0.551079 0.299336 -0.824120
v -0.623686 0.299336 -0.784488
v -0.687770 0.299336 -0.722330
v -0.741206 0.299336 -0.640791
v -0.781979 0.299336 -0.543061
vt 0.987421 0.953841
vt 0.987421 0.879666
vt 0.993710 0.879666
vt 0.993710 0.953841
vt 0.987421 0.804489
vt 0.993710 0.804489
vt 0.987421 0.661891
vt 0.987421 0.599847
vt 0.993710 0.599847
vt 0.993710 0.661891
vt 0.987421 0.042741
vt 0.993710 0.000000
vt 0.993710 0.042741
vt 1.000000 0.445897
vt 0.993710 0.497389
vt 0.993710 0.445897
vt 0.993710 0.096885
vt 0.987421 0.096885
vt 0.993710 0.159751
vt 0.987421 0.159751
vt 0.993710 0.228653
vt 0.987421 0.228653
vt 0.993710 0.300930
vt 0.987421 0.300930
vt 0.993710 0.373882
vt 0.993710 0.444831
vt 0.987421 0.444831
vt 0.987421 0.373882
vt 0.993710 0.507707
vt 0.987421 0.507707
vt 0.993710 0.809739
vt 0.993710 0.748378
vt 1.000000 0.748378
vt 1.000000 0.809739
vt 0.987421 0.730995
vt 0.993710 0.730995
vt 0.993710 0.618938
vt 0.993710 0.555911
vt 1.000000 0.555911
vt 1.000000 0.618938
vt 0.987421 0.547555
vt 0.993710 0.547555
vt 0.993710 0.404882
vt 1.000000 0.404882
vt 0.993710 0.351827
vt 1.000000 0.351827
vt 0.993710 0.289420
vt 1.000000 0.289420
vt 0.993710 0.220352
vt 1.000000 0.220352
vt 0.993710 0.147293
vt 1.000000 0.147293
vt 0.993710 0.072948
vt 1.000000 0.072948
vt 0.993710 0.000000
vt 1.000000 0.000000
vt 0.987421 0.507707
vt 0.993710 0.507707
vt 0.019415 0.985552
vt 0.018850 0.986644
vt 0.012523 0.986157
vt 1.000000 0.497389
vt 1.000000 0.683926
vt 0.993710 0.683926
vt 0.318260 0.672388
vt 0.513966 0.623843
vt 0.308997 0.735228
vt 0.602685 0.550772
vt 0.614151 0.553027
vt 0.635551 0.597301
vt 0.905434 0.719154
vt 0.630982 0.609169
vt 0.944824 0.655496
vt 0.343087 0.607900
vt 0.515671 0.612278
vt 0.852426 0.779447
vt 0.623732 0.620884
vt 0.382477 0.544242
vt 0.520240 0.600410
vt 0.786761 0.833868
vt 0.613977 0.631981
vt 0.648874 0.355941
vt 0.589976 0.551117
vt 0.576516 0.554040
vt 0.713552 0.877609
vt 0.601892 0.641996
vt 0.722011 0.340060
vt 0.501150 0.429528
vt 0.562802 0.559533
vt 0.549329 0.567583
vt 0.435485 0.483949
vt 0.527489 0.588694
vt 0.574705 0.655539
vt 0.588419 0.650046
vt 0.639037 0.907455
vt 0.561246 0.658462
vt 0.791068 0.338187
vt 0.853373 0.350439
vt 0.623880 0.557888
vt 0.565900 0.923336
vt 0.548537 0.658806
vt 0.906237 0.376851
vt 0.631377 0.565371
vt 0.496844 0.925209
vt 0.537070 0.656551
vt 0.434539 0.912957
vt 0.527341 0.651691
vt 0.946972 0.417513
vt 0.635924 0.574939
vt 0.340940 0.845883
vt 0.381675 0.886546
vt 0.978914 0.528168
vt 0.971682 0.469502
vt 0.574359 0.385787
vt 0.537244 0.577598
vt 0.316229 0.793894
vt 0.519844 0.644207
vt 0.969651 0.591008
vt 0.637255 0.585736
vt 0.515297 0.634639
vt 0.987421 0.000000
vt 0.018149 0.987537
vt 0.017341 0.988196
vt 0.013079 0.987146
vt 0.016453 0.988588
vt 0.013777 0.987922
vt 0.015511 0.988677
vt 0.014595 0.988445
vt 0.012131 0.984992
vt 0.011924 0.983690
vt 0.019819 0.984297
vt 0.011924 0.982290
vt 0.020033 0.982913
vt 0.012138 0.980906
vt 0.020033 0.981513
vt 0.012542 0.979651
vt 0.013108 0.978559
vt 0.019826 0.980211
vt 0.013808 0.977667
vt 0.019434 0.979046
vt 0.014616 0.977007
vt 0.018879 0.978057
vt 0.015505 0.976615
vt 0.018181 0.977281
vt 0.016446 0.976526
vt 0.017363 0.976758
vn -0.9972 -0.0000 0.0754
vn -0.9736 0.0000 0.2284
vn -0.6962 0.0000 0.7178
vn 0.1733 0.0000 0.9849
vn 0.1733 0.0000 -0.9849
vn 0.4791 0.0000 0.8778
vn 0.6962 0.0000 0.7178
vn 0.8364 0.0000 0.5481
vn 0.9229 0.0000 0.3850
vn 0.9972 -0.0000 0.0754
vn 0.9972 0.0000 -0.0754
vn 0.9736 0.0000 -0.2284
vn -0.9229 0.0000 0.3850
vn 0.6962 0.0000 -0.7178
vn -0.4791 0.0000 0.8778
vn -0.1733 0.0000 -0.9849
vn -0.4791 0.0000 -0.8778
vn -0.6962 0.0000 -0.7178
vn -0.8364 0.0000 -0.5481
vn -0.9229 0.0000 -0.3850
vn -0.9736 0.0000 -0.2284
vn -0.9972 0.0000 -0.0754
vn -0.1733 0.0000 0.9849
vn -0.8364 0.0000 0.5481
vn 0.0000 -1.0000 0.0000
vn 0.9736 0.0000 0.2284
vn 0.4791 0.0000 -0.8778
vn 0.9229 0.0000 -0.3850
vn 0.8364 0.0000 -0.5481
vn -0.1826 0.9697 -0.1621
vn -0.1404 0.9751 -0.1719
vn -0.1184 0.9775 -0.1748
vn 0.0000 1.0000 0.0000
vn 0.1467 0.9879 0.0499
vn 0.1322 0.9890 0.0666
vn 0.1279 0.9893 0.0707
vn -0.2409 0.9609 -0.1364
vn -0.2044 0.9666 -0.1545
vn 0.1605 0.9867 0.0266
vn 0.1498 0.9877 0.0456
vn -0.2859 0.9533 -0.0978
vn -0.2567 0.9583 -0.1257
vn 0.1681 0.9858 0.0012
vn 0.1621 0.9865 0.0228
vn -0.2401 0.9669 0.0862
vn -0.2132 0.9717 0.1014
vn -0.2581 0.9633 0.0732
vn 0.1688 0.9853 -0.0257
vn 0.1685 0.9857 -0.0013
vn -0.1915 0.9752 0.1109
vn -0.1620 0.9794 0.1207
vn -0.3080 0.9514 0.0038
vn -0.2921 0.9557 0.0368
vn -0.3102 0.9507 -0.0044
vn -0.3102 0.9494 -0.0487
vn -0.2928 0.9521 -0.0885
vn 0.1624 0.9854 -0.0520
vn 0.1687 0.9853 -0.0264
vn 0.1621 0.9854 -0.0529
vn 0.1490 0.9858 -0.0777
vn -0.1402 0.9821 0.1260
vn -0.1079 0.9855 0.1312
vn -0.0896 0.9871 0.1330
vn -0.0539 0.9896 0.1337
vn 0.1477 0.9858 -0.0795
vn 0.1273 0.9865 -0.1032
vn -0.0416 0.9902 0.1332
vn -0.0030 0.9917 0.1288
vn 0.1253 0.9865 -0.1051
vn 0.0956 0.9871 -0.1281
vn 0.0941 0.9872 -0.1290
vn 0.0516 0.9872 -0.1509
vn 0.0021 0.9918 0.1279
vn 0.0418 0.9921 0.1181
vn 0.0036 0.9861 -0.1663
vn 0.0535 0.9872 -0.1501
vn 0.0751 0.9916 0.1051
vn 0.0411 0.9921 0.1183
vn -0.2816 0.9582 0.0504
vn -0.3105 0.9494 -0.0469
vn -0.0545 0.9830 -0.1754
vn -0.0050 0.9857 -0.1683
vn 0.1040 0.9906 0.0892
vn 0.0790 0.9915 0.1032
vn -0.0713 0.9818 -0.1763
vn 0.1088 0.9903 0.0859
usemtl Default_OBJ.013
s 1
f 1/1/1 2/2/1 3/3/1
f 1/1/1 3/3/1 4/4/1
f 2/2/2 5/5/2 6/6/2
f 2/2/2 6/6/2 3/3/2
f 9/7/3 11/8/3 12/9/3
f 9/7/3 12/9/3 10/10/3
f 18/11/4 15/12/4 17/13/4
f 44/14/5 41/15/5 43/16/5
f 17/13/6 19/17/6 20/18/6
f 17/13/6 20/18/6 18/11/6
f 19/17/7 21/19/7 22/20/7
f 19/17/7 22/20/7 20/18/7
f 21/19/8 23/21/8 24/22/8
f 21/19/8 24/22/8 22/20/8
f 23/21/9 25/23/9 26/24/9
f 23/21/9 26/24/9 24/22/9
f 27/25/10 29/26/10 30/27/10
f 27/25/10 30/27/10 28/28/10
f 29/26/11 31/29/11 32/30/11
f 29/26/11 32/30/11 30/27/11
f 31/31/12 33/32/12 34/33/12
f 31/31/12 34/33/12 32/34/12
f 6/6/13 7/35/13 8/36/13
f 37/37/14 39/38/14 40/39/14
f 37/37/14 40/39/14 38/40/14
f 12/9/15 13/41/15 14/42/15
f 44/14/16 45/43/16 46/44/16
f 45/43/17 47/45/17 48/46/17
f 45/43/17 48/46/17 46/44/17
f 47/45/18 49/47/18 50/48/18
f 47/45/18 50/48/18 48/46/18
f 49/47/19 51/49/19 52/50/19
f 49/47/19 52/50/19 50/48/19
f 51/49/20 53/51/20 54/52/20
f 51/49/20 54/52/20 52/50/20
f 53/51/21 55/53/21 56/54/21
f 53/51/21 56/54/21 54/52/21
f 55/53/22 1/55/22 4/56/22
f 55/53/22 4/56/22 56/54/22
f 14/42/23 15/57/23 16/58/23
f 8/36/24 9/7/24 10/10/24
f 25/59/25 23/60/25 7/61/25
f 28/28/26 25/23/26 27/25/26
f 42/62/27 39/38/27 41/15/27
f 36/63/28 33/32/28 35/64/28
f 38/40/29 35/64/29 37/37/29
f 50/65/30 81/66/31 48/67/32
f 62/68/33 63/69/33 68/70/33
f 26/71/34 69/72/35 24/73/36
f 52/74/37 82/75/38 50/65/30
f 28/76/39 70/77/40 26/71/34
f 54/78/41 83/79/42 52/74/37
f 30/80/43 71/81/44 28/76/39
f 6/82/45 61/83/46 59/84/47
f 32/85/48 72/86/49 30/80/43
f 8/87/50 62/68/51 61/83/46
f 4/88/52 57/89/53 58/90/54
f 56/91/55 84/92/56 54/78/41
f 32/85/48 74/93/57 73/94/58
f 34/95/59 75/96/60 74/93/57
f 10/97/61 63/69/62 62/68/51
f 12/98/63 64/99/64 63/69/62
f 36/100/65 76/101/66 75/96/60
f 14/102/67 65/103/68 64/99/64
f 38/104/69 77/105/70 76/101/66
f 40/106/71 78/107/72 77/105/70
f 16/108/73 66/109/74 65/103/68
f 44/110/75 78/107/72 42/111/76
f 20/112/77 66/109/74 18/113/78
f 3/114/79 59/84/47 57/89/53
f 56/91/55 58/90/54 60/115/80
f 46/116/81 79/117/82 44/110/75
f 22/118/83 67/119/84 20/112/77
f 48/67/32 80/120/85 46/116/81
f 24/73/36 68/70/86 22/118/83
f 18/11/4 16/121/4 15/12/4
f 44/14/5 42/62/5 41/15/5
f 6/6/13 5/5/13 7/35/13
f 12/9/15 11/8/15 13/41/15
f 44/14/16 43/16/16 45/43/16
f 14/42/23 13/41/23 15/57/23
f 8/36/24 7/35/24 9/7/24
f 23/60/25 21/122/25 7/61/25
f 21/122/25 19/123/25 9/124/25
f 7/61/25 21/122/25 9/124/25
f 19/123/25 17/125/25 11/126/25
f 17/125/25 15/127/25 13/128/25
f 11/126/25 17/125/25 13/128/25
f 11/126/25 9/124/25 19/123/25
f 7/61/25 5/129/25 25/59/25
f 5/129/25 2/130/25 27/131/25
f 2/130/25 1/132/25 29/133/25
f 1/132/25 55/134/25 31/135/25
f 55/134/25 53/136/25 31/135/25
f 53/136/25 51/137/25 33/138/25
f 31/135/25 53/136/25 33/138/25
f 51/137/25 49/139/25 35/140/25
f 49/139/25 47/141/25 37/142/25
f 35/140/25 49/139/25 37/142/25
f 47/141/25 45/143/25 39/144/25
f 45/143/25 43/145/25 41/146/25
f 39/144/25 45/143/25 41/146/25
f 39/144/25 37/142/25 47/141/25
f 35/140/25 33/138/25 51/137/25
f 31/135/25 29/133/25 1/132/25
f 29/133/25 27/131/25 2/130/25
f 27/131/25 25/59/25 5/129/25
f 28/28/26 26/24/26 25/23/26
f 42/62/27 40/39/27 39/38/27
f 36/63/28 34/33/28 33/32/28
f 38/40/29 36/63/29 35/64/29
f 50/65/30 82/75/38 81/66/31
f 64/99/33 65/103/33 66/109/33
f 66/109/33 67/119/33 64/99/33
f 67/119/33 68/70/33 63/69/33
f 64/99/33 67/119/33 63/69/33
f 68/70/33 69/72/33 61/83/33
f 69/72/33 70/77/33 59/84/33
f 70/77/33 71/81/33 59/84/33
f 71/81/33 72/86/33 57/89/33
f 59/84/33 71/81/33 57/89/33
f 72/86/33 73/94/33 60/115/33
f 73/94/33 74/93/33 84/92/33
f 74/93/33 75/96/33 84/92/33
f 75/96/33 76/101/33 83/79/33
f 84/92/33 75/96/33 83/79/33
f 76/101/33 77/105/33 81/66/33
f 77/105/33 78/107/33 80/120/33
f 78/107/33 79/117/33 80/120/33
f 80/120/33 81/66/33 77/105/33
f 81/66/33 82/75/33 76/101/33
f 82/75/33 83/79/33 76/101/33
f 84/92/33 60/115/33 73/94/33
f 60/115/33 58/90/33 72/86/33
f 58/90/33 57/89/33 72/86/33
f 59/84/33 61/83/33 69/72/33
f 61/83/33 62/68/33 68/70/33
f 26/71/34 70/77/40 69/72/35
f 52/74/37 83/79/42 82/75/38
f 28/76/39 71/81/44 70/77/40
f 54/78/41 84/92/56 83/79/42
f 30/80/43 72/86/49 71/81/44
f 6/82/45 8/87/50 61/83/46
f 32/85/48 73/94/58 72/86/49
f 8/87/50 10/97/61 62/68/51
f 4/88/52 3/114/79 57/89/53
f 56/91/55 60/115/80 84/92/56
f 32/85/48 34/95/59 74/93/57
f 34/95/59 36/100/65 75/96/60
f 10/97/61 12/98/63 63/69/62
f 12/98/63 14/102/67 64/99/64
f 36/100/65 38/104/69 76/101/66
f 14/102/67 16/108/73 65/103/68
f 38/104/69 40/106/71 77/105/70
f 40/106/71 42/111/76 78/107/72
f 16/108/73 18/113/78 66/109/74
f 44/110/75 79/117/82 78/107/72
f 20/112/77 67/119/84 66/109/74
f 3/114/79 6/82/45 59/84/47
f 56/91/55 4/88/52 58/90/54
f 46/116/81 80/120/85 79/117/82
f 22/118/83 68/70/86 67/119/84
f 48/67/32 81/66/31 80/120/85
f 24/73/36 69/72/35 68/70/86
