# Blender v3.0.0 OBJ File: 'terrain_gentle_hill_142.blend'
# www.blender.org
mtllib terrain_gentle_hill_142.mtl
o terrain_Gentle_Hill_#142.001_terrain_Wooded_Hill_#117.001
v -3.000000 0.000000 0.000000
v -2.920666 0.000000 0.721800
v -2.920666 0.015439 0.721800
v -3.000000 0.015439 -0.000000
v -2.694857 0.000000 1.384600
v -2.694857 0.015439 1.384600
v -2.340476 0.000000 1.969500
v -2.340476 0.015439 1.969500
v -1.875714 0.000000 2.457500
v -1.875714 0.015439 2.457500
v -1.318667 0.000000 2.829600
v -1.318667 0.015439 2.829600
v -0.687429 0.000000 3.066700
v -0.687429 0.015439 3.066700
v 0.000000 0.000001 3.150000
v 0.000000 0.015440 3.150000
v 0.687429 0.000000 3.066700
v 0.687429 0.015439 3.066700
v 1.318667 0.000000 2.829600
v 1.318667 0.015439 2.829600
v 1.875714 0.000000 2.457500
v 1.875714 0.015439 2.457500
v 2.340476 0.000000 1.969500
v 2.340476 0.015439 1.969500
v 2.694857 0.000000 1.384600
v 2.694857 0.015439 1.384600
v 2.920666 0.000000 0.721800
v 2.920666 0.015439 0.721800
v 3.000000 0.000000 0.000000
v 3.000000 0.015439 -0.000000
v 2.920666 -0.000000 -0.721800
v 2.920666 0.015439 -0.721800
v 2.694857 -0.000000 -1.384600
v 2.694857 0.015439 -1.384600
v 2.340476 -0.000000 -1.969500
v 2.340476 0.015439 -1.969500
v 1.875714 -0.000000 -2.457500
v 1.875714 0.015439 -2.457500
v 1.318667 -0.000000 -2.829600
v 1.318667 0.015439 -2.829600
v 0.687429 -0.000000 -3.066700
v 0.687429 0.015439 -3.066700
v 0.000000 -0.000001 -3.150000
v 0.000000 0.015439 -3.150000
v -0.687429 -0.000000 -3.066700
v -0.687429 0.015439 -3.066700
v -1.318667 -0.000000 -2.829600
v -1.318667 0.015439 -2.829600
v -1.875714 -0.000000 -2.457500
v -1.875714 0.015439 -2.457500
v -2.340476 -0.000000 -1.969500
v -2.340476 0.015439 -1.969500
v -2.694857 -0.000000 -1.384600
v -2.694857 0.015439 -1.384600
v -2.920666 -0.000000 -0.721800
v -2.920666 0.015439 -0.721800
v -0.632527 0.787401 0.156319
v -0.649708 0.787401 -0.000000
v -0.583624 0.787401 0.299862
v -0.632527 0.787401 -0.156320
v -0.506875 0.787401 0.426533
v -0.406222 0.787401 0.532219
v -0.285583 0.787401 0.612804
v -0.148876 0.787401 0.664153
v 0.000000 0.787401 0.682193
v 0.148876 0.787401 0.664153
v 0.285583 0.787401 0.612804
v 0.406222 0.787401 0.532219
v 0.506875 0.787401 0.426533
v 0.583624 0.787401 0.299862
v 0.632527 0.787401 0.156319
v 0.649708 0.787401 -0.000000
v 0.632527 0.787401 -0.156320
v 0.583624 0.787401 -0.299862
v 0.506875 0.787401 -0.426534
v 0.406222 0.787401 -0.532220
v 0.285583 0.787401 -0.612805
v 0.148876 0.787401 -0.664154
v 0.000000 0.787401 -0.682194
v -0.148876 0.787401 -0.664154
v -0.285583 0.787401 -0.612805
v -0.406222 0.787401 -0.532220
v -0.506875 0.787401 -0.426534
v -0.583624 0.787401 -0.299862
vt 0.001294 0.852661
vt 0.000000 0.799484
vt 0.001294 0.799484
vt 0.001294 0.898175
vt 0.000000 0.852661
vt 0.000000 0.569906
vt 0.000000 0.525000
vt 0.001294 0.525000
vt 0.001294 0.569906
vt 0.003883 0.837318
vt 0.003883 0.794612
vt 0.005177 0.794612
vt 0.005177 0.837318
vt 0.003883 0.744397
vt 0.005177 0.744397
vt 0.003883 0.687988
vt 0.005177 0.687988
vt 0.003883 0.629936
vt 0.005177 0.629936
vt 0.003883 0.575046
vt 0.005177 0.575046
vt 0.003883 0.525000
vt 0.005177 0.525000
vt 0.002589 0.525000
vt 0.002589 0.569906
vt 0.001294 0.569906
vt 0.001294 0.525000
vt 0.002589 0.621882
vt 0.001294 0.621882
vt 0.002589 0.679177
vt 0.001294 0.679177
vt 0.002589 0.740054
vt 0.001294 0.740054
vt 0.002589 0.799484
vt 0.001294 0.799484
vt 0.002589 0.852661
vt 0.001294 0.852661
vt 0.002589 0.898175
vt 0.001294 0.898175
vt 0.002589 0.879250
vt 0.002589 0.832634
vt 0.003883 0.832634
vt 0.003883 0.879250
vt 0.002589 0.780471
vt 0.003883 0.780471
vt 0.002589 0.724575
vt 0.003883 0.724575
vt 0.002589 0.666752
vt 0.003883 0.666752
vt 0.001294 0.934606
vt 0.000000 0.898175
vt 0.003883 0.564197
vt 0.002589 0.525000
vt 0.003883 0.525000
vt 0.003883 0.611831
vt 0.002589 0.564197
vt 0.018738 0.990438
vt 0.014556 0.990980
vt 0.010591 0.989543
vt 0.001294 0.740054
vt 0.000000 0.679177
vt 0.001294 0.679177
vt 0.002589 0.611831
vt 0.000000 0.740054
vt 0.001294 0.621882
vt 0.842743 0.880897
vt 0.622402 0.689383
vt 0.635433 0.677971
vt 0.000000 0.621882
vt 0.606629 0.697607
vt 0.572027 0.701836
vt 0.236012 0.501029
vt 0.510792 0.579765
vt 0.504034 0.595703
vt 0.782574 0.933593
vt 0.267216 0.427436
vt 0.520817 0.565779
vt 0.313507 0.362853
vt 0.533848 0.554366
vt 0.629948 0.991038
vt 0.709742 0.971563
vt 0.373676 0.310157
vt 0.549621 0.546143
vt 0.549967 0.991093
vt 0.589348 0.701824
vt 0.526302 0.252711
vt 0.446508 0.272187
vt 0.472580 0.973060
vt 0.911161 0.496526
vt 0.641811 0.578093
vt 0.872195 0.419712
vt 0.606283 0.252657
vt 0.566902 0.541925
vt 0.400596 0.938306
vt 0.555267 0.697931
vt 0.683670 0.270690
vt 0.584223 0.541914
vt 0.336816 0.888182
vt 0.539678 0.690404
vt 0.755654 0.305444
vt 0.600983 0.545819
vt 0.284055 0.824038
vt 0.525865 0.679549
vt 0.819434 0.355568
vt 0.616572 0.553346
vt 0.245089 0.747224
vt 0.514439 0.665657
vt 0.932513 0.579969
vt 0.655444 0.630778
vt 0.654875 0.612799
vt 0.935140 0.662983
vt 0.652216 0.648046
vt 0.630385 0.564201
vt 0.501375 0.630950
vt 0.506000 0.649022
vt 0.920238 0.742721
vt 0.645458 0.663985
vt 0.223737 0.663781
vt 0.500806 0.612972
vt 0.221111 0.580767
vt 0.889034 0.816314
vt 0.650250 0.594728
vt 0.000000 0.934606
vt 0.008997 0.988204
vt 0.007727 0.986539
vt 0.020585 0.989478
vt 0.006831 0.984612
vt 0.022186 0.988128
vt 0.006358 0.982488
vt 0.023479 0.986442
vt 0.006358 0.980232
vt 0.024402 0.984471
vt 0.006848 0.978029
vt 0.024892 0.982269
vt 0.007771 0.976058
vt 0.024892 0.980012
vt 0.009064 0.974372
vt 0.024419 0.977888
vt 0.010665 0.973022
vt 0.023523 0.975961
vt 0.012512 0.972062
vt 0.022253 0.974296
vt 0.014543 0.971544
vt 0.016694 0.971520
vt 0.018790 0.972011
vt 0.020659 0.972957
vt 0.016707 0.990956
vt 0.012460 0.990490
vn -0.9466 0.0000 -0.3225
vn -0.8553 0.0000 -0.5182
vn -0.7241 0.0000 0.6897
vn -0.5555 0.0000 0.8315
vn -0.3516 0.0000 0.9361
vn -0.1203 0.0000 0.9927
vn 0.1203 0.0000 0.9927
vn 0.3516 0.0000 0.9361
vn 0.5555 0.0000 0.8315
vn 0.7241 0.0000 0.6897
vn 0.8553 0.0000 0.5182
vn 0.9466 0.0000 0.3225
vn 0.9940 0.0000 0.1093
vn 0.9940 0.0000 -0.1093
vn 0.9466 0.0000 -0.3225
vn 0.8553 0.0000 -0.5182
vn 0.7241 0.0000 -0.6897
vn 0.5555 0.0000 -0.8315
vn 0.3516 0.0000 -0.9361
vn 0.1203 0.0000 -0.9927
vn -0.7241 0.0000 -0.6897
vn -0.5555 0.0000 -0.8315
vn -0.3516 0.0000 -0.9361
vn -0.0000 -1.0000 0.0000
vn -0.9940 0.0000 0.1093
vn -0.1203 0.0000 -0.9927
vn -0.9940 -0.0000 -0.1093
vn -0.8553 0.0000 0.5182
vn -0.1369 0.9536 0.2683
vn -0.0716 0.9542 0.2905
vn -0.1383 0.9536 0.2676
vn -0.9466 0.0000 0.3225
vn -0.0000 1.0000 0.0000
vn 0.2432 0.9517 -0.1871
vn 0.1965 0.9527 -0.2320
vn 0.2445 0.9517 -0.1856
vn -0.0707 0.9542 0.2907
vn 0.0000 0.9544 0.2985
vn 0.1950 0.9527 -0.2332
vn 0.1383 0.9536 -0.2676
vn 0.1369 0.9536 -0.2683
vn 0.0716 0.9542 -0.2905
vn 0.0707 0.9542 0.2907
vn 0.0707 0.9542 -0.2907
vn 0.0000 0.9544 -0.2985
vn 0.1369 0.9536 0.2683
vn 0.0716 0.9542 0.2905
vn -0.0707 0.9542 -0.2907
vn 0.1950 0.9527 0.2332
vn 0.1383 0.9536 0.2676
vn -0.3121 0.9501 -0.0000
vn -0.3040 0.9503 -0.0671
vn -0.3038 0.9503 -0.0680
vn -0.1369 0.9536 -0.2683
vn -0.0716 0.9542 -0.2905
vn 0.2432 0.9517 0.1871
vn 0.1965 0.9527 0.2320
vn -0.1950 0.9527 -0.2332
vn -0.1383 0.9536 -0.2676
vn 0.2801 0.9509 0.1315
vn 0.2445 0.9517 0.1856
vn -0.2432 0.9517 -0.1871
vn -0.1965 0.9527 -0.2320
vn 0.3038 0.9503 0.0680
vn 0.2808 0.9509 0.1301
vn -0.2801 0.9509 -0.1315
vn -0.2445 0.9517 -0.1856
vn 0.3121 0.9501 -0.0000
vn 0.3040 0.9503 0.0671
vn -0.3038 0.9503 0.0680
vn -0.2808 0.9509 0.1301
vn -0.3040 0.9503 0.0671
vn -0.2801 0.9509 0.1315
vn -0.2445 0.9517 0.1856
vn -0.2808 0.9509 -0.1301
vn 0.3040 0.9503 -0.0671
vn -0.2432 0.9517 0.1871
vn -0.1965 0.9527 0.2320
vn 0.3038 0.9503 -0.0680
vn 0.2808 0.9509 -0.1301
vn 0.2801 0.9509 -0.1315
vn -0.1950 0.9527 0.2332
usemtl Default_OBJ.002
s 1
f 54/1/1 55/2/1 56/3/1
f 52/4/2 53/5/2 54/1/2
f 7/6/3 9/7/3 10/8/3
f 7/6/3 10/8/3 8/9/3
f 9/10/4 11/11/4 12/12/4
f 9/10/4 12/12/4 10/13/4
f 11/11/5 13/14/5 14/15/5
f 11/11/5 14/15/5 12/12/5
f 13/14/6 15/16/6 16/17/6
f 13/14/6 16/17/6 14/15/6
f 15/16/7 17/18/7 18/19/7
f 15/16/7 18/19/7 16/17/7
f 17/18/8 19/20/8 20/21/8
f 17/18/8 20/21/8 18/19/8
f 19/20/9 21/22/9 22/23/9
f 19/20/9 22/23/9 20/21/9
f 21/24/10 23/25/10 24/26/10
f 21/24/10 24/26/10 22/27/10
f 23/25/11 25/28/11 26/29/11
f 23/25/11 26/29/11 24/26/11
f 25/28/12 27/30/12 28/31/12
f 25/28/12 28/31/12 26/29/12
f 27/30/13 29/32/13 30/33/13
f 27/30/13 30/33/13 28/31/13
f 29/32/14 31/34/14 32/35/14
f 29/32/14 32/35/14 30/33/14
f 31/34/15 33/36/15 34/37/15
f 31/34/15 34/37/15 32/35/15
f 33/36/16 35/38/16 36/39/16
f 33/36/16 36/39/16 34/37/16
f 35/40/17 37/41/17 38/42/17
f 35/40/17 38/42/17 36/43/17
f 37/41/18 39/44/18 40/45/18
f 37/41/18 40/45/18 38/42/18
f 39/44/19 41/46/19 42/47/19
f 39/44/19 42/47/19 40/45/19
f 41/46/20 43/48/20 44/49/20
f 41/46/20 44/49/20 42/47/20
f 50/50/21 51/51/21 52/4/21
f 48/52/22 49/53/22 50/54/22
f 46/55/23 47/56/23 48/52/23
f 19/57/24 15/58/24 11/59/24
f 4/60/25 2/61/25 3/62/25
f 44/49/26 45/63/26 46/55/26
f 56/3/27 1/64/27 4/60/27
f 6/65/28 7/6/28 8/9/28
f 12/66/29 64/67/30 63/68/31
f 3/62/32 5/69/32 6/65/32
f 63/68/33 65/70/33 67/71/33
f 36/72/34 76/73/35 75/74/36
f 14/75/37 65/70/38 64/67/30
f 38/76/39 77/77/40 76/73/35
f 40/78/41 78/79/42 77/77/40
f 18/80/43 65/70/38 16/81/38
f 42/82/44 79/83/45 78/79/42
f 20/84/46 66/85/47 18/80/43
f 46/86/48 79/83/45 44/87/45
f 22/88/49 67/71/50 20/84/46
f 4/89/51 60/90/52 56/91/53
f 48/92/54 80/93/55 46/86/48
f 24/94/56 68/95/57 22/88/49
f 50/96/58 81/97/59 48/92/54
f 26/98/60 69/99/61 24/94/56
f 52/100/62 82/101/63 50/96/58
f 28/102/64 70/103/65 26/98/60
f 54/104/66 83/105/67 52/100/62
f 30/106/68 71/107/69 28/102/64
f 3/108/70 59/109/71 57/110/72
f 6/111/73 61/112/74 59/109/71
f 56/91/53 84/113/75 54/104/66
f 30/106/68 73/114/76 72/115/68
f 8/116/77 62/117/78 61/112/74
f 32/118/79 74/119/80 73/114/76
f 34/120/81 75/74/36 74/119/80
f 10/121/82 63/68/31 62/117/78
f 4/89/51 57/110/72 58/122/51
f 54/1/1 53/5/1 55/2/1
f 52/4/2 51/51/2 53/5/2
f 50/50/21 49/123/21 51/51/21
f 48/52/22 47/56/22 49/53/22
f 46/55/23 45/63/23 47/56/23
f 11/59/24 9/124/24 19/57/24
f 9/124/24 7/125/24 21/126/24
f 19/57/24 9/124/24 21/126/24
f 7/125/24 5/127/24 23/128/24
f 5/127/24 2/129/24 25/130/24
f 23/128/24 5/127/24 25/130/24
f 2/129/24 1/131/24 27/132/24
f 1/131/24 55/133/24 29/134/24
f 27/132/24 1/131/24 29/134/24
f 55/133/24 53/135/24 31/136/24
f 53/135/24 51/137/24 33/138/24
f 31/136/24 53/135/24 33/138/24
f 51/137/24 49/139/24 35/140/24
f 49/139/24 47/141/24 37/142/24
f 35/140/24 49/139/24 37/142/24
f 47/141/24 45/143/24 43/144/24
f 43/144/24 41/145/24 39/146/24
f 39/146/24 37/142/24 47/141/24
f 35/140/24 33/138/24 51/137/24
f 31/136/24 29/134/24 55/133/24
f 27/132/24 25/130/24 2/129/24
f 23/128/24 21/126/24 7/125/24
f 19/57/24 17/147/24 15/58/24
f 15/58/24 13/148/24 11/59/24
f 47/141/24 43/144/24 39/146/24
f 4/60/25 1/64/25 2/61/25
f 44/49/26 43/48/26 45/63/26
f 56/3/27 55/2/27 1/64/27
f 6/65/28 5/69/28 7/6/28
f 12/66/29 14/75/37 64/67/30
f 3/62/32 2/61/32 5/69/32
f 71/107/33 72/115/33 57/110/33
f 72/115/33 73/114/33 58/122/33
f 57/110/33 72/115/33 58/122/33
f 73/114/33 74/119/33 60/90/33
f 74/119/33 75/74/33 84/113/33
f 60/90/33 74/119/33 84/113/33
f 75/74/33 76/73/33 82/101/33
f 76/73/33 77/77/33 81/97/33
f 77/77/33 78/79/33 79/83/33
f 79/83/33 80/93/33 81/97/33
f 81/97/33 82/101/33 76/73/33
f 82/101/33 83/105/33 75/74/33
f 83/105/33 84/113/33 75/74/33
f 60/90/33 58/122/33 73/114/33
f 57/110/33 59/109/33 70/103/33
f 59/109/33 61/112/33 69/99/33
f 61/112/33 62/117/33 68/95/33
f 62/117/33 63/68/33 67/71/33
f 63/68/33 64/67/33 65/70/33
f 65/70/33 66/85/33 67/71/33
f 67/71/33 68/95/33 62/117/33
f 68/95/33 69/99/33 61/112/33
f 69/99/33 70/103/33 59/109/33
f 70/103/33 71/107/33 57/110/33
f 77/77/33 79/83/33 81/97/33
f 36/72/34 38/76/39 76/73/35
f 14/75/37 16/81/38 65/70/38
f 38/76/39 40/78/41 77/77/40
f 40/78/41 42/82/44 78/79/42
f 18/80/43 66/85/47 65/70/38
f 42/82/44 44/87/45 79/83/45
f 20/84/46 67/71/50 66/85/47
f 46/86/48 80/93/55 79/83/45
f 22/88/49 68/95/57 67/71/50
f 4/89/51 58/122/51 60/90/52
f 48/92/54 81/97/59 80/93/55
f 24/94/56 69/99/61 68/95/57
f 50/96/58 82/101/63 81/97/59
f 26/98/60 70/103/65 69/99/61
f 52/100/62 83/105/67 82/101/63
f 28/102/64 71/107/69 70/103/65
f 54/104/66 84/113/75 83/105/67
f 30/106/68 72/115/68 71/107/69
f 3/108/70 6/111/73 59/109/71
f 6/111/73 8/116/77 61/112/74
f 56/91/53 60/90/52 84/113/75
f 30/106/68 32/118/79 73/114/76
f 8/116/77 10/121/82 62/117/78
f 32/118/79 34/120/81 74/119/80
f 34/120/81 36/72/34 75/74/36
f 10/121/82 12/66/29 63/68/31
f 4/89/51 3/108/70 57/110/72
