# Blender v2.93.5 OBJ File: ''
# www.blender.org
mtllib terrain Woods #196.mtl
o terrain_Woods_#196_terrain_Woods_#196_terrain_Woods_#195_terrain_Woods_#195_terrai
v 3.524961 0.019984 -1.566698
v 2.355902 0.019981 -2.349969
v 2.355921 0.019973 -1.566657
v -2.320228 0.019932 -1.566501
v -3.489285 0.019930 -2.349770
v -3.489265 0.019922 -1.566460
v -1.151192 0.019942 -1.566540
v -2.320248 0.019939 -2.349810
v 0.017846 0.019952 -1.566579
v -1.151210 0.019950 -2.349850
v 1.186864 0.019971 -2.349928
v 0.017827 0.019959 -2.349888
v 1.186884 0.019964 -1.566618
v -2.806295 0.019897 1.380303
v -2.320148 0.019900 1.566737
v -3.038904 0.019896 1.161807
v -2.320170 0.019908 0.783427
v -3.524998 0.019899 0.566782
v -2.320188 0.019916 0.000118
v -3.489226 0.019906 0.000160
v -3.489247 0.019914 -0.783151
v -2.320209 0.019923 -0.783192
v -2.379786 0.019898 1.771038
v -1.151112 0.019911 1.566700
v -1.151133 0.019919 0.783390
v -1.151151 0.019926 0.000080
v -1.151170 0.019934 -0.783230
v -1.151092 0.019902 2.350008
v 0.017926 0.019920 1.566659
v 0.017905 0.019929 0.783350
v 0.017886 0.019936 0.000040
v 0.017867 0.019944 -0.783270
v 0.017946 0.019912 2.349969
v 1.186964 0.019932 1.566619
v 1.186943 0.019940 0.783309
v 1.186923 0.019948 0.000001
v 1.186905 0.019955 -0.783310
v 2.263562 0.019938 1.841923
v 1.321172 0.019926 2.200731
v 2.356000 0.019941 1.566581
v 2.355980 0.019950 0.783272
v 2.355961 0.019957 -0.000038
v 2.355941 0.019965 -0.783348
v 2.707947 0.019945 1.504447
v 3.235764 0.019955 1.072789
v 3.483260 0.019961 0.378278
v 3.524999 0.019968 -0.000079
v 3.524978 0.019975 -0.783389
v 2.355901 -0.019910 -2.349969
v 3.524959 -0.019909 -1.566697
v 2.355920 -0.019920 -1.566657
v -3.489288 -0.019962 -2.349770
v -2.320230 -0.019961 -1.566501
v -3.489269 -0.019971 -1.566461
v -2.320250 -0.019952 -2.349810
v -1.151193 -0.019950 -1.566540
v -1.151213 -0.019940 -2.349850
v 0.017845 -0.019941 -1.566579
v 1.186863 -0.019920 -2.349928
v 1.186883 -0.019929 -1.566618
v -2.806296 -0.019994 1.380303
v -2.320149 -0.019992 1.566737
v -2.379787 -0.019994 1.771038
v -3.038906 -0.019995 1.161807
v -2.320171 -0.019983 0.783427
v -3.524999 -0.019993 0.566782
v -2.320189 -0.019976 0.000118
v -3.489248 -0.019978 -0.783151
v -3.489227 -0.019986 0.000160
v -2.320210 -0.019969 -0.783192
v -1.151113 -0.019981 1.566700
v -1.151093 -0.019989 2.350008
v -1.151134 -0.019973 0.783389
v -1.151154 -0.019965 0.000080
v -1.151172 -0.019957 -0.783230
v 0.017925 -0.019972 1.566659
v 0.017943 -0.019979 2.349969
v 0.017903 -0.019963 0.783350
v 0.017884 -0.019956 0.000040
v 0.017866 -0.019948 -0.783270
v 1.186962 -0.019960 1.566619
v 1.321171 -0.019965 2.200731
v 1.186941 -0.019952 0.783309
v 1.186922 -0.019944 0.000001
v 1.186904 -0.019937 -0.783310
v 2.263561 -0.019954 1.841923
v 2.355999 -0.019950 1.566581
v 2.355979 -0.019942 0.783272
v 2.355960 -0.019935 -0.000038
v 2.355940 -0.019927 -0.783348
v 2.707946 -0.019947 1.504447
v 3.235763 -0.019937 1.072789
v 3.483258 -0.019931 0.378278
v 3.524998 -0.019924 -0.000079
v 3.524976 -0.019916 -0.783389
v 3.524938 -0.019900 -2.350008
v 3.524940 0.019991 -2.350008
v 0.017825 -0.019932 -2.349888
vt 1.000000 0.833333
vt 0.833333 1.000000
vt 0.833333 0.833333
vt 0.166667 0.833333
vt 0.000000 1.000000
vt 0.000000 0.833333
vt 0.333333 0.833333
vt 0.166667 1.000000
vt 0.500000 0.833333
vt 0.333333 1.000000
vt 0.666667 1.000000
vt 0.500000 1.000000
vt 0.666667 0.833333
vt 0.000000 0.000000
vt 0.166667 0.166667
vt 0.000000 0.166667
vt 0.166667 0.333333
vt 0.000000 0.333333
vt 0.166667 0.500000
vt 0.000000 0.500000
vt 0.000000 0.666667
vt 0.166667 0.666667
vt 0.166667 0.000000
vt 0.333333 0.166667
vt 0.333333 0.333333
vt 0.333333 0.500000
vt 0.333333 0.666667
vt 0.333333 0.000000
vt 0.500000 0.166667
vt 0.500000 0.333333
vt 0.500000 0.500000
vt 0.500000 0.666667
vt 0.500000 0.000000
vt 0.666667 0.166667
vt 0.666667 0.333333
vt 0.666667 0.500000
vt 0.666667 0.666667
vt 0.833333 0.000000
vt 0.666667 0.000000
vt 0.833333 0.166667
vt 0.833333 0.333333
vt 0.833333 0.500000
vt 0.833333 0.666667
vt 1.000000 0.000000
vt 1.000000 0.166667
vt 1.000000 0.333333
vt 1.000000 0.500000
vt 1.000000 0.666667
vt 0.833333 1.000000
vt 1.000000 0.833333
vt 0.833333 0.833333
vt 0.000000 1.000000
vt 0.166667 0.833333
vt 0.000000 0.833333
vt 0.166667 1.000000
vt 0.333333 0.833333
vt 0.333333 1.000000
vt 0.500000 0.833333
vt 0.666667 1.000000
vt 0.666667 0.833333
vt 0.000000 0.000000
vt 0.166667 0.166667
vt 0.166667 0.000000
vt 0.000000 0.166667
vt 0.166667 0.333333
vt 0.000000 0.333333
vt 0.166667 0.500000
vt 0.000000 0.666667
vt 0.000000 0.500000
vt 0.166667 0.666667
vt 0.333333 0.166667
vt 0.333333 0.000000
vt 0.333333 0.333333
vt 0.333333 0.500000
vt 0.333333 0.666667
vt 0.500000 0.166667
vt 0.500000 0.000000
vt 0.500000 0.333333
vt 0.500000 0.500000
vt 0.500000 0.666667
vt 0.666667 0.166667
vt 0.666667 0.000000
vt 0.666667 0.333333
vt 0.666667 0.500000
vt 0.666667 0.666667
vt 0.833333 0.000000
vt 0.833333 0.166667
vt 0.833333 0.333333
vt 0.833333 0.500000
vt 0.833333 0.666667
vt 1.000000 0.000000
vt 1.000000 0.166667
vt 1.000000 0.333333
vt 1.000000 0.500000
vt 1.000000 0.666667
vt 1.000000 1.000000
vt 1.000000 1.000000
vt 0.500000 1.000000
vn -0.0000 1.0000 0.0000
vn 0.0000 -1.0000 -0.0000
vn -0.6846 0.0000 0.7289
vn -0.6801 0.0000 0.7331
vn 0.6048 -0.0000 0.7964
vn 1.0000 -0.0000 -0.0000
vn -0.0000 0.0000 -1.0000
vn -1.0000 0.0001 0.0000
vn -1.0000 0.0000 0.0000
vn -0.9980 0.0000 -0.0630
vn -0.7744 0.0000 0.6327
vn -0.6755 0.0000 0.7374
vn -0.4263 0.0000 0.9046
vn 0.0000 -0.0000 1.0000
vn 0.1138 -0.0000 0.9935
vn 0.3558 -0.0000 0.9346
vn 0.6331 -0.0000 0.7741
vn 0.9420 -0.0000 0.3357
vn 0.9940 -0.0000 0.1097
usemtl None.011
s 1
f 1/1/1 2/2/1 3/3/1
f 4/4/1 5/5/1 6/6/1
f 7/7/1 8/8/1 4/4/1
f 9/9/1 10/10/1 7/7/1
f 9/9/1 11/11/1 12/12/1
f 13/13/1 2/2/1 11/11/1
f 14/14/1 15/15/1 16/16/1
f 16/16/1 17/17/1 18/18/1
f 18/18/1 19/19/1 20/20/1
f 19/19/1 21/21/1 20/20/1
f 22/22/1 6/6/1 21/21/1
f 23/23/1 24/24/1 15/15/1
f 24/24/1 17/17/1 15/15/1
f 25/25/1 19/19/1 17/17/1
f 26/26/1 22/22/1 19/19/1
f 27/27/1 4/4/1 22/22/1
f 28/28/1 29/29/1 24/24/1
f 29/29/1 25/25/1 24/24/1
f 30/30/1 26/26/1 25/25/1
f 31/31/1 27/27/1 26/26/1
f 32/32/1 7/7/1 27/27/1
f 33/33/1 34/34/1 29/29/1
f 34/34/1 30/30/1 29/29/1
f 35/35/1 31/31/1 30/30/1
f 36/36/1 32/32/1 31/31/1
f 37/37/1 9/9/1 32/32/1
f 38/38/1 34/34/1 39/39/1
f 40/40/1 35/35/1 34/34/1
f 41/41/1 36/36/1 35/35/1
f 42/42/1 37/37/1 36/36/1
f 43/43/1 13/13/1 37/37/1
f 44/44/1 40/40/1 38/38/1
f 45/45/1 41/41/1 40/40/1
f 46/46/1 42/42/1 41/41/1
f 47/47/1 43/43/1 42/42/1
f 48/48/1 3/3/1 43/43/1
f 49/49/2 50/50/2 51/51/2
f 52/52/2 53/53/2 54/54/2
f 55/55/2 56/56/2 53/53/2
f 57/57/2 58/58/2 56/56/2
f 58/58/2 59/59/2 60/60/2
f 60/60/2 49/49/2 51/51/2
f 61/61/2 62/62/2 63/63/2
f 64/64/2 65/65/2 62/62/2
f 66/66/2 67/67/2 65/65/2
f 68/68/2 67/67/2 69/69/2
f 54/54/2 70/70/2 68/68/2
f 63/63/2 71/71/2 72/72/2
f 65/65/2 71/71/2 62/62/2
f 67/67/2 73/73/2 65/65/2
f 70/70/2 74/74/2 67/67/2
f 53/53/2 75/75/2 70/70/2
f 72/72/2 76/76/2 77/77/2
f 73/73/2 76/76/2 71/71/2
f 74/74/2 78/78/2 73/73/2
f 75/75/2 79/79/2 74/74/2
f 56/56/2 80/80/2 75/75/2
f 77/77/2 81/81/2 82/82/2
f 78/78/2 81/81/2 76/76/2
f 79/79/2 83/83/2 78/78/2
f 80/80/2 84/84/2 79/79/2
f 58/58/2 85/85/2 80/80/2
f 81/81/2 86/86/2 82/82/2
f 83/83/2 87/87/2 81/81/2
f 84/84/2 88/88/2 83/83/2
f 85/85/2 89/89/2 84/84/2
f 60/60/2 90/90/2 85/85/2
f 87/87/2 91/91/2 86/86/2
f 88/88/2 92/92/2 87/87/2
f 89/89/2 93/93/2 88/88/2
f 90/90/2 94/94/2 89/89/2
f 51/51/2 95/95/2 90/90/2
f 16/16/3 61/61/4 14/14/4
f 38/38/5 91/91/5 44/44/5
f 1/1/6 96/96/6 97/97/6
f 8/8/7 52/52/7 5/5/7
f 5/5/8 54/54/8 6/6/8
f 6/6/8 68/68/9 21/21/9
f 21/21/9 69/69/9 20/20/9
f 20/20/10 66/66/10 18/18/10
f 18/18/11 64/64/11 16/16/11
f 14/14/4 63/63/12 23/23/12
f 23/23/13 72/72/13 28/28/13
f 28/28/14 77/77/14 33/33/14
f 33/33/15 82/82/15 39/39/15
f 39/39/16 86/86/16 38/38/16
f 44/44/17 92/92/17 45/45/17
f 45/45/18 93/93/18 46/46/18
f 46/46/19 94/94/19 47/47/19
f 47/47/6 95/95/6 48/48/6
f 48/48/6 50/50/6 1/1/6
f 97/97/7 49/49/7 2/2/7
f 2/2/7 59/59/7 11/11/7
f 11/11/7 98/98/7 12/12/7
f 12/12/7 57/57/7 10/10/7
f 10/10/7 55/55/7 8/8/7
f 1/1/1 97/97/1 2/2/1
f 4/4/1 8/8/1 5/5/1
f 7/7/1 10/10/1 8/8/1
f 9/9/1 12/12/1 10/10/1
f 9/9/1 13/13/1 11/11/1
f 13/13/1 3/3/1 2/2/1
f 14/14/1 23/23/1 15/15/1
f 16/16/1 15/15/1 17/17/1
f 18/18/1 17/17/1 19/19/1
f 19/19/1 22/22/1 21/21/1
f 22/22/1 4/4/1 6/6/1
f 23/23/1 28/28/1 24/24/1
f 24/24/1 25/25/1 17/17/1
f 25/25/1 26/26/1 19/19/1
f 26/26/1 27/27/1 22/22/1
f 27/27/1 7/7/1 4/4/1
f 28/28/1 33/33/1 29/29/1
f 29/29/1 30/30/1 25/25/1
f 30/30/1 31/31/1 26/26/1
f 31/31/1 32/32/1 27/27/1
f 32/32/1 9/9/1 7/7/1
f 33/33/1 39/39/1 34/34/1
f 34/34/1 35/35/1 30/30/1
f 35/35/1 36/36/1 31/31/1
f 36/36/1 37/37/1 32/32/1
f 37/37/1 13/13/1 9/9/1
f 38/38/1 40/40/1 34/34/1
f 40/40/1 41/41/1 35/35/1
f 41/41/1 42/42/1 36/36/1
f 42/42/1 43/43/1 37/37/1
f 43/43/1 3/3/1 13/13/1
f 44/44/1 45/45/1 40/40/1
f 45/45/1 46/46/1 41/41/1
f 46/46/1 47/47/1 42/42/1
f 47/47/1 48/48/1 43/43/1
f 48/48/1 1/1/1 3/3/1
f 49/49/2 96/96/2 50/50/2
f 52/52/2 55/55/2 53/53/2
f 55/55/2 57/57/2 56/56/2
f 57/57/2 98/98/2 58/58/2
f 58/58/2 98/98/2 59/59/2
f 60/60/2 59/59/2 49/49/2
f 61/61/2 64/64/2 62/62/2
f 64/64/2 66/66/2 65/65/2
f 66/66/2 69/69/2 67/67/2
f 68/68/2 70/70/2 67/67/2
f 54/54/2 53/53/2 70/70/2
f 63/63/2 62/62/2 71/71/2
f 65/65/2 73/73/2 71/71/2
f 67/67/2 74/74/2 73/73/2
f 70/70/2 75/75/2 74/74/2
f 53/53/2 56/56/2 75/75/2
f 72/72/2 71/71/2 76/76/2
f 73/73/2 78/78/2 76/76/2
f 74/74/2 79/79/2 78/78/2
f 75/75/2 80/80/2 79/79/2
f 56/56/2 58/58/2 80/80/2
f 77/77/2 76/76/2 81/81/2
f 78/78/2 83/83/2 81/81/2
f 79/79/2 84/84/2 83/83/2
f 80/80/2 85/85/2 84/84/2
f 58/58/2 60/60/2 85/85/2
f 81/81/2 87/87/2 86/86/2
f 83/83/2 88/88/2 87/87/2
f 84/84/2 89/89/2 88/88/2
f 85/85/2 90/90/2 89/89/2
f 60/60/2 51/51/2 90/90/2
f 87/87/2 92/92/2 91/91/2
f 88/88/2 93/93/2 92/92/2
f 89/89/2 94/94/2 93/93/2
f 90/90/2 95/95/2 94/94/2
f 51/51/2 50/50/2 95/95/2
f 16/16/3 64/64/3 61/61/4
f 38/38/5 86/86/5 91/91/5
f 1/1/6 50/50/6 96/96/6
f 8/8/7 55/55/7 52/52/7
f 5/5/8 52/52/8 54/54/8
f 6/6/8 54/54/8 68/68/9
f 21/21/9 68/68/9 69/69/9
f 20/20/10 69/69/10 66/66/10
f 18/18/11 66/66/11 64/64/11
f 14/14/4 61/61/4 63/63/12
f 23/23/13 63/63/13 72/72/13
f 28/28/14 72/72/14 77/77/14
f 33/33/15 77/77/15 82/82/15
f 39/39/16 82/82/16 86/86/16
f 44/44/17 91/91/17 92/92/17
f 45/45/18 92/92/18 93/93/18
f 46/46/19 93/93/19 94/94/19
f 47/47/6 94/94/6 95/95/6
f 48/48/6 95/95/6 50/50/6
f 97/97/7 96/96/7 49/49/7
f 2/2/7 49/49/7 59/59/7
f 11/11/7 59/59/7 98/98/7
f 12/12/7 98/98/7 57/57/7
f 10/10/7 57/57/7 55/55/7
