# Blender v3.0.0 OBJ File: 'terrain_woods_193.blend'
# www.blender.org
mtllib terrain_woods_193.mtl
o terrain_Woods_#193.001_terrain_Woods_#193.001
v 3.935000 -0.019999 0.000000
v 3.831000 -0.019996 -0.721800
v 3.831000 0.020002 -0.721800
v 3.935000 0.019999 0.000000
v 3.534700 -0.019994 -1.384600
v 3.534700 0.020004 -1.384600
v 3.069900 -0.019992 -1.969500
v 3.069900 0.020006 -1.969500
v 2.460300 -0.019990 -2.457500
v 2.460300 0.020008 -2.457500
v 1.729700 -0.019989 -2.829600
v 1.729700 0.020009 -2.829600
v 0.901600 -0.019988 -3.066700
v 0.901600 0.020010 -3.066700
v 0.000000 -0.019987 -3.150000
v 0.000000 0.020011 -3.150000
v -0.901600 -0.019988 -3.066700
v -0.901600 0.020010 -3.066700
v -1.729700 -0.019989 -2.829600
v -1.729700 0.020009 -2.829600
v -2.460300 -0.019990 -2.457500
v -2.460300 0.020008 -2.457500
v -3.069900 -0.019992 -1.969500
v -3.069900 0.020006 -1.969500
v -3.534700 -0.019994 -1.384600
v -3.534700 0.020004 -1.384600
v -3.831000 -0.019996 -0.721800
v -3.831000 0.020002 -0.721800
v -3.935000 -0.019999 0.000000
v -3.935000 0.019999 0.000000
v -3.831000 -0.020002 0.721800
v -3.831000 0.019996 0.721800
v -3.534700 -0.020004 1.384600
v -3.534700 0.019994 1.384600
v -3.069900 -0.020006 1.969500
v -3.069900 0.019992 1.969500
v -2.460300 -0.020008 2.457500
v -2.460300 0.019990 2.457500
v -1.729700 -0.020008 2.829600
v -1.729700 0.019990 2.829600
v -0.901600 -0.020009 3.066700
v -0.901600 0.019988 3.066700
v 0.000000 -0.020010 3.150000
v 0.000000 0.019988 3.150000
v 0.901600 -0.020009 3.066700
v 0.901600 0.019988 3.066700
v 1.729700 -0.020008 2.829600
v 1.729700 0.019990 2.829600
v 2.460300 -0.020008 2.457500
v 2.460300 0.019990 2.457500
v 3.069900 -0.020006 1.969500
v 3.069900 0.019992 1.969500
v 3.534700 -0.020004 1.384600
v 3.534700 0.019994 1.384600
v 3.831000 -0.020002 0.721800
v 3.831000 0.019996 0.721800
vt 0.435062 0.994839
vt 0.345145 0.994795
vt 0.346183 0.989815
vt 0.521615 0.973476
vt 0.435504 0.999912
vt 0.599098 0.928598
vt 0.523504 0.978229
vt 0.665262 0.863135
vt 0.602204 0.932700
vt 0.718241 0.780846
vt 0.669258 0.866401
vt 0.755277 0.684558
vt 0.722841 0.783199
vt 0.774903 0.577796
vt 0.760244 0.685972
vt 0.774905 0.463658
vt 0.780042 0.578278
vt 0.759402 0.350077
vt 0.780042 0.463207
vt 0.754437 0.351449
vt 0.720499 0.247961
vt 0.715883 0.250234
vt 0.665656 0.159801
vt 0.661576 0.162918
vt 0.598143 0.087943
vt 0.594814 0.091834
vt 0.520236 0.035646
vt 0.517922 0.040191
vt 0.434848 0.005354
vt 0.433811 0.010335
vt 0.344489 0.000088
vt 0.344923 0.005162
vt 0.256464 0.021627
vt 0.258353 0.026380
vt 0.177890 0.067298
vt 0.180999 0.071395
vt 0.110861 0.133591
vt 0.114857 0.136856
vt 0.057287 0.216790
vt 0.005227 0.422191
vt 0.000088 0.536780
vt 0.000088 0.421709
vt 0.025694 0.648538
vt 0.005226 0.536328
vt 0.061887 0.219143
vt 0.019886 0.314016
vt 0.064246 0.749753
vt 0.020729 0.649910
vt 0.118551 0.837068
vt 0.059631 0.752025
vt 0.185304 0.908152
vt 0.114471 0.840184
vt 0.262169 0.959809
vt 0.181975 0.912041
vt 0.259851 0.964351
vt 0.024853 0.315429
vt 0.017376 0.988298
vt 0.016529 0.989418
vt 0.008740 0.988456
vt 0.822944 0.758303
vt 0.765569 0.830070
vt 0.244611 0.758681
vt 0.015513 0.990283
vt 0.014356 0.990841
vt 0.011830 0.990885
vt 0.013096 0.991053
vt 0.010661 0.990366
vt 0.009618 0.989544
vt 0.008058 0.987149
vt 0.007616 0.985660
vt 0.018009 0.986962
vt 0.007444 0.984033
vt 0.018405 0.985456
vt 0.007567 0.982401
vt 0.018528 0.983824
vt 0.007963 0.980896
vt 0.018356 0.982198
vt 0.008596 0.979559
vt 0.017914 0.980709
vt 0.009442 0.978439
vt 0.017232 0.979402
vt 0.010459 0.977574
vt 0.016354 0.978313
vt 0.011613 0.977014
vt 0.014140 0.976974
vt 0.012874 0.976804
vt 0.015310 0.977492
vt 0.696782 0.884807
vt 0.618815 0.919723
vt 0.448951 0.919834
vt 0.533891 0.932015
vt 0.370939 0.885020
vt 0.302080 0.830373
vt 0.200771 0.672742
vt 0.172809 0.575320
vt 0.866671 0.672307
vt 0.162938 0.469238
vt 0.894507 0.574849
vt 0.172670 0.363143
vt 0.904239 0.468754
vt 0.200505 0.265685
vt 0.894368 0.362672
vt 0.244233 0.179688
vt 0.866406 0.265250
vt 0.301608 0.107921
vt 0.822566 0.179311
vt 0.370396 0.053185
vt 0.765097 0.107619
vt 0.448362 0.018269
vt 0.618226 0.018158
vt 0.533286 0.005976
vt 0.696238 0.052972
vn 0.9898 0.0000 0.1426
vn 0.9898 -0.0000 -0.1426
vn 0.9129 0.0000 -0.4081
vn 0.7829 0.0000 -0.6221
vn 0.6249 0.0000 -0.7807
vn 0.4538 0.0000 -0.8911
vn 0.2753 0.0000 -0.9614
vn 0.0920 0.0000 -0.9958
vn -0.0920 0.0000 -0.9958
vn -0.2753 0.0000 -0.9614
vn -0.4538 0.0000 -0.8911
vn -0.6249 0.0000 -0.7807
vn -0.7829 0.0000 -0.6221
vn -0.9129 0.0000 -0.4081
vn -0.9898 -0.0000 -0.1426
vn -0.9898 0.0000 0.1426
vn -0.9129 0.0000 0.4081
vn -0.7829 0.0000 0.6221
vn -0.6249 0.0000 0.7807
vn -0.0920 0.0000 0.9958
vn 0.0920 0.0000 0.9958
vn -0.4538 0.0000 0.8911
vn 0.2753 0.0000 0.9614
vn 0.4538 0.0000 0.8911
vn 0.6249 0.0000 0.7807
vn 0.7829 0.0000 0.6221
vn 0.9129 0.0000 0.4081
vn -0.2753 0.0000 0.9614
vn 0.0000 -1.0000 -0.0000
vn 0.0000 1.0000 0.0000
usemtl Default_OBJ.015
s 1
f 1/1/1 56/2/1 55/3/1
f 2/4/2 4/5/2 1/1/2
f 5/6/3 3/7/3 2/4/3
f 7/8/4 6/9/4 5/6/4
f 9/10/5 8/11/5 7/8/5
f 11/12/6 10/13/6 9/10/6
f 13/14/7 12/15/7 11/12/7
f 15/16/8 14/17/8 13/14/8
f 15/16/9 18/18/9 16/19/9
f 17/20/10 20/21/10 18/18/10
f 19/22/11 22/23/11 20/21/11
f 21/24/12 24/25/12 22/23/12
f 23/26/13 26/27/13 24/25/13
f 25/28/14 28/29/14 26/27/14
f 27/30/15 30/31/15 28/29/15
f 29/32/16 32/33/16 30/31/16
f 31/34/17 34/35/17 32/33/17
f 33/36/18 36/37/18 34/35/18
f 35/38/19 38/39/19 36/37/19
f 41/40/20 44/41/20 42/42/20
f 45/43/21 44/41/21 43/44/21
f 37/45/22 40/46/22 38/39/22
f 47/47/23 46/48/23 45/43/23
f 49/49/24 48/50/24 47/47/24
f 51/51/25 50/52/25 49/49/25
f 53/53/26 52/54/26 51/51/26
f 55/3/27 54/55/27 53/53/27
f 39/56/28 42/42/28 40/46/28
f 9/57/29 7/58/29 49/59/29
f 50/60/30 52/61/30 10/62/30
f 1/1/1 4/5/1 56/2/1
f 2/4/2 3/7/2 4/5/2
f 5/6/3 6/9/3 3/7/3
f 7/8/4 8/11/4 6/9/4
f 9/10/5 10/13/5 8/11/5
f 11/12/6 12/15/6 10/13/6
f 13/14/7 14/17/7 12/15/7
f 15/16/8 16/19/8 14/17/8
f 15/16/9 17/20/9 18/18/9
f 17/20/10 19/22/10 20/21/10
f 19/22/11 21/24/11 22/23/11
f 21/24/12 23/26/12 24/25/12
f 23/26/13 25/28/13 26/27/13
f 25/28/14 27/30/14 28/29/14
f 27/30/15 29/32/15 30/31/15
f 29/32/16 31/34/16 32/33/16
f 31/34/17 33/36/17 34/35/17
f 33/36/18 35/38/18 36/37/18
f 35/38/19 37/45/19 38/39/19
f 41/40/20 43/44/20 44/41/20
f 45/43/21 46/48/21 44/41/21
f 37/45/22 39/56/22 40/46/22
f 47/47/23 48/50/23 46/48/23
f 49/49/24 50/52/24 48/50/24
f 51/51/25 52/54/25 50/52/25
f 53/53/26 54/55/26 52/54/26
f 55/3/27 56/2/27 54/55/27
f 39/56/28 41/40/28 42/42/28
f 5/63/29 2/64/29 55/65/29
f 2/64/29 1/66/29 55/65/29
f 55/65/29 53/67/29 5/63/29
f 53/67/29 51/68/29 5/63/29
f 51/68/29 49/59/29 7/58/29
f 5/63/29 51/68/29 7/58/29
f 49/59/29 47/69/29 9/57/29
f 47/69/29 45/70/29 11/71/29
f 9/57/29 47/69/29 11/71/29
f 45/70/29 43/72/29 13/73/29
f 43/72/29 41/74/29 15/75/29
f 13/73/29 43/72/29 15/75/29
f 41/74/29 39/76/29 17/77/29
f 39/76/29 37/78/29 19/79/29
f 17/77/29 39/76/29 19/79/29
f 37/78/29 35/80/29 21/81/29
f 35/80/29 33/82/29 23/83/29
f 21/81/29 35/80/29 23/83/29
f 33/82/29 31/84/29 27/85/29
f 31/84/29 29/86/29 27/85/29
f 27/85/29 25/87/29 33/82/29
f 25/87/29 23/83/29 33/82/29
f 21/81/29 19/79/29 37/78/29
f 17/77/29 15/75/29 41/74/29
f 13/73/29 11/71/29 45/70/29
f 54/88/30 56/89/30 3/90/30
f 56/89/30 4/91/30 3/90/30
f 3/90/30 6/92/30 54/88/30
f 6/92/30 8/93/30 54/88/30
f 8/93/30 10/62/30 52/61/30
f 54/88/30 8/93/30 52/61/30
f 10/62/30 12/94/30 50/60/30
f 12/94/30 14/95/30 48/96/30
f 50/60/30 12/94/30 48/96/30
f 14/95/30 16/97/30 46/98/30
f 16/97/30 18/99/30 44/100/30
f 46/98/30 16/97/30 44/100/30
f 18/99/30 20/101/30 42/102/30
f 20/101/30 22/103/30 40/104/30
f 42/102/30 20/101/30 40/104/30
f 22/103/30 24/105/30 38/106/30
f 24/105/30 26/107/30 36/108/30
f 38/106/30 24/105/30 36/108/30
f 26/107/30 28/109/30 32/110/30
f 28/109/30 30/111/30 32/110/30
f 32/110/30 34/112/30 26/107/30
f 34/112/30 36/108/30 26/107/30
f 38/106/30 40/104/30 22/103/30
f 42/102/30 44/100/30 18/99/30
f 46/98/30 48/96/30 14/95/30
