# Blender v3.0.0 OBJ File: 'terrain_Wooded_Hill_124.blend'
# www.blender.org
mtllib terrain_Wooded_Hill_124.mtl
o terrain_Wooded_Hill_#124.001_Cube.001
v -0.281909 -0.214454 2.566848
v -1.307160 -0.214454 2.529401
v -2.293010 -0.214454 2.418498
v -3.089796 -0.199272 2.148746
v -3.997939 -0.214454 1.996033
v -4.590008 -0.199272 1.611050
v -4.703504 -0.199272 0.808620
v 4.573317 -0.214454 1.363769
v 4.087680 -0.214454 1.700705
v 3.434121 -0.214454 1.996032
v 2.637757 -0.214454 2.238401
v 1.729191 -0.214454 2.418498
v 0.743340 -0.214454 2.529401
v -5.017241 -0.213263 -1.921340
v 5.218979 -0.214454 -1.921340
v 2.026784 0.572948 -0.860158
v 1.818248 0.572948 -0.715475
v 2.235351 0.572948 -1.921340
v 0.805493 0.572948 -0.407249
v 1.195638 0.572948 -0.484584
v 0.382160 0.572948 -0.359626
v -0.058091 0.572948 -0.343546
v 1.537604 0.572948 -0.588659
v -0.921674 0.572948 -0.407249
v -1.930476 0.572948 -0.734176
v -1.979755 0.572948 -1.082578
v -2.059979 0.572948 -1.921340
v -1.653786 0.572948 -0.588659
v -1.279107 0.572948 -0.500716
v -0.498342 0.572948 -0.359626
vt 0.771994 0.287748
vt 0.773773 0.242307
vt 0.993538 0.492063
vt 0.605053 0.719760
vt 0.565073 0.996002
vt 0.565073 0.723697
vt 0.643496 0.708098
vt 0.658177 0.986832
vt 0.680191 0.691056
vt 0.747702 0.959675
vt 0.709979 0.663676
vt 0.830209 0.915574
vt 0.737360 0.633888
vt 0.902528 0.856224
vt 1.005978 0.701399
vt 0.756508 0.598065
vt 0.665739 0.622689
vt 0.545954 0.011938
vt 0.605496 0.010093
vt 0.784207 0.009108
vt 0.695185 0.481875
vt 0.632932 0.014280
vt 0.168269 0.783906
vt 0.375745 0.597192
vt 0.394682 0.632621
vt 0.227619 0.856224
vt 0.420168 0.663676
vt 0.299937 0.915574
vt 0.451222 0.689161
vt 0.382444 0.959675
vt 0.486651 0.708098
vt 0.028287 0.984563
vt 0.008159 0.984539
vt 0.016216 0.992508
vt 0.471970 0.986832
vt 0.525094 0.719760
vt 0.308807 0.047706
vt 0.059704 0.233280
vt 0.158096 0.052256
vt 0.821777 0.093655
vt 0.841685 0.071937
vt 0.989074 0.048933
vt 0.876787 0.484962
vt 0.795125 0.413494
vt 0.774688 0.333145
vt 0.781753 0.376751
vt 0.828275 0.480366
vt 0.807747 0.452025
vt 0.804429 0.122785
vt 0.790309 0.158209
vt 0.779958 0.198567
vt 0.961877 0.783906
vt 0.470872 0.617793
vt 0.744051 0.480204
vt 0.124168 0.701399
vt 0.008706 0.986345
vt 0.009659 0.988126
vt 0.010940 0.989688
vt 0.012502 0.990969
vt 0.014283 0.991921
vt 0.018227 0.992706
vt 0.020237 0.992508
vt 0.022170 0.991921
vt 0.023951 0.990969
vt 0.025513 0.989688
vt 0.027747 0.986345
vt 0.026794 0.988126
vt 0.418874 0.222706
vn 0.0000 1.0000 -0.0000
vn -0.0095 0.9654 0.2605
vn -0.0287 0.9664 0.2554
vn -0.0626 0.9689 0.2396
vn -0.0571 0.9683 0.2432
vn -0.1056 0.9739 0.2009
vn -0.2498 0.9677 0.0353
vn -0.2569 0.9661 0.0246
vn 0.2549 0.9657 0.0501
vn 0.1331 0.9724 0.1919
vn 0.1003 0.9699 0.2219
vn 0.0733 0.9678 0.2410
vn 0.0501 0.9662 0.2529
vn -0.0001 -1.0000 -0.0001
vn 0.0292 0.9653 0.2594
vn 0.0096 0.9651 0.2618
vn 0.0000 0.0000 -1.0000
vn 0.0000 -1.0000 0.0000
vn -0.0000 -1.0000 -0.0003
vn -0.0241 -0.9996 0.0148
vn 0.0210 -0.9995 -0.0252
vn -0.0282 -0.9996 0.0040
vn -0.0047 -1.0000 0.0057
usemtl Material.001
s off
f 22/1/1 21/2/1 27/3/1
f 30/4/2 1/5/2 22/6/2
f 24/7/3 2/8/3 30/4/3
f 29/9/4 3/10/4 24/7/4
f 28/11/5 4/12/5 29/9/5
f 25/13/6 5/14/6 28/11/6
f 7/15/7 25/13/7 26/16/7
f 14/17/8 26/18/8 27/19/8
f 15/20/9 16/21/9 8/22/9
f 9/23/10 16/24/10 17/25/10
f 10/26/11 17/25/11 23/27/11
f 11/28/12 23/27/12 20/29/12
f 12/30/13 20/29/13 19/31/13
f 14/32/14 15/33/14 13/34/14
f 13/35/15 19/31/15 21/36/15
f 13/35/16 22/6/16 1/5/16
f 18/37/17 14/38/17 27/39/17
f 17/40/1 16/41/1 18/42/1
f 18/42/1 27/3/1 21/2/1
f 27/3/1 26/43/1 29/44/1
f 30/45/1 27/3/1 24/46/1
f 26/43/1 25/47/1 28/48/1
f 29/44/1 24/46/1 27/3/1
f 26/43/1 28/48/1 29/44/1
f 17/40/1 18/42/1 23/49/1
f 27/3/1 30/45/1 22/1/1
f 20/50/1 18/42/1 19/51/1
f 20/50/1 23/49/1 18/42/1
f 21/2/1 19/51/1 18/42/1
f 30/4/2 2/8/2 1/5/2
f 24/7/3 3/10/3 2/8/3
f 29/9/4 4/12/4 3/10/4
f 28/11/5 5/14/5 4/12/5
f 25/13/6 6/52/6 5/14/6
f 7/15/7 6/52/7 25/13/7
f 14/17/8 7/53/8 26/18/8
f 15/20/9 18/54/9 16/21/9
f 9/23/10 8/55/10 16/24/10
f 10/26/11 9/23/11 17/25/11
f 11/28/12 10/26/12 23/27/12
f 12/30/13 11/28/13 20/29/13
f 15/33/18 8/56/18 9/57/18
f 9/57/18 10/58/18 15/33/18
f 10/58/18 11/59/18 15/33/18
f 11/59/18 12/60/18 15/33/18
f 12/60/18 13/34/18 15/33/18
f 13/34/19 1/61/19 14/32/19
f 1/61/19 2/62/19 14/32/19
f 2/62/19 3/63/19 14/32/19
f 3/63/20 4/64/20 14/32/20
f 4/64/21 5/65/21 7/66/21
f 5/65/22 6/67/22 7/66/22
f 7/66/23 14/32/23 4/64/23
f 13/35/15 12/30/15 19/31/15
f 13/35/16 21/36/16 22/6/16
f 18/37/17 15/68/17 14/38/17
