# Blender v3.0.0 OBJ File: 'terrain_wooded_hill_102.blend'
# www.blender.org
mtllib terrain_wooded_hill_102.mtl
o terrain_Wooded_Hill_#102.001
v -3.022623 -0.097206 -0.158569
v -2.939323 -0.097206 0.382231
v -2.939323 -0.096066 0.382231
v -3.022623 -0.096066 -0.158569
v -2.702223 -0.097206 0.878831
v -2.702223 -0.096066 0.878831
v -2.330123 -0.097206 1.317031
v -2.330123 -0.096066 1.317031
v -1.842123 -0.097206 1.682631
v -1.842123 -0.096066 1.682631
v -1.257223 -0.097206 1.961331
v -1.257223 -0.096066 1.961331
v -0.594423 -0.097206 2.139031
v -0.594423 -0.096066 2.139031
v 0.127377 -0.097206 2.201431
v 0.127377 -0.096066 2.201431
v 0.849177 -0.097206 2.139031
v 0.849177 -0.096066 2.139031
v 1.511977 -0.097206 1.961331
v 1.511977 -0.096066 1.961331
v 2.096877 -0.097206 1.682631
v 2.096877 -0.096066 1.682631
v 2.584877 -0.097206 1.317031
v 2.584877 -0.096066 1.317031
v 2.956977 -0.097206 0.878831
v 2.956977 -0.096066 0.878831
v 3.194077 -0.097206 0.382231
v 3.194077 -0.096066 0.382231
v 3.277377 -0.097206 -0.158569
v 3.277377 -0.096066 -0.158569
v 3.194077 -0.097206 -0.699369
v 3.194077 -0.096066 -0.699369
v 2.956977 -0.097206 -1.195969
v 2.956977 -0.096066 -1.195969
v 2.584877 -0.097206 -1.634169
v 2.584877 -0.096066 -1.634169
v 2.096877 -0.097206 -1.999769
v 2.096877 -0.096066 -1.999769
v 1.511977 -0.097206 -2.278469
v 1.511977 -0.096066 -2.278469
v 0.849177 -0.097206 -2.456169
v 0.849177 -0.096066 -2.456169
v 0.127377 -0.097206 -2.518569
v 0.127377 -0.096066 -2.518569
v -0.594423 -0.097206 -2.456169
v -0.594423 -0.096066 -2.456169
v -1.257223 -0.097206 -2.278469
v -1.257223 -0.096066 -2.278469
v -1.842123 -0.097206 -1.999769
v -1.842123 -0.096066 -1.999769
v -2.330123 -0.097206 -1.634169
v -2.330123 -0.096066 -1.634169
v -2.702223 -0.097206 -1.195969
v -2.702223 -0.096066 -1.195969
v -2.939323 -0.097206 -0.699369
v -2.939323 -0.096066 -0.699369
v -2.939323 -0.096066 0.382231
v -3.022623 -0.096066 -0.158569
v -2.702223 -0.096066 0.878831
v 3.194077 -0.096066 0.382231
v 3.194077 -0.096066 -0.699369
v -2.939323 -0.096066 -0.699369
v -2.330123 -0.096066 1.317031
v -1.842123 -0.096066 1.682631
v -1.257223 -0.096066 1.961331
v -0.594423 -0.096066 2.139031
v 0.127377 -0.096066 2.201431
v 0.849177 -0.096066 2.139031
v 1.511977 -0.096066 1.961331
v 2.096877 -0.096066 1.682631
v 2.584877 -0.096066 1.317031
v 2.956977 -0.096066 0.878831
v 2.956977 -0.096066 -1.195969
v 2.584877 -0.096066 -1.634169
v 2.096877 -0.096066 -1.999769
v 1.511977 -0.096066 -2.278469
v 0.849177 -0.096066 -2.456169
v 0.127377 -0.096066 -2.518569
v -0.594423 -0.096066 -2.456169
v -1.257223 -0.096066 -2.278469
v -1.842123 -0.096066 -1.999769
v -2.330123 -0.096066 -1.634169
v -2.702223 -0.096066 -1.195969
v -0.674690 0.296495 0.560741
v -0.685978 0.296495 0.487452
v -0.642558 0.296495 0.628041
v 0.156513 0.296495 0.560741
v 0.156513 0.296495 0.414162
v -0.674690 0.296495 0.414162
v -0.592130 0.296495 0.687426
v -0.525996 0.296495 0.736972
v -0.446730 0.296495 0.774742
v -0.356907 0.296495 0.798824
v -0.259088 0.296495 0.807281
v -0.161269 0.296495 0.798824
v -0.071446 0.296495 0.774742
v 0.007820 0.296495 0.736972
v 0.073954 0.296495 0.687426
v 0.124381 0.296495 0.628041
v 0.124381 0.296495 0.346862
v 0.073954 0.296495 0.287477
v 0.007820 0.296495 0.237931
v -0.071446 0.296495 0.200161
v -0.161269 0.296495 0.176079
v -0.259088 0.296495 0.167623
v -0.356907 0.296495 0.176079
v -0.446730 0.296495 0.200161
v -0.525996 0.296495 0.237931
v -0.592130 0.296495 0.287477
v -0.642558 0.296495 0.346862
vt 0.826505 0.979247
vt 0.862385 0.970216
vt 0.863465 0.972851
vt 0.826731 0.982071
vt 0.894575 0.950740
vt 0.896355 0.952987
vt 0.922118 0.922044
vt 0.924385 0.923807
vt 0.944230 0.885833
vt 0.946812 0.887086
vt 0.959688 0.843317
vt 0.962454 0.844062
vt 0.967894 0.796087
vt 0.970742 0.796340
vt 0.967896 0.745490
vt 0.970742 0.745254
vt 0.959342 0.695656
vt 0.962103 0.694939
vt 0.943241 0.650633
vt 0.945828 0.649438
vt 0.920579 0.611704
vt 0.922896 0.610051
vt 0.892781 0.579903
vt 0.894706 0.577812
vt 0.860816 0.556685
vt 0.862188 0.554206
vt 0.825929 0.543054
vt 0.826575 0.540301
vt 0.789098 0.540284
vt 0.788878 0.537461
vt 0.753206 0.549232
vt 0.752126 0.546597
vt 0.721078 0.568786
vt 0.719296 0.566542
vt 0.693545 0.597484
vt 0.691278 0.595722
vt 0.671437 0.633694
vt 0.668855 0.632441
vt 0.655980 0.676209
vt 0.653214 0.675464
vt 0.647774 0.723439
vt 0.644927 0.723186
vt 0.647772 0.774036
vt 0.644927 0.774272
vt 0.656326 0.823870
vt 0.653565 0.824587
vt 0.672427 0.868893
vt 0.669839 0.870088
vt 0.695088 0.907821
vt 0.692770 0.909475
vt 0.722881 0.939623
vt 0.720956 0.941713
vt 0.754835 0.962850
vt 0.753461 0.965326
vt 0.789675 0.976564
vt 0.789029 0.979316
vt 0.021557 0.991189
vt 0.020304 0.991947
vt 0.017474 0.992194
vt 0.052157 0.904971
vt 0.046806 0.870235
vt 0.052157 0.835498
vt 0.653565 0.824587
vt 0.315247 0.019005
vt 0.234544 0.922249
vt 0.271595 0.015670
vt 0.924385 0.923807
vt 0.719296 0.566542
vt 0.945828 0.649438
vt 0.669839 0.870088
vt 0.863465 0.972851
vt 0.789029 0.979316
vt 0.922896 0.610051
vt 0.692770 0.909475
vt 0.946812 0.887086
vt 0.691278 0.595722
vt 0.894706 0.577812
vt 0.720956 0.941713
vt 0.962454 0.844062
vt 0.668855 0.632441
vt 0.862188 0.554206
vt 0.970742 0.796340
vt 0.653214 0.675464
vt 0.753461 0.965326
vt 0.644927 0.723186
vt 0.826731 0.982071
vt 0.970742 0.745254
vt 0.644927 0.774272
vt 0.534658 0.036286
vt 0.375306 0.044454
vt 0.375306 0.044454
vt 0.896355 0.952987
vt 0.752126 0.546597
vt 0.962103 0.694939
vt 0.039108 0.884310
vt 0.035293 0.887549
vt 0.013418 0.884310
vt 0.767050 0.148453
vt 0.307678 0.925947
vt 0.737429 0.129660
vt 0.911241 0.198921
vt 0.338035 0.912197
vt 0.885929 0.178870
vt 0.482899 0.044945
vt 0.281551 0.917327
vt 0.275474 0.915851
vt 0.354428 0.023580
vt 0.240460 0.922701
vt 0.795846 0.168652
vt 0.311692 0.928494
vt 0.932301 0.218612
vt 0.341465 0.914915
vt 0.527740 0.055838
vt 0.287690 0.918954
vt 0.387836 0.029178
vt 0.245770 0.923320
vt 0.826755 0.141531
vt 0.330016 0.907137
vt 0.100709 0.017899
vt 0.207393 0.923119
vt 0.071252 0.022090
vt 0.573043 0.067848
vt 0.293388 0.920595
vt 0.414172 0.035581
vt 0.250297 0.924079
vt 0.303889 0.923814
vt 0.709467 0.113915
vt 0.136878 0.015012
vt 0.211386 0.922551
vt 0.615088 0.079953
vt 0.298478 0.922190
vt 0.300626 0.922253
vt 0.685388 0.102398
vt 0.822877 0.189455
vt 0.315595 0.931232
vt 0.178610 0.013588
vt 0.216287 0.922159
vt 0.652643 0.091727
vt 0.302791 0.923683
vt 0.847195 0.210063
vt 0.319258 0.934051
vt 0.224765 0.013794
vt 0.221943 0.921967
vt 0.770841 0.116732
vt 0.326082 0.905208
vt 0.322438 0.903776
vt 0.442170 0.036018
vt 0.265145 0.913721
vt 0.406678 0.029232
vt 0.228198 0.921994
vt 0.797729 0.127295
vt 0.269955 0.914641
vt 0.018908 0.992299
vt 0.016118 0.991661
vt 0.014875 0.990757
vt 0.013793 0.989519
vt 0.022629 0.990072
vt 0.012911 0.988004
vt 0.023489 0.988663
vt 0.012284 0.986252
vt 0.024091 0.987008
vt 0.011951 0.984312
vt 0.024410 0.985170
vt 0.011952 0.982343
vt 0.024411 0.983201
vt 0.012271 0.980505
vt 0.023451 0.979509
vt 0.012872 0.978850
vt 0.022569 0.977994
vt 0.013733 0.977441
vt 0.021487 0.976757
vt 0.014804 0.976324
vt 0.020243 0.975853
vt 0.016055 0.975563
vt 0.017452 0.975215
vt 0.018885 0.975322
vt 0.024078 0.981262
vt 0.826575 0.540301
vt 0.534658 0.036286
vt 0.021555 0.889613
vt 0.017233 0.887549
vt 0.030970 0.889613
vt 0.010236 0.880062
vt 0.042290 0.880062
vt 0.007810 0.874971
vt 0.044716 0.874971
vt 0.006263 0.869201
vt 0.005720 0.862918
vt 0.046263 0.869201
vt 0.006263 0.856635
vt 0.046263 0.856635
vt 0.007810 0.850866
vt 0.044716 0.850866
vt 0.010236 0.845774
vt 0.013418 0.841526
vt 0.042290 0.845774
vt 0.017233 0.838287
vt 0.035293 0.838287
vt 0.021555 0.836223
vt 0.030970 0.836223
vt 0.026263 0.835498
vt 0.039108 0.841526
vt 0.046806 0.862918
vt 0.344319 0.917583
vt 0.253866 0.924947
vt 0.684468 0.102739
vt 0.322554 0.936844
vn -0.9883 0.0000 0.1522
vn -0.9024 0.0000 0.4309
vn -0.7623 0.0000 0.6473
vn -0.5996 0.0000 0.8003
vn -0.4302 0.0000 0.9028
vn -0.2590 0.0000 0.9659
vn -0.0861 0.0000 0.9963
vn 0.0861 0.0000 0.9963
vn 0.2590 0.0000 0.9659
vn 0.4302 0.0000 0.9028
vn 0.5996 0.0000 0.8003
vn 0.7623 0.0000 0.6473
vn 0.9024 0.0000 0.4309
vn 0.9883 0.0000 0.1522
vn 0.9883 0.0000 -0.1522
vn 0.9024 0.0000 -0.4309
vn 0.7623 0.0000 -0.6473
vn 0.5996 0.0000 -0.8003
vn 0.4302 0.0000 -0.9028
vn 0.2590 0.0000 -0.9659
vn 0.0861 0.0000 -0.9963
vn -0.0861 0.0000 -0.9963
vn -0.2590 0.0000 -0.9659
vn -0.4302 0.0000 -0.9028
vn -0.5996 0.0000 -0.8003
vn -0.7623 0.0000 -0.6473
vn -0.9024 0.0000 -0.4309
vn -0.9883 0.0000 -0.1522
vn 0.0000 -1.0000 0.0000
vn 0.0000 0.0486 0.9988
vn 0.0000 1.0000 0.0000
vn 0.0000 0.0000 1.0000
vn -0.0513 0.9888 -0.1398
vn -0.0263 0.9891 -0.1451
vn -0.0249 0.9891 -0.1453
vn 0.0834 0.6381 0.7654
vn 0.0779 0.6561 0.7506
vn -0.1743 0.9835 0.0480
vn -0.1670 0.9859 0.0050
vn -0.1647 0.9863 -0.0037
vn 0.1020 0.9926 -0.0653
vn 0.0682 0.9976 -0.0138
vn -0.0480 0.9608 0.2729
vn -0.0042 0.9623 0.2721
vn -0.0773 0.9888 -0.1280
vn -0.0519 0.9888 -0.1396
vn -0.1739 0.9792 0.1047
vn -0.1752 0.9826 0.0618
vn 0.0863 0.9922 -0.0899
vn 0.1013 0.9926 -0.0666
vn 0.0036 0.9628 0.2701
vn 0.0375 0.9663 0.2547
vn -0.1025 0.9887 -0.1093
vn -0.0775 0.9888 -0.1279
vn 0.0744 0.9970 0.0208
vn 0.0684 0.9916 -0.1101
vn 0.0845 0.9921 -0.0922
vn 0.0494 0.9679 0.2463
vn 0.0735 0.9719 0.2235
vn -0.1264 0.9885 -0.0828
vn -0.1028 0.9887 -0.1090
vn -0.1498 0.9878 -0.0435
vn -0.1478 0.9879 -0.0477
vn 0.0482 0.9908 -0.1262
vn 0.0658 0.9915 -0.1125
vn 0.0845 0.9742 0.2095
vn 0.1008 0.9779 0.1832
vn -0.1274 0.9885 -0.0814
vn -0.1613 0.9736 0.1616
vn -0.1716 0.9777 0.1214
vn 0.0256 0.9901 -0.1378
vn 0.0452 0.9907 -0.1280
vn 0.1087 0.9800 0.1666
vn 0.1190 0.9832 0.1383
vn -0.1355 0.9676 0.2131
vn -0.1552 0.9718 0.1774
vn 0.0010 0.9895 -0.1445
vn 0.0228 0.9900 -0.1389
vn 0.1234 0.9848 0.1219
vn 0.1287 0.9874 0.0918
vn -0.0968 0.9628 0.2524
vn -0.1273 0.9662 0.2240
vn -0.0012 0.9895 -0.1448
vn 0.1301 0.9884 0.0779
vn -0.0903 0.9623 0.2567
usemtl Default_OBJ.007
s 1
f 1/1/1 2/2/1 3/3/1
f 1/1/1 3/3/1 4/4/1
f 2/2/2 5/5/2 6/6/2
f 2/2/2 6/6/2 3/3/2
f 5/5/3 7/7/3 8/8/3
f 5/5/3 8/8/3 6/6/3
f 7/7/4 9/9/4 10/10/4
f 7/7/4 10/10/4 8/8/4
f 9/9/5 11/11/5 12/12/5
f 9/9/5 12/12/5 10/10/5
f 11/11/6 13/13/6 14/14/6
f 11/11/6 14/14/6 12/12/6
f 13/13/7 15/15/7 16/16/7
f 13/13/7 16/16/7 14/14/7
f 15/15/8 17/17/8 18/18/8
f 15/15/8 18/18/8 16/16/8
f 17/17/9 19/19/9 20/20/9
f 17/17/9 20/20/9 18/18/9
f 19/19/10 21/21/10 22/22/10
f 19/19/10 22/22/10 20/20/10
f 21/21/11 23/23/11 24/24/11
f 21/21/11 24/24/11 22/22/11
f 23/23/12 25/25/12 26/26/12
f 23/23/12 26/26/12 24/24/12
f 25/25/13 27/27/13 28/28/13
f 25/25/13 28/28/13 26/26/13
f 27/27/14 29/29/14 30/30/14
f 27/27/14 30/30/14 28/28/14
f 29/29/15 31/31/15 32/32/15
f 29/29/15 32/32/15 30/30/15
f 31/31/16 33/33/16 34/34/16
f 31/31/16 34/34/16 32/32/16
f 33/33/17 35/35/17 36/36/17
f 33/33/17 36/36/17 34/34/17
f 35/35/18 37/37/18 38/38/18
f 35/35/18 38/38/18 36/36/18
f 37/37/19 39/39/19 40/40/19
f 37/37/19 40/40/19 38/38/19
f 39/39/20 41/41/20 42/42/20
f 39/39/20 42/42/20 40/40/20
f 41/41/21 43/43/21 44/44/21
f 41/41/21 44/44/21 42/42/21
f 43/43/22 45/45/22 46/46/22
f 43/43/22 46/46/22 44/44/22
f 45/45/23 47/47/23 48/48/23
f 45/45/23 48/48/23 46/46/23
f 47/47/24 49/49/24 50/50/24
f 47/47/24 50/50/24 48/48/24
f 49/49/25 51/51/25 52/52/25
f 49/49/25 52/52/25 50/50/25
f 51/51/26 53/53/26 54/54/26
f 51/51/26 54/54/26 52/52/26
f 53/53/27 55/55/27 56/56/27
f 53/53/27 56/56/27 54/54/27
f 55/55/28 1/1/28 4/4/28
f 55/55/28 4/4/28 56/56/28
f 5/57/29 2/58/29 55/59/29
f 28/60/30 30/61/31 32/62/30
f 48/48/32 79/63/32 46/46/32
f 80/64/33 106/65/34 79/66/35
f 10/10/32 63/67/32 8/8/32
f 36/36/32 73/68/32 34/34/32
f 22/22/32 69/69/32 20/20/32
f 50/50/32 80/70/32 48/48/32
f 6/6/32 57/71/32 3/3/32
f 4/4/32 62/72/32 56/56/32
f 24/24/32 70/73/32 22/22/32
f 52/52/32 81/74/32 50/50/32
f 12/12/32 64/75/32 10/10/32
f 38/38/32 74/76/32 36/36/32
f 26/26/32 71/77/32 24/24/32
f 54/54/32 82/78/32 52/52/32
f 14/14/32 65/79/32 12/12/32
f 40/40/32 75/80/32 38/38/32
f 28/28/30 72/81/32 26/26/32
f 16/16/32 66/82/32 14/14/32
f 42/42/32 76/83/32 40/40/32
f 56/56/32 83/84/32 54/54/32
f 44/44/32 77/85/32 42/42/32
f 3/3/32 58/86/32 4/4/32
f 18/18/32 67/87/32 16/16/32
f 46/46/32 78/88/32 44/44/32
f 32/89/30 60/90/36 28/91/30
f 8/8/32 59/92/32 6/6/32
f 34/34/32 61/93/37 32/32/30
f 20/20/32 68/94/32 18/18/32
f 98/95/31 99/96/31 101/97/31
f 57/98/38 85/99/39 58/100/40
f 73/101/41 88/102/42 61/103/37
f 66/104/43 94/105/44 93/106/43
f 81/107/45 107/108/46 80/64/33
f 59/109/47 84/110/48 57/98/38
f 74/111/49 100/112/50 73/101/41
f 67/113/51 95/114/52 94/105/44
f 82/115/53 108/116/54 81/107/45
f 60/117/36 88/102/42 87/118/55
f 75/119/56 101/120/57 74/121/49
f 68/122/58 96/123/59 95/114/52
f 83/124/60 109/125/61 82/115/53
f 58/100/40 89/126/62 62/127/63
f 76/128/64 102/129/65 75/119/56
f 69/130/66 97/131/67 96/123/59
f 62/127/63 110/132/68 83/133/60
f 63/134/69 86/135/70 59/109/47
f 77/136/71 103/137/72 76/128/64
f 70/138/73 98/139/74 97/131/67
f 64/140/75 90/141/76 63/134/69
f 78/142/77 104/143/78 77/136/71
f 71/144/79 99/145/80 98/146/74
f 65/147/81 91/148/82 64/149/75
f 79/66/35 105/150/83 78/142/77
f 72/151/84 87/118/55 99/145/80
f 66/104/43 92/152/85 65/147/81
f 1/153/29 55/59/29 2/58/29
f 55/59/29 53/154/29 5/57/29
f 53/154/29 51/155/29 5/57/29
f 51/155/29 49/156/29 7/157/29
f 5/57/29 51/155/29 7/157/29
f 49/156/29 47/158/29 9/159/29
f 47/158/29 45/160/29 11/161/29
f 9/159/29 47/158/29 11/161/29
f 45/160/29 43/162/29 13/163/29
f 43/162/29 41/164/29 15/165/29
f 13/163/29 43/162/29 15/165/29
f 41/164/29 39/166/29 19/167/29
f 39/166/29 37/168/29 21/169/29
f 37/168/29 35/170/29 23/171/29
f 35/170/29 33/172/29 25/173/29
f 33/172/29 31/174/29 25/173/29
f 31/174/29 29/175/29 27/176/29
f 25/173/29 31/174/29 27/176/29
f 25/173/29 23/171/29 35/170/29
f 23/171/29 21/169/29 37/168/29
f 21/169/29 19/167/29 39/166/29
f 19/167/29 17/177/29 41/164/29
f 17/177/29 15/165/29 41/164/29
f 13/163/29 11/161/29 45/160/29
f 9/159/29 7/157/29 49/156/29
f 48/48/32 80/70/32 79/63/32
f 80/64/33 107/108/46 106/65/34
f 10/10/32 64/75/32 63/67/32
f 36/36/32 74/76/32 73/68/32
f 22/22/32 70/73/32 69/69/32
f 50/50/32 81/74/32 80/70/32
f 6/6/32 59/92/32 57/71/32
f 4/4/32 58/86/32 62/72/32
f 24/24/32 71/77/32 70/73/32
f 52/52/32 82/78/32 81/74/32
f 12/12/32 65/79/32 64/75/32
f 38/38/32 75/80/32 74/76/32
f 26/26/32 72/81/32 71/77/32
f 54/54/32 83/84/32 82/78/32
f 14/14/32 66/82/32 65/79/32
f 40/40/32 76/83/32 75/80/32
f 28/28/30 60/178/36 72/81/32
f 16/16/32 67/87/32 66/82/32
f 42/42/32 77/85/32 76/83/32
f 56/56/32 62/72/32 83/84/32
f 44/44/32 78/88/32 77/85/32
f 3/3/32 57/71/32 58/86/32
f 18/18/32 68/94/32 67/87/32
f 46/46/32 79/63/32 78/88/32
f 32/89/30 61/179/37 60/90/36
f 8/8/32 63/67/32 59/92/32
f 34/34/32 73/68/32 61/93/37
f 20/20/32 69/69/32 68/94/32
f 88/180/42 100/181/31 87/182/55
f 100/181/31 101/97/31 99/96/31
f 87/182/55 100/181/31 99/96/31
f 101/97/31 102/183/31 97/184/31
f 102/183/31 103/185/31 96/186/31
f 103/185/31 104/187/31 96/186/31
f 104/187/31 105/188/31 95/189/31
f 96/186/31 104/187/31 95/189/31
f 105/188/31 106/190/31 93/191/31
f 106/190/31 107/192/31 92/193/31
f 107/192/31 108/194/31 92/193/31
f 108/194/31 109/195/31 91/196/31
f 92/193/31 108/194/31 91/196/31
f 109/195/31 110/197/31 86/198/31
f 110/197/31 89/199/31 84/200/31
f 89/199/31 85/201/31 84/200/31
f 84/200/31 86/198/31 110/197/31
f 86/198/31 90/202/31 109/195/31
f 90/202/31 91/196/31 109/195/31
f 92/193/31 93/191/31 106/190/31
f 93/191/31 94/203/31 105/188/31
f 94/203/31 95/189/31 105/188/31
f 96/186/31 97/184/31 102/183/31
f 97/184/31 98/95/31 101/97/31
f 57/98/38 84/110/48 85/99/39
f 73/101/41 100/112/50 88/102/42
f 66/104/43 67/113/51 94/105/44
f 81/107/45 108/116/54 107/108/46
f 59/109/47 86/135/70 84/110/48
f 74/111/49 101/204/57 100/112/50
f 67/113/51 68/122/58 95/114/52
f 82/115/53 109/125/61 108/116/54
f 60/117/36 61/103/37 88/102/42
f 75/119/56 102/129/65 101/120/57
f 68/122/58 69/130/66 96/123/59
f 83/124/60 110/205/68 109/125/61
f 58/100/40 85/99/39 89/126/62
f 76/128/64 103/137/72 102/129/65
f 69/130/66 70/138/73 97/131/67
f 62/127/63 89/126/62 110/132/68
f 63/134/69 90/141/76 86/135/70
f 77/136/71 104/143/78 103/137/72
f 70/138/73 71/206/79 98/139/74
f 64/140/75 91/207/82 90/141/76
f 78/142/77 105/150/83 104/143/78
f 71/144/79 72/151/84 99/145/80
f 65/147/81 92/152/85 91/148/82
f 79/66/35 106/65/34 105/150/83
f 72/151/84 60/117/36 87/118/55
f 66/104/43 93/106/43 92/152/85
