# Blender v3.0.0 OBJ File: 'terrain_woods_197.blend'
# www.blender.org
mtllib terrain_woods_197.mtl
o terrain_Woods_#197.001_terrain_Woods_#197_terrain_Woods_#197_terrain_Woods_#195_te
v 6.260861 0.019985 -0.678382
v 4.181432 0.019986 -1.070011
v -6.215538 0.019953 -1.069884
v -6.215508 0.019943 -0.678230
v -4.136143 0.019959 -1.069910
v -2.056749 0.019966 -1.069936
v 2.102039 0.019981 -1.069985
v 0.022645 0.019972 -1.069960
v -5.000705 0.019911 0.795149
v -5.414451 0.019912 0.685902
v -6.279076 0.019916 0.388393
v -6.215444 0.019924 0.105081
v -6.215476 0.019934 -0.286574
v -4.242064 0.019911 0.990513
v -2.056560 0.019909 1.279994
v 0.022834 0.019916 1.279969
v 4.017169 0.019935 1.025935
v 2.340915 0.019926 1.205344
v 4.807609 0.019942 0.857195
v 5.746449 0.019952 0.641364
v 6.186678 0.019959 0.294107
v 6.260923 0.019966 0.104927
v 6.260891 0.019975 -0.286728
v 4.181430 -0.019921 -1.070011
v 6.260859 -0.019923 -0.678382
v -6.215540 -0.019955 -1.069884
v -6.215514 -0.019965 -0.678230
v -4.136146 -0.019948 -1.069910
v -2.056751 -0.019940 -1.069936
v 2.102038 -0.019926 -1.069985
v -5.000707 -0.019994 0.795149
v -4.242066 -0.019996 0.990513
v -5.414453 -0.019995 0.685902
v -6.279077 -0.019991 0.388393
v -6.215477 -0.019973 -0.286574
v -6.215444 -0.019983 0.105081
v -2.056563 -0.019998 1.279994
v 0.022831 -0.019991 1.279969
v 2.340912 -0.019980 1.205344
v 4.017164 -0.019972 1.025935
v 4.807604 -0.019965 0.857195
v 5.746448 -0.019955 0.641364
v 6.186677 -0.019948 0.294106
v 6.260922 -0.019941 0.104927
v 6.260888 -0.019931 -0.286728
v 6.260827 -0.019913 -1.070037
v 6.260830 0.019994 -1.070036
v 0.022643 -0.019935 -1.069960
vt 0.000000 0.166667
vt 0.000000 0.333333
vt 0.000000 0.333333
vt 0.833333 0.000000
vt 0.666667 0.000000
vt 0.666667 0.000000
vt 1.000000 0.666667
vt 1.000000 0.833333
vt 1.000000 0.833333
vt 0.000000 0.000000
vt 0.000000 0.166667
vt 0.166667 0.000000
vt 0.000000 0.000000
vt 0.333333 0.000000
vt 0.166667 0.000000
vt 0.500000 0.000000
vt 0.333333 0.000000
vt 0.500000 0.000000
vt 1.000000 0.166667
vt 1.000000 0.000000
vt 1.000000 0.000000
vt 1.000000 0.333333
vt 1.000000 0.166667
vt 0.000000 1.000000
vt 0.000000 1.000000
vt 0.166667 1.000000
vt 0.000000 0.666667
vt 0.000000 0.833333
vt 0.000000 0.666667
vt 0.046712 0.322321
vt 0.102238 0.253008
vt 0.194024 0.375537
vt 0.833333 0.000000
vt 0.006468 0.991433
vt 0.006468 0.993532
vt 0.008567 0.993532
vt 1.000000 0.500000
vt 1.000000 0.333333
vt 1.000000 1.000000
vt 1.000000 1.000000
vt 1.000000 0.666667
vt 1.000000 0.500000
vt 0.333333 1.000000
vt 0.333333 1.000000
vt 0.500000 1.000000
vt 0.666667 1.000000
vt 0.666667 1.000000
vt 0.833333 1.000000
vt 0.833333 1.000000
vt 0.500000 1.000000
vt 0.166667 1.000000
vt 0.000000 0.833333
vt 0.000000 0.500000
vt 0.000000 0.500000
vt 0.041581 0.274808
vt 0.046338 0.294716
vt 0.131295 0.244911
vt 0.184579 0.230412
vt 0.338344 0.207910
vt 0.340588 0.373542
vt 0.484908 0.205915
vt 0.487152 0.371547
vt 0.648367 0.208949
vt 0.633715 0.369552
vt 0.766689 0.219984
vt 0.822564 0.231119
vt 0.780280 0.367557
vt 0.888945 0.245430
vt 0.920307 0.269483
vt 0.925722 0.282746
vt 0.926095 0.310352
vt 0.926470 0.337957
vt 0.926844 0.365562
vt 0.047460 0.377532
vt 0.047086 0.349927
vt 0.014864 0.993532
vt 0.016963 0.993532
vt 0.016963 0.980938
vt 0.019062 0.993532
vt 0.019062 0.991433
vt 0.019062 0.983037
vt 0.019062 0.989334
vt 0.019062 0.987235
vt 0.019062 0.985136
vt 0.019062 0.980938
vt 0.014864 0.980938
vt 0.012765 0.980938
vt 0.010666 0.980938
vt 0.012765 0.993532
vt 0.008567 0.980938
vt 0.010666 0.993532
vt 0.006468 0.980938
vt 0.006468 0.983037
vt 0.006468 0.985136
vt 0.006468 0.987235
vt 0.006468 0.989334
vn -0.3254 0.0000 0.9456
vn 0.1064 -0.0000 0.9943
vn 1.0000 -0.0001 -0.0001
vn -0.2523 0.0000 0.9676
vn -0.2553 0.0000 0.9669
vn -0.2494 0.0000 0.9684
vn -0.1313 0.0000 0.9913
vn 0.0000 -0.0000 1.0000
vn 0.0322 -0.0000 0.9995
vn 0.2240 -0.0000 0.9746
vn 0.6193 -0.0000 0.7851
vn -0.0000 0.0000 -1.0000
vn -0.9990 0.0001 0.0437
vn -0.9990 0.0002 0.0437
vn -0.9990 0.0000 0.0437
vn -0.0000 1.0000 0.0000
vn 0.2088 -0.0000 0.9780
vn 0.0000 -1.0000 -0.0000
vn 0.9309 -0.0000 0.3653
vn 1.0000 -0.0000 -0.0001
vn -0.9991 0.0001 0.0431
vn -0.9579 -0.0001 -0.2871
vn -0.9253 -0.0000 -0.3791
vn -0.9978 -0.0000 -0.0659
usemtl None.012
s 1
f 33/1/1 11/2/1 34/3/1
f 40/4/2 18/5/2 39/6/2
f 45/7/3 25/8/3 1/9/3
f 31/10/4 10/11/5 33/1/5
f 32/12/6 9/13/4 31/10/4
f 37/14/7 14/15/7 32/12/7
f 38/16/8 15/17/8 37/14/8
f 39/6/9 16/18/9 38/16/9
f 42/19/10 19/20/10 41/21/10
f 43/22/11 20/23/11 42/19/11
f 26/24/12 3/25/12 5/26/12
f 13/27/13 4/28/14 35/29/15
f 13/30/16 10/31/16 5/32/16
f 41/21/17 17/33/17 40/4/17
f 27/34/18 26/35/18 28/36/18
f 44/37/19 21/38/19 43/22/19
f 33/1/1 10/11/1 11/2/1
f 40/4/2 17/33/2 18/5/2
f 25/8/3 46/39/3 47/40/3
f 47/40/3 1/9/3 25/8/3
f 1/9/3 23/41/3 45/7/3
f 23/41/3 22/42/20 45/7/3
f 22/42/20 44/37/20 45/7/3
f 31/10/4 9/13/4 10/11/5
f 32/12/6 14/15/6 9/13/4
f 37/14/7 15/17/7 14/15/7
f 38/16/8 16/18/8 15/17/8
f 39/6/9 18/5/9 16/18/9
f 42/19/10 20/23/10 19/20/10
f 43/22/11 21/38/11 20/23/11
f 5/26/12 6/43/12 29/44/12
f 6/43/12 8/45/12 29/44/12
f 8/45/12 7/46/12 30/47/12
f 7/46/12 2/48/12 30/47/12
f 2/48/12 47/40/12 46/39/12
f 46/39/12 24/49/12 2/48/12
f 24/49/12 30/47/12 2/48/12
f 30/47/12 48/50/12 8/45/12
f 48/50/12 29/44/12 8/45/12
f 29/44/12 28/51/12 5/26/12
f 28/51/12 26/24/12 5/26/12
f 4/28/14 3/25/21 26/24/21
f 26/24/21 27/52/13 4/28/14
f 27/52/13 35/29/15 4/28/14
f 36/53/22 34/3/23 11/2/23
f 35/29/15 36/53/22 12/54/24
f 36/53/22 11/2/23 12/54/24
f 12/54/24 13/27/13 35/29/15
f 11/55/16 10/31/16 12/56/16
f 10/31/16 9/57/16 5/32/16
f 12/56/16 10/31/16 13/30/16
f 9/57/16 14/58/16 5/32/16
f 14/58/16 15/59/16 6/60/16
f 5/32/16 14/58/16 6/60/16
f 15/59/16 16/61/16 8/62/16
f 16/61/16 18/63/16 7/64/16
f 18/63/16 17/65/16 7/64/16
f 17/65/16 19/66/16 2/67/16
f 7/64/16 17/65/16 2/67/16
f 19/66/16 20/68/16 2/67/16
f 20/68/16 21/69/16 22/70/16
f 2/67/16 20/68/16 23/71/16
f 22/70/16 23/71/16 20/68/16
f 23/71/16 1/72/16 2/67/16
f 1/72/16 47/73/16 2/67/16
f 8/62/16 6/60/16 15/59/16
f 7/64/16 8/62/16 16/61/16
f 5/32/16 3/74/16 4/75/16
f 4/75/16 13/30/16 5/32/16
f 41/21/17 19/20/17 17/33/17
f 30/76/18 24/77/18 40/78/18
f 24/77/18 46/79/18 25/80/18
f 42/81/18 45/82/18 44/83/18
f 25/80/18 45/82/18 24/77/18
f 44/83/18 43/84/18 42/81/18
f 42/81/18 41/85/18 24/77/18
f 41/85/18 40/78/18 24/77/18
f 40/78/18 39/86/18 30/76/18
f 39/86/18 38/87/18 30/76/18
f 38/87/18 37/88/18 48/89/18
f 37/88/18 32/90/18 29/91/18
f 32/90/18 31/92/18 28/36/18
f 31/92/18 33/93/18 28/36/18
f 33/93/18 34/94/18 36/95/18
f 33/93/18 36/95/18 35/96/18
f 38/87/18 48/89/18 30/76/18
f 32/90/18 28/36/18 29/91/18
f 48/89/18 37/88/18 29/91/18
f 42/81/18 24/77/18 45/82/18
f 33/93/18 35/96/18 28/36/18
f 35/96/18 27/34/18 28/36/18
f 44/37/19 22/42/19 21/38/19
