# Blender v3.0.0 OBJ File: 'terrain_wooded_hill_121.blend'
# www.blender.org
mtllib terrain_wooded_hill_121.mtl
o terrain_Wooded_Hill_#121.001_Cylinder.001
v -3.242960 -0.393701 1.355639
v -0.278475 0.393701 1.146053
v -3.146886 -0.393701 0.575278
v -0.808197 0.393701 1.019546
v -2.862357 -0.393701 -0.175094
v -0.796897 0.393701 0.893581
v -2.400308 -0.393701 -0.866641
v -0.819402 0.393701 0.807052
v -1.778493 -0.393701 -1.472788
v -0.857264 0.393701 0.703471
v -1.020810 -0.393701 -1.970239
v -0.663195 0.393701 0.639056
v -0.156376 -0.393701 -2.339879
v -0.485119 0.393701 0.502894
v 0.781590 -0.393701 -2.567502
v -0.328857 0.393701 0.373819
v 1.757042 -0.393701 -2.644361
v -0.095844 0.393701 0.787718
v 0.088850 0.393701 1.355639
v -3.242960 -0.393701 1.355639
v 1.899543 0.393701 1.355639
v 6.547183 -0.393701 1.355639
v 0.541468 0.393701 0.883814
v 2.694415 -0.393701 -2.570502
v 1.165192 0.393701 0.971356
v 1.474586 0.393701 1.233900
v 2.999939 -0.393701 -1.351252
v 3.034593 -0.393701 -1.357477
vt 0.394372 0.308745
vt 0.405043 0.000000
vt 0.415594 0.345888
vt 0.405043 0.000000
vt 0.381562 0.254980
vt 0.326023 0.010670
vt 0.368806 0.256274
vt 0.250040 0.040486
vt 0.360044 0.254082
vt 0.180013 0.088300
vt 0.349555 0.250348
vt 0.118634 0.152276
vt 0.343033 0.270172
vt 0.068262 0.229955
vt 0.329245 0.288451
vt 0.030832 0.318352
vt 0.316175 0.304501
vt 0.007783 0.414069
vt 0.358086 0.327741
vt 0.000000 0.513430
vt 0.367817 0.392491
vt 0.007479 0.608742
vt 0.011757 0.982953
vt 0.019407 1.000595
vt 0.011414 0.996456
vt 0.824169 1.000000
vt 0.904597 0.474727
vt 0.904597 0.659677
vt 0.415594 0.530163
vt 0.130311 0.641974
vt 0.403267 0.487054
vt 0.376682 0.455868
vt 0.130941 0.638440
vt 0.019407 0.972929
vt 0.019407 1.000595
vt 0.017201 1.000323
vt 0.015081 0.999519
vt 0.013127 0.998213
vt 0.010008 0.994315
vt 0.008963 0.991872
vt 0.008320 0.989222
vt 0.008103 0.986465
vt 0.008312 0.983816
vt 0.011739 0.982855
vt 0.824169 0.000000
vt 0.405043 0.996348
vn -0.2133 0.9026 0.3739
vn -0.3123 0.9492 -0.0384
vn -0.3017 0.9465 -0.1144
vn -0.2753 0.9436 -0.1839
vn -0.2351 0.9416 -0.2412
vn -0.1726 0.9493 -0.2628
vn -0.1188 0.9533 -0.2778
vn -0.0684 0.9570 -0.2820
vn -0.0184 0.9723 -0.2330
vn 0.0167 0.9771 -0.2123
vn 0.0000 1.0000 0.0000
vn 0.0000 -1.0000 -0.0000
vn 0.0000 0.0000 1.0000
vn 0.0717 0.9655 -0.2502
vn 0.1650 0.9669 -0.1945
vn 0.2519 0.9657 -0.0631
vn -0.1537 0.7499 0.6435
vn -0.3141 0.9490 -0.0282
vn -0.4009 0.9102 0.1043
vn -0.6145 0.7563 0.2246
vn -0.0999 0.9484 -0.3009
vn -0.1975 0.9457 -0.2583
vn -0.2351 0.9294 -0.2846
vn 0.2706 0.9506 -0.1523
vn 0.0313 0.9777 -0.2074
vn 0.1633 0.9637 -0.2114
vn -0.0659 0.9280 -0.3666
vn 0.0409 0.9557 -0.2916
usemtl Material.001
s off
f 2/1/1 20/2/1 19/3/1
f 1/4/2 4/5/2 3/6/2
f 3/6/3 6/7/3 5/8/3
f 5/8/4 8/9/4 7/10/4
f 7/10/5 10/11/5 9/12/5
f 9/12/6 12/13/6 11/14/6
f 11/14/7 14/15/7 13/16/7
f 13/16/8 16/17/8 15/18/8
f 15/18/9 18/19/9 17/20/9
f 17/20/10 23/21/10 24/22/10
f 23/21/11 18/19/11 19/3/11
f 27/23/12 1/24/12 9/25/12
f 20/26/13 21/27/13 19/28/13
f 21/29/14 28/30/14 26/31/14
f 28/30/15 25/32/15 26/31/15
f 23/21/16 27/33/16 24/22/16
f 2/1/13 1/4/13 20/2/13
f 1/4/17 2/1/17 4/5/17
f 3/6/18 4/5/18 6/7/18
f 5/8/19 6/7/19 8/9/19
f 7/10/20 8/9/20 10/11/20
f 9/12/21 10/11/21 12/13/21
f 11/14/22 12/13/22 14/15/22
f 13/16/23 14/15/23 16/17/23
f 15/18/24 16/17/24 18/19/24
f 17/20/25 18/19/25 23/21/25
f 12/13/11 10/11/11 8/9/11
f 6/7/11 4/5/11 2/1/11
f 12/13/11 8/9/11 6/7/11
f 18/19/11 16/17/11 14/15/11
f 14/15/11 12/13/11 18/19/11
f 12/13/11 6/7/11 2/1/11
f 2/1/11 19/3/11 18/19/11
f 19/3/11 21/29/11 26/31/11
f 12/13/11 2/1/11 18/19/11
f 19/3/11 26/31/11 25/32/11
f 23/21/11 19/3/11 25/32/11
f 22/34/13 20/35/13 1/24/13
f 1/24/12 3/36/12 5/37/12
f 5/37/12 7/38/12 1/24/12
f 7/38/12 9/25/12 1/24/12
f 9/25/12 11/39/12 27/23/12
f 11/39/12 13/40/12 27/23/12
f 13/40/12 15/41/12 27/23/12
f 15/41/12 17/42/12 27/23/12
f 17/42/12 24/43/12 27/23/12
f 27/23/12 28/44/12 22/34/12
f 22/34/12 1/24/12 27/23/12
f 20/26/13 22/45/13 21/27/13
f 21/29/26 22/46/26 28/30/26
f 28/30/27 27/33/27 25/32/27
f 23/21/28 25/32/28 27/33/28
