# Blender v3.0.0 OBJ File: 'terrain_steep_hill_176.blend'
# www.blender.org
mtllib terrain_steep_hill_176.mtl
o terrain_Steep_Hill_#176.001_Cylinder.001
v 5.668309 -0.283276 -1.217637
v 5.781782 -0.283276 -0.547028
v 5.668309 -0.283276 0.123580
v 5.332252 -0.283276 0.768418
v 4.786524 -0.283276 1.362703
v 4.052097 -0.283276 1.883599
v 3.157197 -0.283276 2.311087
v 2.136212 -0.283276 2.628740
v 1.028378 -0.283276 2.824349
v -0.123730 -0.283276 2.890399
v -1.275838 -0.283276 2.824349
v -2.383671 -0.283276 2.628740
v -3.404657 -0.283276 2.311087
v -4.299558 -0.283276 1.883600
v -5.033983 -0.283276 1.362705
v -5.579712 -0.283276 0.768419
v -5.915770 -0.283276 0.123581
v -6.029243 -0.283276 -0.547027
v -5.915770 -0.283276 -1.217636
v 2.329988 0.504125 -1.440310
v 2.371450 0.504125 -1.437545
v 5.552262 -0.283276 -1.440310
v 3.562885 0.504125 -1.289418
v 3.560082 0.504125 -1.225772
v -1.307214 0.504125 0.330971
v 3.060977 0.504125 -1.099868
v -1.634815 0.504125 0.319000
v 2.621421 0.504125 -0.843126
v -1.801943 0.504125 0.034077
v 2.022314 0.504125 -0.681319
v -1.764759 0.504125 -0.185731
v 1.647870 0.504125 -0.633438
v -1.580359 0.504125 -0.476610
v 1.048456 0.504125 -0.444032
v -1.678219 0.504125 -0.685533
v 0.507921 0.504125 -0.238163
v -1.908248 0.504125 -0.997054
v 0.068839 0.504125 -0.079777
v -1.940955 0.504125 -1.440310
v -0.318196 0.504125 0.213263
v -5.799723 -0.283276 -1.440310
v -0.895163 0.504125 0.243366
vt 0.372300 0.288873
vt 0.362449 0.019405
vt 0.372532 0.292383
vt 0.359903 0.188003
vt 0.343813 0.009586
vt 0.354576 0.188242
vt 0.287688 0.000000
vt 0.177594 0.038101
vt 0.344039 0.230504
vt 0.127857 0.084324
vt 0.322552 0.267727
vt 0.084262 0.146522
vt 0.309010 0.318457
vt 0.048484 0.222303
vt 0.305002 0.350161
vt 0.021899 0.308756
vt 0.289150 0.400917
vt 0.005528 0.402558
vt 0.271921 0.446689
vt 0.258665 0.483869
vt 0.234140 0.516647
vt 0.000000 0.500105
vt 0.231620 0.565498
vt 0.005528 0.597648
vt 0.224288 0.600387
vt 0.021899 0.691439
vt 0.225290 0.628124
vt 0.048484 0.777872
vt 0.084262 0.853626
vt 0.249136 0.642265
vt 0.127857 0.915792
vt 0.267533 0.639110
vt 0.177594 0.961978
vt 0.231562 0.990411
vt 0.291877 0.623488
vt 0.309362 0.631767
vt 0.287688 0.999997
vt 0.335434 0.651233
vt 0.343813 0.990369
vt 0.362449 0.980536
vt 0.021326 0.972645
vt 0.022288 0.972808
vt 0.022608 0.972974
vt 0.805865 0.326709
vt 0.739198 0.961135
vt 0.739198 0.000000
vt 0.231562 0.009628
vt 0.372532 0.653989
vt 0.022608 0.989267
vt 0.016392 0.981121
vt 0.022288 0.989434
vt 0.021326 0.989597
vt 0.016487 0.982774
vt 0.016768 0.984364
vt 0.020363 0.989434
vt 0.019438 0.988952
vt 0.018585 0.988168
vt 0.017837 0.987114
vt 0.017224 0.985830
vt 0.016487 0.979467
vt 0.016768 0.977877
vt 0.017224 0.976412
vt 0.017837 0.975127
vt 0.018585 0.974073
vt 0.019438 0.973290
vt 0.020363 0.972808
vt 0.805865 0.688315
vn 0.0642 0.2628 -0.9627
vn 0.1200 0.2328 -0.9651
vn 0.3301 0.9438 0.0145
vn 0.0772 0.9489 0.3061
vn 0.1282 0.9672 0.2194
vn 0.0661 0.9674 0.2447
vn 0.0311 0.9695 0.2433
vn 0.0708 0.9720 0.2240
vn 0.0890 0.9682 0.2338
vn 0.0846 0.9684 0.2346
vn 0.1993 0.9440 0.2632
vn 0.0153 0.9557 0.2938
vn 0.0754 0.9319 0.3547
vn -0.0131 0.9338 0.3575
vn -0.1490 0.9663 0.2101
vn -0.1637 0.9750 0.1503
vn -0.1938 0.9733 -0.1228
vn -0.1771 0.9837 0.0300
vn -0.1910 0.9811 -0.0323
vn -0.1867 0.9776 -0.0973
vn 0.0000 -1.0000 0.0000
vn -0.0000 -0.0000 -1.0000
vn 0.0000 1.0000 0.0000
vn 0.2383 0.9632 -0.1242
vn 0.3514 0.9343 -0.0595
vn 0.3189 0.9463 0.0540
vn 0.2671 0.9536 0.1392
vn 0.1908 0.9659 0.1752
vn 0.1445 0.9683 0.2038
vn 0.1033 0.9708 0.2163
vn 0.0697 0.9720 0.2242
vn 0.0414 0.9713 0.2343
vn 0.0147 0.9663 0.2571
vn -0.0162 0.9589 0.2832
vn -0.0503 0.9573 0.2846
vn -0.0888 0.9543 0.2854
vn -0.1267 0.9558 0.2652
vn -0.2130 0.9690 0.1249
vn -0.2531 0.9665 -0.0428
vn -0.1788 0.9795 0.0932
vn -0.1676 0.9827 0.0785
vn -0.1727 0.9767 0.1275
vn -0.1999 0.9797 0.0148
usemtl Material
s off
f 21/1/1 22/2/1 20/3/1
f 23/4/2 1/5/2 21/1/2
f 24/6/3 2/7/3 23/4/3
f 4/8/4 24/6/4 26/9/4
f 5/10/5 26/9/5 28/11/5
f 6/12/6 28/11/6 30/13/6
f 7/14/7 30/13/7 32/15/7
f 8/16/8 32/15/8 34/17/8
f 9/18/9 34/17/9 36/19/9
f 38/20/10 9/18/10 36/19/10
f 40/21/11 10/22/11 38/20/11
f 42/23/12 11/24/12 40/21/12
f 25/25/13 12/26/13 42/23/13
f 27/27/14 13/28/14 25/25/14
f 14/29/15 29/30/15 15/31/15
f 15/31/16 31/32/16 16/33/16
f 17/34/17 31/32/17 33/35/17
f 17/34/18 35/36/18 18/37/18
f 18/37/19 37/38/19 19/39/19
f 37/38/20 41/40/20 19/39/20
f 18/41/21 19/42/21 41/43/21
f 39/44/22 22/45/22 41/46/22
f 33/35/23 42/23/23 38/20/23
f 21/1/24 1/5/24 22/2/24
f 23/4/25 2/7/25 1/5/25
f 24/6/26 3/47/26 2/7/26
f 4/8/27 3/47/27 24/6/27
f 5/10/28 4/8/28 26/9/28
f 6/12/29 5/10/29 28/11/29
f 7/14/30 6/12/30 30/13/30
f 8/16/31 7/14/31 32/15/31
f 9/18/32 8/16/32 34/17/32
f 38/20/33 10/22/33 9/18/33
f 40/21/34 11/24/34 10/22/34
f 42/23/35 12/26/35 11/24/35
f 25/25/36 13/28/36 12/26/36
f 27/27/37 14/29/37 13/28/37
f 14/29/38 27/27/38 29/30/38
f 15/31/39 29/30/39 31/32/39
f 17/34/40 16/33/40 31/32/40
f 17/34/41 33/35/41 35/36/41
f 18/37/42 35/36/42 37/38/42
f 37/38/43 39/48/43 41/40/43
f 41/43/21 22/49/21 10/50/21
f 22/49/21 1/51/21 2/52/21
f 9/53/21 22/49/21 8/54/21
f 2/52/21 3/55/21 22/49/21
f 3/55/21 4/56/21 22/49/21
f 4/56/21 5/57/21 22/49/21
f 5/57/21 6/58/21 22/49/21
f 6/58/21 7/59/21 22/49/21
f 7/59/21 8/54/21 22/49/21
f 9/53/21 10/50/21 22/49/21
f 10/50/21 11/60/21 41/43/21
f 11/60/21 12/61/21 41/43/21
f 12/61/21 13/62/21 41/43/21
f 41/43/21 13/62/21 14/63/21
f 14/63/21 15/64/21 41/43/21
f 41/43/21 15/64/21 16/65/21
f 16/65/21 17/66/21 41/43/21
f 41/43/21 17/66/21 18/41/21
f 39/44/22 20/67/22 22/45/22
f 20/3/23 39/48/23 34/17/23
f 39/48/23 37/38/23 35/36/23
f 39/48/23 35/36/23 38/20/23
f 34/17/23 39/48/23 36/19/23
f 23/4/23 21/1/23 26/9/23
f 21/1/23 20/3/23 28/11/23
f 26/9/23 21/1/23 28/11/23
f 26/9/23 24/6/23 23/4/23
f 30/13/23 28/11/23 20/3/23
f 32/15/23 30/13/23 20/3/23
f 35/36/23 33/35/23 38/20/23
f 33/35/23 31/32/23 25/25/23
f 31/32/23 29/30/23 25/25/23
f 29/30/23 27/27/23 25/25/23
f 42/23/23 40/21/23 38/20/23
f 25/25/23 42/23/23 33/35/23
f 36/19/23 39/48/23 38/20/23
f 34/17/23 32/15/23 20/3/23
