# Blender v3.0.0 OBJ File: 'terrain_steep_hill_176.blend'
# www.blender.org
mtllib terrain_steep_hill_176.mtl
o terrain_Steep_Hill_#176.001_Cylinder.001
v 5.668309 -0.283276 -1.217637
v 5.781782 -0.283276 -0.547028
v 5.668309 -0.283276 0.123580
v 5.332252 -0.283276 0.768418
v 4.786524 -0.283276 1.362703
v 4.052097 -0.283276 1.883599
v 3.157197 -0.283276 2.311087
v 2.136212 -0.283276 2.628740
v 1.028378 -0.283276 2.824349
v -0.123730 -0.283276 2.890399
v -1.275838 -0.283276 2.824349
v -2.383671 -0.283276 2.628740
v -3.404657 -0.283276 2.311087
v -4.299558 -0.283276 1.883600
v -5.033983 -0.283276 1.362705
v -5.579712 -0.283276 0.768419
v -5.915770 -0.283276 0.123581
v -6.029243 -0.283276 -0.547027
v -5.915770 -0.283276 -1.217636
v 2.329988 0.504125 -1.440310
v 5.668309 0.504125 -1.217637
v 5.552262 -0.283276 -1.440310
v 3.562885 0.504125 -1.289418
v 3.560082 0.504125 -1.225772
v -1.307214 0.504125 0.330971
v 3.060977 0.504125 -1.099868
v -1.634815 0.504125 0.319000
v 2.621421 0.504125 -0.843126
v -1.801943 0.504125 0.034077
v 2.022314 0.504125 -0.681319
v -1.764759 0.504125 -0.185731
v 1.647870 0.504125 -0.633438
v -1.580359 0.504125 -0.476610
v 1.048456 0.504125 -0.444032
v -1.678219 0.504125 -0.685533
v 0.507921 0.504125 -0.238163
v -1.908248 0.504125 -0.997054
v 0.068839 0.504125 -0.079777
v -1.940955 0.504125 -1.440310
v -0.318196 0.504125 0.213263
v -5.799723 -0.283276 -1.440310
v -0.895163 0.504125 0.243366
vt 0.781250 0.979910
vt 0.792041 0.500000
vt 0.834350 0.980853
vt 0.750000 0.500000
vt 0.750000 0.979910
vt 0.718750 0.979910
vt 0.687500 0.500000
vt 0.687500 0.979910
vt 0.656250 0.500000
vt 0.656250 0.979910
vt 0.625000 0.500000
vt 0.625000 0.979910
vt 0.593750 0.500000
vt 0.593750 0.979910
vt 0.562500 0.500000
vt 0.562500 0.979910
vt 0.531250 0.500000
vt 0.531250 0.979910
vt 0.500000 0.979910
vt 0.468750 0.979910
vt 0.500000 0.500000
vt 0.437500 0.979910
vt 0.468750 0.500000
vt 0.406250 0.979910
vt 0.437500 0.500000
vt 0.375000 0.979910
vt 0.406250 0.500000
vt 0.375000 0.500000
vt 0.343750 0.979910
vt 0.343750 0.500000
vt 0.312500 0.979910
vt 0.312500 0.500000
vt 0.281250 0.500000
vt 0.281250 0.979910
vt 0.250000 0.979910
vt 0.250000 0.500000
vt 0.218750 0.979910
vt 0.218750 0.500000
vt 0.207959 0.500000
vt 0.510000 0.250000
vt 0.514612 0.296822
vt 0.519328 0.312369
vt 0.625000 0.365917
vt 0.505023 0.450507
vt 0.505022 0.322356
vt 0.803954 0.526868
vt 0.764081 0.569906
vt 0.738568 0.574402
vt 0.781250 0.500000
vt 0.718750 0.500000
vt 0.237557 0.982769
vt 0.980672 0.312369
vt 0.750000 0.010000
vt 0.985388 0.296822
vt 0.990000 0.250000
vt 0.796822 0.014612
vt 0.841844 0.028269
vt 0.985388 0.203178
vt 0.971731 0.158156
vt 0.949553 0.116663
vt 0.919706 0.080294
vt 0.883337 0.050447
vt 0.703178 0.014612
vt 0.658156 0.028269
vt 0.616663 0.050447
vt 0.580294 0.080294
vt 0.550447 0.116663
vt 0.528269 0.158156
vt 0.514612 0.203178
vt 0.625000 0.414131
vt 0.710869 0.500000
vt 0.759083 0.500000
vt 0.713056 0.569906
vt 0.803954 0.503825
vt 0.805235 0.515347
vt 0.725562 0.573267
vt 0.671902 0.515347
vt 0.673183 0.503825
vt 0.676977 0.537946
vt 0.673183 0.526868
vt 0.691428 0.557105
vt 0.683137 0.548156
vt 0.701530 0.564449
vt 0.800160 0.537946
vt 0.775607 0.564449
vt 0.794000 0.548156
vt 0.785709 0.557105
vt 0.751575 0.573267
vn 0.0642 0.2628 -0.9627
vn -0.0260 0.6460 0.7629
vn 0.3301 0.9438 0.0145
vn 0.0772 0.9489 0.3061
vn 0.1282 0.9672 0.2194
vn 0.0661 0.9674 0.2447
vn 0.0311 0.9695 0.2433
vn 0.0708 0.9720 0.2240
vn 0.0890 0.9682 0.2338
vn 0.0846 0.9684 0.2346
vn 0.1993 0.9440 0.2632
vn 0.0153 0.9557 0.2938
vn 0.0754 0.9319 0.3547
vn -0.0131 0.9338 0.3575
vn -0.1490 0.9663 0.2101
vn -0.1637 0.9750 0.1503
vn -0.1938 0.9733 -0.1228
vn -0.1771 0.9837 0.0300
vn -0.1910 0.9811 -0.0323
vn -0.1867 0.9776 -0.0973
vn 0.0000 -1.0000 0.0000
vn -0.0000 -0.0000 -1.0000
vn 0.0000 1.0000 0.0000
vn 0.8868 0.0000 -0.4622
vn 0.9860 0.0000 -0.1668
vn 0.3189 0.9463 0.0540
vn 0.2671 0.9536 0.1392
vn 0.1908 0.9659 0.1752
vn 0.1445 0.9683 0.2038
vn 0.1033 0.9708 0.2163
vn 0.0697 0.9720 0.2242
vn 0.0414 0.9713 0.2343
vn 0.0147 0.9663 0.2571
vn -0.0162 0.9589 0.2832
vn -0.0503 0.9573 0.2846
vn -0.0888 0.9543 0.2854
vn -0.1267 0.9558 0.2652
vn -0.2130 0.9690 0.1249
vn -0.2531 0.9665 -0.0428
vn -0.1788 0.9795 0.0932
vn -0.1676 0.9827 0.0785
vn -0.1727 0.9767 0.1275
vn -0.1999 0.9797 0.0148
usemtl None
s off
f 21/1/1 22/2/1 20/3/1
f 2/4/2 21/1/2 23/5/2
f 24/6/3 2/4/3 23/5/3
f 4/7/4 24/6/4 26/8/4
f 5/9/5 26/8/5 28/10/5
f 6/11/6 28/10/6 30/12/6
f 7/13/7 30/12/7 32/14/7
f 8/15/8 32/14/8 34/16/8
f 9/17/9 34/16/9 36/18/9
f 38/19/10 9/17/10 36/18/10
f 40/20/11 10/21/11 38/19/11
f 42/22/12 11/23/12 40/20/12
f 25/24/13 12/25/13 42/22/13
f 27/26/14 13/27/14 25/24/14
f 14/28/15 29/29/15 15/30/15
f 15/30/16 31/31/16 16/32/16
f 17/33/17 31/31/17 33/34/17
f 17/33/18 35/35/18 18/36/18
f 18/36/19 37/37/19 19/38/19
f 37/37/20 41/39/20 19/38/20
f 18/40/21 19/41/21 41/42/21
f 39/43/22 22/44/22 41/45/22
f 33/46/23 42/47/23 38/48/23
f 21/1/24 1/49/24 22/2/24
f 2/4/25 1/49/25 21/1/25
f 24/6/26 3/50/26 2/4/26
f 4/7/27 3/50/27 24/6/27
f 5/9/28 4/7/28 26/8/28
f 6/11/29 5/9/29 28/10/29
f 7/13/30 6/11/30 30/12/30
f 8/15/31 7/13/31 32/14/31
f 9/17/32 8/15/32 34/16/32
f 38/19/33 10/21/33 9/17/33
f 40/20/34 11/23/34 10/21/34
f 42/22/35 12/25/35 11/23/35
f 25/24/36 13/27/36 12/25/36
f 27/26/37 14/28/37 13/27/37
f 14/28/38 27/26/38 29/29/38
f 15/30/39 29/29/39 31/31/39
f 17/33/40 16/32/40 31/31/40
f 17/33/41 33/34/41 35/35/41
f 18/36/42 35/35/42 37/37/42
f 37/37/43 39/51/43 41/39/43
f 41/42/21 22/52/21 10/53/21
f 22/52/21 1/54/21 2/55/21
f 9/56/21 22/52/21 8/57/21
f 2/55/21 3/58/21 22/52/21
f 3/58/21 4/59/21 22/52/21
f 4/59/21 5/60/21 22/52/21
f 5/60/21 6/61/21 22/52/21
f 6/61/21 7/62/21 22/52/21
f 7/62/21 8/57/21 22/52/21
f 9/56/21 10/53/21 22/52/21
f 10/53/21 11/63/21 41/42/21
f 11/63/21 12/64/21 41/42/21
f 12/64/21 13/65/21 41/42/21
f 41/42/21 13/65/21 14/66/21
f 14/66/21 15/67/21 41/42/21
f 41/42/21 15/67/21 16/68/21
f 16/68/21 17/69/21 41/42/21
f 41/42/21 17/69/21 18/40/21
f 39/43/22 20/70/22 22/44/22
f 20/71/23 39/72/23 34/73/23
f 39/72/23 37/74/23 35/75/23
f 39/72/23 35/75/23 38/48/23
f 34/73/23 39/72/23 36/76/23
f 23/77/23 21/78/23 20/71/23
f 26/79/23 24/80/23 23/77/23
f 30/81/23 28/82/23 20/71/23
f 28/82/23 26/79/23 20/71/23
f 32/83/23 30/81/23 20/71/23
f 26/79/23 23/77/23 20/71/23
f 35/75/23 33/46/23 38/48/23
f 33/46/23 31/84/23 25/85/23
f 31/84/23 29/86/23 25/85/23
f 29/86/23 27/87/23 25/85/23
f 42/47/23 40/88/23 38/48/23
f 25/85/23 42/47/23 33/46/23
f 36/76/23 39/72/23 38/48/23
f 34/73/23 32/83/23 20/71/23
