# Blender v3.0.0 OBJ File: 'terrain_steep_hill_167.blend'
# www.blender.org
mtllib terrain_steep_hill_167.mtl
o terrain_Steep_Hill_#167.001_terrain_Wooded_Hill_#117.001
v -3.000000 0.000000 0.000000
v -2.920666 0.000000 0.721800
v -2.920666 0.015439 0.721800
v -3.000000 0.015439 -0.000000
v -2.694857 0.000000 1.384600
v -2.694857 0.015439 1.384600
v -2.340476 0.000000 1.969500
v -2.340476 0.015439 1.969500
v -1.875714 0.000000 2.457500
v -1.875714 0.015439 2.457500
v -1.318667 0.000000 2.829600
v -1.318667 0.015439 2.829600
v -0.687429 0.000000 3.066700
v -0.687429 0.015439 3.066700
v 0.000000 0.000001 3.150000
v 0.000000 0.015440 3.150000
v 0.687429 0.000000 3.066700
v 0.687429 0.015439 3.066700
v 1.318667 0.000000 2.829600
v 1.318667 0.015439 2.829600
v 1.875714 0.000000 2.457500
v 1.875714 0.015439 2.457500
v 2.340476 0.000000 1.969500
v 2.340476 0.015439 1.969500
v 2.694857 0.000000 1.384600
v 2.694857 0.015439 1.384600
v 2.920666 0.000000 0.721800
v 2.920666 0.015439 0.721800
v 3.000000 0.000000 0.000000
v 3.000000 0.015439 -0.000000
v 2.920666 -0.000000 -0.721800
v 2.920666 0.015439 -0.721800
v 2.694857 -0.000000 -1.384600
v 2.694857 0.015439 -1.384600
v 2.340476 -0.000000 -1.969500
v 2.340476 0.015439 -1.969500
v 1.875714 -0.000000 -2.457500
v 1.875714 0.015439 -2.457500
v 1.318667 -0.000000 -2.829600
v 1.318667 0.015439 -2.829600
v 0.687429 -0.000000 -3.066700
v 0.687429 0.015439 -3.066700
v 0.000000 -0.000001 -3.150000
v 0.000000 0.015439 -3.150000
v -0.687429 -0.000000 -3.066700
v -0.687429 0.015439 -3.066700
v -1.318667 -0.000000 -2.829600
v -1.318667 0.015439 -2.829600
v -1.875714 -0.000000 -2.457500
v -1.875714 0.015439 -2.457500
v -2.340476 -0.000000 -1.969500
v -2.340476 0.015439 -1.969500
v -2.694857 -0.000000 -1.384600
v -2.694857 0.015439 -1.384600
v -2.920666 -0.000000 -0.721800
v -2.920666 0.015439 -0.721800
v -0.632527 0.787401 0.156319
v -0.649708 0.787401 -0.000000
v -0.583624 0.787401 0.299862
v -0.632527 0.787401 -0.156320
v -0.506875 0.787401 0.426533
v -0.406222 0.787401 0.532219
v -0.285583 0.787401 0.612804
v -0.148876 0.787401 0.664153
v 0.000000 0.787401 0.682193
v 0.148876 0.787401 0.664153
v 0.285583 0.787401 0.612804
v 0.406222 0.787401 0.532219
v 0.506875 0.787401 0.426533
v 0.583624 0.787401 0.299862
v 0.632527 0.787401 0.156319
v 0.649708 0.787401 -0.000000
v 0.632527 0.787401 -0.156320
v 0.583624 0.787401 -0.299862
v 0.506875 0.787401 -0.426534
v 0.406222 0.787401 -0.532220
v 0.285583 0.787401 -0.612805
v 0.148876 0.787401 -0.664154
v 0.000000 0.787401 -0.682194
v -0.148876 0.787401 -0.664154
v -0.285583 0.787401 -0.612805
v -0.406222 0.787401 -0.532220
v -0.506875 0.787401 -0.426534
v -0.583624 0.787401 -0.299862
vt 0.799226 0.777203
vt 0.787740 0.751177
vt 0.789545 0.750004
vt 0.801118 0.806802
vt 0.797298 0.778014
vt 0.826149 0.585802
vt 0.789714 0.585890
vt 0.789479 0.583729
vt 0.826390 0.583640
vt 0.754051 0.593932
vt 0.753349 0.591877
vt 0.720601 0.609857
vt 0.719461 0.608014
vt 0.690748 0.633587
vt 0.689223 0.632053
vt 0.667149 0.663411
vt 0.665320 0.662268
vt 0.651512 0.696666
vt 0.649477 0.695968
vt 0.643876 0.731963
vt 0.641742 0.731738
vt 0.644244 0.767837
vt 0.642119 0.768089
vt 0.652568 0.802799
vt 0.650559 0.803518
vt 0.668774 0.835375
vt 0.666986 0.836533
vt 0.692791 0.864138
vt 0.691323 0.865679
vt 0.722870 0.886470
vt 0.721803 0.888314
vt 0.756328 0.900727
vt 0.755715 0.902774
vt 0.791848 0.906907
vt 0.791631 0.909038
vt 0.827954 0.907869
vt 0.828118 0.910007
vt 0.863300 0.901140
vt 0.863925 0.903180
vt 0.896533 0.886525
vt 0.897602 0.888360
vt 0.926260 0.863960
vt 0.927728 0.865491
vt 0.795428 0.837517
vt 0.799163 0.807214
vt 0.782470 0.867987
vt 0.793543 0.837519
vt 0.762338 0.896894
vt 0.780752 0.867576
vt 0.007593 0.983938
vt 0.010023 0.981242
vt 0.013375 0.979435
vt 0.771871 0.726353
vt 0.746006 0.709993
vt 0.747289 0.708283
vt 0.735351 0.923114
vt 0.760885 0.896084
vt 0.770285 0.727833
vt 0.717904 0.696929
vt 0.684391 0.694045
vt 0.684884 0.692134
vt 0.195687 0.049458
vt 0.482673 0.347341
vt 0.466762 0.354894
vt 0.716992 0.698784
vt 0.515342 0.260447
vt 0.561568 0.222731
vt 0.612589 0.216406
vt 0.825169 0.767211
vt 0.590283 0.413886
vt 0.607600 0.406689
vt 0.269155 0.014580
vt 0.500000 0.344183
vt 0.745208 0.800442
vt 0.572495 0.417106
vt 0.663074 0.815313
vt 0.554913 0.416068
vt 0.674258 0.014252
vt 0.487922 0.351509
vt 0.593948 0.017591
vt 0.581889 0.810520
vt 0.538205 0.410495
vt 0.750952 0.032474
vt 0.505315 0.350786
vt 0.269155 0.835244
vt 0.500000 0.526742
vt 0.349164 0.842956
vt 0.821621 0.070140
vt 0.521924 0.354732
vt 0.000000 0.436464
vt 0.426382 0.459538
vt 0.009233 0.532647
vt 0.195687 0.806673
vt 0.482673 0.525072
vt 0.883842 0.125097
vt 0.537229 0.362889
vt 0.130853 0.759668
vt 0.466762 0.518884
vt 0.935192 0.195205
vt 0.550704 0.374791
vt 0.076761 0.696694
vt 0.452721 0.508704
vt 0.973238 0.278328
vt 0.561825 0.389975
vt 0.035515 0.620203
vt 0.441006 0.495066
vt 0.995580 0.372334
vt 0.570065 0.407977
vt 0.009233 0.339489
vt 0.432073 0.398256
vt 0.426382 0.417706
vt 0.035515 0.249677
vt 0.441006 0.380924
vt 0.432073 0.478500
vt 0.575804 0.449413
vt 0.574903 0.428335
vt 0.076761 0.169646
vt 0.452721 0.366280
vt 0.966114 0.650844
vt 0.623773 0.395796
vt 0.638124 0.381487
vt 0.899846 0.716916
vt 0.130853 0.102028
vt 0.424382 0.438708
vt 0.015142 0.979012
vt 0.016869 0.978909
vt 0.006922 0.985419
vt 0.018502 0.979146
vt 0.006632 0.986908
vt 0.019956 0.979708
vt 0.006737 0.988347
vt 0.021173 0.980602
vt 0.007249 0.989680
vt 0.022047 0.981772
vt 0.008183 0.990852
vt 0.022526 0.983116
vt 0.009464 0.991744
vt 0.022620 0.984579
vt 0.010969 0.992287
vt 0.022338 0.986098
vt 0.012630 0.992477
vt 0.021697 0.987604
vt 0.014350 0.992437
vt 0.020702 0.989032
vt 0.019367 0.990329
vt 0.017791 0.991372
vt 0.016096 0.992075
vt 0.008630 0.982525
vt 0.011651 0.980184
vt 0.734258 0.921958
vt 0.688251 0.292397
vt 0.697335 0.325956
vt 0.471867 0.390568
vt 0.700623 0.362130
vt 0.474240 0.427317
vt 0.697933 0.397945
vt 0.482599 0.461332
vt 0.689761 0.432189
vt 0.496151 0.489863
vt 0.676996 0.463403
vt 0.535572 0.527996
vt 0.659491 0.490776
vt 0.559651 0.536448
vt 0.637726 0.513098
vt 0.612225 0.529146
vt 0.585388 0.537090
vt 0.514101 0.512281
vt 0.475300 0.354286
vt 0.674419 0.264042
vt 0.483840 0.319810
vt 0.656682 0.241491
vt 0.497430 0.288077
vt 0.635830 0.225385
vt 0.536593 0.238449
vt 0.587632 0.215274
vt 0.349164 0.000000
vt 0.504741 0.784786
vt 0.999738 0.469659
vn -0.9466 0.0000 -0.3225
vn -0.8553 0.0000 -0.5182
vn -0.7241 0.0000 0.6897
vn -0.5555 0.0000 0.8315
vn -0.3516 0.0000 0.9361
vn -0.1203 0.0000 0.9927
vn 0.1203 0.0000 0.9927
vn 0.3516 0.0000 0.9361
vn 0.5555 0.0000 0.8315
vn 0.7241 0.0000 0.6897
vn 0.8553 0.0000 0.5182
vn 0.9466 0.0000 0.3225
vn 0.9940 0.0000 0.1093
vn 0.9940 0.0000 -0.1093
vn 0.9466 0.0000 -0.3225
vn 0.8553 0.0000 -0.5182
vn 0.7241 0.0000 -0.6897
vn 0.5555 0.0000 -0.8315
vn 0.3516 0.0000 -0.9361
vn 0.1203 0.0000 -0.9927
vn -0.7241 0.0000 -0.6897
vn -0.5555 0.0000 -0.8315
vn -0.3516 0.0000 -0.9361
vn -0.0000 -1.0000 0.0000
vn -0.9940 0.0000 0.1093
vn -0.1203 0.0000 -0.9927
vn -0.9940 -0.0000 -0.1093
vn -0.8553 0.0000 0.5182
vn -0.1369 0.9536 0.2683
vn -0.0716 0.9542 0.2905
vn -0.1383 0.9536 0.2676
vn -0.9466 0.0000 0.3225
vn -0.0000 1.0000 0.0000
vn 0.2432 0.9517 -0.1871
vn 0.1965 0.9527 -0.2320
vn 0.2445 0.9517 -0.1856
vn -0.0707 0.9542 0.2907
vn 0.0000 0.9544 0.2985
vn 0.1950 0.9527 -0.2332
vn 0.1383 0.9536 -0.2676
vn 0.1369 0.9536 -0.2683
vn 0.0716 0.9542 -0.2905
vn 0.0707 0.9542 0.2907
vn 0.0707 0.9542 -0.2907
vn 0.0000 0.9544 -0.2985
vn 0.1369 0.9536 0.2683
vn 0.0716 0.9542 0.2905
vn -0.0707 0.9542 -0.2907
vn 0.1950 0.9527 0.2332
vn 0.1383 0.9536 0.2676
vn -0.3121 0.9501 -0.0000
vn -0.3040 0.9503 -0.0671
vn -0.3038 0.9503 -0.0680
vn -0.1369 0.9536 -0.2683
vn -0.0716 0.9542 -0.2905
vn 0.2432 0.9517 0.1871
vn 0.1965 0.9527 0.2320
vn -0.1950 0.9527 -0.2332
vn -0.1383 0.9536 -0.2676
vn 0.2801 0.9509 0.1315
vn 0.2445 0.9517 0.1856
vn -0.2432 0.9517 -0.1871
vn -0.1965 0.9527 -0.2320
vn 0.3038 0.9503 0.0680
vn 0.2808 0.9509 0.1301
vn -0.2801 0.9509 -0.1315
vn -0.2445 0.9517 -0.1856
vn 0.3121 0.9501 -0.0000
vn 0.3040 0.9503 0.0671
vn -0.3038 0.9503 0.0680
vn -0.2808 0.9509 0.1301
vn -0.3040 0.9503 0.0671
vn -0.2801 0.9509 0.1315
vn -0.2445 0.9517 0.1856
vn -0.2808 0.9509 -0.1301
vn 0.3040 0.9503 -0.0671
vn -0.2432 0.9517 0.1871
vn -0.1965 0.9527 0.2320
vn 0.3038 0.9503 -0.0680
vn 0.2808 0.9509 -0.1301
vn 0.2801 0.9509 -0.1315
vn -0.1950 0.9527 0.2332
usemtl Default_OBJ.002
s 1
f 54/1/1 55/2/1 56/3/1
f 52/4/2 53/5/2 54/1/2
f 7/6/3 9/7/3 10/8/3
f 7/6/3 10/8/3 8/9/3
f 9/7/4 11/10/4 12/11/4
f 9/7/4 12/11/4 10/8/4
f 11/10/5 13/12/5 14/13/5
f 11/10/5 14/13/5 12/11/5
f 13/12/6 15/14/6 16/15/6
f 13/12/6 16/15/6 14/13/6
f 15/14/7 17/16/7 18/17/7
f 15/14/7 18/17/7 16/15/7
f 17/16/8 19/18/8 20/19/8
f 17/16/8 20/19/8 18/17/8
f 19/18/9 21/20/9 22/21/9
f 19/18/9 22/21/9 20/19/9
f 21/20/10 23/22/10 24/23/10
f 21/20/10 24/23/10 22/21/10
f 23/22/11 25/24/11 26/25/11
f 23/22/11 26/25/11 24/23/11
f 25/24/12 27/26/12 28/27/12
f 25/24/12 28/27/12 26/25/12
f 27/26/13 29/28/13 30/29/13
f 27/26/13 30/29/13 28/27/13
f 29/28/14 31/30/14 32/31/14
f 29/28/14 32/31/14 30/29/14
f 31/30/15 33/32/15 34/33/15
f 31/30/15 34/33/15 32/31/15
f 33/32/16 35/34/16 36/35/16
f 33/32/16 36/35/16 34/33/16
f 35/34/17 37/36/17 38/37/17
f 35/34/17 38/37/17 36/35/17
f 37/36/18 39/38/18 40/39/18
f 37/36/18 40/39/18 38/37/18
f 39/38/19 41/40/19 42/41/19
f 39/38/19 42/41/19 40/39/19
f 41/40/20 43/42/20 44/43/20
f 41/40/20 44/43/20 42/41/20
f 50/44/21 51/45/21 52/4/21
f 48/46/22 49/47/22 50/44/22
f 46/48/23 47/49/23 48/46/23
f 19/50/24 15/51/24 11/52/24
f 4/53/25 2/54/25 3/55/25
f 44/56/26 45/57/26 46/48/26
f 56/3/27 1/58/27 4/53/27
f 6/59/28 7/60/28 8/61/28
f 12/62/29 64/63/30 63/64/31
f 3/55/32 5/65/32 6/59/32
f 63/66/33 65/67/33 67/68/33
f 36/69/34 76/70/35 75/71/36
f 14/72/37 65/73/38 64/63/30
f 38/74/39 77/75/40 76/70/35
f 40/76/41 78/77/42 77/75/40
f 18/78/43 65/79/38 16/80/38
f 42/81/44 79/82/45 78/77/42
f 20/83/46 66/84/47 18/78/43
f 46/85/48 79/86/45 44/87/45
f 22/88/49 67/89/50 20/83/46
f 4/90/51 60/91/52 56/92/53
f 48/93/54 80/94/55 46/85/48
f 24/95/56 68/96/57 22/88/49
f 50/97/58 81/98/59 48/93/54
f 26/99/60 69/100/61 24/95/56
f 52/101/62 82/102/63 50/97/58
f 28/103/64 70/104/65 26/99/60
f 54/105/66 83/106/67 52/101/62
f 30/107/68 71/108/69 28/103/64
f 3/109/70 59/110/71 57/111/72
f 6/112/73 61/113/74 59/110/71
f 56/92/53 84/114/75 54/105/66
f 30/107/68 73/115/76 72/116/68
f 8/117/77 62/118/78 61/113/74
f 32/119/79 74/120/80 73/121/76
f 34/122/81 75/71/36 74/120/80
f 10/123/82 63/64/31 62/118/78
f 4/90/51 57/111/72 58/124/51
f 54/1/1 53/5/1 55/2/1
f 52/4/2 51/45/2 53/5/2
f 50/44/21 49/47/21 51/45/21
f 48/46/22 47/49/22 49/47/22
f 46/48/23 45/57/23 47/49/23
f 11/52/24 9/125/24 19/50/24
f 9/125/24 7/126/24 21/127/24
f 19/50/24 9/125/24 21/127/24
f 7/126/24 5/128/24 23/129/24
f 5/128/24 2/130/24 25/131/24
f 23/129/24 5/128/24 25/131/24
f 2/130/24 1/132/24 27/133/24
f 1/132/24 55/134/24 29/135/24
f 27/133/24 1/132/24 29/135/24
f 55/134/24 53/136/24 31/137/24
f 53/136/24 51/138/24 33/139/24
f 31/137/24 53/136/24 33/139/24
f 51/138/24 49/140/24 35/141/24
f 49/140/24 47/142/24 37/143/24
f 35/141/24 49/140/24 37/143/24
f 47/142/24 45/144/24 43/145/24
f 43/145/24 41/146/24 39/147/24
f 39/147/24 37/143/24 47/142/24
f 35/141/24 33/139/24 51/138/24
f 31/137/24 29/135/24 55/134/24
f 27/133/24 25/131/24 2/130/24
f 23/129/24 21/127/24 7/126/24
f 19/50/24 17/148/24 15/51/24
f 15/51/24 13/149/24 11/52/24
f 47/142/24 43/145/24 39/147/24
f 4/53/25 1/58/25 2/54/25
f 44/56/26 43/150/26 45/57/26
f 56/3/27 55/2/27 1/58/27
f 6/59/28 5/65/28 7/60/28
f 12/62/29 14/72/37 64/63/30
f 3/55/32 2/54/32 5/65/32
f 71/151/33 72/152/33 57/153/33
f 72/152/33 73/154/33 58/155/33
f 57/153/33 72/152/33 58/155/33
f 73/154/33 74/156/33 60/157/33
f 74/156/33 75/158/33 84/159/33
f 60/157/33 74/156/33 84/159/33
f 75/158/33 76/160/33 82/161/33
f 76/160/33 77/162/33 81/163/33
f 77/162/33 78/164/33 79/165/33
f 79/165/33 80/166/33 81/163/33
f 81/163/33 82/161/33 76/160/33
f 82/161/33 83/167/33 75/158/33
f 83/167/33 84/159/33 75/158/33
f 60/157/33 58/155/33 73/154/33
f 57/153/33 59/168/33 70/169/33
f 59/168/33 61/170/33 69/171/33
f 61/170/33 62/172/33 68/173/33
f 62/172/33 63/66/33 67/68/33
f 63/66/33 64/174/33 65/67/33
f 65/67/33 66/175/33 67/68/33
f 67/68/33 68/173/33 62/172/33
f 68/173/33 69/171/33 61/170/33
f 69/171/33 70/169/33 59/168/33
f 70/169/33 71/151/33 57/153/33
f 77/162/33 79/165/33 81/163/33
f 36/69/34 38/74/39 76/70/35
f 14/72/37 16/176/38 65/73/38
f 38/74/39 40/76/41 77/75/40
f 40/76/41 42/81/44 78/77/42
f 18/78/43 66/84/47 65/79/38
f 42/81/44 44/177/45 79/82/45
f 20/83/46 67/89/50 66/84/47
f 46/85/48 80/94/55 79/86/45
f 22/88/49 68/96/57 67/89/50
f 4/90/51 58/124/51 60/91/52
f 48/93/54 81/98/59 80/94/55
f 24/95/56 69/100/61 68/96/57
f 50/97/58 82/102/63 81/98/59
f 26/99/60 70/104/65 69/100/61
f 52/101/62 83/106/67 82/102/63
f 28/103/64 71/108/69 70/104/65
f 54/105/66 84/114/75 83/106/67
f 30/107/68 72/116/68 71/108/69
f 3/109/70 6/112/73 59/110/71
f 6/112/73 8/117/77 61/113/74
f 56/92/53 60/91/52 84/114/75
f 30/107/68 32/178/79 73/115/76
f 8/117/77 10/123/82 62/118/78
f 32/119/79 34/122/81 74/120/80
f 34/122/81 36/69/34 75/71/36
f 10/123/82 12/62/29 63/64/31
f 4/90/51 3/109/70 57/111/72
