# Blender v3.0.0 OBJ File: 'terrain_steep_hill_152.blend'
# www.blender.org
mtllib terrain_steep_hill_152.mtl
o terrain_Steep_Hill_#152.001_terrain_Wooded_Hill_#102.001
v -3.022623 -0.097206 -0.158569
v -2.939323 -0.097206 0.382231
v -2.939323 -0.096066 0.382231
v -3.022623 -0.096066 -0.158569
v -2.702223 -0.097206 0.878831
v -2.702223 -0.096066 0.878831
v -2.330123 -0.097206 1.317031
v -2.330123 -0.096066 1.317031
v -1.842123 -0.097206 1.682631
v -1.842123 -0.096066 1.682631
v -1.257223 -0.097206 1.961331
v -1.257223 -0.096066 1.961331
v -0.594423 -0.097206 2.139031
v -0.594423 -0.096066 2.139031
v 0.127377 -0.097206 2.201431
v 0.127377 -0.096066 2.201431
v 0.849177 -0.097206 2.139031
v 0.849177 -0.096066 2.139031
v 1.511977 -0.097206 1.961331
v 1.511977 -0.096066 1.961331
v 2.096877 -0.097206 1.682631
v 2.096877 -0.096066 1.682631
v 2.584877 -0.097206 1.317031
v 2.584877 -0.096066 1.317031
v 2.956977 -0.097206 0.878831
v 2.956977 -0.096066 0.878831
v 3.194077 -0.097206 0.382231
v 3.194077 -0.096066 0.382231
v 3.277377 -0.097206 -0.158569
v 3.277377 -0.096066 -0.158569
v 3.194077 -0.097206 -0.699369
v 3.194077 -0.096066 -0.699369
v 2.956977 -0.097206 -1.195969
v 2.956977 -0.096066 -1.195969
v 2.584877 -0.097206 -1.634169
v 2.584877 -0.096066 -1.634169
v 2.096877 -0.097206 -1.999769
v 2.096877 -0.096066 -1.999769
v 1.511977 -0.097206 -2.278469
v 1.511977 -0.096066 -2.278469
v 0.849177 -0.097206 -2.456169
v 0.849177 -0.096066 -2.456169
v 0.127377 -0.097206 -2.518569
v 0.127377 -0.096066 -2.518569
v -0.594423 -0.097206 -2.456169
v -0.594423 -0.096066 -2.456169
v -1.257223 -0.097206 -2.278469
v -1.257223 -0.096066 -2.278469
v -1.842123 -0.097206 -1.999769
v -1.842123 -0.096066 -1.999769
v -2.330123 -0.097206 -1.634169
v -2.330123 -0.096066 -1.634169
v -2.702223 -0.097206 -1.195969
v -2.702223 -0.096066 -1.195969
v -2.939323 -0.097206 -0.699369
v -2.939323 -0.096066 -0.699369
v -2.939323 -0.096066 0.382231
v -3.022623 -0.096066 -0.158569
v -2.702223 -0.096066 0.878831
v 3.194077 -0.096066 0.382231
v 3.194077 -0.096066 -0.699369
v -2.939323 -0.096066 -0.699369
v -2.330123 -0.096066 1.317031
v -1.842123 -0.096066 1.682631
v -1.257223 -0.096066 1.961331
v -0.594423 -0.096066 2.139031
v 0.127377 -0.096066 2.201431
v 0.849177 -0.096066 2.139031
v 1.511977 -0.096066 1.961331
v 2.096877 -0.096066 1.682631
v 2.584877 -0.096066 1.317031
v 2.956977 -0.096066 0.878831
v 2.956977 -0.096066 -1.195969
v 2.584877 -0.096066 -1.634169
v 2.096877 -0.096066 -1.999769
v 1.511977 -0.096066 -2.278469
v 0.849177 -0.096066 -2.456169
v 0.127377 -0.096066 -2.518569
v -0.594423 -0.096066 -2.456169
v -1.257223 -0.096066 -2.278469
v -1.842123 -0.096066 -1.999769
v -2.330123 -0.096066 -1.634169
v -2.702223 -0.096066 -1.195969
v -0.674690 0.296495 0.560741
v -0.685978 0.296495 0.487452
v -0.642558 0.296495 0.628041
v 0.156513 0.296495 0.560741
v 0.156513 0.296495 0.414162
v -0.674690 0.296495 0.414162
v -0.592130 0.296495 0.687426
v -0.525996 0.296495 0.736972
v -0.446730 0.296495 0.774742
v -0.356907 0.296495 0.798824
v -0.259088 0.296495 0.807281
v -0.161269 0.296495 0.798824
v -0.071446 0.296495 0.774742
v 0.007820 0.296495 0.736972
v 0.073954 0.296495 0.687426
v 0.124381 0.296495 0.628041
v 0.124381 0.296495 0.346862
v 0.073954 0.296495 0.287477
v 0.007820 0.296495 0.237931
v -0.071446 0.296495 0.200161
v -0.161269 0.296495 0.176079
v -0.259088 0.296495 0.167623
v -0.356907 0.296495 0.176079
v -0.446730 0.296495 0.200161
v -0.525996 0.296495 0.237931
v -0.592130 0.296495 0.287477
v -0.642558 0.296495 0.346862
vt 0.618740 0.127340
vt 0.618740 0.202847
vt 0.618686 0.202847
vt 0.618686 0.127340
vt 0.618740 0.288094
vt 0.618686 0.288094
vt 0.618740 0.379450
vt 0.618686 0.379450
vt 0.618740 0.473258
vt 0.618686 0.473258
vt 0.618740 0.565859
vt 0.618686 0.565859
vt 0.618740 0.653615
vt 0.618686 0.653615
vt 0.624057 0.657861
vt 0.624057 0.566587
vt 0.624111 0.566587
vt 0.624111 0.657861
vt 0.624057 0.464609
vt 0.624111 0.464609
vt 0.624057 0.360637
vt 0.624111 0.360637
vt 0.624057 0.258430
vt 0.624111 0.258430
vt 0.624057 0.161741
vt 0.624111 0.161741
vt 0.624057 0.074339
vt 0.624111 0.074339
vt 0.624057 0.000000
vt 0.624111 0.000000
vt 0.624057 0.059004
vt 0.624004 0.059004
vt 0.624004 0.000000
vt 0.624057 0.134512
vt 0.624004 0.134512
vt 0.624057 0.219758
vt 0.624004 0.219758
vt 0.624057 0.311114
vt 0.624004 0.311114
vt 0.624057 0.404923
vt 0.624004 0.404923
vt 0.624057 0.497523
vt 0.624004 0.497523
vt 0.624057 0.585279
vt 0.624004 0.585279
vt 0.624057 0.664541
vt 0.624004 0.664541
vt 0.624165 0.000000
vt 0.624165 0.079262
vt 0.624111 0.079262
vt 0.624111 0.000000
vt 0.624165 0.167018
vt 0.624111 0.167018
vt 0.624165 0.259618
vt 0.624111 0.259618
vt 0.624165 0.353427
vt 0.624111 0.353427
vt 0.624165 0.444783
vt 0.624111 0.444783
vt 0.624165 0.530029
vt 0.624111 0.530029
vt 0.624165 0.605537
vt 0.624111 0.605537
vt 0.009360 0.974946
vt 0.009603 0.974600
vt 0.010113 0.974666
vt 0.624004 0.127340
vt 0.618687 0.067532
vt 0.624004 0.000000
vt 0.618686 0.653615
vt 0.618686 0.653615
vt 0.618686 0.653615
vt 0.584473 0.808443
vt 0.483122 0.536922
vt 0.600851 0.720355
vt 0.618686 0.653615
vt 0.618686 0.653615
vt 0.618686 0.653615
vt 0.618686 0.653615
vt 0.618686 0.653615
vt 0.618686 0.653615
vt 0.618686 0.653615
vt 0.618686 0.653615
vt 0.618686 0.653615
vt 0.618686 0.653615
vt 0.618686 0.653615
vt 0.618686 0.653615
vt 0.618686 0.653615
vt 0.618686 0.653615
vt 0.618686 0.653615
vt 0.618686 0.653615
vt 0.618686 0.653615
vt 0.618686 0.653615
vt 0.618686 0.653615
vt 0.618686 0.653615
vt 0.618686 0.653615
vt 0.618686 0.653615
vt 0.618686 0.653615
vt 0.618686 0.653615
vt 0.618686 0.653615
vt 0.618686 0.653615
vt 0.618686 0.653615
vt 0.618686 0.653615
vt 0.618686 0.653615
vt 0.618686 0.653615
vt 0.618686 0.653615
vt 0.618686 0.653615
vt 0.618686 0.653615
vt 0.618686 0.653615
vt 0.618686 0.653615
vt 0.618686 0.653615
vt 0.618686 0.653615
vt 0.618686 0.653615
vt 0.618686 0.653615
vt 0.618686 0.653615
vt 0.618686 0.653615
vt 0.618686 0.653615
vt 0.618686 0.653615
vt 0.618686 0.653615
vt 0.618686 0.653615
vt 0.618686 0.653615
vt 0.618686 0.653615
vt 0.618686 0.653615
vt 0.618686 0.653615
vt 0.618686 0.653615
vt 0.464881 0.444388
vt 0.468241 0.440268
vt 0.483312 0.466892
vt 0.441076 0.907666
vt 0.464707 0.568101
vt 0.464969 0.950422
vt 0.586655 0.123886
vt 0.478494 0.447546
vt 0.566699 0.060857
vt 0.389089 0.461803
vt 0.455243 0.486931
vt 0.454424 0.501883
vt 0.564403 0.879319
vt 0.480903 0.548860
vt 0.421121 0.844637
vt 0.461469 0.562306
vt 0.602251 0.203608
vt 0.481198 0.456088
vt 0.395131 0.351474
vt 0.456841 0.472931
vt 0.541525 0.930966
vt 0.478183 0.558465
vt 0.516855 0.000000
vt 0.471739 0.439299
vt 0.613070 0.296397
vt 0.406924 0.248168
vt 0.459061 0.460993
vt 0.516734 0.961377
vt 0.475082 0.565464
vt 0.468224 0.570554
vt 0.490920 0.968523
vt 0.618687 0.398636
vt 0.484778 0.479467
vt 0.423302 0.160080
vt 0.461781 0.451388
vt 0.471723 0.569585
vt 0.405524 0.764915
vt 0.458765 0.553765
vt 0.618687 0.506721
vt 0.485539 0.493322
vt 0.443372 0.089204
vt 0.394705 0.672126
vt 0.456651 0.542961
vt 0.612644 0.617049
vt 0.485539 0.507970
vt 0.466250 0.037557
vt 0.389089 0.569887
vt 0.455185 0.530386
vt 0.484720 0.522922
vt 0.491041 0.007146
vt 0.454424 0.516531
vt 0.009862 0.974501
vt 0.010338 0.975072
vt 0.010529 0.975689
vt 0.010681 0.976484
vt 0.009138 0.975509
vt 0.010789 0.977428
vt 0.008946 0.976259
vt 0.010846 0.978489
vt 0.008791 0.977169
vt 0.010846 0.979636
vt 0.008680 0.978208
vt 0.010787 0.980776
vt 0.008621 0.979348
vt 0.010676 0.981815
vt 0.008678 0.981556
vt 0.010521 0.982725
vt 0.008785 0.982500
vt 0.010329 0.983476
vt 0.008938 0.983296
vt 0.010107 0.984039
vt 0.009129 0.983912
vt 0.009863 0.984384
vt 0.009605 0.984483
vt 0.009354 0.984318
vt 0.008621 0.980495
vn -0.9883 0.0000 0.1522
vn -0.9024 0.0000 0.4309
vn -0.7623 0.0000 0.6473
vn -0.5996 0.0000 0.8003
vn -0.4302 0.0000 0.9028
vn -0.2590 0.0000 0.9659
vn -0.0861 0.0000 0.9963
vn 0.0861 0.0000 0.9963
vn 0.2590 0.0000 0.9659
vn 0.4302 0.0000 0.9028
vn 0.5996 0.0000 0.8003
vn 0.7623 0.0000 0.6473
vn 0.9024 0.0000 0.4309
vn 0.9883 0.0000 0.1522
vn 0.9883 0.0000 -0.1522
vn 0.9024 0.0000 -0.4309
vn 0.7623 0.0000 -0.6473
vn 0.5996 0.0000 -0.8003
vn 0.4302 0.0000 -0.9028
vn 0.2590 0.0000 -0.9659
vn 0.0861 0.0000 -0.9963
vn -0.0861 0.0000 -0.9963
vn -0.2590 0.0000 -0.9659
vn -0.4302 0.0000 -0.9028
vn -0.5996 0.0000 -0.8003
vn -0.7623 0.0000 -0.6473
vn -0.9024 0.0000 -0.4309
vn -0.9883 0.0000 -0.1522
vn 0.0000 -1.0000 0.0000
vn 0.0000 0.0486 0.9988
vn 0.0000 1.0000 0.0000
vn 0.0000 0.0000 1.0000
vn -0.0513 0.9888 -0.1398
vn -0.0263 0.9891 -0.1451
vn -0.0249 0.9891 -0.1453
vn 0.0834 0.6381 0.7654
vn 0.0779 0.6561 0.7506
vn -0.1743 0.9835 0.0480
vn -0.1670 0.9859 0.0050
vn -0.1647 0.9863 -0.0037
vn 0.1020 0.9926 -0.0653
vn 0.0682 0.9976 -0.0138
vn -0.0480 0.9608 0.2729
vn -0.0042 0.9623 0.2721
vn -0.0773 0.9888 -0.1280
vn -0.0519 0.9888 -0.1396
vn -0.1739 0.9792 0.1047
vn -0.1752 0.9826 0.0618
vn 0.0863 0.9922 -0.0899
vn 0.1013 0.9926 -0.0666
vn 0.0036 0.9628 0.2701
vn 0.0375 0.9663 0.2547
vn -0.1025 0.9887 -0.1093
vn -0.0775 0.9888 -0.1279
vn 0.0744 0.9970 0.0208
vn 0.0684 0.9916 -0.1101
vn 0.0845 0.9921 -0.0922
vn 0.0494 0.9679 0.2463
vn 0.0735 0.9719 0.2235
vn -0.1264 0.9885 -0.0828
vn -0.1028 0.9887 -0.1090
vn -0.1498 0.9878 -0.0435
vn -0.1478 0.9879 -0.0477
vn 0.0482 0.9908 -0.1262
vn 0.0658 0.9915 -0.1125
vn 0.0845 0.9742 0.2095
vn 0.1008 0.9779 0.1832
vn -0.1274 0.9885 -0.0814
vn -0.1613 0.9736 0.1616
vn -0.1716 0.9777 0.1214
vn 0.0256 0.9901 -0.1378
vn 0.0452 0.9907 -0.1280
vn 0.1087 0.9800 0.1666
vn 0.1190 0.9832 0.1383
vn -0.1355 0.9676 0.2131
vn -0.1552 0.9718 0.1774
vn 0.0010 0.9895 -0.1445
vn 0.0228 0.9900 -0.1389
vn 0.1234 0.9848 0.1219
vn 0.1287 0.9874 0.0918
vn -0.0968 0.9628 0.2524
vn -0.1273 0.9662 0.2240
vn -0.0012 0.9895 -0.1448
vn 0.1301 0.9884 0.0779
vn -0.0903 0.9623 0.2567
usemtl Material
s 1
f 1/1/1 2/2/1 3/3/1
f 1/1/1 3/3/1 4/4/1
f 2/2/2 5/5/2 6/6/2
f 2/2/2 6/6/2 3/3/2
f 5/5/3 7/7/3 8/8/3
f 5/5/3 8/8/3 6/6/3
f 7/7/4 9/9/4 10/10/4
f 7/7/4 10/10/4 8/8/4
f 9/9/5 11/11/5 12/12/5
f 9/9/5 12/12/5 10/10/5
f 11/11/6 13/13/6 14/14/6
f 11/11/6 14/14/6 12/12/6
f 13/15/7 15/16/7 16/17/7
f 13/15/7 16/17/7 14/18/7
f 15/16/8 17/19/8 18/20/8
f 15/16/8 18/20/8 16/17/8
f 17/19/9 19/21/9 20/22/9
f 17/19/9 20/22/9 18/20/9
f 19/21/10 21/23/10 22/24/10
f 19/21/10 22/24/10 20/22/10
f 21/23/11 23/25/11 24/26/11
f 21/23/11 24/26/11 22/24/11
f 23/25/12 25/27/12 26/28/12
f 23/25/12 26/28/12 24/26/12
f 25/27/13 27/29/13 28/30/13
f 25/27/13 28/30/13 26/28/13
f 27/29/14 29/31/14 30/32/14
f 27/29/14 30/32/14 28/33/14
f 29/31/15 31/34/15 32/35/15
f 29/31/15 32/35/15 30/32/15
f 31/34/16 33/36/16 34/37/16
f 31/34/16 34/37/16 32/35/16
f 33/36/17 35/38/17 36/39/17
f 33/36/17 36/39/17 34/37/17
f 35/38/18 37/40/18 38/41/18
f 35/38/18 38/41/18 36/39/18
f 37/40/19 39/42/19 40/43/19
f 37/40/19 40/43/19 38/41/19
f 39/42/20 41/44/20 42/45/20
f 39/42/20 42/45/20 40/43/20
f 41/44/21 43/46/21 44/47/21
f 41/44/21 44/47/21 42/45/21
f 43/48/22 45/49/22 46/50/22
f 43/48/22 46/50/22 44/51/22
f 45/49/23 47/52/23 48/53/23
f 45/49/23 48/53/23 46/50/23
f 47/52/24 49/54/24 50/55/24
f 47/52/24 50/55/24 48/53/24
f 49/54/25 51/56/25 52/57/25
f 49/54/25 52/57/25 50/55/25
f 51/56/26 53/58/26 54/59/26
f 51/56/26 54/59/26 52/57/26
f 53/58/27 55/60/27 56/61/27
f 53/58/27 56/61/27 54/59/27
f 55/60/28 1/62/28 4/63/28
f 55/60/28 4/63/28 56/61/28
f 5/64/29 2/65/29 55/66/29
f 28/67/30 30/68/31 32/69/30
f 48/70/32 79/71/32 46/72/32
f 80/73/33 106/74/34 79/75/35
f 10/76/32 63/77/32 8/78/32
f 36/79/32 73/80/32 34/81/32
f 22/82/32 69/83/32 20/84/32
f 50/85/32 80/86/32 48/70/32
f 6/87/32 57/88/32 3/89/32
f 4/90/32 62/91/32 56/92/32
f 24/93/32 70/94/32 22/82/32
f 52/95/32 81/96/32 50/85/32
f 12/97/32 64/98/32 10/76/32
f 38/99/32 74/100/32 36/79/32
f 26/101/32 71/102/32 24/93/32
f 54/103/32 82/104/32 52/95/32
f 14/14/32 65/105/32 12/97/32
f 40/106/32 75/107/32 38/99/32
f 28/108/30 72/109/32 26/101/32
f 16/110/32 66/111/32 14/14/32
f 42/112/32 76/113/32 40/106/32
f 56/92/32 83/114/32 54/103/32
f 44/115/32 77/116/32 42/112/32
f 3/89/32 58/117/32 4/90/32
f 18/118/32 67/119/32 16/110/32
f 46/72/32 78/120/32 44/115/32
f 32/121/30 60/122/36 28/108/30
f 8/78/32 59/123/32 6/87/32
f 34/81/32 61/124/37 32/121/30
f 20/84/32 68/125/32 18/118/32
f 98/126/31 99/127/31 101/128/31
f 57/129/38 85/130/39 58/131/40
f 73/132/41 88/133/42 61/134/37
f 66/135/43 94/136/44 93/137/43
f 81/138/45 107/139/46 80/73/33
f 59/140/47 84/141/48 57/129/38
f 74/142/49 100/143/50 73/132/41
f 67/144/51 95/145/52 94/136/44
f 82/146/53 108/147/54 81/138/45
f 60/148/36 88/133/42 87/149/55
f 75/150/56 101/128/57 74/142/49
f 68/151/58 96/152/59 95/145/52
f 83/153/60 109/154/61 82/146/53
f 58/131/40 89/155/62 62/156/63
f 76/157/64 102/158/65 75/150/56
f 69/159/66 97/160/67 96/152/59
f 62/156/63 110/161/68 83/153/60
f 63/162/69 86/163/70 59/140/47
f 77/164/71 103/165/72 76/157/64
f 70/166/73 98/126/74 97/160/67
f 64/167/75 90/168/76 63/162/69
f 78/169/77 104/170/78 77/164/71
f 71/171/79 99/127/80 98/126/74
f 65/172/81 91/173/82 64/167/75
f 79/75/35 105/174/83 78/169/77
f 72/175/84 87/149/55 99/127/80
f 66/135/43 92/176/85 65/172/81
f 1/177/29 55/66/29 2/65/29
f 55/66/29 53/178/29 5/64/29
f 53/178/29 51/179/29 5/64/29
f 51/179/29 49/180/29 7/181/29
f 5/64/29 51/179/29 7/181/29
f 49/180/29 47/182/29 9/183/29
f 47/182/29 45/184/29 11/185/29
f 9/183/29 47/182/29 11/185/29
f 45/184/29 43/186/29 13/187/29
f 43/186/29 41/188/29 15/189/29
f 13/187/29 43/186/29 15/189/29
f 41/188/29 39/190/29 19/191/29
f 39/190/29 37/192/29 21/193/29
f 37/192/29 35/194/29 23/195/29
f 35/194/29 33/196/29 25/197/29
f 33/196/29 31/198/29 25/197/29
f 31/198/29 29/199/29 27/200/29
f 25/197/29 31/198/29 27/200/29
f 25/197/29 23/195/29 35/194/29
f 23/195/29 21/193/29 37/192/29
f 21/193/29 19/191/29 39/190/29
f 19/191/29 17/201/29 41/188/29
f 17/201/29 15/189/29 41/188/29
f 13/187/29 11/185/29 45/184/29
f 9/183/29 7/181/29 49/180/29
f 48/70/32 80/86/32 79/71/32
f 80/73/33 107/139/46 106/74/34
f 10/76/32 64/98/32 63/77/32
f 36/79/32 74/100/32 73/80/32
f 22/82/32 70/94/32 69/83/32
f 50/85/32 81/96/32 80/86/32
f 6/87/32 59/123/32 57/88/32
f 4/90/32 58/117/32 62/91/32
f 24/93/32 71/102/32 70/94/32
f 52/95/32 82/104/32 81/96/32
f 12/97/32 65/105/32 64/98/32
f 38/99/32 75/107/32 74/100/32
f 26/101/32 72/109/32 71/102/32
f 54/103/32 83/114/32 82/104/32
f 14/14/32 66/111/32 65/105/32
f 40/106/32 76/113/32 75/107/32
f 28/108/30 60/122/36 72/109/32
f 16/110/32 67/119/32 66/111/32
f 42/112/32 77/116/32 76/113/32
f 56/92/32 62/91/32 83/114/32
f 44/115/32 78/120/32 77/116/32
f 3/89/32 57/88/32 58/117/32
f 18/118/32 68/125/32 67/119/32
f 46/72/32 79/71/32 78/120/32
f 32/121/30 61/124/37 60/122/36
f 8/78/32 63/77/32 59/123/32
f 34/81/32 73/80/32 61/124/37
f 20/84/32 69/83/32 68/125/32
f 88/133/42 100/143/31 87/149/55
f 100/143/31 101/128/31 99/127/31
f 87/149/55 100/143/31 99/127/31
f 101/128/31 102/158/31 97/160/31
f 102/158/31 103/165/31 96/152/31
f 103/165/31 104/170/31 96/152/31
f 104/170/31 105/174/31 95/145/31
f 96/152/31 104/170/31 95/145/31
f 105/174/31 106/74/31 93/137/31
f 106/74/31 107/139/31 92/176/31
f 107/139/31 108/147/31 92/176/31
f 108/147/31 109/154/31 91/173/31
f 92/176/31 108/147/31 91/173/31
f 109/154/31 110/161/31 86/163/31
f 110/161/31 89/155/31 84/141/31
f 89/155/31 85/130/31 84/141/31
f 84/141/31 86/163/31 110/161/31
f 86/163/31 90/168/31 109/154/31
f 90/168/31 91/173/31 109/154/31
f 92/176/31 93/137/31 106/74/31
f 93/137/31 94/136/31 105/174/31
f 94/136/31 95/145/31 105/174/31
f 96/152/31 97/160/31 102/158/31
f 97/160/31 98/126/31 101/128/31
f 57/129/38 84/141/48 85/130/39
f 73/132/41 100/143/50 88/133/42
f 66/135/43 67/144/51 94/136/44
f 81/138/45 108/147/54 107/139/46
f 59/140/47 86/163/70 84/141/48
f 74/142/49 101/128/57 100/143/50
f 67/144/51 68/151/58 95/145/52
f 82/146/53 109/154/61 108/147/54
f 60/148/36 61/134/37 88/133/42
f 75/150/56 102/158/65 101/128/57
f 68/151/58 69/159/66 96/152/59
f 83/153/60 110/161/68 109/154/61
f 58/131/40 85/130/39 89/155/62
f 76/157/64 103/165/72 102/158/65
f 69/159/66 70/166/73 97/160/67
f 62/156/63 89/155/62 110/161/68
f 63/162/69 90/168/76 86/163/70
f 77/164/71 104/170/78 103/165/72
f 70/166/73 71/171/79 98/126/74
f 64/167/75 91/173/82 90/168/76
f 78/169/77 105/174/83 104/170/78
f 71/171/79 72/175/84 99/127/80
f 65/172/81 92/176/85 91/173/82
f 79/75/35 106/74/34 105/174/83
f 72/175/84 60/148/36 87/149/55
f 66/135/43 93/137/43 92/176/85
