# Blender v3.0.0 OBJ File: 'terrain_woods_182.blend'
# www.blender.org
mtllib terrain_woods_182.mtl
o terrain_Woods_#182.001_terrain_Woods_#182_terrain_Woods_#182_terrain_Woods_#182.001
v 1.575000 -0.020000 0.000000
v 1.533400 -0.019998 -0.540800
v 1.533400 0.020002 -0.540800
v 1.575000 0.020000 -0.000000
v 1.414800 -0.019996 -1.037400
v 1.414800 0.020004 -1.037400
v 1.228700 -0.019995 -1.475600
v 1.228700 0.020005 -1.475600
v 0.984800 -0.019993 -1.841200
v 0.984800 0.020007 -1.841200
v 0.692300 -0.019992 -2.119900
v 0.692300 0.020008 -2.119900
v 0.360900 -0.019992 -2.297600
v 0.360900 0.020008 -2.297600
v 0.000000 -0.019991 -2.360000
v 0.000000 0.020009 -2.360000
v -0.360900 -0.019992 -2.297600
v -0.360900 0.020008 -2.297600
v -0.692300 -0.019992 -2.119900
v -0.692300 0.020008 -2.119900
v -0.984800 -0.019993 -1.841200
v -0.984800 0.020007 -1.841200
v -1.228700 -0.019995 -1.475600
v -1.228700 0.020005 -1.475600
v -1.414800 -0.019996 -1.037400
v -1.414800 0.020004 -1.037400
v -1.533400 -0.019998 -0.540800
v -1.533400 0.020002 -0.540800
v -1.575000 -0.020000 0.000000
v -1.575000 0.020000 -0.000000
v -1.533400 -0.020002 0.540800
v -1.533400 0.019998 0.540800
v -1.414800 -0.020004 1.037400
v -1.414800 0.019996 1.037400
v -1.228700 -0.020005 1.475600
v -1.228700 0.019995 1.475600
v -0.984800 -0.020007 1.841200
v -0.984800 0.019993 1.841200
v -0.692300 -0.020008 2.119900
v -0.692300 0.019992 2.119900
v -0.360900 -0.020008 2.297600
v -0.360900 0.019992 2.297600
v 0.000000 -0.020009 2.360000
v 0.000000 0.019991 2.360000
v 0.360900 -0.020008 2.297600
v 0.360900 0.019992 2.297600
v 0.692300 -0.020008 2.119900
v 0.692300 0.019992 2.119900
v 0.984800 -0.020007 1.841200
v 0.984800 0.019993 1.841200
v 1.228700 -0.020005 1.475600
v 1.228700 0.019995 1.475600
v 1.414800 -0.020004 1.037400
v 1.414800 0.019996 1.037400
v 1.533400 -0.020002 0.540800
v 1.533400 0.019998 0.540800
vt 0.640794 0.729697
vt 0.636466 0.671700
vt 0.640800 0.672050
vt 0.649574 0.786632
vt 0.636467 0.730019
vt 0.666094 0.838209
vt 0.645351 0.787618
vt 0.689340 0.882933
vt 0.662088 0.839866
vt 0.717731 0.919634
vt 0.685679 0.885260
vt 0.750287 0.946602
vt 0.714603 0.922635
vt 0.785577 0.962911
vt 0.747960 0.950250
vt 0.822788 0.966724
vt 0.784397 0.967072
vt 0.860822 0.961207
vt 0.823079 0.971055
vt 0.891828 0.935746
vt 0.859081 0.957196
vt 0.923567 0.906181
vt 0.894693 0.939089
vt 0.919984 0.903628
vt 0.946698 0.864619
vt 0.942690 0.862844
vt 0.962805 0.815736
vt 0.958566 0.814698
vt 0.971339 0.761392
vt 0.967006 0.761043
vt 0.971339 0.703073
vt 0.967012 0.703395
vt 0.962455 0.645475
vt 0.958232 0.646460
vt 0.945717 0.593226
vt 0.918464 0.550159
vt 0.893196 0.510457
vt 0.922125 0.547832
vt 0.890068 0.513459
vt 0.859821 0.482857
vt 0.822147 0.470338
vt 0.857501 0.486510
vt 0.784664 0.462043
vt 0.823326 0.466178
vt 0.748624 0.475756
vt 0.784939 0.466375
vt 0.715962 0.497339
vt 0.746883 0.471743
vt 0.687816 0.529465
vt 0.713090 0.494002
vt 0.665114 0.570249
vt 0.684232 0.526913
vt 0.649239 0.618395
vt 0.661106 0.568474
vt 0.645000 0.617357
vt 0.941711 0.594883
vt 0.757547 0.759541
vt 0.714215 0.828328
vt 0.303123 0.771434
vt 0.661474 0.881281
vt 0.601051 0.915745
vt 0.405433 0.887982
vt 0.534616 0.929031
vt 0.467576 0.919239
vt 0.349994 0.837860
vt 0.266588 0.691302
vt 0.242253 0.600044
vt 0.789840 0.677608
vt 0.231943 0.500240
vt 0.814444 0.484995
vt 0.237019 0.400033
vt 0.804134 0.385191
vt 0.256547 0.307627
vt 0.779799 0.293934
vt 0.288840 0.225694
vt 0.743265 0.213802
vt 0.332173 0.156907
vt 0.384914 0.103954
vt 0.696393 0.147375
vt 0.445337 0.069490
vt 0.640955 0.097253
vt 0.511773 0.056204
vt 0.578812 0.065997
vt 0.809369 0.585202
vn 0.9971 0.0000 0.0767
vn 0.9971 -0.0000 -0.0767
vn 0.9726 0.0000 -0.2323
vn 0.9204 0.0000 -0.3909
vn 0.8319 0.0000 -0.5550
vn 0.6898 0.0000 -0.7240
vn 0.4726 0.0000 -0.8813
vn 0.1704 0.0000 -0.9854
vn -0.1704 0.0000 -0.9854
vn -0.4726 0.0000 -0.8813
vn -0.6898 0.0000 -0.7240
vn -0.8319 0.0000 -0.5550
vn -0.9204 0.0000 -0.3909
vn -0.9726 0.0000 -0.2323
vn -0.9971 -0.0000 -0.0767
vn -0.9971 0.0000 0.0767
vn -0.9726 0.0000 0.2323
vn -0.8319 0.0000 0.5550
vn -0.6898 0.0000 0.7240
vn -0.4726 0.0000 0.8813
vn -0.1704 0.0000 0.9854
vn 0.1704 0.0000 0.9854
vn 0.4726 0.0000 0.8813
vn 0.6898 0.0000 0.7240
vn 0.8319 0.0000 0.5550
vn 0.9204 0.0000 0.3909
vn 0.9726 0.0000 0.2323
vn -0.9204 0.0000 0.3909
vn 0.0000 -1.0000 -0.0000
vn 0.0000 1.0000 0.0000
usemtl Default_OBJ.019
s 1
f 1/1/1 56/2/1 55/3/1
f 2/4/2 4/5/2 1/1/2
f 5/6/3 3/7/3 2/4/3
f 7/8/4 6/9/4 5/6/4
f 9/10/5 8/11/5 7/8/5
f 11/12/6 10/13/6 9/10/6
f 13/14/7 12/15/7 11/12/7
f 15/16/8 14/17/8 13/14/8
f 15/16/9 18/18/9 16/19/9
f 19/20/10 18/18/10 17/21/10
f 19/20/11 22/22/11 20/23/11
f 21/24/12 24/25/12 22/22/12
f 23/26/13 26/27/13 24/25/13
f 25/28/14 28/29/14 26/27/14
f 27/30/15 30/31/15 28/29/15
f 29/32/16 32/33/16 30/31/16
f 31/34/17 34/35/17 32/33/17
f 35/36/18 38/37/18 36/38/18
f 37/39/19 40/40/19 38/37/19
f 41/41/20 40/40/20 39/42/20
f 41/41/21 44/43/21 42/44/21
f 45/45/22 44/43/22 43/46/22
f 47/47/23 46/48/23 45/45/23
f 49/49/24 48/50/24 47/47/24
f 51/51/25 50/52/25 49/49/25
f 53/53/26 52/54/26 51/51/26
f 55/3/27 54/55/27 53/53/27
f 33/56/28 36/38/28 34/35/28
f 51/51/29 49/49/29 35/36/29
f 36/57/30 38/58/30 52/59/30
f 1/1/1 4/5/1 56/2/1
f 2/4/2 3/7/2 4/5/2
f 5/6/3 6/9/3 3/7/3
f 7/8/4 8/11/4 6/9/4
f 9/10/5 10/13/5 8/11/5
f 11/12/6 12/15/6 10/13/6
f 13/14/7 14/17/7 12/15/7
f 15/16/8 16/19/8 14/17/8
f 15/16/9 17/21/9 18/18/9
f 19/20/10 20/23/10 18/18/10
f 19/20/11 21/24/11 22/22/11
f 21/24/12 23/26/12 24/25/12
f 23/26/13 25/28/13 26/27/13
f 25/28/14 27/30/14 28/29/14
f 27/30/15 29/32/15 30/31/15
f 29/32/16 31/34/16 32/33/16
f 31/34/17 33/56/17 34/35/17
f 35/36/18 37/39/18 38/37/18
f 37/39/19 39/42/19 40/40/19
f 41/41/20 42/44/20 40/40/20
f 41/41/21 43/46/21 44/43/21
f 45/45/22 46/48/22 44/43/22
f 47/47/23 48/50/23 46/48/23
f 49/49/24 50/52/24 48/50/24
f 51/51/25 52/54/25 50/52/25
f 53/53/26 54/55/26 52/54/26
f 55/3/27 56/2/27 54/55/27
f 33/56/28 35/36/28 36/38/28
f 47/47/29 45/45/29 39/42/29
f 45/45/29 43/46/29 41/41/29
f 39/42/29 45/45/29 41/41/29
f 39/42/29 37/39/29 47/47/29
f 37/39/29 35/36/29 49/49/29
f 47/47/29 37/39/29 49/49/29
f 35/36/29 33/56/29 51/51/29
f 33/56/29 31/34/29 53/53/29
f 51/51/29 33/56/29 53/53/29
f 31/34/29 29/32/29 1/1/29
f 29/32/29 27/30/29 2/4/29
f 27/30/29 25/28/29 5/6/29
f 25/28/29 23/26/29 7/8/29
f 23/26/29 21/24/29 7/8/29
f 21/24/29 19/20/29 9/10/29
f 7/8/29 21/24/29 9/10/29
f 19/20/29 17/21/29 11/12/29
f 17/21/29 15/16/29 13/14/29
f 11/12/29 17/21/29 13/14/29
f 11/12/29 9/10/29 19/20/29
f 7/8/29 5/6/29 25/28/29
f 5/6/29 2/4/29 27/30/29
f 2/4/29 1/1/29 29/32/29
f 1/1/29 55/3/29 31/34/29
f 55/3/29 53/53/29 31/34/29
f 40/60/30 42/61/30 48/62/30
f 42/61/30 44/63/30 46/64/30
f 48/62/30 42/61/30 46/64/30
f 48/62/30 50/65/30 40/60/30
f 50/65/30 52/59/30 38/58/30
f 40/60/30 50/65/30 38/58/30
f 52/59/30 54/66/30 36/57/30
f 54/66/30 56/67/30 34/68/30
f 36/57/30 54/66/30 34/68/30
f 56/67/30 4/69/30 30/70/30
f 4/69/30 3/71/30 28/72/30
f 3/71/30 6/73/30 26/74/30
f 6/73/30 8/75/30 24/76/30
f 8/75/30 10/77/30 24/76/30
f 10/77/30 12/78/30 22/79/30
f 24/76/30 10/77/30 22/79/30
f 12/78/30 14/80/30 20/81/30
f 14/80/30 16/82/30 18/83/30
f 20/81/30 14/80/30 18/83/30
f 20/81/30 22/79/30 12/78/30
f 24/76/30 26/74/30 6/73/30
f 26/74/30 28/72/30 3/71/30
f 28/72/30 30/70/30 4/69/30
f 30/70/30 32/84/30 56/67/30
f 32/84/30 34/68/30 56/67/30
