# Blender v2.93.5 OBJ File: ''
# www.blender.org
mtllib terrain Woods #192.mtl
o terrain_Woods_#192
v -4.725000 -0.020000 0.000000
v -4.600100 -0.019998 0.540800
v -4.600100 0.020002 0.540800
v -4.725000 0.020000 -0.000000
v -4.244300 -0.019996 1.037400
v -4.244300 0.020004 1.037400
v -3.686200 -0.019995 1.475600
v -3.686200 0.020005 1.475600
v -2.954300 -0.019993 1.841200
v -2.954300 0.020007 1.841200
v -2.076900 -0.019992 2.119900
v -2.076900 0.020008 2.119900
v -1.082700 -0.019992 2.297600
v -1.082700 0.020008 2.297600
v 0.000000 -0.019991 2.360000
v 0.000000 0.020009 2.360000
v 1.082700 -0.019992 2.297600
v 1.082700 0.020008 2.297600
v 2.076900 -0.019992 2.119900
v 2.076900 0.020008 2.119900
v 2.954300 -0.019993 1.841200
v 2.954300 0.020007 1.841200
v 3.686200 -0.019995 1.475600
v 3.686200 0.020005 1.475600
v 4.244300 -0.019996 1.037400
v 4.244300 0.020004 1.037400
v 4.600100 -0.019998 0.540800
v 4.600100 0.020002 0.540800
v 4.725000 -0.020000 0.000000
v 4.725000 0.020000 -0.000000
v 4.600100 -0.020002 -0.540800
v 4.600100 0.019998 -0.540800
v 4.244300 -0.020004 -1.037400
v 4.244300 0.019996 -1.037400
v 3.686200 -0.020005 -1.475600
v 3.686200 0.019995 -1.475600
v 2.954300 -0.020007 -1.841200
v 2.954300 0.019993 -1.841200
v 2.076900 -0.020008 -2.119900
v 2.076900 0.019992 -2.119900
v 1.082700 -0.020008 -2.297600
v 1.082700 0.019992 -2.297600
v 0.000000 -0.020009 -2.360000
v 0.000000 0.019991 -2.360000
v -1.082700 -0.020008 -2.297600
v -1.082700 0.019992 -2.297600
v -2.076900 -0.020008 -2.119900
v -2.076900 0.019992 -2.119900
v -2.954300 -0.020007 -1.841200
v -2.954300 0.019993 -1.841200
v -3.686200 -0.020005 -1.475600
v -3.686200 0.019995 -1.475600
v -4.244300 -0.020004 -1.037400
v -4.244300 0.019996 -1.037400
v -4.600100 -0.020002 -0.540800
v -4.600100 0.019998 -0.540800
vt 0.849841 0.962603
vt 0.876458 0.954800
vt 0.877458 0.956737
vt 0.849911 0.964754
vt 0.900776 0.934767
vt 0.902380 0.936261
vt 0.922005 0.904050
vt 0.923901 0.905117
vt 0.939280 0.864580
vt 0.941318 0.865286
vt 0.951263 0.817556
vt 0.953369 0.817953
vt 0.957638 0.764835
vt 0.959767 0.764965
vt 0.957642 0.707880
vt 0.959767 0.707758
vt 0.951016 0.651348
vt 0.953109 0.650976
vt 0.938551 0.599883
vt 0.940579 0.599246
vt 0.920981 0.555023
vt 0.922900 0.554104
vt 0.899649 0.517977
vt 0.901377 0.516737
vt 0.875250 0.490575
vt 0.876640 0.488970
vt 0.849161 0.473652
vt 0.849977 0.471690
vt 0.822034 0.468351
vt 0.821964 0.466201
vt 0.795417 0.476155
vt 0.794417 0.474218
vt 0.771098 0.496188
vt 0.769494 0.494693
vt 0.749870 0.526905
vt 0.747974 0.525837
vt 0.732595 0.566374
vt 0.730557 0.565669
vt 0.720612 0.613399
vt 0.718506 0.613001
vt 0.714237 0.666120
vt 0.712108 0.665989
vt 0.714233 0.723074
vt 0.712108 0.723196
vt 0.720859 0.779606
vt 0.718766 0.779979
vt 0.733324 0.831072
vt 0.731296 0.831708
vt 0.750894 0.875932
vt 0.748975 0.876850
vt 0.772226 0.912978
vt 0.770498 0.914218
vt 0.796625 0.940380
vt 0.795235 0.941984
vt 0.822714 0.957303
vt 0.821898 0.959265
vt 0.459867 0.042541
vt 0.510537 0.029069
vt 0.561982 0.039182
vt 0.609972 0.071231
vt 0.414087 0.077674
vt 0.653076 0.122562
vt 0.374449 0.131726
vt 0.342205 0.201961
vt 0.689865 0.190526
vt 0.718902 0.272497
vt 0.318617 0.285663
vt 0.304928 0.380078
vt 0.738766 0.365809
vt 0.302399 0.482491
vt 0.748020 0.467834
vt 0.311652 0.584516
vt 0.745491 0.570247
vt 0.331516 0.677828
vt 0.731801 0.664662
vt 0.708213 0.748364
vt 0.360553 0.759799
vt 0.397343 0.827764
vt 0.675969 0.818599
vt 0.636332 0.872651
vt 0.440447 0.879094
vt 0.590552 0.907785
vt 0.488436 0.911143
vt 0.539882 0.921256
vn -0.9744 0.0000 0.2250
vn -0.8129 -0.0000 0.5824
vn -0.6176 0.0000 0.7865
vn -0.4469 0.0000 0.8946
vn -0.3027 0.0000 0.9531
vn -0.1759 0.0000 0.9844
vn -0.0575 0.0000 0.9983
vn 0.0575 0.0000 0.9983
vn 0.1759 0.0000 0.9844
vn 0.3027 0.0000 0.9531
vn 0.4469 0.0000 0.8946
vn 0.6176 0.0000 0.7865
vn 0.8129 0.0000 0.5824
vn 0.9744 0.0000 0.2250
vn 0.9744 -0.0000 -0.2250
vn 0.8129 0.0000 -0.5824
vn 0.6176 -0.0000 -0.7865
vn 0.4469 -0.0000 -0.8946
vn 0.3027 -0.0000 -0.9531
vn 0.1759 0.0000 -0.9844
vn 0.0575 0.0000 -0.9983
vn -0.0575 0.0000 -0.9983
vn -0.1759 0.0000 -0.9844
vn -0.3027 -0.0000 -0.9531
vn -0.4469 -0.0000 -0.8946
vn -0.6176 -0.0000 -0.7865
vn -0.8129 -0.0000 -0.5824
vn -0.9744 -0.0000 -0.2250
vn 0.0000 -1.0000 0.0000
vn -0.0000 1.0000 -0.0000
usemtl Default_OBJ.014
s 1
f 1/1/1 2/2/1 3/3/1
f 1/1/1 3/3/1 4/4/1
f 2/2/2 5/5/2 6/6/2
f 2/2/2 6/6/2 3/3/2
f 5/5/3 7/7/3 8/8/3
f 5/5/3 8/8/3 6/6/3
f 7/7/4 9/9/4 10/10/4
f 7/7/4 10/10/4 8/8/4
f 9/9/5 11/11/5 12/12/5
f 9/9/5 12/12/5 10/10/5
f 11/11/6 13/13/6 14/14/6
f 11/11/6 14/14/6 12/12/6
f 13/13/7 15/15/7 16/16/7
f 13/13/7 16/16/7 14/14/7
f 15/15/8 17/17/8 18/18/8
f 15/15/8 18/18/8 16/16/8
f 17/17/9 19/19/9 20/20/9
f 17/17/9 20/20/9 18/18/9
f 19/19/10 21/21/10 22/22/10
f 19/19/10 22/22/10 20/20/10
f 21/21/11 23/23/11 24/24/11
f 21/21/11 24/24/11 22/22/11
f 23/23/12 25/25/12 26/26/12
f 23/23/12 26/26/12 24/24/12
f 25/25/13 27/27/13 28/28/13
f 25/25/13 28/28/13 26/26/13
f 27/27/14 29/29/14 30/30/14
f 27/27/14 30/30/14 28/28/14
f 29/29/15 31/31/15 32/32/15
f 29/29/15 32/32/15 30/30/15
f 31/31/16 33/33/16 34/34/16
f 31/31/16 34/34/16 32/32/16
f 33/33/17 35/35/17 36/36/17
f 33/33/17 36/36/17 34/34/17
f 35/35/18 37/37/18 38/38/18
f 35/35/18 38/38/18 36/36/18
f 37/37/19 39/39/19 40/40/19
f 37/37/19 40/40/19 38/38/19
f 39/39/20 41/41/20 42/42/20
f 39/39/20 42/42/20 40/40/20
f 41/41/21 43/43/21 44/44/21
f 41/41/21 44/44/21 42/42/21
f 43/43/22 45/45/22 46/46/22
f 43/43/22 46/46/22 44/44/22
f 45/45/23 47/47/23 48/48/23
f 45/45/23 48/48/23 46/46/23
f 47/47/24 49/49/24 50/50/24
f 47/47/24 50/50/24 48/48/24
f 49/49/25 51/51/25 52/52/25
f 49/49/25 52/52/25 50/50/25
f 51/51/26 53/53/26 54/54/26
f 51/51/26 54/54/26 52/52/26
f 53/53/27 55/55/27 56/56/27
f 53/53/27 56/56/27 54/54/27
f 55/55/28 1/1/28 4/4/28
f 55/55/28 4/4/28 56/56/28
f 27/27/29 31/31/29 29/29/29
f 27/27/29 33/33/29 31/31/29
f 25/25/29 33/33/29 27/27/29
f 25/25/29 35/35/29 33/33/29
f 23/23/29 35/35/29 25/25/29
f 21/21/29 35/35/29 23/23/29
f 21/21/29 37/37/29 35/35/29
f 21/21/29 39/39/29 37/37/29
f 19/19/29 39/39/29 21/21/29
f 17/17/29 39/39/29 19/19/29
f 17/17/29 41/41/29 39/39/29
f 15/15/29 41/41/29 17/17/29
f 15/15/29 43/43/29 41/41/29
f 13/13/29 43/43/29 15/15/29
f 13/13/29 45/45/29 43/43/29
f 11/11/29 45/45/29 13/13/29
f 11/11/29 47/47/29 45/45/29
f 11/11/29 49/49/29 47/47/29
f 9/9/29 49/49/29 11/11/29
f 7/7/29 49/49/29 9/9/29
f 7/7/29 51/51/29 49/49/29
f 7/7/29 53/53/29 51/51/29
f 5/5/29 53/53/29 7/7/29
f 5/5/29 55/55/29 53/53/29
f 2/2/29 55/55/29 5/5/29
f 1/1/29 55/55/29 2/2/29
f 28/57/30 30/58/30 32/59/30
f 28/57/30 32/59/30 34/60/30
f 26/61/30 28/57/30 34/60/30
f 26/61/30 34/60/30 36/62/30
f 24/63/30 26/61/30 36/62/30
f 22/64/30 24/63/30 36/62/30
f 22/64/30 36/62/30 38/65/30
f 22/64/30 38/65/30 40/66/30
f 20/67/30 22/64/30 40/66/30
f 18/68/30 20/67/30 40/66/30
f 18/68/30 40/66/30 42/69/30
f 16/70/30 18/68/30 42/69/30
f 16/70/30 42/69/30 44/71/30
f 14/72/30 16/70/30 44/71/30
f 14/72/30 44/71/30 46/73/30
f 12/74/30 14/72/30 46/73/30
f 12/74/30 46/73/30 48/75/30
f 12/74/30 48/75/30 50/76/30
f 10/77/30 12/74/30 50/76/30
f 8/78/30 10/77/30 50/76/30
f 8/78/30 50/76/30 52/79/30
f 8/78/30 52/79/30 54/80/30
f 6/81/30 8/78/30 54/80/30
f 6/81/30 54/80/30 56/82/30
f 3/83/30 6/81/30 56/82/30
f 4/84/30 3/83/30 56/82/30
