# Blender v3.0.0 OBJ File: 'terrain_gentle_hill_136.blend'
# www.blender.org
mtllib terrain_gentle_hill_136.mtl
o terrain_Gentle_Hill_#136.001_Cube.001
v 0.409685 -0.100416 2.584820
v -0.598613 -0.100416 2.548687
v -1.568162 -0.100416 2.441676
v -2.351773 -0.092825 2.181388
v -3.244900 -0.100416 2.034033
v -3.827178 -0.092825 1.662559
v -3.938798 -0.092825 0.888284
v 4.638736 -0.100416 -0.608161
v 4.096906 -0.100416 0.575482
v 3.389931 -0.100416 0.868323
v 2.695041 -0.100416 1.228211
v 1.881778 -0.100416 1.559517
v 1.417982 -0.100416 1.926450
v -4.247348 -0.099821 -1.745888
v 5.201472 -0.100416 -1.745888
v 2.399230 0.293285 -1.257537
v 2.194141 0.293285 -1.117931
v 2.885323 0.293285 -1.745888
v 1.479107 0.293285 -0.820519
v 1.862802 0.293285 -0.895141
v 1.062774 0.293285 -0.774567
v 0.629803 0.293285 -0.851606
v 1.918138 0.293285 -0.995564
v -0.219501 0.293285 -0.884748
v -1.404291 0.293285 -0.915435
v -1.324309 0.293285 -1.480029
v -1.338984 0.293285 -1.745888
v -0.939507 0.293285 -0.767148
v -0.571023 0.293285 -0.893300
v 0.196831 0.293285 -0.935500
v 1.417982 -0.100416 2.548687
vt 0.804429 0.122785
vt 0.771994 0.287748
vt 0.779958 0.198567
vt 0.605053 0.719760
vt 0.565073 0.996002
vt 0.565073 0.723697
vt 0.643496 0.708098
vt 0.658177 0.986832
vt 0.680191 0.691056
vt 0.747702 0.959675
vt 0.709979 0.663676
vt 0.830209 0.915574
vt 0.737360 0.633888
vt 0.902528 0.856224
vt 1.005978 0.701399
vt 0.756508 0.598065
vt 0.665739 0.622689
vt 0.545954 0.011938
vt 0.605496 0.010093
vt 0.632932 0.014280
vt 0.744051 0.480204
vt 0.695185 0.481875
vt 0.124168 0.701399
vt 0.394682 0.632621
vt 0.168269 0.783906
vt 0.227619 0.856224
vt 0.420168 0.663676
vt 0.451222 0.689161
vt 0.486651 0.708098
vt 0.299937 0.915574
vt 0.926511 0.962791
vt 0.951758 0.949525
vt 0.916457 0.952737
vt 0.525094 0.719760
vt 0.382444 0.959675
vt 0.471970 0.986832
vt 0.418874 0.222706
vt 0.158096 0.052256
vt 0.308807 0.047706
vt 0.821777 0.093655
vt 0.841685 0.071937
vt 0.989074 0.048933
vt 0.993538 0.492063
vt 0.774688 0.333145
vt 0.876787 0.484962
vt 0.795125 0.413494
vt 0.828275 0.480366
vt 0.807747 0.452025
vt 0.781753 0.376751
vt 0.790309 0.158209
vt 0.773773 0.242307
vt 0.961877 0.783906
vt 0.470872 0.617793
vt 0.784207 0.009108
vt 0.375745 0.597192
vt 0.918174 0.955949
vt 0.920484 0.958764
vt 0.923299 0.961074
vt 0.929996 0.963848
vt 0.933620 0.964205
vt 0.937245 0.963848
vt 0.940730 0.962791
vt 0.943941 0.961074
vt 0.946756 0.958764
vt 0.950784 0.952737
vt 0.949067 0.955949
vt 0.915470 0.949482
vt 0.059704 0.233280
vn 0.0000 1.0000 0.0000
vn -0.0218 0.9934 0.1124
vn 0.0141 0.9932 0.1154
vn -0.0028 0.9932 0.1164
vn 0.0529 0.9866 0.1545
vn -0.0353 0.9932 0.1106
vn -0.1670 0.9857 -0.0237
vn -0.1339 0.9910 0.0074
vn 0.1340 0.9820 0.1333
vn 0.1451 0.9872 0.0664
vn 0.0684 0.9857 0.1542
vn 0.1551 0.9842 0.0854
vn 0.0330 0.9849 0.1697
vn -0.0001 -1.0000 -0.0001
vn 0.0177 0.9869 0.1603
vn 0.0773 0.9900 0.1184
vn 0.0000 0.0000 -1.0000
vn -0.0040 0.9938 0.1114
vn -0.0124 0.9936 0.1126
vn -0.0267 0.9936 0.1093
vn -0.0277 0.9928 0.1167
vn -0.0513 0.9936 0.1006
vn -0.1368 0.9904 0.0197
vn -0.1344 0.9908 0.0131
vn 0.1670 0.9825 0.0826
vn 0.1204 0.9768 0.1769
vn 0.0648 0.9856 0.1564
vn 0.0786 0.9853 0.1519
vn 0.0622 0.9863 0.1526
vn 0.0000 -1.0000 -0.0000
vn 0.0000 -1.0000 -0.0002
vn 0.0107 -0.9999 -0.0131
vn -0.0144 -0.9999 0.0021
vn -0.0000 -1.0000 -0.0001
vn -0.0122 -0.9999 0.0077
vn -0.0024 -1.0000 0.0029
vn -0.0001 -1.0000 -0.0000
vn 0.1030 0.9861 0.1302
vn -0.0263 0.9887 0.1476
usemtl Material.001
s off
f 23/1/1 22/2/1 19/3/1
f 30/4/2 1/5/2 22/6/2
f 24/7/3 2/8/3 30/4/3
f 29/9/4 3/10/4 24/7/4
f 28/11/5 4/12/5 29/9/5
f 25/13/6 5/14/6 28/11/6
f 7/15/7 25/13/7 26/16/7
f 14/17/8 26/18/8 27/19/8
f 8/20/9 18/21/9 16/22/9
f 8/23/10 17/24/10 9/25/10
f 10/26/11 17/24/11 23/27/11
f 20/28/12 10/26/12 23/27/12
f 19/29/13 11/30/13 20/28/13
f 12/31/14 14/32/14 8/33/14
f 21/34/15 12/35/15 19/29/15
f 13/36/16 22/6/16 1/5/16
f 15/37/17 27/38/17 18/39/17
f 17/40/1 16/41/1 23/1/1
f 16/41/1 18/42/1 23/1/1
f 18/42/1 27/43/1 30/44/1
f 27/43/1 26/45/1 29/46/1
f 18/42/1 30/44/1 22/2/1
f 26/45/1 25/47/1 28/48/1
f 29/46/1 24/49/1 27/43/1
f 24/49/1 30/44/1 27/43/1
f 26/45/1 28/48/1 29/46/1
f 19/3/1 20/50/1 23/1/1
f 23/1/1 18/42/1 22/2/1
f 22/2/1 21/51/1 19/3/1
f 30/4/18 2/8/18 1/5/18
f 24/7/19 3/10/19 2/8/19
f 29/9/20 4/12/20 3/10/20
f 28/11/21 5/14/21 4/12/21
f 25/13/22 6/52/22 5/14/22
f 7/15/23 6/52/23 25/13/23
f 14/17/24 7/53/24 26/18/24
f 8/20/25 15/54/25 18/21/25
f 8/23/26 16/55/26 17/24/26
f 10/26/27 9/25/27 17/24/27
f 20/28/28 11/30/28 10/26/28
f 19/29/29 12/35/29 11/30/29
f 8/33/30 9/56/30 10/57/30
f 10/57/30 11/58/30 8/33/30
f 11/58/30 12/31/30 8/33/30
f 12/31/14 13/59/14 14/32/14
f 13/59/30 1/60/30 2/61/30
f 2/61/31 3/62/31 14/32/31
f 4/63/32 5/64/32 7/65/32
f 5/64/33 6/66/33 7/65/33
f 14/32/34 13/59/34 2/61/34
f 3/62/35 4/63/35 14/32/35
f 7/65/36 14/32/36 4/63/36
f 14/32/37 15/67/37 8/33/37
f 21/34/38 13/36/38 12/35/38
f 13/36/39 21/34/39 22/6/39
f 15/37/17 14/68/17 27/38/17
