# Blender v3.0.0 OBJ File: 'terrain_gentle_hill_136.blend'
# www.blender.org
mtllib terrain_gentle_hill_136.mtl
o terrain_Gentle_Hill_#136.001_Cube.001
v 0.409685 -0.100416 2.584820
v -0.598613 -0.100416 2.548687
v -1.568162 -0.100416 2.441676
v -2.351773 -0.092825 2.181388
v -3.244900 -0.100416 2.034033
v -3.827178 -0.092825 1.662559
v -3.938798 -0.092825 0.888284
v 4.638736 -0.100416 -0.608161
v 4.096906 -0.100416 0.575482
v 3.389931 -0.100416 0.868323
v 2.695041 -0.100416 1.228211
v 1.881778 -0.100416 1.559517
v 1.417982 -0.100416 1.926450
v -4.247348 -0.099821 -1.745888
v 5.201472 -0.100416 -1.745888
v 2.399230 0.293285 -1.257537
v 2.194141 0.293285 -1.117931
v 2.885323 0.293285 -1.745888
v 1.479107 0.293285 -0.820519
v 1.862802 0.293285 -0.895141
v 1.062774 0.293285 -0.774567
v 0.629803 0.293285 -0.851606
v 1.918138 0.293285 -0.995564
v -0.219501 0.293285 -0.884748
v -1.404291 0.293285 -0.915435
v -1.324309 0.293285 -1.480029
v -1.338984 0.293285 -1.745888
v -0.939507 0.293285 -0.767148
v -0.571023 0.293285 -0.893300
v 0.196831 0.293285 -0.935500
v 1.417982 -0.100416 2.548687
vt 0.278992 0.399796
vt 0.372494 0.382218
vt 0.313558 0.402600
vt 0.401079 0.367078
vt 0.462055 0.620267
vt 0.431385 0.361693
vt 0.532041 0.596124
vt 0.455871 0.353559
vt 0.597786 0.567865
vt 0.484437 0.354463
vt 0.647185 0.532837
vt 0.513873 0.334146
vt 0.706709 0.503456
vt 0.730813 0.408546
vt 0.496145 0.296452
vt 0.695948 0.218113
vt 0.491470 0.277580
vt 0.096753 0.488076
vt 0.195016 0.368161
vt 0.239608 0.391825
vt 0.256996 0.397172
vt 0.160176 0.559077
vt 0.216074 0.564358
vt 0.285030 0.405619
vt 0.272563 0.574579
vt 0.007624 0.985511
vt 0.015626 0.970674
vt 0.012872 0.992185
vt 0.343762 0.396880
vt 0.336746 0.580265
vt 0.377167 0.595933
vt 0.960188 0.000000
vt 0.918565 0.692201
vt 0.918537 0.245128
vt 0.739594 0.464985
vt 0.032847 0.420728
vt 0.010006 0.990874
vt 0.009297 0.989162
vt 0.008426 0.987480
vt 0.006736 0.984389
vt 0.005142 0.981948
vt 0.005230 0.979507
vt 0.005489 0.977160
vt 0.006119 0.975263
vt 0.006475 0.973101
vt 0.009249 0.971421
vt 0.007375 0.971691
vt 0.015626 0.993547
vt 0.960188 1.000000
vn 0.0000 1.0000 0.0000
vn -0.0218 0.9934 0.1124
vn 0.0141 0.9932 0.1154
vn -0.0028 0.9932 0.1164
vn 0.0529 0.9866 0.1545
vn -0.0353 0.9932 0.1106
vn -0.1670 0.9857 -0.0237
vn -0.1339 0.9910 0.0074
vn 0.1340 0.9820 0.1333
vn 0.1451 0.9872 0.0664
vn 0.0684 0.9857 0.1542
vn 0.1551 0.9842 0.0854
vn 0.0330 0.9849 0.1697
vn -0.0001 -1.0000 -0.0001
vn 0.0177 0.9869 0.1603
vn 0.0773 0.9900 0.1184
vn 0.0000 0.0000 -1.0000
vn -0.0040 0.9938 0.1114
vn -0.0124 0.9936 0.1126
vn -0.0267 0.9936 0.1093
vn -0.0277 0.9928 0.1167
vn -0.0513 0.9936 0.1006
vn -0.1368 0.9904 0.0197
vn -0.1344 0.9908 0.0131
vn 0.1670 0.9825 0.0826
vn 0.1204 0.9768 0.1769
vn 0.0648 0.9856 0.1564
vn 0.0786 0.9853 0.1519
vn 0.0622 0.9863 0.1526
vn 0.0000 -1.0000 -0.0000
vn 0.0000 -1.0000 -0.0002
vn 0.0107 -0.9999 -0.0131
vn -0.0144 -0.9999 0.0021
vn -0.0000 -1.0000 -0.0001
vn -0.0122 -0.9999 0.0077
vn -0.0024 -1.0000 0.0029
vn -0.0001 -1.0000 -0.0000
vn 0.1030 0.9861 0.1302
vn -0.0263 0.9887 0.1476
usemtl Material.001
s off
f 23/1/1 22/2/1 19/3/1
f 30/4/2 1/5/2 22/2/2
f 24/6/3 2/7/3 30/4/3
f 29/8/4 3/9/4 24/6/4
f 28/10/5 4/11/5 29/8/5
f 25/12/6 5/13/6 28/10/6
f 7/14/7 25/12/7 26/15/7
f 14/16/8 26/15/8 27/17/8
f 8/18/9 18/19/9 16/20/9
f 8/18/10 17/21/10 9/22/10
f 10/23/11 17/21/11 23/1/11
f 20/24/12 10/23/12 23/1/12
f 19/3/13 11/25/13 20/24/13
f 12/26/14 14/27/14 8/28/14
f 21/29/15 12/30/15 19/3/15
f 13/31/16 22/2/16 1/5/16
f 15/32/17 27/33/17 18/34/17
f 17/21/1 16/20/1 23/1/1
f 16/20/1 18/19/1 23/1/1
f 18/19/1 27/17/1 30/4/1
f 27/17/1 26/15/1 29/8/1
f 18/19/1 30/4/1 22/2/1
f 26/15/1 25/12/1 28/10/1
f 29/8/1 24/6/1 27/17/1
f 24/6/1 30/4/1 27/17/1
f 26/15/1 28/10/1 29/8/1
f 19/3/1 20/24/1 23/1/1
f 23/1/1 18/19/1 22/2/1
f 22/2/1 21/29/1 19/3/1
f 30/4/18 2/7/18 1/5/18
f 24/6/19 3/9/19 2/7/19
f 29/8/20 4/11/20 3/9/20
f 28/10/21 5/13/21 4/11/21
f 25/12/22 6/35/22 5/13/22
f 7/14/23 6/35/23 25/12/23
f 14/16/24 7/14/24 26/15/24
f 8/18/25 15/36/25 18/19/25
f 8/18/26 16/20/26 17/21/26
f 10/23/27 9/22/27 17/21/27
f 20/24/28 11/25/28 10/23/28
f 19/3/29 12/30/29 11/25/29
f 8/28/30 9/37/30 10/38/30
f 10/38/30 11/39/30 8/28/30
f 11/39/30 12/26/30 8/28/30
f 12/26/14 13/40/14 14/27/14
f 13/40/30 1/41/30 2/42/30
f 2/42/31 3/43/31 14/27/31
f 4/44/32 5/45/32 7/46/32
f 5/45/33 6/47/33 7/46/33
f 14/27/34 13/40/34 2/42/34
f 3/43/35 4/44/35 14/27/35
f 7/46/36 14/27/36 4/44/36
f 14/27/37 15/48/37 8/28/37
f 21/29/38 13/31/38 12/30/38
f 13/31/39 21/29/39 22/2/39
f 15/32/17 14/49/17 27/33/17
