# Blender v3.0.0 OBJ File: 'terrain_steep_hill_162.blend'
# www.blender.org
mtllib terrain_steep_hill_162.mtl
o terrain_Steep_Hill_#162.001_Cube.001
v -0.102531 -0.106585 1.564947
v -0.477142 -0.106585 1.541954
v -0.837357 -0.106585 1.473855
v -1.128490 -0.098995 1.308218
v -1.460312 -0.106585 1.214447
v -1.676644 -0.098995 0.978054
v -1.718114 -0.098995 0.485334
v 1.671494 -0.106585 0.826215
v 1.494049 -0.106585 1.033105
v 1.255249 -0.106585 1.214446
v 0.964270 -0.106585 1.363270
v 0.632294 -0.106585 1.473855
v 0.272079 -0.106585 1.541954
v -1.832749 -0.105990 -1.190958
v 1.907409 -0.106585 -1.190958
v 0.741030 0.287116 -0.539355
v 0.664834 0.287116 -0.450515
v 0.817237 0.287116 -1.190958
v 0.294789 0.287116 -0.261253
v 0.437342 0.287116 -0.308739
v 0.140109 0.287116 -0.232011
v -0.020752 0.287116 -0.222137
v 0.562291 0.287116 -0.372645
v -0.336292 0.287116 -0.261253
v -0.704892 0.287116 -0.461997
v -0.722898 0.287116 -0.675929
v -0.752211 0.287116 -1.190958
v -0.603794 0.287116 -0.372645
v -0.466892 0.287116 -0.318645
v -0.181613 0.287116 -0.232011
vt 0.491096 0.496985
vt 0.489334 0.467945
vt 0.570295 0.594820
vt 0.159670 0.482929
vt 0.496313 0.524914
vt 0.163772 0.550555
vt 0.205682 0.668182
vt 0.506552 0.548505
vt 0.516186 0.573233
vt 0.264586 0.767224
vt 0.532127 0.591508
vt 0.352491 0.774852
vt 0.651363 0.796042
vt 0.662180 0.600260
vt 0.651346 0.120915
vt 0.545929 0.330530
vt 0.291466 0.162917
vt 0.530079 0.344258
vt 0.254555 0.194887
vt 0.516186 0.362745
vt 0.504785 0.385281
vt 0.222202 0.237940
vt 0.496313 0.410999
vt 0.195651 0.290421
vt 0.015469 0.988465
vt 0.018057 0.983591
vt 0.022162 0.992469
vt 0.491096 0.438912
vt 0.175922 0.350313
vt 0.163772 0.415315
vt 0.308807 0.047706
vt 0.059704 0.233280
vt 0.158096 0.052256
vt 0.662180 0.316962
vt 0.175922 0.615597
vt 0.222202 0.728120
vt 0.017222 0.991892
vt 0.015907 0.990160
vt 0.016715 0.991457
vt 0.016271 0.990872
vt 0.015636 0.989347
vt 0.015413 0.987547
vt 0.015469 0.986630
vt 0.015636 0.985748
vt 0.016042 0.985035
vt 0.016271 0.984222
vt 0.016850 0.983692
vt 0.022162 0.983310
vt 0.418874 0.222706
vn 0.0000 1.0000 -0.0000
vn -0.0132 0.9766 0.2146
vn -0.0397 0.9769 0.2102
vn -0.0864 0.9767 0.1967
vn -0.0788 0.9767 0.1998
vn -0.1448 0.9758 0.1639
vn -0.3330 0.9425 0.0280
vn -0.3418 0.9396 0.0195
vn 0.3394 0.9398 0.0397
vn 0.1819 0.9709 0.1560
vn 0.1378 0.9737 0.1814
vn 0.1011 0.9750 0.1977
vn 0.0693 0.9757 0.2079
vn -0.0029 -1.0000 -0.0017
vn 0.0404 0.9761 0.2136
vn 0.0132 0.9764 0.2157
vn 0.0000 0.0000 -1.0000
vn 0.0000 -1.0000 0.0000
vn -0.0004 -1.0000 -0.0064
vn 0.0005 -1.0000 -0.0077
vn 0.0129 -0.9976 -0.0685
vn 0.0429 -0.9965 -0.0713
vn -0.0002 -1.0000 0.0042
vn -0.0157 -0.9998 0.0112
usemtl Material.001
s off
f 30/1/1 22/2/1 26/3/1
f 30/1/2 1/4/2 22/2/2
f 24/5/3 2/6/3 30/1/3
f 4/7/4 24/5/4 29/8/4
f 28/9/5 4/7/5 29/8/5
f 6/10/6 28/9/6 25/11/6
f 7/12/7 25/11/7 26/3/7
f 14/13/8 26/3/8 27/14/8
f 15/15/9 16/16/9 8/17/9
f 8/17/10 17/18/10 9/19/10
f 23/20/11 9/19/11 17/18/11
f 20/21/12 10/22/12 23/20/12
f 19/23/13 11/24/13 20/21/13
f 13/25/14 7/26/14 15/27/14
f 21/28/15 12/29/15 19/23/15
f 13/30/16 22/2/16 1/4/16
f 18/31/17 14/32/17 27/33/17
f 17/18/1 16/16/1 23/20/1
f 16/16/1 18/34/1 23/20/1
f 18/34/1 27/14/1 21/28/1
f 27/14/1 26/3/1 22/2/1
f 21/28/1 27/14/1 22/2/1
f 26/3/1 25/11/1 28/9/1
f 29/8/1 24/5/1 26/3/1
f 24/5/1 30/1/1 26/3/1
f 26/3/1 28/9/1 29/8/1
f 20/21/1 18/34/1 19/23/1
f 20/21/1 23/20/1 18/34/1
f 21/28/1 19/23/1 18/34/1
f 30/1/2 2/6/2 1/4/2
f 24/5/3 3/35/3 2/6/3
f 4/7/4 3/35/4 24/5/4
f 28/9/5 5/36/5 4/7/5
f 6/10/6 5/36/6 28/9/6
f 7/12/7 6/10/7 25/11/7
f 14/13/8 7/12/8 26/3/8
f 15/15/9 18/34/9 16/16/9
f 8/17/10 16/16/10 17/18/10
f 23/20/11 10/22/11 9/19/11
f 20/21/12 11/24/12 10/22/12
f 19/23/13 12/29/13 11/24/13
f 15/27/18 8/37/18 11/38/18
f 8/37/18 9/39/18 10/40/18
f 11/38/18 8/37/18 10/40/18
f 11/38/18 12/41/18 15/27/18
f 12/41/18 13/25/18 15/27/18
f 13/25/19 1/42/19 7/26/19
f 1/42/20 2/43/20 7/26/20
f 2/43/21 3/44/21 4/45/21
f 4/45/22 5/46/22 6/47/22
f 6/47/18 7/26/18 4/45/18
f 7/26/23 14/48/23 15/27/23
f 4/45/24 7/26/24 2/43/24
f 21/28/15 13/30/15 12/29/15
f 13/30/16 21/28/16 22/2/16
f 18/31/17 15/49/17 14/32/17
