# Blender v3.0.0 OBJ File: 'terrain_gentle_hill_151.blend'
# www.blender.org
mtllib terrain_gentle_hill_151.mtl
o terrain_Gentle_Hill_#151.001_Cylinder.001
v -5.667262 -0.219578 1.496867
v -5.780735 -0.219578 0.826259
v -5.667262 -0.219578 0.155650
v -5.331204 -0.219578 -0.489187
v -4.785477 -0.219578 -1.083473
v -4.051050 -0.219578 -1.604368
v -3.156149 -0.219578 -2.031857
v -2.135164 -0.219578 -2.349509
v -1.027331 -0.219578 -2.545119
v 0.124778 -0.219578 -2.611168
v 1.276886 -0.219578 -2.545119
v 2.384719 -0.219578 -2.349509
v 3.405705 -0.219578 -2.031856
v 4.300605 -0.219578 -1.604369
v 5.035031 -0.219578 -1.083474
v 5.580760 -0.219578 -0.489188
v 5.916817 -0.219578 0.155650
v 6.030290 -0.219578 0.826259
v 5.916817 -0.219578 1.496868
v -2.328940 0.567824 1.719541
v -3.524065 0.567824 1.639823
v -5.551215 -0.219578 1.719541
v -3.561837 0.567824 1.568648
v -3.559035 0.567824 1.505002
v 1.308262 0.567824 -0.051740
v -3.059929 0.567824 1.379099
v 1.635863 0.567824 -0.039769
v -2.620374 0.567824 1.122357
v 1.802991 0.567824 0.245154
v -2.021266 0.567824 0.960549
v 1.765807 0.567824 0.464962
v -1.646823 0.567824 0.912669
v 1.581407 0.567824 0.755841
v -1.047408 0.567824 0.723263
v 1.679266 0.567824 0.964764
v -0.506873 0.567824 0.517393
v 1.909295 0.567824 1.276285
v -0.067791 0.567824 0.359008
v 1.942003 0.567824 1.719541
v 0.319244 0.567824 0.065968
v 5.800770 -0.219578 1.719541
v 0.896211 0.567824 0.035865
vt 0.998925 0.788090
vt 0.915212 0.959249
vt 0.998325 0.686680
vt 0.445720 0.187298
vt 0.424476 0.009703
vt 0.453074 0.190506
vt 0.439143 0.187526
vt 0.355184 0.000000
vt 0.219261 0.037869
vt 0.426134 0.229764
vt 0.157854 0.083986
vt 0.399605 0.266940
vt 0.104031 0.146090
vt 0.382886 0.317639
vt 0.059859 0.221793
vt 0.377939 0.349333
vt 0.027037 0.308186
vt 0.358368 0.400054
vt 0.006825 0.401950
vt 0.337095 0.445787
vt 0.320730 0.482938
vt 0.290451 0.515663
vt 0.000000 0.499480
vt 0.287340 0.564507
vt 0.006825 0.597030
vt 0.278288 0.599379
vt 0.027037 0.690850
vt 0.279525 0.627116
vt 0.059859 0.777335
vt 0.104031 0.853160
vt 0.308966 0.641306
vt 0.157854 0.915413
vt 0.331678 0.638190
vt 0.219260 0.961701
vt 0.285891 0.990245
vt 0.361734 0.622620
vt 0.383322 0.630935
vt 0.355184 0.999949
vt 0.415511 0.650455
vt 0.424476 0.990438
vt 0.447485 0.980645
vt 0.016659 0.970709
vt 0.018323 0.970937
vt 0.018876 0.971169
vt 1.000000 0.325782
vt 0.919664 0.000000
vt 0.918151 0.970233
vt 0.285891 0.009511
vt 0.461311 0.653287
vt 0.018876 0.993924
vt 0.008130 0.982547
vt 0.018323 0.994157
vt 0.016659 0.994384
vt 0.008294 0.984856
vt 0.008779 0.987077
vt 0.014995 0.994157
vt 0.013395 0.993483
vt 0.011921 0.992389
vt 0.010628 0.990917
vt 0.009567 0.989123
vt 0.008294 0.980237
vt 0.008779 0.978017
vt 0.009567 0.975970
vt 0.010628 0.974176
vt 0.011921 0.972704
vt 0.013395 0.971610
vt 0.014995 0.970937
vt 0.461311 0.291699
vn -0.0642 0.2628 0.9627
vn -0.3498 0.9183 0.1856
vn -0.3301 0.9438 -0.0145
vn -0.0772 0.9489 -0.3061
vn -0.1282 0.9672 -0.2194
vn -0.0661 0.9674 -0.2447
vn -0.0311 0.9695 -0.2433
vn -0.0708 0.9720 -0.2240
vn -0.0890 0.9682 -0.2338
vn -0.0846 0.9684 -0.2346
vn -0.1993 0.9440 -0.2632
vn -0.0153 0.9557 -0.2938
vn -0.0754 0.9319 -0.3547
vn 0.0131 0.9338 -0.3575
vn 0.1490 0.9663 -0.2101
vn 0.1637 0.9750 -0.1503
vn 0.1938 0.9733 0.1228
vn 0.1771 0.9837 -0.0300
vn 0.1910 0.9811 0.0323
vn 0.1867 0.9776 0.0973
vn 0.0000 -1.0000 0.0000
vn 0.0000 0.0000 1.0000
vn 0.0000 1.0000 -0.0000
vn -0.3498 0.9189 0.1823
vn -0.3514 0.9343 0.0595
vn -0.3189 0.9463 -0.0540
vn -0.2671 0.9536 -0.1392
vn -0.1908 0.9659 -0.1752
vn -0.1445 0.9683 -0.2038
vn -0.1033 0.9708 -0.2163
vn -0.0697 0.9720 -0.2242
vn -0.0414 0.9713 -0.2343
vn -0.0147 0.9663 -0.2571
vn 0.0162 0.9589 -0.2832
vn 0.0503 0.9573 -0.2846
vn 0.0888 0.9543 -0.2854
vn 0.1267 0.9558 -0.2652
vn 0.2130 0.9690 -0.1249
vn 0.2531 0.9665 0.0428
vn 0.1788 0.9795 -0.0932
vn 0.1676 0.9827 -0.0785
vn 0.1727 0.9767 -0.1275
vn 0.1999 0.9797 -0.0148
usemtl Material
s off
f 21/1/1 22/2/1 20/3/1
f 23/4/2 1/5/2 21/6/2
f 24/7/3 2/8/3 23/4/3
f 4/9/4 24/7/4 26/10/4
f 5/11/5 26/10/5 28/12/5
f 6/13/6 28/12/6 30/14/6
f 7/15/7 30/14/7 32/16/7
f 8/17/8 32/16/8 34/18/8
f 9/19/9 34/18/9 36/20/9
f 38/21/10 9/19/10 36/20/10
f 40/22/11 10/23/11 38/21/11
f 42/24/12 11/25/12 40/22/12
f 25/26/13 12/27/13 42/24/13
f 27/28/14 13/29/14 25/26/14
f 14/30/15 29/31/15 15/32/15
f 15/32/16 31/33/16 16/34/16
f 17/35/17 31/33/17 33/36/17
f 17/35/18 35/37/18 18/38/18
f 18/38/19 37/39/19 19/40/19
f 37/39/20 41/41/20 19/40/20
f 18/42/21 19/43/21 41/44/21
f 39/45/22 22/2/22 41/46/22
f 33/36/23 42/24/23 38/21/23
f 21/1/24 1/47/24 22/2/24
f 23/4/25 2/8/25 1/5/25
f 24/7/26 3/48/26 2/8/26
f 4/9/27 3/48/27 24/7/27
f 5/11/28 4/9/28 26/10/28
f 6/13/29 5/11/29 28/12/29
f 7/15/30 6/13/30 30/14/30
f 8/17/31 7/15/31 32/16/31
f 9/19/32 8/17/32 34/18/32
f 38/21/33 10/23/33 9/19/33
f 40/22/34 11/25/34 10/23/34
f 42/24/35 12/27/35 11/25/35
f 25/26/36 13/29/36 12/27/36
f 27/28/37 14/30/37 13/29/37
f 14/30/38 27/28/38 29/31/38
f 15/32/39 29/31/39 31/33/39
f 17/35/40 16/34/40 31/33/40
f 17/35/41 33/36/41 35/37/41
f 18/38/42 35/37/42 37/39/42
f 37/39/43 39/49/43 41/41/43
f 41/44/21 22/50/21 10/51/21
f 22/50/21 1/52/21 2/53/21
f 9/54/21 22/50/21 8/55/21
f 2/53/21 3/56/21 22/50/21
f 3/56/21 4/57/21 22/50/21
f 4/57/21 5/58/21 22/50/21
f 5/58/21 6/59/21 22/50/21
f 6/59/21 7/60/21 22/50/21
f 7/60/21 8/55/21 22/50/21
f 9/54/21 10/51/21 22/50/21
f 10/51/21 11/61/21 41/44/21
f 11/61/21 12/62/21 41/44/21
f 12/62/21 13/63/21 41/44/21
f 41/44/21 13/63/21 14/64/21
f 14/64/21 15/65/21 41/44/21
f 41/44/21 15/65/21 16/66/21
f 16/66/21 17/67/21 41/44/21
f 41/44/21 17/67/21 18/42/21
f 39/45/22 20/3/22 22/2/22
f 20/68/23 39/49/23 34/18/23
f 39/49/23 37/39/23 35/37/23
f 39/49/23 35/37/23 38/21/23
f 34/18/23 39/49/23 36/20/23
f 23/4/23 21/6/23 24/7/23
f 21/6/23 20/68/23 26/10/23
f 26/10/23 24/7/23 21/6/23
f 30/14/23 28/12/23 20/68/23
f 28/12/23 26/10/23 20/68/23
f 32/16/23 30/14/23 20/68/23
f 35/37/23 33/36/23 38/21/23
f 33/36/23 31/33/23 25/26/23
f 31/33/23 29/31/23 25/26/23
f 29/31/23 27/28/23 25/26/23
f 42/24/23 40/22/23 38/21/23
f 25/26/23 42/24/23 33/36/23
f 36/20/23 39/49/23 38/21/23
f 34/18/23 32/16/23 20/68/23
