# Blender v3.0.0 OBJ File: 'terrain_Wooded_Hill_111.blend'
# www.blender.org
mtllib terrain_Wooded_Hill_111.mtl
o terrain_Wooded_Hill_#111.001_Cube.001
v 0.409685 -0.100416 2.584820
v -0.598613 -0.100416 2.548687
v -1.568162 -0.100416 2.441676
v -2.351773 -0.092825 2.181388
v -3.244900 -0.100416 2.034033
v -3.827178 -0.092825 1.662559
v -3.938798 -0.092825 0.888284
v 4.638736 -0.100416 -0.608161
v 4.096906 -0.100416 0.575482
v 3.389931 -0.100416 0.868323
v 2.695041 -0.100416 1.228211
v 1.881778 -0.100416 1.559517
v 1.417982 -0.100416 1.926450
v -4.247348 -0.099821 -1.745888
v 5.201472 -0.100416 -1.745888
v 2.399230 0.293285 -1.257537
v 2.194141 0.293285 -1.117931
v 2.885323 0.293285 -1.745888
v 1.479107 0.293285 -0.820519
v 1.862802 0.293285 -0.895141
v 1.062774 0.293285 -0.774567
v 0.629803 0.293285 -0.851606
v 1.918138 0.293285 -0.995564
v -0.219501 0.293285 -0.884748
v -1.404291 0.293285 -0.915435
v -1.324309 0.293285 -1.480029
v -1.338984 0.293285 -1.745888
v -0.939507 0.293285 -0.767148
v -0.571023 0.293285 -0.893300
v 0.196831 0.293285 -0.935500
v 1.417982 -0.100416 2.548687
vt 0.429193 0.382931
vt 0.524463 0.481653
vt 0.453206 0.426798
vt 0.565356 0.504094
vt 0.308635 0.778192
vt 0.595859 0.536340
vt 0.393180 0.843378
vt 0.625062 0.559395
vt 0.479325 0.900194
vt 0.646610 0.594528
vt 0.560671 0.931954
vt 0.694413 0.613892
vt 0.643237 0.980385
vt 0.776684 0.934216
vt 0.725779 0.562664
vt 0.978489 0.741308
vt 0.744811 0.542077
vt 0.178423 0.233327
vt 0.400761 0.256689
vt 0.407587 0.329166
vt 0.414924 0.354353
vt 0.143139 0.366002
vt 0.181071 0.437532
vt 0.426962 0.394820
vt 0.213522 0.513688
vt 0.009827 0.990313
vt 0.018183 0.974818
vt 0.015307 0.997283
vt 0.484031 0.458655
vt 0.257530 0.595521
vt 0.270685 0.656636
vt 0.960188 0.000000
vt 0.918565 0.692201
vt 0.918537 0.245128
vt 0.715645 0.989519
vt 0.208924 0.102965
vt 0.012315 0.995913
vt 0.011574 0.994126
vt 0.010665 0.992369
vt 0.008899 0.989140
vt 0.007235 0.986591
vt 0.007326 0.984042
vt 0.007597 0.981591
vt 0.008255 0.979610
vt 0.008627 0.977352
vt 0.011524 0.975598
vt 0.009566 0.975880
vt 0.018183 0.998705
vt 0.960188 1.000000
vn 0.0000 1.0000 0.0000
vn -0.0218 0.9934 0.1124
vn 0.0141 0.9932 0.1154
vn -0.0028 0.9932 0.1164
vn 0.0529 0.9866 0.1545
vn -0.0353 0.9932 0.1106
vn -0.1670 0.9857 -0.0237
vn -0.1339 0.9910 0.0074
vn 0.1340 0.9820 0.1333
vn 0.1451 0.9872 0.0664
vn 0.0684 0.9857 0.1542
vn 0.1551 0.9842 0.0854
vn 0.0330 0.9849 0.1697
vn -0.0001 -1.0000 -0.0001
vn 0.0177 0.9869 0.1603
vn 0.0773 0.9900 0.1184
vn 0.0000 0.0000 -1.0000
vn -0.0040 0.9938 0.1114
vn -0.0124 0.9936 0.1126
vn -0.0267 0.9936 0.1093
vn -0.0277 0.9928 0.1167
vn -0.0513 0.9936 0.1006
vn -0.1368 0.9904 0.0197
vn -0.1344 0.9908 0.0131
vn 0.1670 0.9825 0.0826
vn 0.1204 0.9768 0.1769
vn 0.0648 0.9856 0.1564
vn 0.0786 0.9853 0.1519
vn 0.0622 0.9863 0.1526
vn 0.0000 -1.0000 -0.0000
vn 0.0000 -1.0000 -0.0002
vn 0.0107 -0.9999 -0.0131
vn -0.0144 -0.9999 0.0021
vn -0.0000 -1.0000 -0.0001
vn -0.0122 -0.9999 0.0077
vn -0.0024 -1.0000 0.0029
vn -0.0001 -1.0000 -0.0000
vn 0.1030 0.9861 0.1302
vn -0.0263 0.9887 0.1476
usemtl Material.001
s off
f 23/1/1 22/2/1 19/3/1
f 30/4/2 1/5/2 22/2/2
f 24/6/3 2/7/3 30/4/3
f 29/8/4 3/9/4 24/6/4
f 28/10/5 4/11/5 29/8/5
f 25/12/6 5/13/6 28/10/6
f 7/14/7 25/12/7 26/15/7
f 14/16/8 26/15/8 27/17/8
f 8/18/9 18/19/9 16/20/9
f 8/18/10 17/21/10 9/22/10
f 10/23/11 17/21/11 23/1/11
f 20/24/12 10/23/12 23/1/12
f 19/3/13 11/25/13 20/24/13
f 12/26/14 14/27/14 8/28/14
f 21/29/15 12/30/15 19/3/15
f 13/31/16 22/2/16 1/5/16
f 15/32/17 27/33/17 18/34/17
f 17/21/1 16/20/1 23/1/1
f 16/20/1 18/19/1 23/1/1
f 18/19/1 27/17/1 30/4/1
f 27/17/1 26/15/1 29/8/1
f 18/19/1 30/4/1 22/2/1
f 26/15/1 25/12/1 28/10/1
f 29/8/1 24/6/1 27/17/1
f 24/6/1 30/4/1 27/17/1
f 26/15/1 28/10/1 29/8/1
f 19/3/1 20/24/1 23/1/1
f 23/1/1 18/19/1 22/2/1
f 22/2/1 21/29/1 19/3/1
f 30/4/18 2/7/18 1/5/18
f 24/6/19 3/9/19 2/7/19
f 29/8/20 4/11/20 3/9/20
f 28/10/21 5/13/21 4/11/21
f 25/12/22 6/35/22 5/13/22
f 7/14/23 6/35/23 25/12/23
f 14/16/24 7/14/24 26/15/24
f 8/18/25 15/36/25 18/19/25
f 8/18/26 16/20/26 17/21/26
f 10/23/27 9/22/27 17/21/27
f 20/24/28 11/25/28 10/23/28
f 19/3/29 12/30/29 11/25/29
f 8/28/30 9/37/30 10/38/30
f 10/38/30 11/39/30 8/28/30
f 11/39/30 12/26/30 8/28/30
f 12/26/14 13/40/14 14/27/14
f 13/40/30 1/41/30 2/42/30
f 2/42/31 3/43/31 14/27/31
f 4/44/32 5/45/32 7/46/32
f 5/45/33 6/47/33 7/46/33
f 14/27/34 13/40/34 2/42/34
f 3/43/35 4/44/35 14/27/35
f 7/46/36 14/27/36 4/44/36
f 14/27/37 15/48/37 8/28/37
f 21/29/38 13/31/38 12/30/38
f 13/31/39 21/29/39 22/2/39
f 15/32/17 14/49/17 27/33/17
