# Blender v3.0.0 OBJ File: 'terrain_rough_95.blend'
# www.blender.org
mtllib terrain_rough_95.mtl
o terrainRough_#95.001_terrain_Woods_#196_terrain_Woods_#196_terrain_Woods_#195_te
v 3.516765 0.019992 -1.356999
v 2.347706 0.019989 -2.140270
v -3.497481 0.019938 -2.140071
v -3.497461 0.019930 -1.356761
v -2.328444 0.019947 -2.140111
v -1.159406 0.019958 -2.140151
v 1.178668 0.019979 -2.140229
v 0.009631 0.019967 -2.140189
v -2.814490 0.019904 1.590002
v -3.047099 0.019903 1.371506
v -3.533194 0.019906 0.776481
v -3.497422 0.019913 0.209859
v -3.497443 0.019921 -0.573452
v -2.387981 0.019905 1.980737
v -1.159288 0.019909 2.559707
v 0.009750 0.019919 2.559668
v 2.255367 0.019945 2.051622
v 1.312976 0.019933 2.410430
v 2.699752 0.019952 1.714146
v 3.227568 0.019962 1.282488
v 3.475064 0.019968 0.587977
v 3.516803 0.019975 0.209620
v 3.516782 0.019982 -0.573690
v 2.347705 -0.019902 -2.140270
v 3.516763 -0.019901 -1.356998
v -3.497484 -0.019954 -2.140071
v -3.497465 -0.019963 -1.356762
v -2.328446 -0.019944 -2.140111
v -1.159409 -0.019932 -2.140151
v 1.178667 -0.019912 -2.140229
v -2.814492 -0.019987 1.590002
v -2.387982 -0.019987 1.980737
v -3.047101 -0.019988 1.371506
v -3.533195 -0.019986 0.776481
v -3.497444 -0.019971 -0.573452
v -3.497423 -0.019979 0.209859
v -1.159289 -0.019982 2.559707
v 0.009747 -0.019972 2.559668
v 1.312976 -0.019958 2.410430
v 2.255366 -0.019947 2.051622
v 2.699751 -0.019940 1.714146
v 3.227567 -0.019930 1.282488
v 3.475062 -0.019924 0.587977
v 3.516802 -0.019917 0.209620
v 3.516780 -0.019909 -0.573690
v 3.516742 -0.019892 -2.140309
v 3.516744 0.019999 -2.140309
v 0.009629 -0.019924 -2.140189
vt 0.166667 0.000000
vt 0.000000 0.000000
vt 0.000000 0.000000
vt 1.000000 0.166667
vt 1.000000 0.000000
vt 1.000000 0.000000
vt 0.000000 0.833333
vt 0.000000 0.666667
vt 0.000000 0.833333
vt 0.000000 0.166667
vt 0.000000 0.333333
vt 0.000000 0.333333
vt 0.000000 0.166667
vt 0.333333 0.000000
vt 0.166667 0.000000
vt 0.500000 0.000000
vt 0.333333 0.000000
vt 0.666667 0.000000
vt 0.500000 0.000000
vt 0.833333 0.000000
vt 0.666667 0.000000
vt 0.833333 0.000000
vt 1.000000 0.333333
vt 1.000000 0.166667
vt 1.000000 0.500000
vt 1.000000 0.333333
vt 1.000000 0.666667
vt 1.000000 0.500000
vt 1.000000 0.833333
vt 1.000000 0.666667
vt 1.000000 1.000000
vt 1.000000 0.833333
vt 0.333333 1.000000
vt 0.500000 1.000000
vt 0.333333 1.000000
vt 0.000000 0.668360
vt 0.546725 0.884097
vt 0.333322 0.999997
vt 0.020034 0.988954
vt 0.020034 0.990957
vt 0.007956 0.990957
vt 0.000000 0.500000
vt 0.000000 0.500000
vt 0.000000 0.666667
vt 0.000000 1.000000
vt 0.000000 1.000000
vt 1.000000 1.000000
vt 0.666667 1.000000
vt 0.666667 1.000000
vt 0.833333 1.000000
vt 0.833333 1.000000
vt 0.500000 1.000000
vt 0.166667 1.000000
vt 0.166667 1.000000
vt 0.222214 0.999998
vt 0.111107 0.999999
vt 0.000000 0.834180
vt 0.000000 1.000000
vt 0.000000 0.502540
vt 0.000000 0.336720
vt 0.666643 0.336714
vt 0.000000 0.170900
vt 0.222215 0.005077
vt 0.529089 0.101939
vt 0.333322 0.005077
vt 0.584515 0.162435
vt 0.000000 0.005080
vt 0.111108 0.005079
vt 0.645481 0.687389
vt 0.386989 0.994075
vt 0.485499 0.958966
vt 0.594591 0.821062
vt 0.666643 0.502534
vt 0.413694 0.000000
vt 0.498096 0.068946
vt 0.007956 0.988954
vt 0.009444 0.986849
vt 0.010449 0.986119
vt 0.011010 0.985720
vt 0.013995 0.984949
vt 0.012539 0.984887
vt 0.009262 0.994804
vt 0.008340 0.993189
vt 0.020034 0.992960
vt 0.011238 0.996469
vt 0.010129 0.995565
vt 0.013023 0.996894
vt 0.013995 0.996965
vt 0.020034 0.996965
vt 0.018021 0.996965
vt 0.020034 0.994962
vt 0.016008 0.996965
vt 0.016008 0.984949
vt 0.018021 0.984949
vt 0.020034 0.986951
vt 0.020034 0.984949
vn -0.6755 0.0000 0.7374
vn -0.6801 0.0000 0.7331
vn 0.6331 -0.0000 0.7741
vn -0.9999 0.0001 0.0123
vn -0.9999 0.0000 0.0123
vn -0.7744 0.0000 0.6327
vn -0.6846 0.0000 0.7289
vn -0.4263 0.0000 0.9046
vn 0.0000 -0.0000 1.0000
vn 0.1138 -0.0000 0.9935
vn 0.3558 -0.0000 0.9346
vn 0.6048 -0.0000 0.7964
vn 0.9420 -0.0000 0.3357
vn 0.9940 -0.0000 0.1097
vn 1.0000 -0.0001 -0.0000
vn 1.0000 -0.0000 -0.0000
vn -0.0000 0.0000 -1.0000
vn -0.0000 1.0000 0.0000
vn 0.0000 -1.0000 -0.0000
vn -0.9966 -0.0000 -0.0825
vn -0.9936 0.0000 -0.1128
vn -0.9998 -0.0000 -0.0192
vn -0.9999 0.0001 0.0122
usemtl None.011
s 1
f 32/1/1 9/2/2 31/3/2
f 42/4/3 19/5/3 41/6/3
f 27/7/4 35/8/5 4/9/4
f 33/10/6 11/11/6 34/12/6
f 31/3/2 10/13/7 33/10/7
f 37/14/8 14/15/8 32/1/8
f 38/16/9 15/17/9 37/14/9
f 39/18/10 16/19/10 38/16/10
f 40/20/11 18/21/11 39/18/11
f 41/6/12 17/22/12 40/20/12
f 43/23/13 20/24/13 42/4/13
f 44/25/14 21/26/14 43/23/14
f 45/27/15 22/28/16 44/25/16
f 25/29/16 23/30/15 45/27/15
f 46/31/16 1/32/16 25/29/16
f 6/33/17 8/34/17 29/35/17
f 7/36/18 19/37/18 22/38/18
f 29/39/19 48/40/19 38/41/19
f 32/1/1 14/15/1 9/2/2
f 42/4/3 20/24/3 19/5/3
f 36/42/20 34/12/21 11/11/21
f 11/11/21 12/43/22 36/42/20
f 12/43/22 13/44/5 35/8/5
f 4/9/4 3/45/23 26/46/23
f 12/43/22 35/8/5 36/42/20
f 13/44/5 4/9/4 35/8/5
f 26/46/23 27/7/4 4/9/4
f 33/10/6 10/13/6 11/11/6
f 31/3/2 9/2/2 10/13/7
f 37/14/8 15/17/8 14/15/8
f 38/16/9 16/19/9 15/17/9
f 39/18/10 18/21/10 16/19/10
f 40/20/11 17/22/11 18/21/11
f 41/6/12 19/5/12 17/22/12
f 43/23/13 21/26/13 20/24/13
f 44/25/14 22/28/14 21/26/14
f 45/27/15 23/30/15 22/28/16
f 25/29/16 1/32/16 23/30/15
f 46/31/16 47/47/16 1/32/16
f 8/34/17 7/48/17 30/49/17
f 7/48/17 2/50/17 30/49/17
f 2/50/17 47/47/17 46/31/17
f 46/31/17 24/51/17 2/50/17
f 24/51/17 30/49/17 2/50/17
f 30/49/17 48/52/17 8/34/17
f 48/52/17 29/35/17 8/34/17
f 29/35/17 28/53/17 5/54/17
f 28/53/17 26/46/17 5/54/17
f 26/46/17 3/45/17 5/54/17
f 5/54/17 6/33/17 29/35/17
f 23/55/18 1/56/18 2/57/18
f 1/56/18 47/58/18 2/57/18
f 2/57/18 7/36/18 23/55/18
f 8/59/18 6/60/18 15/61/18
f 6/60/18 5/62/18 13/63/18
f 9/64/18 6/60/18 12/65/18
f 6/60/18 9/64/18 14/66/18
f 5/62/18 3/67/18 4/68/18
f 23/55/18 7/36/18 22/38/18
f 7/36/18 8/59/18 18/69/18
f 22/38/18 19/37/18 21/70/18
f 19/37/18 20/71/18 21/70/18
f 18/69/18 17/72/18 7/36/18
f 17/72/18 19/37/18 7/36/18
f 15/61/18 16/73/18 8/59/18
f 16/73/18 18/69/18 8/59/18
f 14/66/18 15/61/18 6/60/18
f 11/74/18 10/75/18 12/65/18
f 10/75/18 9/64/18 12/65/18
f 4/68/18 13/63/18 5/62/18
f 13/63/18 12/65/18 6/60/18
f 37/76/19 32/77/19 29/39/19
f 32/77/19 31/78/19 29/39/19
f 31/78/19 33/79/19 36/80/19
f 33/79/19 34/81/19 36/80/19
f 38/41/19 37/76/19 29/39/19
f 40/82/19 39/83/19 30/84/19
f 39/83/19 38/41/19 48/40/19
f 30/84/19 39/83/19 48/40/19
f 42/85/19 41/86/19 43/87/19
f 41/86/19 40/82/19 30/84/19
f 44/88/19 43/87/19 41/86/19
f 46/89/19 25/90/19 24/91/19
f 25/90/19 45/92/19 24/91/19
f 45/92/19 44/88/19 30/84/19
f 30/84/19 44/88/19 41/86/19
f 31/78/19 36/80/19 29/39/19
f 35/93/19 27/94/19 28/95/19
f 27/94/19 26/96/19 28/95/19
f 36/80/19 35/93/19 29/39/19
f 30/84/19 24/91/19 45/92/19
f 29/39/19 35/93/19 28/95/19
