# Blender v3.0.0 OBJ File: 'terrain_gentle_hill_147.blend'
# www.blender.org
mtllib terrain_gentle_hill_147.mtl
o terrain_Gentle_Hill_#147.001_Cube.001
v -0.207628 -0.395259 1.890586
v -1.109060 -0.395259 1.865556
v -1.284277 -0.395259 0.997818
v -1.984835 -0.380077 0.817510
v -2.783303 -0.395259 0.715433
v -3.303868 -0.380077 0.458102
v -3.403657 -0.380077 -0.078259
v 3.981876 -0.395259 -0.364747
v 3.554888 -0.395259 -0.139532
v 2.980259 -0.395259 0.057871
v 2.370769 -0.395259 0.514645
v 1.560593 -0.395259 1.791426
v 0.693803 -0.395259 1.865556
v -4.371077 -0.394068 -1.109414
v 4.628922 -0.395259 -1.109414
v 1.618176 0.392143 -0.779896
v 1.480173 0.392143 -0.547139
v 2.005625 0.392143 -1.109414
v 0.589728 0.392143 -0.341114
v 0.932756 0.392143 -0.392806
v 0.376242 0.392143 -0.065531
v -0.118544 0.392143 -0.326877
v 1.233422 0.392143 -0.462373
v -0.877833 0.392143 -0.369457
v -1.764803 0.392143 -0.587982
v -1.808130 0.392143 -0.820862
v -1.770962 0.392143 -1.109414
v -1.521528 0.392143 -0.490715
v -1.192099 0.392143 -0.431933
v -0.505627 0.392143 -0.337625
vt 0.385886 0.524057
vt 0.388106 0.445408
vt 0.456510 0.331627
vt 0.387562 0.567059
vt 0.000000 0.534140
vt 0.139179 0.654617
vt 0.392524 0.608429
vt 0.402264 0.643396
vt 0.411428 0.680043
vt 0.168064 0.732559
vt 0.426591 0.707160
vt 0.183202 0.821390
vt 0.307711 0.891042
vt 0.462896 0.712207
vt 0.507881 0.708370
vt 0.351599 0.071112
vt 0.507881 0.288928
vt 0.316488 0.118308
vt 0.420224 0.346719
vt 0.285714 0.181930
vt 0.407009 0.374039
vt 0.214505 0.249161
vt 0.396164 0.407362
vt 0.018013 0.984961
vt 0.017928 0.982887
vt 0.020960 0.980410
vt 0.345143 0.468840
vt 0.015459 0.337854
vt 0.435246 0.101369
vt 0.017637 0.409662
vt 0.182719 0.108863
vt 0.003902 0.634282
vt 0.224094 0.879418
vt 0.467750 0.999571
vt 0.467690 0.000000
vt 0.028118 0.994015
vt 0.025589 0.992526
vt 0.024824 0.991544
vt 0.024153 0.990222
vt 0.024615 0.975533
vt 0.028118 0.973307
vt 0.021919 0.976960
vt 0.022793 0.975763
vt 0.021573 0.978798
vt 0.022601 0.988819
vt 0.018264 0.986955
vt 0.018013 0.980813
vt 0.003902 0.434049
vt 0.619447 0.392250
vn 0.0000 1.0000 -0.0000
vn -0.0093 0.9424 0.3343
vn -0.0418 0.8711 0.4892
vn -0.0945 0.8746 0.4756
vn -0.0863 0.8710 0.4836
vn -0.1649 0.8960 0.4124
vn -0.4057 0.9109 0.0755
vn -0.4570 0.8875 -0.0589
vn 0.2540 0.9199 0.2987
vn 0.3161 0.9300 0.1874
vn 0.1938 0.8026 0.5641
vn 0.1231 0.8378 0.5319
vn 0.0861 0.8160 0.5716
vn 0.0000 -1.0000 -0.0000
vn 0.2807 0.9349 0.2174
vn -0.1709 0.9306 0.3236
vn 0.0000 0.0000 -1.0000
vn -0.5962 0.7938 0.1204
vn -0.1032 0.8741 0.4747
vn -0.0787 0.8704 0.4859
vn -0.1744 0.8972 0.4057
vn -0.2802 0.9267 0.2503
vn 0.2789 0.9292 0.2424
vn 0.2203 0.8815 0.4177
vn 0.2841 0.8807 0.3791
vn 0.3144 0.9281 0.1995
vn -0.0027 -0.9999 0.0161
vn -0.0001 -1.0000 -0.0002
vn -0.0321 -0.9995 0.0060
vn 0.0238 -0.9990 -0.0377
vn -0.0022 -0.9999 -0.0098
vn -0.0365 -0.9977 0.0578
vn 0.0319 0.9273 0.3729
vn 0.0104 0.9265 0.3761
usemtl Material.001
s off
f 22/1/1 19/2/1 16/3/1
f 30/4/2 1/5/2 22/1/2
f 3/6/3 30/4/3 24/7/3
f 29/8/4 3/6/4 24/7/4
f 28/9/5 4/10/5 29/8/5
f 25/11/6 5/12/6 28/9/6
f 7/13/7 25/11/7 26/14/7
f 27/15/8 7/13/8 26/14/8
f 8/16/9 18/17/9 16/3/9
f 9/18/10 16/3/10 17/19/10
f 10/20/11 17/19/11 23/21/11
f 11/22/12 23/21/12 20/23/12
f 19/2/13 11/22/13 20/23/13
f 13/24/14 1/25/14 3/26/14
f 21/27/15 12/28/15 19/2/15
f 1/5/16 21/27/16 22/1/16
f 18/29/17 14/30/17 27/31/17
f 16/3/1 18/17/1 22/1/1
f 18/17/1 27/15/1 22/1/1
f 27/15/1 26/14/1 28/9/1
f 26/14/1 25/11/1 28/9/1
f 28/9/1 29/8/1 27/15/1
f 29/8/1 24/7/1 27/15/1
f 24/7/1 30/4/1 27/15/1
f 22/1/1 21/27/1 19/2/1
f 30/4/1 22/1/1 27/15/1
f 17/19/1 16/3/1 23/21/1
f 20/23/1 16/3/1 19/2/1
f 20/23/1 23/21/1 16/3/1
f 30/4/2 2/32/2 1/5/2
f 3/6/18 2/32/18 30/4/18
f 29/8/19 4/10/19 3/6/19
f 28/9/20 5/12/20 4/10/20
f 25/11/21 6/33/21 5/12/21
f 7/13/7 6/33/7 25/11/7
f 27/15/22 14/34/22 7/13/22
f 8/16/23 15/35/23 18/17/23
f 9/18/24 8/16/24 16/3/24
f 10/20/11 9/18/11 17/19/11
f 11/22/25 10/20/25 23/21/25
f 19/2/26 12/28/26 11/22/26
f 15/36/14 8/37/14 9/38/14
f 15/36/14 9/38/14 10/39/14
f 7/40/27 14/41/27 10/39/27
f 14/41/28 15/36/28 10/39/28
f 5/42/29 6/43/29 7/40/29
f 4/44/30 5/42/30 7/40/30
f 11/45/14 12/46/14 13/24/14
f 7/40/31 10/39/31 3/26/31
f 10/39/14 11/45/14 3/26/14
f 3/26/32 4/44/32 7/40/32
f 1/25/14 2/47/14 3/26/14
f 11/45/14 13/24/14 3/26/14
f 21/27/33 13/48/33 12/28/33
f 1/5/34 13/48/34 21/27/34
f 18/29/17 15/49/17 14/30/17
