# Blender v3.0.0 OBJ File: 'terrain_woods_183.blend'
# www.blender.org
mtllib terrain_woods_183.mtl
o terrain_Woods_#183.001_terrain_Woods_#183_terrain_Woods_#183_terrain_Woods_#183_te
v 3.521091 0.019995 -0.886819
v 2.353317 0.019997 -1.330180
v -3.485448 0.019964 -1.330059
v -3.485430 0.019953 -0.886673
v -2.317694 0.019970 -1.330083
v -1.149941 0.019977 -1.330108
v 1.185565 0.019992 -1.330155
v 0.017812 0.019983 -1.330131
v -2.803213 0.019916 0.781313
v -3.035567 0.019917 0.657636
v -3.521126 0.019922 0.320828
v -3.485392 0.019931 0.000097
v -3.485412 0.019942 -0.443289
v -2.377174 0.019915 1.002485
v -1.149831 0.019912 1.330203
v 0.017922 0.019919 1.330179
v 2.261073 0.019939 1.042601
v 1.319717 0.019928 1.245702
v 2.704971 0.019946 0.851575
v 3.232208 0.019957 0.607238
v 3.479432 0.019965 0.214117
v 3.521127 0.019973 -0.000049
v 3.521107 0.019983 -0.443435
v 2.353316 -0.019920 -1.330179
v 3.521088 -0.019923 -0.886818
v -3.485450 -0.019954 -1.330058
v -3.485433 -0.019965 -0.886673
v -2.317696 -0.019947 -1.330082
v -1.149944 -0.019939 -1.330107
v 1.185563 -0.019925 -1.330154
v -2.803214 -0.020000 0.781314
v -2.377175 -0.020002 1.002486
v -3.035568 -0.020000 0.657637
v -3.521127 -0.019995 0.320829
v -3.485412 -0.019975 -0.443288
v -3.485393 -0.019986 0.000098
v -1.149833 -0.020005 1.330204
v 0.017920 -0.019998 1.330180
v 1.319716 -0.019987 1.245703
v 2.261072 -0.019978 1.042602
v 2.704968 -0.019971 0.851576
v 3.232207 -0.019960 0.607239
v 3.479431 -0.019952 0.214118
v 3.521126 -0.019944 -0.000048
v 3.521105 -0.019933 -0.443434
v 3.521069 -0.019912 -1.330203
v 3.521071 0.020005 -1.330204
v 0.017810 -0.019934 -1.330130
vt 0.186947 0.421050
vt 0.029259 0.301592
vt 0.089776 0.152986
vt 0.500000 0.000000
vt 0.333333 0.000000
vt 0.333333 0.000000
vt 0.833333 1.000000
vt 1.000000 0.666667
vt 1.000000 0.000000
vt 0.000000 0.166667
vt 0.000000 0.333333
vt 0.000000 0.166667
vt 1.000000 0.833333
vt 1.000000 0.666667
vt 0.166667 1.000000
vt 0.333333 1.000000
vt 0.166667 1.000000
vt 0.000000 1.000000
vt 0.000000 1.000000
vt 0.000000 0.833333
vt 0.000000 0.833333
vt 0.000000 0.666667
vt 0.000000 0.666667
vt 0.000000 0.500000
vt 0.000000 0.500000
vt 0.000000 0.333333
vt 0.000000 0.000000
vt 0.000000 0.000000
vt 0.166667 0.000000
vt 0.666667 0.000000
vt 0.500000 0.000000
vt 0.833333 0.000000
vt 0.666667 0.000000
vt 0.833333 0.000000
vt 1.000000 0.166667
vt 1.000000 0.000000
vt 1.000000 0.333333
vt 1.000000 0.166667
vt 1.000000 0.500000
vt 1.000000 0.333333
vt 1.000000 0.500000
vt 1.000000 1.000000
vt 1.000000 0.833333
vt 0.833333 1.000000
vt 0.666667 1.000000
vt 0.666667 1.000000
vt 0.500000 1.000000
vt 0.500000 1.000000
vt 0.333333 1.000000
vt 0.024319 0.198505
vt 0.029191 0.241771
vt 0.121105 0.136262
vt 0.178550 0.106354
vt 0.344088 0.061943
vt 0.344498 0.420868
vt 0.501639 0.061760
vt 0.502049 0.420684
vt 0.677288 0.072950
vt 0.659600 0.420501
vt 0.804327 0.100202
vt 0.864247 0.125904
vt 0.817150 0.420318
vt 0.935420 0.158785
vt 0.968837 0.211785
vt 0.974497 0.240673
vt 0.974565 0.300494
vt 0.974634 0.360314
vt 0.974702 0.420135
vt 0.029396 0.421233
vt 0.029327 0.361413
vt 0.166667 0.000000
vt 1.000000 1.000000
vn -0.0000 1.0000 0.0000
vn 0.0000 0.0000 1.0000
vn 0.0000 -1.0000 -0.0000
vn -0.5700 0.0000 0.8217
vn 1.0000 -0.0001 -0.0000
vn -0.0000 -0.0000 -1.0000
vn -1.0000 0.0001 0.0000
vn -1.0000 -0.0000 0.0000
vn -0.9939 0.0000 -0.1107
vn -0.5339 0.0000 0.8456
vn -0.5339 0.0001 0.8456
vn -0.3062 0.0000 0.9520
vn 0.0648 0.0000 0.9979
vn 0.2109 0.0000 0.9775
vn 0.3953 -0.0000 0.9186
vn 0.4205 0.0000 0.9073
vn 0.8465 -0.0000 0.5324
vn 0.9816 -0.0000 0.1911
vn 1.0000 -0.0000 -0.0000
vn -0.4699 0.0000 0.8827
vn -0.1989 0.0000 0.9800
vn -0.5017 0.0000 0.8650
usemtl None.016
s 1
f 5/1/1 13/2/1 10/3/1
f 38/4/2 15/5/2 37/6/2
f 24/7/3 45/8/3 41/9/3
f 10/10/4 34/11/4 33/12/4
f 25/13/5 23/14/5 45/8/5
f 5/15/6 29/16/6 28/17/6
f 3/18/6 28/17/6 26/19/6
f 4/20/7 26/19/7 27/21/7
f 13/22/8 27/21/7 35/23/8
f 12/24/8 35/23/8 36/25/8
f 11/26/9 36/25/9 34/11/9
f 9/27/10 31/28/11 32/29/12
f 39/30/13 16/31/13 38/4/13
f 40/32/14 18/33/14 39/30/14
f 41/9/15 17/34/15 40/32/15
f 42/35/16 19/36/16 41/9/16
f 43/37/17 20/38/17 42/35/17
f 44/39/18 21/40/18 43/37/18
f 45/8/5 22/41/19 44/39/19
f 46/42/5 1/43/5 25/13/5
f 2/44/6 46/42/6 24/7/6
f 7/45/6 24/7/6 30/46/6
f 8/47/6 30/46/6 48/48/6
f 6/49/6 48/48/6 29/16/6
f 31/28/11 10/10/20 33/12/20
f 11/50/1 10/3/1 12/51/1
f 10/3/1 9/52/1 5/1/1
f 12/51/1 10/3/1 13/2/1
f 9/52/1 14/53/1 5/1/1
f 14/53/1 15/54/1 6/55/1
f 5/1/1 14/53/1 6/55/1
f 15/54/1 16/56/1 8/57/1
f 16/56/1 18/58/1 8/57/1
f 8/57/1 18/58/1 7/59/1
f 18/58/1 17/60/1 7/59/1
f 17/60/1 19/61/1 2/62/1
f 7/59/1 17/60/1 2/62/1
f 19/61/1 20/63/1 21/64/1
f 21/64/1 22/65/1 19/61/1
f 22/65/1 23/66/1 19/61/1
f 23/66/1 1/67/1 2/62/1
f 1/67/1 47/68/1 2/62/1
f 23/66/1 2/62/1 19/61/1
f 8/57/1 6/55/1 15/54/1
f 5/1/1 3/69/1 4/70/1
f 4/70/1 13/2/1 5/1/1
f 38/4/2 16/31/2 15/5/2
f 35/23/3 27/21/3 28/17/3
f 27/21/3 26/19/3 28/17/3
f 28/17/3 29/16/3 32/29/3
f 29/16/3 48/48/3 37/6/3
f 33/12/3 34/11/3 36/25/3
f 36/25/3 35/23/3 33/12/3
f 35/23/3 28/17/3 33/12/3
f 33/12/3 28/17/3 31/28/3
f 29/16/3 37/6/3 32/29/3
f 32/29/3 31/28/3 28/17/3
f 39/30/3 38/4/3 48/48/3
f 38/4/3 37/6/3 48/48/3
f 39/30/3 48/48/3 30/46/3
f 41/9/3 40/32/3 24/7/3
f 40/32/3 39/30/3 30/46/3
f 43/37/3 42/35/3 41/9/3
f 45/8/3 44/39/3 41/9/3
f 44/39/3 43/37/3 41/9/3
f 46/42/3 25/13/3 24/7/3
f 25/13/3 45/8/3 24/7/3
f 30/46/3 24/7/3 40/32/3
f 10/10/4 11/26/4 34/11/4
f 25/13/5 1/43/5 23/14/5
f 5/15/6 6/49/6 29/16/6
f 3/18/6 5/15/6 28/17/6
f 4/20/7 3/18/7 26/19/7
f 13/22/8 4/20/7 27/21/7
f 12/24/8 13/22/8 35/23/8
f 11/26/9 12/24/9 36/25/9
f 32/29/12 37/6/21 14/71/22
f 37/6/21 15/5/21 14/71/22
f 14/71/22 9/27/10 32/29/12
f 39/30/13 18/33/13 16/31/13
f 40/32/14 17/34/14 18/33/14
f 41/9/15 19/36/15 17/34/15
f 42/35/16 20/38/16 19/36/16
f 43/37/17 21/40/17 20/38/17
f 44/39/18 22/41/18 21/40/18
f 45/8/5 23/14/5 22/41/19
f 46/42/5 47/72/5 1/43/5
f 2/44/6 47/72/6 46/42/6
f 7/45/6 2/44/6 24/7/6
f 8/47/6 7/45/6 30/46/6
f 6/49/6 8/47/6 48/48/6
f 31/28/11 9/27/10 10/10/20
