# Blender v3.0.0 OBJ File: 'terrain_gentle_hill_138.blend'
# www.blender.org
mtllib terrain_gentle_hill_138.mtl
o terrain_Gentle_Hill_#138.001_Cube.001
v -0.173040 -0.106556 1.433512
v -0.803963 -0.106556 1.412489
v -1.410640 -0.106556 1.350227
v -1.900970 -0.098965 1.198788
v -2.459828 -0.106556 1.113054
v -2.824177 -0.098965 0.896923
v -2.894021 -0.098965 0.446436
v 2.814792 -0.106556 0.758099
v 2.515938 -0.106556 0.947256
v 2.113748 -0.106556 1.113054
v 1.623678 -0.106556 1.249121
v 1.064561 -0.106556 1.350227
v 0.457883 -0.106556 1.412489
v -3.087090 -0.105961 -1.086173
v 3.212122 -0.106556 -1.086173
v 1.247695 0.287145 -0.490422
v 1.119365 0.287145 -0.409196
v 1.376044 0.287145 -1.086173
v 0.496131 0.287145 -0.236157
v 0.736221 0.287145 -0.279573
v 0.235619 0.287145 -0.209421
v -0.035305 0.287145 -0.200394
v 0.946661 0.287145 -0.338001
v -0.566741 0.287145 -0.236157
v -1.187542 0.287145 -0.419695
v -1.217868 0.287145 -0.615289
v -1.267237 0.287145 -1.086173
v -1.017271 0.287145 -0.338001
v -0.786700 0.287145 -0.288630
v -0.306229 0.287145 -0.209421
vt 0.266145 0.514954
vt 0.267559 0.471947
vt 0.404829 0.710673
vt 0.267559 0.557963
vt 0.000000 0.536943
vt 0.271745 0.599324
vt 0.003291 0.637104
vt 0.279960 0.634250
vt 0.013039 0.733423
vt 0.287690 0.670861
vt 0.036949 0.811279
vt 0.300480 0.697906
vt 0.050173 0.900019
vt 0.154742 0.969054
vt 0.331104 0.702754
vt 0.394514 0.999977
vt 0.394498 0.000000
vt 0.311554 0.311332
vt 0.105747 0.062753
vt 0.076131 0.110162
vt 0.298837 0.331690
vt 0.050173 0.173980
vt 0.287690 0.359094
vt 0.028869 0.251753
vt 0.278542 0.392490
vt 0.013039 0.340493
vt 0.271745 0.430596
vt 0.020780 0.972818
vt 0.020780 0.992025
vt 0.013161 0.983627
vt 0.003291 0.436790
vt 0.804829 0.291483
vt 0.867301 1.000000
vt 0.804868 0.711104
vt 0.404829 0.291061
vt 0.084211 0.957888
vt 0.015156 0.990814
vt 0.014579 0.989903
vt 0.014074 0.988676
vt 0.013659 0.987182
vt 0.013350 0.985477
vt 0.013096 0.981703
vt 0.013161 0.979779
vt 0.013350 0.977930
vt 0.013812 0.976434
vt 0.014074 0.974730
vt 0.016106 0.973406
vt 0.014733 0.973619
vt 0.867301 0.000000
vn 0.0000 1.0000 0.0000
vn -0.0078 0.9723 0.2336
vn -0.0235 0.9731 0.2290
vn -0.0512 0.9753 0.2148
vn -0.0467 0.9748 0.2181
vn -0.0864 0.9799 0.1800
vn -0.2052 0.9782 0.0318
vn -0.2111 0.9772 0.0221
vn 0.2094 0.9768 0.0451
vn 0.1089 0.9791 0.1720
vn 0.0820 0.9766 0.1990
vn 0.0600 0.9745 0.2161
vn 0.0410 0.9731 0.2268
vn -0.0001 -1.0000 -0.0001
vn 0.0239 0.9722 0.2327
vn 0.0078 0.9720 0.2349
vn 0.0000 0.0000 -1.0000
vn 0.0000 -1.0000 0.0000
vn -0.0000 -1.0000 -0.0002
vn 0.0000 -1.0000 -0.0003
vn -0.0196 -0.9997 0.0132
vn 0.0170 -0.9996 -0.0225
vn -0.0229 -0.9997 0.0036
vn -0.0038 -1.0000 0.0050
usemtl Material.001
s off
f 22/1/1 21/2/1 27/3/1
f 30/4/2 1/5/2 22/1/2
f 24/6/3 2/7/3 30/4/3
f 29/8/4 3/9/4 24/6/4
f 28/10/5 4/11/5 29/8/5
f 25/12/6 5/13/6 28/10/6
f 7/14/7 25/12/7 26/15/7
f 14/16/8 26/15/8 27/3/8
f 15/17/9 16/18/9 8/19/9
f 9/20/10 16/18/10 17/21/10
f 10/22/11 17/21/11 23/23/11
f 11/24/12 23/23/12 20/25/12
f 12/26/13 20/25/13 19/27/13
f 14/28/14 15/29/14 13/30/14
f 13/31/15 19/27/15 21/2/15
f 13/31/16 22/1/16 1/5/16
f 18/32/17 14/33/17 27/34/17
f 17/21/1 16/18/1 18/35/1
f 18/35/1 27/3/1 21/2/1
f 27/3/1 26/15/1 29/8/1
f 30/4/1 27/3/1 24/6/1
f 26/15/1 25/12/1 28/10/1
f 29/8/1 24/6/1 27/3/1
f 26/15/1 28/10/1 29/8/1
f 17/21/1 18/35/1 23/23/1
f 27/3/1 30/4/1 22/1/1
f 20/25/1 18/35/1 19/27/1
f 20/25/1 23/23/1 18/35/1
f 21/2/1 19/27/1 18/35/1
f 30/4/2 2/7/2 1/5/2
f 24/6/3 3/9/3 2/7/3
f 29/8/4 4/11/4 3/9/4
f 28/10/5 5/13/5 4/11/5
f 25/12/6 6/36/6 5/13/6
f 7/14/7 6/36/7 25/12/7
f 14/16/8 7/14/8 26/15/8
f 15/17/9 18/35/9 16/18/9
f 9/20/10 8/19/10 16/18/10
f 10/22/11 9/20/11 17/21/11
f 11/24/12 10/22/12 23/23/12
f 12/26/13 11/24/13 20/25/13
f 15/29/18 8/37/18 9/38/18
f 9/38/18 10/39/18 15/29/18
f 10/39/18 11/40/18 15/29/18
f 11/40/18 12/41/18 15/29/18
f 12/41/18 13/30/18 15/29/18
f 13/30/19 1/42/19 14/28/19
f 1/42/19 2/43/19 14/28/19
f 2/43/20 3/44/20 14/28/20
f 3/44/21 4/45/21 14/28/21
f 4/45/22 5/46/22 7/47/22
f 5/46/23 6/48/23 7/47/23
f 7/47/24 14/28/24 4/45/24
f 13/31/15 12/26/15 19/27/15
f 13/31/16 21/2/16 22/1/16
f 18/32/17 15/49/17 14/33/17
