# Blender v2.82 (sub 7) OBJ File: ''
# www.blender.org
mtllib terrain_3x3-5_uvw.mtl
v 2.755000 0.000000 0.000000
v 2.682200 0.000000 -0.540800
v 2.682200 0.040000 -0.540800
v 2.755000 0.040000 0.000000
v 2.474700 0.000000 -1.037400
v 2.474700 0.040000 -1.037400
v 2.149300 0.000000 -1.475600
v 2.149300 0.040000 -1.475600
v 1.722500 0.000000 -1.841200
v 1.722500 0.040000 -1.841200
v 1.211000 0.000000 -2.119900
v 1.211000 0.040000 -2.119900
v 0.631300 0.000000 -2.297600
v 0.631300 0.040000 -2.297600
v 0.000000 0.000000 -2.360000
v 0.000000 0.040000 -2.360000
v -0.631300 0.000000 -2.297600
v -0.631300 0.040000 -2.297600
v -1.211000 0.000000 -2.119900
v -1.211000 0.040000 -2.119900
v -1.722500 0.000000 -1.841200
v -1.722500 0.040000 -1.841200
v -2.149300 0.000000 -1.475600
v -2.149300 0.040000 -1.475600
v -2.474700 0.000000 -1.037400
v -2.474700 0.040000 -1.037400
v -2.682200 0.000000 -0.540800
v -2.682200 0.040000 -0.540800
v -2.755000 0.000000 0.000000
v -2.755000 0.040000 0.000000
v -2.682200 -0.000000 0.540800
v -2.682200 0.040000 0.540800
v -2.474700 -0.000000 1.037400
v -2.474700 0.040000 1.037400
v -2.149300 -0.000000 1.475600
v -2.149300 0.040000 1.475600
v -1.722500 -0.000000 1.841200
v -1.722500 0.040000 1.841200
v -1.211000 -0.000000 2.119900
v -1.211000 0.040000 2.119900
v -0.631300 -0.000000 2.297600
v -0.631300 0.040000 2.297600
v 0.000000 -0.000000 2.360000
v 0.000000 0.040000 2.360000
v 0.631300 -0.000000 2.297600
v 0.631300 0.040000 2.297600
v 1.211000 -0.000000 2.119900
v 1.211000 0.040000 2.119900
v 1.722500 -0.000000 1.841200
v 1.722500 0.040000 1.841200
v 2.149300 -0.000000 1.475600
v 2.149300 0.040000 1.475600
v 2.474700 -0.000000 1.037400
v 2.474700 0.040000 1.037400
v 2.682200 -0.000000 0.540800
v 2.682200 0.040000 0.540800
vt 0.885940 0.948198
vt 0.911823 0.941947
vt 0.912554 0.943849
vt 0.886127 0.950220
vt 0.934927 0.929090
vt 0.936128 0.930751
vt 0.954652 0.910571
vt 0.956210 0.911913
vt 0.970412 0.887383
vt 0.972226 0.888364
vt 0.981426 0.860351
vt 0.983402 0.860947
vt 0.987256 0.830446
vt 0.989311 0.830651
vt 0.987255 0.798542
vt 0.989311 0.798351
vt 0.981177 0.767245
vt 0.983155 0.766663
vt 0.969723 0.739084
vt 0.971545 0.738127
vt 0.953580 0.714848
vt 0.955168 0.713548
vt 0.933694 0.695205
vt 0.934964 0.693604
vt 0.910769 0.681023
vt 0.911632 0.679180
vt 0.885685 0.672934
vt 0.886052 0.670938
vt 0.859104 0.671881
vt 0.858915 0.669858
vt 0.833198 0.678149
vt 0.832467 0.676244
vt 0.810052 0.690977
vt 0.808852 0.689315
vt 0.790316 0.709498
vt 0.788758 0.708156
vt 0.774552 0.732687
vt 0.772739 0.731707
vt 0.763537 0.759720
vt 0.761561 0.759124
vt 0.757707 0.789625
vt 0.755652 0.789420
vt 0.757708 0.821529
vt 0.755652 0.821720
vt 0.763786 0.852827
vt 0.761808 0.853408
vt 0.775241 0.880988
vt 0.773419 0.881945
vt 0.791385 0.905224
vt 0.789798 0.906524
vt 0.811278 0.924868
vt 0.810007 0.926471
vt 0.834218 0.939048
vt 0.833357 0.940894
vt 0.859356 0.947091
vt 0.858990 0.949089
vt 0.440265 0.086713
vt 0.519306 0.074737
vt 0.598701 0.084090
vt 0.671947 0.113281
vt 0.368025 0.118312
vt 0.736925 0.159883
vt 0.304625 0.167040
vt 0.252106 0.230445
vt 0.791514 0.221516
vt 0.833579 0.295766
vt 0.212522 0.306047
vt 0.187898 0.391394
vt 0.861015 0.380251
vt 0.180288 0.484020
vt 0.871686 0.472574
vt 0.190960 0.576343
vt 0.864077 0.565200
vt 0.218395 0.660828
vt 0.839453 0.650547
vt 0.799868 0.726149
vt 0.260460 0.735078
vt 0.315049 0.796711
vt 0.747349 0.789554
vt 0.683949 0.838283
vt 0.380027 0.843314
vt 0.453274 0.872505
vt 0.532668 0.881857
vt 0.611709 0.869882
vn 0.9911 0.0000 -0.1334
vn 0.9227 0.0000 -0.3855
vn 0.8028 0.0000 -0.5962
vn 0.6506 0.0000 -0.7595
vn 0.4785 0.0000 -0.8781
vn 0.2931 0.0000 -0.9561
vn 0.0984 0.0000 -0.9952
vn -0.0984 0.0000 -0.9952
vn -0.2931 0.0000 -0.9561
vn -0.4785 0.0000 -0.8781
vn -0.6506 0.0000 -0.7595
vn -0.8028 0.0000 -0.5962
vn -0.9227 0.0000 -0.3855
vn -0.9911 0.0000 -0.1334
vn -0.9911 0.0000 0.1334
vn -0.9227 0.0000 0.3855
vn -0.8028 0.0000 0.5962
vn -0.6506 0.0000 0.7595
vn -0.4785 0.0000 0.8781
vn -0.2931 0.0000 0.9561
vn -0.0984 0.0000 0.9952
vn 0.0984 0.0000 0.9952
vn 0.2931 0.0000 0.9561
vn 0.4785 0.0000 0.8781
vn 0.6506 0.0000 0.7595
vn 0.8028 0.0000 0.5962
vn 0.9227 0.0000 0.3855
vn 0.9911 -0.0000 0.1334
vn 0.0000 -1.0000 -0.0000
vn 0.0000 1.0000 0.0000
usemtl Default_OBJ.006
s off
f 1/1/1 2/2/1 3/3/1
f 1/1/1 3/3/1 4/4/1
f 2/2/2 5/5/2 6/6/2
f 2/2/2 6/6/2 3/3/2
f 5/5/3 7/7/3 8/8/3
f 5/5/3 8/8/3 6/6/3
f 7/7/4 9/9/4 10/10/4
f 7/7/4 10/10/4 8/8/4
f 9/9/5 11/11/5 12/12/5
f 9/9/5 12/12/5 10/10/5
f 11/11/6 13/13/6 14/14/6
f 11/11/6 14/14/6 12/12/6
f 13/13/7 15/15/7 16/16/7
f 13/13/7 16/16/7 14/14/7
f 15/15/8 17/17/8 18/18/8
f 15/15/8 18/18/8 16/16/8
f 17/17/9 19/19/9 20/20/9
f 17/17/9 20/20/9 18/18/9
f 19/19/10 21/21/10 22/22/10
f 19/19/10 22/22/10 20/20/10
f 21/21/11 23/23/11 24/24/11
f 21/21/11 24/24/11 22/22/11
f 23/23/12 25/25/12 26/26/12
f 23/23/12 26/26/12 24/24/12
f 25/25/13 27/27/13 28/28/13
f 25/25/13 28/28/13 26/26/13
f 27/27/14 29/29/14 30/30/14
f 27/27/14 30/30/14 28/28/14
f 29/29/15 31/31/15 32/32/15
f 29/29/15 32/32/15 30/30/15
f 31/31/16 33/33/16 34/34/16
f 31/31/16 34/34/16 32/32/16
f 33/33/17 35/35/17 36/36/17
f 33/33/17 36/36/17 34/34/17
f 35/35/18 37/37/18 38/38/18
f 35/35/18 38/38/18 36/36/18
f 37/37/19 39/39/19 40/40/19
f 37/37/19 40/40/19 38/38/19
f 39/39/20 41/41/20 42/42/20
f 39/39/20 42/42/20 40/40/20
f 41/41/21 43/43/21 44/44/21
f 41/41/21 44/44/21 42/42/21
f 43/43/22 45/45/22 46/46/22
f 43/43/22 46/46/22 44/44/22
f 45/45/23 47/47/23 48/48/23
f 45/45/23 48/48/23 46/46/23
f 47/47/24 49/49/24 50/50/24
f 47/47/24 50/50/24 48/48/24
f 49/49/25 51/51/25 52/52/25
f 49/49/25 52/52/25 50/50/25
f 51/51/26 53/53/26 54/54/26
f 51/51/26 54/54/26 52/52/26
f 53/53/27 55/55/27 56/56/27
f 53/53/27 56/56/27 54/54/27
f 55/55/28 1/1/28 4/4/28
f 55/55/28 4/4/28 56/56/28
f 55/55/29 2/2/29 1/1/29
f 55/55/29 5/5/29 2/2/29
f 53/53/29 5/5/29 55/55/29
f 53/53/29 7/7/29 5/5/29
f 51/51/29 7/7/29 53/53/29
f 49/49/29 7/7/29 51/51/29
f 49/49/29 9/9/29 7/7/29
f 49/49/29 11/11/29 9/9/29
f 47/47/29 11/11/29 49/49/29
f 45/45/29 11/11/29 47/47/29
f 45/45/29 13/13/29 11/11/29
f 43/43/29 13/13/29 45/45/29
f 43/43/29 15/15/29 13/13/29
f 41/41/29 15/15/29 43/43/29
f 41/41/29 17/17/29 15/15/29
f 39/39/29 17/17/29 41/41/29
f 39/39/29 19/19/29 17/17/29
f 39/39/29 21/21/29 19/19/29
f 37/37/29 21/21/29 39/39/29
f 35/35/29 21/21/29 37/37/29
f 35/35/29 23/23/29 21/21/29
f 35/35/29 25/25/29 23/23/29
f 33/33/29 25/25/29 35/35/29
f 31/31/29 25/25/29 33/33/29
f 29/29/29 25/25/29 31/31/29
f 27/27/29 25/25/29 29/29/29
f 56/57/30 4/58/30 3/59/30
f 56/57/30 3/59/30 6/60/30
f 54/61/30 56/57/30 6/60/30
f 54/61/30 6/60/30 8/62/30
f 52/63/30 54/61/30 8/62/30
f 50/64/30 52/63/30 8/62/30
f 50/64/30 8/62/30 10/65/30
f 50/64/30 10/65/30 12/66/30
f 48/67/30 50/64/30 12/66/30
f 46/68/30 48/67/30 12/66/30
f 46/68/30 12/66/30 14/69/30
f 44/70/30 46/68/30 14/69/30
f 44/70/30 14/69/30 16/71/30
f 42/72/30 44/70/30 16/71/30
f 42/72/30 16/71/30 18/73/30
f 40/74/30 42/72/30 18/73/30
f 40/74/30 18/73/30 20/75/30
f 40/74/30 20/75/30 22/76/30
f 38/77/30 40/74/30 22/76/30
f 36/78/30 38/77/30 22/76/30
f 36/78/30 22/76/30 24/79/30
f 36/78/30 24/79/30 26/80/30
f 34/81/30 36/78/30 26/80/30
f 32/82/30 34/81/30 26/80/30
f 30/83/30 32/82/30 26/80/30
f 28/84/30 30/83/30 26/80/30
