# Blender v2.93.5 OBJ File: ''
# www.blender.org
mtllib terrain Woods #195.mtl
o terrain_Woods_#195_terrain_Woods_#195_terrain_Woods_#195_terrain_Woods_#195_te.001
v 6.229141 0.019225 -2.350112
v 4.149721 0.019215 -3.525052
v 4.149747 0.019209 -2.350065
v -4.167820 0.019151 -2.349886
v -6.247239 0.019142 -3.524825
v -6.247215 0.019136 -2.349840
v -2.088431 0.019165 -2.349930
v -4.167846 0.019156 -3.524870
v -0.009038 0.019180 -2.349976
v -2.088455 0.019171 -3.524915
v 2.070329 0.019201 -3.525006
v -0.009063 0.019185 -3.524960
v 2.070355 0.019196 -2.350021
v -5.032434 0.019119 2.070392
v -4.167718 0.019124 2.350054
v -5.446177 0.019117 1.742639
v -4.167746 0.019130 1.175068
v -6.310797 0.019116 0.850080
v -4.167769 0.019137 0.000084
v -6.247161 0.019122 0.000131
v -6.247190 0.019129 -1.174855
v -4.167795 0.019143 -1.174901
v -4.273798 0.019123 2.656507
v -2.088328 0.019139 2.350011
v -2.088354 0.019145 1.175025
v -2.088378 0.019151 0.000040
v -2.088402 0.019158 -1.174945
v -2.088301 0.019132 3.524995
v -0.008935 0.019153 2.349964
v -0.008962 0.019160 1.174979
v -0.008986 0.019166 -0.000006
v -0.009010 0.019173 -1.174991
v -0.008909 0.019147 3.524949
v 2.070458 0.019169 2.349918
v 2.070431 0.019175 1.174932
v 2.070406 0.019182 -0.000052
v 2.070382 0.019188 -1.175038
v 3.985425 0.019179 2.762894
v 2.309171 0.019164 3.301104
v 4.149848 0.019182 2.349874
v 4.149823 0.019189 1.174889
v 4.149798 0.019195 -0.000096
v 4.149772 0.019202 -1.175081
v 4.775867 0.019187 2.256675
v 5.714710 0.019199 1.609185
v 6.154945 0.019205 0.567403
v 6.229191 0.019211 -0.000143
v 6.229165 0.019217 -1.175128
v 4.149719 -0.020715 -3.525053
v 6.229138 -0.020706 -2.350110
v 4.149745 -0.020722 -2.350066
v -6.247243 -0.020789 -3.524825
v -4.167824 -0.020780 -2.349886
v -6.247219 -0.020795 -2.349840
v -4.167849 -0.020774 -3.524870
v -2.088433 -0.020765 -2.349930
v -2.088458 -0.020758 -3.524915
v -0.009040 -0.020751 -2.349976
v 2.070327 -0.020729 -3.525006
v 2.070353 -0.020735 -2.350021
v -5.032436 -0.020810 2.070392
v -4.167720 -0.020806 2.350054
v -4.273800 -0.020807 2.656507
v -5.446180 -0.020813 1.742639
v -4.167747 -0.020799 1.175068
v -6.310799 -0.020814 0.850080
v -4.167772 -0.020793 0.000084
v -6.247191 -0.020801 -1.174855
v -6.247163 -0.020808 0.000131
v -4.167797 -0.020787 -1.174901
v -2.088329 -0.020791 2.350011
v -2.088304 -0.020798 3.524995
v -2.088357 -0.020785 1.175025
v -2.088382 -0.020778 0.000041
v -2.088406 -0.020771 -1.174945
v -0.008936 -0.020777 2.349964
v -0.008912 -0.020783 3.524949
v -0.008965 -0.020770 1.174979
v -0.008989 -0.020764 -0.000006
v -0.009013 -0.020757 -1.174991
v 2.070455 -0.020761 2.349918
v 2.309168 -0.020765 3.301104
v 2.070428 -0.020755 1.174932
v 2.070404 -0.020748 -0.000051
v 2.070380 -0.020742 -1.175038
v 3.985423 -0.020751 2.762894
v 4.149848 -0.020747 2.349873
v 4.149821 -0.020741 1.174889
v 4.149796 -0.020735 -0.000096
v 4.149771 -0.020728 -1.175081
v 4.775864 -0.020743 2.256675
v 5.714708 -0.020731 1.609185
v 6.154940 -0.020725 0.567402
v 6.229190 -0.020719 -0.000142
v 6.229161 -0.020712 -1.175127
v 6.229112 -0.020700 -3.525097
v 6.229115 0.019230 -3.525097
v -0.009065 -0.020745 -3.524960
vt 1.000000 0.833333
vt 0.833333 1.000000
vt 0.833333 0.833333
vt 0.166667 0.833333
vt 0.000000 1.000000
vt 0.000000 0.833333
vt 0.333333 0.833333
vt 0.166667 1.000000
vt 0.500000 0.833333
vt 0.333333 1.000000
vt 0.666667 1.000000
vt 0.500000 1.000000
vt 0.666667 0.833333
vt 0.000000 0.000000
vt 0.166667 0.166667
vt 0.000000 0.166667
vt 0.166667 0.333333
vt 0.000000 0.333333
vt 0.166667 0.500000
vt 0.000000 0.500000
vt 0.000000 0.666667
vt 0.166667 0.666667
vt 0.166667 0.000000
vt 0.333333 0.166667
vt 0.333333 0.333333
vt 0.333333 0.500000
vt 0.333333 0.666667
vt 0.333333 0.000000
vt 0.500000 0.166667
vt 0.500000 0.333333
vt 0.500000 0.500000
vt 0.500000 0.666667
vt 0.500000 0.000000
vt 0.666667 0.166667
vt 0.666667 0.333333
vt 0.666667 0.500000
vt 0.666667 0.666667
vt 0.833333 0.000000
vt 0.666667 0.000000
vt 0.833333 0.166667
vt 0.833333 0.333333
vt 0.833333 0.500000
vt 0.833333 0.666667
vt 1.000000 0.000000
vt 1.000000 0.166667
vt 1.000000 0.333333
vt 1.000000 0.500000
vt 1.000000 0.666667
vt 0.833333 1.000000
vt 1.000000 0.833333
vt 0.833333 0.833333
vt 0.000000 1.000000
vt 0.166667 0.833333
vt 0.000000 0.833333
vt 0.166667 1.000000
vt 0.333333 0.833333
vt 0.333333 1.000000
vt 0.500000 0.833333
vt 0.666667 1.000000
vt 0.666667 0.833333
vt 0.000000 0.000000
vt 0.166667 0.166667
vt 0.166667 0.000000
vt 0.000000 0.166667
vt 0.166667 0.333333
vt 0.000000 0.333333
vt 0.166667 0.500000
vt 0.000000 0.666667
vt 0.000000 0.500000
vt 0.166667 0.666667
vt 0.333333 0.166667
vt 0.333333 0.000000
vt 0.333333 0.333333
vt 0.333333 0.500000
vt 0.333333 0.666667
vt 0.500000 0.166667
vt 0.500000 0.000000
vt 0.500000 0.333333
vt 0.500000 0.500000
vt 0.500000 0.666667
vt 0.666667 0.166667
vt 0.666667 0.000000
vt 0.666667 0.333333
vt 0.666667 0.500000
vt 0.666667 0.666667
vt 0.833333 0.000000
vt 0.833333 0.166667
vt 0.833333 0.333333
vt 0.833333 0.500000
vt 0.833333 0.666667
vt 1.000000 0.000000
vt 1.000000 0.166667
vt 1.000000 0.333333
vt 1.000000 0.500000
vt 1.000000 0.666667
vt 1.000000 1.000000
vt 1.000000 1.000000
vt 0.500000 1.000000
vn -0.0000 1.0000 0.0000
vn 0.0000 -1.0000 -0.0000
vn -0.6209 0.0001 0.7839
vn -0.6162 0.0000 0.7876
vn 0.5393 -0.0000 0.8421
vn 0.5393 -0.0001 0.8421
vn 1.0000 -0.0000 -0.0000
vn 1.0000 -0.0001 -0.0000
vn -0.0000 0.0000 -1.0000
vn -1.0000 0.0001 0.0000
vn -1.0000 0.0000 0.0000
vn -0.9972 0.0001 -0.0747
vn -0.9972 0.0000 -0.0747
vn -0.7183 0.0000 0.6958
vn -0.6114 0.0000 0.7913
vn -0.3693 0.0000 0.9293
vn 0.0000 -0.0000 1.0000
vn 0.0961 -0.0000 0.9954
vn 0.3057 -0.0000 0.9521
vn 0.5677 -0.0000 0.8232
vn 0.9211 -0.0000 0.3892
vn 0.9211 -0.0001 0.3893
vn 0.9916 -0.0001 0.1297
vn 0.9916 -0.0000 0.1297
usemtl None.006
s 1
f 1/1/1 2/2/1 3/3/1
f 4/4/1 5/5/1 6/6/1
f 7/7/1 8/8/1 4/4/1
f 9/9/1 10/10/1 7/7/1
f 9/9/1 11/11/1 12/12/1
f 13/13/1 2/2/1 11/11/1
f 14/14/1 15/15/1 16/16/1
f 16/16/1 17/17/1 18/18/1
f 18/18/1 19/19/1 20/20/1
f 19/19/1 21/21/1 20/20/1
f 22/22/1 6/6/1 21/21/1
f 23/23/1 24/24/1 15/15/1
f 24/24/1 17/17/1 15/15/1
f 25/25/1 19/19/1 17/17/1
f 26/26/1 22/22/1 19/19/1
f 27/27/1 4/4/1 22/22/1
f 28/28/1 29/29/1 24/24/1
f 29/29/1 25/25/1 24/24/1
f 30/30/1 26/26/1 25/25/1
f 31/31/1 27/27/1 26/26/1
f 32/32/1 7/7/1 27/27/1
f 33/33/1 34/34/1 29/29/1
f 34/34/1 30/30/1 29/29/1
f 35/35/1 31/31/1 30/30/1
f 36/36/1 32/32/1 31/31/1
f 37/37/1 9/9/1 32/32/1
f 38/38/1 34/34/1 39/39/1
f 40/40/1 35/35/1 34/34/1
f 41/41/1 36/36/1 35/35/1
f 42/42/1 37/37/1 36/36/1
f 43/43/1 13/13/1 37/37/1
f 44/44/1 40/40/1 38/38/1
f 45/45/1 41/41/1 40/40/1
f 46/46/1 42/42/1 41/41/1
f 47/47/1 43/43/1 42/42/1
f 48/48/1 3/3/1 43/43/1
f 49/49/2 50/50/2 51/51/2
f 52/52/2 53/53/2 54/54/2
f 55/55/2 56/56/2 53/53/2
f 57/57/2 58/58/2 56/56/2
f 58/58/2 59/59/2 60/60/2
f 60/60/2 49/49/2 51/51/2
f 61/61/2 62/62/2 63/63/2
f 64/64/2 65/65/2 62/62/2
f 66/66/2 67/67/2 65/65/2
f 68/68/2 67/67/2 69/69/2
f 54/54/2 70/70/2 68/68/2
f 63/63/2 71/71/2 72/72/2
f 65/65/2 71/71/2 62/62/2
f 67/67/2 73/73/2 65/65/2
f 70/70/2 74/74/2 67/67/2
f 53/53/2 75/75/2 70/70/2
f 72/72/2 76/76/2 77/77/2
f 73/73/2 76/76/2 71/71/2
f 74/74/2 78/78/2 73/73/2
f 75/75/2 79/79/2 74/74/2
f 56/56/2 80/80/2 75/75/2
f 77/77/2 81/81/2 82/82/2
f 78/78/2 81/81/2 76/76/2
f 79/79/2 83/83/2 78/78/2
f 80/80/2 84/84/2 79/79/2
f 58/58/2 85/85/2 80/80/2
f 81/81/2 86/86/2 82/82/2
f 83/83/2 87/87/2 81/81/2
f 84/84/2 88/88/2 83/83/2
f 85/85/2 89/89/2 84/84/2
f 60/60/2 90/90/2 85/85/2
f 87/87/2 91/91/2 86/86/2
f 88/88/2 92/92/2 87/87/2
f 89/89/2 93/93/2 88/88/2
f 90/90/2 94/94/2 89/89/2
f 51/51/2 95/95/2 90/90/2
f 16/16/3 61/61/4 14/14/4
f 38/38/5 91/91/6 44/44/6
f 1/1/7 96/96/8 97/97/8
f 8/8/9 52/52/9 5/5/9
f 5/5/10 54/54/10 6/6/10
f 6/6/10 68/68/11 21/21/11
f 21/21/11 69/69/11 20/20/11
f 20/20/12 66/66/13 18/18/13
f 18/18/14 64/64/14 16/16/14
f 14/14/4 63/63/15 23/23/15
f 23/23/16 72/72/16 28/28/16
f 28/28/17 77/77/17 33/33/17
f 33/33/18 82/82/18 39/39/18
f 39/39/19 86/86/19 38/38/19
f 44/44/20 92/92/20 45/45/20
f 45/45/21 93/93/22 46/46/22
f 46/46/23 94/94/24 47/47/24
f 47/47/7 95/95/8 48/48/8
f 48/48/8 50/50/7 1/1/7
f 97/97/9 49/49/9 2/2/9
f 2/2/9 59/59/9 11/11/9
f 11/11/9 98/98/9 12/12/9
f 12/12/9 57/57/9 10/10/9
f 10/10/9 55/55/9 8/8/9
f 1/1/1 97/97/1 2/2/1
f 4/4/1 8/8/1 5/5/1
f 7/7/1 10/10/1 8/8/1
f 9/9/1 12/12/1 10/10/1
f 9/9/1 13/13/1 11/11/1
f 13/13/1 3/3/1 2/2/1
f 14/14/1 23/23/1 15/15/1
f 16/16/1 15/15/1 17/17/1
f 18/18/1 17/17/1 19/19/1
f 19/19/1 22/22/1 21/21/1
f 22/22/1 4/4/1 6/6/1
f 23/23/1 28/28/1 24/24/1
f 24/24/1 25/25/1 17/17/1
f 25/25/1 26/26/1 19/19/1
f 26/26/1 27/27/1 22/22/1
f 27/27/1 7/7/1 4/4/1
f 28/28/1 33/33/1 29/29/1
f 29/29/1 30/30/1 25/25/1
f 30/30/1 31/31/1 26/26/1
f 31/31/1 32/32/1 27/27/1
f 32/32/1 9/9/1 7/7/1
f 33/33/1 39/39/1 34/34/1
f 34/34/1 35/35/1 30/30/1
f 35/35/1 36/36/1 31/31/1
f 36/36/1 37/37/1 32/32/1
f 37/37/1 13/13/1 9/9/1
f 38/38/1 40/40/1 34/34/1
f 40/40/1 41/41/1 35/35/1
f 41/41/1 42/42/1 36/36/1
f 42/42/1 43/43/1 37/37/1
f 43/43/1 3/3/1 13/13/1
f 44/44/1 45/45/1 40/40/1
f 45/45/1 46/46/1 41/41/1
f 46/46/1 47/47/1 42/42/1
f 47/47/1 48/48/1 43/43/1
f 48/48/1 1/1/1 3/3/1
f 49/49/2 96/96/2 50/50/2
f 52/52/2 55/55/2 53/53/2
f 55/55/2 57/57/2 56/56/2
f 57/57/2 98/98/2 58/58/2
f 58/58/2 98/98/2 59/59/2
f 60/60/2 59/59/2 49/49/2
f 61/61/2 64/64/2 62/62/2
f 64/64/2 66/66/2 65/65/2
f 66/66/2 69/69/2 67/67/2
f 68/68/2 70/70/2 67/67/2
f 54/54/2 53/53/2 70/70/2
f 63/63/2 62/62/2 71/71/2
f 65/65/2 73/73/2 71/71/2
f 67/67/2 74/74/2 73/73/2
f 70/70/2 75/75/2 74/74/2
f 53/53/2 56/56/2 75/75/2
f 72/72/2 71/71/2 76/76/2
f 73/73/2 78/78/2 76/76/2
f 74/74/2 79/79/2 78/78/2
f 75/75/2 80/80/2 79/79/2
f 56/56/2 58/58/2 80/80/2
f 77/77/2 76/76/2 81/81/2
f 78/78/2 83/83/2 81/81/2
f 79/79/2 84/84/2 83/83/2
f 80/80/2 85/85/2 84/84/2
f 58/58/2 60/60/2 85/85/2
f 81/81/2 87/87/2 86/86/2
f 83/83/2 88/88/2 87/87/2
f 84/84/2 89/89/2 88/88/2
f 85/85/2 90/90/2 89/89/2
f 60/60/2 51/51/2 90/90/2
f 87/87/2 92/92/2 91/91/2
f 88/88/2 93/93/2 92/92/2
f 89/89/2 94/94/2 93/93/2
f 90/90/2 95/95/2 94/94/2
f 51/51/2 50/50/2 95/95/2
f 16/16/3 64/64/3 61/61/4
f 38/38/5 86/86/5 91/91/6
f 1/1/7 50/50/7 96/96/8
f 8/8/9 55/55/9 52/52/9
f 5/5/10 52/52/10 54/54/10
f 6/6/10 54/54/10 68/68/11
f 21/21/11 68/68/11 69/69/11
f 20/20/12 69/69/12 66/66/13
f 18/18/14 66/66/14 64/64/14
f 14/14/4 61/61/4 63/63/15
f 23/23/16 63/63/16 72/72/16
f 28/28/17 72/72/17 77/77/17
f 33/33/18 77/77/18 82/82/18
f 39/39/19 82/82/19 86/86/19
f 44/44/20 91/91/20 92/92/20
f 45/45/21 92/92/21 93/93/22
f 46/46/23 93/93/23 94/94/24
f 47/47/7 94/94/7 95/95/8
f 48/48/8 95/95/8 50/50/7
f 97/97/9 96/96/9 49/49/9
f 2/2/9 49/49/9 59/59/9
f 11/11/9 59/59/9 98/98/9
f 12/12/9 98/98/9 57/57/9
f 10/10/9 57/57/9 55/55/9
