# Blender v2.82 (sub 7) OBJ File: ''
# www.blender.org
mtllib Plough_160x80_v2.mtl
o Box001.001
v -3.149607 0.000000 -1.574803
v -3.149607 0.040000 -1.574803
v 3.149607 0.040000 -1.574803
v 3.149607 0.000000 -1.574803
v -3.149607 -0.000000 1.574803
v 3.149607 -0.000000 1.574803
v 3.149607 0.040000 1.574803
v -3.149607 0.040000 1.574803
vt 0.515005 0.643571
vt 0.515005 0.647804
vt 0.987043 0.647804
vt 0.987043 0.643571
vt 0.515005 0.643571
vt 0.987043 0.643571
vt 0.987043 0.647804
vt 0.515005 0.647804
vt 0.007490 0.224737
vt 0.477574 0.224737
vt 0.477574 0.459779
vt 0.007490 0.459779
vt 0.988739 0.654855
vt 0.992972 0.654855
vt 0.992972 0.886939
vt 0.988739 0.886939
vt 0.503450 0.894937
vt 0.989538 0.894937
vt 0.989538 0.651893
vt 0.503450 0.651893
vt 0.992972 0.654855
vt 0.988739 0.654855
vt 0.988739 0.886939
vt 0.992972 0.886939
vn 0.0000 0.0000 -1.0000
vn 0.0000 0.0000 1.0000
vn 0.0000 -1.0000 -0.0000
vn 1.0000 0.0000 0.0000
vn 0.0000 1.0000 0.0000
vn -1.0000 0.0000 0.0000
usemtl 02___Default.001
s 1
f 1/1/1 2/2/1 3/3/1
f 3/3/1 4/4/1 1/1/1
f 5/5/2 6/6/2 7/7/2
f 7/7/2 8/8/2 5/5/2
f 1/9/3 4/10/3 6/11/3
f 6/11/3 5/12/3 1/9/3
f 4/13/4 3/14/4 7/15/4
f 7/15/4 6/16/4 4/13/4
f 3/17/5 2/18/5 8/19/5
f 8/19/5 7/20/5 3/17/5
f 2/21/6 1/22/6 5/23/6
f 5/23/6 8/24/6 2/21/6
