# Blender v2.82 (sub 7) OBJ File: ''
# www.blender.org
mtllib Oasis_v3_160x80.mtl
o Ellipse001.002_Ellipse001.001
v 0.290506 0.028577 1.501494
v -0.725907 0.028577 1.447526
v 0.029554 0.028577 1.535692
v -0.263804 0.028577 1.533213
v -0.263804 -0.000000 1.533213
v 0.029554 -0.000000 1.535692
v -0.725907 -0.000000 1.447526
v 0.290506 -0.000000 1.501494
v -1.048363 -0.000000 1.314990
v 0.497260 -0.000000 1.469390
v 0.497260 0.028577 1.469390
v -1.048363 0.028577 1.314990
v 1.819284 0.000000 -1.348564
v -1.386770 -0.000000 1.181795
v -0.618668 0.000000 -1.468801
v 1.132985 -0.000000 1.357580
v -1.386770 -0.000000 1.181795
v -1.386770 0.028577 1.181795
v -1.715812 0.028577 0.998371
v -1.386770 0.028577 1.181795
v -1.715812 -0.000000 0.998371
v -1.501670 0.028578 -1.248589
v -1.938786 0.028578 -1.078586
v -1.938786 0.000000 -1.078586
v -2.410950 0.028578 -0.844234
v -2.410950 0.000000 -0.844234
v -2.132928 -0.000000 0.819693
v -2.874687 0.028578 0.333977
v -2.975964 0.028578 0.059930
v -2.975964 -0.000000 0.059930
v -2.874687 -0.000000 0.333977
v -2.588478 -0.000000 0.642902
v -2.741395 0.000000 -0.451327
v -2.741395 0.028578 -0.451327
v -2.588478 0.028578 0.642902
v -2.132929 0.028577 0.819693
v -1.501669 0.000000 -1.248589
v -1.060327 0.000000 -1.349988
v -0.618668 0.000000 -1.468801
v -0.618668 0.028578 -1.468801
v -1.060327 0.028578 -1.349988
v -0.618669 0.028578 -1.468801
v -0.178998 0.000000 -1.532324
v 1.819284 0.028578 -1.348564
v 1.297776 0.028578 -1.445687
v -0.178998 0.028578 -1.532324
v 0.639150 0.000000 -1.524579
v 0.639150 0.028578 -1.524579
v 1.297776 0.000000 -1.445687
v 2.881966 0.028578 0.532858
v 2.958460 0.028578 0.318926
v 2.980781 0.028578 0.099353
v 2.958460 -0.000000 0.318926
v 2.980781 -0.000000 0.099353
v 2.868725 0.000000 -0.325030
v 2.444586 0.028577 0.794204
v 2.868725 0.028578 -0.325030
v 2.614738 0.028578 -0.920047
v 1.717410 0.028577 1.124453
v 2.046400 0.028577 0.964133
v 2.265076 0.028578 -1.236466
v 1.717410 -0.000000 1.124453
v 2.046399 -0.000000 0.964133
v 2.444586 -0.000000 0.794204
v 2.701046 -0.000000 0.687426
v 2.614738 0.000000 -0.920047
v 2.265076 0.000000 -1.236466
v 2.701046 0.028578 0.687426
v 2.881966 -0.000000 0.532858
v 1.359444 -0.000000 1.274776
v 1.359444 0.028577 1.274776
v 1.132985 0.028577 1.357580
v 0.850941 -0.000000 1.407593
v 0.850941 0.028577 1.407593
vt 0.509286 0.750959
vt 0.666299 0.705021
vt 0.551372 0.746665
vt 0.986249 0.068163
vt 0.990833 0.068163
vt 0.990833 0.113600
vt 0.990833 0.000000
vt 0.765777 0.345616
vt 0.797432 0.389625
vt 0.835123 0.467848
vt 0.732200 0.310431
vt 0.986249 0.155536
vt 0.990833 0.155536
vt 0.986249 0.113600
vt 0.597173 0.735451
vt 0.986249 0.000000
vt 0.004583 0.945192
vt 0.009167 0.945192
vt 0.004583 0.990467
vt 0.850595 0.530349
vt 0.704851 0.283099
vt 0.986249 0.188971
vt 0.990833 0.188971
vt 0.475755 0.753579
vt 0.711849 0.672433
vt 0.009167 0.990467
vt 0.141077 0.392674
vt 0.867711 0.595299
vt 0.389317 0.769247
vt 0.618810 0.200484
vt 0.000000 0.000000
vt 0.000000 0.000000
vt 0.000000 0.000000
vt 0.000000 0.000000
vt 0.000000 0.000000
vt 0.000000 0.000000
vt 0.004583 0.992171
vt 0.000000 0.992171
vt 0.004583 0.945192
vt 0.990832 0.887643
vt 0.986249 0.940443
vt 0.986249 0.887643
vt 0.990832 0.940443
vt 0.804570 0.598379
vt 0.688077 0.255567
vt 0.762739 0.265968
vt 0.995416 0.664791
vt 0.990833 0.747112
vt 0.990833 0.664791
vt 0.995416 0.747112
vt 0.677937 0.968496
vt 0.591510 0.923604
vt 0.895265 0.745956
vt 0.995416 0.934049
vt 0.995416 0.980107
vt 0.990833 0.980107
vt 0.990833 0.934049
vt 0.918679 0.833117
vt 0.903939 0.909411
vt 0.874202 0.954336
vt 0.772494 0.975003
vt 0.990833 0.867659
vt 0.995416 0.812812
vt 0.995416 0.867659
vt 0.990833 0.812812
vt 0.927960 0.510687
vt 0.911466 0.334251
vt 0.967045 0.405393
vt 0.961324 0.451905
vt 0.995416 0.867659
vt 0.990833 0.867659
vt 0.995417 0.063346
vt 0.995416 0.000000
vt 1.000000 0.000000
vt 1.000000 0.063347
vt 0.845259 0.285120
vt 0.863224 0.555095
vt 0.986249 1.000000
vt 0.990833 1.000000
vt 0.876327 0.664320
vt 0.518487 0.876933
vt 0.995416 0.590240
vt 0.990833 0.590240
vt 0.995416 0.517450
vt 0.455215 0.822166
vt 0.389317 0.769247
vt 0.389344 0.769227
vt 0.455243 0.822146
vt 0.389344 0.769228
vt 0.990833 0.517450
vt 0.990833 0.443995
vt 0.995416 0.443995
vt 0.990833 0.443995
vt 0.995416 0.372805
vt 0.995416 0.443994
vt 0.541808 0.253785
vt 0.615289 0.256029
vt 0.759869 0.639153
vt 0.164857 0.362533
vt 0.242854 0.328125
vt 0.470680 0.260097
vt 0.990833 0.372805
vt 0.995416 0.244784
vt 0.990833 0.244784
vt 0.342975 0.291503
vt 0.995416 0.144291
vt 0.990833 0.144291
vt 0.331865 0.710608
vt 0.243706 0.587782
vt 0.183551 0.480998
vt 0.995416 0.065944
vt 0.990833 0.065944
vt 0.068103 0.695416
vt 0.048234 0.664847
vt 0.036632 0.631399
vt 0.990833 0.853982
vt 0.990833 0.887643
vt 0.986249 0.853982
vt 0.986249 0.818937
vt 0.990833 0.818937
vt 0.986249 0.749835
vt 0.146179 0.720065
vt 0.038488 0.561024
vt 0.056244 0.458776
vt 0.272136 0.744773
vt 0.214747 0.731892
vt 0.099258 0.396483
vt 0.986249 0.392771
vt 0.990833 0.392771
vt 0.990833 0.450528
vt 0.986249 0.450528
vt 0.990833 0.519429
vt 0.986249 0.519429
vt 0.990833 0.563694
vt 0.990833 0.598226
vt 0.986249 0.652095
vt 0.986249 0.598226
vt 0.990833 0.652095
vt 0.990833 0.749835
vt 0.102115 0.712864
vt 0.986249 0.563694
vt 0.990833 0.598226
vt 0.986249 0.598226
vt 0.986249 0.887643
vt 0.229808 0.061920
vt 0.264929 0.041352
vt 0.305123 0.029474
vt 0.178871 0.124814
vt 0.347881 0.039626
vt 0.391771 0.066243
vt 0.118028 0.227439
vt 0.460533 0.107117
vt 0.109099 0.314008
vt 0.520311 0.138720
vt 0.581763 0.175731
vt 0.990833 0.330932
vt 0.986249 0.330932
vt 0.333688 0.755024
vt 0.372173 0.759590
vt 0.995416 0.000000
vt 0.990833 0.000000
vt 0.990833 0.292323
vt 0.986249 0.292323
vt 0.990833 0.246454
vt 0.657044 0.237092
vt 0.986249 0.246454
vt 0.418143 0.756987
vt 0.000000 0.945192
vn 0.0000 1.0000 0.0000
vn -0.0084 0.0000 1.0000
vn -0.0085 0.0000 1.0000
vn -0.1823 0.0000 0.9832
vn 0.0000 -1.0000 -0.0000
vn 0.1299 0.0000 0.9915
vn -0.3802 0.0000 0.9249
vn -0.3686 -0.0000 0.9296
vn 0.1534 0.0000 0.9882
vn -0.3778 0.0000 0.9259
vn -0.8881 0.0000 -0.4597
vn -0.6155 0.0000 -0.7881
vn -0.7071 0.0000 -0.7071
vn -0.7071 0.0005 -0.7071
vn -0.3662 0.0000 0.9305
vn -0.4869 0.0000 0.8735
vn -0.4446 0.0000 -0.8957
vn -0.9380 -0.0000 0.3466
vn -0.9089 0.0000 -0.4170
vn -0.7336 0.0000 0.6796
vn -0.3618 -0.0000 0.9323
vn -0.7653 0.0000 -0.6437
vn -0.3938 -0.0000 0.9192
vn -0.3625 -0.0000 -0.9320
vn -0.2967 -0.0000 -0.9550
vn -0.2915 -0.0000 -0.9566
vn -0.2239 -0.0000 -0.9746
vn -0.0771 -0.9962 -0.0393
vn -0.0468 -0.9986 -0.0266
vn -0.0950 -0.9947 -0.0397
vn -0.0468 -0.9985 -0.0266
vn -0.0770 -0.9963 -0.0392
vn -0.2598 0.0000 -0.9657
vn -0.1430 -0.0000 -0.9897
vn 0.0095 0.0000 -1.0000
vn 0.1189 0.0000 -0.9929
vn 0.1831 0.0000 -0.9831
vn 0.9416 0.0000 0.3367
vn 0.9949 0.0000 0.1011
vn 0.9669 -0.0000 -0.2553
vn 0.4381 -0.0000 0.8989
vn 0.3925 -0.0000 0.9197
vn 0.3925 -0.0000 0.9198
vn 0.3844 -0.0000 0.9232
vn 0.4715 0.0000 -0.8819
vn 0.6710 0.0000 -0.7415
vn 0.9197 0.0000 -0.3926
vn 0.6496 0.0000 0.7603
vn 0.3872 0.0000 0.9220
vn 0.3707 0.0000 0.9287
vn 0.3601 -0.0000 0.9329
vn 0.2439 0.0000 -0.9698
vn 0.3434 0.0000 0.9392
vn 0.1746 0.0000 0.9846
vn 0.1745 0.0000 0.9847
vn 0.1721 -0.0000 0.9851
usemtl Default_OBJ.001
s 1
f 1/1/1 2/2/1 3/3/1
f 4/4/2 5/5/2 6/6/3
f 5/5/4 4/4/4 7/7/4
f 6/8/5 5/9/5 7/10/5
f 8/11/5 6/8/5 7/10/5
f 1/12/6 6/6/6 8/13/6
f 3/14/6 6/6/6 1/12/6
f 4/4/2 6/6/3 3/14/3
f 2/2/1 4/15/1 3/3/1
f 7/7/4 4/4/4 2/16/4
f 7/17/7 2/18/7 9/19/8
f 7/10/5 9/20/5 10/21/5
f 8/11/5 7/10/5 10/21/5
f 11/22/9 8/13/9 10/23/9
f 1/12/9 8/13/9 11/22/9
f 2/2/1 1/1/1 11/24/1
f 12/25/1 2/2/1 11/24/1
f 9/19/8 2/18/7 12/26/10
f 13/27/5 14/28/5 15/29/5
f 16/30/5 14/28/5 13/27/5
f 9/31/11 17/32/12 18/33/13 19/34/14 20/35/13 14/36/12
f 14/28/5 16/30/5 9/20/5
f 9/37/8 12/38/10 17/39/15
f 20/40/16 21/41/16 14/42/16
f 19/43/16 21/41/16 20/40/16
f 19/44/1 22/45/1 23/46/1
f 24/47/17 25/48/17 23/49/17
f 26/50/17 25/48/17 24/47/17
f 26/51/5 24/52/5 27/53/5
f 28/54/18 29/55/18 30/56/18
f 31/57/18 28/54/18 30/56/18
f 32/58/5 31/59/5 30/60/5
f 33/61/5 32/58/5 30/60/5
f 29/62/19 33/63/19 30/64/19
f 29/62/19 34/65/19 33/63/19
f 35/66/1 34/67/1 29/68/1
f 28/69/1 35/66/1 29/68/1
f 31/57/20 35/70/20 28/54/20
f 32/71/20 35/70/20 31/57/20
f 36/72/21 35/73/21 32/74/21
f 27/75/21 36/72/21 32/74/21
f 26/51/5 27/53/5 32/58/5
f 33/61/5 26/51/5 32/58/5
f 34/65/22 26/50/22 33/63/22
f 25/48/22 26/50/22 34/65/22
f 35/66/1 25/76/1 34/67/1
f 36/77/1 25/76/1 35/66/1
f 23/46/1 25/76/1 36/77/1
f 19/44/1 23/46/1 36/77/1
f 27/78/23 19/43/23 36/79/23
f 21/41/23 19/43/23 27/78/23
f 24/52/5 21/80/5 27/53/5
f 37/81/5 21/80/5 24/52/5
f 23/49/24 37/82/25 24/47/24
f 22/83/26 37/82/25 23/49/24
f 37/82/25 22/83/26 38/84/27
f 21/80/5 37/81/5 38/85/5
f 14/28/5 21/80/5 38/85/5
f 39/86/28 40/87/29 41/88/30 42/89/31 15/29/32 38/85/30
f 41/90/33 40/91/33 39/92/33
f 41/90/33 39/92/33 38/84/33
f 15/29/5 14/28/5 38/85/5
f 42/93/34 43/94/34 15/95/34
f 42/96/1 41/97/1 18/98/1
f 44/99/1 42/96/1 18/98/1
f 45/100/1 42/96/1 44/99/1
f 42/96/1 45/100/1 46/101/1
f 43/94/34 42/93/34 46/102/34
f 46/102/35 47/103/35 43/94/35
f 48/104/35 47/103/35 46/102/35
f 45/100/1 48/105/1 46/101/1
f 49/106/36 48/104/36 45/107/36
f 47/103/36 48/104/36 49/106/36
f 43/108/5 47/109/5 49/110/5
f 15/29/5 43/108/5 49/110/5
f 13/27/5 15/29/5 49/110/5
f 45/107/37 13/111/37 49/106/37
f 44/112/37 13/111/37 45/107/37
f 50/113/1 51/114/1 52/115/1
f 51/116/38 50/117/38 53/118/38
f 54/119/39 51/116/39 53/118/39
f 52/120/39 51/116/39 54/119/39
f 55/121/40 52/120/40 54/119/40
f 56/122/1 57/123/1 58/124/1
f 59/125/1 60/126/1 61/127/1
f 59/128/41 62/129/41 63/130/41
f 60/131/41 59/128/41 63/130/41
f 60/131/42 63/130/42 64/132/43
f 56/133/44 64/132/43 65/134/44
f 60/131/42 64/132/43 56/133/44
f 58/124/1 60/126/1 56/122/1
f 61/127/1 60/126/1 58/124/1
f 61/135/45 66/136/46 67/137/45
f 58/138/46 66/136/46 61/135/45
f 57/139/47 66/136/47 58/138/47
f 57/139/47 55/121/47 66/136/47
f 52/120/40 55/121/40 57/139/40
f 50/113/1 52/115/1 57/123/1
f 68/140/1 50/113/1 57/123/1
f 56/122/1 68/140/1 57/123/1
f 65/134/44 68/141/44 56/133/44
f 68/141/48 65/134/48 69/142/48
f 50/143/48 68/141/48 69/142/48
f 53/118/38 50/117/38 69/144/38
f 54/145/5 53/146/5 69/147/5
f 55/148/5 54/145/5 69/147/5
f 65/149/5 55/148/5 69/147/5
f 64/150/5 55/148/5 65/149/5
f 66/151/5 55/148/5 64/150/5
f 63/152/5 66/151/5 64/150/5
f 67/153/5 66/151/5 63/152/5
f 62/154/5 67/153/5 63/152/5
f 70/155/5 67/153/5 62/154/5
f 59/128/49 70/156/50 62/129/49
f 71/157/51 70/156/50 59/128/49
f 61/127/1 71/158/1 59/125/1
f 61/127/1 72/159/1 71/158/1
f 44/99/1 72/159/1 61/127/1
f 67/160/45 44/112/52 61/161/45
f 13/111/52 44/112/52 67/160/45
f 16/30/5 13/27/5 67/153/5
f 70/155/5 16/30/5 67/153/5
f 71/157/51 16/162/53 70/156/50
f 72/163/53 16/162/53 71/157/51
f 16/162/54 72/163/54 73/164/55
f 9/20/5 16/30/5 73/165/5
f 10/21/5 9/20/5 73/165/5
f 74/166/56 10/23/56 73/164/55
f 72/163/54 74/166/56 73/164/55
f 12/25/1 74/167/1 72/159/1
f 72/159/1 18/98/1 12/25/1
f 72/159/1 44/99/1 18/98/1
f 18/168/15 17/39/15 12/38/10
f 41/97/1 19/44/1 18/98/1
f 22/45/1 19/44/1 41/97/1
f 22/83/26 41/90/27 38/84/27
f 10/23/56 74/166/56 11/22/56
f 74/167/1 12/25/1 11/24/1
