# Blender v2.82 (sub 7) OBJ File: ''
# www.blender.org
mtllib terrain_3x2_uvw.mtl
v 1.575000 0.000000 0.000000
v 1.533400 0.000000 -0.540800
v 1.533400 0.040000 -0.540800
v 1.575000 0.040000 0.000000
v 1.414800 0.000000 -1.037400
v 1.414800 0.040000 -1.037400
v 1.228700 0.000000 -1.475600
v 1.228700 0.040000 -1.475600
v 0.984800 0.000000 -1.841200
v 0.984800 0.040000 -1.841200
v 0.692300 0.000000 -2.119900
v 0.692300 0.040000 -2.119900
v 0.360900 0.000000 -2.297600
v 0.360900 0.040000 -2.297600
v 0.000000 0.000000 -2.360000
v 0.000000 0.040000 -2.360000
v -0.360900 0.000000 -2.297600
v -0.360900 0.040000 -2.297600
v -0.692300 0.000000 -2.119900
v -0.692300 0.040000 -2.119900
v -0.984800 0.000000 -1.841200
v -0.984800 0.040000 -1.841200
v -1.228700 0.000000 -1.475600
v -1.228700 0.040000 -1.475600
v -1.414800 0.000000 -1.037400
v -1.414800 0.040000 -1.037400
v -1.533400 0.000000 -0.540800
v -1.533400 0.040000 -0.540800
v -1.575000 0.000000 0.000000
v -1.575000 0.040000 0.000000
v -1.533400 -0.000000 0.540800
v -1.533400 0.040000 0.540800
v -1.414800 -0.000000 1.037400
v -1.414800 0.040000 1.037400
v -1.228700 -0.000000 1.475600
v -1.228700 0.040000 1.475600
v -0.984800 -0.000000 1.841200
v -0.984800 0.040000 1.841200
v -0.692300 -0.000000 2.119900
v -0.692300 0.040000 2.119900
v -0.360900 -0.000000 2.297600
v -0.360900 0.040000 2.297600
v 0.000000 -0.000000 2.360000
v 0.000000 0.040000 2.360000
v 0.360900 -0.000000 2.297600
v 0.360900 0.040000 2.297600
v 0.692300 -0.000000 2.119900
v 0.692300 0.040000 2.119900
v 0.984800 -0.000000 1.841200
v 0.984800 0.040000 1.841200
v 1.228700 -0.000000 1.475600
v 1.228700 0.040000 1.475600
v 1.414800 -0.000000 1.037400
v 1.414800 0.040000 1.037400
v 1.533400 -0.000000 0.540800
v 1.533400 0.040000 0.540800
vt 0.640794 0.729697
vt 0.649574 0.786632
vt 0.645351 0.787618
vt 0.636467 0.730019
vt 0.666094 0.838209
vt 0.662088 0.839866
vt 0.689340 0.882933
vt 0.685679 0.885260
vt 0.717731 0.919634
vt 0.714603 0.922635
vt 0.750287 0.946602
vt 0.747960 0.950250
vt 0.785577 0.962911
vt 0.784397 0.967072
vt 0.822788 0.966724
vt 0.823079 0.971055
vt 0.859081 0.957196
vt 0.860822 0.961207
vt 0.891828 0.935746
vt 0.894693 0.939089
vt 0.919984 0.903628
vt 0.923567 0.906181
vt 0.942690 0.862844
vt 0.946698 0.864619
vt 0.958566 0.814698
vt 0.962805 0.815736
vt 0.967006 0.761043
vt 0.971339 0.761392
vt 0.967012 0.703395
vt 0.971339 0.703073
vt 0.958232 0.646460
vt 0.962455 0.645475
vt 0.941711 0.594883
vt 0.945717 0.593226
vt 0.918464 0.550159
vt 0.922125 0.547832
vt 0.890068 0.513459
vt 0.893196 0.510457
vt 0.857501 0.486510
vt 0.859821 0.482857
vt 0.822147 0.470338
vt 0.823326 0.466178
vt 0.784939 0.466375
vt 0.784664 0.462043
vt 0.748624 0.475756
vt 0.746883 0.471743
vt 0.715962 0.497339
vt 0.713090 0.494002
vt 0.687816 0.529465
vt 0.684232 0.526913
vt 0.665114 0.570249
vt 0.661106 0.568474
vt 0.649239 0.618395
vt 0.645000 0.617357
vt 0.640800 0.672050
vt 0.636466 0.671700
vt 0.601051 0.915745
vt 0.534616 0.929031
vt 0.467576 0.919239
vt 0.405433 0.887982
vt 0.661474 0.881281
vt 0.349994 0.837860
vt 0.714215 0.828328
vt 0.757547 0.759541
vt 0.303123 0.771434
vt 0.266588 0.691302
vt 0.789840 0.677608
vt 0.809369 0.585202
vt 0.242253 0.600044
vt 0.814444 0.484995
vt 0.231943 0.500240
vt 0.804134 0.385191
vt 0.237019 0.400033
vt 0.779799 0.293934
vt 0.256547 0.307627
vt 0.288840 0.225694
vt 0.743265 0.213802
vt 0.696393 0.147375
vt 0.332173 0.156907
vt 0.384914 0.103954
vt 0.640955 0.097253
vt 0.578812 0.065997
vt 0.445337 0.069490
vt 0.511773 0.056204
vn 0.9971 0.0000 -0.0767
vn 0.9726 0.0000 -0.2323
vn 0.9204 0.0000 -0.3909
vn 0.8319 0.0000 -0.5550
vn 0.6898 0.0000 -0.7240
vn 0.4726 0.0000 -0.8813
vn 0.1704 0.0000 -0.9854
vn -0.1704 0.0000 -0.9854
vn -0.4726 0.0000 -0.8813
vn -0.6898 0.0000 -0.7240
vn -0.8319 0.0000 -0.5550
vn -0.9204 0.0000 -0.3909
vn -0.9726 0.0000 -0.2323
vn -0.9971 0.0000 -0.0767
vn -0.9971 0.0000 0.0767
vn -0.9726 0.0000 0.2323
vn -0.9204 0.0000 0.3909
vn -0.8319 0.0000 0.5550
vn -0.6898 0.0000 0.7240
vn -0.4726 0.0000 0.8813
vn -0.1704 0.0000 0.9854
vn 0.1704 0.0000 0.9854
vn 0.4726 0.0000 0.8813
vn 0.6898 0.0000 0.7240
vn 0.8319 0.0000 0.5550
vn 0.9204 0.0000 0.3909
vn 0.9726 0.0000 0.2323
vn 0.9971 -0.0000 0.0767
vn 0.0000 -1.0000 -0.0000
vn 0.0000 1.0000 0.0000
usemtl Default_OBJ.013
s off
f 1/1/1 2/2/1 3/3/1
f 1/1/1 3/3/1 4/4/1
f 2/2/2 5/5/2 6/6/2
f 2/2/2 6/6/2 3/3/2
f 5/5/3 7/7/3 8/8/3
f 5/5/3 8/8/3 6/6/3
f 7/7/4 9/9/4 10/10/4
f 7/7/4 10/10/4 8/8/4
f 9/9/5 11/11/5 12/12/5
f 9/9/5 12/12/5 10/10/5
f 11/11/6 13/13/6 14/14/6
f 11/11/6 14/14/6 12/12/6
f 13/13/7 15/15/7 16/16/7
f 13/13/7 16/16/7 14/14/7
f 15/15/8 17/17/8 18/18/8
f 15/15/8 18/18/8 16/16/8
f 17/17/9 19/19/9 20/20/9
f 17/17/9 20/20/9 18/18/9
f 19/19/10 21/21/10 22/22/10
f 19/19/10 22/22/10 20/20/10
f 21/21/11 23/23/11 24/24/11
f 21/21/11 24/24/11 22/22/11
f 23/23/12 25/25/12 26/26/12
f 23/23/12 26/26/12 24/24/12
f 25/25/13 27/27/13 28/28/13
f 25/25/13 28/28/13 26/26/13
f 27/27/14 29/29/14 30/30/14
f 27/27/14 30/30/14 28/28/14
f 29/29/15 31/31/15 32/32/15
f 29/29/15 32/32/15 30/30/15
f 31/31/16 33/33/16 34/34/16
f 31/31/16 34/34/16 32/32/16
f 33/33/17 35/35/17 36/36/17
f 33/33/17 36/36/17 34/34/17
f 35/35/18 37/37/18 38/38/18
f 35/35/18 38/38/18 36/36/18
f 37/37/19 39/39/19 40/40/19
f 37/37/19 40/40/19 38/38/19
f 39/39/20 41/41/20 42/42/20
f 39/39/20 42/42/20 40/40/20
f 41/41/21 43/43/21 44/44/21
f 41/41/21 44/44/21 42/42/21
f 43/43/22 45/45/22 46/46/22
f 43/43/22 46/46/22 44/44/22
f 45/45/23 47/47/23 48/48/23
f 45/45/23 48/48/23 46/46/23
f 47/47/24 49/49/24 50/50/24
f 47/47/24 50/50/24 48/48/24
f 49/49/25 51/51/25 52/52/25
f 49/49/25 52/52/25 50/50/25
f 51/51/26 53/53/26 54/54/26
f 51/51/26 54/54/26 52/52/26
f 53/53/27 55/55/27 56/56/27
f 53/53/27 56/56/27 54/54/27
f 55/55/28 1/1/28 4/4/28
f 55/55/28 4/4/28 56/56/28
f 41/41/29 45/45/29 43/43/29
f 41/41/29 47/47/29 45/45/29
f 39/39/29 47/47/29 41/41/29
f 39/39/29 49/49/29 47/47/29
f 37/37/29 49/49/29 39/39/29
f 35/35/29 49/49/29 37/37/29
f 35/35/29 51/51/29 49/49/29
f 35/35/29 53/53/29 51/51/29
f 33/33/29 53/53/29 35/35/29
f 31/31/29 53/53/29 33/33/29
f 31/31/29 55/55/29 53/53/29
f 29/29/29 55/55/29 31/31/29
f 29/29/29 1/1/29 55/55/29
f 27/27/29 1/1/29 29/29/29
f 27/27/29 2/2/29 1/1/29
f 25/25/29 2/2/29 27/27/29
f 25/25/29 5/5/29 2/2/29
f 25/25/29 7/7/29 5/5/29
f 23/23/29 7/7/29 25/25/29
f 21/21/29 7/7/29 23/23/29
f 21/21/29 9/9/29 7/7/29
f 21/21/29 11/11/29 9/9/29
f 19/19/29 11/11/29 21/21/29
f 17/17/29 11/11/29 19/19/29
f 17/17/29 13/13/29 11/11/29
f 15/15/29 13/13/29 17/17/29
f 42/57/30 44/58/30 46/59/30
f 42/57/30 46/59/30 48/60/30
f 40/61/30 42/57/30 48/60/30
f 40/61/30 48/60/30 50/62/30
f 38/63/30 40/61/30 50/62/30
f 36/64/30 38/63/30 50/62/30
f 36/64/30 50/62/30 52/65/30
f 36/64/30 52/65/30 54/66/30
f 34/67/30 36/64/30 54/66/30
f 32/68/30 34/67/30 54/66/30
f 32/68/30 54/66/30 56/69/30
f 30/70/30 32/68/30 56/69/30
f 30/70/30 56/69/30 4/71/30
f 28/72/30 30/70/30 4/71/30
f 28/72/30 4/71/30 3/73/30
f 26/74/30 28/72/30 3/73/30
f 26/74/30 3/73/30 6/75/30
f 26/74/30 6/75/30 8/76/30
f 24/77/30 26/74/30 8/76/30
f 22/78/30 24/77/30 8/76/30
f 22/78/30 8/76/30 10/79/30
f 22/78/30 10/79/30 12/80/30
f 20/81/30 22/78/30 12/80/30
f 18/82/30 20/81/30 12/80/30
f 18/82/30 12/80/30 14/83/30
f 16/84/30 18/82/30 14/83/30
