# Blender v2.93.5 OBJ File: ''
# www.blender.org
mtllib terrain Woods #188.mtl
o terrain_Woods_#188_terrain_Woods_#188_terrain_Woods_#188_terrain_Woods_#200_Cube_C
v 3.925729 0.019993 -1.956947
v 4.385278 -0.019991 0.105760
v 3.925729 -0.019989 -1.956947
v 2.320577 0.019990 1.605781
v 1.236698 -0.019992 1.856515
v 2.320577 -0.019992 1.605781
v -4.385278 0.019991 -0.034352
v -4.385278 -0.019991 -0.034352
v -3.711679 -0.019992 0.857811
v -4.128491 -0.019991 0.430236
v -0.841311 0.019989 1.909426
v 0.038638 0.019989 1.956947
v 4.205766 0.019991 0.430236
v 4.385278 0.019991 0.105760
v 4.205766 -0.019991 0.430236
v 3.788953 0.019990 0.857811
v 3.788953 -0.019992 0.857811
v 3.228019 0.019989 1.232580
v 3.228019 -0.019993 1.232580
v 2.544520 0.019990 1.540147
v 2.544520 -0.019992 1.540147
v 1.236698 0.019990 1.856515
v 0.918586 -0.019993 1.909426
v 0.038638 -0.019993 1.956947
v -0.841311 -0.019993 1.909426
v -1.687444 -0.019993 1.768690
v -1.687444 0.019989 1.768690
v -2.467242 -0.019992 1.540148
v -2.467242 0.019990 1.540148
v -3.150744 -0.019993 1.232581
v -3.150744 0.019989 1.232581
v -3.711679 0.019990 0.857811
v -4.128491 0.019991 0.430236
v -4.385162 -0.019991 -0.033709
v -4.385162 0.019991 -0.033709
v 0.918586 0.019989 1.909426
vt 0.625000 0.000000
vt 0.375000 0.169911
vt 0.375000 0.000000
vt 0.625000 0.318227
vt 0.375000 0.350643
vt 0.375000 0.318227
vt 0.375000 1.000000
vt 0.625000 0.751442
vt 0.625000 1.000000
vt 0.373558 0.750000
vt 0.360053 0.667905
vt 0.369198 0.708953
vt 0.714920 0.533512
vt 0.739646 0.513843
vt 0.875000 0.750000
vt 0.437500 0.812500
vt 0.459356 0.687500
vt 0.459356 0.812500
vt 0.437500 0.687500
vt 0.406250 0.812500
vt 0.406250 0.687500
vt 0.375000 0.812500
vt 0.375000 0.687500
vt 0.343750 0.812500
vt 0.343750 0.687500
vt 0.334776 0.812500
vt 0.334776 0.687500
vt 0.292999 0.812500
vt 0.281250 0.687500
vt 0.292999 0.687500
vt 0.250000 0.812500
vt 0.250000 0.687500
vt 0.218750 0.812500
vt 0.218750 0.687500
vt 0.187500 0.687500
vt 0.187500 0.812500
vt 0.156250 0.687500
vt 0.156250 0.812500
vt 0.125000 0.687500
vt 0.125000 0.812500
vt 0.093750 0.687500
vt 0.093750 0.812500
vt 0.062500 0.687500
vt 0.062500 0.812500
vt 0.031250 0.687500
vt 0.031250 0.812500
vt 0.031208 0.687500
vt 0.031208 0.812500
vt 0.625000 0.169911
vt 0.625000 0.350643
vt 0.375000 0.751442
vt 0.373559 0.749948
vt 0.125000 0.750000
vt 0.308253 0.559869
vt 0.125000 0.580089
vt 0.132162 0.557924
vt 0.146726 0.531983
vt 0.165054 0.512791
vt 0.186442 0.501083
vt 0.193227 0.500000
vt 0.225643 0.500000
vt 0.235026 0.501620
vt 0.260354 0.513843
vt 0.285080 0.533512
vt 0.328983 0.591903
vt 0.346474 0.628383
vt 0.764974 0.501620
vt 0.774357 0.500000
vt 0.806773 0.500000
vt 0.813558 0.501083
vt 0.834946 0.512791
vt 0.853275 0.531983
vt 0.867838 0.557924
vt 0.875000 0.580089
vt 0.626442 0.750000
vt 0.691747 0.559869
vt 0.671017 0.591903
vt 0.626441 0.749948
vt 0.630802 0.708953
vt 0.639947 0.667906
vt 0.653526 0.628383
vt 0.281250 0.812500
vn 0.9761 0.0000 -0.2175
vn 0.2254 0.0000 0.9743
vn -0.2254 -0.0000 -0.9743
vn -0.0000 -1.0000 -0.0000
vn 0.0000 1.0000 0.0000
vn 0.8750 0.0000 0.4841
vn 0.7161 0.0000 0.6980
vn 0.5555 0.0000 0.8315
vn 0.4104 0.0000 0.9119
vn 0.2813 0.0000 0.9596
vn 0.1641 0.0000 0.9864
vn 0.0539 0.0000 0.9985
vn -0.0539 0.0000 0.9985
vn -0.1641 0.0000 0.9864
vn -0.2812 0.0000 0.9596
vn -0.4104 0.0000 0.9119
vn -0.5555 0.0000 0.8315
vn -0.7161 0.0000 0.6980
vn -0.8750 -0.0000 0.4841
vn -0.9840 -0.0000 0.1781
vn -0.9841 -0.0000 0.1776
usemtl None.021
s 1
f 1/1/1 2/2/1 3/3/1
f 4/4/2 5/5/2 6/6/2
f 3/7/3 7/8/3 1/9/3
f 8/10/4 9/11/4 10/12/4
f 11/13/5 12/14/5 1/15/5
f 13/16/6 2/17/6 14/18/6
f 15/19/7 16/20/7 17/21/7
f 17/21/8 18/22/8 19/23/8
f 19/23/9 20/24/9 21/25/9
f 21/25/10 4/26/10 6/27/10
f 22/28/11 23/29/11 5/30/11
f 23/29/12 12/31/12 24/32/12
f 24/32/13 11/33/13 25/34/13
f 26/35/14 11/33/14 27/36/14
f 28/37/15 27/36/15 29/38/15
f 30/39/16 29/38/16 31/40/16
f 9/41/17 31/40/17 32/42/17
f 10/43/18 32/42/18 33/44/18
f 34/45/19 33/44/19 35/46/19
f 8/47/20 35/46/20 7/48/20
f 1/1/1 14/49/1 2/2/1
f 4/4/2 22/50/2 5/5/2
f 3/7/3 8/51/3 7/8/3
f 34/52/4 8/10/4 10/12/4
f 8/10/4 3/53/4 26/54/4
f 3/53/4 2/55/4 15/56/4
f 15/56/4 17/57/4 3/53/4
f 17/57/4 19/58/4 3/53/4
f 19/58/4 21/59/4 3/53/4
f 21/59/4 6/60/4 3/53/4
f 6/60/4 5/61/4 3/53/4
f 5/61/4 23/62/4 3/53/4
f 23/62/4 24/63/4 3/53/4
f 24/63/4 25/64/4 3/53/4
f 25/64/4 26/54/4 3/53/4
f 26/54/4 28/65/4 8/10/4
f 8/10/4 28/65/4 30/66/4
f 30/66/4 9/11/4 8/10/4
f 12/14/5 36/67/5 1/15/5
f 36/67/5 22/68/5 1/15/5
f 22/68/5 4/69/5 1/15/5
f 4/69/5 20/70/5 1/15/5
f 20/70/5 18/71/5 1/15/5
f 18/71/5 16/72/5 1/15/5
f 16/72/5 13/73/5 1/15/5
f 13/73/5 14/74/5 1/15/5
f 1/15/5 7/75/5 27/76/5
f 27/76/5 7/75/5 29/77/5
f 7/75/5 35/78/5 33/79/5
f 33/79/5 32/80/5 7/75/5
f 32/80/5 31/81/5 7/75/5
f 31/81/5 29/77/5 7/75/5
f 27/76/5 11/13/5 1/15/5
f 13/16/6 15/19/6 2/17/6
f 15/19/7 13/16/7 16/20/7
f 17/21/8 16/20/8 18/22/8
f 19/23/9 18/22/9 20/24/9
f 21/25/10 20/24/10 4/26/10
f 22/28/11 36/82/11 23/29/11
f 23/29/12 36/82/12 12/31/12
f 24/32/13 12/31/13 11/33/13
f 26/35/14 25/34/14 11/33/14
f 28/37/15 26/35/15 27/36/15
f 30/39/16 28/37/16 29/38/16
f 9/41/17 30/39/17 31/40/17
f 10/43/18 9/41/18 32/42/18
f 34/45/19 10/43/19 33/44/19
f 8/47/20 34/45/21 35/46/20
