# Blender v2.93.5 OBJ File: ''
# www.blender.org
mtllib terrain Woods #195.mtl
o terrain_Woods_#195_terrain_Woods_#195_terrain_Woods_#195_terrain_Woods_#195_te
v -6.229134 0.019181 1.566751
v -4.149704 0.019183 2.350019
v -4.149736 0.019172 1.566708
v 4.167839 0.019146 1.566538
v 6.247268 0.019150 2.349805
v 6.247236 0.019139 1.566494
v 2.088446 0.019152 1.566581
v 4.167871 0.019156 2.349847
v 0.009053 0.019159 1.566623
v 2.088478 0.019163 2.349891
v -2.070310 0.019178 2.349975
v 0.009084 0.019169 2.349932
v -2.070343 0.019168 1.566666
v 5.032426 0.019102 -1.380267
v 4.167707 0.019102 -1.566700
v 5.446173 0.019103 -1.161772
v 4.167743 0.019113 -0.783390
v 6.310799 0.019108 -0.566748
v 4.167772 0.019124 -0.000081
v 6.247168 0.019117 -0.000126
v 6.247203 0.019128 0.783185
v 4.167807 0.019134 0.783229
v 4.273787 0.019101 -1.771001
v 2.088315 0.019109 -1.566660
v 2.088349 0.019120 -0.783350
v 2.088380 0.019130 -0.000040
v 2.088411 0.019141 0.783270
v 2.088281 0.019098 -2.349967
v 0.008920 0.019115 -1.566615
v 0.008955 0.019127 -0.783306
v 0.008986 0.019137 0.000004
v 0.009017 0.019148 0.783314
v 0.008887 0.019105 -2.349925
v -2.070475 0.019124 -1.566571
v -2.070440 0.019135 -0.783261
v -2.070408 0.019146 0.000046
v -2.070377 0.019156 0.783358
v -3.985446 0.019125 -1.841873
v -2.309193 0.019115 -2.200683
v -4.149867 0.019128 -1.566530
v -4.149834 0.019140 -0.783221
v -4.149802 0.019150 0.000089
v -4.149769 0.019161 0.783399
v -4.775886 0.019132 -1.504396
v -5.714726 0.019143 -1.072736
v -6.154954 0.019151 -0.378225
v -6.229198 0.019159 0.000133
v -6.229164 0.019169 0.783443
v -4.149702 -0.020687 2.350019
v -6.229130 -0.020690 1.566751
v -4.149734 -0.020699 1.566708
v 6.247271 -0.020721 2.349805
v 4.167842 -0.020725 1.566538
v 6.247241 -0.020732 1.566495
v 4.167875 -0.020714 2.349847
v 2.088450 -0.020718 1.566581
v 2.088482 -0.020706 2.349891
v 0.009055 -0.020712 1.566623
v -2.070307 -0.020692 2.349975
v -2.070340 -0.020703 1.566666
v 5.032428 -0.020767 -1.380267
v 4.167709 -0.020768 -1.566700
v 4.273789 -0.020769 -1.771001
v 5.446176 -0.020767 -1.161772
v 4.167744 -0.020756 -0.783390
v 6.310800 -0.020762 -0.566748
v 4.167775 -0.020746 -0.000081
v 6.247204 -0.020742 0.783185
v 6.247169 -0.020753 -0.000126
v 4.167809 -0.020736 0.783229
v 2.088316 -0.020761 -1.566660
v 2.088285 -0.020772 -2.349967
v 2.088352 -0.020750 -0.783349
v 2.088384 -0.020739 -0.000040
v 2.088415 -0.020728 0.783270
v 0.008921 -0.020755 -1.566615
v 0.008891 -0.020765 -2.349925
v 0.008958 -0.020743 -0.783306
v 0.008989 -0.020733 0.000004
v 0.009020 -0.020722 0.783314
v -2.070472 -0.020746 -1.566571
v -2.309190 -0.020754 -2.200683
v -2.070437 -0.020735 -0.783261
v -2.070406 -0.020724 0.000046
v -2.070375 -0.020714 0.783358
v -3.985444 -0.020745 -1.841873
v -4.149867 -0.020741 -1.566530
v -4.149832 -0.020730 -0.783221
v -4.149800 -0.020720 0.000089
v -4.149768 -0.020709 0.783399
v -4.775882 -0.020738 -1.504396
v -5.714724 -0.020727 -1.072736
v -6.154952 -0.020719 -0.378225
v -6.229197 -0.020711 0.000133
v -6.229160 -0.020700 0.783443
v -6.229096 -0.020679 2.350061
v -6.229100 0.019191 2.350061
v 0.009087 -0.020701 2.349932
vt 1.000000 0.833333
vt 0.833333 1.000000
vt 0.833333 0.833333
vt 0.166667 0.833333
vt 0.000000 1.000000
vt 0.000000 0.833333
vt 0.333333 0.833333
vt 0.166667 1.000000
vt 0.500000 0.833333
vt 0.333333 1.000000
vt 0.666667 1.000000
vt 0.500000 1.000000
vt 0.666667 0.833333
vt 0.000000 0.000000
vt 0.166667 0.166667
vt 0.000000 0.166667
vt 0.166667 0.333333
vt 0.000000 0.333333
vt 0.166667 0.500000
vt 0.000000 0.500000
vt 0.000000 0.666667
vt 0.166667 0.666667
vt 0.166667 0.000000
vt 0.333333 0.166667
vt 0.333333 0.333333
vt 0.333333 0.500000
vt 0.333333 0.666667
vt 0.333333 0.000000
vt 0.500000 0.166667
vt 0.500000 0.333333
vt 0.500000 0.500000
vt 0.500000 0.666667
vt 0.500000 0.000000
vt 0.666667 0.166667
vt 0.666667 0.333333
vt 0.666667 0.500000
vt 0.666667 0.666667
vt 0.833333 0.000000
vt 0.666667 0.000000
vt 0.833333 0.166667
vt 0.833333 0.333333
vt 0.833333 0.500000
vt 0.833333 0.666667
vt 1.000000 0.000000
vt 1.000000 0.166667
vt 1.000000 0.333333
vt 1.000000 0.500000
vt 1.000000 0.666667
vt 0.833333 1.000000
vt 1.000000 0.833333
vt 0.833333 0.833333
vt 0.000000 1.000000
vt 0.166667 0.833333
vt 0.000000 0.833333
vt 0.166667 1.000000
vt 0.333333 0.833333
vt 0.333333 1.000000
vt 0.500000 0.833333
vt 0.666667 1.000000
vt 0.666667 0.833333
vt 0.000000 0.000000
vt 0.166667 0.166667
vt 0.166667 0.000000
vt 0.000000 0.166667
vt 0.166667 0.333333
vt 0.000000 0.333333
vt 0.166667 0.500000
vt 0.000000 0.666667
vt 0.000000 0.500000
vt 0.166667 0.666667
vt 0.333333 0.166667
vt 0.333333 0.000000
vt 0.333333 0.333333
vt 0.333333 0.500000
vt 0.333333 0.666667
vt 0.500000 0.166667
vt 0.500000 0.000000
vt 0.500000 0.333333
vt 0.500000 0.500000
vt 0.500000 0.666667
vt 0.666667 0.166667
vt 0.666667 0.000000
vt 0.666667 0.333333
vt 0.666667 0.500000
vt 0.666667 0.666667
vt 0.833333 0.000000
vt 0.833333 0.166667
vt 0.833333 0.333333
vt 0.833333 0.500000
vt 0.833333 0.666667
vt 1.000000 0.000000
vt 1.000000 0.166667
vt 1.000000 0.333333
vt 1.000000 0.500000
vt 1.000000 0.666667
vt 1.000000 1.000000
vt 1.000000 1.000000
vt 0.500000 1.000000
vn 0.0000 1.0000 -0.0000
vn -0.0000 -1.0000 0.0000
vn 0.4670 0.0000 -0.8843
vn 0.4624 0.0000 -0.8867
vn -0.3927 -0.0000 -0.9197
vn -1.0000 -0.0001 0.0000
vn 0.0000 0.0000 1.0000
vn 1.0000 0.0001 -0.0000
vn 1.0000 0.0000 -0.0000
vn 0.9938 0.0000 0.1116
vn 0.5669 0.0000 -0.8238
vn 0.5669 0.0001 -0.8238
vn 0.4579 0.0000 -0.8890
vn 0.2561 0.0000 -0.9667
vn -0.0000 -0.0000 -1.0000
vn -0.0642 -0.0000 -0.9979
vn -0.2093 -0.0000 -0.9778
vn -0.4177 -0.0000 -0.9086
vn -0.8446 -0.0001 -0.5354
vn -0.9813 -0.0001 -0.1926
vn -0.9813 -0.0000 -0.1926
vn -1.0000 -0.0000 0.0000
usemtl None.001
s 1
f 1/1/1 2/2/1 3/3/1
f 4/4/1 5/5/1 6/6/1
f 7/7/1 8/8/1 4/4/1
f 9/9/1 10/10/1 7/7/1
f 9/9/1 11/11/1 12/12/1
f 13/13/1 2/2/1 11/11/1
f 14/14/1 15/15/1 16/16/1
f 16/16/1 17/17/1 18/18/1
f 18/18/1 19/19/1 20/20/1
f 19/19/1 21/21/1 20/20/1
f 22/22/1 6/6/1 21/21/1
f 23/23/1 24/24/1 15/15/1
f 24/24/1 17/17/1 15/15/1
f 25/25/1 19/19/1 17/17/1
f 26/26/1 22/22/1 19/19/1
f 27/27/1 4/4/1 22/22/1
f 28/28/1 29/29/1 24/24/1
f 29/29/1 25/25/1 24/24/1
f 30/30/1 26/26/1 25/25/1
f 31/31/1 27/27/1 26/26/1
f 32/32/1 7/7/1 27/27/1
f 33/33/1 34/34/1 29/29/1
f 34/34/1 30/30/1 29/29/1
f 35/35/1 31/31/1 30/30/1
f 36/36/1 32/32/1 31/31/1
f 37/37/1 9/9/1 32/32/1
f 38/38/1 34/34/1 39/39/1
f 40/40/1 35/35/1 34/34/1
f 41/41/1 36/36/1 35/35/1
f 42/42/1 37/37/1 36/36/1
f 43/43/1 13/13/1 37/37/1
f 44/44/1 40/40/1 38/38/1
f 45/45/1 41/41/1 40/40/1
f 46/46/1 42/42/1 41/41/1
f 47/47/1 43/43/1 42/42/1
f 48/48/1 3/3/1 43/43/1
f 49/49/2 50/50/2 51/51/2
f 52/52/2 53/53/2 54/54/2
f 55/55/2 56/56/2 53/53/2
f 57/57/2 58/58/2 56/56/2
f 58/58/2 59/59/2 60/60/2
f 60/60/2 49/49/2 51/51/2
f 61/61/2 62/62/2 63/63/2
f 64/64/2 65/65/2 62/62/2
f 66/66/2 67/67/2 65/65/2
f 68/68/2 67/67/2 69/69/2
f 54/54/2 70/70/2 68/68/2
f 63/63/2 71/71/2 72/72/2
f 65/65/2 71/71/2 62/62/2
f 67/67/2 73/73/2 65/65/2
f 70/70/2 74/74/2 67/67/2
f 53/53/2 75/75/2 70/70/2
f 72/72/2 76/76/2 77/77/2
f 73/73/2 76/76/2 71/71/2
f 74/74/2 78/78/2 73/73/2
f 75/75/2 79/79/2 74/74/2
f 56/56/2 80/80/2 75/75/2
f 77/77/2 81/81/2 82/82/2
f 78/78/2 81/81/2 76/76/2
f 79/79/2 83/83/2 78/78/2
f 80/80/2 84/84/2 79/79/2
f 58/58/2 85/85/2 80/80/2
f 81/81/2 86/86/2 82/82/2
f 83/83/2 87/87/2 81/81/2
f 84/84/2 88/88/2 83/83/2
f 85/85/2 89/89/2 84/84/2
f 60/60/2 90/90/2 85/85/2
f 87/87/2 91/91/2 86/86/2
f 88/88/2 92/92/2 87/87/2
f 89/89/2 93/93/2 88/88/2
f 90/90/2 94/94/2 89/89/2
f 51/51/2 95/95/2 90/90/2
f 16/16/3 61/61/4 14/14/4
f 38/38/5 91/91/5 44/44/5
f 1/1/6 96/96/6 97/97/6
f 8/8/7 52/52/7 5/5/7
f 5/5/8 54/54/8 6/6/8
f 6/6/8 68/68/8 21/21/8
f 21/21/8 69/69/9 20/20/9
f 20/20/10 66/66/10 18/18/10
f 18/18/11 64/64/12 16/16/12
f 14/14/4 63/63/13 23/23/13
f 23/23/14 72/72/14 28/28/14
f 28/28/15 77/77/15 33/33/15
f 33/33/16 82/82/16 39/39/16
f 39/39/17 86/86/17 38/38/17
f 44/44/18 92/92/18 45/45/18
f 45/45/19 93/93/19 46/46/19
f 46/46/20 94/94/21 47/47/21
f 47/47/22 95/95/6 48/48/6
f 48/48/6 50/50/6 1/1/6
f 97/97/7 49/49/7 2/2/7
f 2/2/7 59/59/7 11/11/7
f 11/11/7 98/98/7 12/12/7
f 12/12/7 57/57/7 10/10/7
f 10/10/7 55/55/7 8/8/7
f 1/1/1 97/97/1 2/2/1
f 4/4/1 8/8/1 5/5/1
f 7/7/1 10/10/1 8/8/1
f 9/9/1 12/12/1 10/10/1
f 9/9/1 13/13/1 11/11/1
f 13/13/1 3/3/1 2/2/1
f 14/14/1 23/23/1 15/15/1
f 16/16/1 15/15/1 17/17/1
f 18/18/1 17/17/1 19/19/1
f 19/19/1 22/22/1 21/21/1
f 22/22/1 4/4/1 6/6/1
f 23/23/1 28/28/1 24/24/1
f 24/24/1 25/25/1 17/17/1
f 25/25/1 26/26/1 19/19/1
f 26/26/1 27/27/1 22/22/1
f 27/27/1 7/7/1 4/4/1
f 28/28/1 33/33/1 29/29/1
f 29/29/1 30/30/1 25/25/1
f 30/30/1 31/31/1 26/26/1
f 31/31/1 32/32/1 27/27/1
f 32/32/1 9/9/1 7/7/1
f 33/33/1 39/39/1 34/34/1
f 34/34/1 35/35/1 30/30/1
f 35/35/1 36/36/1 31/31/1
f 36/36/1 37/37/1 32/32/1
f 37/37/1 13/13/1 9/9/1
f 38/38/1 40/40/1 34/34/1
f 40/40/1 41/41/1 35/35/1
f 41/41/1 42/42/1 36/36/1
f 42/42/1 43/43/1 37/37/1
f 43/43/1 3/3/1 13/13/1
f 44/44/1 45/45/1 40/40/1
f 45/45/1 46/46/1 41/41/1
f 46/46/1 47/47/1 42/42/1
f 47/47/1 48/48/1 43/43/1
f 48/48/1 1/1/1 3/3/1
f 49/49/2 96/96/2 50/50/2
f 52/52/2 55/55/2 53/53/2
f 55/55/2 57/57/2 56/56/2
f 57/57/2 98/98/2 58/58/2
f 58/58/2 98/98/2 59/59/2
f 60/60/2 59/59/2 49/49/2
f 61/61/2 64/64/2 62/62/2
f 64/64/2 66/66/2 65/65/2
f 66/66/2 69/69/2 67/67/2
f 68/68/2 70/70/2 67/67/2
f 54/54/2 53/53/2 70/70/2
f 63/63/2 62/62/2 71/71/2
f 65/65/2 73/73/2 71/71/2
f 67/67/2 74/74/2 73/73/2
f 70/70/2 75/75/2 74/74/2
f 53/53/2 56/56/2 75/75/2
f 72/72/2 71/71/2 76/76/2
f 73/73/2 78/78/2 76/76/2
f 74/74/2 79/79/2 78/78/2
f 75/75/2 80/80/2 79/79/2
f 56/56/2 58/58/2 80/80/2
f 77/77/2 76/76/2 81/81/2
f 78/78/2 83/83/2 81/81/2
f 79/79/2 84/84/2 83/83/2
f 80/80/2 85/85/2 84/84/2
f 58/58/2 60/60/2 85/85/2
f 81/81/2 87/87/2 86/86/2
f 83/83/2 88/88/2 87/87/2
f 84/84/2 89/89/2 88/88/2
f 85/85/2 90/90/2 89/89/2
f 60/60/2 51/51/2 90/90/2
f 87/87/2 92/92/2 91/91/2
f 88/88/2 93/93/2 92/92/2
f 89/89/2 94/94/2 93/93/2
f 90/90/2 95/95/2 94/94/2
f 51/51/2 50/50/2 95/95/2
f 16/16/3 64/64/3 61/61/4
f 38/38/5 86/86/5 91/91/5
f 1/1/6 50/50/6 96/96/6
f 8/8/7 55/55/7 52/52/7
f 5/5/8 52/52/8 54/54/8
f 6/6/8 54/54/8 68/68/8
f 21/21/8 68/68/8 69/69/9
f 20/20/10 69/69/10 66/66/10
f 18/18/11 66/66/11 64/64/12
f 14/14/4 61/61/4 63/63/13
f 23/23/14 63/63/14 72/72/14
f 28/28/15 72/72/15 77/77/15
f 33/33/16 77/77/16 82/82/16
f 39/39/17 82/82/17 86/86/17
f 44/44/18 91/91/18 92/92/18
f 45/45/19 92/92/19 93/93/19
f 46/46/20 93/93/20 94/94/21
f 47/47/22 94/94/22 95/95/6
f 48/48/6 95/95/6 50/50/6
f 97/97/7 96/96/7 49/49/7
f 2/2/7 49/49/7 59/59/7
f 11/11/7 59/59/7 98/98/7
f 12/12/7 98/98/7 57/57/7
f 10/10/7 57/57/7 55/55/7
