# Blender v2.82 (sub 7) OBJ File: ''
# www.blender.org
mtllib terrain_1-5x3_uvw.mtl
v 2.360000 0.000000 0.000000
v 2.297600 0.000000 -0.270400
v 2.297600 0.040000 -0.270400
v 2.360000 0.040000 0.000000
v 2.119900 0.000000 -0.518700
v 2.119900 0.040000 -0.518700
v 1.841200 0.000000 -0.737800
v 1.841200 0.040000 -0.737800
v 1.475600 0.000000 -0.920600
v 1.475600 0.040000 -0.920600
v 1.037400 0.000000 -1.060000
v 1.037400 0.040000 -1.060000
v 0.540800 0.000000 -1.148800
v 0.540800 0.040000 -1.148800
v 0.000000 0.000000 -1.180000
v 0.000000 0.040000 -1.180000
v -0.540800 0.000000 -1.148800
v -0.540800 0.040000 -1.148800
v -1.037400 0.000000 -1.060000
v -1.037400 0.040000 -1.060000
v -1.475600 0.000000 -0.920600
v -1.475600 0.040000 -0.920600
v -1.841200 0.000000 -0.737800
v -1.841200 0.040000 -0.737800
v -2.119900 0.000000 -0.518700
v -2.119900 0.040000 -0.518700
v -2.297600 0.000000 -0.270400
v -2.297600 0.040000 -0.270400
v -2.360000 0.000000 0.000000
v -2.360000 0.040000 0.000000
v -2.297600 -0.000000 0.270400
v -2.297600 0.040000 0.270400
v -2.119900 -0.000000 0.518700
v -2.119900 0.040000 0.518700
v -1.841200 -0.000000 0.737800
v -1.841200 0.040000 0.737800
v -1.475600 -0.000000 0.920600
v -1.475600 0.040000 0.920600
v -1.037400 -0.000000 1.060000
v -1.037400 0.040000 1.060000
v -0.540800 -0.000000 1.148800
v -0.540800 0.040000 1.148800
v 0.000000 -0.000000 1.180000
v 0.000000 0.040000 1.180000
v 0.540800 -0.000000 1.148800
v 0.540800 0.040000 1.148800
v 1.037400 -0.000000 1.060000
v 1.037400 0.040000 1.060000
v 1.475600 -0.000000 0.920600
v 1.475600 0.040000 0.920600
v 1.841200 -0.000000 0.737800
v 1.841200 0.040000 0.737800
v 2.119900 -0.000000 0.518700
v 2.119900 0.040000 0.518700
v 2.297600 -0.000000 0.270400
v 2.297600 0.040000 0.270400
vt 0.848999 0.941259
vt 0.877617 0.932911
vt 0.879769 0.937145
vt 0.849127 0.945940
vt 0.903894 0.911366
vt 0.907369 0.914639
vt 0.926920 0.878245
vt 0.931033 0.880580
vt 0.945670 0.835652
vt 0.950088 0.837193
vt 0.958678 0.784893
vt 0.963240 0.785760
vt 0.965593 0.727976
vt 0.970204 0.728262
vt 0.965603 0.666492
vt 0.970204 0.666229
vt 0.958431 0.605471
vt 0.962965 0.604664
vt 0.944942 0.549929
vt 0.949335 0.548547
vt 0.925925 0.501534
vt 0.930084 0.499538
vt 0.902843 0.461585
vt 0.906592 0.458890
vt 0.876480 0.432081
vt 0.879501 0.428591
vt 0.848365 0.413885
vt 0.850148 0.409618
vt 0.819234 0.408172
vt 0.819106 0.403491
vt 0.790616 0.416520
vt 0.788464 0.412286
vt 0.764339 0.438065
vt 0.760864 0.434792
vt 0.741313 0.471186
vt 0.737200 0.468851
vt 0.722563 0.513779
vt 0.718145 0.512238
vt 0.709555 0.564539
vt 0.704993 0.563671
vt 0.702640 0.621456
vt 0.698029 0.621169
vt 0.702630 0.682940
vt 0.698029 0.683202
vt 0.709802 0.743960
vt 0.705268 0.744768
vt 0.723291 0.799503
vt 0.718898 0.800884
vt 0.742308 0.847898
vt 0.738149 0.849893
vt 0.765390 0.887846
vt 0.761641 0.890541
vt 0.791753 0.917350
vt 0.788733 0.920840
vt 0.819868 0.935546
vt 0.818085 0.939813
vt 0.563913 0.940967
vt 0.511574 0.954317
vt 0.458677 0.943382
vt 0.409566 0.909912
vt 0.611437 0.905279
vt 0.365687 0.856657
vt 0.652827 0.850068
vt 0.686766 0.778108
vt 0.328483 0.786330
vt 0.299400 0.701682
vt 0.711936 0.692215
vt 0.726998 0.595184
vt 0.279902 0.605444
vt 0.730654 0.489809
vt 0.271416 0.500348
vt 0.722168 0.384713
vt 0.275072 0.394973
vt 0.702671 0.288475
vt 0.290135 0.297941
vt 0.315304 0.212048
vt 0.673588 0.203827
vt 0.636384 0.133500
vt 0.349243 0.140089
vt 0.390634 0.084878
vt 0.592504 0.080245
vt 0.438158 0.049190
vt 0.543393 0.046775
vt 0.490497 0.035840
vn 0.9744 0.0000 -0.2249
vn 0.8132 0.0000 -0.5820
vn 0.6180 0.0000 -0.7862
vn 0.4472 0.0000 -0.8944
vn 0.3031 0.0000 -0.9529
vn 0.1760 0.0000 -0.9844
vn 0.0576 0.0000 -0.9983
vn -0.0576 0.0000 -0.9983
vn -0.1760 0.0000 -0.9844
vn -0.3031 0.0000 -0.9529
vn -0.4472 0.0000 -0.8944
vn -0.6180 0.0000 -0.7862
vn -0.8132 0.0000 -0.5820
vn -0.9744 0.0000 -0.2249
vn -0.9744 0.0000 0.2249
vn -0.8132 0.0000 0.5820
vn -0.6180 0.0000 0.7862
vn -0.4472 0.0000 0.8944
vn -0.3031 0.0000 0.9529
vn -0.1760 0.0000 0.9844
vn -0.0576 0.0000 0.9983
vn 0.0576 0.0000 0.9983
vn 0.1760 0.0000 0.9844
vn 0.3031 0.0000 0.9529
vn 0.4472 0.0000 0.8944
vn 0.6180 0.0000 0.7862
vn 0.8132 0.0000 0.5820
vn 0.9744 -0.0000 0.2249
vn 0.0000 -1.0000 -0.0000
vn 0.0000 1.0000 0.0000
usemtl Default_OBJ.011
s off
f 1/1/1 2/2/1 3/3/1
f 1/1/1 3/3/1 4/4/1
f 2/2/2 5/5/2 6/6/2
f 2/2/2 6/6/2 3/3/2
f 5/5/3 7/7/3 8/8/3
f 5/5/3 8/8/3 6/6/3
f 7/7/4 9/9/4 10/10/4
f 7/7/4 10/10/4 8/8/4
f 9/9/5 11/11/5 12/12/5
f 9/9/5 12/12/5 10/10/5
f 11/11/6 13/13/6 14/14/6
f 11/11/6 14/14/6 12/12/6
f 13/13/7 15/15/7 16/16/7
f 13/13/7 16/16/7 14/14/7
f 15/15/8 17/17/8 18/18/8
f 15/15/8 18/18/8 16/16/8
f 17/17/9 19/19/9 20/20/9
f 17/17/9 20/20/9 18/18/9
f 19/19/10 21/21/10 22/22/10
f 19/19/10 22/22/10 20/20/10
f 21/21/11 23/23/11 24/24/11
f 21/21/11 24/24/11 22/22/11
f 23/23/12 25/25/12 26/26/12
f 23/23/12 26/26/12 24/24/12
f 25/25/13 27/27/13 28/28/13
f 25/25/13 28/28/13 26/26/13
f 27/27/14 29/29/14 30/30/14
f 27/27/14 30/30/14 28/28/14
f 29/29/15 31/31/15 32/32/15
f 29/29/15 32/32/15 30/30/15
f 31/31/16 33/33/16 34/34/16
f 31/31/16 34/34/16 32/32/16
f 33/33/17 35/35/17 36/36/17
f 33/33/17 36/36/17 34/34/17
f 35/35/18 37/37/18 38/38/18
f 35/35/18 38/38/18 36/36/18
f 37/37/19 39/39/19 40/40/19
f 37/37/19 40/40/19 38/38/19
f 39/39/20 41/41/20 42/42/20
f 39/39/20 42/42/20 40/40/20
f 41/41/21 43/43/21 44/44/21
f 41/41/21 44/44/21 42/42/21
f 43/43/22 45/45/22 46/46/22
f 43/43/22 46/46/22 44/44/22
f 45/45/23 47/47/23 48/48/23
f 45/45/23 48/48/23 46/46/23
f 47/47/24 49/49/24 50/50/24
f 47/47/24 50/50/24 48/48/24
f 49/49/25 51/51/25 52/52/25
f 49/49/25 52/52/25 50/50/25
f 51/51/26 53/53/26 54/54/26
f 51/51/26 54/54/26 52/52/26
f 53/53/27 55/55/27 56/56/27
f 53/53/27 56/56/27 54/54/27
f 55/55/28 1/1/28 4/4/28
f 55/55/28 4/4/28 56/56/28
f 27/27/29 31/31/29 29/29/29
f 27/27/29 33/33/29 31/31/29
f 25/25/29 33/33/29 27/27/29
f 25/25/29 35/35/29 33/33/29
f 23/23/29 35/35/29 25/25/29
f 21/21/29 35/35/29 23/23/29
f 21/21/29 37/37/29 35/35/29
f 21/21/29 39/39/29 37/37/29
f 19/19/29 39/39/29 21/21/29
f 17/17/29 39/39/29 19/19/29
f 17/17/29 41/41/29 39/39/29
f 15/15/29 41/41/29 17/17/29
f 15/15/29 43/43/29 41/41/29
f 13/13/29 43/43/29 15/15/29
f 13/13/29 45/45/29 43/43/29
f 11/11/29 45/45/29 13/13/29
f 11/11/29 47/47/29 45/45/29
f 11/11/29 49/49/29 47/47/29
f 9/9/29 49/49/29 11/11/29
f 7/7/29 49/49/29 9/9/29
f 7/7/29 51/51/29 49/49/29
f 7/7/29 53/53/29 51/51/29
f 5/5/29 53/53/29 7/7/29
f 5/5/29 55/55/29 53/53/29
f 2/2/29 55/55/29 5/5/29
f 1/1/29 55/55/29 2/2/29
f 28/57/30 30/58/30 32/59/30
f 28/57/30 32/59/30 34/60/30
f 26/61/30 28/57/30 34/60/30
f 26/61/30 34/60/30 36/62/30
f 24/63/30 26/61/30 36/62/30
f 22/64/30 24/63/30 36/62/30
f 22/64/30 36/62/30 38/65/30
f 22/64/30 38/65/30 40/66/30
f 20/67/30 22/64/30 40/66/30
f 18/68/30 20/67/30 40/66/30
f 18/68/30 40/66/30 42/69/30
f 16/70/30 18/68/30 42/69/30
f 16/70/30 42/69/30 44/71/30
f 14/72/30 16/70/30 44/71/30
f 14/72/30 44/71/30 46/73/30
f 12/74/30 14/72/30 46/73/30
f 12/74/30 46/73/30 48/75/30
f 12/74/30 48/75/30 50/76/30
f 10/77/30 12/74/30 50/76/30
f 8/78/30 10/77/30 50/76/30
f 8/78/30 50/76/30 52/79/30
f 8/78/30 52/79/30 54/80/30
f 6/81/30 8/78/30 54/80/30
f 6/81/30 54/80/30 56/82/30
f 3/83/30 6/81/30 56/82/30
f 4/84/30 3/83/30 56/82/30
