# Blender v2.82 (sub 7) OBJ File: ''
# www.blender.org
mtllib Generic_Hill_Dune_3_model_240_120.mtl
v 0.291056 0.043143 2.267492
v -1.243426 0.043143 2.186016
v -0.102904 0.043143 2.319120
v -0.545787 0.043143 2.315377
v -0.545787 -0.000000 2.315377
v -0.102904 -0.000000 2.319120
v -1.243426 -0.000000 2.186016
v 0.291056 -0.000000 2.267492
v -1.730240 -0.000000 1.985925
v 0.603193 -0.000000 2.219024
v 0.603193 0.043143 2.219024
v -1.730240 0.043143 1.985926
v 2.599060 0.000000 -2.035253
v -2.241134 -0.000000 1.784840
v -1.081528 0.000000 -2.216775
v 1.562950 -0.000000 2.050223
v -2.241134 -0.000000 1.784840
v -2.241134 0.043143 1.784840
v -2.737890 0.043144 1.507924
v -2.241134 0.043143 1.784840
v -2.737890 -0.000000 1.507924
v -2.414598 0.043144 -1.884320
v -3.074514 0.043144 -1.627666
v -3.074514 0.000000 -1.627666
v -3.787344 0.043144 -1.273863
v -3.787344 0.000000 -1.273863
v -3.367612 -0.000000 1.238173
v -4.487449 0.043144 0.504885
v -4.640347 0.043144 0.091156
v -4.640347 0.000000 0.091156
v -4.487449 -0.000000 0.504885
v -4.055358 -0.000000 0.971272
v -4.286216 0.000000 -0.680691
v -4.286216 0.043144 -0.680691
v -4.055358 0.043144 0.971271
v -3.367613 0.043144 1.238173
v -2.414598 0.000000 -1.884320
v -1.748302 0.000000 -2.037403
v -1.081528 0.000000 -2.216775
v -1.081528 0.043144 -2.216775
v -1.748302 0.043144 -2.037403
v -1.081529 0.043144 -2.216775
v -0.417756 0.000000 -2.312676
v 2.599060 0.043144 -2.035253
v 1.811735 0.043144 -2.181880
v -0.417756 0.043144 -2.312676
v 0.817406 0.000000 -2.300984
v 0.817406 0.043144 -2.300984
v 1.811735 0.000000 -2.181880
v 4.203394 0.043144 0.805138
v 4.318878 0.043144 0.482164
v 4.352576 0.043144 0.150673
v 4.318878 -0.000000 0.482164
v 4.352576 0.000000 0.150673
v 4.183404 0.000000 -0.490020
v 3.543080 0.043144 1.199693
v 4.183404 0.043144 -0.490020
v 3.799959 0.043144 -1.388319
v 2.445260 0.043143 1.698271
v 2.941937 0.043144 1.456235
v 3.272073 0.043144 -1.866019
v 2.445260 -0.000000 1.698271
v 2.941936 -0.000000 1.456235
v 3.543080 -0.000000 1.199693
v 3.930258 -0.000000 1.038490
v 3.799959 0.000000 -1.388319
v 3.272073 0.000000 -1.866019
v 3.930258 0.043144 1.038490
v 4.203394 -0.000000 0.805138
v 1.904837 -0.000000 1.925214
v 1.904837 0.043143 1.925214
v 1.562950 0.043143 2.050223
v 1.137148 -0.000000 2.125728
v 1.137148 0.043143 2.125728
vt 0.510190 0.098101
vt 0.634750 0.127038
vt 0.543222 0.099586
vt 0.430161 0.533649
vt 0.430161 0.528852
vt 0.479409 0.528852
vt 0.352585 0.528852
vt 0.461543 0.598316
vt 0.496267 0.600867
vt 0.550336 0.614571
vt 0.430374 0.600359
vt 0.523217 0.533649
vt 0.523217 0.528852
vt 0.479409 0.533649
vt 0.579459 0.106317
vt 0.352585 0.533649
vt 0.298451 0.528852
vt 0.587506 0.632748
vt 0.405641 0.602570
vt 0.557926 0.533649
vt 0.557926 0.528852
vt 0.483909 0.097544
vt 0.671739 0.150497
vt 0.298451 0.533649
vt 0.227388 0.926137
vt 0.626559 0.651127
vt 0.515197 0.959135
vt 0.329490 0.610921
vt 0.241641 0.528852
vt 0.241641 0.533649
vt 0.186402 0.533649
vt 0.241641 0.533649
vt 0.241641 0.528852
vt 0.186402 0.528852
vt 0.747376 0.204285
vt 0.671672 0.477570
vt 0.729472 0.466112
vt 0.148970 0.528852
vt 0.069705 0.533649
vt 0.148970 0.533649
vt 0.069705 0.528852
vt 0.732268 0.898956
vt 0.674545 0.923078
vt 0.712143 0.699753
vt 0.988727 0.730767
vt 0.988727 0.684761
vt 0.983929 0.684761
vt 0.983929 0.730767
vt 0.764735 0.724196
vt 0.796255 0.762985
vt 0.806141 0.796220
vt 0.774426 0.854965
vt 0.983929 0.598932
vt 0.988727 0.598932
vt 0.847549 0.267373
vt 0.842502 0.406091
vt 0.882718 0.347980
vt 0.876191 0.311859
vt 0.988727 0.782628
vt 0.983929 0.782628
vt 0.116378 0.533649
vt 0.039902 0.533649
vt 0.039902 0.528852
vt 0.116378 0.528852
vt 0.983929 0.532972
vt 0.988727 0.532972
vt 0.793017 0.447461
vt 0.795065 0.235525
vt 0.664118 0.675382
vt 0.621468 0.939849
vt 0.222352 0.528852
vt 0.222352 0.533649
vt 0.296443 0.528852
vt 0.568418 0.948462
vt 0.515197 0.959135
vt 0.515197 0.959135
vt 0.568418 0.948462
vt 0.515197 0.959135
vt 0.024959 0.547321
vt 0.099103 0.547321
vt 0.099103 0.542523
vt 0.296443 0.533649
vt 0.370587 0.528852
vt 0.370587 0.533649
vt 0.444398 0.528852
vt 0.370587 0.528852
vt 0.557612 0.485473
vt 0.614852 0.480448
vt 0.710687 0.174386
vt 0.258642 0.417204
vt 0.321031 0.440641
vt 0.501828 0.483703
vt 0.444398 0.533649
vt 0.581746 0.528852
vt 0.581746 0.533649
vt 0.400783 0.464826
vt 0.692314 0.528852
vt 0.692314 0.533649
vt 0.462637 0.963275
vt 0.365800 0.956063
vt 0.288404 0.941652
vt 0.779863 0.528852
vt 0.779863 0.533649
vt 0.168382 0.161176
vt 0.154233 0.185967
vt 0.146663 0.212641
vt 0.988727 0.728240
vt 0.988727 0.764154
vt 0.983929 0.728240
vt 0.983929 0.691379
vt 0.988727 0.691379
vt 0.983929 0.620135
vt 0.228214 0.138424
vt 0.151231 0.267597
vt 0.169620 0.346770
vt 0.325407 0.113494
vt 0.281196 0.126122
vt 0.205947 0.393573
vt 0.762761 0.533649
vt 0.762761 0.528852
vt 0.817991 0.528852
vt 0.817991 0.533649
vt 0.884837 0.528852
vt 0.884837 0.533649
vt 0.927891 0.528852
vt 0.854701 0.533649
vt 0.913401 0.528852
vt 0.854701 0.528852
vt 0.913401 0.533649
vt 0.988727 0.620135
vt 0.983929 0.520245
vt 0.988727 0.520245
vt 0.194149 0.146016
vt 0.927891 0.533649
vt 0.958263 0.528852
vt 0.958263 0.533649
vt 0.983929 0.764154
vt 0.100969 0.745719
vt 0.105302 0.719886
vt 0.116007 0.695138
vt 0.110975 0.796842
vt 0.138623 0.678224
vt 0.169818 0.667552
vt 0.136477 0.869266
vt 0.218284 0.650490
vt 0.175454 0.909431
vt 0.258481 0.634034
vt 0.302032 0.618985
vt 0.702667 0.528852
vt 0.702667 0.533649
vt 0.372984 0.102737
vt 0.402814 0.097453
vt 0.664649 0.528852
vt 0.664649 0.533649
vt 0.617301 0.528852
vt 0.363278 0.607168
vt 0.617301 0.533649
vt 0.438801 0.097443
vn 0.0000 1.0000 0.0000
vn -0.0085 0.0000 1.0000
vn -0.1823 0.0000 0.9832
vn 0.0000 -1.0000 -0.0000
vn 0.1299 0.0000 0.9915
vn -0.3802 0.0000 0.9249
vn -0.3686 -0.0000 0.9296
vn 0.1534 0.0000 0.9882
vn -0.3778 -0.0000 0.9259
vn -0.8881 0.0000 -0.4597
vn -0.6155 0.0000 -0.7881
vn -0.7071 0.0000 -0.7071
vn -0.7071 0.0003 -0.7071
vn -0.3662 -0.0000 0.9305
vn -0.4869 0.0000 0.8735
vn -0.4446 0.0000 -0.8957
vn -0.9380 0.0000 0.3466
vn -0.9089 0.0000 -0.4170
vn -0.7336 0.0000 0.6796
vn -0.3618 -0.0000 0.9323
vn -0.7653 0.0000 -0.6437
vn -0.3938 -0.0000 0.9192
vn -0.3625 -0.0000 -0.9320
vn -0.2967 -0.0000 -0.9550
vn -0.2915 -0.0000 -0.9566
vn -0.2239 -0.0000 -0.9746
vn -0.0636 -0.9979 -0.0097
vn -0.0502 -0.9987 -0.0023
vn -0.0711 -0.9974 -0.0100
vn -0.0636 -0.9979 -0.0095
vn -0.2598 0.0000 -0.9657
vn -0.1430 -0.0000 -0.9897
vn 0.0095 0.0000 -1.0000
vn 0.1189 0.0000 -0.9929
vn 0.1831 0.0000 -0.9831
vn 0.9416 0.0000 0.3367
vn 0.9949 0.0000 0.1011
vn 0.9669 -0.0000 -0.2553
vn 0.4381 -0.0000 0.8989
vn 0.3925 -0.0000 0.9197
vn 0.3925 -0.0000 0.9198
vn 0.3844 -0.0000 0.9232
vn 0.4715 0.0000 -0.8819
vn 0.6710 0.0000 -0.7415
vn 0.9197 0.0000 -0.3926
vn 0.6496 0.0000 0.7603
vn 0.3872 0.0000 0.9220
vn 0.3707 0.0000 0.9287
vn 0.3601 -0.0000 0.9329
vn 0.2439 0.0000 -0.9698
vn 0.3434 0.0000 0.9392
vn 0.1746 0.0000 0.9846
vn 0.1722 -0.0000 0.9851
vn 0.1721 0.0000 0.9851
usemtl Default_OBJ.013
s 1
f 1/1/1 2/2/1 3/3/1
f 4/4/2 5/5/2 6/6/2
f 5/5/3 4/4/3 7/7/3
f 6/8/4 5/9/4 7/10/4
f 8/11/4 6/8/4 7/10/4
f 1/12/5 6/6/5 8/13/5
f 3/14/5 6/6/5 1/12/5
f 4/4/2 6/6/2 3/14/2
f 2/2/1 4/15/1 3/3/1
f 7/7/3 4/4/3 2/16/3
f 7/7/6 2/16/6 9/17/7
f 7/10/4 9/18/4 10/19/4
f 8/11/4 7/10/4 10/19/4
f 11/20/8 8/13/8 10/21/8
f 1/12/8 8/13/8 11/20/8
f 2/2/1 1/1/1 11/22/1
f 12/23/1 2/2/1 11/22/1
f 9/17/7 2/16/6 12/24/9
f 13/25/4 14/26/4 15/27/4
f 16/28/4 14/26/4 13/25/4
f 9/17/10 17/29/11 18/30/12 19/31/13 20/32/12 14/33/11
f 14/26/4 16/28/4 9/18/4
f 9/17/7 12/24/9 17/29/14
f 20/32/15 21/34/15 14/33/15
f 19/31/15 21/34/15 20/32/15
f 19/35/1 22/36/1 23/37/1
f 24/38/16 25/39/16 23/40/16
f 26/41/16 25/39/16 24/38/16
f 26/42/4 24/43/4 27/44/4
f 28/45/17 29/46/17 30/47/17
f 31/48/17 28/45/17 30/47/17
f 32/49/4 31/50/4 30/51/4
f 33/52/4 32/49/4 30/51/4
f 29/46/18 33/53/18 30/47/18
f 29/46/18 34/54/18 33/53/18
f 35/55/1 34/56/1 29/57/1
f 28/58/1 35/55/1 29/57/1
f 31/48/19 35/59/19 28/45/19
f 32/60/19 35/59/19 31/48/19
f 36/61/20 35/62/20 32/63/20
f 27/64/20 36/61/20 32/63/20
f 26/42/4 27/44/4 32/49/4
f 33/52/4 26/42/4 32/49/4
f 34/54/21 26/65/21 33/53/21
f 25/66/21 26/65/21 34/54/21
f 35/55/1 25/67/1 34/56/1
f 36/68/1 25/67/1 35/55/1
f 23/37/1 25/67/1 36/68/1
f 19/35/1 23/37/1 36/68/1
f 27/64/22 19/31/22 36/61/22
f 21/34/22 19/31/22 27/64/22
f 24/43/4 21/69/4 27/44/4
f 37/70/4 21/69/4 24/43/4
f 23/40/23 37/71/24 24/38/23
f 22/72/25 37/71/24 23/40/23
f 37/71/24 22/72/25 38/73/26
f 21/69/4 37/70/4 38/74/4
f 14/26/4 21/69/4 38/74/4
f 39/75/27 40/76/28 41/77/29 42/78/28 15/27/30 38/74/29
f 41/79/31 40/80/31 39/81/31
f 41/82/31 39/83/31 38/73/31
f 15/27/4 14/26/4 38/74/4
f 42/84/32 43/85/32 15/86/32
f 42/87/1 41/88/1 18/89/1
f 44/90/1 42/87/1 18/89/1
f 45/91/1 42/87/1 44/90/1
f 42/87/1 45/91/1 46/92/1
f 43/85/32 42/84/32 46/93/32
f 46/93/33 47/94/33 43/85/33
f 48/95/33 47/94/33 46/93/33
f 45/91/1 48/96/1 46/92/1
f 49/97/34 48/95/34 45/98/34
f 47/94/34 48/95/34 49/97/34
f 43/99/4 47/100/4 49/101/4
f 15/27/4 43/99/4 49/101/4
f 13/25/4 15/27/4 49/101/4
f 45/98/35 13/102/35 49/97/35
f 44/103/35 13/102/35 45/98/35
f 50/104/1 51/105/1 52/106/1
f 51/107/36 50/108/36 53/109/36
f 54/110/37 51/107/37 53/109/37
f 52/111/37 51/107/37 54/110/37
f 55/112/38 52/111/38 54/110/38
f 56/113/1 57/114/1 58/115/1
f 59/116/1 60/117/1 61/118/1
f 59/119/39 62/120/39 63/121/39
f 60/122/39 59/119/39 63/121/39
f 60/122/40 63/121/40 64/123/41
f 56/124/42 64/123/41 65/125/42
f 60/122/40 64/123/41 56/124/42
f 58/115/1 60/117/1 56/113/1
f 61/118/1 60/117/1 58/115/1
f 61/126/43 66/127/44 67/128/43
f 58/129/44 66/127/44 61/126/43
f 57/130/45 66/131/45 58/132/45
f 57/130/45 55/112/45 66/131/45
f 52/111/38 55/112/38 57/130/38
f 50/104/1 52/106/1 57/114/1
f 68/133/1 50/104/1 57/114/1
f 56/113/1 68/133/1 57/114/1
f 65/125/42 68/134/42 56/124/42
f 68/134/46 65/125/46 69/135/46
f 50/136/46 68/134/46 69/135/46
f 53/109/36 50/108/36 69/137/36
f 54/138/4 53/139/4 69/140/4
f 55/141/4 54/138/4 69/140/4
f 65/142/4 55/141/4 69/140/4
f 64/143/4 55/141/4 65/142/4
f 66/144/4 55/141/4 64/143/4
f 63/145/4 66/144/4 64/143/4
f 67/146/4 66/144/4 63/145/4
f 62/147/4 67/146/4 63/145/4
f 70/148/4 67/146/4 62/147/4
f 59/119/47 70/149/48 62/120/47
f 71/150/49 70/149/48 59/119/47
f 61/118/1 71/151/1 59/116/1
f 61/118/1 72/152/1 71/151/1
f 44/90/1 72/152/1 61/118/1
f 67/128/43 44/103/50 61/126/43
f 13/102/50 44/103/50 67/128/43
f 16/28/4 13/25/4 67/146/4
f 70/148/4 16/28/4 67/146/4
f 71/150/49 16/153/51 70/149/48
f 72/154/51 16/153/51 71/150/49
f 16/153/52 72/154/52 73/155/52
f 9/18/4 16/28/4 73/156/4
f 10/19/4 9/18/4 73/156/4
f 74/157/53 10/21/54 73/155/52
f 72/154/52 74/157/53 73/155/52
f 12/23/1 74/158/1 72/152/1
f 72/152/1 18/89/1 12/23/1
f 72/152/1 44/90/1 18/89/1
f 18/30/14 17/29/14 12/24/9
f 41/88/1 19/35/1 18/89/1
f 22/36/1 19/35/1 41/88/1
f 22/72/25 41/82/26 38/73/26
f 10/21/54 74/157/53 11/20/54
f 74/158/1 12/23/1 11/22/1
