# Blender v2.83.0 OBJ File: ''
# www.blender.org
mtllib untitled.mtl
o Cube.010
v -0.531690 0.000000 -2.610277
v -1.642256 0.040000 -2.134286
v -0.531690 0.040000 -2.610277
v -0.531690 0.040000 3.000000
v -1.642256 -0.000001 3.000000
v -0.531690 -0.000001 3.000000
v -1.642256 0.040000 3.000000
v -2.642256 -0.000001 3.000000
v -1.642256 0.000000 -2.134286
v -2.726342 0.040000 -1.526476
v -4.035231 0.000000 -1.065640
v -5.251210 0.040000 -0.842961
v -4.035231 0.040000 -1.065640
v -2.642256 0.040000 3.000000
v -3.642256 -0.000001 3.000000
v -2.726342 0.000000 -1.526476
v -3.642256 0.040000 3.000000
v -4.642257 -0.000001 3.000000
v -5.642257 0.040000 3.000000
v -6.642257 -0.000001 3.000000
v -5.642257 -0.000001 3.000000
v -4.642257 0.040000 3.000000
v -5.251210 0.000000 -0.842961
v -6.188675 0.040000 -0.829256
v -7.139112 0.000000 -0.937384
v -8.347688 0.040000 -1.253058
v -7.139112 0.040000 -0.937384
v -6.188675 0.000000 -0.829256
v -6.642257 0.040000 3.000000
v -7.642257 -0.000001 3.000000
v -9.179035 0.000000 -1.414503
v -9.859944 0.040000 -1.276750
v -9.179035 0.040000 -1.414503
v -7.642257 0.040000 3.000000
v -8.642257 -0.000001 3.000000
v -8.347688 0.000000 -1.253058
v -9.859944 0.000000 -1.276750
v -10.364609 0.040000 -1.026093
v -8.642257 0.040000 3.000000
v -9.642257 -0.000001 3.000000
v -9.642257 0.040000 3.000000
v -10.642257 -0.000001 3.000000
v -11.121314 0.000000 -0.299432
v -11.811024 0.040000 0.928269
v -11.121314 0.040000 -0.299432
v -10.642257 0.040000 3.000000
v -11.642257 -0.000001 3.000000
v -10.364609 0.000000 -1.026093
v -11.811024 0.040000 3.000000
v -11.811024 -0.000000 0.928269
v -11.811024 -0.000001 3.000000
v 3.940313 0.040000 3.000000
v 5.100111 0.040000 -0.831905
v 4.484018 0.040000 -1.093592
v -11.642257 0.040000 3.000000
v 0.399835 0.000000 -2.811286
v 0.399835 0.040000 3.000000
v 1.413634 0.040000 -2.720044
v 2.268113 0.000000 -2.512775
v 1.413634 0.000000 -2.720044
v 0.399835 -0.000001 3.000000
v 1.329075 0.040000 3.000000
v 0.399835 0.040000 -2.811286
v 2.268113 0.040000 -2.512775
v 2.969494 0.000000 -2.106571
v 1.329075 -0.000001 3.000000
v 2.305774 0.040000 3.000000
v 2.305774 -0.000001 3.000000
v 3.012007 0.040000 3.000000
v 3.783993 0.040000 -1.640024
v 4.484018 0.000000 -1.093592
v 3.783993 0.000000 -1.640024
v 3.012007 -0.000001 3.000000
v 2.969494 0.040000 -2.106571
v 5.100111 0.000000 -0.831905
v 3.940313 -0.000001 3.000000
v 4.643827 0.040000 3.000000
v 4.643827 -0.000001 3.000000
v 5.293543 0.040000 3.000000
v 5.898118 0.040000 -0.457086
v 6.532598 0.000000 -0.318127
v 5.898118 0.000000 -0.457086
v 5.293543 -0.000001 3.000000
v 5.796942 0.040000 3.000000
v 5.796942 -0.000001 3.000000
v 6.574811 0.040000 3.000000
v 6.574811 -0.000001 3.000000
v 7.111755 0.040000 3.000000
v 6.532598 0.040000 -0.318127
v 7.189241 0.000000 -0.340983
v 7.942298 0.040000 -0.515931
v 8.627295 0.000000 -0.736298
v 7.942298 0.000000 -0.515931
v 7.111755 -0.000001 3.000000
v 7.828436 0.040000 3.000000
v 7.189241 0.040000 -0.340983
v 7.828436 -0.000001 3.000000
v 8.595459 0.040000 3.000000
v 9.295537 -0.000001 3.000000
v 9.956408 0.040000 3.000000
v 9.295537 0.040000 3.000000
v 8.595459 -0.000001 3.000000
v 8.627295 0.040000 -0.736298
v 9.337799 0.000000 -0.884127
v 10.071374 0.040000 -0.814090
v 10.797772 0.000000 -0.675191
v 10.071374 0.000000 -0.814090
v 9.337799 0.040000 -0.884127
v 9.956408 -0.000001 3.000000
v 10.639629 0.040000 3.000000
v 11.331497 0.040000 -0.486406
v 11.811000 0.000000 -0.127875
v 11.331497 0.000000 -0.486406
v 10.639629 -0.000001 3.000000
v 11.335924 0.040000 3.000000
v 10.797772 0.040000 -0.675191
v 11.811000 0.040000 -0.127875
v 11.811000 -0.000001 3.000000
v 11.335924 -0.000001 3.000000
v 11.811000 0.040000 3.000000
vt 0.019821 0.653582
vt 0.017202 0.688201
vt 0.017202 0.653582
vt 0.989780 0.477492
vt 0.993187 0.430478
vt 0.993187 0.477492
vt 0.989780 0.430478
vt 0.993187 0.388145
vt 0.019821 0.688201
vt 0.017202 0.721580
vt 0.019821 0.762671
vt 0.017202 0.801440
vt 0.017202 0.762671
vt 0.989780 0.388145
vt 0.993187 0.345811
vt 0.019821 0.721580
vt 0.989780 0.345811
vt 0.993187 0.303478
vt 0.989780 0.261145
vt 0.993187 0.218811
vt 0.993187 0.261145
vt 0.989780 0.303478
vt 0.019821 0.801440
vt 0.017202 0.831787
vt 0.019821 0.862907
vt 0.017202 0.902996
vt 0.017202 0.862907
vt 0.019821 0.831787
vt 0.989780 0.218811
vt 0.993187 0.176478
vt 0.019821 0.930411
vt 0.017202 0.952083
vt 0.017202 0.930411
vt 0.989780 0.176478
vt 0.993187 0.134145
vt 0.019821 0.902996
vt 0.019821 0.952083
vt 0.017202 0.967715
vt 0.989780 0.134145
vt 0.993187 0.091811
vt 0.989780 0.091811
vt 0.993187 0.049478
vt 0.014583 0.938604
vt 0.017202 0.894270
vt 0.017202 0.938604
vt 0.989780 0.049478
vt 0.993187 0.007144
vt 0.014583 0.967715
vt 0.996593 0.180387
vt 1.000000 0.095540
vt 1.000000 0.180387
vt 0.494890 0.666807
vt 0.168564 0.715905
vt 0.146279 0.689824
vt 0.989780 0.007144
vt 0.993187 0.000000
vt 0.019821 0.623970
vt 0.989780 0.516927
vt 0.017202 0.590845
vt 0.019821 0.562548
vt 0.019821 0.590845
vt 0.993187 0.516927
vt 0.989780 0.556265
vt 0.017202 0.623970
vt 0.017202 0.562548
vt 0.019821 0.538637
vt 0.993187 0.556265
vt 0.989780 0.597612
vt 0.993187 0.597612
vt 0.989780 0.627509
vt 0.017202 0.510885
vt 0.019821 0.486611
vt 0.019821 0.510885
vt 0.993187 0.627509
vt 0.989780 0.666807
vt 0.017202 0.538637
vt 0.017202 0.486611
vt 0.019821 0.465884
vt 0.993187 0.666807
vt 0.989780 0.696589
vt 0.993187 0.696589
vt 0.989780 0.724094
vt 0.017202 0.438932
vt 0.019821 0.417963
vt 0.019821 0.438932
vt 0.993187 0.724094
vt 0.989780 0.745404
vt 0.017202 0.465884
vt 0.993187 0.745404
vt 0.989780 0.778334
vt 0.993187 0.778334
vt 0.989780 0.801065
vt 0.017202 0.417963
vt 0.019821 0.396745
vt 0.017202 0.372843
vt 0.019821 0.351278
vt 0.019821 0.372843
vt 0.993187 0.801065
vt 0.989780 0.831404
vt 0.017202 0.396745
vt 0.993187 0.831404
vt 0.989780 0.863875
vt 0.993187 0.893512
vt 0.989780 0.921489
vt 0.989780 0.893512
vt 0.993187 0.863875
vt 0.017202 0.351278
vt 0.019821 0.328676
vt 0.017202 0.304695
vt 0.019821 0.280748
vt 0.019821 0.304695
vt 0.017202 0.328676
vt 0.993187 0.921489
vt 0.989780 0.950412
vt 0.017202 0.262901
vt 0.019821 0.246320
vt 0.019821 0.262901
vt 0.993187 0.950412
vt 0.989780 0.979888
vt 0.017202 0.280748
vt 0.740149 0.001273
vt 0.872562 0.004680
vt 0.740149 0.004679
vt 0.993187 0.979888
vt 0.989780 1.000000
vt 0.019821 0.967715
vt 0.014583 0.894270
vt 0.031250 0.285156
vt 0.031250 0.323025
vt 0.027844 0.323025
vt 0.996593 0.095540
vt 0.989780 0.000000
vt 0.017202 0.246320
vt 0.020253 0.300014
vt 0.872562 0.001273
vt 0.520312 0.403983
vt 0.554904 0.374291
vt 0.989780 0.443735
vt 0.993187 1.000000
vt 0.494890 0.430478
vt 0.494890 0.477492
vt 0.109415 0.384585
vt 0.494890 0.516927
vt 0.057653 0.430478
vt 0.148660 0.329176
vt 0.494890 0.303478
vt 0.494890 0.345812
vt 0.494890 0.556265
vt 0.494890 0.597612
vt 0.060014 0.625709
vt 0.494890 0.627509
vt 0.494890 0.388145
vt 0.167623 0.277699
vt 0.494890 0.261145
vt 0.168790 0.238013
vt 0.494890 0.696589
vt 0.494890 0.724094
vt 0.200484 0.749688
vt 0.494890 0.218811
vt 0.017118 0.477492
vt 0.494890 0.745405
vt 0.000000 0.516927
vt 0.159582 0.197778
vt 0.494890 0.176478
vt 0.494890 0.778334
vt 0.212318 0.776547
vt 0.007770 0.559844
vt 0.494890 0.134145
vt 0.132699 0.146615
vt 0.494890 0.801065
vt 0.152027 0.061232
vt 0.494890 0.091811
vt 0.025421 0.596017
vt 0.494890 0.831405
vt 0.210372 0.804345
vt 0.099745 0.660190
vt 0.213910 0.029198
vt 0.318461 0.000000
vt 0.494890 0.863875
vt 0.195473 0.836225
vt 0.494890 0.049478
vt 0.494890 0.893512
vt 0.176706 0.865223
vt 0.494890 0.007145
vt 0.494890 0.921489
vt 0.170082 0.926356
vt 0.494890 0.000000
vt 0.494890 0.950412
vt 0.181910 0.957107
vt 0.494890 0.979888
vt 0.228520 1.000000
vt 0.118950 0.111421
vt 0.130681 0.082596
vt 0.494890 1.000000
vt 0.197987 0.979701
vt 0.164117 0.895301
vt 0.989780 0.522508
vt 0.989780 0.569522
vt 0.604305 0.615415
vt 0.989780 0.611855
vt 0.643550 0.670824
vt 0.989780 0.696522
vt 0.662513 0.722301
vt 0.989780 0.654188
vt 0.989780 0.738855
vt 0.663680 0.761987
vt 0.989780 0.781188
vt 0.654472 0.802222
vt 0.989780 0.483073
vt 0.552544 0.569522
vt 0.989780 0.823522
vt 0.989780 0.865855
vt 0.502660 0.440155
vt 0.627589 0.853385
vt 0.646918 0.938768
vt 0.989780 0.402388
vt 0.989780 0.908189
vt 0.989780 0.372491
vt 0.641169 0.310176
vt 0.708800 0.970802
vt 0.813352 1.000000
vt 0.989780 0.333193
vt 0.989780 0.950522
vt 0.989780 0.303411
vt 0.663455 0.284095
vt 0.989780 0.992855
vt 0.989780 0.275906
vt 0.695374 0.250312
vt 0.989780 1.000000
vt 0.989780 0.254595
vt 0.512008 0.522508
vt 0.989780 0.221666
vt 0.707208 0.223453
vt 0.494890 0.483073
vt 0.625572 0.917404
vt 0.613841 0.888579
vt 0.989780 0.168595
vt 0.989780 0.198935
vt 0.705262 0.195655
vt 0.594635 0.339810
vt 0.989780 0.106488
vt 0.989780 0.136125
vt 0.671597 0.134777
vt 0.690363 0.163775
vt 0.989780 0.049588
vt 0.989780 0.078511
vt 0.676800 0.042893
vt 0.664972 0.073644
vt 0.989780 0.000000
vt 0.989780 0.020112
vt 0.723410 0.000000
vt 0.692877 0.020299
vt 0.659007 0.104699
vn -0.3939 0.0000 -0.9191
vn 0.0000 0.0000 1.0000
vn -0.4890 0.0000 -0.8723
vn -0.1801 0.0000 -0.9836
vn -0.3321 0.0000 -0.9432
vn -0.0146 0.0000 -0.9999
vn 0.2527 0.0000 -0.9675
vn 0.1130 0.0000 -0.9936
vn -0.1983 0.0000 -0.9801
vn 0.1906 0.0000 -0.9817
vn -0.4448 0.0000 -0.8956
vn -0.8718 0.0000 -0.4898
vn -0.6926 0.0000 -0.7213
vn -1.0000 0.0000 0.0000
vn 0.0000 1.0000 0.0000
vn -0.2109 0.0000 -0.9775
vn 0.2357 0.0000 -0.9718
vn 0.0896 0.0000 -0.9960
vn 0.5012 0.0000 -0.8654
vn 0.4991 0.0000 -0.8665
vn 0.6153 0.0000 -0.7883
vn 0.4970 0.0000 -0.8677
vn 0.3909 0.0000 -0.9204
vn 0.2139 0.0000 -0.9768
vn 0.4251 0.0000 -0.9051
vn -0.0348 0.0000 -0.9994
vn -0.3062 0.0000 -0.9520
vn -0.2263 0.0000 -0.9741
vn -0.2037 0.0000 -0.9790
vn 0.1878 0.0000 -0.9822
vn 0.0950 0.0000 -0.9955
vn 0.5988 0.0000 -0.8009
vn 0.3335 0.0000 -0.9428
vn 1.0000 0.0000 0.0000
vn 0.0000 -1.0000 -0.0000
usemtl Material.005
s 1
f 1/1/1 2/2/1 3/3/1
f 4/4/2 5/5/2 6/6/2
f 7/7/2 8/8/2 5/5/2
f 9/9/3 10/10/3 2/2/3
f 11/11/4 12/12/4 13/13/4
f 14/14/2 15/15/2 8/8/2
f 16/16/5 13/13/5 10/10/5
f 17/17/2 18/18/2 15/15/2
f 19/19/2 20/20/2 21/21/2
f 22/22/2 21/21/2 18/18/2
f 23/23/6 24/24/6 12/12/6
f 25/25/7 26/26/7 27/27/7
f 28/28/8 27/27/8 24/24/8
f 29/29/2 30/30/2 20/20/2
f 31/31/9 32/32/9 33/33/9
f 34/34/2 35/35/2 30/30/2
f 36/36/10 33/33/10 26/26/10
f 37/37/11 38/38/11 32/32/11
f 39/39/2 40/40/2 35/35/2
f 41/41/2 42/42/2 40/40/2
f 43/43/12 44/44/12 45/45/12
f 46/46/2 47/47/2 42/42/2
f 48/48/13 45/45/13 38/38/13
f 49/49/14 50/50/14 51/51/14
f 52/52/15 53/53/15 54/54/15
f 55/55/2 51/56/2 47/47/2
f 3/3/16 56/57/16 1/1/16
f 6/6/2 57/58/2 4/4/2
f 58/59/17 59/60/17 60/61/17
f 61/62/2 62/63/2 57/58/2
f 63/64/18 60/61/18 56/57/18
f 64/65/19 65/66/20 59/60/19
f 66/67/2 67/68/2 62/63/2
f 68/69/2 69/70/2 67/68/2
f 70/71/21 71/72/21 72/73/21
f 73/74/2 52/75/2 69/70/2
f 74/76/20 72/73/22 65/66/20
f 54/77/23 75/78/23 71/72/23
f 76/79/2 77/80/2 52/75/2
f 78/81/2 79/82/2 77/80/2
f 80/83/24 81/84/24 82/85/24
f 83/86/2 84/87/2 79/82/2
f 53/88/25 82/85/25 75/78/25
f 85/89/2 86/90/2 84/87/2
f 87/91/2 88/92/2 86/90/2
f 89/93/26 90/94/26 81/84/26
f 91/95/27 92/96/27 93/97/27
f 94/98/2 95/99/2 88/92/2
f 96/100/28 93/97/28 90/94/28
f 97/101/2 98/102/2 95/99/2
f 99/103/2 100/104/2 101/105/2
f 102/106/2 101/105/2 98/102/2
f 103/107/29 104/108/29 92/96/29
f 105/109/30 106/110/30 107/111/30
f 108/112/31 107/111/31 104/108/31
f 109/113/2 110/114/2 100/104/2
f 111/115/32 112/116/32 113/117/32
f 114/118/2 115/119/2 110/114/2
f 116/120/33 113/117/33 106/110/33
f 117/121/34 118/122/34 112/123/34
f 119/124/2 120/125/2 115/119/2
f 1/1/1 9/9/1 2/2/1
f 4/4/2 7/7/2 5/5/2
f 7/7/2 14/14/2 8/8/2
f 9/9/3 16/16/3 10/10/3
f 11/11/4 23/23/4 12/12/4
f 14/14/2 17/17/2 15/15/2
f 16/16/5 11/11/5 13/13/5
f 17/17/2 22/22/2 18/18/2
f 19/19/2 29/29/2 20/20/2
f 22/22/2 19/19/2 21/21/2
f 23/23/6 28/28/6 24/24/6
f 25/25/7 36/36/7 26/26/7
f 28/28/8 25/25/8 27/27/8
f 29/29/2 34/34/2 30/30/2
f 31/31/9 37/37/9 32/32/9
f 34/34/2 39/39/2 35/35/2
f 36/36/10 31/31/10 33/33/10
f 37/37/11 48/126/11 38/38/11
f 39/39/2 41/41/2 40/40/2
f 41/41/2 46/46/2 42/42/2
f 43/43/12 50/127/12 44/44/12
f 46/46/2 55/55/2 47/47/2
f 48/128/13 43/129/13 45/130/13
f 49/49/14 44/131/14 50/50/14
f 55/55/2 49/132/2 51/56/2
f 3/3/16 63/64/16 56/57/16
f 6/6/2 61/62/2 57/58/2
f 58/59/17 64/65/17 59/60/17
f 61/62/2 66/67/2 62/63/2
f 63/64/18 58/59/18 60/61/18
f 64/65/19 74/76/20 65/66/20
f 66/67/2 68/69/2 67/68/2
f 68/69/2 73/74/2 69/70/2
f 70/71/21 54/77/21 71/72/21
f 73/74/2 76/79/2 52/75/2
f 74/76/20 70/71/22 72/73/22
f 54/77/23 53/88/23 75/78/23
f 76/79/2 78/81/2 77/80/2
f 78/81/2 83/86/2 79/82/2
f 80/83/24 89/93/24 81/84/24
f 83/86/2 85/89/2 84/87/2
f 53/88/25 80/83/25 82/85/25
f 85/89/2 87/91/2 86/90/2
f 87/91/2 94/98/2 88/92/2
f 89/93/26 96/100/26 90/94/26
f 91/95/27 103/107/27 92/96/27
f 94/98/2 97/101/2 95/99/2
f 96/100/28 91/95/28 93/97/28
f 97/101/2 102/106/2 98/102/2
f 99/103/2 109/113/2 100/104/2
f 102/106/2 99/103/2 101/105/2
f 103/107/29 108/112/29 104/108/29
f 105/109/30 116/120/30 106/110/30
f 108/112/31 105/109/31 107/111/31
f 109/113/2 114/118/2 110/114/2
f 111/115/32 117/133/32 112/116/32
f 114/118/2 119/124/2 115/119/2
f 113/117/33 116/120/33 111/134/33
f 117/121/34 120/135/34 118/122/34
f 59/136/35 65/137/35 66/138/35
f 119/124/2 118/139/2 120/125/2
f 7/140/15 4/141/15 10/142/15
f 4/141/15 57/143/15 2/144/15
f 13/145/15 22/146/15 17/147/15
f 62/148/15 67/149/15 74/150/15
f 67/149/15 69/151/15 54/54/15
f 14/152/15 7/140/15 10/142/15
f 22/146/15 13/145/15 12/153/15
f 22/146/15 12/153/15 19/154/15
f 69/151/15 52/52/15 54/54/15
f 10/142/15 4/141/15 2/144/15
f 17/147/15 14/152/15 13/145/15
f 19/154/15 12/153/15 24/155/15
f 52/52/15 77/156/15 53/53/15
f 77/156/15 79/157/15 80/158/15
f 19/154/15 24/155/15 29/159/15
f 2/144/15 57/143/15 3/160/15
f 79/157/15 84/161/15 80/158/15
f 3/160/15 57/143/15 63/162/15
f 29/159/15 24/155/15 27/163/15
f 27/163/15 34/164/15 29/159/15
f 84/161/15 86/165/15 89/166/15
f 57/143/15 58/167/15 63/162/15
f 34/164/15 27/163/15 39/168/15
f 26/169/15 39/168/15 27/163/15
f 58/167/15 57/143/15 62/148/15
f 86/165/15 88/170/15 89/166/15
f 39/168/15 26/169/15 38/171/15
f 39/168/15 38/171/15 41/172/15
f 58/167/15 62/148/15 64/173/15
f 88/170/15 95/174/15 96/175/15
f 67/149/15 70/176/15 74/150/15
f 41/172/15 45/177/15 44/178/15
f 70/176/15 67/149/15 54/54/15
f 95/174/15 98/179/15 91/180/15
f 46/181/15 41/172/15 44/178/15
f 45/177/15 41/172/15 38/171/15
f 98/179/15 101/182/15 103/183/15
f 55/184/15 46/181/15 44/178/15
f 101/182/15 100/185/15 105/186/15
f 77/156/15 80/158/15 53/53/15
f 49/187/15 55/184/15 44/178/15
f 100/185/15 110/188/15 116/189/15
f 110/188/15 115/190/15 117/191/15
f 33/192/15 32/193/15 26/169/15
f 32/193/15 38/171/15 26/169/15
f 13/145/15 14/152/15 10/142/15
f 115/190/15 120/194/15 117/191/15
f 80/158/15 84/161/15 89/166/15
f 88/170/15 96/175/15 89/166/15
f 96/175/15 95/174/15 91/180/15
f 117/191/15 111/195/15 110/188/15
f 111/195/15 116/189/15 110/188/15
f 116/189/15 105/186/15 100/185/15
f 105/186/15 108/196/15 101/182/15
f 108/196/15 103/183/15 101/182/15
f 103/183/15 91/180/15 98/179/15
f 74/150/15 64/173/15 62/148/15
f 6/197/35 5/198/35 16/199/35
f 5/198/35 8/200/35 16/199/35
f 11/201/35 18/202/35 23/203/35
f 15/204/35 18/202/35 11/201/35
f 18/202/35 21/205/35 23/203/35
f 28/206/35 20/207/35 25/208/35
f 61/209/35 6/197/35 9/210/35
f 20/207/35 28/206/35 21/205/35
f 25/208/35 30/211/35 35/212/35
f 66/138/35 61/209/35 60/213/35
f 15/204/35 11/201/35 8/200/35
f 30/211/35 25/208/35 20/207/35
f 36/214/35 35/212/35 48/215/35
f 68/216/35 66/138/35 65/137/35
f 8/200/35 11/201/35 16/199/35
f 35/212/35 36/214/35 25/208/35
f 48/215/35 35/212/35 40/217/35
f 73/218/35 68/216/35 71/219/35
f 43/220/35 40/217/35 50/221/35
f 76/222/35 73/218/35 71/219/35
f 40/217/35 43/220/35 48/215/35
f 40/217/35 42/223/35 50/221/35
f 78/224/35 76/222/35 75/225/35
f 6/197/35 16/199/35 9/210/35
f 42/223/35 47/226/35 50/221/35
f 83/227/35 78/224/35 82/228/35
f 47/226/35 51/229/35 50/221/35
f 85/230/35 83/227/35 82/228/35
f 61/209/35 9/210/35 1/231/35
f 87/232/35 85/230/35 81/233/35
f 61/209/35 1/231/35 56/234/35
f 60/213/35 61/209/35 56/234/35
f 21/205/35 28/206/35 23/203/35
f 48/215/35 37/235/35 36/214/35
f 37/235/35 31/236/35 36/214/35
f 97/237/35 94/238/35 90/239/35
f 94/238/35 87/232/35 81/233/35
f 71/219/35 68/216/35 72/240/35
f 66/138/35 60/213/35 59/136/35
f 72/240/35 68/216/35 65/137/35
f 99/241/35 102/242/35 92/243/35
f 102/242/35 97/237/35 93/244/35
f 82/228/35 78/224/35 75/225/35
f 114/245/35 109/246/35 106/247/35
f 109/246/35 99/241/35 107/248/35
f 85/230/35 82/228/35 81/233/35
f 90/239/35 94/238/35 81/233/35
f 118/249/35 119/250/35 112/251/35
f 119/250/35 114/245/35 112/251/35
f 97/237/35 90/239/35 93/244/35
f 106/247/35 113/252/35 114/245/35
f 113/252/35 112/251/35 114/245/35
f 104/253/35 107/248/35 99/241/35
f 107/248/35 106/247/35 109/246/35
f 93/244/35 92/243/35 102/242/35
f 92/243/35 104/253/35 99/241/35
f 76/222/35 71/219/35 75/225/35
