# Blender v2.82 (sub 7) OBJ File: ''
# www.blender.org
mtllib Plough_160x160_v1.mtl
o Box001.004
v -3.149606 0.000002 -3.149606
v -3.149606 0.040002 -3.149606
v 3.149606 0.040002 -3.149606
v 3.149606 0.000002 -3.149606
v -3.149606 -0.000002 3.149606
v 3.149606 -0.000002 3.149606
v 3.149606 0.039998 3.149606
v -3.149606 0.039998 3.149606
vt 0.005647 0.742639
vt 0.005647 0.745643
vt 0.478728 0.745643
vt 0.478728 0.742639
vt 0.005647 0.742638
vt 0.478728 0.742638
vt 0.478728 0.745642
vt 0.005647 0.745642
vt 0.005647 0.507600
vt 0.478728 0.507600
vt 0.478728 0.980681
vt 0.005647 0.980681
vt 0.240686 0.507600
vt 0.243690 0.507600
vt 0.243689 0.980681
vt 0.240685 0.980681
vt 0.986541 0.003694
vt 0.513459 0.003694
vt 0.513459 0.476775
vt 0.986541 0.476775
vt 0.243690 0.507600
vt 0.240686 0.507600
vt 0.240685 0.980681
vt 0.243689 0.980681
vn 0.0000 0.0000 -1.0000
vn 0.0000 0.0000 1.0000
vn 0.0000 -1.0000 -0.0000
vn 1.0000 0.0000 0.0000
vn 0.0000 1.0000 0.0000
vn -1.0000 0.0000 0.0000
usemtl 02___Default.004
s 1
f 1/1/1 2/2/1 3/3/1
f 3/3/1 4/4/1 1/1/1
f 5/5/2 6/6/2 7/7/2
f 7/7/2 8/8/2 5/5/2
f 1/9/3 4/10/3 6/11/3
f 6/11/3 5/12/3 1/9/3
f 4/13/4 3/14/4 7/15/4
f 7/15/4 6/16/4 4/13/4
f 3/17/5 2/18/5 8/19/5
f 8/19/5 7/20/5 3/17/5
f 2/21/6 1/22/6 5/23/6
f 5/23/6 8/24/6 2/21/6
