# Blender v2.93.5 OBJ File: ''
# www.blender.org
mtllib terrain Woods #198.mtl
o terrain_Woods_#198_terrain_Woods_#198_terrain_Woods_#198_Cylinder_Cylinder.002
v -6.129908 -0.019998 0.442918
v -6.225922 0.020003 1.174050
v -6.129908 0.020001 0.442918
v -5.774247 -0.020001 -0.436424
v -5.248555 0.019995 -1.174050
v -5.248555 -0.020004 -1.174050
v 5.774247 0.019998 -0.436425
v 5.248555 -0.020004 -1.174050
v 5.248555 0.019995 -1.174050
v 6.129908 -0.019998 0.442918
v 5.774247 -0.020001 -0.436425
v 6.129908 0.020001 0.442918
v 6.225922 -0.019996 1.174050
v 6.225922 0.020003 1.174050
v -6.129908 0.020003 1.174050
v -5.671732 0.020003 0.957199
v -6.129908 0.020003 1.129015
v 5.520043 -0.019997 0.900316
v 6.129908 -0.019996 1.174050
v 5.155065 -0.019996 1.174050
v -0.011599 -0.020004 -1.174050
v 1.443370 -0.020002 -0.628436
v 0.714333 -0.019996 1.174050
v -6.225922 -0.019996 1.174050
v -5.774247 0.019998 -0.436424
v -5.478539 0.020003 1.174050
v 6.129908 -0.019996 1.129015
vt 0.718750 0.500000
vt 0.743734 1.000000
vt 0.718750 1.000000
vt 0.687500 0.500000
vt 0.659056 1.000000
vt 0.659056 0.500000
vt 0.312500 1.000000
vt 0.340943 0.500000
vt 0.340943 1.000000
vt 0.281250 0.500000
vt 0.312500 0.500000
vt 0.281250 1.000000
vt 0.256266 0.500000
vt 0.028269 0.158156
vt 0.048455 0.120390
vt 0.010925 0.240612
vt 0.485388 0.240612
vt 0.467795 0.229510
vt 0.485388 0.238307
vt 0.538030 0.226597
vt 0.514611 0.240612
vt 0.552045 0.240612
vt 0.750445 0.120390
vt 0.548455 0.120390
vt 0.694575 0.148325
vt 0.971731 0.158156
vt 0.951545 0.120390
vt 0.722570 0.240612
vt 0.375000 0.271899
vt 0.625000 0.250482
vt 0.375000 0.360713
vt 0.562500 0.962476
vt 0.437500 0.962476
vt 0.437500 0.874807
vt 0.743734 0.500000
vt 0.687500 1.000000
vt 0.256266 1.000000
vt 0.451545 0.120390
vt 0.460376 0.240612
vt 0.471731 0.158156
vt 0.485388 0.203178
vt 0.489075 0.240612
vt 0.014612 0.203178
vt 0.514611 0.238307
vt 0.528269 0.158156
vt 0.514612 0.203178
vt 0.510925 0.240612
vt 0.989075 0.240612
vt 0.985388 0.203178
vt 0.625000 0.484571
vt 0.625000 0.497598
vt 0.375000 0.499518
vt 0.625000 0.499518
vt 0.375000 0.252402
vt 0.375000 0.250482
vt 0.437500 0.787524
vt 0.562500 0.787524
vn -0.9915 -0.0000 -0.1302
vn -0.9270 -0.0000 -0.3750
vn -0.8144 -0.0000 -0.5804
vn 0.8144 0.0000 -0.5804
vn 0.9270 -0.0000 -0.3750
vn 0.9915 -0.0000 -0.1302
vn -0.0000 1.0000 -0.0000
vn -0.0000 -1.0000 0.0000
vn 0.0000 0.0000 1.0000
vn 0.0000 -0.0000 -1.0000
usemtl None.038
s 1
f 1/1/1 2/2/1 3/3/1
f 3/3/2 4/4/2 1/1/2
f 4/4/3 5/5/3 6/6/3
f 7/7/4 8/8/4 9/9/4
f 7/7/5 10/10/5 11/11/5
f 12/12/6 13/13/6 10/10/6
f 7/14/7 9/15/7 14/16/7
f 15/17/7 16/18/7 17/19/7
f 18/20/8 19/21/8 20/22/8
f 21/23/8 8/24/8 22/25/8
f 4/26/8 6/27/8 23/28/8
f 20/29/9 14/30/9 23/31/9
f 9/32/10 8/33/10 21/34/10
f 1/1/1 24/35/1 2/2/1
f 3/3/2 25/36/2 4/4/2
f 4/4/3 25/36/3 5/5/3
f 7/7/4 11/11/4 8/8/4
f 7/7/5 12/12/5 10/10/5
f 12/12/6 14/37/6 13/13/6
f 9/15/7 5/38/7 26/39/7
f 5/38/7 25/40/7 26/39/7
f 26/39/7 25/40/7 16/18/7
f 25/40/7 3/41/7 16/18/7
f 3/41/7 2/42/7 17/19/7
f 2/42/7 15/17/7 17/19/7
f 26/39/7 14/16/7 9/15/7
f 3/41/7 17/19/7 16/18/7
f 14/16/7 12/43/7 7/14/7
f 15/17/7 26/39/7 16/18/7
f 18/20/8 27/44/8 19/21/8
f 8/24/8 11/45/8 20/22/8
f 11/45/8 10/46/8 18/20/8
f 13/47/8 19/21/8 27/44/8
f 18/20/8 20/22/8 11/45/8
f 20/22/8 23/28/8 22/25/8
f 10/46/8 13/47/8 27/44/8
f 20/22/8 22/25/8 8/24/8
f 10/46/8 27/44/8 18/20/8
f 22/25/8 23/28/8 21/23/8
f 23/28/8 24/48/8 4/26/8
f 21/23/8 23/28/8 6/27/8
f 24/48/8 1/49/8 4/26/8
f 26/50/9 15/51/9 24/52/9
f 15/51/9 2/53/9 24/52/9
f 26/50/9 23/31/9 14/30/9
f 24/52/9 23/31/9 26/50/9
f 20/29/9 19/54/9 14/30/9
f 19/54/9 13/55/9 14/30/9
f 21/34/10 6/56/10 5/57/10
f 5/57/10 9/32/10 21/34/10
