# Blender v2.82 (sub 7) OBJ File: ''
# www.blender.org
mtllib Generic_Hill_Dune_3_model_160_80.mtl
v 0.162259 0.027336 1.508972
v -0.719593 0.027336 1.308796
v -0.087361 0.027336 1.541684
v -0.400274 0.027336 1.500560
v -0.400274 -0.000000 1.500560
v -0.087361 -0.000000 1.541684
v -0.719593 -0.000000 1.308796
v 0.162259 -0.000000 1.508972
v -1.028047 -0.000000 1.059299
v 0.418164 -0.000000 1.439509
v 0.418164 0.027336 1.439509
v -1.028047 0.027336 1.059299
v 0.720425 0.000000 -1.372333
v -1.338841 -0.000000 0.802712
v -0.700976 0.000000 -1.364632
v 1.084411 -0.000000 1.151709
v -1.338841 -0.000000 0.802712
v -1.338841 0.027336 0.802712
v -1.653594 0.027337 0.627254
v -1.338841 0.027336 0.802712
v -1.653594 -0.000000 0.627254
v -1.513339 0.027337 -1.057102
v -1.983143 0.027337 -0.881564
v -1.983143 0.000000 -0.881564
v -2.428345 0.027337 -0.650930
v -2.428345 0.000000 -0.650930
v -2.078432 -0.000000 0.469252
v -2.981743 0.027337 0.133803
v -3.078622 0.027337 -0.128343
v -3.078622 0.000000 -0.128343
v -2.981743 -0.000000 0.133803
v -2.540035 -0.000000 0.319515
v -2.912368 0.000000 -0.417177
v -2.912368 0.027337 -0.417177
v -2.540035 0.027337 0.319514
v -2.078433 0.027337 0.469252
v -1.513338 0.000000 -1.057102
v -1.091161 0.000000 -1.212226
v -0.700976 0.000000 -1.364632
v -0.700976 0.027337 -1.364632
v -1.091161 0.027337 -1.212226
v -0.700976 0.027337 -1.364632
v -0.344986 0.000000 -1.502902
v 0.720425 0.027337 -1.372333
v 0.305527 0.027337 -1.503991
v -0.344986 0.027337 -1.502902
v -0.040313 0.000000 -1.540705
v -0.040313 0.027337 -1.540705
v 0.305527 0.000000 -1.503991
v 2.944747 0.027337 0.207790
v 3.037296 0.027337 -0.042063
v 2.974684 0.027337 -0.265018
v 3.037296 -0.000000 -0.042063
v 2.974684 0.000000 -0.265018
v 2.738318 0.000000 -0.483669
v 2.364892 0.027337 0.593422
v 2.738318 0.027337 -0.483669
v 2.127211 0.027337 -0.872002
v 1.669293 0.027336 0.909329
v 1.983997 0.027336 0.755971
v 1.276033 0.027337 -1.174681
v 1.669293 -0.000000 0.909329
v 1.983996 -0.000000 0.755971
v 2.364892 -0.000000 0.593422
v 2.700637 -0.000000 0.426693
v 2.127211 0.000000 -0.872002
v 1.276033 0.000000 -1.174681
v 2.700637 0.027337 0.426693
v 2.944747 -0.000000 0.207790
v 1.326872 -0.000000 1.053125
v 1.326872 0.027336 1.053125
v 1.084411 0.027336 1.151709
v 0.743569 -0.000000 1.309349
v 0.743569 0.027336 1.309349
vt 0.452190 0.998098
vt 0.354625 0.960863
vt 0.423535 1.000647
vt 0.430858 0.527497
vt 0.430858 0.521719
vt 0.482022 0.521719
vt 0.378647 0.521719
vt 0.443849 0.043696
vt 0.479711 0.050535
vt 0.515859 0.079784
vt 0.415045 0.047983
vt 0.522837 0.527497
vt 0.522837 0.521719
vt 0.482022 0.527497
vt 0.388568 0.991814
vt 0.378647 0.527497
vt 0.377570 0.526809
vt 0.377570 0.521030
vt 0.324828 0.526809
vt 0.550585 0.117593
vt 0.385408 0.057719
vt 0.564679 0.527497
vt 0.564679 0.521719
vt 0.481983 0.990224
vt 0.322583 0.921555
vt 0.324828 0.521030
vt 0.342241 0.475083
vt 0.585559 0.156461
vt 0.505724 0.477225
vt 0.307930 0.098967
vt 0.328213 0.710325
vt 0.277395 0.656084
vt 0.277395 0.656084
vt 0.225931 0.618993
vt 0.277395 0.656084
vt 0.277395 0.656084
vt 0.270587 0.526809
vt 0.277395 0.527497
vt 0.225931 0.521719
vt 0.277395 0.521719
vt 0.225931 0.527497
vt 0.256742 0.852665
vt 0.292187 0.607257
vt 0.236933 0.628745
vt 0.174800 0.514806
vt 0.106172 0.520254
vt 0.174800 0.520254
vt 0.106172 0.514806
vt 0.706505 0.375107
vt 0.654617 0.408368
vt 0.669614 0.207750
vt 0.347832 0.526883
vt 0.403248 0.526883
vt 0.403248 0.521104
vt 0.347832 0.521104
vt 0.722251 0.231081
vt 0.772491 0.259714
vt 0.782849 0.298914
vt 0.762866 0.341473
vt 0.973328 0.514347
vt 0.915764 0.519795
vt 0.973328 0.519795
vt 0.915764 0.514347
vt 0.159906 0.799637
vt 0.126286 0.688407
vt 0.104100 0.729212
vt 0.112030 0.768473
vt 0.008768 0.521719
vt 0.080991 0.527497
vt 0.008768 0.527497
vt 0.080991 0.521719
vt 0.156466 0.527497
vt 0.156466 0.521719
vt 0.031561 0.520254
vt 0.031561 0.514806
vt 0.183826 0.658522
vt 0.210455 0.825711
vt 0.621231 0.183276
vt 0.600065 0.433381
vt 0.247220 0.514806
vt 0.247220 0.520254
vt 0.312298 0.514806
vt 0.551051 0.455468
vt 0.960412 0.540133
vt 0.960412 0.540133
vt 0.896614 0.572351
vt 0.960412 0.540133
vt 0.960412 0.540133
vt 0.896614 0.572351
vt 0.312298 0.520254
vt 0.372445 0.520254
vt 0.372445 0.514806
vt 0.372445 0.520254
vt 0.427320 0.514806
vt 0.372445 0.514806
vt 0.387776 0.569516
vt 0.341809 0.588331
vt 0.290358 0.881187
vt 0.548871 0.581154
vt 0.503403 0.558147
vt 0.429706 0.552464
vt 0.427320 0.520254
vt 0.474285 0.514806
vt 0.474285 0.520254
vt 0.464655 0.549665
vt 0.527596 0.514806
vt 0.527596 0.520254
vt 0.464371 0.496960
vt 0.429221 0.501876
vt 0.389560 0.495617
vt 0.591552 0.514806
vt 0.591552 0.520254
vt 0.782477 0.832535
vt 0.795861 0.796776
vt 0.791358 0.763563
vt 0.385009 0.526883
vt 0.332191 0.526883
vt 0.385009 0.521104
vt 0.946089 0.519795
vt 0.990523 0.514347
vt 0.990523 0.519795
vt 0.946089 0.514347
vt 0.902513 0.519795
vt 0.712318 0.883801
vt 0.767123 0.729419
vt 0.702411 0.667061
vt 0.629858 0.923818
vt 0.667285 0.904185
vt 0.609511 0.615090
vt 0.769248 0.527497
vt 0.769248 0.521719
vt 0.820705 0.521719
vt 0.820705 0.527497
vt 0.882984 0.521719
vt 0.882984 0.527497
vt 0.937881 0.521719
vt 0.677199 0.520254
vt 0.808407 0.514806
vt 0.677199 0.514806
vt 0.808407 0.520254
vt 0.902608 0.520254
vt 0.902608 0.514806
vt 0.902513 0.514347
vt 0.752284 0.862400
vt 0.937881 0.527497
vt 0.285916 0.526883
vt 0.285916 0.521104
vt 0.332191 0.521104
vt 0.086313 0.305235
vt 0.079779 0.271940
vt 0.091170 0.235006
vt 0.112841 0.338290
vt 0.119897 0.203025
vt 0.159005 0.179012
vt 0.181957 0.397440
vt 0.203294 0.155725
vt 0.278937 0.444412
vt 0.239944 0.133652
vt 0.279752 0.113065
vt 0.713260 0.521719
vt 0.713260 0.527497
vt 0.589401 0.941800
vt 0.560792 0.954060
vt 0.673616 0.521719
vt 0.673616 0.527497
vt 0.617885 0.521719
vt 0.347598 0.076318
vt 0.617885 0.527497
vt 0.520354 0.974085
vt 0.270587 0.521030
vn 0.0000 1.0000 0.0000
vn -0.1303 0.0000 0.9915
vn -0.5148 0.0000 0.8573
vn -0.0000 -1.0000 -0.0000
vn 0.1299 0.0000 0.9915
vn -0.6289 0.0000 0.7775
vn 0.2620 0.0000 0.9651
vn -0.6366 -0.0000 0.7712
vn -0.7071 0.0000 -0.7071
vn -0.7071 0.0003 -0.7071
vn -0.6367 -0.0000 0.7712
vn -0.4869 0.0000 0.8735
vn -0.4600 0.0000 -0.8879
vn -0.9380 0.0000 0.3466
vn -0.8667 0.0000 -0.4989
vn -0.3876 0.0000 0.9218
vn -0.3086 -0.0000 0.9512
vn -0.4349 0.0000 -0.9005
vn -0.3486 -0.0000 0.9373
vn -0.3500 -0.0000 -0.9367
vn -0.3449 -0.0000 -0.9386
vn -0.0054 -0.9992 0.0385
vn -0.0312 -0.9986 0.0422
vn 0.0116 -0.9990 0.0430
vn -0.3638 0.0000 -0.9315
vn -0.3621 -0.0000 -0.9322
vn -0.1231 0.0000 -0.9924
vn 0.1056 0.0000 -0.9944
vn 0.3025 0.0000 -0.9532
vn 0.9377 0.0000 0.3474
vn 0.9628 -0.0000 -0.2704
vn 0.6791 0.0000 -0.7341
vn 0.4381 -0.0000 0.8989
vn 0.3925 -0.0000 0.9197
vn 0.4448 0.0000 0.8956
vn 0.3351 0.0000 -0.9422
vn 0.3350 0.0000 -0.9422
vn 0.5363 0.0000 -0.8440
vn 0.6676 0.0000 0.7445
vn 0.3872 0.0000 0.9220
vn 0.3767 -0.0000 0.9263
vn 0.3352 0.0000 -0.9422
vn 0.3767 0.0000 0.9264
vn 0.4198 0.0000 0.9076
vn 0.3714 0.0000 0.9285
usemtl Default_OBJ.009
s 1
f 1/1/1 2/2/1 3/3/1
f 4/4/2 5/5/2 6/6/2
f 5/5/3 4/4/3 7/7/3
f 6/8/4 5/9/4 7/10/4
f 8/11/4 6/8/4 7/10/4
f 1/12/5 6/6/5 8/13/5
f 3/14/5 6/6/5 1/12/5
f 4/4/2 6/6/2 3/14/2
f 2/2/1 4/15/1 3/3/1
f 7/7/3 4/4/3 2/16/3
f 7/17/6 2/18/6 9/19/6
f 7/10/4 9/20/4 10/21/4
f 8/11/4 7/10/4 10/21/4
f 11/22/7 8/13/7 10/23/7
f 1/12/7 8/13/7 11/22/7
f 2/2/1 1/1/1 11/24/1
f 12/25/1 2/2/1 11/24/1
f 9/19/6 2/18/6 12/26/8
f 13/27/4 14/28/4 15/29/4
f 16/30/4 14/28/4 13/27/4
f 9/31/9 17/32/9 18/33/9 19/34/10 20/35/9 14/36/10
f 14/28/4 16/30/4 9/20/4
f 9/19/6 12/26/8 17/37/11
f 20/38/12 21/39/12 14/40/12
f 19/41/12 21/39/12 20/38/12
f 19/42/1 22/43/1 23/44/1
f 24/45/13 25/46/13 23/47/13
f 26/48/13 25/46/13 24/45/13
f 26/49/4 24/50/4 27/51/4
f 28/52/14 29/53/14 30/54/14
f 31/55/14 28/52/14 30/54/14
f 32/56/4 31/57/4 30/58/4
f 33/59/4 32/56/4 30/58/4
f 29/60/15 33/61/15 30/62/15
f 29/60/15 34/63/15 33/61/15
f 35/64/1 34/65/1 29/66/1
f 28/67/1 35/64/1 29/66/1
f 31/68/16 35/69/16 28/70/16
f 32/71/16 35/69/16 31/68/16
f 36/72/17 35/69/17 32/71/17
f 27/73/17 36/72/17 32/71/17
f 26/49/4 27/51/4 32/56/4
f 33/59/4 26/49/4 32/56/4
f 34/74/18 26/48/18 33/75/18
f 25/46/18 26/48/18 34/74/18
f 35/64/1 25/76/1 34/65/1
f 36/77/1 25/76/1 35/64/1
f 23/44/1 25/76/1 36/77/1
f 19/42/1 23/44/1 36/77/1
f 27/73/19 19/41/19 36/72/19
f 21/39/19 19/41/19 27/73/19
f 24/50/4 21/78/4 27/51/4
f 37/79/4 21/78/4 24/50/4
f 23/47/20 37/80/20 24/45/20
f 22/81/21 37/80/20 23/47/20
f 37/80/20 22/81/21 38/82/21
f 21/78/4 37/79/4 38/83/4
f 14/28/4 21/78/4 38/83/4
f 39/84/22 40/85/23 41/86/24 42/87/23 15/88/22 38/89/24
f 41/90/25 40/91/25 39/92/25
f 41/90/25 39/92/25 38/82/25
f 15/29/4 14/28/4 38/83/4
f 42/93/26 43/94/26 15/95/26
f 42/96/1 41/97/1 18/98/1
f 44/99/1 42/96/1 18/98/1
f 45/100/1 42/96/1 44/99/1
f 42/96/1 45/100/1 46/101/1
f 43/94/26 42/93/26 46/102/26
f 46/102/27 47/103/27 43/94/27
f 48/104/27 47/103/27 46/102/27
f 45/100/1 48/105/1 46/101/1
f 49/106/28 48/104/28 45/107/28
f 47/103/28 48/104/28 49/106/28
f 43/108/4 47/109/4 49/110/4
f 15/29/4 43/108/4 49/110/4
f 13/27/4 15/29/4 49/110/4
f 45/107/29 13/111/29 49/106/29
f 44/112/29 13/111/29 45/107/29
f 50/113/1 51/114/1 52/115/1
f 51/116/30 50/117/30 53/118/30
f 54/119/31 51/120/31 53/121/31
f 52/122/31 51/120/31 54/119/31
f 55/123/32 52/122/32 54/119/32
f 56/124/1 57/125/1 58/126/1
f 59/127/1 60/128/1 61/129/1
f 59/130/33 62/131/33 63/132/33
f 60/133/33 59/130/33 63/132/33
f 60/133/34 63/132/34 64/134/34
f 56/135/35 64/134/35 65/136/35
f 60/133/34 64/134/34 56/135/34
f 58/126/1 60/128/1 56/124/1
f 61/129/1 60/128/1 58/126/1
f 61/137/36 66/138/37 67/139/36
f 58/140/37 66/138/37 61/137/36
f 57/141/38 66/138/38 58/140/38
f 57/141/38 55/142/38 66/138/38
f 52/122/32 55/123/32 57/143/32
f 50/113/1 52/115/1 57/125/1
f 68/144/1 50/113/1 57/125/1
f 56/124/1 68/144/1 57/125/1
f 65/136/35 68/145/35 56/135/35
f 68/146/39 65/147/39 69/148/39
f 50/117/39 68/146/39 69/148/39
f 53/118/30 50/117/30 69/148/30
f 54/149/4 53/150/4 69/151/4
f 55/152/4 54/149/4 69/151/4
f 65/153/4 55/152/4 69/151/4
f 64/154/4 55/152/4 65/153/4
f 66/155/4 55/152/4 64/154/4
f 63/156/4 66/155/4 64/154/4
f 67/157/4 66/155/4 63/156/4
f 62/158/4 67/157/4 63/156/4
f 70/159/4 67/157/4 62/158/4
f 59/130/40 70/160/40 62/131/40
f 71/161/41 70/160/40 59/130/40
f 61/129/1 71/162/1 59/127/1
f 61/129/1 72/163/1 71/162/1
f 44/99/1 72/163/1 61/129/1
f 67/139/36 44/112/42 61/137/36
f 13/111/42 44/112/42 67/139/36
f 16/30/4 13/27/4 67/157/4
f 70/159/4 16/30/4 67/157/4
f 71/161/41 16/164/43 70/160/40
f 72/165/43 16/164/43 71/161/41
f 16/164/44 72/165/44 73/166/44
f 9/20/4 16/30/4 73/167/4
f 10/21/4 9/20/4 73/167/4
f 74/168/45 10/23/45 73/166/45
f 72/165/44 74/168/44 73/166/44
f 12/25/1 74/169/1 72/163/1
f 72/163/1 18/98/1 12/25/1
f 72/163/1 44/99/1 18/98/1
f 18/170/11 17/37/11 12/26/8
f 41/97/1 19/42/1 18/98/1
f 22/43/1 19/42/1 41/97/1
f 22/81/21 41/90/21 38/82/21
f 10/23/45 74/168/45 11/22/45
f 74/169/1 12/25/1 11/24/1
