# Blender v2.93.5 OBJ File: ''
# www.blender.org
mtllib terrain Woods #199.mtl
o terrain_Woods_#199_Cylinder_Cylinder.003
v -5.424680 -0.019994 1.690343
v -5.424680 0.020006 1.690342
v -5.468750 0.020005 1.434657
v -5.468750 -0.019995 1.434658
v -5.363669 0.020003 0.825000
v -5.363669 -0.019997 0.825001
v -5.052466 0.020001 0.238771
v -5.052466 -0.019999 0.238772
v -4.547100 0.019999 -0.301500
v -4.547100 -0.020001 -0.301499
v -3.866990 0.019997 -0.775052
v -3.866990 -0.020003 -0.775051
v -3.038275 0.019996 -1.163686
v -3.038275 -0.020004 -1.163685
v -2.092800 0.019995 -1.452466
v -2.092800 -0.020005 -1.452466
v -1.066900 0.019994 -1.630297
v -1.066900 -0.020006 -1.630296
v 0.000000 0.019994 -1.690343
v 0.000000 -0.020006 -1.690342
v 1.066900 0.019994 -1.630297
v 1.066900 -0.020006 -1.630296
v 2.092800 0.019995 -1.452466
v 2.092800 -0.020005 -1.452466
v 3.038275 0.019996 -1.163685
v 3.038275 -0.020004 -1.163684
v 3.866990 0.019997 -0.775052
v 3.866990 -0.020003 -0.775051
v 4.547099 0.019999 -0.301501
v 4.547099 -0.020001 -0.301500
v 5.052466 0.020001 0.238771
v 5.052466 -0.019999 0.238772
v 5.363669 0.020003 0.825000
v 5.363669 -0.019997 0.825001
v 5.468750 0.020005 1.434657
v 5.468750 -0.019995 1.434658
v 5.424680 0.020006 1.690342
v 5.424680 -0.019994 1.690343
vt 0.763106 0.875000
vt 0.750000 0.625000
vt 0.763106 0.625000
vt 0.750000 0.875000
vt 0.718750 0.625000
vt 0.718750 0.875000
vt 0.687500 0.625000
vt 0.656250 0.625000
vt 0.687500 0.875000
vt 0.656250 0.875000
vt 0.625000 0.625000
vt 0.625000 0.875000
vt 0.593750 0.625000
vt 0.593750 0.875000
vt 0.562500 0.625000
vt 0.562500 0.875000
vt 0.531250 0.625000
vt 0.531250 0.875000
vt 0.500000 0.625000
vt 0.500000 0.875000
vt 0.468750 0.625000
vt 0.468750 0.875000
vt 0.437500 0.625000
vt 0.437500 0.875000
vt 0.406250 0.625000
vt 0.406250 0.875000
vt 0.375000 0.625000
vt 0.343750 0.875000
vt 0.375000 0.875000
vt 0.312500 0.875000
vt 0.343750 0.625000
vt 0.281250 0.875000
vt 0.312500 0.625000
vt 0.250000 0.875000
vt 0.281250 0.625000
vt 0.236894 0.625000
vt 0.250000 0.625000
vt 0.625000 0.465411
vt 0.375000 0.284589
vt 0.625000 0.284589
vt 0.165792 0.536289
vt 0.160606 0.521634
vt 0.159589 0.500000
vt 0.715120 0.578570
vt 0.699362 0.571351
vt 0.659589 0.500000
vt 0.236894 0.875000
vt 0.375000 0.465411
vt 0.158854 0.506392
vt 0.340411 0.500000
vt 0.250000 0.584517
vt 0.199362 0.571351
vt 0.215120 0.578570
vt 0.341146 0.506392
vt 0.339395 0.521634
vt 0.334208 0.536289
vt 0.325785 0.549796
vt 0.314450 0.561635
vt 0.300638 0.571351
vt 0.284880 0.578570
vt 0.267782 0.583016
vt 0.232218 0.583016
vt 0.185550 0.561635
vt 0.174215 0.549796
vt 0.685550 0.561635
vt 0.674215 0.549796
vt 0.665792 0.536289
vt 0.660605 0.521634
vt 0.658854 0.506392
vt 0.840411 0.500000
vt 0.750000 0.584517
vt 0.841146 0.506392
vt 0.839394 0.521634
vt 0.784880 0.578570
vt 0.800638 0.571351
vt 0.834208 0.536289
vt 0.825785 0.549796
vt 0.814450 0.561635
vt 0.767782 0.583016
vt 0.732218 0.583016
vn -0.9855 -0.0000 0.1699
vn -0.9855 0.0000 -0.1699
vn -0.8833 0.0000 -0.4689
vn -0.7303 -0.0000 -0.6831
vn -0.5714 -0.0000 -0.8207
vn -0.4246 -0.0000 -0.9054
vn -0.2921 -0.0000 -0.9564
vn -0.1708 -0.0000 -0.9853
vn -0.0562 -0.0000 -0.9984
vn 0.0562 -0.0000 -0.9984
vn 0.1708 -0.0000 -0.9853
vn 0.2921 -0.0000 -0.9564
vn 0.4246 -0.0000 -0.9054
vn 0.5714 -0.0000 -0.8207
vn 0.7303 -0.0000 -0.6831
vn 0.8833 0.0000 -0.4689
vn 0.9855 0.0000 -0.1699
vn 0.9855 0.0000 0.1699
vn 0.0000 0.0000 1.0000
vn -0.0000 -1.0000 0.0000
vn -0.0000 1.0000 -0.0000
usemtl None.041
s 1
f 2/1/1 4/2/1 1/3/1
f 3/4/2 6/5/2 4/2/2
f 5/6/3 8/7/3 6/5/3
f 10/8/4 7/9/4 9/10/4
f 9/10/5 12/11/5 10/8/5
f 11/12/6 14/13/6 12/11/6
f 13/14/7 16/15/7 14/13/7
f 15/16/8 18/17/8 16/15/8
f 17/18/9 20/19/9 18/17/9
f 19/20/10 22/21/10 20/19/10
f 21/22/11 24/23/11 22/21/11
f 23/24/12 26/25/12 24/23/12
f 25/26/13 28/27/13 26/25/13
f 29/28/14 28/27/14 27/29/14
f 31/30/15 30/31/15 29/28/15
f 33/32/16 32/33/16 31/30/16
f 35/34/17 34/35/17 33/32/17
f 35/34/18 38/36/18 36/37/18
f 2/38/19 38/39/19 37/40/19
f 32/41/20 34/42/20 38/43/20
f 15/44/21 13/45/21 2/46/21
f 2/1/1 3/4/1 4/2/1
f 3/4/2 5/6/2 6/5/2
f 5/6/3 7/9/3 8/7/3
f 10/8/4 8/7/4 7/9/4
f 9/10/5 11/12/5 12/11/5
f 11/12/6 13/14/6 14/13/6
f 13/14/7 15/16/7 16/15/7
f 15/16/8 17/18/8 18/17/8
f 17/18/9 19/20/9 20/19/9
f 19/20/10 21/22/10 22/21/10
f 21/22/11 23/24/11 24/23/11
f 23/24/12 25/26/12 26/25/12
f 25/26/13 27/29/13 28/27/13
f 29/28/14 30/31/14 28/27/14
f 31/30/15 32/33/15 30/31/15
f 33/32/16 34/35/16 32/33/16
f 35/34/17 36/37/17 34/35/17
f 35/34/18 37/47/18 38/36/18
f 2/38/19 1/48/19 38/39/19
f 36/49/20 38/43/20 34/42/20
f 38/43/20 1/50/20 20/51/20
f 26/52/20 38/43/20 24/53/20
f 1/50/20 4/54/20 6/55/20
f 6/55/20 8/56/20 1/50/20
f 8/56/20 10/57/20 1/50/20
f 10/57/20 12/58/20 1/50/20
f 12/58/20 14/59/20 1/50/20
f 14/59/20 16/60/20 1/50/20
f 16/60/20 18/61/20 1/50/20
f 18/61/20 20/51/20 1/50/20
f 20/51/20 22/62/20 38/43/20
f 22/62/20 24/53/20 38/43/20
f 26/52/20 28/63/20 38/43/20
f 28/63/20 30/64/20 38/43/20
f 30/64/20 32/41/20 38/43/20
f 13/45/21 11/65/21 2/46/21
f 11/65/21 9/66/21 2/46/21
f 9/66/21 7/67/21 2/46/21
f 7/67/21 5/68/21 2/46/21
f 5/68/21 3/69/21 2/46/21
f 2/46/21 37/70/21 19/71/21
f 37/70/21 35/72/21 33/73/21
f 23/74/21 37/70/21 25/75/21
f 33/73/21 31/76/21 37/70/21
f 31/76/21 29/77/21 37/70/21
f 29/77/21 27/78/21 37/70/21
f 27/78/21 25/75/21 37/70/21
f 23/74/21 21/79/21 37/70/21
f 21/79/21 19/71/21 37/70/21
f 19/71/21 17/80/21 2/46/21
f 17/80/21 15/44/21 2/46/21
