# Blender v2.93.5 OBJ File: ''
# www.blender.org
mtllib terrain Woods #193.mtl
o terrain_Woods_#193
v -3.935000 -0.019999 0.000000
v -3.831000 -0.019996 0.721800
v -3.831000 0.020002 0.721800
v -3.935000 0.019999 -0.000000
v -3.534700 -0.019994 1.384600
v -3.534700 0.020004 1.384600
v -3.069900 -0.019992 1.969500
v -3.069900 0.020006 1.969500
v -2.460300 -0.019990 2.457500
v -2.460300 0.020008 2.457500
v -1.729700 -0.019989 2.829600
v -1.729700 0.020009 2.829600
v -0.901600 -0.019988 3.066700
v -0.901600 0.020010 3.066700
v 0.000000 -0.019987 3.150000
v 0.000000 0.020011 3.150000
v 0.901600 -0.019988 3.066700
v 0.901600 0.020010 3.066700
v 1.729700 -0.019989 2.829600
v 1.729700 0.020009 2.829600
v 2.460300 -0.019990 2.457500
v 2.460300 0.020008 2.457500
v 3.069900 -0.019992 1.969500
v 3.069900 0.020006 1.969500
v 3.534700 -0.019994 1.384600
v 3.534700 0.020004 1.384600
v 3.831000 -0.019996 0.721800
v 3.831000 0.020002 0.721800
v 3.935000 -0.019999 0.000000
v 3.935000 0.019999 -0.000000
v 3.831000 -0.020002 -0.721800
v 3.831000 0.019996 -0.721800
v 3.534700 -0.020004 -1.384600
v 3.534700 0.019994 -1.384600
v 3.069900 -0.020006 -1.969500
v 3.069900 0.019992 -1.969500
v 2.460300 -0.020008 -2.457500
v 2.460300 0.019990 -2.457500
v 1.729700 -0.020009 -2.829600
v 1.729700 0.019989 -2.829600
v 0.901600 -0.020010 -3.066700
v 0.901600 0.019987 -3.066700
v 0.000000 -0.020011 -3.150000
v 0.000000 0.019987 -3.150000
v -0.901600 -0.020010 -3.066700
v -0.901600 0.019987 -3.066700
v -1.729700 -0.020009 -2.829600
v -1.729700 0.019989 -2.829600
v -2.460300 -0.020008 -2.457500
v -2.460300 0.019990 -2.457500
v -3.069900 -0.020006 -1.969500
v -3.069900 0.019992 -1.969500
v -3.534700 -0.020004 -1.384600
v -3.534700 0.019994 -1.384600
v -3.831000 -0.020002 -0.721800
v -3.831000 0.019996 -0.721800
vt 0.435062 0.994839
vt 0.521615 0.973476
vt 0.523504 0.978229
vt 0.435504 0.999912
vt 0.599098 0.928598
vt 0.602204 0.932700
vt 0.665262 0.863135
vt 0.669258 0.866401
vt 0.718241 0.780846
vt 0.722841 0.783199
vt 0.755277 0.684558
vt 0.760244 0.685972
vt 0.774903 0.577796
vt 0.780042 0.578278
vt 0.774905 0.463658
vt 0.780042 0.463207
vt 0.754437 0.351449
vt 0.759402 0.350077
vt 0.715883 0.250234
vt 0.720499 0.247961
vt 0.661576 0.162918
vt 0.665656 0.159801
vt 0.594814 0.091834
vt 0.598143 0.087943
vt 0.517922 0.040191
vt 0.520236 0.035646
vt 0.433811 0.010335
vt 0.434848 0.005354
vt 0.344923 0.005162
vt 0.344489 0.000088
vt 0.258353 0.026380
vt 0.256464 0.021627
vt 0.180999 0.071395
vt 0.177890 0.067298
vt 0.114857 0.136856
vt 0.110861 0.133591
vt 0.061887 0.219143
vt 0.057287 0.216790
vt 0.024853 0.315429
vt 0.019886 0.314016
vt 0.005227 0.422191
vt 0.000088 0.421709
vt 0.005226 0.536328
vt 0.000088 0.536780
vt 0.025694 0.648538
vt 0.020729 0.649910
vt 0.064246 0.749753
vt 0.059631 0.752025
vt 0.118551 0.837068
vt 0.114471 0.840184
vt 0.185304 0.908152
vt 0.181975 0.912041
vt 0.262169 0.959809
vt 0.259851 0.964351
vt 0.346183 0.989815
vt 0.345145 0.994795
vt 0.818140 0.987576
vt 0.885423 0.986393
vt 0.851845 0.992043
vt 0.787005 0.973735
vt 0.916222 0.971526
vt 0.943301 0.948496
vt 0.759215 0.951853
vt 0.735834 0.922863
vt 0.965842 0.918678
vt 0.982713 0.883070
vt 0.717660 0.888049
vt 0.705885 0.848393
vt 0.993255 0.842973
vt 0.701313 0.805070
vt 0.996534 0.799504
vt 0.704592 0.761601
vt 0.991962 0.756181
vt 0.715134 0.721504
vt 0.980186 0.716525
vt 0.962012 0.681711
vt 0.732004 0.685897
vt 0.754542 0.656080
vt 0.938627 0.652721
vt 0.910826 0.630844
vt 0.781612 0.633049
vt 0.879650 0.617057
vt 0.812366 0.618127
vt 0.845946 0.612533
vt 0.618815 0.919723
vt 0.533891 0.932015
vt 0.448951 0.919834
vt 0.696782 0.884807
vt 0.370939 0.885020
vt 0.302080 0.830373
vt 0.765569 0.830070
vt 0.822944 0.758303
vt 0.244611 0.758681
vt 0.200771 0.672742
vt 0.866671 0.672307
vt 0.894507 0.574849
vt 0.172809 0.575320
vt 0.904239 0.468754
vt 0.162938 0.469238
vt 0.894368 0.362672
vt 0.172670 0.363143
vt 0.866406 0.265250
vt 0.200505 0.265685
vt 0.244233 0.179688
vt 0.822566 0.179311
vt 0.765097 0.107619
vt 0.301608 0.107921
vt 0.370396 0.053185
vt 0.696238 0.052972
vt 0.448362 0.018269
vt 0.618226 0.018158
vt 0.533286 0.005976
vn -0.9898 0.0000 0.1426
vn -0.9129 -0.0000 0.4081
vn -0.7829 0.0000 0.6221
vn -0.6249 0.0000 0.7807
vn -0.4538 0.0000 0.8911
vn -0.2753 0.0000 0.9614
vn -0.0920 0.0000 0.9958
vn 0.0920 0.0000 0.9958
vn 0.2753 0.0000 0.9614
vn 0.4538 0.0000 0.8911
vn 0.6249 0.0000 0.7807
vn 0.7829 0.0000 0.6221
vn 0.9129 -0.0000 0.4081
vn 0.9898 0.0000 0.1426
vn 0.9898 -0.0000 -0.1426
vn 0.9129 0.0000 -0.4081
vn 0.7829 -0.0000 -0.6221
vn 0.6249 0.0000 -0.7807
vn 0.4538 0.0000 -0.8911
vn 0.2753 0.0000 -0.9614
vn 0.0920 0.0000 -0.9958
vn -0.0920 0.0000 -0.9958
vn -0.2753 0.0000 -0.9614
vn -0.4538 0.0000 -0.8911
vn -0.6249 -0.0000 -0.7807
vn -0.7829 -0.0000 -0.6221
vn -0.9129 0.0000 -0.4081
vn -0.9898 -0.0000 -0.1426
vn 0.0000 -1.0000 0.0000
vn -0.0000 1.0000 -0.0000
usemtl Default_OBJ.015
s 1
f 1/1/1 2/2/1 3/3/1
f 1/1/1 3/3/1 4/4/1
f 2/2/2 5/5/2 6/6/2
f 2/2/2 6/6/2 3/3/2
f 5/5/3 7/7/3 8/8/3
f 5/5/3 8/8/3 6/6/3
f 7/7/4 9/9/4 10/10/4
f 7/7/4 10/10/4 8/8/4
f 9/9/5 11/11/5 12/12/5
f 9/9/5 12/12/5 10/10/5
f 11/11/6 13/13/6 14/14/6
f 11/11/6 14/14/6 12/12/6
f 13/13/7 15/15/7 16/16/7
f 13/13/7 16/16/7 14/14/7
f 15/15/8 17/17/8 18/18/8
f 15/15/8 18/18/8 16/16/8
f 17/17/9 19/19/9 20/20/9
f 17/17/9 20/20/9 18/18/9
f 19/19/10 21/21/10 22/22/10
f 19/19/10 22/22/10 20/20/10
f 21/21/11 23/23/11 24/24/11
f 21/21/11 24/24/11 22/22/11
f 23/23/12 25/25/12 26/26/12
f 23/23/12 26/26/12 24/24/12
f 25/25/13 27/27/13 28/28/13
f 25/25/13 28/28/13 26/26/13
f 27/27/14 29/29/14 30/30/14
f 27/27/14 30/30/14 28/28/14
f 29/29/15 31/31/15 32/32/15
f 29/29/15 32/32/15 30/30/15
f 31/31/16 33/33/16 34/34/16
f 31/31/16 34/34/16 32/32/16
f 33/33/17 35/35/17 36/36/17
f 33/33/17 36/36/17 34/34/17
f 35/35/18 37/37/18 38/38/18
f 35/35/18 38/38/18 36/36/18
f 37/37/19 39/39/19 40/40/19
f 37/37/19 40/40/19 38/38/19
f 39/39/20 41/41/20 42/42/20
f 39/39/20 42/42/20 40/40/20
f 41/41/21 43/43/21 44/44/21
f 41/41/21 44/44/21 42/42/21
f 43/43/22 45/45/22 46/46/22
f 43/43/22 46/46/22 44/44/22
f 45/45/23 47/47/23 48/48/23
f 45/45/23 48/48/23 46/46/23
f 47/47/24 49/49/24 50/50/24
f 47/47/24 50/50/24 48/48/24
f 49/49/25 51/51/25 52/52/25
f 49/49/25 52/52/25 50/50/25
f 51/51/26 53/53/26 54/54/26
f 51/51/26 54/54/26 52/52/26
f 53/53/27 55/55/27 56/56/27
f 53/53/27 56/56/27 54/54/27
f 55/55/28 1/1/28 4/4/28
f 55/55/28 4/4/28 56/56/28
f 55/57/29 2/58/29 1/59/29
f 53/60/29 2/58/29 55/57/29
f 53/60/29 5/61/29 2/58/29
f 53/60/29 7/62/29 5/61/29
f 51/63/29 7/62/29 53/60/29
f 49/64/29 7/62/29 51/63/29
f 49/64/29 9/65/29 7/62/29
f 49/64/29 11/66/29 9/65/29
f 47/67/29 11/66/29 49/64/29
f 45/68/29 11/66/29 47/67/29
f 45/68/29 13/69/29 11/66/29
f 43/70/29 13/69/29 45/68/29
f 43/70/29 15/71/29 13/69/29
f 41/72/29 15/71/29 43/70/29
f 41/72/29 17/73/29 15/71/29
f 39/74/29 17/73/29 41/72/29
f 39/74/29 19/75/29 17/73/29
f 39/74/29 21/76/29 19/75/29
f 37/77/29 21/76/29 39/74/29
f 35/78/29 21/76/29 37/77/29
f 35/78/29 23/79/29 21/76/29
f 35/78/29 25/80/29 23/79/29
f 33/81/29 25/80/29 35/78/29
f 33/81/29 27/82/29 25/80/29
f 31/83/29 27/82/29 33/81/29
f 29/84/29 27/82/29 31/83/29
f 56/85/30 4/86/30 3/87/30
f 54/88/30 56/85/30 3/87/30
f 54/88/30 3/87/30 6/89/30
f 54/88/30 6/89/30 8/90/30
f 52/91/30 54/88/30 8/90/30
f 50/92/30 52/91/30 8/90/30
f 50/92/30 8/90/30 10/93/30
f 50/92/30 10/93/30 12/94/30
f 48/95/30 50/92/30 12/94/30
f 46/96/30 48/95/30 12/94/30
f 46/96/30 12/94/30 14/97/30
f 44/98/30 46/96/30 14/97/30
f 44/98/30 14/97/30 16/99/30
f 42/100/30 44/98/30 16/99/30
f 42/100/30 16/99/30 18/101/30
f 40/102/30 42/100/30 18/101/30
f 40/102/30 18/101/30 20/103/30
f 40/102/30 20/103/30 22/104/30
f 38/105/30 40/102/30 22/104/30
f 36/106/30 38/105/30 22/104/30
f 36/106/30 22/104/30 24/107/30
f 36/106/30 24/107/30 26/108/30
f 34/109/30 36/106/30 26/108/30
f 34/109/30 26/108/30 28/110/30
f 32/111/30 34/109/30 28/110/30
f 30/112/30 32/111/30 28/110/30
