# Blender v2.82 (sub 7) OBJ File: ''
# www.blender.org
mtllib Plough_120x120_v2.mtl
o Box001.004
v -2.362205 0.000001 -2.362205
v -2.362205 0.040001 -2.362205
v 2.362205 0.040001 -2.362205
v 2.362205 0.000001 -2.362205
v -2.362205 -0.000001 2.362205
v 2.362205 -0.000001 2.362205
v 2.362205 0.039999 2.362205
v -2.362205 0.039999 2.362205
vt 0.511865 0.740624
vt 0.511865 0.743751
vt 1.004402 0.743751
vt 1.004402 0.740624
vt 0.511865 0.740624
vt 1.004402 0.740624
vt 1.004402 0.743751
vt 0.511865 0.743751
vt 0.007600 0.001741
vt 0.480681 0.001741
vt 0.480681 0.474822
vt 0.007600 0.474822
vt 0.756570 0.495919
vt 0.759698 0.495919
vt 0.759697 0.988456
vt 0.756570 0.988456
vt 0.988135 0.495919
vt 0.495598 0.495919
vt 0.495598 0.988456
vt 0.988135 0.988456
vt 0.759698 0.495919
vt 0.756570 0.495919
vt 0.756570 0.988456
vt 0.759697 0.988456
vn 0.0000 0.0000 -1.0000
vn 0.0000 0.0000 1.0000
vn 0.0000 -1.0000 -0.0000
vn 1.0000 0.0000 0.0000
vn 0.0000 1.0000 0.0000
vn -1.0000 0.0000 0.0000
usemtl 02___Default.004
s 1
f 1/1/1 2/2/1 3/3/1
f 3/3/1 4/4/1 1/1/1
f 5/5/2 6/6/2 7/7/2
f 7/7/2 8/8/2 5/5/2
f 1/9/3 4/10/3 6/11/3
f 6/11/3 5/12/3 1/9/3
f 4/13/4 3/14/4 7/15/4
f 7/15/4 6/16/4 4/13/4
f 3/17/5 2/18/5 8/19/5
f 8/19/5 7/20/5 3/17/5
f 2/21/6 1/22/6 5/23/6
f 5/23/6 8/24/6 2/21/6
