# Blender v2.82 (sub 7) OBJ File: ''
# www.blender.org
mtllib terrain_2-3x4-6_uvw.mtl
v 3.625000 0.000000 0.000000
v 3.529200 0.000000 -0.414700
v 3.529200 0.040000 -0.414700
v 3.625000 0.040000 0.000000
v 3.256200 0.000000 -0.795600
v 3.256200 0.040000 -0.795600
v 2.828100 0.000000 -1.131700
v 2.828100 0.040000 -1.131700
v 2.266500 0.000000 -1.412100
v 2.266500 0.040000 -1.412100
v 1.593400 0.000000 -1.625900
v 1.593400 0.040000 -1.625900
v 0.830600 0.000000 -1.762100
v 0.830600 0.040000 -1.762100
v 0.000000 0.000000 -1.810000
v 0.000000 0.040000 -1.810000
v -0.830600 0.000000 -1.762100
v -0.830600 0.040000 -1.762100
v -1.593400 0.000000 -1.625900
v -1.593400 0.040000 -1.625900
v -2.266500 0.000000 -1.412100
v -2.266500 0.040000 -1.412100
v -2.828100 0.000000 -1.131700
v -2.828100 0.040000 -1.131700
v -3.256200 0.000000 -0.795600
v -3.256200 0.040000 -0.795600
v -3.529200 0.000000 -0.414700
v -3.529200 0.040000 -0.414700
v -3.625000 0.000000 0.000000
v -3.625000 0.040000 0.000000
v -3.529200 -0.000000 0.414700
v -3.529200 0.040000 0.414700
v -3.256200 -0.000000 0.795600
v -3.256200 0.040000 0.795600
v -2.828100 -0.000000 1.131700
v -2.828100 0.040000 1.131700
v -2.266500 -0.000000 1.412100
v -2.266500 0.040000 1.412100
v -1.593400 -0.000000 1.625900
v -1.593400 0.040000 1.625900
v -0.830600 -0.000000 1.762100
v -0.830600 0.040000 1.762100
v 0.000000 -0.000000 1.810000
v 0.000000 0.040000 1.810000
v 0.830600 -0.000000 1.762100
v 0.830600 0.040000 1.762100
v 1.593400 -0.000000 1.625900
v 1.593400 0.040000 1.625900
v 2.266500 -0.000000 1.412100
v 2.266500 0.040000 1.412100
v 2.828100 -0.000000 1.131700
v 2.828100 0.040000 1.131700
v 3.256200 -0.000000 0.795600
v 3.256200 0.040000 0.795600
v 3.529200 -0.000000 0.414700
v 3.529200 0.040000 0.414700
vt 0.845326 0.921077
vt 0.865728 0.915103
vt 0.866729 0.917049
vt 0.845393 0.923234
vt 0.884402 0.899732
vt 0.886009 0.901234
vt 0.900721 0.876151
vt 0.902621 0.877223
vt 0.914003 0.845836
vt 0.916045 0.846545
vt 0.923216 0.809722
vt 0.925325 0.810121
vt 0.928114 0.769227
vt 0.930247 0.769358
vt 0.928118 0.725486
vt 0.930247 0.725364
vt 0.923027 0.682071
vt 0.925125 0.681698
vt 0.913453 0.642541
vt 0.915485 0.641904
vt 0.899956 0.608092
vt 0.901879 0.607172
vt 0.883571 0.579637
vt 0.885305 0.578395
vt 0.864850 0.558570
vt 0.866254 0.556966
vt 0.844917 0.545380
vt 0.845738 0.543407
vt 0.824103 0.541550
vt 0.824012 0.539393
vt 0.803749 0.547761
vt 0.802748 0.545821
vt 0.784968 0.562933
vt 0.783369 0.561425
vt 0.768642 0.586493
vt 0.766741 0.585420
vt 0.755356 0.616804
vt 0.753314 0.616096
vt 0.746142 0.652918
vt 0.744033 0.652519
vt 0.741244 0.693413
vt 0.739111 0.693281
vt 0.741239 0.737154
vt 0.739111 0.737276
vt 0.746330 0.780568
vt 0.744233 0.780941
vt 0.755905 0.820098
vt 0.753873 0.820735
vt 0.769403 0.854546
vt 0.767480 0.855466
vt 0.785791 0.882995
vt 0.784058 0.884238
vt 0.804525 0.904024
vt 0.803131 0.905632
vt 0.824542 0.917008
vt 0.823722 0.918976
vt 0.437384 0.073708
vt 0.486423 0.060660
vt 0.536216 0.070443
vt 0.393070 0.107738
vt 0.582679 0.101475
vt 0.624413 0.151165
vt 0.354705 0.160073
vt 0.323503 0.228098
vt 0.660036 0.216982
vt 0.688162 0.296348
vt 0.300676 0.309146
vt 0.287448 0.400578
vt 0.707394 0.386707
vt 0.285009 0.499742
vt 0.716371 0.485494
vt 0.293986 0.598528
vt 0.713933 0.584657
vt 0.313218 0.688888
vt 0.700705 0.676089
vt 0.677878 0.757138
vt 0.341344 0.768253
vt 0.376967 0.834071
vt 0.646676 0.825162
vt 0.608311 0.877497
vt 0.418702 0.883760
vt 0.563997 0.911527
vt 0.465165 0.914792
vt 0.514958 0.924575
vn 0.9743 0.0000 -0.2251
vn 0.8128 0.0000 -0.5825
vn 0.6175 0.0000 -0.7866
vn 0.4467 0.0000 -0.8947
vn 0.3027 0.0000 -0.9531
vn 0.1758 0.0000 -0.9844
vn 0.0576 0.0000 -0.9983
vn -0.0576 0.0000 -0.9983
vn -0.1758 0.0000 -0.9844
vn -0.3027 0.0000 -0.9531
vn -0.4467 0.0000 -0.8947
vn -0.6175 0.0000 -0.7866
vn -0.8128 0.0000 -0.5825
vn -0.9743 0.0000 -0.2251
vn -0.9743 0.0000 0.2251
vn -0.8128 0.0000 0.5825
vn -0.6175 0.0000 0.7866
vn -0.4467 0.0000 0.8947
vn -0.3027 0.0000 0.9531
vn -0.1758 0.0000 0.9844
vn -0.0576 0.0000 0.9983
vn 0.0576 0.0000 0.9983
vn 0.1758 0.0000 0.9844
vn 0.3027 0.0000 0.9531
vn 0.4467 0.0000 0.8947
vn 0.6175 0.0000 0.7866
vn 0.8128 0.0000 0.5825
vn 0.9743 -0.0000 0.2251
vn 0.0000 -1.0000 -0.0000
vn 0.0000 1.0000 0.0000
usemtl Default_OBJ.005
s off
f 1/1/1 2/2/1 3/3/1
f 1/1/1 3/3/1 4/4/1
f 2/2/2 5/5/2 6/6/2
f 2/2/2 6/6/2 3/3/2
f 5/5/3 7/7/3 8/8/3
f 5/5/3 8/8/3 6/6/3
f 7/7/4 9/9/4 10/10/4
f 7/7/4 10/10/4 8/8/4
f 9/9/5 11/11/5 12/12/5
f 9/9/5 12/12/5 10/10/5
f 11/11/6 13/13/6 14/14/6
f 11/11/6 14/14/6 12/12/6
f 13/13/7 15/15/7 16/16/7
f 13/13/7 16/16/7 14/14/7
f 15/15/8 17/17/8 18/18/8
f 15/15/8 18/18/8 16/16/8
f 17/17/9 19/19/9 20/20/9
f 17/17/9 20/20/9 18/18/9
f 19/19/10 21/21/10 22/22/10
f 19/19/10 22/22/10 20/20/10
f 21/21/11 23/23/11 24/24/11
f 21/21/11 24/24/11 22/22/11
f 23/23/12 25/25/12 26/26/12
f 23/23/12 26/26/12 24/24/12
f 25/25/13 27/27/13 28/28/13
f 25/25/13 28/28/13 26/26/13
f 27/27/14 29/29/14 30/30/14
f 27/27/14 30/30/14 28/28/14
f 29/29/15 31/31/15 32/32/15
f 29/29/15 32/32/15 30/30/15
f 31/31/16 33/33/16 34/34/16
f 31/31/16 34/34/16 32/32/16
f 33/33/17 35/35/17 36/36/17
f 33/33/17 36/36/17 34/34/17
f 35/35/18 37/37/18 38/38/18
f 35/35/18 38/38/18 36/36/18
f 37/37/19 39/39/19 40/40/19
f 37/37/19 40/40/19 38/38/19
f 39/39/20 41/41/20 42/42/20
f 39/39/20 42/42/20 40/40/20
f 41/41/21 43/43/21 44/44/21
f 41/41/21 44/44/21 42/42/21
f 43/43/22 45/45/22 46/46/22
f 43/43/22 46/46/22 44/44/22
f 45/45/23 47/47/23 48/48/23
f 45/45/23 48/48/23 46/46/23
f 47/47/24 49/49/24 50/50/24
f 47/47/24 50/50/24 48/48/24
f 49/49/25 51/51/25 52/52/25
f 49/49/25 52/52/25 50/50/25
f 51/51/26 53/53/26 54/54/26
f 51/51/26 54/54/26 52/52/26
f 53/53/27 55/55/27 56/56/27
f 53/53/27 56/56/27 54/54/27
f 55/55/28 1/1/28 4/4/28
f 55/55/28 4/4/28 56/56/28
f 27/27/29 31/31/29 29/29/29
f 25/25/29 31/31/29 27/27/29
f 25/25/29 33/33/29 31/31/29
f 25/25/29 35/35/29 33/33/29
f 23/23/29 35/35/29 25/25/29
f 21/21/29 35/35/29 23/23/29
f 21/21/29 37/37/29 35/35/29
f 21/21/29 39/39/29 37/37/29
f 19/19/29 39/39/29 21/21/29
f 17/17/29 39/39/29 19/19/29
f 17/17/29 41/41/29 39/39/29
f 15/15/29 41/41/29 17/17/29
f 15/15/29 43/43/29 41/41/29
f 13/13/29 43/43/29 15/15/29
f 13/13/29 45/45/29 43/43/29
f 11/11/29 45/45/29 13/13/29
f 11/11/29 47/47/29 45/45/29
f 11/11/29 49/49/29 47/47/29
f 9/9/29 49/49/29 11/11/29
f 7/7/29 49/49/29 9/9/29
f 7/7/29 51/51/29 49/49/29
f 7/7/29 53/53/29 51/51/29
f 5/5/29 53/53/29 7/7/29
f 5/5/29 55/55/29 53/53/29
f 2/2/29 55/55/29 5/5/29
f 2/2/29 1/1/29 55/55/29
f 28/57/30 30/58/30 32/59/30
f 26/60/30 28/57/30 32/59/30
f 26/60/30 32/59/30 34/61/30
f 26/60/30 34/61/30 36/62/30
f 24/63/30 26/60/30 36/62/30
f 22/64/30 24/63/30 36/62/30
f 22/64/30 36/62/30 38/65/30
f 22/64/30 38/65/30 40/66/30
f 20/67/30 22/64/30 40/66/30
f 18/68/30 20/67/30 40/66/30
f 18/68/30 40/66/30 42/69/30
f 16/70/30 18/68/30 42/69/30
f 16/70/30 42/69/30 44/71/30
f 14/72/30 16/70/30 44/71/30
f 14/72/30 44/71/30 46/73/30
f 12/74/30 14/72/30 46/73/30
f 12/74/30 46/73/30 48/75/30
f 12/74/30 48/75/30 50/76/30
f 10/77/30 12/74/30 50/76/30
f 8/78/30 10/77/30 50/76/30
f 8/78/30 50/76/30 52/79/30
f 8/78/30 52/79/30 54/80/30
f 6/81/30 8/78/30 54/80/30
f 6/81/30 54/80/30 56/82/30
f 3/83/30 6/81/30 56/82/30
f 3/83/30 56/82/30 4/84/30
