# Blender v2.93.5 OBJ File: ''
# www.blender.org
mtllib terrain Woods #200.mtl
o terrain_Woods_#200_Cube_Cube.16013
v -5.028744 -0.019991 2.460077
v -5.028744 0.020009 2.460077
v -5.617414 0.020000 -0.132951
v -5.617414 -0.020000 -0.132951
v -2.972592 -0.020007 -2.018626
v -2.972592 0.019993 -2.018626
v -1.584174 0.019992 -2.333824
v -1.584174 -0.020008 -2.333824
v 5.617414 -0.020000 0.043184
v 5.617414 0.020000 0.043184
v -5.387464 -0.020002 -0.540850
v -4.853539 -0.020004 -1.078353
v -4.134999 -0.020006 -1.549476
v -3.259456 -0.020007 -1.936118
v -1.176682 -0.020009 -2.400338
v -0.049494 -0.020009 -2.460077
v 1.077695 -0.020009 -2.400338
v 2.161567 -0.020008 -2.223419
v 3.160466 -0.020007 -1.936119
v 4.036012 -0.020006 -1.549477
v 4.754553 -0.020004 -1.078353
v 5.288477 -0.020002 -0.540849
v 5.617265 -0.020000 0.042375
v -1.176682 0.019991 -2.400338
v -3.259456 0.019993 -1.936118
v -4.134999 0.019994 -1.549476
v -4.853539 0.019996 -1.078353
v -5.387464 0.019998 -0.540850
v 5.617265 0.020000 0.042375
v 5.288477 0.019998 -0.540849
v 4.754553 0.019996 -1.078353
v 4.036012 0.019994 -1.549477
v 3.160466 0.019993 -1.936119
v 2.161567 0.019992 -2.223419
v 1.077695 0.019991 -2.400338
v -0.049494 0.019991 -2.460077
vt 0.625000 0.000000
vt 0.375000 0.169911
vt 0.375000 0.000000
vt 0.625000 0.318227
vt 0.375000 0.350643
vt 0.375000 0.318227
vt 0.375000 1.000000
vt 0.625000 0.751442
vt 0.625000 1.000000
vt 0.373558 0.750000
vt 0.360053 0.667905
vt 0.369198 0.708953
vt 0.714920 0.533512
vt 0.739646 0.513843
vt 0.875000 0.750000
vt 0.437500 0.812500
vt 0.459356 0.687500
vt 0.459356 0.812500
vt 0.437500 0.687500
vt 0.406250 0.812500
vt 0.406250 0.687500
vt 0.375000 0.812500
vt 0.375000 0.687500
vt 0.343750 0.812500
vt 0.343750 0.687500
vt 0.334776 0.812500
vt 0.334776 0.687500
vt 0.292999 0.812500
vt 0.281250 0.687500
vt 0.292999 0.687500
vt 0.250000 0.812500
vt 0.250000 0.687500
vt 0.218750 0.812500
vt 0.218750 0.687500
vt 0.187500 0.687500
vt 0.187500 0.812500
vt 0.156250 0.687500
vt 0.156250 0.812500
vt 0.125000 0.687500
vt 0.125000 0.812500
vt 0.093750 0.687500
vt 0.093750 0.812500
vt 0.062500 0.687500
vt 0.062500 0.812500
vt 0.031250 0.687500
vt 0.031250 0.812500
vt 0.031208 0.687500
vt 0.031208 0.812500
vt 0.625000 0.169911
vt 0.625000 0.350643
vt 0.375000 0.751442
vt 0.373559 0.749948
vt 0.125000 0.750000
vt 0.308253 0.559869
vt 0.125000 0.580089
vt 0.132162 0.557924
vt 0.146726 0.531983
vt 0.165054 0.512791
vt 0.186442 0.501083
vt 0.193227 0.500000
vt 0.225643 0.500000
vt 0.235026 0.501620
vt 0.260354 0.513843
vt 0.285080 0.533512
vt 0.328983 0.591903
vt 0.346474 0.628383
vt 0.764974 0.501620
vt 0.774357 0.500000
vt 0.806773 0.500000
vt 0.813558 0.501083
vt 0.834946 0.512791
vt 0.853275 0.531983
vt 0.867838 0.557924
vt 0.875000 0.580089
vt 0.626442 0.750000
vt 0.691747 0.559869
vt 0.671017 0.591903
vt 0.626441 0.749948
vt 0.630802 0.708953
vt 0.639947 0.667906
vt 0.653526 0.628383
vt 0.281250 0.812500
vn -0.9752 0.0000 0.2214
vn -0.2214 0.0000 -0.9752
vn 0.2214 0.0000 0.9752
vn -0.0000 -1.0000 0.0000
vn -0.0000 1.0000 -0.0000
vn -0.8711 -0.0000 -0.4911
vn -0.7095 -0.0000 -0.7047
vn -0.5483 -0.0000 -0.8363
vn -0.4040 -0.0000 -0.9148
vn -0.2764 -0.0000 -0.9610
vn -0.1611 0.0000 -0.9869
vn -0.0529 0.0000 -0.9986
vn 0.0529 0.0000 -0.9986
vn 0.1611 0.0000 -0.9869
vn 0.2764 -0.0000 -0.9610
vn 0.4040 -0.0000 -0.9148
vn 0.5483 -0.0000 -0.8363
vn 0.7095 -0.0000 -0.7047
vn 0.8711 -0.0000 -0.4911
vn 0.9836 -0.0000 -0.1805
usemtl None.043
s 1
f 2/1/1 4/2/1 1/3/1
f 6/4/2 8/5/2 5/6/2
f 1/7/3 10/8/3 2/9/3
f 9/10/4 21/11/4 22/12/4
f 35/13/5 36/14/5 2/15/5
f 28/16/6 4/17/6 3/18/6
f 11/19/7 27/20/7 12/21/7
f 12/21/8 26/22/8 13/23/8
f 13/23/9 25/24/9 14/25/9
f 14/25/10 6/26/10 5/27/10
f 7/28/11 15/29/11 8/30/11
f 15/29/12 36/31/12 16/32/12
f 16/32/13 35/33/13 17/34/13
f 18/35/14 35/33/14 34/36/14
f 19/37/15 34/36/15 33/38/15
f 20/39/16 33/38/16 32/40/16
f 21/41/17 32/40/17 31/42/17
f 22/43/18 31/42/18 30/44/18
f 23/45/19 30/44/19 29/46/19
f 9/47/20 29/46/20 10/48/20
f 2/1/1 3/49/1 4/2/1
f 6/4/2 7/50/2 8/5/2
f 1/7/3 9/51/3 10/8/3
f 23/52/4 9/10/4 22/12/4
f 9/10/4 1/53/4 18/54/4
f 1/53/4 4/55/4 11/56/4
f 11/56/4 12/57/4 1/53/4
f 12/57/4 13/58/4 1/53/4
f 13/58/4 14/59/4 1/53/4
f 14/59/4 5/60/4 1/53/4
f 5/60/4 8/61/4 1/53/4
f 8/61/4 15/62/4 1/53/4
f 15/62/4 16/63/4 1/53/4
f 16/63/4 17/64/4 1/53/4
f 17/64/4 18/54/4 1/53/4
f 18/54/4 19/65/4 9/10/4
f 9/10/4 19/65/4 20/66/4
f 20/66/4 21/11/4 9/10/4
f 36/14/5 24/67/5 2/15/5
f 24/67/5 7/68/5 2/15/5
f 7/68/5 6/69/5 2/15/5
f 6/69/5 25/70/5 2/15/5
f 25/70/5 26/71/5 2/15/5
f 26/71/5 27/72/5 2/15/5
f 27/72/5 28/73/5 2/15/5
f 28/73/5 3/74/5 2/15/5
f 2/15/5 10/75/5 34/76/5
f 34/76/5 10/75/5 33/77/5
f 10/75/5 29/78/5 30/79/5
f 30/79/5 31/80/5 10/75/5
f 31/80/5 32/81/5 10/75/5
f 32/81/5 33/77/5 10/75/5
f 34/76/5 35/13/5 2/15/5
f 28/16/6 11/19/6 4/17/6
f 11/19/7 28/16/7 27/20/7
f 12/21/8 27/20/8 26/22/8
f 13/23/9 26/22/9 25/24/9
f 14/25/10 25/24/10 6/26/10
f 7/28/11 24/82/11 15/29/11
f 15/29/12 24/82/12 36/31/12
f 16/32/13 36/31/13 35/33/13
f 18/35/14 17/34/14 35/33/14
f 19/37/15 18/35/15 34/36/15
f 20/39/16 19/37/16 33/38/16
f 21/41/17 20/39/17 32/40/17
f 22/43/18 21/41/18 31/42/18
f 23/45/19 22/43/19 30/44/19
f 9/47/20 23/45/20 29/46/20
