# Blender v2.82 (sub 7) OBJ File: ''
# www.blender.org
mtllib Plough_Big_240x120.mtl
o Box001.001
v -4.724410 0.000000 -2.362205
v -4.724410 0.040000 -2.362205
v 4.724410 0.040000 -2.362205
v 4.724410 0.000000 -2.362205
v -4.724410 -0.000000 2.362205
v 4.724410 -0.000000 2.362205
v 4.724410 0.040000 2.362205
v -4.724410 0.040000 2.362205
vt 0.003440 0.634270
vt 0.003440 0.638503
vt 0.475479 0.638503
vt 0.475479 0.634270
vt 0.003440 0.634270
vt 0.475479 0.634270
vt 0.475479 0.638503
vt 0.003440 0.638503
vt 0.002839 0.643290
vt 0.472923 0.643290
vt 0.472923 0.878332
vt 0.002839 0.878332
vt 0.477174 0.645554
vt 0.481407 0.645554
vt 0.481407 0.877638
vt 0.477174 0.877638
vt 0.523171 0.359686
vt 0.993255 0.359686
vt 0.993255 0.124644
vt 0.523171 0.124644
vt 0.481407 0.645554
vt 0.477174 0.645554
vt 0.477174 0.877638
vt 0.481407 0.877638
vn 0.0000 0.0000 -1.0000
vn 0.0000 0.0000 1.0000
vn 0.0000 -1.0000 -0.0000
vn 1.0000 0.0000 0.0000
vn 0.0000 1.0000 0.0000
vn -1.0000 0.0000 0.0000
usemtl 02___Default.001
s 1
f 1/1/1 2/2/1 3/3/1
f 3/3/1 4/4/1 1/1/1
f 5/5/2 6/6/2 7/7/2
f 7/7/2 8/8/2 5/5/2
f 1/9/3 4/10/3 6/11/3
f 6/11/3 5/12/3 1/9/3
f 4/13/4 3/14/4 7/15/4
f 7/15/4 6/16/4 4/13/4
f 3/17/5 2/18/5 8/19/5
f 8/19/5 7/20/5 3/17/5
f 2/21/6 1/22/6 5/23/6
f 5/23/6 8/24/6 2/21/6
