# Blender v3.0.0 OBJ File: 'terrain_woods_188.blend'
# www.blender.org
mtllib terrain_woods_188.mtl
o terrain_Woods_#188.001_terrain_Woods_#188_terrain_Woods_#188_terrain_Woods_#188_te
v 3.807933 0.019994 -1.342159
v 3.785019 -0.019991 0.770995
v 3.807933 -0.019988 -1.342159
v 1.432666 0.019990 1.760686
v 0.320168 -0.019992 1.757659
v 1.432666 -0.019992 1.760686
v -4.722523 0.019991 -1.365363
v -4.722523 -0.019991 -1.365363
v -4.270108 -0.019992 -0.343104
v -4.578440 -0.019991 -0.854460
v -1.715160 0.019989 1.335331
v -0.869230 0.019989 1.582253
v 3.536247 0.019991 1.045989
v 3.785019 0.019991 0.770995
v 3.536247 -0.019991 1.045989
v 3.032915 0.019990 1.367254
v 3.032915 -0.019992 1.367254
v 2.401301 0.019989 1.604240
v 2.401301 -0.019993 1.604240
v 1.665676 0.019990 1.747847
v 1.665676 -0.019992 1.747847
v 0.320168 0.019990 1.757659
v -0.001629 -0.019993 1.736638
v -0.869230 -0.019993 1.582253
v -1.715160 -0.019993 1.335331
v -2.506909 -0.019993 1.005360
v -2.506909 0.019989 1.005360
v -3.214049 -0.019992 0.605023
v -3.214049 0.019990 0.605023
v -3.809410 -0.019993 0.149701
v -3.809410 0.019989 0.149701
v -4.270108 0.019990 -0.343104
v -4.578440 0.019991 -0.854460
v -4.722556 -0.019991 -1.364710
v -4.722556 0.019991 -1.364710
v -0.001629 0.019989 1.736638
vt 0.993652 0.247732
vt 1.000000 0.280283
vt 0.993652 0.280283
vt 0.987304 0.373389
vt 0.993652 0.411181
vt 0.987304 0.411181
vt 0.993652 0.000000
vt 1.000000 0.247732
vt 0.993652 0.057458
vt 0.987304 0.000000
vt 0.993652 0.000000
vt 0.993652 0.130335
vt 0.987304 0.057458
vt 0.987304 0.215831
vt 0.993652 0.215831
vt 0.987304 0.243064
vt 0.993652 0.243064
vt 0.993652 0.373389
vt 0.987304 0.513527
vt 0.993652 0.513527
vt 0.987304 0.613766
vt 0.993652 0.613766
vt 0.993652 0.708047
vt 0.187500 0.812500
vt 0.156250 0.687500
vt 0.187500 0.687500
vt 0.125000 0.812500
vt 0.156250 0.812500
vt 0.093750 0.687500
vt 0.125000 0.687500
vt 0.093750 0.812500
vt 0.062500 0.687500
vt 0.031250 0.812500
vt 0.062500 0.812500
vt 0.031208 0.687500
vt 0.031208 0.812500
vt 0.373559 0.749948
vt 0.373558 0.750000
vt 0.369198 0.708953
vt 0.014205 0.968787
vt 0.016341 0.967830
vt 0.018478 0.967380
vt 0.626442 0.750000
vt 0.626441 0.749948
vt 0.630802 0.708953
vt 0.625000 1.000000
vt 0.375000 0.751442
vt 0.625000 0.751442
vt 0.031250 0.687500
vt 0.794332 0.326147
vt 0.730620 0.375063
vt 0.930013 0.085398
vt 1.000000 0.000000
vt 0.987304 0.130335
vt 0.987304 0.708047
vt 0.018478 0.993741
vt 0.008581 0.974247
vt 0.009634 0.993688
vt 0.008480 0.992922
vt 0.010249 0.972058
vt 0.007130 0.991369
vt 0.006131 0.989419
vt 0.005521 0.987147
vt 0.005465 0.986427
vt 0.005465 0.982989
vt 0.005549 0.981995
vt 0.006185 0.979313
vt 0.007209 0.976696
vt 0.012147 0.970215
vt 0.375000 1.000000
vt 0.659260 0.415381
vt 0.160439 0.088244
vt 0.582995 0.445551
vt 0.504756 0.464416
vt 0.475729 0.466985
vt 0.375365 0.467356
vt 0.354342 0.465787
vt 0.287947 0.448242
vt 0.230917 0.419287
vt 0.185442 0.380035
vt 0.162943 0.346435
vt 0.847949 0.270514
vt 0.917120 0.147822
vt 0.889409 0.210301
vn 0.7416 0.0000 0.6709
vn -0.0652 0.0000 0.9979
vn 0.9999 0.0000 0.0108
vn 0.5380 0.0000 0.8429
vn 0.3513 0.0000 0.9363
vn 0.1916 0.0000 0.9815
vn 0.0550 0.0000 0.9985
vn -0.0027 0.0000 1.0000
vn -0.1752 0.0000 0.9845
vn -0.2802 0.0000 0.9599
vn -0.3847 0.0000 0.9230
vn -0.4927 0.0000 0.8702
vn -0.6075 0.0000 0.7943
vn -0.7305 0.0000 0.6829
vn -0.8564 0.0000 0.5164
vn -0.9624 0.0000 0.2718
vn -0.9987 0.0000 -0.0504
vn -0.0000 -1.0000 0.0000
vn 0.0000 1.0000 0.0000
vn 0.0027 0.0000 -1.0000
usemtl None.021
s 1
f 2/1/1 13/2/1 15/3/1
f 5/4/2 36/5/2 23/6/2
f 3/7/3 14/8/3 2/1/3
f 16/9/4 15/10/4 13/11/4
f 18/12/5 17/13/5 16/9/5
f 21/14/6 18/12/6 20/15/6
f 6/16/7 20/15/7 4/17/7
f 6/16/8 22/18/8 5/4/8
f 24/19/9 36/5/9 12/20/9
f 25/21/10 12/20/10 11/22/10
f 27/23/11 25/21/11 11/22/11
f 27/24/12 28/25/12 26/26/12
f 31/27/13 28/25/13 29/28/13
f 31/27/14 9/29/14 30/30/14
f 32/31/15 10/32/15 9/29/15
f 35/33/16 10/32/16 33/34/16
f 8/35/17 35/33/17 7/36/17
f 34/37/18 8/38/18 10/39/18
f 9/40/18 10/41/18 8/42/18
f 7/43/19 35/44/19 33/45/19
f 1/46/20 8/47/20 7/48/20
f 8/35/17 34/49/17 35/33/17
f 29/50/19 27/51/19 7/52/19
f 2/1/1 14/8/1 13/2/1
f 5/4/2 22/18/2 36/5/2
f 3/7/3 1/53/3 14/8/3
f 16/9/4 17/13/4 15/10/4
f 18/12/5 19/54/5 17/13/5
f 21/14/6 19/54/6 18/12/6
f 6/16/7 21/14/7 20/15/7
f 6/16/8 4/17/8 22/18/8
f 24/19/9 23/6/9 36/5/9
f 25/21/10 24/19/10 12/20/10
f 27/23/11 26/55/11 25/21/11
f 27/24/12 29/28/12 28/25/12
f 31/27/13 30/30/13 28/25/13
f 31/27/14 32/31/14 9/29/14
f 32/31/15 33/34/15 10/32/15
f 35/33/16 34/49/16 10/32/16
f 8/42/18 3/56/18 26/57/18
f 3/56/18 2/58/18 15/59/18
f 8/42/18 26/57/18 28/60/18
f 15/59/18 17/61/18 3/56/18
f 17/61/18 19/62/18 3/56/18
f 19/62/18 21/63/18 3/56/18
f 21/63/18 6/64/18 3/56/18
f 6/64/18 5/65/18 3/56/18
f 5/65/18 23/66/18 3/56/18
f 23/66/18 24/67/18 3/56/18
f 24/67/18 25/68/18 3/56/18
f 25/68/18 26/57/18 3/56/18
f 28/60/18 30/69/18 8/42/18
f 30/69/18 9/40/18 8/42/18
f 1/46/20 3/70/20 8/47/20
f 27/51/19 11/71/19 1/72/19
f 11/71/19 12/73/19 1/72/19
f 12/73/19 36/74/19 1/72/19
f 36/74/19 22/75/19 1/72/19
f 22/75/19 4/76/19 1/72/19
f 4/76/19 20/77/19 1/72/19
f 20/77/19 18/78/19 1/72/19
f 18/78/19 16/79/19 1/72/19
f 16/79/19 13/80/19 1/72/19
f 13/80/19 14/81/19 1/72/19
f 1/72/19 7/52/19 27/51/19
f 29/50/19 7/52/19 31/82/19
f 7/52/19 33/83/19 32/84/19
f 32/84/19 31/82/19 7/52/19
