# Blender v3.0.0 OBJ File: 'terrain_steep_hill_174.blend'
# www.blender.org
mtllib terrain_steep_hill_174.mtl
o terrain_Steep_Hill_#174.001_Cube.001
v -0.174039 -0.395259 2.193237
v -1.199290 -0.395259 2.155790
v -2.185140 -0.395259 2.044887
v -2.981925 -0.380077 1.775134
v -3.890069 -0.395259 1.622422
v -4.482137 -0.380077 1.237438
v -4.595633 -0.380077 0.435009
v 4.681187 -0.395259 0.990158
v 4.195550 -0.395259 1.327094
v 3.541991 -0.395259 1.622421
v 2.745627 -0.395259 1.864790
v 1.837062 -0.395259 2.044887
v 0.851211 -0.395259 2.155790
v -4.909370 -0.394068 -2.294952
v 5.326849 -0.395259 -2.294952
v 2.134655 0.392143 -1.233770
v 1.926118 0.392143 -1.089087
v 2.343222 0.392143 -2.294952
v 0.913363 0.392143 -0.780860
v 1.303509 0.392143 -0.858195
v 0.490031 0.392143 -0.733237
v 0.049780 0.392143 -0.717158
v 1.645474 0.392143 -0.962271
v -0.813804 0.392143 -0.780860
v -1.822606 0.392143 -1.107787
v -1.871884 0.392143 -1.456190
v -1.952109 0.392143 -2.294952
v -1.545915 0.392143 -0.962270
v -1.171236 0.392143 -0.874327
v -0.390472 0.392143 -0.733237
vt 0.576220 0.476230
vt 0.574915 0.512701
vt 0.397880 0.312871
vt 0.607849 0.447946
vt 0.883746 0.490248
vt 0.611451 0.487957
vt 0.596512 0.409406
vt 0.875359 0.397071
vt 0.579779 0.372568
vt 0.848956 0.307320
vt 0.552650 0.342552
vt 0.805551 0.224445
vt 0.523094 0.314921
vt 0.746811 0.151630
vt 0.592862 0.046880
vt 0.487433 0.295473
vt 0.518879 0.032216
vt 0.510151 0.268781
vt 0.487943 0.264289
vt 0.495439 0.983650
vt 0.478423 0.669322
vt 0.590777 0.956813
vt 0.668319 0.885254
vt 0.483357 0.676214
vt 0.518944 0.657576
vt 0.741134 0.826514
vt 0.550212 0.632353
vt 0.801090 0.754698
vt 0.575957 0.601514
vt 0.845883 0.672565
vt 0.595192 0.566245
vt 0.867791 1.026919
vt 0.867598 1.047046
vt 0.875634 1.039056
vt 0.873793 0.583271
vt 0.607177 0.527902
vt 0.308807 0.047706
vt 0.059704 0.233280
vt 0.158096 0.052256
vt 0.536795 0.632122
vt 0.520878 0.649604
vt 0.402663 0.668463
vt 0.491590 0.318253
vt 0.557317 0.375383
vt 0.573934 0.439807
vt 0.568147 0.404833
vt 0.530533 0.321810
vt 0.547084 0.344497
vt 0.550638 0.608698
vt 0.561874 0.580233
vt 0.570071 0.547818
vt 0.674995 0.091674
vt 0.590610 0.050965
vt 0.447626 0.677991
vt 0.585444 0.928659
vt 0.869408 1.046514
vt 0.871197 1.045577
vt 0.872770 1.044308
vt 0.874064 1.042758
vt 0.875032 1.040984
vt 0.875849 1.037048
vt 0.875668 1.035036
vt 0.875098 1.033098
vt 0.874161 1.031308
vt 0.872892 1.029736
vt 0.869568 1.027474
vt 0.871342 1.028442
vt 0.418874 0.222706
vn 0.0000 1.0000 0.0000
vn -0.0095 0.9654 0.2605
vn -0.0287 0.9664 0.2554
vn -0.0626 0.9689 0.2396
vn -0.0571 0.9683 0.2432
vn -0.1056 0.9739 0.2009
vn -0.2498 0.9677 0.0353
vn -0.2569 0.9661 0.0246
vn 0.2549 0.9657 0.0501
vn 0.1331 0.9724 0.1919
vn 0.1003 0.9699 0.2219
vn 0.0733 0.9678 0.2410
vn 0.0501 0.9662 0.2529
vn -0.0001 -1.0000 -0.0001
vn 0.0292 0.9653 0.2594
vn 0.0096 0.9651 0.2618
vn 0.0000 0.0000 -1.0000
vn 0.0000 -1.0000 0.0000
vn -0.0000 -1.0000 -0.0003
vn -0.0241 -0.9996 0.0148
vn 0.0210 -0.9995 -0.0252
vn -0.0282 -0.9996 0.0040
vn -0.0047 -1.0000 0.0057
usemtl Material.001
s off
f 22/1/1 21/2/1 27/3/1
f 30/4/2 1/5/2 22/6/2
f 24/7/3 2/8/3 30/4/3
f 29/9/4 3/10/4 24/7/4
f 28/11/5 4/12/5 29/9/5
f 25/13/6 5/14/6 28/11/6
f 7/15/7 25/13/7 26/16/7
f 14/17/8 26/18/8 27/19/8
f 15/20/9 16/21/9 8/22/9
f 9/23/10 16/24/10 17/25/10
f 10/26/11 17/25/11 23/27/11
f 11/28/12 23/27/12 20/29/12
f 12/30/13 20/29/13 19/31/13
f 14/32/14 15/33/14 13/34/14
f 13/35/15 19/31/15 21/36/15
f 13/35/16 22/6/16 1/5/16
f 18/37/17 14/38/17 27/39/17
f 17/40/1 16/41/1 18/42/1
f 18/42/1 27/3/1 21/2/1
f 27/3/1 26/43/1 29/44/1
f 30/45/1 27/3/1 24/46/1
f 26/43/1 25/47/1 28/48/1
f 29/44/1 24/46/1 27/3/1
f 26/43/1 28/48/1 29/44/1
f 17/40/1 18/42/1 23/49/1
f 27/3/1 30/45/1 22/1/1
f 20/50/1 18/42/1 19/51/1
f 20/50/1 23/49/1 18/42/1
f 21/2/1 19/51/1 18/42/1
f 30/4/2 2/8/2 1/5/2
f 24/7/3 3/10/3 2/8/3
f 29/9/4 4/12/4 3/10/4
f 28/11/5 5/14/5 4/12/5
f 25/13/6 6/52/6 5/14/6
f 7/15/7 6/52/7 25/13/7
f 14/17/8 7/53/8 26/18/8
f 15/20/9 18/54/9 16/21/9
f 9/23/10 8/55/10 16/24/10
f 10/26/11 9/23/11 17/25/11
f 11/28/12 10/26/12 23/27/12
f 12/30/13 11/28/13 20/29/13
f 15/33/18 8/56/18 9/57/18
f 9/57/18 10/58/18 15/33/18
f 10/58/18 11/59/18 15/33/18
f 11/59/18 12/60/18 15/33/18
f 12/60/18 13/34/18 15/33/18
f 13/34/19 1/61/19 14/32/19
f 1/61/19 2/62/19 14/32/19
f 2/62/19 3/63/19 14/32/19
f 3/63/20 4/64/20 14/32/20
f 4/64/21 5/65/21 7/66/21
f 5/65/22 6/67/22 7/66/22
f 7/66/23 14/32/23 4/64/23
f 13/35/15 12/30/15 19/31/15
f 13/35/16 21/36/16 22/6/16
f 18/37/17 15/68/17 14/38/17
