# Blender v3.0.0 OBJ File: 'terrain_gentle_hill_149.blend'
# www.blender.org
mtllib terrain_gentle_hill_149.mtl
o terrain_Gentle_Hill_#149.001_Cube.001
v -0.281909 -0.214454 2.566848
v -1.307160 -0.214454 2.529401
v -2.293010 -0.214454 2.418498
v -3.089796 -0.199272 2.148746
v -3.997939 -0.214454 1.996033
v -4.590008 -0.199272 1.611050
v -4.703504 -0.199272 0.808620
v 4.573317 -0.214454 1.363769
v 4.087680 -0.214454 1.700705
v 3.434121 -0.214454 1.996032
v 2.637757 -0.214454 2.238401
v 1.729191 -0.214454 2.418498
v 0.743340 -0.214454 2.529401
v -5.017241 -0.213263 -1.921340
v 5.218979 -0.214454 -1.921340
v 2.026784 0.572948 -0.860158
v 1.818248 0.572948 -0.715475
v 2.235351 0.572948 -1.921340
v 0.805493 0.572948 -0.407249
v 1.195638 0.572948 -0.484584
v 0.382160 0.572948 -0.359626
v -0.058091 0.572948 -0.343546
v 1.537604 0.572948 -0.588659
v -0.921674 0.572948 -0.407249
v -1.930476 0.572948 -0.734176
v -1.979755 0.572948 -1.082578
v -2.059979 0.572948 -1.921340
v -1.653786 0.572948 -0.588659
v -1.279107 0.572948 -0.500716
v -0.498342 0.572948 -0.359626
vt 0.460268 0.574274
vt 0.489841 0.594219
vt 0.256117 0.594965
vt 0.429337 0.556499
vt 0.573528 0.358051
vt 0.398238 0.541577
vt 0.501497 0.316657
vt 0.369732 0.532570
vt 0.429073 0.281906
vt 0.340274 0.522453
vt 0.362825 0.266170
vt 0.315119 0.520417
vt 0.294089 0.237371
vt 0.195380 0.287455
vt 0.297029 0.541812
vt 0.058708 0.458016
vt 0.762103 0.896514
vt 0.581727 0.698443
vt 0.856382 0.647215
vt 0.837232 0.603678
vt 0.573504 0.679748
vt 0.804786 0.555755
vt 0.559572 0.659170
vt 0.760293 0.505287
vt 0.540465 0.637498
vt 0.705461 0.454214
vt 0.516920 0.615567
vt 0.015143 0.980726
vt 0.015143 0.992796
vt 0.009895 0.987519
vt 0.642398 0.404499
vt 0.883585 0.291486
vt 0.960475 1.000000
vt 0.883634 0.711107
vt 0.551273 0.778974
vt 0.237045 0.238179
vt 0.011270 0.992035
vt 0.010872 0.991462
vt 0.010524 0.990692
vt 0.010238 0.989753
vt 0.010026 0.988681
vt 0.009851 0.986310
vt 0.009895 0.985101
vt 0.010026 0.983939
vt 0.010344 0.982999
vt 0.010524 0.981928
vt 0.011924 0.981096
vt 0.010978 0.981230
vt 0.960475 0.000000
vn 0.0000 1.0000 -0.0000
vn -0.0095 0.9654 0.2605
vn -0.0287 0.9664 0.2554
vn -0.0626 0.9689 0.2396
vn -0.0571 0.9683 0.2432
vn -0.1056 0.9739 0.2009
vn -0.2498 0.9677 0.0353
vn -0.2569 0.9661 0.0246
vn 0.2549 0.9657 0.0501
vn 0.1331 0.9724 0.1919
vn 0.1003 0.9699 0.2219
vn 0.0733 0.9678 0.2410
vn 0.0501 0.9662 0.2529
vn -0.0001 -1.0000 -0.0001
vn 0.0292 0.9653 0.2594
vn 0.0096 0.9651 0.2618
vn 0.0000 0.0000 -1.0000
vn 0.0000 -1.0000 0.0000
vn -0.0000 -1.0000 -0.0003
vn -0.0241 -0.9996 0.0148
vn 0.0210 -0.9995 -0.0252
vn -0.0282 -0.9996 0.0040
vn -0.0047 -1.0000 0.0057
usemtl Material.001
s off
f 22/1/1 21/2/1 27/3/1
f 30/4/2 1/5/2 22/1/2
f 24/6/3 2/7/3 30/4/3
f 29/8/4 3/9/4 24/6/4
f 28/10/5 4/11/5 29/8/5
f 25/12/6 5/13/6 28/10/6
f 7/14/7 25/12/7 26/15/7
f 14/16/8 26/15/8 27/3/8
f 15/17/9 16/18/9 8/19/9
f 9/20/10 16/18/10 17/21/10
f 10/22/11 17/21/11 23/23/11
f 11/24/12 23/23/12 20/25/12
f 12/26/13 20/25/13 19/27/13
f 14/28/14 15/29/14 13/30/14
f 13/31/15 19/27/15 21/2/15
f 13/31/16 22/1/16 1/5/16
f 18/32/17 14/33/17 27/34/17
f 17/21/1 16/18/1 18/35/1
f 18/35/1 27/3/1 21/2/1
f 27/3/1 26/15/1 29/8/1
f 30/4/1 27/3/1 24/6/1
f 26/15/1 25/12/1 28/10/1
f 29/8/1 24/6/1 27/3/1
f 26/15/1 28/10/1 29/8/1
f 17/21/1 18/35/1 23/23/1
f 27/3/1 30/4/1 22/1/1
f 20/25/1 18/35/1 19/27/1
f 20/25/1 23/23/1 18/35/1
f 21/2/1 19/27/1 18/35/1
f 30/4/2 2/7/2 1/5/2
f 24/6/3 3/9/3 2/7/3
f 29/8/4 4/11/4 3/9/4
f 28/10/5 5/13/5 4/11/5
f 25/12/6 6/36/6 5/13/6
f 7/14/7 6/36/7 25/12/7
f 14/16/8 7/14/8 26/15/8
f 15/17/9 18/35/9 16/18/9
f 9/20/10 8/19/10 16/18/10
f 10/22/11 9/20/11 17/21/11
f 11/24/12 10/22/12 23/23/12
f 12/26/13 11/24/13 20/25/13
f 15/29/18 8/37/18 9/38/18
f 9/38/18 10/39/18 15/29/18
f 10/39/18 11/40/18 15/29/18
f 11/40/18 12/41/18 15/29/18
f 12/41/18 13/30/18 15/29/18
f 13/30/19 1/42/19 14/28/19
f 1/42/19 2/43/19 14/28/19
f 2/43/19 3/44/19 14/28/19
f 3/44/20 4/45/20 14/28/20
f 4/45/21 5/46/21 7/47/21
f 5/46/22 6/48/22 7/47/22
f 7/47/23 14/28/23 4/45/23
f 13/31/15 12/26/15 19/27/15
f 13/31/16 21/2/16 22/1/16
f 18/32/17 15/49/17 14/33/17
