# Blender v3.0.0 OBJ File: 'terrain_woods_190.blend'
# www.blender.org
mtllib terrain_woods_190.mtl
o terrain_Woods_#190.001
v 0.261609 0.019992 2.201609
v -1.074998 0.019993 1.898206
v -0.116736 0.019992 2.251191
v -0.591012 0.019992 2.188860
v -0.591012 -0.020007 2.188860
v -0.116736 -0.020007 2.251191
v -1.074998 -0.020006 1.898206
v 0.261609 -0.020007 2.201609
v -1.542517 -0.020005 1.520048
v 0.649479 -0.020007 2.096326
v 0.649479 0.019992 2.096326
v -1.542517 0.019994 1.520049
v 1.107611 -0.019992 -2.165533
v -2.013582 -0.020003 1.131144
v -1.046781 -0.019993 -2.153860
v 1.659298 -0.020005 1.660112
v -2.013582 0.019996 1.131144
v -2.013582 0.019996 1.131144
v -2.013582 -0.020003 1.131144
v -2.490647 -0.020002 0.865205
v -2.490647 0.019997 0.865205
v -2.278065 0.020006 -1.687743
v -2.990139 0.020005 -1.421683
v -2.990139 -0.019995 -1.421683
v -3.664925 0.020004 -1.072114
v -3.664925 -0.019996 -1.072114
v -3.134567 -0.020002 0.625725
v -4.503699 0.020000 0.117291
v -4.650536 0.020001 -0.280039
v -4.650536 -0.019999 -0.280039
v -4.503699 -0.020000 0.117291
v -3.834211 -0.020001 0.398771
v -4.398548 -0.019998 -0.717821
v -4.398548 0.020002 -0.717821
v -3.834211 0.019999 0.398770
v -3.134568 0.019997 0.625725
v -2.278064 -0.019994 -1.687743
v -1.638178 -0.019993 -1.922862
v -1.046781 -0.019993 -2.153860
v -1.046781 0.020007 -2.153860
v -1.638178 0.020007 -1.922862
v -1.046782 0.020007 -2.153860
v -0.507213 -0.019992 -2.363434
v 1.107611 0.020008 -2.165533
v 0.478757 0.020008 -2.365085
v -0.507213 0.020008 -2.363434
v -0.045426 -0.019992 -2.420731
v -0.045426 0.020008 -2.420731
v 0.478757 -0.019992 -2.365085
v 4.478975 0.020000 0.229432
v 4.619250 0.020000 -0.149266
v 4.524350 0.020001 -0.487196
v 4.619250 -0.020000 -0.149266
v 4.524350 -0.019999 -0.487196
v 4.166094 -0.019997 -0.818601
v 3.600098 0.019997 0.813927
v 4.166094 0.020003 -0.818601
v 3.239851 0.020005 -1.407190
v 2.545793 0.019995 1.292742
v 3.022783 0.019996 1.060299
v 1.949736 0.020006 -1.865955
v 2.545793 -0.020004 1.292742
v 3.022781 -0.020003 1.060299
v 3.600098 -0.020002 0.813927
v 4.108983 -0.020001 0.561219
v 3.239851 -0.019995 -1.407190
v 1.949736 -0.019994 -1.865955
v 4.108983 0.019999 0.561219
v 4.478975 -0.020000 0.229432
v 2.026791 -0.020005 1.510690
v 2.026791 0.019994 1.510690
v 1.659298 0.019994 1.660112
v 1.142690 -0.020006 1.899044
v 1.142690 0.019993 1.899044
vt 0.430858 0.527497
vt 0.378647 0.521719
vt 0.430858 0.521719
vt 0.377570 0.526809
vt 0.324828 0.521030
vt 0.324828 0.526809
vt 0.482022 0.527497
vt 0.429706 0.552464
vt 0.387776 0.569516
vt 0.464655 0.549665
vt 0.270587 0.521030
vt 0.270587 0.526809
vt 0.522837 0.521719
vt 0.482022 0.521719
vt 0.277395 0.656084
vt 0.277395 0.656084
vt 0.277395 0.656084
vt 0.225931 0.521719
vt 0.277395 0.527497
vt 0.225931 0.527497
vt 0.156466 0.521719
vt 0.915764 0.519795
vt 0.973328 0.514347
vt 0.915764 0.514347
vt 0.347832 0.526883
vt 0.403248 0.521104
vt 0.347832 0.521104
vt 0.080991 0.527497
vt 0.008768 0.521719
vt 0.080991 0.521719
vt 0.156466 0.527497
vt 0.960412 0.540133
vt 0.960412 0.540133
vt 0.960412 0.540133
vt 0.372445 0.514806
vt 0.427320 0.520254
vt 0.427320 0.514806
vt 0.474285 0.520254
vt 0.474285 0.514806
vt 0.527596 0.520254
vt 0.527596 0.514806
vt 0.591552 0.520254
vt 0.591552 0.514806
vt 0.015637 0.982421
vt 0.016605 0.982605
vt 0.017581 0.983395
vt 0.677199 0.520254
vt 0.285916 0.526883
vt 0.332191 0.521104
vt 0.332191 0.526883
vt 0.385009 0.521104
vt 0.385009 0.526883
vt 0.990523 0.514347
vt 0.946089 0.519795
vt 0.946089 0.514347
vt 0.808407 0.514806
vt 0.902608 0.520254
vt 0.902608 0.514806
vt 0.902513 0.519795
vt 0.902513 0.514347
vt 0.677199 0.514806
vt 0.808407 0.520254
vt 0.617885 0.527497
vt 0.564679 0.521719
vt 0.617885 0.521719
vt 0.522837 0.527497
vt 0.372445 0.520254
vt 0.372445 0.514806
vt 0.312298 0.514806
vt 0.328213 0.710325
vt 0.277395 0.656084
vt 0.225931 0.618993
vt 0.896614 0.572351
vt 0.960412 0.540133
vt 0.896614 0.572351
vt 0.378647 0.527497
vt 0.377570 0.521030
vt 0.322583 0.921555
vt 0.354625 0.960863
vt 0.481983 0.990224
vt 0.388568 0.991814
vt 0.423535 1.000647
vt 0.452190 0.998098
vt 0.520354 0.974085
vt 0.503403 0.558147
vt 0.548871 0.581154
vt 0.560792 0.954060
vt 0.589401 0.941800
vt 0.609511 0.615090
vt 0.629858 0.923818
vt 0.290358 0.881187
vt 0.341809 0.588331
vt 0.667285 0.904185
vt 0.712318 0.883801
vt 0.702411 0.667061
vt 0.752284 0.862400
vt 0.767123 0.729419
vt 0.256742 0.852665
vt 0.292187 0.607257
vt 0.112030 0.768473
vt 0.159906 0.799637
vt 0.126286 0.688407
vt 0.210455 0.825711
vt 0.183826 0.658522
vt 0.104100 0.729212
vt 0.236933 0.628745
vt 0.782477 0.832535
vt 0.791358 0.763563
vt 0.795861 0.796776
vt 0.277395 0.521719
vt 0.973328 0.519795
vt 0.403248 0.526883
vt 0.008768 0.527497
vt 0.372445 0.520254
vt 0.021733 0.986850
vt 0.023154 0.987480
vt 0.022729 0.991369
vt 0.024510 0.988253
vt 0.024250 0.990461
vt 0.024790 0.989312
vt 0.021328 0.992267
vt 0.019855 0.992942
vt 0.020426 0.986189
vt 0.018531 0.993539
vt 0.019463 0.985466
vt 0.017307 0.994126
vt 0.016191 0.994659
vt 0.015242 0.994792
vt 0.014059 0.982799
vt 0.014859 0.982537
vt 0.014171 0.994623
vt 0.012893 0.994068
vt 0.013038 0.983302
vt 0.011184 0.993240
vt 0.011967 0.983913
vt 0.018519 0.984416
vt 0.008566 0.991972
vt 0.009142 0.985446
vt 0.006700 0.990375
vt 0.007946 0.986074
vt 0.005983 0.989482
vt 0.006114 0.987586
vt 0.005807 0.988583
vt 0.006890 0.986723
vt 0.010131 0.984850
vt 0.011206 0.984294
vt 0.285916 0.521104
vt 0.990523 0.519795
vt 0.820705 0.521719
vt 0.882984 0.521719
vt 0.882984 0.527497
vt 0.937881 0.521719
vt 0.937881 0.527497
vt 0.820705 0.527497
vt 0.769248 0.527497
vt 0.769248 0.521719
vt 0.713260 0.527497
vt 0.673616 0.527497
vt 0.673616 0.521719
vt 0.713260 0.521719
vt 0.564679 0.527497
vt 0.106172 0.514806
vt 0.031561 0.514806
vt 0.031561 0.520254
vt 0.106172 0.520254
vt 0.174800 0.520254
vt 0.174800 0.514806
vt 0.247220 0.520254
vt 0.312298 0.520254
vt 0.247220 0.514806
vn -0.5148 0.0000 0.8573
vn -0.6289 -0.0000 0.7775
vn -0.6366 -0.0000 0.7712
vn -0.1303 0.0000 0.9915
vn 0.0000 1.0000 0.0000
vn -0.6367 -0.0000 0.7712
vn 0.1299 0.0000 0.9915
vn 0.9919 -0.0000 -0.1268
vn -0.2424 -0.1004 -0.9650
vn 0.0000 0.0000 1.0000
vn -0.4869 0.0000 0.8735
vn -0.3486 -0.0000 0.9373
vn -0.8667 0.0000 -0.4989
vn -0.9380 0.0000 0.3466
vn -0.3876 0.0000 0.9218
vn -0.3086 -0.0000 0.9512
vn -0.0536 -0.5064 0.8606
vn 0.6275 -0.7731 0.0930
vn -0.3621 -0.0000 -0.9322
vn -0.1231 0.0000 -0.9924
vn 0.1056 0.0000 -0.9944
vn 0.3025 0.0000 -0.9532
vn -0.0000 -1.0000 -0.0000
vn 0.3351 0.0000 -0.9422
vn 0.3352 0.0000 -0.9422
vn 0.6676 0.0000 0.7445
vn 0.9377 0.0000 0.3474
vn 0.9628 0.0000 -0.2704
vn 0.5363 0.0000 -0.8440
vn 0.6791 0.0000 -0.7341
vn 0.3350 0.0000 -0.9422
vn 0.3615 -0.0000 0.9324
vn 0.3362 0.0000 0.9418
vn 0.4099 0.0000 0.9121
vn 0.2620 0.0000 0.9651
vn -0.3331 0.0000 -0.9429
vn -0.3046 0.0000 -0.9525
vn -0.7712 0.0000 -0.6367
vn 0.8432 0.4868 0.2280
vn -0.8735 -0.0001 0.4869
vn -0.0158 -0.9829 -0.1833
vn -0.0522 -0.9656 0.2546
vn 0.9315 -0.0000 -0.3638
vn 0.4024 -0.0000 0.9155
vn 0.4575 0.0000 0.8892
vn 0.4059 -0.0000 0.9139
vn 0.4837 0.0000 0.8753
vn 0.4479 -0.0000 0.8941
vn 0.3945 -0.0000 0.9189
vn 0.4450 -0.0000 0.8955
vn 0.3528 0.0000 0.9357
vn 0.4126 0.0000 0.9109
vn 0.3692 -0.0000 0.9294
vn 0.3633 -0.0000 0.9317
vn -0.4875 -0.0000 -0.8731
vn -0.4756 0.0000 -0.8797
vn -0.4755 -0.0000 -0.8797
vn -0.5118 -0.0000 -0.8591
vn -0.3627 0.0000 -0.9319
vn -0.4710 -0.0000 -0.8821
vn -0.2977 -0.0000 -0.9547
vn -0.3238 -0.0000 -0.9461
vn -0.3028 -0.0001 -0.9530
usemtl Default_OBJ.011
s 1
f 4/1/1 7/2/1 5/3/1
f 7/4/2 12/5/3 9/6/2
f 5/3/4 3/7/4 4/1/4
f 46/8/5 42/9/5 48/10/5
f 9/6/2 17/11/6 19/12/6
f 8/13/7 3/7/7 6/14/7
f 17/15/8 18/16/9 14/17/10
f 20/18/11 18/19/11 21/20/11
f 21/20/12 27/21/12 20/18/12
f 33/22/13 29/23/13 34/24/13
f 28/25/14 30/26/14 31/27/14
f 35/28/15 31/29/15 32/30/15
f 36/31/16 32/30/16 27/21/16
f 39/32/10 40/33/17 15/34/18
f 15/35/19 46/36/19 43/37/19
f 43/37/20 48/38/20 47/39/20
f 45/40/21 47/39/21 48/38/21
f 49/41/22 44/42/22 13/43/22
f 6/44/23 5/45/23 7/46/23
f 61/47/24 13/43/25 44/42/25
f 68/48/26 69/49/26 50/50/26
f 50/50/27 53/51/27 51/52/27
f 51/53/28 54/54/28 52/55/28
f 66/56/29 57/57/29 55/58/29
f 52/55/30 55/59/30 57/60/30
f 67/61/24 58/62/31 66/56/31
f 74/63/32 10/64/33 73/65/34
f 10/64/35 1/66/35 8/13/35
f 40/67/36 39/68/36 38/69/37
f 14/17/10 9/70/38 19/71/39
f 17/15/8 21/72/40 18/16/9
f 14/17/10 19/71/39 17/15/8
f 40/33/17 41/73/41 42/74/42
f 15/34/18 38/75/43 39/32/10
f 40/33/17 42/74/42 15/34/18
f 4/1/1 2/76/1 7/2/1
f 7/4/2 2/77/2 12/5/3
f 5/3/4 6/14/4 3/7/4
f 12/78/5 2/79/5 11/80/5
f 2/79/5 4/81/5 3/82/5
f 1/83/5 2/79/5 3/82/5
f 1/83/5 11/80/5 2/79/5
f 11/80/5 74/84/5 12/78/5
f 45/85/5 74/84/5 44/86/5
f 72/87/5 71/88/5 61/89/5
f 71/88/5 59/90/5 61/89/5
f 74/84/5 45/85/5 12/78/5
f 74/84/5 72/87/5 44/86/5
f 17/91/5 12/78/5 42/9/5
f 17/91/5 42/9/5 41/92/5
f 60/93/5 56/94/5 58/95/5
f 56/94/5 68/96/5 57/97/5
f 72/87/5 61/89/5 44/86/5
f 59/90/5 60/93/5 61/89/5
f 21/98/5 17/91/5 22/99/5
f 28/100/5 35/101/5 34/102/5
f 35/101/5 36/103/5 25/104/5
f 28/100/5 34/102/5 29/105/5
f 17/91/5 41/92/5 22/99/5
f 45/85/5 42/9/5 12/78/5
f 36/103/5 21/98/5 23/106/5
f 42/9/5 45/85/5 48/10/5
f 56/94/5 57/97/5 58/95/5
f 68/96/5 50/107/5 57/97/5
f 57/97/5 50/107/5 52/108/5
f 50/107/5 51/109/5 52/108/5
f 58/95/5 61/89/5 60/93/5
f 35/101/5 25/104/5 34/102/5
f 25/104/5 36/103/5 23/106/5
f 22/99/5 23/106/5 21/98/5
f 9/6/2 12/5/3 17/11/6
f 8/13/7 1/66/7 3/7/7
f 20/18/11 14/110/11 18/19/11
f 21/20/12 36/31/12 27/21/12
f 33/22/13 30/111/13 29/23/13
f 28/25/14 29/112/14 30/26/14
f 35/28/15 28/113/15 31/29/15
f 36/31/16 35/28/16 32/30/16
f 15/35/19 42/114/19 46/36/19
f 43/37/20 46/36/20 48/38/20
f 45/40/21 49/41/21 47/39/21
f 49/41/22 45/40/22 44/42/22
f 27/115/23 32/116/23 26/117/23
f 32/116/23 31/118/23 33/119/23
f 26/117/23 32/116/23 33/119/23
f 31/118/23 30/120/23 33/119/23
f 26/117/23 24/121/23 27/115/23
f 24/121/23 37/122/23 20/123/23
f 24/121/23 20/123/23 27/115/23
f 37/122/23 38/124/23 14/125/23
f 38/124/23 15/126/23 14/125/23
f 15/126/23 43/127/23 47/128/23
f 7/46/23 10/129/23 8/130/23
f 47/128/23 49/131/23 15/126/23
f 49/131/23 13/132/23 73/133/23
f 13/132/23 67/134/23 16/135/23
f 73/133/23 9/136/23 49/131/23
f 67/134/23 66/137/23 63/138/23
f 66/137/23 55/139/23 64/140/23
f 63/138/23 66/137/23 64/140/23
f 55/139/23 54/141/23 69/142/23
f 54/141/23 53/143/23 69/142/23
f 69/142/23 65/144/23 55/139/23
f 65/144/23 64/140/23 55/139/23
f 63/138/23 62/145/23 67/134/23
f 62/145/23 70/146/23 67/134/23
f 16/135/23 73/133/23 13/132/23
f 73/133/23 10/129/23 9/136/23
f 70/146/23 16/135/23 67/134/23
f 37/122/23 14/125/23 20/123/23
f 10/129/23 7/46/23 9/136/23
f 9/136/23 14/125/23 15/126/23
f 15/126/23 49/131/23 9/136/23
f 8/130/23 6/44/23 7/46/23
f 61/47/24 67/61/24 13/43/25
f 68/48/26 65/147/26 69/49/26
f 50/50/27 69/49/27 53/51/27
f 51/53/28 53/148/28 54/54/28
f 66/56/29 58/62/29 57/57/29
f 52/55/30 54/54/30 55/59/30
f 67/61/24 61/47/24 58/62/31
f 63/149/44 64/150/45 56/151/46
f 64/150/45 65/152/47 56/151/46
f 65/152/47 68/153/47 56/151/46
f 56/151/46 60/154/48 63/149/44
f 60/154/48 59/155/49 62/156/50
f 71/157/51 72/158/52 16/159/53
f 72/158/52 74/63/32 73/65/34
f 60/154/48 62/156/50 63/149/44
f 59/155/49 71/157/51 62/156/50
f 16/159/53 70/160/54 71/157/51
f 70/160/54 62/156/50 71/157/51
f 72/158/52 73/65/34 16/159/53
f 74/63/32 11/161/33 10/64/33
f 10/64/35 11/161/35 1/66/35
f 26/162/55 33/163/56 34/164/57
f 34/164/57 25/165/58 26/162/55
f 25/165/58 23/166/59 24/167/60
f 22/168/61 41/169/62 38/69/37
f 41/169/62 40/67/36 38/69/37
f 25/165/58 24/167/60 26/162/55
f 23/166/59 22/168/61 24/167/60
f 38/69/37 37/170/63 22/168/61
f 37/170/63 24/167/60 22/168/61
